<svg width="190" height="42" viewBox="0 0 190 42" fill="none" xmlns="http://www.w3.org/2000/svg">
<g clip-path="url(#clip0_21_418)">
<path d="M20.4137 0V16.6676C20.4137 17.3676 19.5813 17.7081 19.0894 17.2162L11.238 9.55405L14.5299 1.0027C14.757 0.397297 15.3434 0 15.9867 0L20.4137 0Z" fill="#3D5678" fill-opacity="0.75"/>
<path d="M20.4136 22.7027V32.0676C20.4136 32.6919 19.6758 32.9946 19.2218 32.5784L7.05688 21.1135L10.6326 11.8433L19.5055 20.527C20.092 21.0946 20.4136 21.8703 20.4136 22.7027Z" fill="#3D5678" fill-opacity="0.75"/>
<path d="M20.4136 37.7999V41.9999H1.55146C0.473086 41.9999 -0.28367 40.9026 0.113627 39.8999L6.43255 23.4404L19.5434 35.8134C20.1109 36.3242 20.4136 37.0431 20.4136 37.7999Z" fill="#3D5678" fill-opacity="0.75"/>
<path d="M22.438 0V16.6676C22.438 17.3676 23.2704 17.7081 23.7623 17.2162L31.5947 9.55405L28.3218 1.0027C28.0758 0.397297 27.5083 0 26.865 0L22.438 0Z" fill="#3D5678" fill-opacity="0.75"/>
<path d="M22.4379 22.7027V32.0676C22.4379 32.6919 23.1757 32.9946 23.6298 32.5784L35.7946 21.1135L32.2189 11.8433L23.346 20.527C22.7595 21.0946 22.4189 21.8703 22.4189 22.7027H22.4379Z" fill="#3D5678" fill-opacity="0.75"/>
<path d="M22.438 37.7999V41.9999H41.2812C42.3785 41.9999 43.1353 40.9026 42.738 39.8999L36.4001 23.4404L23.2893 35.8134C22.7407 36.3242 22.438 37.0431 22.438 37.7999Z" fill="#3D5678" fill-opacity="0.75"/>
<path d="M189.227 34.1298H184.478L181.981 27.7163H170.27L167.792 34.1298H163.081L173.505 7.87036H178.973L189.227 34.1298ZM176.116 12.5812L171.822 23.6677H180.411L176.116 12.5812Z" fill="#3D5678" fill-opacity="0.75"/>
<path d="M144.597 34.1298H140.076V7.87036H151.938C156.611 7.87036 160.111 10.8785 160.111 15.0028C160.111 18.3325 158.465 20.6596 155.703 21.6433C158.616 21.6433 159.733 22.8731 159.733 25.3514V34.1298H155.23V26.4677C155.23 24.519 154.662 23.9704 152.695 23.9704H144.597V34.1298ZM144.597 11.8812V19.9785H150.822C153.943 19.9785 155.589 18.2947 155.589 15.7785C155.589 13.2055 153.943 11.8812 150.822 11.8812H144.597Z" fill="#3D5678" fill-opacity="0.75"/>
<path d="M122.122 34.5082C114.781 34.5082 109.503 29.4379 109.503 21.0001C109.503 12.5622 114.781 7.49194 122.122 7.49194C129.519 7.49194 134.778 12.5622 134.778 21.0001C134.778 29.4379 129.519 34.5082 122.122 34.5082ZM121.933 30.4784H122.311C127.097 30.4784 130.257 26.9595 130.257 21.0001C130.257 15.0406 127.097 11.5217 122.311 11.5217H121.933C117.165 11.5217 114.024 15.0406 114.024 21.0001C114.024 26.9595 117.165 30.4784 121.933 30.4784Z" fill="#3D5678" fill-opacity="0.75"/>
<path d="M93.6487 34.5082C86.0055 34.5082 81.1055 28.7568 81.1055 21.0001C81.1055 13.2433 86.119 7.49194 94.0271 7.49194C100.8 7.49194 104.716 11.446 105.095 16.7244H100.573C100.195 13.5838 98.0568 11.5217 94.2163 11.5217H93.8379C88.7865 11.5217 85.6271 15.1541 85.6271 21.0001C85.6271 26.846 88.7865 30.4784 93.8379 30.4784H94.2163C98.0947 30.4784 100.838 28.246 101.33 25.0487L101.368 24.5946H94.0271V20.5838H102.087C104.149 20.5838 105.284 21.719 105.284 23.7811V34.1298H101.33V31.3865C100.119 32.8055 97.6406 34.5082 93.6487 34.5082Z" fill="#3D5678" fill-opacity="0.75"/>
<path d="M79.4974 34.1298H74.7677L72.2704 27.7163H60.5595L58.0812 34.1298H53.3704L63.7947 7.87036H69.2623L79.4974 34.1298ZM66.3866 12.5812L62.092 23.6677H70.6812L66.3866 12.5812Z" fill="#3D5678" fill-opacity="0.75"/>
</g>
<defs>
<clipPath id="clip0_21_418">
<rect width="189.189" height="42" fill="white"/>
</clipPath>
</defs>
</svg>
