<svg width="142" height="25" viewBox="0 0 142 25" fill="none"><g><path d="M0 6.61816C0.00015342 6.22773 0.480609 5.94263 0.991211 6.01758L32 11.3203V16.4141L0.510742 7.18945C0.210273 7.09931 0 6.87356 0 6.61816ZM32 5.46094V9.75781L0.630859 4.37988C0.255483 4.3198 0.000245262 4.0792 0 3.79395V3.77832C0.000142551 3.41785 0.406052 3.14769 0.886719 3.17773L32 5.46094ZM32 3.89941L0.720703 1.60059C0.315267 1.5704 0 1.31441 0 0.999023V0.984375C7.77581e-05 0.653908 0.360868 0.383789 0.811523 0.383789H32V3.89941Z" fill="#6B7E97"></path><path d="M31.2793 23.4001C31.6847 23.4304 32 23.6854 32 24.0007V24.0154C32 24.3459 31.6392 24.6169 31.1885 24.6169H0V21.1013L31.2793 23.4001ZM31.3691 20.6199C31.7446 20.68 31.9999 20.9205 32 21.2058V21.2214C31.9997 21.5818 31.5939 21.8521 31.1133 21.822L0 19.5388V15.2419L31.3691 20.6199ZM31.4893 17.8113C31.7896 17.9014 31.9999 18.1263 32 18.3816C32 18.7721 31.5195 19.0575 31.0088 18.9675L0 13.6648V8.58667L31.4893 17.8113Z" fill="url(#paint1_linear_28_9071)"></path></g><path d="M41.66 20V6H45.62V20H41.66ZM43.54 14.9V11.72H50.78V14.9H43.54ZM43.54 9.42V6H51.56V9.42H43.54ZM57.467 20.18C56.587 20.18 55.7937 19.9467 55.087 19.48C54.3937 19 53.8404 18.3467 53.427 17.52C53.027 16.68 52.827 15.7267 52.827 14.66C52.827 13.5667 53.027 12.6067 53.427 11.78C53.827 10.9533 54.3804 10.3067 55.087 9.84C55.7937 9.36 56.607 9.12 57.527 9.12C58.0204 9.12 58.4737 9.18667 58.887 9.32C59.3004 9.45333 59.6604 9.64667 59.967 9.9C60.2737 10.1533 60.5404 10.44 60.767 10.76C60.9937 11.08 61.1804 11.4267 61.327 11.8L60.567 11.76V9.34H64.227V20H60.487V17.4L61.307 17.44C61.187 17.8267 61.007 18.1867 60.767 18.52C60.5404 18.8533 60.2604 19.1467 59.927 19.4C59.5937 19.64 59.2204 19.8333 58.807 19.98C58.407 20.1133 57.9604 20.18 57.467 20.18ZM58.527 17.12C58.9537 17.12 59.3204 17.0267 59.627 16.84C59.9337 16.64 60.167 16.3533 60.327 15.98C60.5004 15.6067 60.587 15.1667 60.587 14.66C60.587 14.14 60.5004 13.6933 60.327 13.32C60.167 12.9467 59.9337 12.6667 59.627 12.48C59.3204 12.28 58.9537 12.18 58.527 12.18C58.1004 12.18 57.7337 12.28 57.427 12.48C57.1337 12.6667 56.907 12.9467 56.747 13.32C56.587 13.6933 56.507 14.14 56.507 14.66C56.507 15.1667 56.587 15.6067 56.747 15.98C56.907 16.3533 57.1337 16.64 57.427 16.84C57.7337 17.0267 58.1004 17.12 58.527 17.12ZM67.025 20V9.34H70.505L70.705 12.84L69.925 12.24C70.0983 11.6533 70.365 11.1267 70.725 10.66C71.0983 10.18 71.545 9.80667 72.065 9.54C72.585 9.26 73.1317 9.12 73.705 9.12C73.945 9.12 74.1717 9.14 74.385 9.18C74.5983 9.20667 74.7983 9.24667 74.985 9.3L73.965 13.42C73.8183 13.3267 73.6117 13.2467 73.345 13.18C73.0783 13.1 72.7917 13.06 72.485 13.06C72.2183 13.06 71.9783 13.1067 71.765 13.2C71.5517 13.28 71.3717 13.4 71.225 13.56C71.0783 13.72 70.965 13.9133 70.885 14.14C70.805 14.3533 70.765 14.6067 70.765 14.9V20H67.025ZM81.2666 20.2C80.1332 20.2 79.1199 19.96 78.2266 19.48C77.3332 19 76.6332 18.3467 76.1266 17.52C75.6199 16.6933 75.3666 15.74 75.3666 14.66C75.3666 13.58 75.6199 12.6267 76.1266 11.8C76.6332 10.9733 77.3332 10.32 78.2266 9.84C79.1199 9.36 80.1332 9.12 81.2666 9.12C82.3999 9.12 83.4066 9.36 84.2866 9.84C85.1799 10.32 85.8799 10.9733 86.3866 11.8C86.8932 12.6267 87.1466 13.58 87.1466 14.66C87.1466 15.74 86.8932 16.6933 86.3866 17.52C85.8799 18.3467 85.1799 19 84.2866 19.48C83.4066 19.96 82.3999 20.2 81.2666 20.2ZM81.2666 17.06C81.6666 17.06 82.0266 16.96 82.3466 16.76C82.6799 16.5467 82.9332 16.26 83.1066 15.9C83.2932 15.5267 83.3866 15.1133 83.3866 14.66C83.3866 14.18 83.2932 13.76 83.1066 13.4C82.9332 13.04 82.6799 12.76 82.3466 12.56C82.0266 12.3467 81.6666 12.24 81.2666 12.24C80.8532 12.24 80.4866 12.3467 80.1666 12.56C79.8466 12.76 79.5932 13.0467 79.4066 13.42C79.2199 13.78 79.1266 14.1933 79.1266 14.66C79.1266 15.1133 79.2199 15.5267 79.4066 15.9C79.5932 16.26 79.8466 16.5467 80.1666 16.76C80.4866 16.96 80.8532 17.06 81.2666 17.06ZM94.0534 20.2C93.2934 20.2 92.5868 20.1 91.9334 19.9C91.2934 19.7 90.7068 19.4 90.1734 19C89.6534 18.5867 89.1868 18.08 88.7734 17.48L90.2534 15.78C90.9068 16.7133 91.5334 17.36 92.1334 17.72C92.7334 18.08 93.4468 18.26 94.2734 18.26C94.7801 18.26 95.2401 18.18 95.6534 18.02C96.0668 17.86 96.3934 17.64 96.6334 17.36C96.8734 17.08 96.9934 16.76 96.9934 16.4C96.9934 16.16 96.9534 15.9333 96.8734 15.72C96.7934 15.5067 96.6668 15.3133 96.4934 15.14C96.3334 14.9667 96.1201 14.8067 95.8534 14.66C95.6001 14.5133 95.3001 14.3867 94.9534 14.28C94.6068 14.16 94.2068 14.06 93.7534 13.98C93.0334 13.8333 92.4068 13.64 91.8734 13.4C91.3401 13.16 90.8934 12.86 90.5334 12.5C90.1734 12.14 89.9068 11.7333 89.7334 11.28C89.5601 10.8133 89.4734 10.2933 89.4734 9.72C89.4734 9.16 89.5934 8.64 89.8334 8.16C90.0868 7.68 90.4268 7.26667 90.8534 6.92C91.2934 6.56 91.8068 6.28667 92.3934 6.1C92.9801 5.9 93.6134 5.8 94.2934 5.8C95.0134 5.8 95.6734 5.89333 96.2734 6.08C96.8734 6.26667 97.4068 6.54667 97.8734 6.92C98.3401 7.28 98.7268 7.72667 99.0334 8.26L97.5134 9.76C97.2468 9.32 96.9468 8.95333 96.6134 8.66C96.2801 8.35333 95.9134 8.12667 95.5134 7.98C95.1134 7.82 94.6868 7.74 94.2334 7.74C93.7134 7.74 93.2601 7.82 92.8734 7.98C92.4868 8.14 92.1801 8.36667 91.9534 8.66C91.7401 8.94 91.6334 9.27333 91.6334 9.66C91.6334 9.94 91.6868 10.2 91.7934 10.44C91.9001 10.6667 92.0601 10.8733 92.2734 11.06C92.5001 11.2333 92.8001 11.3933 93.1734 11.54C93.5468 11.6733 93.9934 11.7933 94.5134 11.9C95.2468 12.06 95.9001 12.2667 96.4734 12.52C97.0468 12.76 97.5334 13.0467 97.9334 13.38C98.3334 13.7133 98.6334 14.0867 98.8334 14.5C99.0468 14.9133 99.1534 15.36 99.1534 15.84C99.1534 16.7333 98.9468 17.5067 98.5334 18.16C98.1201 18.8133 97.5334 19.32 96.7734 19.68C96.0134 20.0267 95.1068 20.2 94.0534 20.2ZM104.274 20L100.694 9.5L102.774 9.48L105.334 17.34L104.874 17.3L107.654 11.16H108.894L111.694 17.32L111.154 17.36L113.734 9.5H115.814L112.274 20H110.854L107.934 13.32L108.394 13.38L105.674 20H104.274ZM121.437 20.2C120.57 20.2 119.777 19.96 119.057 19.48C118.35 19 117.784 18.3467 117.357 17.52C116.93 16.6933 116.717 15.76 116.717 14.72C116.717 13.6667 116.93 12.7333 117.357 11.92C117.797 11.0933 118.384 10.4467 119.117 9.98C119.864 9.51333 120.697 9.28 121.617 9.28C122.164 9.28 122.664 9.36 123.117 9.52C123.57 9.68 123.964 9.90667 124.297 10.2C124.644 10.48 124.924 10.8067 125.137 11.18C125.364 11.5533 125.504 11.9533 125.557 12.38L125.097 12.22V9.5H127.177V20H125.097V17.5L125.577 17.36C125.497 17.72 125.33 18.0733 125.077 18.42C124.837 18.7533 124.524 19.0533 124.137 19.32C123.764 19.5867 123.344 19.8 122.877 19.96C122.424 20.12 121.944 20.2 121.437 20.2ZM121.977 18.3C122.604 18.3 123.157 18.1467 123.637 17.84C124.117 17.5333 124.49 17.1133 124.757 16.58C125.037 16.0333 125.177 15.4133 125.177 14.72C125.177 14.04 125.037 13.4333 124.757 12.9C124.49 12.3667 124.117 11.9467 123.637 11.64C123.157 11.3333 122.604 11.18 121.977 11.18C121.364 11.18 120.817 11.3333 120.337 11.64C119.87 11.9467 119.497 12.3667 119.217 12.9C118.95 13.4333 118.817 14.04 118.817 14.72C118.817 15.4133 118.95 16.0333 119.217 16.58C119.497 17.1133 119.87 17.5333 120.337 17.84C120.817 18.1467 121.364 18.3 121.977 18.3ZM130.053 24.4V9.5H132.133V11.9L131.813 11.72C131.893 11.32 132.12 10.94 132.493 10.58C132.867 10.2067 133.32 9.90667 133.853 9.68C134.4 9.44 134.96 9.32 135.533 9.32C136.48 9.32 137.32 9.55333 138.053 10.02C138.787 10.4867 139.367 11.1267 139.793 11.94C140.22 12.7533 140.433 13.6867 140.433 14.74C140.433 15.78 140.22 16.7133 139.793 17.54C139.38 18.3533 138.807 19 138.073 19.48C137.34 19.9467 136.513 20.18 135.593 20.18C134.98 20.18 134.387 20.06 133.813 19.82C133.24 19.5667 132.753 19.2467 132.353 18.86C131.953 18.4733 131.707 18.0733 131.613 17.66L132.133 17.38V24.4H130.053ZM135.253 18.28C135.867 18.28 136.413 18.1267 136.893 17.82C137.373 17.5133 137.753 17.0933 138.033 16.56C138.313 16.0267 138.453 15.42 138.453 14.74C138.453 14.06 138.313 13.46 138.033 12.94C137.767 12.4067 137.393 11.9867 136.913 11.68C136.433 11.3733 135.88 11.22 135.253 11.22C134.627 11.22 134.073 11.3733 133.593 11.68C133.113 11.9733 132.733 12.3867 132.453 12.92C132.173 13.4533 132.033 14.06 132.033 14.74C132.033 15.42 132.173 16.0267 132.453 16.56C132.733 17.0933 133.113 17.5133 133.593 17.82C134.073 18.1267 134.627 18.28 135.253 18.28Z" fill="#6B7E97"></path><defs><linearGradient id="paint0_linear_28_9071" x1="32" y1="11.2089" x2="0" y2="11.2089" gradientUnits="userSpaceOnUse"><stop stop-color="#6B7E97"></stop><stop offset="1" stop-color="#FEE94F"></stop></linearGradient><linearGradient id="paint1_linear_28_9071" x1="32" y1="19.4118" x2="0" y2="19.4118" gradientUnits="userSpaceOnUse"><stop stop-color="#6B7E97"></stop><stop offset="1" stop-color="#6B7E97"></stop></linearGradient></defs></svg>