<svg width="189" height="38" viewBox="0 0 189 38" fill="none" xmlns="http://www.w3.org/2000/svg">
<mask id="mask0_144_6787" style="mask-type:luminance" maskUnits="userSpaceOnUse" x="0" y="0" width="38" height="38">
<path d="M37.8 0H0V37.8H37.8V0Z" fill="white"/>
</mask>
<g mask="url(#mask0_144_6787)">
<path d="M22.869 0.453125L22.7556 0.679924C26.6868 2.38092 28.917 5.89632 28.917 9.75191C28.917 13.9099 26.1954 17.6899 20.9034 20.9029L20.034 21.4321C16.065 23.8513 14.0616 26.5729 14.0616 29.8615C14.0616 34.0951 17.388 37.1946 21.9618 37.1946C29.295 37.1946 37.8 29.3701 37.8 18.9373C37.8 17.2363 37.5732 15.5731 37.1574 13.9855L36.8928 14.0611C37.0062 14.9305 37.044 15.5731 37.044 16.1779C37.044 22.3393 33.5664 27.6313 27.7452 31.1467L27.1782 31.4869C25.9308 32.2051 24.8724 32.6209 23.814 32.6209C22.4154 32.6209 21.357 31.7137 21.357 30.3907C21.357 29.2567 22.113 28.1227 24.57 26.6863L25.2882 26.2705C30.7314 23.0953 33.7554 18.6349 33.7554 13.6831C33.7554 7.40832 29.0682 2.22972 22.869 0.453125ZM14.931 37.3836L15.0444 37.1568C11.1132 35.4559 8.88299 31.9405 8.88299 28.0849C8.88299 23.9269 11.6046 20.1469 16.8966 16.9339L17.766 16.4047C21.735 13.9855 23.7384 11.2639 23.7384 7.97532C23.7384 3.74172 20.412 0.642124 15.8382 0.642124C8.50499 0.642124 0 8.46671 0 18.8995C0 20.6005 0.226801 22.2637 0.6426 23.8513L0.9072 23.7757C0.7938 22.9063 0.755999 22.2637 0.755999 21.6589C0.755999 15.4975 4.2336 10.2055 10.0548 6.69012L10.6218 6.34992C11.8692 5.63172 12.9276 5.21592 13.986 5.21592C15.3846 5.21592 16.443 6.12312 16.443 7.44612C16.443 8.58011 15.687 9.71411 13.23 11.1505L12.5118 11.5663C7.06859 14.7415 4.0446 19.2019 4.0446 24.1537C4.0446 30.4285 8.73179 35.6071 14.931 37.3836Z" fill="#6B7E97"/>
</g>
<mask id="mask1_144_6787" style="mask-type:luminance" maskUnits="userSpaceOnUse" x="56" y="0" width="133" height="38">
<path d="M189 0H56.7002V37.8H189V0Z" fill="white"/>
</mask>
<g mask="url(#mask1_144_6787)">
<mask id="mask2_144_6787" style="mask-type:luminance" maskUnits="userSpaceOnUse" x="56" y="5" width="133" height="31">
<path d="M189 5.21582H56.7002V35.601H189V5.21582Z" fill="white"/>
</mask>
<g mask="url(#mask2_144_6787)">
<path d="M56.7002 27.4429H57.2461C59.2053 27.4429 59.7836 26.8648 59.7836 24.5843V11.608C59.7836 9.32748 59.2053 8.74933 57.2461 8.74933H56.7002V6.85425H66.818V8.74933H66.304C64.3447 8.74933 63.7664 9.32748 63.7664 11.608V24.5843C63.7664 26.8648 64.3447 27.4429 66.304 27.4429H66.818V29.338H56.7002V27.4429Z" fill="#6B7E97"/>
<path d="M73.9804 12.925H74.8797V15.7837H74.9122C76.0683 13.8886 78.0275 12.7002 80.5975 12.7002C83.5523 12.7002 85.7045 14.3383 85.7045 18.8672V25.002C85.7045 27.0898 86.186 27.6037 87.8242 27.6037H88.2739V29.3382H79.7943V27.6037H80.2116C81.6892 27.6037 82.1071 27.0898 82.1071 25.002V18.8672C82.1071 16.3618 80.565 15.4946 78.8625 15.4946C76.9676 15.4946 74.8479 16.8436 74.8479 20.5374V25.002C74.8479 27.0898 75.2976 27.6037 76.7428 27.6037H77.1606V29.3382H68.7129V27.6037H69.1307C70.7689 27.6037 71.2505 27.0898 71.2505 25.002V16.5867L68.9377 15.88V14.788L73.9804 12.925Z" fill="#6B7E97"/>
<path d="M91.5491 28.6953V16.5861L89.2363 15.8795V14.7875L94.3115 12.9245H95.1465V27.1214C95.1465 31.6181 92.6414 34.6053 87.5981 35.601L87.502 35.2156C89.4936 34.0593 91.5491 32.0357 91.5491 28.6953ZM90.907 7.84963C90.907 6.37212 92.0306 5.21582 93.4764 5.21582C94.9216 5.21582 96.0458 6.37212 96.0777 7.84963C96.0777 9.29497 94.9535 10.4192 93.5083 10.4192C92.0631 10.4192 90.907 9.29497 90.907 7.84963Z" fill="#6B7E97"/>
<path d="M106.839 12.6357C110.982 12.6357 113.552 15.3659 113.552 19.5736V19.7984H102.149C102.181 24.0061 104.302 26.4472 108.124 26.4472C111.079 26.4472 112.46 24.9697 113.263 23.5243L113.808 23.6849C113.102 26.8005 110.789 29.7876 106.389 29.7876C101.507 29.7876 98.6162 26.0939 98.6162 21.4365C98.6162 16.4258 101.924 12.6357 106.839 12.6357ZM109.698 18.1604C109.537 15.7192 108.38 14.4024 106.293 14.4024C104.623 14.4024 102.759 15.2053 102.278 18.1604H109.698Z" fill="#6B7E97"/>
<path d="M116.217 21.7901C116.217 16.4583 120.585 12.636 125.981 12.636C127.876 12.636 129.45 13.1178 130.574 13.5996L130.606 18.6102L129.675 18.7387L127.009 14.4347C126.527 14.3062 126.045 14.242 125.596 14.242C122.994 14.242 119.75 16.2012 119.75 20.4089C119.75 23.8457 121.773 26.4795 125.531 26.4795C128.422 26.4795 129.835 24.9699 130.67 23.5246L131.217 23.7173C130.51 26.8007 128.197 29.7879 123.861 29.7879C119.075 29.7879 116.217 26.0941 116.217 21.7901Z" fill="#6B7E97"/>
<path d="M134.044 24.5203V13.5354L136.678 9.19922H137.673V13.2784H142.748V15.4305H137.673V23.7173C137.673 25.9015 138.573 27.0257 140.339 27.0257C141.078 27.0257 142.138 26.8329 143.198 25.6445L143.616 25.9015C142.556 28.2783 140.853 29.6595 138.445 29.6595C135.875 29.6595 134.044 27.9571 134.044 24.5203Z" fill="#6B7E97"/>
<path d="M145.029 27.6032H145.479C147.117 27.6032 147.599 27.0892 147.599 25.0015V16.6183L145.286 15.8795V14.7875L150.489 12.8924H151.196V25.0015C151.196 27.0892 151.678 27.6032 153.316 27.6032H153.734V29.3376H145.029V27.6032ZM146.764 7.84963C146.764 6.37212 147.888 5.21582 149.333 5.21582C150.778 5.21582 151.903 6.37212 151.935 7.84963C151.967 9.29497 150.811 10.4192 149.333 10.4192C147.855 10.4192 146.764 9.29497 146.764 7.84963Z" fill="#6B7E97"/>
<path d="M154.793 15.0128H154.407V13.2783H163.079V15.0128H162.629C160.992 15.0128 160.542 15.5267 161.377 17.4218L164.653 24.8093L167.833 17.4218C168.636 15.5267 168.186 15.0128 166.549 15.0128H166.131V13.2783H173.229V15.0128H172.844C171.302 15.0128 170.82 15.5267 169.985 17.4218L164.782 29.4345H162.854L157.458 17.4218C156.591 15.5267 156.173 15.0128 154.793 15.0128Z" fill="#6B7E97"/>
<path d="M182.03 12.636C186.173 12.636 188.743 15.3662 188.743 19.5738V19.7987H177.341C177.373 24.0064 179.492 26.4474 183.315 26.4474C186.27 26.4474 187.651 24.9699 188.454 23.5246L189 23.6852C188.294 26.8007 185.981 29.7879 181.58 29.7879C176.698 29.7879 173.808 26.0941 173.808 21.4368C173.808 16.4261 177.116 12.636 182.03 12.636ZM184.888 18.1606C184.728 15.7195 183.572 14.4026 181.484 14.4026C179.814 14.4026 177.951 15.2056 177.469 18.1606H184.888Z" fill="#6B7E97"/>
</g>
</g>
</svg>
