<svg width="40" height="40" viewBox="0 0 40 40" fill="none" xmlns="http://www.w3.org/2000/svg">
<g clip-path="url(#clip0_18_242)">
<path d="M20 40C31.0457 40 40 31.0457 40 20C40 8.9543 31.0457 0 20 0C8.9543 0 0 8.9543 0 20C0 31.0457 8.9543 40 20 40Z" fill="#3D5678" fill-opacity="0.75"/>
<path d="M23.7031 17.8516C23.7031 19.4688 22.3984 20.7813 20.7813 20.7813V23.7109C24.0078 23.7109 26.6172 21.0938 26.6172 17.8594C26.6172 14.625 24 12.0078 20.7813 12.0078C19.7188 12.0078 18.7188 12.2891 17.8594 12.7891C16.1172 13.7969 14.9375 15.6953 14.9375 17.8594V32.4922L17.5625 35.125L17.8594 35.4219V17.8516C17.8594 16.2344 19.1641 14.9219 20.7813 14.9219C22.3984 14.9219 23.7031 16.2422 23.7031 17.8516Z" fill="white"/>
<path d="M20.7812 6.14844C18.6562 6.14844 16.6641 6.71875 14.9453 7.71875C13.8438 8.35156 12.8594 9.16406 12.0234 10.1172C10.2109 12.1797 9.10156 14.8906 9.10156 17.8594V26.6406L12.0234 29.5703V17.8516C12.0234 15.25 13.1484 12.9141 14.9453 11.3047C15.7891 10.5469 16.7734 9.95313 17.8672 9.57031C18.7812 9.24219 19.7656 9.07031 20.7891 9.07031C25.625 9.07031 29.5469 13 29.5469 17.8516C29.5469 22.7031 25.6172 26.6328 20.7812 26.6328V29.5625C27.2266 29.5625 32.4531 24.3203 32.4531 17.8594C32.4531 11.3984 27.2266 6.14844 20.7812 6.14844Z" fill="white"/>
</g>
<defs>
<clipPath id="clip0_18_242">
<rect width="40" height="40" fill="white"/>
</clipPath>
</defs>
</svg>
