<svg width="154" height="42" viewBox="0 0 154 42" fill="none" xmlns="http://www.w3.org/2000/svg">
<path fill-rule="evenodd" clip-rule="evenodd" d="M52.6656 25.9228L50.7764 22.643H48.0149V25.9228H46.3882V16.0705H51.2881C51.885 16.0639 52.4753 16.2279 52.987 16.5362C53.4986 16.8445 53.9184 17.284 54.2005 17.8153C54.4825 18.3466 54.6071 18.9435 54.5743 19.5404C54.5415 20.1373 54.3448 20.7211 54.0037 21.2131C53.6495 21.7378 53.151 22.1445 52.5672 22.3872L54.5743 25.9228H52.6656ZM51.2815 17.7432H48.0149V21.0163H51.2881C51.5045 21.0163 51.7144 20.9704 51.9112 20.8851C52.108 20.7998 52.2851 20.6752 52.4294 20.5178C52.6524 20.2882 52.8099 19.9996 52.8689 19.6782C52.9279 19.3633 52.8951 19.0354 52.7771 18.7336C52.6524 18.4385 52.4491 18.1826 52.1802 17.999C51.9112 17.8153 51.6029 17.7169 51.2815 17.7169V17.7432ZM68.7033 16.0705L63.7903 25.9228H65.6139L68.6968 19.7503L71.7732 25.9228H73.5967L68.7033 16.0705ZM89.3787 16.0705H87.2993L84.505 19.7044L81.7238 16.0705H79.6379L83.731 21.3246V25.9228H85.3577V21.2459L89.3787 16.0705ZM97.7157 16.0705H100.976C102.274 16.0771 103.514 16.6018 104.426 17.5267C105.344 18.445 105.862 19.6979 105.869 20.9966C105.862 22.302 105.344 23.5482 104.426 24.4731C103.508 25.398 102.268 25.9162 100.969 25.9228H97.7091V16.0705H97.7157ZM100.976 24.2501C101.842 24.2501 102.668 23.9025 103.278 23.2859C103.888 22.6693 104.236 21.8362 104.236 20.9704C104.223 20.1045 103.882 19.2715 103.272 18.6615C102.661 18.0514 101.835 17.6972 100.976 17.6907H99.3293V24.2501H100.976ZM116.751 16.0705H115.124V25.9228H116.751V16.0705ZM134.16 21.81C134.166 22.3544 134.068 22.8923 133.858 23.3908C133.655 23.8893 133.346 24.3419 132.953 24.7158C132.382 25.2931 131.654 25.6801 130.86 25.8375C130.067 25.9949 129.247 25.9162 128.499 25.6013C127.751 25.2931 127.115 24.7617 126.669 24.0861C126.223 23.4105 125.987 22.6168 125.987 21.8034V16.0705H127.614V21.8034C127.614 22.4594 127.869 23.0825 128.335 23.5417C128.794 24.0008 129.417 24.2632 130.067 24.2632C130.716 24.2632 131.339 24.0008 131.798 23.5417C132.258 23.0825 132.513 22.4528 132.513 21.8034V16.0705H134.153V21.81H134.16ZM145.029 25.9228V20.0324L148.309 23.3187L151.575 20.0324V25.9228H153.228V16.0705L148.309 20.9966L143.409 16.0705V25.9228H145.029Z" fill="#3D5678" fill-opacity="0.75"/>
<path d="M34.2992 15.7623V30.4095L18.0909 39.8157L1.876 30.4095V11.5971L18.0975 2.17773L30.5538 9.41278L32.4364 8.32391L18.0975 0L0 10.5016V31.4984L18.0975 42L36.1949 31.4984V14.6734L34.2992 15.7623Z" fill="#3D5678" fill-opacity="0.75"/>
<path d="M13.5582 30.4227H10.8491V21.2789H19.888C20.7407 21.2723 21.5607 20.9247 22.1641 20.3081C22.7676 19.6981 23.1021 18.8716 23.1087 18.0123C23.1152 17.5859 23.03 17.1661 22.866 16.7726C22.702 16.379 22.4593 16.0248 22.1576 15.7296C21.8624 15.4279 21.5082 15.1852 21.1212 15.0212C20.7342 14.8572 20.3144 14.7719 19.888 14.7785H10.8491V11.9973H19.8946C21.4754 12.0039 22.9972 12.6467 24.1123 13.7684C25.2339 14.8966 25.8636 16.4184 25.8768 18.0123C25.8833 19.2324 25.516 20.4196 24.8207 21.4166C24.1779 22.3678 23.2727 23.1155 22.2166 23.5616C21.1671 23.8961 20.0782 24.0601 18.9828 24.0535H13.5582V30.4227Z" fill="#3D5678" fill-opacity="0.75"/>
<path d="M25.8115 30.1928H22.6498L20.2097 25.9161C21.174 25.857 22.1251 25.6602 23.0368 25.3323L25.8115 30.1928Z" fill="#3D5678" fill-opacity="0.75"/>
<path d="M32.4099 12.7186L34.2793 13.7615L36.1488 12.7186V10.5081L34.2793 9.41919L32.4099 10.5081V12.7186Z" fill="#3D5678" fill-opacity="0.75"/>
</svg>
