<svg width="179" height="42" viewBox="0 0 179 42" fill="none" xmlns="http://www.w3.org/2000/svg">
<path d="M19.0577 0H46.6465L42.1088 8.39983H14.5203L19.0577 0Z" fill="#3D5678" fill-opacity="0.75"/>
<path d="M14.3387 33.6001H37.5712L33.0337 41.9999H9.80103L14.3387 33.6001Z" fill="#3D5678" fill-opacity="0.75"/>
<path d="M10.105 16.7998H46.6468L42.1685 25.1996H5.62671L10.105 16.7998Z" fill="#3D5678" fill-opacity="0.75"/>
<path d="M4.53768 8.40035L14.5204 8.40015L9.9827 16.8002H0L4.53768 8.40035Z" fill="#3D5678" fill-opacity="0.75"/>
<path d="M42.109 25.2H51.0026L46.4651 33.6L37.5713 33.6002L42.109 25.2Z" fill="#3D5678" fill-opacity="0.75"/>
<path d="M79.7991 25.0237V30.5006L75.9015 32.7517H67.1655V29.8285H76.54V25.6958H71.0631L67.1655 23.4445V18.2029L71.0631 15.9518H79.4632V18.875H70.4247V22.7726H75.9015L79.7991 25.0237ZM99.4596 30.6685L95.562 32.9196H89.0771L85.1795 30.6685V18.035L89.0771 15.7838H95.562L99.4596 18.035V30.6685ZM88.4386 18.707V29.9966H96.2002V18.707H88.4386ZM108.732 32.7517L104.834 30.5006V8.22388H108.093V29.8285H112.125V32.7517H108.732ZM118.085 25.8638V29.9966H124.839V25.8638H118.085ZM118.724 32.9196L114.826 30.6685V25.1917L118.724 22.9406H124.839V18.875H116.506V15.9518H124.201L128.098 18.2029V32.9196H127.225L124.839 31.5422L122.453 32.9196H118.724ZM135.025 39.4718L137.948 31.9789L131.463 15.9518H134.723L139.494 27.9133H139.561L144.299 15.9518H147.558L138.217 39.4718H135.025ZM164.175 29.8285V32.7517H154.8L150.903 30.5006V18.035L154.8 15.7838H160.277L164.175 18.035V25.4942H154.162V29.8285H164.175ZM154.162 18.707V22.571H160.916V18.707H154.162ZM178.914 18.875H172.799V32.7517H169.541V15.9518H171.993L172.799 17.3294L175.186 15.9518H178.914V18.875Z" fill="#3D5678" fill-opacity="0.75"/>
</svg>
