<svg width="45" height="39" viewBox="0 0 45 39" fill="none" xmlns="http://www.w3.org/2000/svg">
<g clip-path="url(#clip0_18_246)">
<path fill-rule="evenodd" clip-rule="evenodd" d="M8.20893 0.191545L0.03434 17.3623C0.00323333 17.4261 -0.00662417 17.4983 0.00620904 17.5681C0.0190423 17.638 0.0538929 17.7019 0.105665 17.7506L22.1833 38.9062C22.246 38.9664 22.3295 39 22.4164 39C22.5033 39 22.5868 38.9664 22.6495 38.9062L44.7271 17.7519C44.7789 17.7033 44.8137 17.6393 44.8266 17.5695C44.8394 17.4996 44.8295 17.4275 44.7984 17.3636L36.6238 0.192866C36.5975 0.135199 36.555 0.0863485 36.5016 0.0521517C36.4482 0.0179548 36.3861 -0.000141459 36.3227 2.55611e-05H8.51272C8.449 -0.000767148 8.38641 0.0168932 8.33251 0.0508763C8.2786 0.0848594 8.23568 0.133713 8.20893 0.191545Z" fill="#3D5678" fill-opacity="0.75"/>
<path fill-rule="evenodd" clip-rule="evenodd" d="M25.2528 19.1253C25.0943 19.1372 24.2754 19.1861 22.4487 19.1861C20.9958 19.1861 19.9642 19.1425 19.6023 19.1253C13.9875 18.8783 9.79652 17.9009 9.79652 16.7307C9.79652 15.5604 13.9875 14.5843 19.6023 14.3334V18.1519C19.9695 18.1783 21.0209 18.2404 22.4738 18.2404C24.2173 18.2404 25.0904 18.1677 25.2475 18.1532V14.336C30.8505 14.5857 35.0322 15.5631 35.0322 16.7307C35.0322 17.8983 30.8518 18.8757 25.2475 19.124L25.2528 19.1253ZM25.2528 13.9411V10.5241H33.0721V5.31348H11.783V10.5241H19.601V13.9398C13.2465 14.2317 8.46777 15.4904 8.46777 16.9988C8.46777 18.5072 13.2465 19.7646 19.601 20.0578V31.0075H25.2515V20.0539C31.5915 19.762 36.3623 18.5046 36.3623 16.9975C36.3623 15.4904 31.5954 14.233 25.2515 13.9398L25.2528 13.9411Z" fill="white"/>
</g>
<defs>
<clipPath id="clip0_18_246">
<rect width="44.8328" height="39" fill="white"/>
</clipPath>
</defs>
</svg>
