<svg width="124" height="49" viewBox="0 0 124 49" fill="none" xmlns="http://www.w3.org/2000/svg">
<path d="M49.1283 32.6711C45.9515 32.6711 43.5424 31.9876 41.7663 30.583L41.708 30.5364L42.9145 28.9455L42.9728 28.9817C44.8202 30.1449 46.9634 30.7516 49.1464 30.7293C51.905 30.7293 53.5478 29.9461 53.5478 28.6322C53.5478 27.0788 51.8079 26.9687 48.6506 26.7694L47.9153 26.7228C44.1806 26.4716 42.1572 25.8735 42.1572 23.4385C42.1572 21.0527 44.5016 19.6274 48.4292 19.6274C51.0778 19.6274 53.3303 20.2436 55.1258 21.4566L55.1983 21.5058L53.861 22.9906L53.8093 22.9634C51.9814 22.0327 50.1716 21.5796 48.2764 21.5796C45.8544 21.5796 44.4654 22.1582 44.4654 23.1667C44.4654 23.6845 44.789 24.0353 45.4841 24.2839C46.2764 24.5635 47.3327 24.6243 48.5561 24.6942C49.382 24.7408 50.3192 24.7952 51.3251 24.9247C54.4928 25.3298 55.9064 26.4315 55.9064 28.4976C55.9142 31.15 53.439 32.6711 49.1283 32.6711Z" fill="#243E36"/>
<path d="M48.2767 21.5082C45.7304 21.5082 44.3932 22.1555 44.3932 23.1717C44.3932 23.7322 44.7504 24.1063 45.4637 24.3601C46.8049 24.8352 48.8295 24.6824 51.3189 25.0073C54.374 25.3957 55.8342 26.4507 55.8342 28.5026C55.8342 31.0813 53.4911 32.592 49.1298 32.592C46.0061 32.592 43.5957 31.9305 41.8145 30.5207L42.9342 29.0463C44.7943 30.2163 46.9506 30.8291 49.148 30.812C52.0671 30.812 53.6283 29.9628 53.6283 28.6385C53.6283 26.8909 51.5415 26.8909 47.9259 26.6527C44.1407 26.3938 42.2391 25.8048 42.2391 23.4448C42.2391 21.1535 44.4398 19.7114 48.4347 19.7114C51.0833 19.7114 53.306 20.3224 55.0886 21.5238L53.8432 22.9011C52.0153 21.9678 50.2185 21.5082 48.2767 21.5082Z" fill="#243E36"/>
<path d="M57.9316 32.381V19.9393H67.7493C70.2814 19.9393 71.9164 21.4746 71.9164 23.8513C71.9164 26.3304 70.2983 27.6961 67.3597 27.6961H60.1194V32.381H57.9316ZM67.3933 25.6922C68.8872 25.6922 69.6769 25.0682 69.6769 23.8798C69.6769 22.5723 68.8846 21.938 67.2574 21.938H60.1194V25.6922H67.3933Z" fill="#243E36"/>
<path d="M71.8376 23.8513C71.8376 26.2786 70.2842 27.6223 67.3598 27.6223H60.0444V32.3072H58.0068V20.0156H67.7495C70.2621 20.0156 71.8376 21.525 71.8376 23.8513ZM69.7508 23.885C69.7508 22.527 68.9184 21.8655 67.255 21.8655H60.0444V25.7698H67.3935C68.9391 25.7698 69.7534 25.107 69.7534 23.885H69.7508Z" fill="#243E36"/>
<path d="M80.428 32.737C78.3386 32.737 76.3425 32.1311 74.9509 31.0748C73.2874 29.823 72.4434 28.1634 72.4434 26.1426C72.4434 24.1542 73.2978 22.5011 74.9858 21.2234C76.4227 20.1412 78.3516 19.5405 80.4228 19.5405C82.4734 19.5405 84.4514 20.1528 85.8508 21.2234C87.5259 22.5024 88.3751 24.1555 88.3751 26.1426C88.3751 28.1737 87.5311 29.8385 85.8676 31.0916C84.4579 32.1531 82.5252 32.737 80.428 32.737ZM80.428 21.5678C77.0622 21.5678 74.7178 23.4487 74.7178 26.1426C74.7178 28.9207 76.96 30.7162 80.428 30.7162C83.8249 30.7162 86.1071 28.8793 86.1071 26.1426C86.1071 24.7432 85.5 23.5872 84.3051 22.7069C83.2889 21.9729 81.9128 21.5678 80.428 21.5678Z" fill="#243E36"/>
<path d="M85.8256 31.0306C84.4677 32.0494 82.5673 32.6604 80.4274 32.6604C78.2876 32.6604 76.338 32.0326 74.9904 31.0138C73.3438 29.7749 72.5127 28.1451 72.5127 26.1425C72.5127 24.1735 73.3606 22.5437 75.0241 21.288C76.3989 20.2524 78.3174 19.6245 80.421 19.6245C82.5246 19.6245 84.4444 20.2524 85.8023 21.288C87.449 22.5437 88.2982 24.1903 88.2982 26.1425C88.3047 28.1399 87.4723 29.7917 85.8256 31.0306ZM84.3499 22.6459C83.3647 21.9327 81.9731 21.4912 80.4274 21.4912C76.9995 21.4912 74.6409 23.4602 74.6409 26.1425C74.6409 28.9089 76.8973 30.7924 80.4274 30.7924C83.9576 30.7924 86.1816 28.892 86.1816 26.1425C86.1816 24.7159 85.5719 23.5456 84.3499 22.6459Z" fill="#243E36"/>
<path d="M97.6395 32.754C93.4206 32.754 90.5869 30.9766 90.5869 28.3319V19.9395H92.776V27.8361C92.776 29.7028 94.5042 30.7307 97.6395 30.7307C100.746 30.7307 102.469 29.7028 102.469 27.8361V19.9395H104.658V28.3319C104.658 30.9766 101.838 32.754 97.6395 32.754Z" fill="#243E36"/>
<path d="M97.6403 32.6774C93.3282 32.6774 90.6641 30.8275 90.6641 28.3317V20.0156H92.7004V27.8398C92.7004 29.7414 94.3988 30.8107 97.6403 30.8107C100.882 30.8107 102.545 29.7414 102.545 27.8398V20.0156H104.589V28.3317C104.589 30.8444 101.934 32.6774 97.6403 32.6774Z" fill="#243E36"/>
<path d="M111.415 32.3799V21.9421H105.542V19.9395H119.476V21.9421H113.604V32.3799H111.415Z" fill="#243E36"/>
<path d="M113.527 21.8655V32.3046H111.491V21.8655H105.624V20.0156H119.407V21.8655H113.527Z" fill="#243E36"/>
<path d="M41.5042 14.4181C41.4447 14.3004 41.3608 14.1967 41.2581 14.1139C41.1555 14.0311 41.0364 13.9711 40.9088 13.9378C40.7379 13.9132 40.4117 14.1501 40.3456 14.3378C39.9301 15.5249 39.0433 16.1398 37.8951 16.4492C37.0808 16.668 36.3947 17.0473 35.9533 17.89C35.253 17.2984 34.497 17.257 33.7073 17.3126C32.7183 17.3825 31.7784 17.2492 30.9758 16.5773C30.7687 16.4039 30.3402 16.1618 30.2664 16.2278C30.0278 16.4467 29.8696 16.7394 29.8172 17.0589C29.7098 18.1121 29.9745 19.1696 30.5655 20.048C31.5428 21.5535 32.9086 22.3458 34.7351 22.3251C35.6607 22.316 36.0426 22.8778 35.706 23.7309C35.5516 24.1148 35.338 24.4721 35.073 24.7898C34.4258 25.5756 33.5545 26.0404 32.5862 26.3252C30.6949 26.8818 28.7894 26.7692 26.8903 26.3782C23.953 25.7737 21.2746 24.518 18.6869 23.0448C17.2266 22.2137 15.7858 21.349 14.3036 20.558C13.1385 19.9328 11.8906 19.4758 10.5417 19.3684C8.8821 19.2389 7.84648 19.9794 7.50731 21.6053C7.41457 22.0306 7.36727 22.4645 7.36621 22.8998C7.38951 26.5944 8.78372 29.7155 11.431 32.258C14.8046 35.4943 18.9393 36.5416 23.4922 36.2853C24.0229 36.2555 24.3608 36.4018 24.7543 36.715C26.6961 38.2685 28.88 38.8381 31.3059 38.0911C31.6296 37.9902 32.027 37.6626 32.0982 37.3688C32.15 37.1565 31.7564 36.7798 31.4911 36.561C30.814 36.0018 30.0981 35.4904 29.2904 34.8781C29.8975 34.5247 30.3389 34.2723 30.7739 34.0108C35.0627 31.4217 37.776 27.8048 38.2226 22.6953C38.2614 22.2435 38.4983 21.9885 38.8699 21.7891C39.9171 21.2221 40.791 20.4596 41.3398 19.3852C42.1826 17.7541 42.268 16.0867 41.5042 14.4181ZM22.964 35.027C19.5529 35.405 16.1354 33.849 16.1354 33.849C14.8551 33.2509 13.712 32.6438 12.7566 31.7531C10.4485 29.6029 8.98308 27.0022 8.72288 23.8151C8.67809 23.1503 8.70195 22.4827 8.79408 21.8228C8.81608 21.6467 9.02709 21.4538 9.20833 21.3529C10.4938 20.6279 13.9541 24.5206 14.2207 24.9115C14.8784 25.8708 15.5153 26.8533 16.0823 27.8656C17.1495 29.8119 18.882 31.3087 20.9627 32.0819C21.6099 32.3318 21.9698 32.6813 22.2753 33.3299C22.2986 33.3583 23.096 34.8263 23.096 34.8263C23.0481 34.8923 23.0054 34.9597 22.964 35.027ZM35.3915 27.7051C34.1293 29.8424 32.361 31.4942 30.2858 32.8289C29.157 33.5551 28.7143 33.5318 27.5311 32.6722C29.4366 32.069 31.1894 31.2638 32.484 29.6676C30.3156 31.0334 27.935 31.6638 25.2929 31.7389C25.7783 32.548 26.3906 33.0981 27.0508 33.6198C27.2709 33.7933 27.3874 34.0962 27.5596 34.3344C28.0204 34.9687 28.4657 35.6121 28.9564 36.227C29.2027 36.5043 29.4683 36.7639 29.7512 37.0037L29.6994 37.1837C28.9499 37.0206 28.1693 36.9442 27.4586 36.6788C25.2941 35.8736 23.9802 34.2114 23.1388 32.1324C22.8798 31.4929 22.6934 30.8236 22.4449 30.179C22.3828 30.0172 22.186 29.7699 22.0941 29.7906C21.9951 29.8152 21.9024 29.8607 21.8223 29.9238C21.7422 29.987 21.6764 30.0664 21.6293 30.157C21.4999 30.4599 21.4818 30.8042 21.4054 31.1835C20.5342 30.8638 19.6707 30.4418 19.0545 29.7324C18.3218 28.8896 17.5943 27.9938 17.1024 27.0022C15.9379 24.6286 14.1515 22.6153 11.9333 21.1768C11.8871 21.1411 11.8438 21.1017 11.8039 21.059C13.5204 21.5574 15.0402 22.426 16.5418 23.3426C19.7108 25.2766 22.9847 26.9672 26.6754 27.6961C29.0573 28.1647 31.4457 28.3433 33.7138 27.2727C34.6769 26.8158 35.5261 26.1219 36.4465 25.5251C36.1086 26.2073 35.8122 26.9905 35.3915 27.7051ZM40.1812 18.7586C39.7751 19.3829 39.2499 19.9209 38.6356 20.3418C37.8886 20.8208 37.2323 21.292 37.0368 22.2707C36.9621 22.225 36.893 22.1707 36.831 22.1089C36.2756 21.2817 35.5093 20.9438 34.5099 20.9438C32.972 20.958 31.8367 20.0687 31.3888 18.602C31.365 18.4887 31.3472 18.3742 31.3357 18.2589C32.2398 18.6612 33.2403 18.796 34.2186 18.6473C34.7727 18.5761 35.1248 18.914 35.4717 19.2946C35.7306 19.5768 36.0595 19.7891 36.3572 20.0324C36.5578 19.7075 36.8258 19.4059 36.9423 19.0538C37.1676 18.3742 37.5896 17.9858 38.2524 17.7243C39.0666 17.4046 39.833 16.9631 40.6408 16.5592C40.7236 17.266 40.6395 18.0881 40.1761 18.7586H40.1812Z" fill="#243E36"/>
<path d="M23.9147 21.9341C23.4823 21.2428 23.0797 20.5645 22.6448 19.9082C21.2467 17.7994 19.3269 16.413 16.8194 15.9715C15.9469 15.8188 15.0174 15.9715 14.1164 16.0259C13.8692 16.0414 13.631 16.2097 13.2245 16.3741C17.5819 17.4563 21.1988 19.2635 23.1924 23.3024L23.0966 23.4384C23.0539 23.4138 22.9969 23.3995 22.9671 23.3633C20.6538 20.2279 17.4434 18.5489 13.7371 17.6674C13.3884 17.6011 13.0477 17.4978 12.7209 17.3593C11.7953 16.9126 11.7164 15.956 12.5772 15.4006C13.8873 14.554 15.3449 14.5333 16.8155 14.7974C20.98 15.5469 23.4008 19.0499 23.9147 21.9341Z" fill="#A7C6ED"/>
<path d="M25.8127 23.2209C24.5375 19.4396 25.6185 16.022 27.4502 12.7028C24.6812 13.7229 24.2139 16.1113 23.8359 18.6266C23.779 18.2382 23.6961 17.8499 23.6702 17.4615C23.533 15.3333 24.1311 13.4808 25.924 12.22C26.4703 11.8316 27.225 11.6569 27.9059 11.5805C28.6749 11.4963 29.0296 12.0853 28.7072 12.796C28.411 13.4207 28.0817 14.0291 27.7208 14.6187C26.2619 17.0978 25.6949 19.7839 25.8114 22.6358C25.8191 22.8325 25.8127 23.0267 25.8127 23.2209Z" fill="#A7C6ED"/>
<path d="M22.8377 15.0072C22.1814 13.7994 21.6636 12.5127 20.4053 11.7916C20.1632 11.6531 19.8707 11.6013 19.459 11.4602C19.5885 12.3664 20.0571 12.9153 20.4493 13.5095C20.8416 14.1037 21.1963 14.6914 21.5691 15.283L21.3879 15.4293C20.4739 14.4959 19.5509 13.5716 18.6564 12.6214C18.4907 12.4454 18.4092 12.1722 18.3367 11.9288C18.1114 11.1664 18.5011 10.5838 19.2985 10.5049C20.2047 10.4142 20.9723 10.7638 21.5807 11.4175C22.5154 12.4221 22.8235 13.6687 22.8377 15.0072Z" fill="#A7C6ED"/>
<path d="M21.4578 28.249C21.4548 28.4983 21.3544 28.7366 21.178 28.9129C21.0017 29.0892 20.7634 29.1896 20.5141 29.1927C20.2461 29.1761 19.9936 29.0613 19.8049 28.8702C19.6162 28.6792 19.5046 28.4252 19.4914 28.157C19.481 27.6884 19.8927 27.3221 20.4468 27.3091C20.5751 27.3032 20.7034 27.323 20.8241 27.3672C20.9448 27.4115 21.0554 27.4794 21.1495 27.5669C21.2437 27.6544 21.3194 27.7597 21.3723 27.8769C21.4253 27.994 21.4543 28.1205 21.4578 28.249Z" fill="#243E36"/>
</svg>
