<svg width="100" height="34" viewBox="0 0 100 34" fill="none" xmlns="http://www.w3.org/2000/svg">
<mask id="mask0_42_12514" style="mask-type:luminance" maskUnits="userSpaceOnUse" x="-1" y="0" width="101" height="19">
<path d="M-0.000183105 0H99.9827V18.593H-0.000183105V0Z" fill="white"/>
</mask>
<g mask="url(#mask0_42_12514)">
<path d="M4.90102 17.7961C3.92978 17.7961 3.0731 17.582 2.33595 17.1586C1.59881 16.7203 1.02603 16.1226 0.617609 15.3556C0.204209 14.5786 0 13.6821 0 12.671C0 11.4557 0.303824 10.3898 0.901509 9.47337C1.51912 8.5619 2.38576 7.85464 3.50642 7.36653C4.63704 6.87344 5.96192 6.62938 7.48103 6.62938C8.17833 6.62938 8.74613 6.67421 9.17946 6.76884V6.3405C9.17946 5.29953 8.99019 4.5325 8.60667 4.02447C8.22316 3.50647 7.6454 3.24747 6.86342 3.24747C5.60828 3.24747 4.80141 3.90991 4.44778 5.23478C4.3382 5.61829 4.11407 5.77768 3.7704 5.72787L0.98618 5.23478C0.781971 5.19493 0.637531 5.10528 0.552859 4.96582C0.48811 4.83134 0.478148 4.64706 0.532936 4.41296C0.891548 3.01836 1.63865 1.94253 2.7892 1.1755C3.94971 0.398506 5.40407 0.0100098 7.15231 0.0100098C9.22926 0.0100098 10.8081 0.567849 11.884 1.68851C12.9797 2.80917 13.5276 4.44285 13.5276 6.58455V16.8946C13.5276 17.0441 13.4728 17.1736 13.3633 17.2831C13.2636 17.3778 13.1441 17.4276 12.9947 17.4276H10.33C10.0013 17.4276 9.79707 17.2483 9.71239 16.8946L9.30397 14.9671H9.13961C8.77104 15.8686 8.21818 16.5659 7.48103 17.059C6.75883 17.5471 5.89717 17.7961 4.90102 17.7961ZM4.4677 12.1779C4.4677 12.9051 4.65199 13.4828 5.02056 13.9211C5.40407 14.3445 5.91709 14.5587 6.5596 14.5587C7.40632 14.5587 8.05381 14.1801 8.50706 13.4281C8.95532 12.666 9.17946 11.5702 9.17946 10.1507V9.06495C8.80092 8.99522 8.43733 8.96533 8.09366 8.96533C6.973 8.96533 6.08643 9.25422 5.43396 9.84194C4.79145 10.4197 4.4677 11.1967 4.4677 12.1779ZM16.0678 0.911519C16.0678 0.762098 16.1126 0.63758 16.2072 0.542946C16.3168 0.43337 16.4463 0.378583 16.6007 0.378583H19.3052C19.4547 0.378583 19.5792 0.423409 19.6738 0.523023C19.7834 0.617657 19.8481 0.747156 19.878 0.911519L20.2864 2.91875H20.4508C20.8194 1.97739 21.3473 1.26017 22.0297 0.767078C22.727 0.259046 23.5438 0.0100098 24.4902 0.0100098C25.5013 0.0100098 26.3679 0.273987 27.0901 0.806924C27.8272 1.33986 28.3951 2.09693 28.7885 3.08311H28.9529C29.5556 2.04214 30.2329 1.27013 30.985 0.767078C31.7371 0.259046 32.5739 0.0100098 33.5053 0.0100098C34.5163 0.0100098 35.388 0.283949 36.1251 0.826847C36.8772 1.37473 37.45 2.15172 37.8484 3.1628C38.2419 4.17389 38.4412 5.36926 38.4412 6.74892V16.8946C38.4412 17.0441 38.3864 17.1736 38.2768 17.2831C38.1822 17.3778 38.0576 17.4276 37.9082 17.4276H34.6309C34.4815 17.4276 34.352 17.3778 34.2424 17.2831C34.1478 17.1736 34.098 17.0441 34.098 16.8946V7.07764C34.098 6.0815 33.9087 5.31447 33.5252 4.78153C33.1417 4.2486 32.5888 3.98462 31.8666 3.98462C31.0747 3.98462 30.462 4.2984 30.0387 4.92597C29.6303 5.55355 29.4261 6.46502 29.4261 7.65043V16.8946C29.4261 17.0441 29.3713 17.1736 29.2617 17.2831C29.1671 17.3778 29.0425 17.4276 28.8931 17.4276H25.6158C25.4664 17.4276 25.3369 17.3778 25.2273 17.2831C25.1277 17.1736 25.0829 17.0441 25.0829 16.8946V7.07764C25.0829 6.0815 24.8886 5.31447 24.5101 4.78153C24.1266 4.2486 23.5737 3.98462 22.8465 3.98462C22.0546 3.98462 21.447 4.2984 21.0236 4.92597C20.6152 5.55355 20.411 6.46502 20.411 7.65043V16.8946C20.411 17.0441 20.3562 17.1736 20.2466 17.2831C20.152 17.3778 20.0275 17.4276 19.878 17.4276H16.6007C16.4463 17.4276 16.3168 17.3778 16.2072 17.2831C16.1126 17.1736 16.0678 17.0441 16.0678 16.8946V0.911519ZM40.5729 12.671C40.5729 11.4557 40.8717 10.3898 41.4744 9.47337C42.087 8.5619 42.9587 7.85464 44.0793 7.36653C45.2099 6.87344 46.5348 6.62938 48.0539 6.62938C48.7512 6.62938 49.314 6.67421 49.7524 6.76884V6.3405C49.7524 5.29953 49.5631 4.5325 49.1796 4.02447C48.7961 3.50647 48.2183 3.24747 47.4363 3.24747C46.1812 3.24747 45.3743 3.90991 45.0207 5.23478C44.9111 5.61829 44.687 5.77768 44.3433 5.72787L41.5591 5.23478C41.3499 5.19493 41.2104 5.10528 41.1258 4.96582C41.056 4.83134 41.051 4.64706 41.1058 4.41296C41.4595 3.01836 42.2116 1.94253 43.3621 1.1755C44.5226 0.398506 45.977 0.0100098 47.7252 0.0100098C49.8022 0.0100098 51.381 0.567849 52.4569 1.68851C53.5526 2.80917 54.0955 4.44285 54.0955 6.58455V16.8946C54.0955 17.0441 54.0407 17.1736 53.9312 17.2831C53.8365 17.3778 53.717 17.4276 53.5626 17.4276H50.9029C50.5742 17.4276 50.37 17.2483 50.2853 16.8946L49.8769 14.9671H49.7125C49.3439 15.8686 48.7911 16.5659 48.0539 17.059C47.3267 17.5471 46.4701 17.7961 45.4689 17.7961C44.4728 17.7961 43.646 17.582 42.9089 17.1586C42.1717 16.7203 41.5989 16.1226 41.1855 15.3556C40.7771 14.5786 40.5729 13.6821 40.5729 12.671ZM45.0406 12.1779C45.0406 12.9051 45.2249 13.4828 45.5935 13.9211C45.977 14.3445 46.49 14.5587 47.1325 14.5587C47.9792 14.5587 48.6267 14.1801 49.075 13.4281C49.5282 12.666 49.7524 11.5702 49.7524 10.1507V9.06495C49.3688 8.99522 49.0102 8.96533 48.6666 8.96533C47.5459 8.96533 46.6593 9.25422 46.0019 9.84194C45.3594 10.4197 45.0406 11.1967 45.0406 12.1779ZM56.312 14.4142C56.312 14.1154 56.3916 13.8514 56.556 13.6372L63.5639 3.82026H57.0043C56.8549 3.82026 56.7254 3.77045 56.6158 3.67582C56.5211 3.56624 56.4763 3.43674 56.4763 3.28732V0.911519C56.4763 0.762098 56.5211 0.63758 56.6158 0.542946C56.7254 0.43337 56.8549 0.378583 57.0043 0.378583H67.7825C67.9369 0.378583 68.0565 0.43337 68.1561 0.542946C68.2607 0.63758 68.3155 0.762098 68.3155 0.911519V3.39191C68.3155 3.69076 68.2358 3.94975 68.0714 4.16891L61.721 12.8951C62.1045 12.8304 62.493 12.7955 62.8865 12.7955C63.8727 12.7955 64.7742 12.8852 65.591 13.0595C66.4278 13.2238 67.2845 13.4978 68.176 13.8813C68.4898 14.0158 68.6442 14.2499 68.6442 14.5786V16.9345C68.6442 17.1536 68.5795 17.3031 68.44 17.3827C68.3055 17.4525 68.1312 17.4475 67.927 17.3628C66.9059 16.9793 65.9945 16.7153 65.2025 16.5659C64.4255 16.4015 63.5689 16.3169 62.6424 16.3169C61.711 16.3169 60.8245 16.4015 59.9379 16.5659C59.0613 16.7303 58.095 16.9942 57.0292 17.3628C56.82 17.4326 56.6506 17.4326 56.5162 17.3628C56.3767 17.2831 56.312 17.1387 56.312 16.9345V14.4142ZM69.5457 8.90059C69.5457 7.23703 69.8695 5.72787 70.512 4.37312C71.1545 3.0084 72.0311 1.94253 73.1517 1.1755C74.2874 0.398506 75.5425 0.0100098 76.9221 0.0100098C78.3018 0.0100098 79.5719 0.398506 80.6926 1.1755C81.8281 1.94253 82.7147 3.0084 83.3572 4.37312C84.0147 5.72787 84.3434 7.23703 84.3434 8.90059C84.3434 10.5691 84.0147 12.0833 83.3572 13.448C82.7147 14.8027 81.8281 15.8686 80.6926 16.6456C79.5719 17.4126 78.3167 17.7961 76.9221 17.7961C75.5325 17.7961 74.2874 17.4126 73.1517 16.6456C72.0311 15.8686 71.1545 14.8027 70.512 13.448C69.8695 12.0833 69.5457 10.5691 69.5457 8.90059ZM74.0533 8.90059C74.0533 10.6389 74.3023 11.9737 74.7904 12.92C75.2835 13.8464 75.9957 14.3096 76.9221 14.3096C77.8535 14.3096 78.5708 13.8464 79.0738 12.92C79.5818 11.9737 79.8359 10.6389 79.8359 8.90059C79.8359 7.1673 79.5818 5.83247 79.0738 4.90605C78.5708 3.9647 77.8535 3.49153 76.9221 3.49153C75.9957 3.49153 75.2835 3.9647 74.7904 4.90605C74.3023 5.83247 74.0533 7.1673 74.0533 8.90059ZM86.5548 0.911519C86.5548 0.762098 86.6047 0.63758 86.6993 0.542946C86.8089 0.43337 86.9384 0.378583 87.0878 0.378583H89.7923C89.9417 0.378583 90.0663 0.423409 90.1609 0.523023C90.2705 0.617657 90.3402 0.747156 90.3651 0.911519L90.7735 2.91875H90.9379C91.3064 1.98735 91.8493 1.27013 92.5566 0.767078C93.2838 0.259046 94.1305 0.0100098 95.0968 0.0100098C96.1377 0.0100098 97.0343 0.283949 97.7814 0.826847C98.5484 1.37473 99.1361 2.15172 99.5445 3.1628C99.953 4.17389 100.162 5.36926 100.162 6.74892V16.8946C100.162 17.0441 100.107 17.1736 99.9978 17.2831C99.9032 17.3778 99.7786 17.4276 99.6292 17.4276H96.3469C96.1975 17.4276 96.068 17.3778 95.9584 17.2831C95.8638 17.1736 95.814 17.0441 95.814 16.8946V7.07764C95.814 6.0815 95.6098 5.31447 95.2014 4.78153C94.7929 4.2486 94.2102 3.98462 93.4581 3.98462C92.6263 3.98462 91.9938 4.2984 91.5555 4.92597C91.1172 5.55355 90.898 6.46502 90.898 7.65043V16.8946C90.898 17.0441 90.8432 17.1736 90.7337 17.2831C90.639 17.3778 90.5145 17.4276 90.3651 17.4276H87.0878C86.9384 17.4276 86.8089 17.3778 86.6993 17.2831C86.6047 17.1736 86.5548 17.0441 86.5548 16.8946V0.911519Z" fill="#0A2540"/>
</g>
<mask id="mask1_42_12514" style="mask-type:luminance" maskUnits="userSpaceOnUse" x="10" y="18" width="53" height="16">
<path d="M10.0607 18.5918H62.3383V33.6136H10.0607V18.5918Z" fill="white"/>
</mask>
<g mask="url(#mask1_42_12514)">
<path d="M11.397 19.7819C11.138 19.9861 11.0832 20.3248 11.2326 20.8029C11.3671 21.2263 11.6909 21.7542 12.1939 22.3818C14.231 24.8971 16.6566 26.984 19.4707 28.6525C22.2848 30.3211 25.2932 31.5463 28.5058 32.3432C31.7283 33.1451 35.0205 33.5486 38.3825 33.5486C42.6859 33.5486 46.785 32.921 50.6749 31.6659C54.5698 30.4207 57.8222 28.6724 60.4321 26.4212C61.3436 25.6143 61.8018 24.9718 61.8018 24.4936C61.8018 24.3143 61.7271 24.14 61.5777 23.9607C61.3735 23.7565 61.1294 23.6867 60.8406 23.7565C60.5517 23.8212 60.1482 23.9955 59.6302 24.2695C57.1299 25.5794 54.0867 26.6254 50.4906 27.4024C46.9145 28.1943 43.1789 28.5927 39.284 28.5927C34.4627 28.5927 29.8057 27.9353 25.3081 26.6254C20.8155 25.3105 16.831 23.2634 13.3644 20.4792C12.8563 20.0807 12.4479 19.8267 12.1341 19.7171C11.8353 19.6075 11.5863 19.6275 11.397 19.7819Z" fill="#0A2540"/>
</g>
<path d="M56.9274 20.8088C56.6385 21.0778 56.5638 21.3667 56.7032 21.6655C56.7979 21.8847 56.9822 22.0092 57.2561 22.0341C57.53 22.0789 57.9185 22.049 58.4216 21.9544C59.2434 21.7751 60.0951 21.6556 60.9867 21.5858C61.8732 21.531 62.6452 21.546 63.2977 21.6257C63.9552 21.7203 64.3636 21.8847 64.5279 22.1188C64.777 22.4873 64.6873 23.2643 64.264 24.4547C63.8555 25.6401 63.2927 26.7957 62.5805 27.9163C62.3115 28.3696 62.1472 28.7232 62.0924 28.9822C62.0376 29.2412 62.1023 29.4603 62.2966 29.6397C62.4211 29.7592 62.5556 29.8239 62.705 29.8239C63.1035 29.8239 63.6762 29.4753 64.4283 28.778C65.7781 27.6025 66.7294 26.2079 67.2773 24.5992C67.5761 23.7624 67.7604 22.8908 67.8302 21.9743C67.8949 21.0579 67.7953 20.4054 67.5214 20.0069C67.2624 19.6234 66.6896 19.3096 65.798 19.0656C64.9264 18.8215 64.0448 18.697 63.1582 18.697C61.42 18.697 59.7763 19.1054 58.2174 19.9273C57.6446 20.241 57.2163 20.5349 56.9274 20.8088Z" fill="#0A2540"/>
</svg>
