<svg width="17" height="13" viewBox="0 0 17 13" fill="none" xmlns="http://www.w3.org/2000/svg">
<path d="M8.5828 3.5V7.57273M9.46362 4.2405H8.14239C7.97205 4.2405 7.80869 4.30876 7.68824 4.43027C7.56779 4.55178 7.50012 4.68573 7.50012 4.85758C7.50012 5.02942 7.56779 5.22508 7.68824 5.34659C7.80869 5.4681 7.97205 5.53636 8.14239 5.53636H8.82135C8.99169 5.53636 9.22792 5.64112 9.34837 5.76263C9.46882 5.88414 9.53649 6.04894 9.53649 6.22078C9.53649 6.39263 9.46882 6.55743 9.34837 6.67894C9.22792 6.80045 8.99169 6.83223 8.82135 6.83223H7.51497" stroke="currentColor" stroke-width="0.7" stroke-linecap="round" stroke-linejoin="round"/>
<path d="M0.500122 6.90002L8.50012 11.7L16.5001 6.90002" stroke="currentColor" stroke-linecap="round"/>
<path d="M2.54831 6.60909C0.734074 -1.53636 16.4234 -1.53636 14.6092 6.60909" stroke="currentColor" stroke-linecap="round"/>
</svg>
