<svg width="119" height="31" viewBox="0 0 119 31" fill="none" xmlns="http://www.w3.org/2000/svg">
<mask id="mask0_42_12527" style="mask-type:luminance" maskUnits="userSpaceOnUse" x="5" y="6" width="26" height="25">
<path d="M5.11151 6.13062H30.6572V30.6545H5.11151V6.13062Z" fill="white"/>
</mask>
<g mask="url(#mask0_42_12527)">
<mask id="mask1_42_12527" style="mask-type:luminance" maskUnits="userSpaceOnUse" x="0" y="0" width="119" height="31">
<path d="M0.611259 0.259277L118.022 0.965775L117.842 30.7305L0.431641 30.024L0.611259 0.259277Z" fill="white"/>
</mask>
<g mask="url(#mask1_42_12527)">
<mask id="mask2_42_12527" style="mask-type:luminance" maskUnits="userSpaceOnUse" x="0" y="0" width="119" height="31">
<path d="M0.610404 0.259277L118.021 0.965775L117.841 30.7305L0.430786 30.024L0.610404 0.259277Z" fill="white"/>
</mask>
<g mask="url(#mask2_42_12527)">
<mask id="mask3_42_12527" style="mask-type:luminance" maskUnits="userSpaceOnUse" x="5" y="6" width="26" height="25">
<path d="M28.6362 8.03492L27.9936 6.90931C27.814 6.58201 27.4148 6.47024 27.0875 6.64986C27.0516 6.68579 26.9797 6.72171 26.9438 6.75763L25.447 8.23449C25.2275 8.45003 25.1915 8.81326 25.3712 9.06473C25.91 9.90294 26.3371 10.809 26.6564 11.755C28.6881 17.89 25.3512 24.4999 19.2163 26.5276C18.0188 26.9188 16.7495 27.1303 15.4802 27.1223C13.5603 27.1103 11.6803 26.6274 10.0158 25.7133L12.5704 23.1907C16.8692 24.8472 21.703 22.7037 23.3594 18.4009C24.1657 16.2694 24.0739 13.8785 23.108 11.8069C22.9643 11.4796 22.5651 11.3319 22.2019 11.4756C22.1301 11.5115 22.0582 11.5474 22.0223 11.6193L20.4895 13.0962C20.3099 13.2758 20.27 13.4913 20.3059 13.7108L20.4496 14.2537C21.0484 16.94 19.3639 19.6462 16.6816 20.245C15.4483 20.5283 14.143 20.3368 13.0613 19.6782L12.4107 19.279C12.1593 19.1313 11.832 19.1632 11.6124 19.3828L5.4176 25.5018C5.16214 25.7532 5.15815 26.1883 5.41361 26.4438C5.44953 26.4797 5.44953 26.4797 5.48545 26.5196L6.38354 27.2101C8.94609 29.3296 12.1633 30.4353 15.4602 30.4552C23.7546 30.5031 30.5362 23.8054 30.5841 15.4751C30.6 12.8646 29.9255 10.326 28.6362 8.03492Z" fill="white"/>
</mask>
<g mask="url(#mask3_42_12527)">
<path d="M5.16294 6.3186L5.01526 30.5032L30.6008 30.6588L30.7445 6.47028L5.16294 6.3186Z" fill="#0A2540"/>
</g>
</g>
</g>
</g>
<mask id="mask4_42_12527" style="mask-type:luminance" maskUnits="userSpaceOnUse" x="0" y="0" width="27" height="25">
<path d="M0 0H26.5675V24.5238H0V0Z" fill="white"/>
</mask>
<g mask="url(#mask4_42_12527)">
<mask id="mask5_42_12527" style="mask-type:luminance" maskUnits="userSpaceOnUse" x="0" y="0" width="119" height="31">
<path d="M0.611198 0.259277L118.021 0.965775L117.842 30.7305L0.43158 30.024L0.611198 0.259277Z" fill="white"/>
</mask>
<g mask="url(#mask5_42_12527)">
<mask id="mask6_42_12527" style="mask-type:luminance" maskUnits="userSpaceOnUse" x="0" y="0" width="119" height="31">
<path d="M0.610343 0.259277L118.021 0.965775L117.841 30.7305L0.430725 30.024L0.610343 0.259277Z" fill="white"/>
</mask>
<g mask="url(#mask6_42_12527)">
<mask id="mask7_42_12527" style="mask-type:luminance" maskUnits="userSpaceOnUse" x="0" y="0" width="26" height="25">
<path d="M24.7544 3.55534C22.1559 1.51169 18.9387 0.402049 15.6418 0.382091C7.34739 0.334193 0.565817 7.03195 0.517918 15.3662C0.501953 17.9727 1.17253 20.5472 2.42985 22.8024L3.07249 23.928C3.2521 24.2553 3.65126 24.3671 3.97856 24.1875C4.01448 24.1515 4.08633 24.1156 4.12225 24.0797L5.61907 22.6028C5.8386 22.3873 5.87453 22.0281 5.69491 21.7726C5.15605 20.9344 4.72896 20.0283 4.40565 19.0823C2.37796 12.9474 5.71487 6.33743 11.8498 4.30974C13.0473 3.91857 14.3166 3.70702 15.5859 3.715C17.5058 3.72698 19.3858 4.20995 21.0463 5.128L18.4957 7.64664C14.1968 5.99016 9.36311 8.13361 7.70663 12.4365C7.33941 13.3745 7.15181 14.3883 7.14782 15.4021C7.14782 15.5498 7.17975 16.1645 7.17576 16.2723C7.27954 17.2183 7.52701 18.1603 7.9581 19.0304C8.10179 19.3577 8.49695 19.5054 8.86018 19.3617C8.93602 19.3258 9.00786 19.2899 9.04379 19.218L10.5765 17.7053C10.7561 17.5256 10.7961 17.3101 10.7601 17.0906L10.6524 16.5477C10.0536 13.8654 11.7381 11.1552 14.4204 10.5565C15.6537 10.2731 16.959 10.4647 18.0407 11.1232L18.6913 11.5264C18.9427 11.6701 19.27 11.6382 19.4896 11.4226L25.6844 5.29963C25.9399 5.04817 25.9438 4.61309 25.6884 4.35764C25.6525 4.32171 25.6525 4.32171 25.6165 4.28579L24.7544 3.55534Z" fill="white"/>
</mask>
<g mask="url(#mask7_42_12527)">
<path d="M0.502886 0.182861L0.359192 24.3674L25.9408 24.5231L26.0885 0.334539L0.502886 0.182861Z" fill="#0A2540"/>
</g>
</g>
</g>
</g>
<mask id="mask8_42_12527" style="mask-type:luminance" maskUnits="userSpaceOnUse" x="36" y="7" width="17" height="18">
<path d="M36.7871 7.15381H52.1145V24.5249H36.7871V7.15381Z" fill="white"/>
</mask>
<g mask="url(#mask8_42_12527)">
<mask id="mask9_42_12527" style="mask-type:luminance" maskUnits="userSpaceOnUse" x="0" y="0" width="119" height="31">
<path d="M0.611503 0.260498L118.022 0.966996L117.842 30.7317L0.431885 30.0252L0.611503 0.260498Z" fill="white"/>
</mask>
<g mask="url(#mask9_42_12527)">
<mask id="mask10_42_12527" style="mask-type:luminance" maskUnits="userSpaceOnUse" x="0" y="0" width="119" height="31">
<path d="M0.610648 0.260986L118.021 0.967484L117.841 30.7322L0.43103 30.0257L0.610648 0.260986Z" fill="white"/>
</mask>
<g mask="url(#mask10_42_12527)">
<path d="M49.9799 19.795C49.7643 19.6114 49.4011 19.6114 49.1816 19.8269C48.1997 20.5813 47.0701 21.2639 45.4415 21.2519C42.4359 21.2359 40.0211 18.6853 40.041 15.6039C40.061 12.5264 42.5038 9.96788 45.5094 9.98385C46.8146 9.99183 48.1877 10.5466 49.2335 11.4567C49.3412 11.6044 49.5209 11.6762 49.7005 11.6762C49.8482 11.6762 49.9919 11.5685 50.0996 11.4607L51.0855 10.4548C51.1933 10.3471 51.2691 10.1635 51.2691 9.98385C51.2691 9.80423 51.1973 9.65654 51.0536 9.51285C49.3612 8.01603 47.6608 7.35344 45.5254 7.34147C40.9591 7.31352 37.2071 11.0216 37.1791 15.6239C37.1512 20.1862 40.8234 23.9422 45.4256 23.9701C47.5251 24.018 49.5249 23.1958 51.0177 21.7588C51.1654 21.6111 51.2372 21.4315 51.2013 21.2519C51.2013 21.1042 51.1294 20.9605 51.0217 20.8527L49.9799 19.795Z" fill="#0A2540"/>
</g>
</g>
</g>
<mask id="mask11_42_12527" style="mask-type:luminance" maskUnits="userSpaceOnUse" x="54" y="7" width="5" height="18">
<path d="M54.157 7.15283H58.2443V24.5239H54.157V7.15283Z" fill="white"/>
</mask>
<g mask="url(#mask11_42_12527)">
<mask id="mask12_42_12527" style="mask-type:luminance" maskUnits="userSpaceOnUse" x="0" y="0" width="119" height="31">
<path d="M0.611503 0.260498L118.022 0.966996L117.842 30.7317L0.431885 30.0252L0.611503 0.260498Z" fill="white"/>
</mask>
<g mask="url(#mask12_42_12527)">
<mask id="mask13_42_12527" style="mask-type:luminance" maskUnits="userSpaceOnUse" x="0" y="0" width="119" height="31">
<path d="M0.610648 0.260742L118.021 0.96724L117.841 30.7319L0.43103 30.0254L0.610648 0.260742Z" fill="white"/>
</mask>
<g mask="url(#mask13_42_12527)">
<path d="M57.1544 7.59327L55.6696 7.5813C55.3423 7.5813 55.0509 7.86869 55.0509 8.19599L54.9591 23.1203C54.9591 23.4476 55.2465 23.7389 55.5738 23.7429L57.0586 23.7509C57.382 23.7509 57.6773 23.4635 57.6773 23.1362L57.7691 8.21196C57.7691 7.88465 57.5177 7.59327 57.1544 7.59327Z" fill="#0A2540"/>
</g>
</g>
</g>
<mask id="mask14_42_12527" style="mask-type:luminance" maskUnits="userSpaceOnUse" x="62" y="7" width="14" height="18">
<path d="M62.3317 7.15381H75.6154V24.5249H62.3317V7.15381Z" fill="white"/>
</mask>
<g mask="url(#mask14_42_12527)">
<mask id="mask15_42_12527" style="mask-type:luminance" maskUnits="userSpaceOnUse" x="0" y="0" width="119" height="31">
<path d="M0.611137 0.260498L118.021 0.966996L117.842 30.7317L0.431519 30.0252L0.611137 0.260498Z" fill="white"/>
</mask>
<g mask="url(#mask15_42_12527)">
<mask id="mask16_42_12527" style="mask-type:luminance" maskUnits="userSpaceOnUse" x="0" y="0" width="119" height="31">
<path d="M0.610282 0.260986L118.021 0.967484L117.841 30.7322L0.430664 30.0257L0.610282 0.260986Z" fill="white"/>
</mask>
<g mask="url(#mask16_42_12527)">
<path d="M74.6205 12.7343C74.6405 9.98015 72.3693 7.68503 69.5792 7.66507L63.4962 7.62915C63.1329 7.62915 62.8775 7.91654 62.8735 8.24384L62.7857 23.1681C62.7817 23.5313 63.0691 23.7868 63.3964 23.7868L64.8453 23.7948C65.1726 23.7988 65.464 23.5114 65.464 23.1841L65.4999 17.6399L68.5414 17.6598L71.4433 23.5473C71.5471 23.7269 71.7666 23.8746 71.9821 23.8746L73.7224 23.8866C73.938 23.8866 74.1575 23.7788 74.2653 23.5992C74.377 23.3836 74.377 23.1641 74.2693 22.9486L71.3355 17.3884C73.3672 16.4943 74.6085 14.7261 74.6205 12.7343ZM71.8704 12.7543C71.8584 14.1672 70.6929 15.3527 69.3158 15.3447L65.5119 15.3248L65.5438 10.2516L69.3837 10.2755C70.7248 10.2476 71.8783 11.4131 71.8704 12.7543Z" fill="#0A2540"/>
</g>
</g>
</g>
<mask id="mask17_42_12527" style="mask-type:luminance" maskUnits="userSpaceOnUse" x="76" y="7" width="16" height="18">
<path d="M76.6381 7.15381H91.9655V24.5249H76.6381V7.15381Z" fill="white"/>
</mask>
<g mask="url(#mask17_42_12527)">
<mask id="mask18_42_12527" style="mask-type:luminance" maskUnits="userSpaceOnUse" x="0" y="0" width="119" height="31">
<path d="M0.611381 0.260498L118.022 0.966996L117.842 30.7317L0.431763 30.0252L0.611381 0.260498Z" fill="white"/>
</mask>
<g mask="url(#mask18_42_12527)">
<mask id="mask19_42_12527" style="mask-type:luminance" maskUnits="userSpaceOnUse" x="0" y="0" width="119" height="31">
<path d="M0.610526 0.260986L118.021 0.967484L117.841 30.7322L0.430908 30.0257L0.610526 0.260986Z" fill="white"/>
</mask>
<g mask="url(#mask19_42_12527)">
<path d="M90.4828 20.0391C90.2673 19.8555 89.904 19.8555 89.6845 20.0711C88.7026 20.8254 87.577 21.508 85.9444 21.496C82.9388 21.4801 80.528 18.9295 80.5439 15.848C80.5639 12.7706 83.0067 10.212 85.9764 10.228C87.2816 10.236 88.6547 10.7908 89.7005 11.7009C89.8082 11.8485 89.9878 11.9204 90.1715 11.9204C90.3152 11.9204 90.4588 11.8126 90.5706 11.7048L91.5525 10.699C91.6643 10.5912 91.7361 10.4076 91.7361 10.228C91.7401 10.0484 91.6683 9.90068 91.5246 9.75699C89.8282 8.26017 88.1318 7.59758 85.9923 7.58561C81.43 7.55767 77.674 11.2658 77.6461 15.868C77.6182 20.4303 81.2903 24.1863 85.8926 24.2142C87.9921 24.2621 89.9918 23.4399 91.4847 22.0029C91.6323 21.8553 91.7042 21.6756 91.6683 21.496C91.6723 21.3483 91.6004 21.2046 91.4926 21.0969L90.4828 20.0391Z" fill="#0A2540"/>
</g>
</g>
</g>
<mask id="mask20_42_12527" style="mask-type:luminance" maskUnits="userSpaceOnUse" x="95" y="7" width="11" height="18">
<path d="M95.0295 7.15283H105.248V24.5239H95.0295V7.15283Z" fill="white"/>
</mask>
<g mask="url(#mask20_42_12527)">
<mask id="mask21_42_12527" style="mask-type:luminance" maskUnits="userSpaceOnUse" x="0" y="0" width="119" height="31">
<path d="M0.611259 0.260498L118.022 0.966996L117.842 30.7317L0.431641 30.0252L0.611259 0.260498Z" fill="white"/>
</mask>
<g mask="url(#mask21_42_12527)">
<mask id="mask22_42_12527" style="mask-type:luminance" maskUnits="userSpaceOnUse" x="0" y="0" width="119" height="31">
<path d="M0.610404 0.260742L118.021 0.96724L117.841 30.7319L0.430786 30.0254L0.610404 0.260742Z" fill="white"/>
</mask>
<g mask="url(#mask22_42_12527)">
<path d="M104.061 21.5305L98.1897 21.4946L98.2695 8.45435C98.2695 8.12704 97.9821 7.83566 97.6548 7.83566L96.17 7.82768C95.8107 7.82369 95.5553 8.11108 95.5513 8.43838L95.4635 23.3626C95.4595 23.7259 95.7469 23.9813 96.0742 23.9853L104.045 24.0332C104.408 24.0332 104.66 23.7458 104.664 23.4185L104.672 22.1891C104.672 21.8259 104.42 21.5345 104.061 21.5305Z" fill="#0A2540"/>
</g>
</g>
</g>
<mask id="mask23_42_12527" style="mask-type:luminance" maskUnits="userSpaceOnUse" x="107" y="7" width="12" height="18">
<path d="M107.293 7.15283H118.533V24.5239H107.293V7.15283Z" fill="white"/>
</mask>
<g mask="url(#mask23_42_12527)">
<mask id="mask24_42_12527" style="mask-type:luminance" maskUnits="userSpaceOnUse" x="0" y="0" width="119" height="31">
<path d="M0.611625 0.260498L118.022 0.966996L117.842 30.7317L0.432007 30.0252L0.611625 0.260498Z" fill="white"/>
</mask>
<g mask="url(#mask24_42_12527)">
<mask id="mask25_42_12527" style="mask-type:luminance" maskUnits="userSpaceOnUse" x="0" y="0" width="119" height="31">
<path d="M0.61077 0.260742L118.021 0.96724L117.841 30.7319L0.431152 30.0254L0.61077 0.260742Z" fill="white"/>
</mask>
<g mask="url(#mask25_42_12527)">
<path d="M117.386 10.4908C117.749 10.4908 118.005 10.2035 118.005 9.88015L118.013 8.61084C118.017 8.24762 117.729 7.99216 117.402 7.99216L108.453 7.93628C108.09 7.93628 107.834 8.22367 107.834 8.54698L107.743 23.4752C107.743 23.8385 108.03 24.0939 108.357 24.0939L117.306 24.1498C117.666 24.1498 117.921 23.8624 117.925 23.5351L117.933 22.3057C117.933 21.9425 117.646 21.687 117.318 21.683L110.437 21.6431L110.465 17.1527L116.225 17.1846C116.584 17.1886 116.839 16.9012 116.843 16.5739L116.851 15.3046C116.851 14.9813 116.564 14.6899 116.237 14.6859L110.477 14.65L110.505 10.4509L117.386 10.4908Z" fill="#0A2540"/>
</g>
</g>
</g>
</svg>
