<svg width="15" height="15" viewBox="0 0 15 15" fill="none" xmlns="http://www.w3.org/2000/svg">
<path d="M3.46249 6.94995C0.537488 7.1562 0.537488 11.4125 3.46249 11.6187H4.66252" stroke="#3D5678" stroke-width="0.9375" stroke-miterlimit="10" stroke-linecap="round" stroke-linejoin="round"/>
<path d="M3.49374 6.95003C1.48749 1.36878 9.94995 -0.86247 10.9187 5.00003C13.625 5.34378 14.7187 8.95003 12.6687 10.7438C12.0437 11.3125 11.2375 11.625 10.3937 11.6188H10.3375" stroke="#3D5678" stroke-width="0.9375" stroke-miterlimit="10" stroke-linecap="round" stroke-linejoin="round"/>
<path d="M10.625 10.3313C10.625 10.7938 10.525 11.2313 10.3375 11.6188C10.2875 11.7313 10.2313 11.8376 10.1688 11.9376C9.63126 12.8438 8.6375 13.4563 7.5 13.4563C6.3625 13.4563 5.36874 12.8438 4.83124 11.9376C4.76874 11.8376 4.71251 11.7313 4.66251 11.6188C4.47501 11.2313 4.375 10.7938 4.375 10.3313C4.375 8.6063 5.775 7.2063 7.5 7.2063C9.225 7.2063 10.625 8.6063 10.625 10.3313Z" stroke="#3D5678" stroke-width="0.9375" stroke-miterlimit="10" stroke-linecap="round" stroke-linejoin="round"/>
<path d="M6.52496 10.3312L7.14371 10.95L8.47496 9.71875" stroke="#3D5678" stroke-width="0.9375" stroke-linecap="round" stroke-linejoin="round"/>
</svg>
