<svg width="144" height="87" viewBox="0 0 144 87" fill="none" xmlns="http://www.w3.org/2000/svg">
  <g opacity="0.47">
    <path d="M98.8339 63.8551C97.6784 40.6974 97.3414 17.4434 112.676 13.8806C113.446 13.688 129.31 13.8566 130.248 13.8325C148.519 13.3751 163.637 34.1256 164.961 60.5813C166.285 87.0369 153.093 107.667 134.87 108.919C133.595 109.015 118.381 109.809 118.188 109.641C109.209 101.986 99.9412 85.9055 98.8339 63.8551Z" fill="black"/>
    <path d="M118.327 109.614C136.586 108.709 150.324 86.5326 149.014 60.081C147.703 33.6294 131.838 12.9197 113.58 13.8246C95.3215 14.7295 81.5827 36.9063 82.8937 63.3579C84.2046 89.8094 100.069 110.519 118.327 109.614Z" fill="#A7C6ED"/>
    <path d="M127.534 65.5388C126.21 60.0743 121.974 58.2448 117.256 57.9319L116.052 42.694C119.205 42.5496 121.396 44.0902 121.396 44.0902L124.453 37.9036C124.453 37.9036 120.674 35.8815 115.546 36.5314L115.161 31.5725L109.456 34.0038L109.769 38.385C108.926 38.8424 108.084 39.3479 107.241 39.9979C107.241 39.9979 101.921 43.9217 101.777 51.5527C101.657 58.7503 104.088 64.2629 111.598 64.9851L112.73 81.4266C110.395 81.3063 107.867 80.2711 105.364 77.9843L101.608 84.6283C101.608 84.6283 106.736 89.1298 113.259 89.0095L113.837 97.3867L120.192 95.0035L119.591 87.3003C127.823 82.8228 129.436 73.3383 127.534 65.5388ZM110.226 45.029L111.069 57.2579C106.832 55.2117 106.134 48.5195 110.226 45.029ZM121.829 73.2179C121.54 75.6252 120.481 77.6713 118.941 79.1397L117.833 65.2258C117.905 65.2499 118.002 65.2499 118.05 65.274C119.205 65.5629 122.624 66.7424 121.829 73.2179Z" fill="white"/>
    <path d="M43.8587 45.6559C60.1076 29.4069 76.9583 13.6876 89.7649 22.5703C90.4149 23.0277 100.02 34.5584 100.67 35.2325C113.163 48.352 108.806 73.4837 90.2464 92.0435C71.6865 110.603 46.4826 115.033 33.4353 102.467C32.5205 101.576 20.6287 87.4938 20.6287 87.2531C20.2677 75.5539 28.3801 61.1104 43.8587 45.6559Z" fill="black"/>
    <path d="M79.9848 79.9848C98.5513 61.4182 103.223 35.9874 90.419 23.1836C77.6151 10.3797 52.1843 15.0512 33.6178 33.6178C15.0512 52.1844 10.3796 77.6152 23.1835 90.4191C35.9874 103.223 61.4182 98.5514 79.9848 79.9848Z" fill="#A7C6ED"/>
    <path d="M71.1534 34.4611L73.344 30.3687L67.1573 29.5743L65.1834 33.1852C64.2205 33.1371 63.2335 33.1371 62.1743 33.2574C62.1743 33.2574 55.5785 33.8352 51.5824 39.7811C47.803 45.39 47.1049 50.9026 53.2434 55.0671L45.8532 68.5718C43.9033 67.3681 42.2423 65.3461 41.2313 62.3611L34.6113 65.8275C34.6113 65.8275 36.7538 71.8216 42.459 74.8065L38.7037 81.6913L45.4199 82.8468L48.79 76.4435C58.1783 76.8286 64.389 70.1124 66.724 63.0592C68.361 58.1002 65.6408 54.6338 61.7169 52.1543L68.4091 39.5885C71.2015 40.9606 72.3329 43.1994 72.3329 43.1994L78.1103 39.7811C78.1344 39.7811 75.8956 36.3869 71.1534 34.4611ZM62.1984 38.6497L56.7099 48.6879C54.086 45.0529 56.8784 39.4441 62.1984 38.6497ZM58.6838 58.341C59.5264 59.1113 61.8614 61.687 57.8894 66.4052C56.421 68.1625 54.4471 69.2939 52.3768 69.7032L58.5153 58.1965C58.5635 58.2447 58.6357 58.2928 58.6838 58.341Z" fill="white"/>
  </g>
</svg>
