<svg width="14" height="14" viewBox="0 0 14 14" fill="none" xmlns="http://www.w3.org/2000/svg">
<mask id="path-1-inside-1_308_722" fill="white">
<path d="M0 7.00076C0 8.05191 0.208038 9.02112 0.624114 9.9084C1.04019 10.7962 1.60568 11.5619 2.32058 12.2054C3.03653 12.8485 3.86401 13.3297 4.80303 13.6491C5.74154 13.9691 6.73167 14.0702 7.77341 13.9525C7.88392 13.9364 7.969 13.8898 8.02866 13.8125C8.08884 13.7347 8.10933 13.6419 8.09014 13.534C8.07094 13.4251 8.01829 13.3372 7.93217 13.2703C7.84605 13.2034 7.74851 13.1765 7.63956 13.1894C6.72492 13.288 5.85775 13.1964 5.03805 12.9148C4.21835 12.6327 3.49022 12.2065 2.85365 11.636C2.21708 11.0656 1.71203 10.3824 1.3385 9.58637C0.964965 8.79036 0.778197 7.92849 0.778197 7.00076C0.778197 5.26353 1.3813 3.79208 2.58751 2.58639C3.79371 1.3807 5.2658 0.777862 7.00378 0.777862C7.92879 0.777862 8.78429 0.961697 9.57027 1.32937C10.3563 1.69703 11.0403 2.19979 11.6224 2.83764C12.219 3.49001 12.6548 4.23157 12.9297 5.06232C13.2052 5.89308 13.2934 6.75132 13.1943 7.63705C13.1819 7.74491 13.2091 7.84214 13.276 7.92875C13.3435 8.01483 13.4314 8.06746 13.5399 8.08665C13.6483 8.10584 13.7411 8.08536 13.8184 8.0252C13.8958 7.96505 13.9424 7.87974 13.9585 7.76928C14.0659 6.73162 13.9648 5.74581 13.655 4.81185C13.3453 3.87842 12.8711 3.05285 12.2325 2.33514C11.558 1.58113 10.771 1.00344 9.87143 0.602065C8.97184 0.200688 8.01595 0 7.00378 0C6.03466 0 5.12417 0.183834 4.2723 0.551503C3.42044 0.919172 2.67933 1.41778 2.04899 2.04733C1.41865 2.67688 0.91957 3.41792 0.551742 4.27046C0.183914 5.123 0 6.0331 0 7.00076Z"/>
</mask>
<path d="M0 7.00076C0 8.05191 0.208038 9.02112 0.624114 9.9084C1.04019 10.7962 1.60568 11.5619 2.32058 12.2054C3.03653 12.8485 3.86401 13.3297 4.80303 13.6491C5.74154 13.9691 6.73167 14.0702 7.77341 13.9525C7.88392 13.9364 7.969 13.8898 8.02866 13.8125C8.08884 13.7347 8.10933 13.6419 8.09014 13.534C8.07094 13.4251 8.01829 13.3372 7.93217 13.2703C7.84605 13.2034 7.74851 13.1765 7.63956 13.1894C6.72492 13.288 5.85775 13.1964 5.03805 12.9148C4.21835 12.6327 3.49022 12.2065 2.85365 11.636C2.21708 11.0656 1.71203 10.3824 1.3385 9.58637C0.964965 8.79036 0.778197 7.92849 0.778197 7.00076C0.778197 5.26353 1.3813 3.79208 2.58751 2.58639C3.79371 1.3807 5.2658 0.777862 7.00378 0.777862C7.92879 0.777862 8.78429 0.961697 9.57027 1.32937C10.3563 1.69703 11.0403 2.19979 11.6224 2.83764C12.219 3.49001 12.6548 4.23157 12.9297 5.06232C13.2052 5.89308 13.2934 6.75132 13.1943 7.63705C13.1819 7.74491 13.2091 7.84214 13.276 7.92875C13.3435 8.01483 13.4314 8.06746 13.5399 8.08665C13.6483 8.10584 13.7411 8.08536 13.8184 8.0252C13.8958 7.96505 13.9424 7.87974 13.9585 7.76928C14.0659 6.73162 13.9648 5.74581 13.655 4.81185C13.3453 3.87842 12.8711 3.05285 12.2325 2.33514C11.558 1.58113 10.771 1.00344 9.87143 0.602065C8.97184 0.200688 8.01595 0 7.00378 0C6.03466 0 5.12417 0.183834 4.2723 0.551503C3.42044 0.919172 2.67933 1.41778 2.04899 2.04733C1.41865 2.67688 0.91957 3.41792 0.551742 4.27046C0.183914 5.123 0 6.0331 0 7.00076Z" fill="black"/>
<path d="M0 7.00076H-1H0ZM0.624114 9.9084L1.52951 9.48383L1.5296 9.48404L0.624114 9.9084ZM2.32058 12.2054L1.65237 12.9494L1.65154 12.9487L2.32058 12.2054ZM4.80303 13.6491L5.12509 12.7024L5.12572 12.7026L4.80303 13.6491ZM7.77341 13.9525L7.91738 14.9421L7.90157 14.9444L7.8857 14.9462L7.77341 13.9525ZM8.02866 13.8125L7.23715 13.2013L7.23774 13.2006L8.02866 13.8125ZM8.09014 13.534L7.10561 13.7092L7.10532 13.7076L8.09014 13.534ZM7.63956 13.1894L7.75773 14.1825L7.74667 14.1837L7.63956 13.1894ZM5.03805 12.9148L4.71316 13.8606L4.71263 13.8604L5.03805 12.9148ZM0.778197 7.00076H1.7782H0.778197ZM11.6224 2.83764L10.8844 3.51251L10.8837 3.51173L11.6224 2.83764ZM12.9297 5.06232L11.9806 5.37707L11.9804 5.37654L12.9297 5.06232ZM13.1943 7.63705L14.1881 7.74823L14.1877 7.75172L13.1943 7.63705ZM13.276 7.92875L12.4889 8.54549L12.4848 8.54022L13.276 7.92875ZM13.9585 7.76928L14.9532 7.87223L14.9511 7.89285L14.9481 7.91337L13.9585 7.76928ZM13.655 4.81185L14.6041 4.49693L14.6042 4.49708L13.655 4.81185ZM12.2325 2.33514L12.9778 1.66845L12.9795 1.67038L12.2325 2.33514ZM7.00378 0V1V0ZM0 7.00076H1C1 7.91601 1.18019 8.73891 1.52951 9.48383L0.624114 9.9084L-0.281281 10.333C-0.764111 9.30334 -1 8.18781 -1 7.00076H0ZM0.624114 9.9084L1.5296 9.48404C1.89009 10.2532 2.376 10.9098 2.98963 11.4622L2.32058 12.2054L1.65154 12.9487C0.835358 12.2139 0.190294 11.3392 -0.281376 10.3328L0.624114 9.9084ZM2.32058 12.2054L2.98879 11.4615C3.60112 12.0114 4.30994 12.4251 5.12509 12.7024L4.80303 13.6491L4.48097 14.5959C3.41808 14.2343 2.47193 13.6855 1.65237 12.9494L2.32058 12.2054ZM4.80303 13.6491L5.12572 12.7026C5.91653 12.9722 6.75748 13.0609 7.66113 12.9588L7.77341 13.9525L7.8857 14.9462C6.70585 15.0795 5.56655 14.966 4.48035 14.5956L4.80303 13.6491ZM7.77341 13.9525L7.62945 12.9629C7.5841 12.9695 7.51581 12.9866 7.43917 13.0287C7.36027 13.072 7.29095 13.1317 7.23715 13.2013L8.02866 13.8125L8.82017 14.4237C8.57887 14.7362 8.24472 14.8945 7.91738 14.9421L7.77341 13.9525ZM8.02866 13.8125L7.23774 13.2006C7.18068 13.2743 7.13538 13.3661 7.11268 13.469C7.09057 13.5691 7.09564 13.6532 7.10561 13.7092L8.09014 13.534L9.07467 13.3588C9.13706 13.7094 9.07327 14.0965 8.81959 14.4244L8.02866 13.8125ZM8.09014 13.534L7.10532 13.7076C7.11523 13.7638 7.13718 13.8315 7.17841 13.9003C7.21976 13.9694 7.27028 14.0224 7.31872 14.0601L7.93217 13.2703L8.54561 12.4806C8.83069 12.702 9.01336 13.011 9.07496 13.3604L8.09014 13.534ZM7.93217 13.2703L7.31872 14.0601C7.37075 14.1005 7.44129 14.1398 7.52794 14.1638C7.61448 14.1877 7.69424 14.19 7.75773 14.1824L7.63956 13.1894L7.5214 12.1964C7.88967 12.1526 8.25041 12.2513 8.54561 12.4806L7.93217 13.2703ZM7.63956 13.1894L7.74667 14.1837C6.69536 14.2969 5.68 14.1927 4.71316 13.8606L5.03805 12.9148L5.36294 11.9691C6.0355 12.2001 6.75449 12.279 7.53246 12.1952L7.63956 13.1894ZM5.03805 12.9148L4.71263 13.8604C3.76852 13.5355 2.92372 13.0416 2.18629 12.3808L2.85365 11.636L3.52101 10.8913C4.05671 11.3713 4.66818 11.73 5.36347 11.9693L5.03805 12.9148ZM2.85365 11.636L2.18629 12.3808C1.44685 11.7182 0.862105 10.9252 0.433217 10.0112L1.3385 9.58637L2.24378 9.16156C2.56196 9.83961 2.98732 10.4131 3.52101 10.8913L2.85365 11.636ZM1.3385 9.58637L0.433217 10.0112C-0.00611851 9.07495 -0.221803 8.06705 -0.221803 7.00076H0.778197H1.7782C1.7782 7.78992 1.93605 8.50577 2.24378 9.16156L1.3385 9.58637ZM0.778197 7.00076H-0.221803C-0.221803 5.00378 0.482833 3.27625 1.88055 1.87913L2.58751 2.58639L3.29446 3.29365C2.27977 4.30791 1.7782 5.52328 1.7782 7.00076H0.778197ZM2.58751 2.58639L1.88055 1.87913C3.27825 0.482033 5.00633 -0.222138 7.00378 -0.222138V0.777862V1.77786C5.52528 1.77786 4.30917 2.27938 3.29446 3.29365L2.58751 2.58639ZM7.00378 0.777862V-0.222138C8.06537 -0.222138 9.06672 -0.010191 9.99399 0.423572L9.57027 1.32937L9.14655 2.23516C8.50186 1.93358 7.79222 1.77786 7.00378 1.77786V0.777862ZM9.57027 1.32937L9.99399 0.423572C10.8986 0.846723 11.6898 1.42802 12.361 2.16355L11.6224 2.83764L10.8837 3.51173C10.3908 2.97157 9.81393 2.54735 9.14655 2.23516L9.57027 1.32937ZM11.6224 2.83764L12.3603 2.16277C13.051 2.91802 13.5594 3.78217 13.8791 4.74811L12.9297 5.06232L11.9804 5.37654C11.7502 4.68096 11.387 4.062 10.8844 3.51251L11.6224 2.83764ZM12.9297 5.06232L13.8789 4.74757C14.2007 5.71798 14.303 6.72168 14.1881 7.74823L13.1943 7.63705L12.2005 7.52587C12.2839 6.78097 12.2097 6.06818 11.9806 5.37707L12.9297 5.06232ZM13.1943 7.63705L14.1877 7.75172C14.1953 7.68655 14.1923 7.60662 14.1684 7.52113C14.1445 7.4358 14.1059 7.36718 14.0673 7.31727L13.276 7.92875L12.4848 8.54022C12.2598 8.24905 12.1583 7.8917 12.2009 7.52237L13.1943 7.63705ZM13.276 7.92875L14.0632 7.31202C14.0264 7.26506 13.9743 7.21553 13.9062 7.17475C13.8381 7.13402 13.7708 7.11198 13.7141 7.10195L13.5399 8.08665L13.3656 9.07135C13.0164 9.00955 12.7095 8.82703 12.4889 8.54547L13.276 7.92875ZM13.5399 8.08665L13.7141 7.10195C13.6593 7.09226 13.5757 7.08704 13.4754 7.10915C13.3723 7.13191 13.2794 7.1776 13.2043 7.23601L13.8184 8.0252L14.4326 8.8144C14.103 9.07092 13.7142 9.13305 13.3656 9.07135L13.5399 8.08665ZM13.8184 8.0252L13.2043 7.23601C13.1359 7.28926 13.077 7.35782 13.0342 7.43597C12.9927 7.51197 12.9756 7.57979 12.969 7.6252L13.9585 7.76928L14.9481 7.91337C14.9004 8.24073 14.7424 8.57332 14.4326 8.8144L13.8184 8.0252ZM13.9585 7.76928L12.9638 7.66634C13.0575 6.76092 12.9683 5.91812 12.7059 5.12662L13.655 4.81185L14.6042 4.49708C14.9612 5.57349 15.0743 6.70231 14.9532 7.87223L13.9585 7.76928ZM13.655 4.81185L12.7059 5.12678C12.438 4.31935 12.0314 3.61352 11.4854 2.9999L12.2325 2.33514L12.9795 1.67038C13.7108 2.49218 14.2526 3.43749 14.6041 4.49693L13.655 4.81185ZM12.2325 2.33514L11.4871 3.00183C10.9041 2.34999 10.2313 1.85765 9.46398 1.51529L9.87143 0.602065L10.2789 -0.311159C11.3108 0.149231 12.212 0.81228 12.9778 1.66846L12.2325 2.33514ZM9.87143 0.602065L9.46398 1.51529C8.69617 1.17272 7.87951 1 7.00378 1V0V-1C8.15239 -1 9.2475 -0.771339 10.2789 -0.311159L9.87143 0.602065ZM7.00378 0V1C6.16476 1 5.38975 1.15837 4.66857 1.46964L4.2723 0.551503L3.87603 -0.366631C4.85859 -0.790708 5.90456 -1 7.00378 -1V0ZM4.2723 0.551503L4.66857 1.46964C3.92764 1.78942 3.29305 2.21816 2.75566 2.75488L2.04899 2.04733L1.34233 1.33978C2.06561 0.617405 2.91323 0.0489197 3.87603 -0.366631L4.2723 0.551503ZM2.04899 2.04733L2.75566 2.75488C2.21867 3.2912 1.78975 3.92534 1.46993 4.66661L0.551742 4.27046L-0.366443 3.87431C0.0493894 2.91051 0.618638 2.06257 1.34233 1.33978L2.04899 2.04733ZM0.551742 4.27046L1.46993 4.66661C1.15835 5.38877 1 6.16348 1 7.00076H0H-1C-1 5.90272 -0.790521 4.85722 -0.366443 3.87431L0.551742 4.27046Z" fill="#3D5678" mask="url(#path-1-inside-1_308_722)"/>
<path d="M7.06334 5V9M7.92844 5.72727H6.6308C6.4635 5.72727 6.30305 5.79432 6.18476 5.91366C6.06646 6.033 6 6.16456 6 6.33333C6 6.50211 6.06646 6.69427 6.18476 6.81361C6.30305 6.93295 6.4635 7 6.6308 7H7.29764C7.46494 7 7.69695 7.10288 7.81524 7.22222C7.93354 7.34156 8 7.50343 8 7.6722C8 7.84097 7.93354 8.00284 7.81524 8.12218C7.69695 8.24152 7.46494 8.27273 7.29764 8.27273H6.01459" stroke="#3D5678" stroke-width="0.7" stroke-linecap="round" stroke-linejoin="round"/>
<path d="M11 9V13M9 11H13" stroke="#3D5678" stroke-width="0.7" stroke-linecap="round" stroke-linejoin="round"/>
</svg>
