<svg width="12" height="14" viewBox="0 0 12 14" fill="none" xmlns="http://www.w3.org/2000/svg">
<path d="M5.84314 3.86816V7.97805M6.87805 4.61542H5.4714C5.29951 4.61542 5.13465 4.6843 5.01311 4.80692C4.89156 4.92954 4.82327 5.06472 4.82327 5.23813C4.82327 5.41154 4.89156 5.60898 5.01311 5.7316C5.13465 5.85422 5.29951 5.92311 5.4714 5.92311H6.15656C6.32845 5.92311 6.56684 6.02882 6.68839 6.15144C6.80993 6.27406 6.87822 6.44036 6.87822 6.61378C6.87822 6.78719 6.80993 6.95349 6.68839 7.07611C6.56684 7.19873 6.32845 7.2308 6.15656 7.2308H4.83826" stroke="#3D5678" stroke-width="0.592308" stroke-linecap="round" stroke-linejoin="round"/>
<path d="M6.98032 12.4829C6.87288 12.6753 6.71867 12.835 6.53312 12.946C6.34758 13.057 6.13722 13.1154 5.9231 13.1154C5.70898 13.1154 5.49861 13.057 5.31307 12.946C5.12753 12.835 4.97331 12.6753 4.86587 12.4829M9.58976 4.48535C9.58976 3.40822 9.20354 2.37488 8.51604 1.61321C7.82854 0.851537 6.89476 0.423096 5.9231 0.423096C4.95143 0.423096 4.01826 0.850902 3.33015 1.61321C2.64265 2.37488 2.25643 3.40822 2.25643 4.48535C2.25643 9.22487 0.423096 10.5787 0.423096 10.5787H11.4231C11.4231 10.5787 9.58976 9.22487 9.58976 4.48535Z" stroke="#3D5678" stroke-width="0.846154" stroke-linecap="round" stroke-linejoin="round"/>
</svg>
