<svg width="15" height="12" viewBox="0 0 15 12" fill="none" xmlns="http://www.w3.org/2000/svg">
<path d="M1.5 0.549805H5.77246L7.27246 2.0498H13.5C13.752 2.0498 13.9937 2.14997 14.1719 2.32812C14.35 2.50629 14.4502 2.74805 14.4502 3V10.5C14.4502 10.752 14.35 10.9937 14.1719 11.1719C13.9937 11.35 13.752 11.4502 13.5 11.4502H1.5C1.24805 11.4502 1.00629 11.35 0.828125 11.1719C0.649966 10.9937 0.549805 10.752 0.549805 10.5V1.5C0.549805 1.24804 0.649966 1.00628 0.828125 0.828125C1.00628 0.649966 1.24804 0.549805 1.5 0.549805Z" stroke="currentColor" stroke-width="1.1"/>
<path d="M8 0.5H12.5" stroke="currentColor" stroke-linecap="round"/>
<path d="M7.4926 4.5V8.5M8.49984 5.22727H7.1308C6.9635 5.22727 6.80305 5.29432 6.68476 5.41366C6.56646 5.533 6.5 5.66456 6.5 5.83333C6.5 6.00211 6.56646 6.19427 6.68476 6.31361C6.80305 6.43295 6.9635 6.5 7.1308 6.5H7.79764C7.96494 6.5 8.19695 6.60288 8.31524 6.72222C8.43354 6.84156 8.5 7.00343 8.5 7.1722C8.5 7.34097 8.43354 7.50284 8.31524 7.62218C8.19695 7.74152 7.96494 7.77273 7.79764 7.77273H6.51459" stroke="currentColor" stroke-width="0.7" stroke-linecap="round" stroke-linejoin="round"/>
</svg>
