<svg width="15" height="18" viewBox="0 0 15 18" fill="none" xmlns="http://www.w3.org/2000/svg">
<path d="M10.2852 9.02716C11.8719 8.94171 13.1069 10.1227 13.1934 11.5418C13.2843 13.0383 12.0586 14.2695 10.5898 14.3377C8.99031 14.4118 7.77665 13.231 7.68945 11.827C7.59664 10.3287 8.8096 9.10676 10.2852 9.02716Z" stroke="#171717" stroke-width="0.75"/>
<path d="M14.2014 10.313C14.4547 10.7195 14.596 11.1817 14.6008 11.6929C14.6055 12.1816 14.4572 12.6355 14.2073 13.0347C14.3856 12.5878 14.4831 12.1137 14.4758 11.6606C14.4681 11.178 14.3655 10.7231 14.2014 10.313Z" fill="#171717" stroke="#171717" stroke-width="0.65"/>
<path d="M10.4289 10.5574V12.69M10.9659 10.9452H10.236C10.1468 10.9452 10.0612 10.9809 9.99816 11.0445C9.93509 11.1082 9.89966 11.1783 9.89966 11.2683C9.89966 11.3583 9.93509 11.4607 9.99816 11.5243C10.0612 11.588 10.1468 11.6237 10.236 11.6237H10.5915C10.6807 11.6237 10.8044 11.6786 10.8674 11.7422C10.9305 11.8058 10.9659 11.8921 10.9659 11.9821C10.9659 12.0721 10.9305 12.1584 10.8674 12.222C10.8044 12.2856 10.6807 12.3023 10.5915 12.3023H9.90743" stroke="#171717" stroke-width="0.25" stroke-linecap="round" stroke-linejoin="round"/>
<path d="M7.31074 14.4335L0.375 14.4335" stroke="#171717" stroke-width="0.75" stroke-linecap="round" stroke-linejoin="round"/>
<path d="M6.35413 12.3873L0.375 12.3873" stroke="#171717" stroke-width="0.75" stroke-linecap="round" stroke-linejoin="round"/>
<path d="M6.42773 10.3406L0.375 10.3406" stroke="#171717" stroke-width="0.75" stroke-linecap="round" stroke-linejoin="round"/>
<path d="M8.42773 8.34064L0.375 8.34064" stroke="#171717" stroke-width="0.75" stroke-linecap="round" stroke-linejoin="round"/>
<path d="M9.07295 4.20321L0.375 4.29401" stroke="#171717" stroke-width="0.75" stroke-linecap="round" stroke-linejoin="round"/>
<path d="M9.07295 6.20321L0.375 6.29401" stroke="#171717" stroke-width="0.75" stroke-linecap="round" stroke-linejoin="round"/>
</svg>
