<svg width="16" height="16" viewBox="0 0 16 16" fill="none" xmlns="http://www.w3.org/2000/svg">
<path d="M12.0267 9.03328C11.7467 9.30662 11.5867 9.69995 11.6267 10.12C11.6867 10.84 12.3468 11.3666 13.0668 11.3666H14.3334V12.16C14.3334 13.54 13.2068 14.6666 11.8268 14.6666H5.09341C5.64675 14.18 6.00008 13.4666 6.00008 12.6666C6.00008 11.1933 4.80675 9.99996 3.33341 9.99996C2.70675 9.99996 2.12675 10.22 1.66675 10.5866V7.6733C1.66675 6.2933 2.79341 5.16663 4.17341 5.16663H11.8268C13.2068 5.16663 14.3334 6.2933 14.3334 7.6733V8.6333H12.9867C12.6134 8.6333 12.2734 8.77995 12.0267 9.03328Z" stroke="#171717" stroke-linecap="round" stroke-linejoin="round"/>
<path d="M1.66663 7.67329V5.22664C1.66663 4.4333 2.15329 3.72661 2.89329 3.44661L8.18663 1.44661C9.01329 1.13994 9.89996 1.74663 9.89996 2.63329V5.16662" stroke="#171717" stroke-linecap="round" stroke-linejoin="round"/>
<path d="M15.0392 9.3134V10.6868C15.0392 11.0534 14.7458 11.3534 14.3725 11.3667H13.0658C12.3458 11.3667 11.6858 10.8401 11.6258 10.1201C11.5858 9.70008 11.7458 9.30674 12.0258 9.03341C12.2725 8.78007 12.6125 8.63342 12.9858 8.63342H14.3725C14.7458 8.64676 15.0392 8.94673 15.0392 9.3134Z" stroke="#171717" stroke-linecap="round" stroke-linejoin="round"/>
<path d="M4.66663 8H9.33329" stroke="#171717" stroke-linecap="round" stroke-linejoin="round"/>
<path d="M5.99996 12.6667C5.99996 13.4667 5.64663 14.18 5.09329 14.6667C4.61996 15.08 4.00663 15.3333 3.33329 15.3333C1.85996 15.3333 0.666626 14.14 0.666626 12.6667C0.666626 11.8267 1.05329 11.0733 1.66663 10.5867C2.12663 10.22 2.70663 10 3.33329 10C4.80663 10 5.99996 11.1933 5.99996 12.6667Z" stroke="#171717" stroke-miterlimit="10" stroke-linecap="round" stroke-linejoin="round"/>
<path d="M3.50008 11.8334V12.8334L2.66675 13.3334" stroke="#171717" stroke-miterlimit="10" stroke-linecap="round" stroke-linejoin="round"/>
</svg>
