<svg width="17" height="11" viewBox="0 0 17 11" fill="none" xmlns="http://www.w3.org/2000/svg">
<path d="M10.9413 0.0556641C11.0121 0.0806893 11.0741 0.172135 11.0428 0.30957C10.5535 2.46037 10.049 4.57365 9.54672 6.70898C9.36117 7.49753 8.99191 9.24054 8.79868 9.8916C8.47747 10.9736 7.08822 11.189 6.44125 10.2842C6.26664 10.04 6.19918 9.80205 6.2059 9.56055C6.21275 9.31785 6.29416 9.06805 6.42368 8.80078C7.80829 5.94401 9.26969 3.08337 10.6815 0.227539C10.765 0.0588802 10.8736 0.0319712 10.9413 0.0556641Z" fill="black" stroke="black" stroke-width="0.0959999"/>
<path d="M13.3433 3.06799C13.3865 3.09582 13.4377 3.13373 13.4946 3.17834C13.6088 3.26782 13.7438 3.38513 13.8784 3.50745C14.1478 3.75216 14.4141 4.0162 14.5112 4.12659C14.9285 4.60076 15.1884 4.91235 15.5444 5.48792C15.594 5.56812 15.732 5.7935 15.8521 6.01624C15.9122 6.12776 15.9672 6.2377 16.0044 6.32776C16.023 6.37287 16.0367 6.412 16.0444 6.44299C16.0499 6.46517 16.0493 6.47948 16.0493 6.48792C16.0318 6.50491 16.0027 6.52749 15.9585 6.55042C15.9077 6.57678 15.8446 6.60268 15.7778 6.62854C15.7112 6.65436 15.6413 6.679 15.5767 6.70178C15.5128 6.72431 15.4532 6.74545 15.4077 6.76331C15.2419 6.82842 14.744 7.03221 14.2817 7.21448C14.0487 7.30634 13.8216 7.39365 13.645 7.45764C13.5567 7.48964 13.4815 7.5161 13.4243 7.53381C13.3957 7.54267 13.372 7.54908 13.354 7.55334C13.3509 7.55407 13.3479 7.55375 13.3452 7.55432C13.3423 7.54955 13.338 7.54415 13.3345 7.53772C13.3242 7.51885 13.3127 7.49503 13.3003 7.46741C13.2754 7.41196 13.2481 7.34301 13.2202 7.27112C13.1652 7.12903 13.1085 6.97215 13.0747 6.89514C12.8241 6.32462 12.3217 5.51768 11.8794 5.1012H11.8784C11.8364 5.06168 11.8028 5.03137 11.7739 5.00354C11.7457 4.97633 11.7259 4.95563 11.7134 4.93713C11.7014 4.91937 11.6972 4.90562 11.6968 4.89319C11.6964 4.88018 11.7001 4.86259 11.7134 4.83655C11.7414 4.78177 11.8026 4.7058 11.9097 4.58264C12.0151 4.46145 12.1621 4.29734 12.355 4.06897C12.381 4.03815 12.446 3.9584 12.5288 3.85706C12.6119 3.75537 12.7139 3.63056 12.8169 3.50842C12.9202 3.38598 13.0246 3.26627 13.1099 3.17444C13.1524 3.12864 13.1899 3.09022 13.2202 3.06213C13.2353 3.04815 13.2479 3.03688 13.2583 3.02893C13.2596 3.02795 13.261 3.02686 13.2622 3.026C13.2816 3.03392 13.3093 3.04613 13.3433 3.06799Z" fill="black" stroke="black" stroke-width="0.0959999"/>
<path d="M16.417 7.39746C16.4491 7.42376 16.4732 7.46909 16.4932 7.5293C16.5037 7.56113 16.513 7.59508 16.5215 7.62891C16.5297 7.66193 16.5378 7.69651 16.5469 7.72656C16.6638 8.11554 16.7971 8.77738 16.8779 9.41797C16.9183 9.73805 16.9457 10.0521 16.9512 10.3232C16.9563 10.5755 16.9404 10.7862 16.9033 10.9307L13.4326 10.9434C13.4697 10.6704 13.5111 10.5108 13.5469 10.3184C13.5849 10.1137 13.6128 9.87963 13.6133 9.4502C13.6136 9.17253 13.5987 8.9031 13.5635 8.62988C13.5572 8.58152 13.5425 8.51126 13.5303 8.44531C13.5176 8.37697 13.5072 8.31378 13.5059 8.27441C13.5047 8.23977 13.5108 8.21962 13.5176 8.20703C13.524 8.19514 13.5336 8.18596 13.5498 8.17773C13.567 8.169 13.5894 8.1624 13.6191 8.15527C13.6473 8.14854 13.6838 8.14079 13.7197 8.13086C13.8783 8.08693 14.5401 7.89399 15.1689 7.71777C15.484 7.6295 15.7917 7.54542 16.0264 7.48535C16.1438 7.45529 16.2425 7.43124 16.3145 7.41602C16.3504 7.40842 16.3789 7.40326 16.3994 7.40039C16.4066 7.3994 16.4125 7.39782 16.417 7.39746Z" fill="black" stroke="black" stroke-width="0.0959999"/>
<path d="M7.27295 1.37085C7.28326 1.37361 7.29211 1.37883 7.30127 1.40112C7.312 1.42735 7.32029 1.47131 7.32471 1.5437C7.32867 1.60869 7.33962 1.74104 7.35205 1.9021C7.36451 2.06349 7.37843 2.25493 7.39014 2.44019C7.40187 2.62593 7.41091 2.80522 7.4126 2.94116C7.41344 3.00928 7.41289 3.06568 7.40967 3.1062C7.40834 3.12281 7.40558 3.13565 7.40381 3.14526C7.39705 3.14639 7.38905 3.14889 7.37939 3.15015C7.35316 3.15355 7.31821 3.15717 7.27686 3.16089C7.19389 3.16834 7.08658 3.17664 6.97607 3.18433C6.75685 3.19958 6.52046 3.21428 6.43701 3.22534C5.87829 3.29986 5.27387 3.4761 4.77197 3.69116C4.64475 3.74572 4.51474 3.80444 4.40186 3.86304C4.37256 3.87825 4.34261 3.89547 4.31396 3.91187C4.28507 3.9284 4.2571 3.94462 4.229 3.95874C4.17886 3.98392 4.13209 3.99857 4.08838 4.00269C4.05286 3.96479 4.01507 3.91552 3.97803 3.86108C3.93459 3.79723 3.89555 3.73373 3.85693 3.67554C3.77431 3.55109 3.69785 3.44836 3.61475 3.32788C3.59018 3.29226 3.53515 3.2185 3.48486 3.14917C3.45951 3.11421 3.43529 3.07977 3.41553 3.05054C3.39512 3.02032 3.38152 2.99815 3.37646 2.98706C3.3618 2.95452 3.36198 2.93037 3.36768 2.91187C3.37385 2.89217 3.3884 2.87218 3.41162 2.85132C3.43495 2.83043 3.46407 2.81065 3.49658 2.79077C3.52763 2.77179 3.56374 2.75155 3.59326 2.7312C4.45072 2.13891 5.49361 1.69657 6.55908 1.4812L7.01611 1.40308C7.0827 1.39379 7.14249 1.3814 7.18408 1.37476C7.22996 1.36744 7.25645 1.3665 7.27295 1.37085Z" fill="black" stroke="black" stroke-width="0.0959999"/>
<path d="M3.44678 4.37244C3.4591 4.399 3.46098 4.41558 3.45947 4.42615C3.45798 4.43656 3.45278 4.44717 3.44092 4.45935C3.42834 4.47219 3.41079 4.48512 3.38721 4.50037C3.36488 4.5148 3.33642 4.53194 3.31006 4.55115C3.2326 4.60758 3.13777 4.6809 3.06689 4.74255C2.57287 5.17255 2.22054 5.53611 1.8335 6.09216C1.60402 6.42181 1.41264 6.76542 1.21338 7.14587C1.17876 7.14571 1.1302 7.14041 1.0708 7.12537C0.998726 7.10709 0.915978 7.07965 0.834473 7.04919C0.690797 6.9955 0.55321 6.93195 0.480957 6.89587C0.481784 6.86002 0.486502 6.8148 0.499512 6.76111C0.515921 6.69346 0.542224 6.61453 0.574707 6.52869C0.639633 6.35719 0.731611 6.15882 0.831543 5.96033C1.03167 5.56284 1.26271 5.16892 1.37061 4.99939C1.44876 4.8766 1.71505 4.50679 2.00049 4.16248C2.14314 3.99041 2.28938 3.82558 2.41846 3.70154C2.48298 3.63953 2.54254 3.58869 2.59424 3.55212C2.63348 3.52439 2.6662 3.50812 2.69092 3.49939L3.44678 4.37244Z" fill="black" stroke="black" stroke-width="0.0959999"/>
<path d="M11.2422 1.8927C11.3005 1.90955 11.3839 1.93918 11.4814 1.97961C11.6031 2.03004 11.7445 2.09426 11.8818 2.16125C12.019 2.22818 12.1518 2.29804 12.2578 2.3595C12.311 2.39029 12.3575 2.41861 12.3936 2.44348C12.4186 2.46074 12.4362 2.47678 12.4492 2.4884C12.4454 2.51278 12.4381 2.54285 12.4219 2.57727C12.4013 2.62083 12.3722 2.66858 12.3398 2.71692C12.3076 2.76507 12.2726 2.8132 12.2393 2.85852C12.2062 2.90342 12.1744 2.94633 12.1504 2.98254C12.07 3.10377 11.8532 3.43657 11.6377 3.76086C11.5305 3.92219 11.4245 4.0799 11.3379 4.2052C11.2643 4.31171 11.2037 4.38965 11.1709 4.42981C11.0781 4.4155 11.0354 4.36567 10.9385 4.29407C10.8596 4.23579 10.7859 4.18826 10.71 4.13684C10.7139 4.11261 10.7205 4.07545 10.7305 4.02649C10.7453 3.95393 10.7664 3.85832 10.791 3.74817C10.8402 3.52796 10.9049 3.24817 10.9707 2.9718C11.0365 2.69547 11.1034 2.4221 11.1562 2.21399C11.1826 2.11007 11.2051 2.02251 11.2227 1.95911C11.2301 1.93231 11.2369 1.90993 11.2422 1.8927Z" fill="black" stroke="black" stroke-width="0.0959999"/>
<path d="M0.245117 7.71851C0.30945 7.71574 0.379792 7.72531 0.453125 7.7439C0.494731 7.75446 0.536492 7.76665 0.578125 7.77905C0.619496 7.79138 0.661238 7.80411 0.701172 7.81421C0.755912 7.82805 0.797146 7.83926 0.828125 7.85034C0.859219 7.86149 0.874844 7.87082 0.882812 7.87866C0.888506 7.88436 0.892117 7.89166 0.892578 7.90601C0.893049 7.92287 0.889389 7.94735 0.878906 7.98511C0.836899 8.13621 0.710919 8.43634 0.606445 9.04272C0.453329 9.93147 0.495952 10.446 0.495117 10.7185C0.494907 10.7867 0.491484 10.8359 0.483398 10.8718C0.475459 10.9069 0.464262 10.9239 0.451172 10.9333C0.436901 10.9436 0.41216 10.9515 0.366211 10.9519C0.325554 10.9522 0.273257 10.946 0.205078 10.9353C0.179633 10.8806 0.154142 10.786 0.133789 10.6609C0.11133 10.5228 0.0940966 10.3562 0.0810547 10.1853C0.0549639 9.84338 0.0464974 9.48793 0.0488281 9.31812C0.0514049 9.13092 0.0708952 8.78818 0.106445 8.45874C0.124205 8.29419 0.145635 8.13362 0.170898 7.9978C0.193142 7.87826 0.219454 7.78193 0.245117 7.71851Z" fill="black" stroke="black" stroke-width="0.0959999"/>
<path d="M8.32666 1.31665C8.60857 1.30412 9.16013 1.37159 9.48291 1.41333C9.46014 1.47308 9.43225 1.53776 9.39893 1.60278C9.35662 1.68531 9.30631 1.77502 9.26807 1.85181V1.85278L8.5708 3.27954L8.14697 3.19946C8.14628 3.19691 8.14574 3.19388 8.14502 3.19067C8.14168 3.17581 8.13863 3.15661 8.13623 3.13306C8.1314 3.08557 8.12878 3.02355 8.12842 2.95142C8.12771 2.80739 8.13567 2.62542 8.146 2.43872C8.16649 2.06816 8.19835 1.67511 8.20166 1.54126C8.20274 1.49747 8.20143 1.4518 8.20166 1.4231C8.20194 1.39087 8.20451 1.37114 8.20947 1.35767C8.21333 1.34738 8.21913 1.33982 8.23291 1.33325C8.24954 1.32542 8.2781 1.31884 8.32666 1.31665Z" fill="black" stroke="black" stroke-width="0.0959999"/>
<path d="M7.49015 9V10M7.95229 9.18182H7.42053C7.309 9.18182 7.20204 9.19858 7.12317 9.22841C7.04431 9.25825 7 9.29114 7 9.33333C7 9.37553 7.04431 9.42357 7.12317 9.4534C7.20204 9.48324 7.309 9.5 7.42053 9.5H7.64634C7.75787 9.5 7.79796 9.52572 7.87683 9.55556C7.95569 9.58539 8 9.62586 8 9.66805C8 9.71024 7.95569 9.75071 7.87683 9.78054C7.79796 9.81038 7.75787 9.81818 7.64634 9.81818H7.00972" stroke="white" stroke-width="0.25" stroke-linecap="round" stroke-linejoin="round"/>
</svg>
