<svg width="14" height="14" viewBox="0 0 14 14" fill="none" xmlns="http://www.w3.org/2000/svg">
<path d="M0.0274525 12.6012C-0.0670277 12.8899 0.09041 13.2005 0.379099 13.295C0.667789 13.3895 0.978409 13.232 1.07289 12.9433L0.550171 12.7723L0.0274525 12.6012ZM10.9968 0.229049C10.8195 -0.017606 10.4758 -0.0738429 10.2292 0.10344L6.20969 2.99244C5.96304 3.16972 5.9068 3.51339 6.08409 3.76005C6.26137 4.0067 6.60504 4.06294 6.85169 3.88566L10.4246 1.31766L12.9926 4.89052C13.1698 5.13718 13.5135 5.19342 13.7602 5.01613C14.0068 4.83885 14.0631 4.49518 13.8858 4.24853L10.9968 0.229049ZM9.02045 9.89835L8.47767 9.80953L9.02045 9.89835ZM7.09296 6.09338L6.5556 6.21062L7.09296 6.09338ZM2.02217 8.27449L1.49945 8.10342L2.02217 8.27449ZM3.07817 8.27449L2.55545 8.44556L3.07817 8.27449ZM0.550171 12.7723L1.07289 12.9433L2.54489 8.44556L2.02217 8.27449L1.49945 8.10342L0.0274525 12.6012L0.550171 12.7723ZM3.07817 8.27449L2.55545 8.44556L3.3921 11.002L3.91482 10.8309L4.43754 10.6598L3.60089 8.10342L3.07817 8.27449ZM4.9856 10.7765L5.52296 10.8938L6.54474 6.21062L6.00738 6.09337L5.47003 5.97613L4.44824 10.6593L4.9856 10.7765ZM7.09296 6.09338L6.5556 6.21062L7.39204 10.0443L7.9294 9.92706L8.46676 9.80982L7.63032 5.97613L7.09296 6.09338ZM9.02045 9.89835L9.56323 9.98717L11.093 0.638868L10.5502 0.550049L10.0074 0.46123L8.47767 9.80953L9.02045 9.89835ZM7.9294 9.92706L7.39204 10.0443C7.65199 11.2357 9.3663 11.1906 9.56323 9.98717L9.02045 9.89835L8.47767 9.80953C8.47661 9.81599 8.47544 9.81971 8.4749 9.82123C8.47437 9.82273 8.47424 9.8227 8.47486 9.82163C8.47639 9.81899 8.47901 9.8159 8.48183 9.81363C8.48428 9.81166 8.48509 9.81172 8.48312 9.81242C8.48099 9.81317 8.47721 9.81406 8.47233 9.81419C8.46745 9.81432 8.46362 9.81362 8.46146 9.81299C8.45946 9.8124 8.46027 9.81229 8.46281 9.81413C8.46576 9.81625 8.46853 9.81919 8.47019 9.82175C8.47087 9.82279 8.47074 9.82282 8.47013 9.82135C8.46952 9.81987 8.46815 9.81622 8.46676 9.80982L7.9294 9.92706ZM6.00738 6.09337L6.54474 6.21062C6.54602 6.20476 6.54726 6.20142 6.54782 6.20006C6.54837 6.19872 6.5485 6.19874 6.54789 6.19968C6.54641 6.20198 6.54395 6.20466 6.54134 6.2066C6.53909 6.20828 6.5384 6.20818 6.54023 6.2076C6.54221 6.20696 6.54571 6.20625 6.55017 6.20625C6.55463 6.20625 6.55813 6.20696 6.56011 6.2076C6.56194 6.20818 6.56125 6.20828 6.559 6.2066C6.5564 6.20466 6.55394 6.20198 6.55245 6.19968C6.55185 6.19874 6.55197 6.19872 6.55252 6.20006C6.55308 6.20142 6.55432 6.20476 6.5556 6.21062L7.09296 6.09338L7.63032 5.97613C7.37726 4.81629 5.72309 4.81628 5.47003 5.97613L6.00738 6.09337ZM3.91482 10.8309L3.3921 11.002C3.74255 12.0728 5.28278 11.9946 5.52296 10.8938L4.9856 10.7765L4.44824 10.6593C4.44622 10.6686 4.44431 10.6706 4.44559 10.6686C4.44676 10.6667 4.4487 10.6645 4.45073 10.6629C4.45249 10.6615 4.45299 10.6616 4.45144 10.6621C4.44977 10.6627 4.44685 10.6635 4.4431 10.6637C4.43935 10.6639 4.43637 10.6634 4.43464 10.663C4.43304 10.6626 4.43353 10.6624 4.43542 10.6636C4.43761 10.665 4.43976 10.667 4.44111 10.6688C4.44259 10.6707 4.44049 10.6689 4.43754 10.6598L3.91482 10.8309ZM2.02217 8.27449L2.54489 8.44556C2.54735 8.43805 2.54907 8.43647 2.54791 8.43802C2.54685 8.43942 2.54518 8.44103 2.54349 8.44218C2.54203 8.44317 2.54171 8.44305 2.54307 8.44265C2.54453 8.44221 2.54703 8.44173 2.55017 8.44173C2.55332 8.44173 2.55581 8.44221 2.55728 8.44265C2.55864 8.44305 2.55831 8.44317 2.55685 8.44218C2.55516 8.44103 2.55349 8.43942 2.55243 8.43802C2.55127 8.43647 2.55299 8.43805 2.55545 8.44556L3.07817 8.27449L3.60089 8.10342C3.26851 7.08783 1.83182 7.08784 1.49945 8.10342L2.02217 8.27449Z" fill="currentColor"/>
</svg>
