<svg width="17" height="10" viewBox="0 0 17 10" fill="none" xmlns="http://www.w3.org/2000/svg">
<path d="M3.11169 3.2334C3.53911 2.07772 5.21792 1.98557 5.74548 3.17871C5.94978 3.64084 5.85038 4.24922 5.5033 4.62402C5.47835 4.65093 5.45903 4.66673 5.43494 4.6875C5.41035 4.70871 5.3833 4.7336 5.34705 4.77539L5.33533 4.78906V4.82812L5.35095 4.84277C5.35476 4.84628 5.36216 4.8534 5.37244 4.86133C5.38302 4.86948 5.3972 4.87842 5.41833 4.89062C5.78217 5.10076 5.96483 5.06665 6.45544 5.58008C6.74767 5.88596 6.98151 6.24115 7.12048 6.75684C7.18669 7.00246 7.21802 7.17337 7.21716 7.29199C7.21627 7.4085 7.18414 7.46458 7.13318 7.49707C7.07591 7.53346 6.98407 7.54813 6.84314 7.55078C6.70177 7.55344 6.53139 7.54492 6.31384 7.54492H2.55212C2.33356 7.54492 2.16072 7.5516 2.02185 7.54688C1.88195 7.54211 1.79216 7.52544 1.73767 7.4873C1.68882 7.45299 1.65909 7.39417 1.66052 7.27539C1.66198 7.15502 1.69534 6.98351 1.76208 6.73926C1.94582 6.06686 2.37879 5.51283 2.9115 5.17285C2.99913 5.11695 3.09958 5.05297 3.20837 5C3.2592 4.97528 3.31433 4.95597 3.37244 4.93359C3.42881 4.91188 3.48807 4.88772 3.53748 4.85352L3.58826 4.81738L3.54041 4.77734C3.18339 4.47674 2.86343 3.90471 3.11169 3.2334ZM6.05408 5.69727C5.07931 4.90895 4.06916 4.97287 3.31384 5.38086C2.93743 5.58427 2.62356 5.87255 2.40857 6.18359C2.19403 6.49406 2.07504 6.8312 2.09412 7.12988L2.09705 7.1748H2.14197L6.74548 7.16992H6.79431V7.12207C6.79179 6.85009 6.66751 6.54399 6.51697 6.28418C6.3664 6.02439 6.18379 5.80225 6.05408 5.69727ZM5.04138 2.86914C4.83426 2.71709 4.55887 2.648 4.23376 2.7207C3.89545 2.79645 3.66714 2.97331 3.53845 3.19531C3.41031 3.41659 3.38312 3.67909 3.43884 3.92188C3.55048 4.40749 3.99714 4.82615 4.64783 4.69727C4.98062 4.63127 5.20647 4.4564 5.33435 4.2334C5.4616 4.01147 5.49036 3.74497 5.43689 3.49805C5.38339 3.2514 5.24729 3.02043 5.04138 2.86914Z" fill="currentColor" stroke="currentColor" stroke-width="0.0959999"/>
<path d="M13.6661 2.65491C13.9811 2.65483 14.9843 2.50476 14.8566 2.95959C14.794 3.18164 14.4607 3.1241 14.2531 3.12366L9.5929 3.12463C9.25645 3.12652 9.08571 3.13529 9.14368 2.76233C9.36478 2.60348 9.46024 2.6547 9.76575 2.65491H13.6661Z" fill="currentColor"/>
<path d="M13.6661 2.65491C13.9811 2.65483 14.9843 2.50476 14.8566 2.95959C14.794 3.18164 14.4607 3.1241 14.2531 3.12366L9.5929 3.12463C9.25645 3.12652 9.08571 3.13529 9.14368 2.76233C9.36478 2.60348 9.46024 2.6547 9.76575 2.65491H13.6661Z" stroke="currentColor"/>
<path d="M9.1239 5.07227C9.10239 4.70128 9.78816 4.81538 10.3866 4.81543H14.287C14.532 4.81485 14.8222 4.77445 14.8612 5.01465C14.9236 5.39982 14.1929 5.28418 13.5966 5.28418H9.69617C9.4463 5.28502 9.13785 5.3297 9.12292 5.07227H9.1239Z" fill="currentColor"/>
<path d="M9.1239 5.07227C9.10239 4.70128 9.78816 4.81538 10.3866 4.81543H14.287C14.532 4.81485 14.8222 4.77445 14.8612 5.01465C14.9236 5.39982 14.1929 5.28418 13.5966 5.28418H9.69617C9.4463 5.28502 9.13785 5.3297 9.12292 5.07227H9.1239Z" stroke="currentColor"/>
<path d="M9.12329 7.23474C9.09498 6.8633 9.82423 6.97497 10.387 6.97498H14.2874C14.5323 6.9744 14.8258 6.93335 14.8616 7.17615C14.918 7.55943 14.2001 7.44373 13.5969 7.44373H9.69653C9.44819 7.44452 9.14291 7.48886 9.12329 7.23474Z" fill="currentColor"/>
<path d="M9.12329 7.23474C9.09498 6.8633 9.82423 6.97497 10.387 6.97498H14.2874C14.5323 6.9744 14.8258 6.93335 14.8616 7.17615C14.918 7.55943 14.2001 7.44373 13.5969 7.44373H9.69653C9.44819 7.44452 9.14291 7.48886 9.12329 7.23474Z" stroke="currentColor"/>
<rect x="0.375" y="0.375" width="16.25" height="9.25" rx="0.625" stroke="currentColor" stroke-width="0.75"/>
</svg>
