<svg width="17" height="17" viewBox="0 0 17 17" fill="none" xmlns="http://www.w3.org/2000/svg">
<path d="M11.9 15.4H4.90002C2.10002 15.4 1.40002 14.7 1.40002 11.9V10.5C1.40002 7.7 2.10002 7 4.90002 7H11.9C14.7 7 15.4 7.7 15.4 10.5V11.9C15.4 14.7 14.7 15.4 11.9 15.4Z" stroke="#083C83" stroke-width="1.2" stroke-linecap="round" stroke-linejoin="round"/>
<path d="M4.19995 7.00002V5.60002C4.19995 3.28302 4.89995 1.40002 8.39995 1.40002C11.55 1.40002 12.6 2.80002 12.6 4.90002" stroke="#083C83" stroke-width="1.2" stroke-linecap="round" stroke-linejoin="round"/>
<path d="M8.40002 12.95C9.36652 12.95 10.15 12.1664 10.15 11.2C10.15 10.2335 9.36652 9.44995 8.40002 9.44995C7.43353 9.44995 6.65002 10.2335 6.65002 11.2C6.65002 12.1664 7.43353 12.95 8.40002 12.95Z" stroke="#083C83" stroke-width="1.2" stroke-linecap="round" stroke-linejoin="round"/>
</svg>
