<svg xmlns="http://www.w3.org/2000/svg" width="74" height="74" viewBox="0 0 74 74" fill="none">
  <path d="M62.6999 40.8023L66.7921 36.7082C75.1638 28.3383 75.1488 14.695 66.7584 6.30454C58.368 -2.08589 44.7246 -2.10461 36.3511 6.2671L32.2588 10.3594C29.9 8.12415 26.1859 8.14662 23.8777 10.453L1.75784 32.5728C1.4789 32.8518 1.22992 33.1551 1.0109 33.4845C0.791868 33.8121 0.606537 34.1585 0.456775 34.5235C0.305141 34.8885 0.190947 35.2648 0.116066 35.6523C0.0393127 36.038 0 36.4292 0 36.8242C0.00187191 37.2192 0.0393124 37.6105 0.117937 37.998C0.194691 38.3855 0.308885 38.7618 0.460519 39.1268C0.612153 39.4937 0.797484 39.8401 1.01838 40.1677C1.23741 40.4971 1.48826 40.8004 1.7672 41.0812L31.9799 71.2939C32.2607 71.5728 32.5639 71.8237 32.8934 72.0427C33.221 72.2636 33.5673 72.4489 33.9343 72.6006C34.2993 72.7522 34.6756 72.8664 35.0631 72.9431C35.4506 73.0218 35.8419 73.0611 36.2369 73.0611C36.6319 73.0611 37.0231 73.0236 37.4087 72.9469C37.7963 72.8701 38.1725 72.7559 38.5376 72.6062C38.9026 72.4545 39.249 72.2692 39.5766 72.0502C39.906 71.8312 40.2093 71.5822 40.4882 71.3032L62.6081 49.1834C64.9163 46.877 64.9369 43.161 62.6999 40.8023ZM38.7229 41.3059C38.5732 41.4182 38.1987 41.6447 38.1688 41.6615C37.01 42.2999 35.6509 42.416 34.3948 42.0584L29.9468 49.2414C29.9057 49.32 29.857 49.3949 29.799 49.4623C29.7428 49.5316 29.6773 49.5915 29.6061 49.6458C29.5331 49.6982 29.4564 49.7431 29.374 49.7768C29.2916 49.8124 29.2074 49.8367 29.1194 49.8517C29.0314 49.8685 28.9416 49.8723 28.8536 49.8666C28.7637 49.861 28.6757 49.8442 28.5915 49.818C28.5054 49.7918 28.423 49.7562 28.3463 49.7113C28.2695 49.6663 28.1984 49.6121 28.1328 49.5503L23.6025 45.02C23.5408 44.9563 23.4883 44.8852 23.4434 44.8084C23.3966 44.7298 23.361 44.6493 23.3348 44.5632C23.3086 44.479 23.2937 44.391 23.288 44.3011C23.2824 44.2113 23.2862 44.1233 23.3011 44.0353C23.3161 43.9473 23.3423 43.8612 23.3779 43.7807C23.4116 43.6983 23.4565 43.6216 23.5089 43.5486C23.5632 43.4774 23.6231 43.4119 23.6924 43.3557C23.7598 43.2977 23.8347 43.249 23.9133 43.2078L31.0027 38.6682C30.6451 37.4102 30.7612 36.0511 31.4014 34.8942C31.4164 34.8642 31.6429 34.4879 31.7552 34.3382C31.8938 34.151 32.0454 33.9769 32.2101 33.8121C32.4404 33.5819 32.6912 33.3759 32.9627 33.1944C33.2341 33.0128 33.5205 32.8611 33.8219 32.7357C34.1233 32.6103 34.4341 32.5167 34.7542 32.453C35.0743 32.3894 35.3982 32.3576 35.7239 32.3594C36.0515 32.3594 36.3735 32.3913 36.6936 32.4549C37.0156 32.5186 37.3264 32.614 37.6278 32.7395C37.9292 32.8649 38.2156 33.0184 38.4889 33.2C38.7604 33.3816 39.0112 33.5875 39.2433 33.8196C39.4736 34.0499 39.6795 34.3007 39.8611 34.574C40.0427 34.8455 40.1962 35.1319 40.3216 35.4333C40.4471 35.7347 40.5425 36.0473 40.6062 36.3675C40.6698 36.6876 40.7016 37.0114 40.7035 37.3372C40.7035 37.6648 40.6717 37.9868 40.608 38.3069C40.5444 38.627 40.4508 38.9377 40.3254 39.2391C40.2018 39.5424 40.0483 39.8288 39.8667 40.0984C39.6851 40.3699 39.4792 40.6207 39.249 40.851C39.0842 41.0157 38.9101 41.1673 38.7229 41.3059ZM57.5143 35.5924L37.4687 15.5449L41.5478 11.4657C47.0647 5.94886 56.0467 5.95822 61.5766 11.4882C67.1047 17.0182 67.1122 25.9964 61.5954 31.5114L57.5143 35.5924Z" fill="black"/>
</svg>