<svg width="117" height="25" viewBox="0 0 117 25" fill="none" xmlns="http://www.w3.org/2000/svg">
<path d="M44.9013 2.86694H49.161L56.4067 15.972L63.6524 2.86694H67.8173V24.3966H64.3397V7.89686L57.9886 19.3193H54.7301L48.379 7.89686V24.3966H44.9013V2.86694Z" fill="#0A2540"/>
<path d="M79.0318 24.782C77.4203 24.782 76.0044 24.4265 74.7839 23.7156C73.5635 22.9987 72.6156 22.0152 71.9342 20.7533C71.247 19.4914 70.9093 18.0458 70.9093 16.4166C70.9093 14.7636 71.2411 13.3062 71.9105 12.0324C72.5741 10.7586 73.4983 9.76925 74.6832 9.04646C75.8681 8.32959 77.2308 7.97412 78.7652 7.97412C80.2937 7.97412 81.609 8.33552 82.7109 9.05831C83.8129 9.7811 84.666 10.7942 85.2585 12.0917C85.8509 13.3951 86.1472 14.9236 86.1472 16.6772V17.6311H74.3514C74.5707 18.9404 75.0979 19.9772 75.9451 20.7296C76.7923 21.482 77.8588 21.8612 79.1503 21.8612C80.1871 21.8612 81.0817 21.7072 81.8282 21.3991C82.5747 21.091 83.2797 20.623 83.9373 20.0009L85.7798 22.2581C83.9432 23.9407 81.6919 24.782 79.0318 24.782ZM81.5675 12.0087C80.8388 11.2682 79.8849 10.8949 78.706 10.8949C77.5566 10.8949 76.5968 11.2741 75.8207 12.0324C75.0505 12.7908 74.5588 13.8098 74.3514 15.0954H82.8117C82.7109 13.7801 82.2962 12.7552 81.5675 12.0087Z" fill="#0A2540"/>
<path d="M90.366 11.2027H87.1667V8.35892H90.366V3.64893H93.7193V8.35892H98.5774V11.2027H93.7193V18.4128C93.7193 19.6155 93.9207 20.4686 94.3354 20.9841C94.7442 21.4936 95.4433 21.7543 96.4386 21.7543C96.883 21.7543 97.2562 21.7365 97.5643 21.7009C97.8724 21.6595 98.2101 21.6121 98.5774 21.5528V24.367C98.1567 24.4914 97.7302 24.5802 97.2918 24.6454C96.7941 24.7165 96.2964 24.7521 95.7928 24.7521C92.173 24.7521 90.366 22.7733 90.366 18.8157V11.2027Z" fill="#0A2540"/>
<path d="M116.049 24.3969H112.761V22.1515C112.174 22.9928 111.434 23.6385 110.527 24.0947C109.627 24.5509 108.602 24.782 107.452 24.782C106.036 24.782 104.786 24.4206 103.69 23.6978C102.6 22.975 101.741 21.9797 101.119 20.7118C100.491 19.4499 100.177 17.9984 100.177 16.3692C100.177 14.7281 100.497 13.2766 101.131 12.0146C101.765 10.7527 102.648 9.76333 103.767 9.04646C104.893 8.32959 106.179 7.97412 107.636 7.97412C108.732 7.97412 109.721 8.1874 110.592 8.60804C111.463 9.03461 112.186 9.63299 112.761 10.415V8.35921H116.049V24.3969ZM112.696 13.9697C112.34 13.0574 111.771 12.3346 110.995 11.8073C110.225 11.28 109.33 11.0193 108.311 11.0193C106.878 11.0193 105.734 11.4992 104.887 12.4649C104.034 13.4247 103.607 14.7281 103.607 16.3692C103.607 18.0221 104.016 19.3255 104.84 20.2912C105.657 21.2569 106.771 21.7368 108.175 21.7368C109.212 21.7368 110.136 21.4702 110.942 20.937C111.754 20.4038 112.34 19.6869 112.696 18.7864V13.9697Z" fill="#0A2540"/>
<path d="M26.8203 0C23.7514 0 21.3579 2.28686 19.1895 5.18988C16.2095 1.43373 13.7212 0 10.7352 0C4.65667 0 0 7.83814 0 16.1384C0 21.3283 2.5357 24.6045 6.77765 24.6045C9.8347 24.6045 12.0327 23.1767 15.9429 16.4109C15.9429 16.4109 17.5721 13.5612 18.6919 11.5943C19.0829 12.2223 19.4976 12.8977 19.936 13.6264L21.7667 16.6775C25.3332 22.602 27.3239 24.6045 30.926 24.6045C35.0672 24.6045 37.3659 21.2868 37.3659 15.9844C37.3659 7.29901 32.6026 0 26.8203 0ZM12.9628 14.5743C9.79323 19.4976 8.69719 20.5996 6.93169 20.5996C5.11878 20.5996 4.04052 19.0236 4.04052 16.2036C4.04052 10.1783 7.07388 4.02275 10.6819 4.02275C12.6429 4.02275 14.2781 5.14248 16.7842 8.69127C14.4025 12.3111 12.9628 14.5743 12.9628 14.5743ZM24.9185 13.9582L22.7324 10.3383C22.134 9.37851 21.5652 8.50168 21.0202 7.69595C22.9931 4.67444 24.6223 3.16962 26.5596 3.16962C30.5883 3.16962 33.8053 9.04674 33.8053 16.2569C33.8053 19.0059 32.8989 20.5996 31.0149 20.5996C29.2079 20.5996 28.3488 19.4206 24.9185 13.9582Z" fill="#0A2540"/>
</svg>
