<svg width="126" height="27" viewBox="0 0 126 27" fill="none" xmlns="http://www.w3.org/2000/svg">
<mask id="mask0_42_12641" style="mask-type:luminance" maskUnits="userSpaceOnUse" x="34" y="3" width="92" height="20">
<path d="M34.4495 3.22241H125.62V22.1365H34.4495V3.22241Z" fill="white"/>
</mask>
<g mask="url(#mask0_42_12641)">
<path d="M44.3604 15.4213L43.6094 17.5367H43.5471C43.4226 17.0584 43.1969 16.3352 42.8233 15.4641L38.8152 5.39654H34.8889V21.4409H37.4844V11.5405C37.4844 10.9183 37.4844 10.2106 37.4649 9.33958C37.4416 8.90405 37.4027 8.57352 37.3793 8.32465H37.4416C37.5661 8.94683 37.714 9.40179 37.8151 9.69344L42.6365 21.3981H44.4616L49.2401 9.58845C49.3413 9.32013 49.4464 8.77962 49.5514 8.32465H49.6137C49.5514 9.50679 49.5086 10.5645 49.4892 11.2061V21.3787H52.252V5.35376H48.4696L44.3604 15.4213ZM54.867 9.88009H57.5676V21.3787H54.867V9.88009ZM56.2368 5.02323C55.7815 5.02323 55.4079 5.19044 55.0966 5.4782C54.7853 5.76984 54.618 6.14315 54.618 6.602C54.618 7.03753 54.7853 7.41083 55.0966 7.69859C55.4079 7.99023 55.7815 8.138 56.2368 8.138C56.696 8.138 57.089 7.97079 57.3808 7.69859C57.6921 7.41083 57.8595 7.03753 57.8595 6.602C57.8595 6.16648 57.6921 5.78929 57.3808 5.4782C57.1123 5.19044 56.7154 5.02323 56.2368 5.02323ZM67.1403 9.7751C66.6422 9.67011 66.1247 9.60789 65.6266 9.60789C64.4008 9.60789 63.2801 9.88009 62.3423 10.4206C61.4084 10.9572 60.6612 11.7077 60.1826 12.641C59.6845 13.5937 59.4355 14.6942 59.4355 15.9619C59.4355 17.0584 59.6845 18.0345 60.1631 18.9289C60.6418 19.7999 61.3072 20.5037 62.1983 20.982C63.0505 21.4603 64.0467 21.7092 65.1674 21.7092C66.4554 21.7092 67.5567 21.4409 68.4284 20.9393L68.4478 20.9198V18.4311L68.3466 18.5128C67.9497 18.8044 67.4944 19.0533 67.0391 19.1972C66.5605 19.3644 66.1247 19.446 65.7511 19.446C64.6693 19.446 63.8171 19.135 63.2178 18.4506C62.5913 17.7856 62.28 16.8718 62.28 15.7324C62.28 14.5503 62.5913 13.617 63.2373 12.9288C63.8794 12.2444 64.7316 11.8944 65.7706 11.8944C66.6422 11.8944 67.5372 12.1821 68.3466 12.7654L68.4478 12.8471V10.2106L68.4284 10.1912C68.0742 10.0473 67.6812 9.88009 67.1403 9.7751ZM76.0515 9.69344C75.3861 9.69344 74.7635 9.89953 74.2226 10.3351C73.7673 10.7084 73.456 11.2489 73.1836 11.8944H73.1641V9.88009H70.4635V21.3787H73.1641V15.503C73.1641 14.5075 73.3704 13.6792 73.8295 13.0765C74.2848 12.4543 74.8685 12.1433 75.5729 12.1433C75.8219 12.1433 76.071 12.2055 76.3823 12.2444C76.6741 12.3299 76.8804 12.4116 77.0282 12.5166L77.1294 12.5982V9.89953L77.0671 9.88009C76.8804 9.75566 76.5068 9.69344 76.0515 9.69344ZM83.4023 9.63122C81.5111 9.63122 79.9973 10.1912 78.9389 11.2917C77.8571 12.3921 77.3395 13.9048 77.3395 15.8141C77.3395 17.599 77.8765 19.0533 78.9155 20.111C79.9545 21.1492 81.3671 21.6898 83.1338 21.6898C84.9821 21.6898 86.457 21.1298 87.5154 20.006C88.5933 18.8861 89.1147 17.3929 89.1147 15.5458C89.1147 13.7181 88.6167 12.2677 87.5971 11.2061C86.6204 10.1484 85.1884 9.63122 83.4023 9.63122ZM85.562 18.47C85.0639 19.1155 84.2739 19.4266 83.2972 19.4266C82.3244 19.4266 81.5344 19.1155 80.9741 18.4311C80.4137 17.7856 80.1413 16.8523 80.1413 15.6702C80.1413 14.4453 80.4332 13.512 80.9741 12.8471C81.5344 12.1821 82.301 11.8516 83.2777 11.8516C84.235 11.8516 84.9821 12.1627 85.5191 12.8043C86.06 13.4498 86.3519 14.3831 86.3519 15.608C86.3091 16.8523 86.0834 17.8284 85.562 18.47ZM95.1385 14.6514C94.2863 14.3014 93.7454 14.0292 93.4964 13.8037C93.2902 13.5937 93.1851 13.3021 93.1851 12.9288C93.1851 12.6177 93.3096 12.3066 93.6209 12.1005C93.9322 11.8944 94.2863 11.7894 94.8039 11.7894C95.2631 11.7894 95.7378 11.8711 96.197 11.9955C96.6523 12.1199 97.0687 12.3066 97.3994 12.5554L97.5045 12.641V10.1095L97.4422 10.0862C97.1309 9.96175 96.7145 9.83732 96.2165 9.73621C95.7184 9.65066 95.2631 9.60789 94.8856 9.60789C93.6015 9.60789 92.5391 9.92287 91.7103 10.6073C90.8775 11.2489 90.4845 12.1199 90.4845 13.1387C90.4845 13.6792 90.5662 14.1537 90.753 14.5503C90.9398 14.943 91.2122 15.3163 91.5858 15.6274C91.9593 15.9191 92.5002 16.2496 93.2474 16.5607C93.87 16.8329 94.3486 17.039 94.6366 17.2062C94.9284 17.3734 95.1152 17.5601 95.2631 17.7039C95.3643 17.8712 95.4265 18.0773 95.4265 18.3456C95.4265 19.1155 94.8467 19.4888 93.6637 19.4888C93.2046 19.4888 92.7259 19.4072 92.1656 19.2205C91.6052 19.03 91.0877 18.7616 90.6518 18.4506L90.5468 18.3689V21.0015L90.609 21.0248C91.0021 21.2115 91.4807 21.3359 92.0644 21.4798C92.6442 21.5848 93.1617 21.6664 93.6209 21.6664C95.0101 21.6664 96.1542 21.3553 96.9636 20.6709C97.7963 20.006 98.2322 19.1544 98.2322 18.0578C98.2322 17.2879 98.022 16.6035 97.5667 16.0863C96.9636 15.5886 96.2165 15.0675 95.1385 14.6514ZM105.353 9.63122C103.466 9.63122 101.948 10.1912 100.89 11.2917C99.8315 12.3921 99.2906 13.9048 99.2906 15.8141C99.2906 17.599 99.8315 19.0533 100.871 20.111C101.906 21.1492 103.318 21.6898 105.085 21.6898C106.933 21.6898 108.408 21.1298 109.466 20.006C110.548 18.8861 111.066 17.3929 111.066 15.5458C111.066 13.7181 110.568 12.2677 109.548 11.2061C108.575 10.1484 107.139 9.63122 105.353 9.63122ZM107.494 18.47C106.995 19.1155 106.206 19.4266 105.229 19.4266C104.233 19.4266 103.466 19.1155 102.906 18.4311C102.341 17.7856 102.073 16.8523 102.073 15.6702C102.073 14.4453 102.365 13.512 102.906 12.8471C103.466 12.1821 104.233 11.8516 105.209 11.8516C106.143 11.8516 106.914 12.1627 107.451 12.8043C107.992 13.4498 108.284 14.3831 108.284 15.608C108.284 16.8523 108.011 17.8284 107.494 18.47ZM125.499 12.1005V9.88009H122.779V6.47757L122.697 6.49701L120.121 7.26307L120.059 7.2864V9.88009H115.988V8.42576C115.988 7.76081 116.156 7.24362 116.444 6.91309C116.736 6.57867 117.171 6.41535 117.712 6.41535C118.086 6.41535 118.479 6.49701 118.915 6.68366L119.02 6.74588V4.40106L118.957 4.38162C118.584 4.25718 118.086 4.17163 117.44 4.17163C116.63 4.17163 115.926 4.35828 115.28 4.66937C114.638 5.02323 114.159 5.50153 113.805 6.14315C113.455 6.76532 113.268 7.47305 113.268 8.28188V9.88009H111.377V12.081H113.268V21.3787H115.988V12.1005H120.059V18.015C120.059 20.4415 121.199 21.6664 123.483 21.6664C123.861 21.6664 124.254 21.6042 124.627 21.542C125.02 21.4603 125.312 21.3553 125.479 21.2737L125.499 21.2542V19.03L125.394 19.1155C125.23 19.2205 125.082 19.3022 124.833 19.3644C124.627 19.4266 124.44 19.446 124.296 19.446C123.756 19.446 123.382 19.3216 123.11 19.0105C122.86 18.7189 122.736 18.2445 122.736 17.5367V12.1005H125.499Z" fill="#0A2540"/>
</g>
<mask id="mask1_42_12641" style="mask-type:luminance" maskUnits="userSpaceOnUse" x="-1" y="0" width="15" height="14">
<path d="M-0.000183105 0H13.53V13.1785H-0.000183105V0Z" fill="white"/>
</mask>
<g mask="url(#mask1_42_12641)">
<path d="M0.0814819 0H12.814V12.7235H0.0814819V0Z" fill="#0A2540"/>
</g>
<mask id="mask2_42_12641" style="mask-type:luminance" maskUnits="userSpaceOnUse" x="13" y="0" width="15" height="14">
<path d="M13.529 0H27.4756V13.1785H13.529V0Z" fill="white"/>
</mask>
<g mask="url(#mask2_42_12641)">
<path d="M14.1411 -0.000732422H26.8735V12.7228H14.1411V-0.000732422Z" fill="#0A2540"/>
</g>
<mask id="mask3_42_12641" style="mask-type:luminance" maskUnits="userSpaceOnUse" x="-1" y="13" width="15" height="14">
<path d="M-0.000183105 13.1777H13.53V26.5856H-0.000183105V13.1777Z" fill="white"/>
</mask>
<g mask="url(#mask3_42_12641)">
<path d="M0.0814819 14.0527H12.814V26.7723H0.0814819V14.0527Z" fill="#0A2540"/>
</g>
<mask id="mask4_42_12641" style="mask-type:luminance" maskUnits="userSpaceOnUse" x="13" y="13" width="15" height="14">
<path d="M13.529 13.178H27.4756V26.5859H13.529V13.178Z" fill="white"/>
</mask>
<g mask="url(#mask4_42_12641)">
<path d="M14.1411 14.0527H26.8735V26.7723H14.1411V14.0527Z" fill="#0A2540"/>
</g>
</svg>
