<svg width="20" height="20" viewBox="0 0 20 20" fill="none" xmlns="http://www.w3.org/2000/svg">
  <path d="M10 2.5C7.1 2.5 4.75 4.85 4.75 7.75V10.35C4.75 10.9 4.525 11.7 4.25 12.175L3.225 13.9C2.6 14.975 3.05 16.175 4.225 16.575C8 17.775 12.0083 17.775 15.7833 16.575C16.8833 16.2 17.3667 14.9 16.7833 13.9L15.7583 12.175C15.4833 11.7 15.2583 10.9 15.2583 10.35V7.75C15.25 4.8667 12.8833 2.5 10 2.5Z" stroke="#666666" stroke-width="1.25" stroke-miterlimit="10" stroke-linecap="round"/>
  <path d="M11.5 2.75C11.25 2.675 10.9917 2.61667 10.725 2.58333C9.95833 2.48333 9.225 2.54167 8.54167 2.75C8.775 2.16667 9.34167 1.75 10.0167 1.75C10.6917 1.75 11.2583 2.16667 11.5 2.75Z" stroke="#666666" stroke-width="1.25" stroke-miterlimit="10" stroke-linecap="round" stroke-linejoin="round"/>
  <path d="M12.5 16.875C12.5 18.25 11.375 19.375 10 19.375C9.31667 19.375 8.68333 19.0917 8.225 18.6333C7.76667 18.175 7.5 17.5417 7.5 16.875" stroke="#666666" stroke-width="1.25" stroke-miterlimit="10"/>
</svg>
