<svg width="17" height="11" viewBox="0 0 17 11" fill="none" xmlns="http://www.w3.org/2000/svg">
<path d="M7.85992 0.117188C9.53397 -0.0756559 11.1038 0.135739 12.4781 0.776367L11.2759 2.63867C11.2258 2.71206 11.1417 2.82691 11.065 2.94238C10.9985 3.04249 10.9349 3.15018 10.8941 3.24316C10.7865 3.21447 10.6853 3.17681 10.5845 3.13281C10.4732 3.08417 10.3588 3.02998 10.2388 2.98633C9.3916 2.67802 8.87951 2.64471 7.98785 2.58301L7.85992 0.117188Z" fill="black" stroke="black" stroke-width="0.0959999"/>
<path d="M13.0489 1.07788C13.2524 1.14406 13.5184 1.29689 13.8106 1.50562C14.1174 1.72472 14.45 2.00058 14.7647 2.28784C15.0794 2.57508 15.3762 2.87379 15.6114 3.13745C15.8291 3.38148 15.9893 3.59363 16.0665 3.73804C16.0628 3.74053 16.0593 3.74488 16.0548 3.7478C16.0315 3.76275 16 3.78164 15.962 3.80347C15.8859 3.84721 15.783 3.90257 15.6622 3.96655C15.4201 4.09477 15.1059 4.25535 14.7852 4.41577C14.1713 4.72291 13.5373 5.02716 13.3438 5.10913C13.321 5.09297 13.291 5.0709 13.2559 5.03979C13.2102 4.9992 13.1558 4.94801 13.0938 4.88843C12.9701 4.7694 12.8163 4.61722 12.6417 4.45679C12.3038 4.14624 11.8832 3.79939 11.4415 3.57788C11.5327 3.37506 11.7025 3.12806 11.8292 2.94702L11.8302 2.94507L13.0489 1.07788Z" fill="black" stroke="black" stroke-width="0.0959999"/>
<path d="M16.9366 3.99658L9.30572 8.96143C8.96493 9.18549 8.75592 9.32842 8.62896 9.42725C8.50446 9.52416 8.44962 9.58548 8.42974 9.646C8.41965 9.67681 8.41947 9.7044 8.41998 9.72803C8.42049 9.75212 8.42116 9.77445 8.41705 9.80322C8.40887 9.86001 8.37961 9.94887 8.27251 10.1079C8.09872 10.366 7.85154 10.4708 7.60748 10.4634C7.36166 10.4558 7.11737 10.3341 6.95611 10.1353C6.75081 9.88192 6.70852 9.57879 6.77154 9.30811C6.83492 9.03609 7.00409 8.80052 7.21587 8.68506C7.40909 8.57979 7.55236 8.58481 7.68072 8.60693C7.7134 8.61258 7.74508 8.61876 7.7774 8.62549C7.80962 8.6322 7.84298 8.63931 7.87603 8.64404C7.94249 8.65355 8.01186 8.65573 8.08599 8.63525C8.09883 8.6317 8.11838 8.62236 8.14068 8.61182C8.16436 8.60062 8.19542 8.58592 8.23248 8.56689C8.30686 8.5287 8.40827 8.47473 8.53228 8.40771C8.78043 8.2736 9.12119 8.08623 9.52349 7.86279C10.3281 7.41594 11.3805 6.8256 12.4376 6.23389C13.4947 5.64209 14.5568 5.04811 15.3799 4.59521C15.7912 4.36893 16.1428 4.17791 16.4044 4.03955C16.5352 3.97033 16.644 3.91392 16.7256 3.87354C16.7772 3.84801 16.8173 3.83072 16.8448 3.81885L16.9366 3.99658ZM7.6983 9.19873C7.62614 9.16721 7.54235 9.17143 7.45806 9.22412C7.40755 9.25568 7.33698 9.2973 7.2979 9.36572C7.25578 9.43952 7.25508 9.53342 7.31255 9.65771C7.37822 9.79917 7.55632 9.89446 7.73931 9.78955C7.90368 9.69505 7.914 9.49771 7.85259 9.36084C7.82125 9.291 7.76826 9.22938 7.6983 9.19873Z" fill="black" stroke="black" stroke-width="0.0959999"/>
<path d="M7.23685 0.252686L7.3472 2.6189C6.492 2.70088 5.96596 2.87399 5.55618 3.05835C5.34907 3.15153 5.17099 3.24821 4.99857 3.33472C4.83503 3.41675 4.6739 3.48933 4.49271 3.54761C4.4538 3.49729 4.38813 3.40759 4.31107 3.29175C4.2195 3.15411 4.11103 2.98398 4.00443 2.81323C3.89778 2.64243 3.79372 2.471 3.71243 2.32983C3.67177 2.25922 3.63648 2.19635 3.60989 2.14526C3.592 2.11088 3.57992 2.08231 3.57083 2.06128C3.92679 1.71588 4.67458 1.2426 5.42532 0.86499C5.80832 0.672358 6.19013 0.505749 6.5181 0.394287C6.6821 0.33855 6.83217 0.296474 6.96146 0.272217C7.07129 0.251634 7.16376 0.246842 7.23685 0.252686Z" fill="black" stroke="black" stroke-width="0.0959999"/>
<path d="M3.08301 2.51123C3.2321 2.72275 3.35195 2.94192 3.50781 3.18408C3.63131 3.37596 3.83839 3.68699 3.93652 3.90479C3.87019 3.98262 3.75631 4.0782 3.62891 4.17822C3.4921 4.28562 3.34233 4.39863 3.24316 4.49561C3.01324 4.72039 2.78486 4.90147 2.56836 5.15576C2.27383 5.50179 1.7409 6.16154 1.4834 6.70752C1.35293 6.66902 1.21589 6.59297 1.08008 6.50439C0.946569 6.41731 0.810513 6.31962 0.689453 6.25049C0.732797 5.99791 0.846717 5.68855 1.01074 5.35303C1.18117 5.00442 1.40328 4.63031 1.64648 4.26514C2.11793 3.55726 2.66829 2.88786 3.08301 2.51123Z" fill="black" stroke="black" stroke-width="0.0959999"/>
<path d="M1.13184 7.28503L0.601562 8.58582L0.600586 8.58875C0.497994 8.88233 0.43613 9.10836 0.393555 9.2821C0.350367 9.45835 0.328495 9.57381 0.303711 9.65613C0.27942 9.73673 0.256783 9.76697 0.224609 9.78308C0.206547 9.7921 0.181435 9.79806 0.144531 9.80164C0.118121 9.80419 0.0870799 9.80269 0.0498047 9.80261C0.0446042 9.42394 0.0807997 8.82709 0.15625 8.25574C0.195624 7.95759 0.24446 7.6668 0.303711 7.41882C0.356942 7.1961 0.418758 7.01163 0.484375 6.88562L1.13184 7.28503Z" fill="black" stroke="black" stroke-width="0.0959999"/>
<path d="M7.50933 9.30566C7.56929 9.26816 7.62016 9.2684 7.6607 9.28613C7.7035 9.30489 7.74189 9.34627 7.76617 9.40039C7.81571 9.51119 7.79743 9.64533 7.69195 9.70605C7.56553 9.77848 7.44584 9.7163 7.39996 9.61719C7.35047 9.51009 7.35979 9.45092 7.3814 9.41309C7.40608 9.36989 7.45278 9.34101 7.50933 9.30566Z" fill="black" stroke="black" stroke-width="0.0959999"/>
<path d="M7.61761 9V10M7.96422 9.18182H7.5654C7.48175 9.18182 7.40153 9.19858 7.34238 9.22841C7.28323 9.25825 7.25 9.29114 7.25 9.33333C7.25 9.37553 7.28323 9.42357 7.34238 9.4534C7.40153 9.48324 7.48175 9.5 7.5654 9.5H7.73476C7.81841 9.5 7.84847 9.52572 7.90762 9.55556C7.96677 9.58539 8 9.62586 8 9.66805C8 9.71024 7.96677 9.75071 7.90762 9.78054C7.84847 9.81038 7.81841 9.81818 7.73476 9.81818H7.25729" stroke="white" stroke-width="0.25" stroke-linecap="round" stroke-linejoin="round"/>
</svg>
