<svg
    width="16"
    height="16"
    viewBox="0 0 16 16"
    fill="none"
    xmlns="http://www.w3.org/2000/svg"
>
<path
d="M7.67088 4.12219V11.3666M9.4951 5.43936H7.01561C6.71262 5.43936 6.42203 5.56079 6.20778 5.77693C5.99353 5.99307 5.87317 6.23134 5.87317 6.53701C5.87317 6.84268 5.99353 7.19071 6.20778 7.40685C6.42203 7.62299 6.71262 7.74441 7.01561 7.74441H8.22334C8.52633 7.74441 8.94653 7.93074 9.16078 8.14688C9.37503 8.36302 9.49539 8.65617 9.49539 8.96184C9.49539 9.26751 9.37503 9.56066 9.16078 9.7768C8.94653 9.99294 8.52633 10.0495 8.22334 10.0495H5.89958"
                  stroke="#004A4A"
                  stroke-linecap="round"
                  stroke-linejoin="round"
                />
                <path
                  d="M14.3499 4.84667C13.7859 3.55442 12.8571 2.45484 11.6774 1.68274C10.4976 0.910646 9.11818 0.499599 7.70822 0.5C3.95198 0.5 0.862222 3.35938 0.5 7.02"
                  stroke="#004A4A"
                  stroke-linecap="round"
                  stroke-linejoin="round"
                />
                <path
                  d="M12.0549 4.84669H14.518C14.5751 4.84669 14.6316 4.83545 14.6844 4.8136C14.7371 4.79176 14.785 4.75974 14.8254 4.71938C14.8658 4.67902 14.8978 4.6311 14.9196 4.57836C14.9415 4.52563 14.9527 4.46911 14.9527 4.41202V1.94891M1.10205 10.6422C2.22059 13.201 4.77353 14.9889 7.74376 14.9889C11.5007 14.9889 14.5898 12.1295 14.9527 8.46891"
                  stroke="#004A4A"
                  stroke-linecap="round"
                  stroke-linejoin="round"
                />
                <path
                  d="M3.39778 10.6423H0.934667C0.819386 10.6423 0.708827 10.6881 0.627311 10.7696C0.545795 10.8511 0.5 10.9617 0.5 11.0769V13.5401"
                  stroke="#004A4A"
                  stroke-linecap="round"
                  stroke-linejoin="round"
                />
              </svg>