<svg width="16" height="16" viewBox="0 0 16 16" fill="none" xmlns="http://www.w3.org/2000/svg">
<path d="M7.16768 11.2402V12.5936C7.16768 13.7403 6.10101 14.6669 4.78768 14.6669C3.47435 14.6669 2.401 13.7403 2.401 12.5936V11.2402C2.401 12.3869 3.46768 13.2002 4.78768 13.2002C6.10101 13.2002 7.16768 12.3802 7.16768 11.2402Z" stroke="#171717" stroke-linecap="round" stroke-linejoin="round"/>
<path d="M7.1665 9.40662C7.1665 9.73995 7.07317 10.0466 6.91317 10.3133C6.51983 10.9599 5.71316 11.3666 4.77983 11.3666C3.84649 11.3666 3.03982 10.9533 2.64648 10.3133C2.48648 10.0466 2.39319 9.73995 2.39319 9.40662C2.39319 8.83328 2.65984 8.31995 3.08651 7.94661C3.51984 7.56661 4.11315 7.33997 4.77315 7.33997C5.43315 7.33997 6.02651 7.57328 6.45984 7.94661C6.89984 8.31328 7.1665 8.83328 7.1665 9.40662Z" stroke="#171717" stroke-linecap="round" stroke-linejoin="round"/>
<path d="M7.16768 9.4067V11.24C7.16768 12.3867 6.10101 13.2 4.78768 13.2C3.47435 13.2 2.401 12.38 2.401 11.24V9.4067C2.401 8.26003 3.46768 7.33337 4.78768 7.33337C5.44768 7.33337 6.04103 7.56669 6.47437 7.94002C6.90103 8.31336 7.16768 8.83336 7.16768 9.4067Z" stroke="#171717" stroke-linecap="round" stroke-linejoin="round"/>
<path d="M14.6668 7.31327V8.68665C14.6668 9.05331 14.3735 9.35328 14.0002 9.36662H12.6935C11.9735 9.36662 11.3135 8.83995 11.2535 8.11995C11.2135 7.69995 11.3735 7.30662 11.6535 7.03328C11.9002 6.77995 12.2402 6.6333 12.6135 6.6333H14.0002C14.3735 6.64663 14.6668 6.94661 14.6668 7.31327Z" stroke="#171717" stroke-linecap="round" stroke-linejoin="round"/>
<path d="M1.33337 7.00004V5.66671C1.33337 3.85337 2.42671 2.58671 4.12671 2.37337C4.30004 2.34671 4.48004 2.33337 4.66671 2.33337H10.6667C10.84 2.33337 11.0067 2.34003 11.1667 2.3667C12.8867 2.5667 14 3.84004 14 5.66671V6.63338H12.6134C12.24 6.63338 11.9 6.78003 11.6534 7.03337C11.3734 7.3067 11.2134 7.70004 11.2534 8.12004C11.3134 8.84004 11.9734 9.3667 12.6934 9.3667H14V10.3334C14 12.3334 12.6667 13.6667 10.6667 13.6667H9.00004" stroke="#171717" stroke-linecap="round" stroke-linejoin="round"/>
</svg>
