<svg width="392" height="274" viewBox="0 0 392 274" fill="none" xmlns="http://www.w3.org/2000/svg">
<g clip-path="url(#clip0_42_16525)">
<rect width="392" height="274" fill="white"/>
<rect width="274" height="60" transform="matrix(0 1 -1 0 60 0)" fill="url(#paint0_linear_42_16525)" fill-opacity="0.58"/>
<rect width="274" height="60" transform="matrix(0 -1 -1 0 120 274)" fill="url(#paint1_linear_42_16525)" fill-opacity="0.58"/>
<rect width="274" height="60" transform="matrix(0 1 -1 0 180 0)" fill="url(#paint2_linear_42_16525)" fill-opacity="0.58"/>
<rect width="274" height="60" transform="matrix(0 -1 -1 0 240 274)" fill="url(#paint3_linear_42_16525)" fill-opacity="0.58"/>
<rect width="274" height="60" transform="matrix(0 1 -1 0 300 0)" fill="url(#paint4_linear_42_16525)" fill-opacity="0.58"/>
<rect width="274" height="60" transform="matrix(0 -1 -1 0 360 274)" fill="url(#paint5_linear_42_16525)" fill-opacity="0.58"/>
<rect width="274" height="60" transform="matrix(0 1 -1 0 420 0)" fill="url(#paint6_linear_42_16525)" fill-opacity="0.58"/>
<g clip-path="url(#clip1_42_16525)">
<mask id="mask0_42_16525" style="mask-type:luminance" maskUnits="userSpaceOnUse" x="-45" y="-84" width="475" height="475">
<path d="M429.189 -83.7655H-44.7529V390.176H429.189V-83.7655Z" fill="black" fill-opacity="0.13"/>
</mask>
<g mask="url(#mask0_42_16525)">
<mask id="mask1_42_16525" style="mask-type:luminance" maskUnits="userSpaceOnUse" x="157" y="152" width="74" height="56">
<path d="M230.74 152.718H157.6V207.328H230.74V152.718Z" fill="white"/>
</mask>
<g mask="url(#mask1_42_16525)">
<mask id="mask2_42_16525" style="mask-type:luminance" maskUnits="userSpaceOnUse" x="159" y="155" width="70" height="50">
<path d="M159.551 155.643H228.302V204.402H159.551V155.643Z" fill="white"/>
</mask>
<g mask="url(#mask2_42_16525)">
<mask id="mask3_42_16525" style="mask-type:luminance" maskUnits="userSpaceOnUse" x="157" y="153" width="74" height="55">
<path d="M162.045 153.064L230.356 159.003L226.168 207.179L157.857 201.241L162.045 153.064Z" fill="white"/>
</mask>
<g mask="url(#mask3_42_16525)">
<mask id="mask4_42_16525" style="mask-type:luminance" maskUnits="userSpaceOnUse" x="159" y="155" width="70" height="50">
<path d="M196.131 156.028C177.307 154.392 161.108 163.851 159.951 177.153C158.795 190.457 173.118 202.569 191.942 204.205C210.768 205.841 226.965 196.383 228.121 183.08C229.277 169.776 214.956 157.665 196.131 156.028Z" fill="white"/>
</mask>
<g mask="url(#mask4_42_16525)">
<mask id="mask5_42_16525" style="mask-type:luminance" maskUnits="userSpaceOnUse" x="159" y="155" width="70" height="50">
<path d="M228.301 155.643H159.551V204.402H228.301V155.643Z" fill="white"/>
</mask>
<g mask="url(#mask5_42_16525)">
<mask id="mask6_42_16525" style="mask-type:luminance" maskUnits="userSpaceOnUse" x="159" y="155" width="70" height="50">
<path d="M159.551 155.643H228.301V204.402H159.551V155.643Z" fill="white"/>
</mask>
<g mask="url(#mask6_42_16525)">
<mask id="mask7_42_16525" style="mask-type:luminance" maskUnits="userSpaceOnUse" x="157" y="153" width="74" height="55">
<path d="M162.045 153.064L230.356 159.003L226.168 207.179L157.857 201.241L162.045 153.064Z" fill="white"/>
</mask>
<g mask="url(#mask7_42_16525)">
<mask id="mask8_42_16525" style="mask-type:luminance" maskUnits="userSpaceOnUse" x="159" y="155" width="70" height="50">
<path d="M196.13 156.028C177.307 154.392 161.107 163.851 159.951 177.153C158.795 190.457 173.118 202.569 191.942 204.205C210.768 205.841 226.965 196.383 228.121 183.08C229.277 169.776 214.956 157.665 196.13 156.028Z" fill="white"/>
</mask>
<g mask="url(#mask8_42_16525)">
<path d="M162.046 153.064L230.168 158.987L225.982 207.162L157.857 201.241L162.046 153.064Z" fill="black"/>
</g>
</g>
</g>
</g>
</g>
</g>
</g>
</g>
</g>
<mask id="mask9_42_16525" style="mask-type:luminance" maskUnits="userSpaceOnUse" x="156" y="152" width="70" height="50">
<path d="M156.626 152.231H225.377V201.478H156.626V152.231Z" fill="white"/>
</mask>
<g mask="url(#mask9_42_16525)">
<mask id="mask10_42_16525" style="mask-type:luminance" maskUnits="userSpaceOnUse" x="153" y="148" width="76" height="58">
<path d="M153.974 196.461L160.037 148.595L228.096 157.216L222.034 205.082L153.974 196.461Z" fill="white"/>
</mask>
<g mask="url(#mask10_42_16525)">
<mask id="mask11_42_16525" style="mask-type:luminance" maskUnits="userSpaceOnUse" x="156" y="152" width="70" height="50">
<path d="M157.005 172.527C155.331 185.745 169.168 198.385 187.912 200.76C206.656 203.133 223.207 194.343 224.882 181.125C226.556 167.906 212.718 155.267 193.975 152.892C175.231 150.519 158.679 159.309 157.005 172.527Z" fill="white"/>
</mask>
<g mask="url(#mask11_42_16525)">
<mask id="mask12_42_16525" style="mask-type:luminance" maskUnits="userSpaceOnUse" x="156" y="152" width="70" height="50">
<path d="M225.377 152.231H156.626V201.478H225.377V152.231Z" fill="white"/>
</mask>
<g mask="url(#mask12_42_16525)">
<mask id="mask13_42_16525" style="mask-type:luminance" maskUnits="userSpaceOnUse" x="156" y="152" width="70" height="50">
<path d="M156.626 152.231H225.376V201.478H156.626V152.231Z" fill="white"/>
</mask>
<g mask="url(#mask13_42_16525)">
<mask id="mask14_42_16525" style="mask-type:luminance" maskUnits="userSpaceOnUse" x="153" y="148" width="76" height="58">
<path d="M153.974 196.46L160.037 148.594L228.096 157.215L222.034 205.081L153.974 196.46Z" fill="white"/>
</mask>
<g mask="url(#mask14_42_16525)">
<mask id="mask15_42_16525" style="mask-type:luminance" maskUnits="userSpaceOnUse" x="156" y="152" width="70" height="50">
<path d="M157.005 172.526C155.331 185.744 169.168 198.383 187.912 200.759C206.656 203.132 223.207 194.342 224.881 181.123C226.556 167.905 212.718 155.266 193.974 152.89C175.23 150.517 158.679 159.307 157.005 172.526Z" fill="white"/>
</mask>
<g mask="url(#mask15_42_16525)">
<path d="M153.974 196.46L160.037 148.594L227.91 157.189L221.847 205.056L153.974 196.46Z" fill="white"/>
</g>
</g>
</g>
</g>
</g>
</g>
</g>
<mask id="mask16_42_16525" style="mask-type:luminance" maskUnits="userSpaceOnUse" x="156" y="152" width="70" height="50">
<path d="M156.626 152.231H225.377V201.478H156.626V152.231Z" fill="white"/>
</mask>
<g mask="url(#mask16_42_16525)">
<mask id="mask17_42_16525" style="mask-type:luminance" maskUnits="userSpaceOnUse" x="153" y="148" width="75" height="58">
<path d="M153.974 196.461L160.041 148.572L227.883 157.164L221.819 205.053L153.974 196.461Z" fill="white"/>
</mask>
<g mask="url(#mask17_42_16525)">
<mask id="mask18_42_16525" style="mask-type:luminance" maskUnits="userSpaceOnUse" x="153" y="148" width="76" height="58">
<path d="M153.975 196.461L160.043 148.551L228.394 157.208L222.326 205.118L153.975 196.461Z" fill="white"/>
</mask>
<g mask="url(#mask18_42_16525)">
<mask id="mask19_42_16525" style="mask-type:luminance" maskUnits="userSpaceOnUse" x="156" y="152" width="70" height="50">
<path d="M157.008 172.531C155.334 185.747 169.169 198.385 187.911 200.758C206.653 203.133 223.203 194.343 224.877 181.127C226.551 167.91 212.716 155.271 193.974 152.898C175.232 150.524 158.682 159.314 157.008 172.531Z" fill="white"/>
</mask>
<g mask="url(#mask19_42_16525)">
<path d="M157.007 172.53C155.332 185.747 169.168 198.384 187.91 200.758C206.652 203.133 223.201 194.343 224.876 181.126C226.55 167.91 212.714 155.27 193.972 152.897C175.23 150.524 158.681 159.314 157.007 172.53Z" stroke="black" stroke-width="2.19418"/>
</g>
</g>
</g>
</g>
<mask id="mask20_42_16525" style="mask-type:luminance" maskUnits="userSpaceOnUse" x="158" y="144" width="69" height="51">
<path d="M158.087 144.916H226.35V194.163H158.087V144.916Z" fill="white"/>
</mask>
<g mask="url(#mask20_42_16525)">
<mask id="mask21_42_16525" style="mask-type:luminance" maskUnits="userSpaceOnUse" x="155" y="141" width="75" height="57">
<path d="M155.27 189.217L161.333 141.351L229.392 149.971L223.33 197.837L155.27 189.217Z" fill="white"/>
</mask>
<g mask="url(#mask21_42_16525)">
<mask id="mask22_42_16525" style="mask-type:luminance" maskUnits="userSpaceOnUse" x="158" y="145" width="69" height="49">
<path d="M158.301 165.284C156.627 178.501 170.464 191.14 189.208 193.515C207.952 195.888 224.503 187.098 226.178 173.88C227.852 160.662 214.014 148.022 195.271 145.649C176.527 143.274 159.975 152.066 158.301 165.284Z" fill="white"/>
</mask>
<g mask="url(#mask22_42_16525)">
<mask id="mask23_42_16525" style="mask-type:luminance" maskUnits="userSpaceOnUse" x="158" y="144" width="69" height="51">
<path d="M226.35 144.916H158.087V194.163H226.35V144.916Z" fill="white"/>
</mask>
<g mask="url(#mask23_42_16525)">
<mask id="mask24_42_16525" style="mask-type:luminance" maskUnits="userSpaceOnUse" x="158" y="144" width="69" height="51">
<path d="M158.085 144.916H226.349V194.163H158.085V144.916Z" fill="white"/>
</mask>
<g mask="url(#mask24_42_16525)">
<mask id="mask25_42_16525" style="mask-type:luminance" maskUnits="userSpaceOnUse" x="155" y="141" width="75" height="57">
<path d="M155.269 189.217L161.331 141.351L229.391 149.971L223.328 197.837L155.269 189.217Z" fill="white"/>
</mask>
<g mask="url(#mask25_42_16525)">
<mask id="mask26_42_16525" style="mask-type:luminance" maskUnits="userSpaceOnUse" x="158" y="145" width="69" height="49">
<path d="M158.299 165.284C156.625 178.501 170.462 191.14 189.206 193.515C207.95 195.888 224.501 187.098 226.175 173.88C227.85 160.662 214.012 148.022 195.268 145.649C176.525 143.274 159.973 152.066 158.299 165.284Z" fill="white"/>
</mask>
<g mask="url(#mask26_42_16525)">
<path d="M155.269 189.217L161.331 141.351L229.204 149.946L223.142 197.815L155.269 189.217Z" fill="white"/>
</g>
</g>
</g>
</g>
</g>
</g>
</g>
<mask id="mask27_42_16525" style="mask-type:luminance" maskUnits="userSpaceOnUse" x="158" y="144" width="69" height="51">
<path d="M158.087 144.916H226.35V194.163H158.087V144.916Z" fill="white"/>
</mask>
<g mask="url(#mask27_42_16525)">
<mask id="mask28_42_16525" style="mask-type:luminance" maskUnits="userSpaceOnUse" x="155" y="141" width="75" height="57">
<path d="M155.27 189.216L161.337 141.327L229.179 149.919L223.114 197.81L155.27 189.216Z" fill="white"/>
</mask>
<g mask="url(#mask28_42_16525)">
<mask id="mask29_42_16525" style="mask-type:luminance" maskUnits="userSpaceOnUse" x="155" y="141" width="75" height="57">
<path d="M155.27 189.216L161.339 141.306L229.689 149.965L223.621 197.873L155.27 189.216Z" fill="white"/>
</mask>
<g mask="url(#mask29_42_16525)">
<mask id="mask30_42_16525" style="mask-type:luminance" maskUnits="userSpaceOnUse" x="158" y="145" width="69" height="49">
<path d="M158.299 165.286C156.624 178.503 170.46 191.14 189.202 193.515C207.944 195.889 224.493 187.099 226.168 173.882C227.842 160.666 214.006 148.028 195.264 145.653C176.522 143.28 159.973 152.07 158.299 165.286Z" fill="white"/>
</mask>
<g mask="url(#mask30_42_16525)">
<path d="M158.299 165.286C156.625 178.503 170.46 191.14 189.202 193.515C207.944 195.889 224.494 187.099 226.168 173.882C227.842 160.666 214.007 148.028 195.265 145.653C176.523 143.28 159.973 152.07 158.299 165.286Z" stroke="black" stroke-width="2.19418"/>
</g>
</g>
</g>
</g>
<mask id="mask31_42_16525" style="mask-type:luminance" maskUnits="userSpaceOnUse" x="166" y="152" width="52" height="37">
<path d="M166.376 152.231H217.085V188.313H166.376V152.231Z" fill="white"/>
</mask>
<g mask="url(#mask31_42_16525)">
<mask id="mask32_42_16525" style="mask-type:luminance" maskUnits="userSpaceOnUse" x="164" y="149" width="55" height="43">
<path d="M164.575 184.835L169.026 149.698L218.987 156.025L214.536 191.162L164.575 184.835Z" fill="white"/>
</mask>
<g mask="url(#mask32_42_16525)">
<mask id="mask33_42_16525" style="mask-type:luminance" maskUnits="userSpaceOnUse" x="166" y="152" width="51" height="37">
<path d="M166.805 167.266C165.574 176.969 175.732 186.248 189.491 187.991C203.25 189.734 215.402 183.281 216.631 173.576C217.859 163.874 207.702 154.596 193.942 152.854C180.183 151.111 168.033 157.564 166.805 167.266Z" fill="white"/>
</mask>
<g mask="url(#mask33_42_16525)">
<mask id="mask34_42_16525" style="mask-type:luminance" maskUnits="userSpaceOnUse" x="166" y="152" width="52" height="37">
<path d="M217.083 152.231H166.373V188.313H217.083V152.231Z" fill="white"/>
</mask>
<g mask="url(#mask34_42_16525)">
<mask id="mask35_42_16525" style="mask-type:luminance" maskUnits="userSpaceOnUse" x="166" y="152" width="52" height="37">
<path d="M166.372 152.231H217.082V188.313H166.372V152.231Z" fill="white"/>
</mask>
<g mask="url(#mask35_42_16525)">
<mask id="mask36_42_16525" style="mask-type:luminance" maskUnits="userSpaceOnUse" x="164" y="149" width="55" height="43">
<path d="M164.571 184.835L169.022 149.698L218.983 156.025L214.532 191.162L164.571 184.835Z" fill="white"/>
</mask>
<g mask="url(#mask36_42_16525)">
<mask id="mask37_42_16525" style="mask-type:luminance" maskUnits="userSpaceOnUse" x="166" y="152" width="51" height="37">
<path d="M166.802 167.266C165.571 176.969 175.729 186.248 189.488 187.991C203.247 189.734 215.399 183.281 216.628 173.576C217.856 163.874 207.699 154.596 193.939 152.854C180.18 151.111 168.03 157.564 166.802 167.266Z" fill="white"/>
</mask>
<g mask="url(#mask37_42_16525)">
<path d="M164.573 184.835L169.024 149.698L218.848 156.008L214.397 191.145L164.573 184.835Z" fill="black"/>
</g>
</g>
</g>
</g>
</g>
</g>
</g>
<mask id="mask38_42_16525" style="mask-type:luminance" maskUnits="userSpaceOnUse" x="166" y="152" width="52" height="37">
<path d="M166.376 152.231H217.085V188.313H166.376V152.231Z" fill="white"/>
</mask>
<g mask="url(#mask38_42_16525)">
<mask id="mask39_42_16525" style="mask-type:luminance" maskUnits="userSpaceOnUse" x="164" y="149" width="55" height="43">
<path d="M164.575 184.834L169.032 149.644L218.736 155.939L214.279 191.129L164.575 184.834Z" fill="white"/>
</mask>
<g mask="url(#mask39_42_16525)">
<mask id="mask40_42_16525" style="mask-type:luminance" maskUnits="userSpaceOnUse" x="164" y="149" width="56" height="43">
<path d="M164.573 184.834L169.028 149.665L219.204 156.019L214.749 191.188L164.573 184.834Z" fill="white"/>
</mask>
<g mask="url(#mask40_42_16525)">
<mask id="mask41_42_16525" style="mask-type:luminance" maskUnits="userSpaceOnUse" x="166" y="152" width="51" height="37">
<path d="M166.799 167.268C165.57 176.968 175.728 186.248 189.485 187.988C203.244 189.731 215.392 183.28 216.621 173.578C217.851 163.875 207.694 154.598 193.936 152.855C180.177 151.112 168.029 157.565 166.799 167.268Z" fill="white"/>
</mask>
<g mask="url(#mask41_42_16525)">
<path d="M166.798 167.268C165.569 176.968 175.727 186.248 189.485 187.988C203.244 189.731 215.392 183.28 216.62 173.578C217.851 163.875 207.693 154.598 193.936 152.855C180.176 151.112 168.028 157.565 166.798 167.268Z" stroke="black" stroke-width="2.19418"/>
</g>
</g>
</g>
</g>
<path d="M161.881 186.56L163.5 180.052" stroke="black" stroke-width="1.46278"/>
<path d="M169.421 193.731L172.539 187.792" stroke="black" stroke-width="1.46278"/>
<path d="M179.561 198.947L182.656 191.315" stroke="black" stroke-width="1.46278"/>
<path d="M192.953 200.523L193.256 193.823" stroke="black" stroke-width="1.46278"/>
<path d="M204.235 199.975L203.263 192.215" stroke="black" stroke-width="1.46278"/>
<path d="M214.865 195.198L214.238 188.505" stroke="black" stroke-width="1.46278"/>
<mask id="mask42_42_16525" style="mask-type:luminance" maskUnits="userSpaceOnUse" x="170" y="154" width="47" height="34">
<path d="M170.279 154.181H216.113V187.338H170.279V154.181Z" fill="white"/>
</mask>
<g mask="url(#mask42_42_16525)">
<mask id="mask43_42_16525" style="mask-type:luminance" maskUnits="userSpaceOnUse" x="168" y="151" width="50" height="39">
<path d="M168.764 184.242L172.853 151.958L217.876 157.66L213.787 189.944L168.764 184.242Z" fill="white"/>
</mask>
<g mask="url(#mask43_42_16525)">
<mask id="mask44_42_16525" style="mask-type:luminance" maskUnits="userSpaceOnUse" x="170" y="154" width="46" height="34">
<path d="M170.807 168.1C169.679 177.016 178.814 185.517 191.213 187.086C203.611 188.658 214.578 182.702 215.707 173.788C216.837 164.872 207.7 156.372 195.302 154.802C182.903 153.231 171.936 159.185 170.807 168.1Z" fill="white"/>
</mask>
<g mask="url(#mask44_42_16525)">
<mask id="mask45_42_16525" style="mask-type:luminance" maskUnits="userSpaceOnUse" x="170" y="154" width="47" height="34">
<path d="M216.114 154.181H170.28V187.338H216.114V154.181Z" fill="white"/>
</mask>
<g mask="url(#mask45_42_16525)">
<mask id="mask46_42_16525" style="mask-type:luminance" maskUnits="userSpaceOnUse" x="170" y="154" width="47" height="34">
<path d="M170.281 154.181H216.115V187.338H170.281V154.181Z" fill="white"/>
</mask>
<g mask="url(#mask46_42_16525)">
<mask id="mask47_42_16525" style="mask-type:luminance" maskUnits="userSpaceOnUse" x="168" y="151" width="50" height="39">
<path d="M168.771 184.242L172.86 151.958L217.883 157.661L213.793 189.945L168.771 184.242Z" fill="white"/>
</mask>
<g mask="url(#mask47_42_16525)">
<mask id="mask48_42_16525" style="mask-type:luminance" maskUnits="userSpaceOnUse" x="170" y="154" width="46" height="34">
<path d="M170.817 168.101C169.69 177.016 178.824 185.517 191.224 187.086C203.621 188.658 214.588 182.702 215.718 173.788C216.847 164.872 207.711 156.372 195.313 154.802C182.914 153.231 171.947 159.185 170.817 168.101Z" fill="white"/>
</mask>
<g mask="url(#mask48_42_16525)">
<path d="M168.773 184.242L172.862 151.958L217.759 157.644L213.669 189.93L168.773 184.242Z" fill="#83BBFF"/>
</g>
</g>
</g>
</g>
</g>
</g>
</g>
<mask id="mask49_42_16525" style="mask-type:luminance" maskUnits="userSpaceOnUse" x="183" y="161" width="21" height="20">
<path d="M183.929 161.982H203.921V180.023H183.929V161.982Z" fill="white"/>
</mask>
<g mask="url(#mask49_42_16525)">
<mask id="mask50_42_16525" style="mask-type:luminance" maskUnits="userSpaceOnUse" x="181" y="160" width="26" height="22">
<path d="M181.623 173.165L187.407 160.53L206.027 169.053L200.245 181.689L181.623 173.165Z" fill="white"/>
</mask>
<g mask="url(#mask50_42_16525)">
<mask id="mask51_42_16525" style="mask-type:luminance" maskUnits="userSpaceOnUse" x="181" y="160" width="26" height="22">
<path d="M181.623 173.165L187.407 160.53L206.027 169.053L200.245 181.689L181.623 173.165Z" fill="white"/>
</mask>
<g mask="url(#mask51_42_16525)">
<path d="M195.784 166.156C194.773 166.632 193.72 167.518 192.653 168.904L189.554 167.485C190.114 166.733 190.827 166.122 191.691 165.653C191.804 165.56 191.918 165.468 191.914 165.322C191.967 165.204 191.964 165.057 191.872 164.943L190.533 162.672C190.44 162.558 190.349 162.444 190.202 162.449C190.084 162.394 189.909 162.459 189.823 162.491C188.33 163.392 187.137 164.577 186.278 165.984L185.621 165.685C185.383 165.577 185.063 165.645 184.928 165.944L184.299 167.314C184.191 167.552 184.261 167.872 184.558 168.009L185.214 168.308C184.76 169.615 184.745 170.906 185.139 172.095C185.537 173.43 186.45 174.424 187.821 175.051C189.19 175.679 190.394 175.725 191.491 175.218C192.501 174.744 193.468 173.889 194.508 172.563L197.725 174.035C197.024 174.94 196.051 175.649 194.781 176.22C194.666 176.312 194.552 176.403 194.499 176.523C194.444 176.641 194.449 176.788 194.541 176.902L195.678 179.296C195.775 179.557 196.101 179.633 196.362 179.538C198.354 178.647 199.919 177.273 201.062 175.563L202.196 176.081C202.434 176.192 202.754 176.121 202.889 175.824L203.517 174.453C203.626 174.214 203.555 173.895 203.258 173.757L202.127 173.239C202.634 171.815 202.649 170.523 202.283 169.276C201.885 167.941 200.999 166.887 199.628 166.259C198.171 165.664 196.908 165.59 195.784 166.156ZM198.112 169.889C198.468 170.053 198.712 170.308 198.815 170.716C198.883 171.036 198.866 171.388 198.822 171.799L196.141 170.573C196.624 170.144 196.941 169.929 197.114 169.864C197.428 169.649 197.754 169.725 198.112 169.889ZM189.131 171.399C188.775 171.236 188.59 171.007 188.49 170.601C188.392 170.34 188.381 170.047 188.459 169.721L190.962 170.868C190.564 171.262 190.276 171.418 190.103 171.483C189.754 171.613 189.489 171.563 189.131 171.399Z" fill="white"/>
</g>
</g>
</g>
<mask id="mask52_42_16525" style="mask-type:luminance" maskUnits="userSpaceOnUse" x="-45" y="-84" width="475" height="475">
<path d="M429.189 -83.7655H-44.7529V390.176H429.189V-83.7655Z" fill="black" fill-opacity="0.13"/>
</mask>
<g mask="url(#mask52_42_16525)">
<mask id="mask53_42_16525" style="mask-type:luminance" maskUnits="userSpaceOnUse" x="221" y="131" width="74" height="56">
<path d="M294.611 131.751H221.472V186.362H294.611V131.751Z" fill="white"/>
</mask>
<g mask="url(#mask53_42_16525)">
<mask id="mask54_42_16525" style="mask-type:luminance" maskUnits="userSpaceOnUse" x="223" y="134" width="70" height="50">
<path d="M223.91 134.677H292.661V183.436H223.91V134.677Z" fill="white"/>
</mask>
<g mask="url(#mask54_42_16525)">
<mask id="mask55_42_16525" style="mask-type:luminance" maskUnits="userSpaceOnUse" x="221" y="132" width="74" height="55">
<path d="M226.128 132.008L294.439 137.946L290.252 186.123L221.94 180.184L226.128 132.008Z" fill="white"/>
</mask>
<g mask="url(#mask55_42_16525)">
<mask id="mask56_42_16525" style="mask-type:luminance" maskUnits="userSpaceOnUse" x="223" y="134" width="70" height="50">
<path d="M260.212 134.972C241.388 133.336 225.191 142.795 224.033 156.097C222.876 169.401 237.199 181.513 256.025 183.149C274.849 184.785 291.046 175.326 292.204 162.024C293.36 148.72 279.037 136.608 260.212 134.972Z" fill="white"/>
</mask>
<g mask="url(#mask56_42_16525)">
<mask id="mask57_42_16525" style="mask-type:luminance" maskUnits="userSpaceOnUse" x="223" y="134" width="70" height="50">
<path d="M292.66 134.677H223.909V183.436H292.66V134.677Z" fill="white"/>
</mask>
<g mask="url(#mask57_42_16525)">
<mask id="mask58_42_16525" style="mask-type:luminance" maskUnits="userSpaceOnUse" x="223" y="134" width="70" height="50">
<path d="M223.912 134.677H292.663V183.436H223.912V134.677Z" fill="white"/>
</mask>
<g mask="url(#mask58_42_16525)">
<mask id="mask59_42_16525" style="mask-type:luminance" maskUnits="userSpaceOnUse" x="221" y="132" width="74" height="55">
<path d="M226.129 132.008L294.44 137.946L290.254 186.123L221.941 180.184L226.129 132.008Z" fill="white"/>
</mask>
<g mask="url(#mask59_42_16525)">
<mask id="mask60_42_16525" style="mask-type:luminance" maskUnits="userSpaceOnUse" x="223" y="134" width="70" height="50">
<path d="M260.214 134.972C241.39 133.336 225.193 142.795 224.035 156.097C222.879 169.401 237.202 181.513 256.028 183.149C274.851 184.785 291.049 175.326 292.207 162.024C293.363 148.72 279.04 136.608 260.214 134.972Z" fill="white"/>
</mask>
<g mask="url(#mask60_42_16525)">
<path d="M226.13 132.008L294.254 137.931L290.065 186.106L221.941 180.184L226.13 132.008Z" fill="black"/>
</g>
</g>
</g>
</g>
</g>
</g>
</g>
</g>
</g>
<mask id="mask61_42_16525" style="mask-type:luminance" maskUnits="userSpaceOnUse" x="220" y="131" width="70" height="50">
<path d="M220.99 131.264H289.741V180.511H220.99V131.264Z" fill="white"/>
</mask>
<g mask="url(#mask61_42_16525)">
<mask id="mask62_42_16525" style="mask-type:luminance" maskUnits="userSpaceOnUse" x="218" y="127" width="75" height="58">
<path d="M218.314 175.405L224.377 127.539L292.436 136.159L286.374 184.026L218.314 175.405Z" fill="white"/>
</mask>
<g mask="url(#mask62_42_16525)">
<mask id="mask63_42_16525" style="mask-type:luminance" maskUnits="userSpaceOnUse" x="221" y="131" width="69" height="50">
<path d="M221.348 151.471C219.674 164.689 233.511 177.328 252.255 179.704C270.999 182.077 287.551 173.287 289.225 160.068C290.899 146.85 277.062 134.211 258.318 131.836C239.574 129.462 223.022 138.252 221.348 151.471Z" fill="white"/>
</mask>
<g mask="url(#mask63_42_16525)">
<mask id="mask64_42_16525" style="mask-type:luminance" maskUnits="userSpaceOnUse" x="220" y="131" width="70" height="50">
<path d="M289.742 131.264H220.991V180.511H289.742V131.264Z" fill="white"/>
</mask>
<g mask="url(#mask64_42_16525)">
<mask id="mask65_42_16525" style="mask-type:luminance" maskUnits="userSpaceOnUse" x="220" y="131" width="70" height="50">
<path d="M220.991 131.264H289.742V180.511H220.991V131.264Z" fill="white"/>
</mask>
<g mask="url(#mask65_42_16525)">
<mask id="mask66_42_16525" style="mask-type:luminance" maskUnits="userSpaceOnUse" x="218" y="127" width="75" height="58">
<path d="M218.319 175.405L224.382 127.539L292.441 136.16L286.379 184.026L218.319 175.405Z" fill="white"/>
</mask>
<g mask="url(#mask66_42_16525)">
<mask id="mask67_42_16525" style="mask-type:luminance" maskUnits="userSpaceOnUse" x="221" y="131" width="69" height="50">
<path d="M221.352 151.47C219.677 164.689 233.515 177.328 252.259 179.703C271.002 182.076 287.554 173.286 289.228 160.068C290.902 146.85 277.065 134.21 258.321 131.835C239.577 129.462 223.026 138.252 221.352 151.47Z" fill="white"/>
</mask>
<g mask="url(#mask67_42_16525)">
<path d="M218.321 175.405L224.384 127.539L292.257 136.135L286.194 184.001L218.321 175.405Z" fill="white"/>
</g>
</g>
</g>
</g>
</g>
</g>
</g>
<mask id="mask68_42_16525" style="mask-type:luminance" maskUnits="userSpaceOnUse" x="220" y="131" width="70" height="50">
<path d="M220.99 131.264H289.741V180.511H220.99V131.264Z" fill="white"/>
</mask>
<g mask="url(#mask68_42_16525)">
<mask id="mask69_42_16525" style="mask-type:luminance" maskUnits="userSpaceOnUse" x="218" y="127" width="75" height="57">
<path d="M218.314 175.405L224.379 127.516L292.223 136.108L286.156 183.997L218.314 175.405Z" fill="white"/>
</mask>
<g mask="url(#mask69_42_16525)">
<mask id="mask70_42_16525" style="mask-type:luminance" maskUnits="userSpaceOnUse" x="218" y="127" width="75" height="58">
<path d="M218.314 175.405L224.382 127.495L292.733 136.151L286.665 184.061L218.314 175.405Z" fill="white"/>
</mask>
<g mask="url(#mask70_42_16525)">
<mask id="mask71_42_16525" style="mask-type:luminance" maskUnits="userSpaceOnUse" x="221" y="131" width="69" height="50">
<path d="M221.347 151.475C219.673 164.691 233.508 177.329 252.25 179.702C270.992 182.077 287.541 173.287 289.216 160.07C290.89 146.854 277.053 134.215 258.312 131.841C239.571 129.468 223.021 138.258 221.347 151.475Z" fill="white"/>
</mask>
<g mask="url(#mask71_42_16525)">
<path d="M221.347 151.474C219.673 164.69 233.509 177.328 252.25 179.701C270.992 182.076 287.542 173.286 289.216 160.07C290.89 146.853 277.053 134.214 258.313 131.841C239.571 129.467 223.021 138.257 221.347 151.474Z" stroke="black" stroke-width="2.19418"/>
</g>
</g>
</g>
</g>
<mask id="mask72_42_16525" style="mask-type:luminance" maskUnits="userSpaceOnUse" x="221" y="123" width="70" height="51">
<path d="M221.962 123.95H290.713V173.197H221.962V123.95Z" fill="white"/>
</mask>
<g mask="url(#mask72_42_16525)">
<mask id="mask73_42_16525" style="mask-type:luminance" maskUnits="userSpaceOnUse" x="219" y="120" width="75" height="57">
<path d="M219.355 168.161L225.418 120.295L293.479 128.915L287.417 176.782L219.355 168.161Z" fill="white"/>
</mask>
<g mask="url(#mask73_42_16525)">
<mask id="mask74_42_16525" style="mask-type:luminance" maskUnits="userSpaceOnUse" x="222" y="124" width="69" height="49">
<path d="M222.387 144.227C220.713 157.445 234.551 170.084 253.294 172.459C272.038 174.833 288.59 166.043 290.264 152.824C291.938 139.606 278.101 126.967 259.357 124.593C240.613 122.218 224.062 131.01 222.387 144.227Z" fill="white"/>
</mask>
<g mask="url(#mask74_42_16525)">
<mask id="mask75_42_16525" style="mask-type:luminance" maskUnits="userSpaceOnUse" x="221" y="123" width="70" height="51">
<path d="M290.714 123.95H221.963V173.197H290.714V123.95Z" fill="white"/>
</mask>
<g mask="url(#mask75_42_16525)">
<mask id="mask76_42_16525" style="mask-type:luminance" maskUnits="userSpaceOnUse" x="221" y="123" width="70" height="51">
<path d="M221.963 123.95H290.714V173.197H221.963V123.95Z" fill="white"/>
</mask>
<g mask="url(#mask76_42_16525)">
<mask id="mask77_42_16525" style="mask-type:luminance" maskUnits="userSpaceOnUse" x="219" y="120" width="75" height="57">
<path d="M219.354 168.16L225.417 120.294L293.478 128.915L287.416 176.781L219.354 168.16Z" fill="white"/>
</mask>
<g mask="url(#mask77_42_16525)">
<mask id="mask78_42_16525" style="mask-type:luminance" maskUnits="userSpaceOnUse" x="222" y="124" width="69" height="49">
<path d="M222.39 144.226C220.715 157.445 234.553 170.084 253.297 172.459C272.041 174.832 288.592 166.042 290.266 152.824C291.94 139.606 278.103 126.966 259.359 124.593C240.615 122.218 224.064 131.01 222.39 144.226Z" fill="white"/>
</mask>
<g mask="url(#mask78_42_16525)">
<path d="M219.356 168.161L225.418 120.295L293.291 128.89L287.228 176.757L219.356 168.161Z" fill="white"/>
</g>
</g>
</g>
</g>
</g>
</g>
</g>
<mask id="mask79_42_16525" style="mask-type:luminance" maskUnits="userSpaceOnUse" x="221" y="123" width="70" height="51">
<path d="M221.962 123.95H290.713V173.197H221.962V123.95Z" fill="white"/>
</mask>
<g mask="url(#mask79_42_16525)">
<mask id="mask80_42_16525" style="mask-type:luminance" maskUnits="userSpaceOnUse" x="219" y="120" width="75" height="57">
<path d="M219.355 168.161L225.422 120.272L293.264 128.864L287.2 176.755L219.355 168.161Z" fill="white"/>
</mask>
<g mask="url(#mask80_42_16525)">
<mask id="mask81_42_16525" style="mask-type:luminance" maskUnits="userSpaceOnUse" x="219" y="120" width="75" height="57">
<path d="M219.357 168.161L225.426 120.251L293.777 128.909L287.708 176.817L219.357 168.161Z" fill="white"/>
</mask>
<g mask="url(#mask81_42_16525)">
<mask id="mask82_42_16525" style="mask-type:luminance" maskUnits="userSpaceOnUse" x="222" y="124" width="69" height="49">
<path d="M222.386 144.23C220.712 157.447 234.549 170.084 253.291 172.459C272.031 174.832 288.583 166.042 290.255 152.826C291.929 139.609 278.094 126.972 259.352 124.597C240.61 122.224 224.06 131.014 222.386 144.23Z" fill="white"/>
</mask>
<g mask="url(#mask82_42_16525)">
<path d="M222.387 144.23C220.712 157.447 234.55 170.084 253.292 172.459C272.032 174.832 288.583 166.042 290.256 152.826C291.93 139.609 278.094 126.972 259.352 124.597C240.61 122.224 224.061 131.014 222.387 144.23Z" stroke="black" stroke-width="2.19418"/>
</g>
</g>
</g>
</g>
<mask id="mask83_42_16525" style="mask-type:luminance" maskUnits="userSpaceOnUse" x="230" y="131" width="51" height="37">
<path d="M230.74 131.264H280.963V167.346H230.74V131.264Z" fill="white"/>
</mask>
<g mask="url(#mask83_42_16525)">
<mask id="mask84_42_16525" style="mask-type:luminance" maskUnits="userSpaceOnUse" x="228" y="128" width="56" height="43">
<path d="M228.669 163.779L233.118 128.641L283.079 134.969L278.628 170.106L228.669 163.779Z" fill="white"/>
</mask>
<g mask="url(#mask84_42_16525)">
<mask id="mask85_42_16525" style="mask-type:luminance" maskUnits="userSpaceOnUse" x="230" y="131" width="51" height="37">
<path d="M230.891 146.209C229.663 155.912 239.82 165.191 253.579 166.934C267.339 168.677 279.489 162.224 280.717 152.519C281.946 142.817 271.788 133.539 258.029 131.797C244.269 130.054 232.12 136.507 230.891 146.209Z" fill="white"/>
</mask>
<g mask="url(#mask85_42_16525)">
<mask id="mask86_42_16525" style="mask-type:luminance" maskUnits="userSpaceOnUse" x="230" y="131" width="51" height="37">
<path d="M280.962 131.264H230.74V167.346H280.962V131.264Z" fill="white"/>
</mask>
<g mask="url(#mask86_42_16525)">
<mask id="mask87_42_16525" style="mask-type:luminance" maskUnits="userSpaceOnUse" x="230" y="131" width="51" height="37">
<path d="M230.74 131.264H280.963V167.346H230.74V131.264Z" fill="white"/>
</mask>
<g mask="url(#mask87_42_16525)">
<mask id="mask88_42_16525" style="mask-type:luminance" maskUnits="userSpaceOnUse" x="228" y="128" width="56" height="43">
<path d="M228.668 163.778L233.117 128.641L283.078 134.968L278.627 170.105L228.668 163.778Z" fill="white"/>
</mask>
<g mask="url(#mask88_42_16525)">
<mask id="mask89_42_16525" style="mask-type:luminance" maskUnits="userSpaceOnUse" x="230" y="131" width="51" height="37">
<path d="M230.893 146.21C229.664 155.912 239.822 165.192 253.581 166.934C267.34 168.677 279.49 162.224 280.719 152.52C281.947 142.818 271.79 133.54 258.03 131.797C244.271 130.054 232.121 136.507 230.893 146.21Z" fill="white"/>
</mask>
<g mask="url(#mask89_42_16525)">
<path d="M228.667 163.778L233.117 128.641L282.941 134.951L278.49 170.088L228.667 163.778Z" fill="black"/>
</g>
</g>
</g>
</g>
</g>
</g>
</g>
<mask id="mask90_42_16525" style="mask-type:luminance" maskUnits="userSpaceOnUse" x="230" y="131" width="51" height="37">
<path d="M230.74 131.264H280.963V167.346H230.74V131.264Z" fill="white"/>
</mask>
<g mask="url(#mask90_42_16525)">
<mask id="mask91_42_16525" style="mask-type:luminance" maskUnits="userSpaceOnUse" x="228" y="128" width="55" height="43">
<path d="M228.669 163.778L233.126 128.588L282.828 134.882L278.371 170.073L228.669 163.778Z" fill="white"/>
</mask>
<g mask="url(#mask91_42_16525)">
<mask id="mask92_42_16525" style="mask-type:luminance" maskUnits="userSpaceOnUse" x="228" y="128" width="56" height="43">
<path d="M228.669 163.779L233.122 128.609L283.298 134.963L278.843 170.133L228.669 163.779Z" fill="white"/>
</mask>
<g mask="url(#mask92_42_16525)">
<mask id="mask93_42_16525" style="mask-type:luminance" maskUnits="userSpaceOnUse" x="230" y="131" width="51" height="37">
<path d="M230.891 146.212C229.662 155.912 239.818 165.192 253.577 166.933C267.335 168.676 279.485 162.224 280.713 152.522C281.942 142.82 271.784 133.542 258.027 131.799C244.269 130.057 232.119 136.51 230.891 146.212Z" fill="white"/>
</mask>
<g mask="url(#mask93_42_16525)">
<path d="M230.892 146.212C229.663 155.912 239.819 165.192 253.578 166.933C267.336 168.676 279.486 162.224 280.714 152.522C281.943 142.82 271.785 133.542 258.028 131.799C244.27 130.057 232.12 136.51 230.892 146.212Z" stroke="black" stroke-width="2.19418"/>
</g>
</g>
</g>
</g>
<path d="M226.022 165.163L227.428 158.604" stroke="black" stroke-width="1.46278"/>
<path d="M233.511 172.675L236.627 166.736" stroke="black" stroke-width="1.46278"/>
<path d="M243.78 177.852L246.743 170.258" stroke="black" stroke-width="1.46278"/>
<path d="M257.042 179.467L257.347 172.766" stroke="black" stroke-width="1.46278"/>
<path d="M268.249 177.835L267.603 171.159" stroke="black" stroke-width="1.46278"/>
<path d="M279.129 174.189L278.483 167.498" stroke="black" stroke-width="1.46278"/>
<mask id="mask94_42_16525" style="mask-type:luminance" maskUnits="userSpaceOnUse" x="234" y="133" width="46" height="34">
<path d="M234.643 133.214H279.989V166.371H234.643V133.214Z" fill="white"/>
</mask>
<g mask="url(#mask94_42_16525)">
<mask id="mask95_42_16525" style="mask-type:luminance" maskUnits="userSpaceOnUse" x="232" y="130" width="50" height="39">
<path d="M232.856 163.185L236.945 130.901L281.968 136.604L277.878 168.888L232.856 163.185Z" fill="white"/>
</mask>
<g mask="url(#mask95_42_16525)">
<mask id="mask96_42_16525" style="mask-type:luminance" maskUnits="userSpaceOnUse" x="234" y="133" width="46" height="34">
<path d="M234.904 147.044C233.774 155.959 242.909 164.46 255.309 166.029C267.708 167.601 278.673 161.645 279.803 152.731C280.932 143.815 271.797 135.315 259.398 133.745C246.998 132.174 236.033 138.128 234.904 147.044Z" fill="white"/>
</mask>
<g mask="url(#mask96_42_16525)">
<mask id="mask97_42_16525" style="mask-type:luminance" maskUnits="userSpaceOnUse" x="234" y="133" width="46" height="34">
<path d="M279.99 133.214H234.644V166.371H279.99V133.214Z" fill="white"/>
</mask>
<g mask="url(#mask97_42_16525)">
<mask id="mask98_42_16525" style="mask-type:luminance" maskUnits="userSpaceOnUse" x="234" y="133" width="46" height="34">
<path d="M234.644 133.214H279.99V166.371H234.644V133.214Z" fill="white"/>
</mask>
<g mask="url(#mask98_42_16525)">
<mask id="mask99_42_16525" style="mask-type:luminance" maskUnits="userSpaceOnUse" x="232" y="130" width="50" height="39">
<path d="M232.857 163.186L236.947 130.902L281.969 136.604L277.88 168.888L232.857 163.186Z" fill="white"/>
</mask>
<g mask="url(#mask99_42_16525)">
<mask id="mask100_42_16525" style="mask-type:luminance" maskUnits="userSpaceOnUse" x="234" y="133" width="46" height="34">
<path d="M234.905 147.044C233.776 155.96 242.911 164.46 255.31 166.03C267.709 167.601 278.675 161.645 279.804 152.731C280.933 143.815 271.799 135.315 259.399 133.745C247 132.174 236.035 138.128 234.905 147.044Z" fill="white"/>
</mask>
<g mask="url(#mask100_42_16525)">
<path d="M232.859 163.186L236.949 130.902L281.845 136.587L277.756 168.873L232.859 163.186Z" fill="#83BBFF"/>
</g>
</g>
</g>
</g>
</g>
</g>
</g>
<mask id="mask101_42_16525" style="mask-type:luminance" maskUnits="userSpaceOnUse" x="248" y="141" width="20" height="18">
<path d="M248.293 141.016H267.797V158.569H248.293V141.016Z" fill="white"/>
</mask>
<g mask="url(#mask101_42_16525)">
<mask id="mask102_42_16525" style="mask-type:luminance" maskUnits="userSpaceOnUse" x="245" y="139" width="26" height="22">
<path d="M245.716 152.108L251.499 139.473L270.121 147.994L264.336 160.632L245.716 152.108Z" fill="white"/>
</mask>
<g mask="url(#mask102_42_16525)">
<mask id="mask103_42_16525" style="mask-type:luminance" maskUnits="userSpaceOnUse" x="245" y="139" width="26" height="22">
<path d="M245.718 152.109L251.5 139.473L270.122 147.995L264.338 160.632L245.718 152.109Z" fill="white"/>
</mask>
<g mask="url(#mask103_42_16525)">
<path d="M259.878 145.099C258.869 145.575 257.814 146.461 256.747 147.848L253.648 146.429C254.21 145.676 254.92 145.065 255.785 144.596C255.899 144.503 256.014 144.412 256.008 144.265C256.063 144.147 256.058 144 255.966 143.886L254.627 141.616C254.536 141.501 254.442 141.387 254.296 141.393C254.178 141.338 254.004 141.402 253.917 141.435C252.423 142.336 251.233 143.52 250.372 144.928L249.717 144.629C249.479 144.52 249.157 144.589 249.022 144.888L248.395 146.257C248.285 146.495 248.355 146.815 248.652 146.952L249.307 147.251C248.854 148.558 248.841 149.849 249.233 151.038C249.631 152.373 250.545 153.367 251.915 153.994C253.286 154.623 254.49 154.668 255.587 154.162C256.597 153.687 257.564 152.832 258.602 151.507L261.821 152.979C261.118 153.884 260.145 154.592 258.875 155.163C258.762 155.255 258.648 155.346 258.593 155.466C258.537 155.584 258.543 155.731 258.635 155.845L259.774 158.24C259.871 158.5 260.194 158.577 260.455 158.479C262.448 157.59 264.013 156.217 265.156 154.506L266.289 155.024C266.527 155.135 266.847 155.064 266.985 154.767L267.611 153.396C267.72 153.158 267.651 152.838 267.352 152.701L266.221 152.183C266.729 150.758 266.743 149.467 266.377 148.219C265.979 146.884 265.093 145.829 263.722 145.202C262.265 144.608 261.002 144.534 259.878 145.099ZM262.206 148.832C262.564 148.996 262.806 149.251 262.909 149.657C262.977 149.979 262.96 150.331 262.916 150.743L260.234 149.516C260.718 149.088 261.034 148.872 261.208 148.808C261.522 148.592 261.848 148.669 262.206 148.832ZM253.227 150.343C252.869 150.179 252.684 149.95 252.583 149.545C252.486 149.284 252.477 148.99 252.553 148.665L255.056 149.811C254.658 150.206 254.37 150.362 254.197 150.427C253.85 150.556 253.583 150.507 253.227 150.343Z" fill="white"/>
</g>
</g>
</g>
<mask id="mask104_42_16525" style="mask-type:luminance" maskUnits="userSpaceOnUse" x="-45" y="-84" width="475" height="475">
<path d="M429.189 -83.7655H-44.7529V390.176H429.189V-83.7655Z" fill="black" fill-opacity="0.13"/>
</mask>
<g mask="url(#mask104_42_16525)">
<mask id="mask105_42_16525" style="mask-type:luminance" maskUnits="userSpaceOnUse" x="96" y="120" width="74" height="55">
<path d="M169.792 120.049H96.6525V174.66H169.792V120.049Z" fill="white"/>
</mask>
<g mask="url(#mask105_42_16525)">
<mask id="mask106_42_16525" style="mask-type:luminance" maskUnits="userSpaceOnUse" x="98" y="122" width="70" height="50">
<path d="M98.6049 122.487H167.356V171.734H98.6049V122.487Z" fill="white"/>
</mask>
<g mask="url(#mask106_42_16525)">
<mask id="mask107_42_16525" style="mask-type:luminance" maskUnits="userSpaceOnUse" x="96" y="120" width="74" height="55">
<path d="M100.977 120.16L169.29 126.099L165.102 174.275L96.7889 168.337L100.977 120.16Z" fill="white"/>
</mask>
<g mask="url(#mask107_42_16525)">
<mask id="mask108_42_16525" style="mask-type:luminance" maskUnits="userSpaceOnUse" x="98" y="122" width="70" height="50">
<path d="M135.063 123.123C116.239 121.487 100.042 130.944 98.8857 144.248C97.7276 157.552 112.051 169.662 130.876 171.298C149.7 172.936 165.898 163.477 167.056 150.173C168.212 136.871 153.889 124.759 135.063 123.123Z" fill="white"/>
</mask>
<g mask="url(#mask108_42_16525)">
<mask id="mask109_42_16525" style="mask-type:luminance" maskUnits="userSpaceOnUse" x="98" y="122" width="70" height="50">
<path d="M167.357 122.488H98.6066V171.735H167.357V122.488Z" fill="white"/>
</mask>
<g mask="url(#mask109_42_16525)">
<mask id="mask110_42_16525" style="mask-type:luminance" maskUnits="userSpaceOnUse" x="98" y="122" width="70" height="50">
<path d="M98.608 122.488H167.359V171.735H98.608V122.488Z" fill="white"/>
</mask>
<g mask="url(#mask110_42_16525)">
<mask id="mask111_42_16525" style="mask-type:luminance" maskUnits="userSpaceOnUse" x="96" y="120" width="74" height="55">
<path d="M100.98 120.16L169.293 126.099L165.104 174.275L96.7917 168.337L100.98 120.16Z" fill="white"/>
</mask>
<g mask="url(#mask111_42_16525)">
<mask id="mask112_42_16525" style="mask-type:luminance" maskUnits="userSpaceOnUse" x="98" y="122" width="70" height="50">
<path d="M135.066 123.124C116.242 121.488 100.045 130.945 98.8888 144.249C97.7308 157.553 112.054 169.663 130.88 171.299C149.703 172.937 165.901 163.478 167.059 150.174C168.215 136.872 153.892 124.76 135.066 123.124Z" fill="white"/>
</mask>
<g mask="url(#mask112_42_16525)">
<path d="M100.98 120.16L169.105 126.082L164.916 174.258L96.7921 168.337L100.98 120.16Z" fill="black"/>
</g>
</g>
</g>
</g>
</g>
</g>
</g>
</g>
</g>
<mask id="mask113_42_16525" style="mask-type:luminance" maskUnits="userSpaceOnUse" x="95" y="119" width="70" height="50">
<path d="M95.6762 119.562H164.427V168.321H95.6762V119.562Z" fill="white"/>
</mask>
<g mask="url(#mask113_42_16525)">
<mask id="mask114_42_16525" style="mask-type:luminance" maskUnits="userSpaceOnUse" x="93" y="115" width="75" height="58">
<path d="M93.1548 163.554L99.2174 115.688L167.277 124.308L161.214 172.174L93.1548 163.554Z" fill="white"/>
</mask>
<g mask="url(#mask114_42_16525)">
<mask id="mask115_42_16525" style="mask-type:luminance" maskUnits="userSpaceOnUse" x="96" y="119" width="69" height="50">
<path d="M96.1836 139.622C94.5094 152.84 108.347 165.48 127.091 167.853C145.834 170.228 162.386 161.436 164.06 148.218C165.734 135.001 151.897 122.362 133.153 119.987C114.411 117.614 97.8578 126.404 96.1836 139.622Z" fill="white"/>
</mask>
<g mask="url(#mask115_42_16525)">
<mask id="mask116_42_16525" style="mask-type:luminance" maskUnits="userSpaceOnUse" x="95" y="119" width="70" height="50">
<path d="M164.423 119.562H95.6719V168.322H164.423V119.562Z" fill="white"/>
</mask>
<g mask="url(#mask116_42_16525)">
<mask id="mask117_42_16525" style="mask-type:luminance" maskUnits="userSpaceOnUse" x="95" y="119" width="70" height="50">
<path d="M95.6717 119.563H164.423V168.322H95.6717V119.563Z" fill="white"/>
</mask>
<g mask="url(#mask117_42_16525)">
<mask id="mask118_42_16525" style="mask-type:luminance" maskUnits="userSpaceOnUse" x="93" y="115" width="75" height="58">
<path d="M93.1505 163.554L99.2131 115.688L167.272 124.309L161.21 172.175L93.1505 163.554Z" fill="white"/>
</mask>
<g mask="url(#mask118_42_16525)">
<mask id="mask119_42_16525" style="mask-type:luminance" maskUnits="userSpaceOnUse" x="96" y="119" width="69" height="50">
<path d="M96.1792 139.622C94.505 152.841 108.342 165.48 127.086 167.853C145.83 170.229 162.382 161.437 164.056 148.218C165.73 135.002 151.893 122.362 133.149 119.987C114.407 117.614 97.8534 126.404 96.1792 139.622Z" fill="white"/>
</mask>
<g mask="url(#mask119_42_16525)">
<path d="M93.1486 163.554L99.2112 115.688L167.084 124.286L161.021 172.152L93.1486 163.554Z" fill="white"/>
</g>
</g>
</g>
</g>
</g>
</g>
</g>
<mask id="mask120_42_16525" style="mask-type:luminance" maskUnits="userSpaceOnUse" x="95" y="119" width="70" height="50">
<path d="M95.6762 119.562H164.427V168.321H95.6762V119.562Z" fill="white"/>
</mask>
<g mask="url(#mask120_42_16525)">
<mask id="mask121_42_16525" style="mask-type:luminance" maskUnits="userSpaceOnUse" x="93" y="115" width="75" height="58">
<path d="M93.1548 163.555L99.2193 115.666L167.064 124.259L160.997 172.148L93.1548 163.555Z" fill="white"/>
</mask>
<g mask="url(#mask121_42_16525)">
<mask id="mask122_42_16525" style="mask-type:luminance" maskUnits="userSpaceOnUse" x="93" y="115" width="75" height="58">
<path d="M93.153 163.555L99.2212 115.647L167.572 124.303L161.504 172.213L93.153 163.555Z" fill="white"/>
</mask>
<g mask="url(#mask122_42_16525)">
<mask id="mask123_42_16525" style="mask-type:luminance" maskUnits="userSpaceOnUse" x="96" y="119" width="69" height="50">
<path d="M96.185 139.624C94.5108 152.84 108.346 165.479 127.088 167.853C145.83 170.226 162.38 161.436 164.054 148.219C165.728 135.005 151.891 122.365 133.151 119.992C114.409 117.617 97.8592 126.407 96.185 139.624Z" fill="white"/>
</mask>
<g mask="url(#mask123_42_16525)">
<path d="M96.1843 139.624C94.5101 152.84 108.346 165.48 127.088 167.853C145.829 170.226 162.379 161.436 164.053 148.219C165.728 135.005 151.89 122.365 133.15 119.992C114.408 117.617 97.8585 126.407 96.1843 139.624Z" stroke="black" stroke-width="2.19418"/>
</g>
</g>
</g>
</g>
<mask id="mask124_42_16525" style="mask-type:luminance" maskUnits="userSpaceOnUse" x="96" y="112" width="70" height="50">
<path d="M96.6525 112.248H165.403V161.007H96.6525V112.248Z" fill="white"/>
</mask>
<g mask="url(#mask124_42_16525)">
<mask id="mask125_42_16525" style="mask-type:luminance" maskUnits="userSpaceOnUse" x="94" y="108" width="75" height="57">
<path d="M94.1993 156.313L100.264 108.447L168.323 117.065L162.261 164.933L94.1993 156.313Z" fill="white"/>
</mask>
<g mask="url(#mask125_42_16525)">
<mask id="mask126_42_16525" style="mask-type:luminance" maskUnits="userSpaceOnUse" x="97" y="112" width="69" height="49">
<path d="M97.2321 132.379C95.5579 145.597 109.395 158.237 128.139 160.61C146.883 162.985 163.435 154.195 165.109 140.977C166.783 127.758 152.946 115.119 134.202 112.744C115.458 110.371 98.9064 119.161 97.2321 132.379Z" fill="white"/>
</mask>
<g mask="url(#mask126_42_16525)">
<mask id="mask127_42_16525" style="mask-type:luminance" maskUnits="userSpaceOnUse" x="96" y="112" width="70" height="50">
<path d="M165.401 112.249H96.6502V161.008H165.401V112.249Z" fill="white"/>
</mask>
<g mask="url(#mask127_42_16525)">
<mask id="mask128_42_16525" style="mask-type:luminance" maskUnits="userSpaceOnUse" x="96" y="112" width="70" height="50">
<path d="M96.6495 112.248H165.4V161.008H96.6495V112.248Z" fill="white"/>
</mask>
<g mask="url(#mask128_42_16525)">
<mask id="mask129_42_16525" style="mask-type:luminance" maskUnits="userSpaceOnUse" x="94" y="108" width="75" height="57">
<path d="M94.1991 156.314L100.264 108.447L168.323 117.066L162.26 164.934L94.1991 156.314Z" fill="white"/>
</mask>
<g mask="url(#mask129_42_16525)">
<mask id="mask130_42_16525" style="mask-type:luminance" maskUnits="userSpaceOnUse" x="97" y="112" width="69" height="49">
<path d="M97.2295 132.38C95.5553 145.598 109.393 158.237 128.136 160.611C146.88 162.986 163.432 154.196 165.106 140.977C166.78 127.759 152.943 115.12 134.199 112.744C115.455 110.371 98.9037 119.161 97.2295 132.38Z" fill="white"/>
</mask>
<g mask="url(#mask130_42_16525)">
<path d="M94.1982 156.314L100.263 108.448L168.135 117.043L162.073 164.91L94.1982 156.314Z" fill="white"/>
</g>
</g>
</g>
</g>
</g>
</g>
</g>
<mask id="mask131_42_16525" style="mask-type:luminance" maskUnits="userSpaceOnUse" x="96" y="112" width="70" height="50">
<path d="M96.6525 112.248H165.403V161.007H96.6525V112.248Z" fill="white"/>
</mask>
<g mask="url(#mask131_42_16525)">
<mask id="mask132_42_16525" style="mask-type:luminance" maskUnits="userSpaceOnUse" x="94" y="108" width="75" height="57">
<path d="M94.1986 156.313L100.265 108.424L168.107 117.016L162.043 164.905L94.1986 156.313Z" fill="white"/>
</mask>
<g mask="url(#mask132_42_16525)">
<mask id="mask133_42_16525" style="mask-type:luminance" maskUnits="userSpaceOnUse" x="94" y="108" width="75" height="57">
<path d="M94.2032 156.313L100.272 108.403L168.622 117.059L162.554 164.969L94.2032 156.313Z" fill="white"/>
</mask>
<g mask="url(#mask133_42_16525)">
<mask id="mask134_42_16525" style="mask-type:luminance" maskUnits="userSpaceOnUse" x="97" y="112" width="69" height="49">
<path d="M97.2336 132.382C95.5613 145.599 109.397 158.236 128.139 160.609C146.879 162.985 163.43 154.194 165.105 140.978C166.777 127.762 152.941 115.122 134.199 112.749C115.459 110.376 98.9078 119.166 97.2336 132.382Z" fill="white"/>
</mask>
<g mask="url(#mask134_42_16525)">
<path d="M97.2321 132.382C95.5598 145.599 109.395 158.236 128.137 160.609C146.877 162.984 163.429 154.194 165.101 140.978C166.775 127.761 152.94 115.122 134.198 112.749C115.458 110.376 98.9063 119.166 97.2321 132.382Z" stroke="black" stroke-width="2.19418"/>
</g>
</g>
</g>
</g>
<mask id="mask135_42_16525" style="mask-type:luminance" maskUnits="userSpaceOnUse" x="105" y="119" width="52" height="37">
<path d="M105.428 119.562H156.138V155.644H105.428V119.562Z" fill="white"/>
</mask>
<g mask="url(#mask135_42_16525)">
<mask id="mask136_42_16525" style="mask-type:luminance" maskUnits="userSpaceOnUse" x="103" y="116" width="55" height="43">
<path d="M103.513 151.93L107.963 116.791L157.924 123.12L153.473 158.257L103.513 151.93Z" fill="white"/>
</mask>
<g mask="url(#mask136_42_16525)">
<mask id="mask137_42_16525" style="mask-type:luminance" maskUnits="userSpaceOnUse" x="105" y="119" width="51" height="37">
<path d="M105.736 134.359C104.508 144.064 114.666 153.341 128.425 155.084C142.184 156.827 154.334 150.374 155.563 140.671C156.791 130.969 146.633 121.689 132.874 119.947C119.115 118.204 106.965 124.657 105.736 134.359Z" fill="white"/>
</mask>
<g mask="url(#mask137_42_16525)">
<mask id="mask138_42_16525" style="mask-type:luminance" maskUnits="userSpaceOnUse" x="105" y="119" width="52" height="37">
<path d="M156.136 119.562H105.426V155.644H156.136V119.562Z" fill="white"/>
</mask>
<g mask="url(#mask138_42_16525)">
<mask id="mask139_42_16525" style="mask-type:luminance" maskUnits="userSpaceOnUse" x="105" y="119" width="52" height="37">
<path d="M105.424 119.562H156.134V155.644H105.424V119.562Z" fill="white"/>
</mask>
<g mask="url(#mask139_42_16525)">
<mask id="mask140_42_16525" style="mask-type:luminance" maskUnits="userSpaceOnUse" x="103" y="116" width="55" height="43">
<path d="M103.51 151.93L107.959 116.791L157.92 123.12L153.469 158.257L103.51 151.93Z" fill="white"/>
</mask>
<g mask="url(#mask140_42_16525)">
<mask id="mask141_42_16525" style="mask-type:luminance" maskUnits="userSpaceOnUse" x="105" y="119" width="51" height="37">
<path d="M105.734 134.359C104.505 144.064 114.663 153.341 128.422 155.084C142.181 156.827 154.331 150.374 155.56 140.671C156.788 130.969 146.631 121.689 132.871 119.947C119.112 118.204 106.962 124.657 105.734 134.359Z" fill="white"/>
</mask>
<g mask="url(#mask141_42_16525)">
<path d="M103.509 151.93L107.958 116.791L157.782 123.103L153.331 158.24L103.509 151.93Z" fill="black"/>
</g>
</g>
</g>
</g>
</g>
</g>
</g>
<mask id="mask142_42_16525" style="mask-type:luminance" maskUnits="userSpaceOnUse" x="105" y="119" width="52" height="37">
<path d="M105.428 119.562H156.138V155.644H105.428V119.562Z" fill="white"/>
</mask>
<g mask="url(#mask142_42_16525)">
<mask id="mask143_42_16525" style="mask-type:luminance" maskUnits="userSpaceOnUse" x="103" y="116" width="55" height="43">
<path d="M103.512 151.929L107.969 116.737L157.671 123.032L153.214 158.224L103.512 151.929Z" fill="white"/>
</mask>
<g mask="url(#mask143_42_16525)">
<mask id="mask144_42_16525" style="mask-type:luminance" maskUnits="userSpaceOnUse" x="103" y="116" width="56" height="43">
<path d="M103.513 151.928L107.967 116.758L158.143 123.114L153.688 158.284L103.513 151.928Z" fill="white"/>
</mask>
<g mask="url(#mask144_42_16525)">
<mask id="mask145_42_16525" style="mask-type:luminance" maskUnits="userSpaceOnUse" x="105" y="119" width="51" height="37">
<path d="M105.736 134.361C104.507 144.064 114.663 153.341 128.422 155.084C142.18 156.827 154.33 150.374 155.558 140.672C156.787 130.969 146.629 121.692 132.872 119.951C119.114 118.208 106.964 124.659 105.736 134.361Z" fill="white"/>
</mask>
<g mask="url(#mask145_42_16525)">
<path d="M105.737 134.361C104.509 144.063 114.664 153.341 128.424 155.083C142.181 156.826 154.331 150.373 155.559 140.671C156.788 130.968 146.63 121.691 132.873 119.95C119.115 118.207 106.966 124.658 105.737 134.361Z" stroke="black" stroke-width="2.19418"/>
</g>
</g>
</g>
</g>
<path d="M100.865 153.312L102.271 146.754" stroke="black" stroke-width="1.46278"/>
<path d="M108.354 160.827L111.47 154.888" stroke="black" stroke-width="1.46278"/>
<path d="M119.399 165.183L121.585 158.843" stroke="black" stroke-width="1.46278"/>
<path d="M131.884 167.617L132.189 160.916" stroke="black" stroke-width="1.46278"/>
<path d="M143.091 166.352L142.446 159.674" stroke="black" stroke-width="1.46278"/>
<path d="M153.806 162.396L153.162 155.72" stroke="black" stroke-width="1.46278"/>
<mask id="mask146_42_16525" style="mask-type:luminance" maskUnits="userSpaceOnUse" x="109" y="121" width="47" height="34">
<path d="M109.328 121.512H155.162V154.669H109.328V121.512Z" fill="white"/>
</mask>
<g mask="url(#mask146_42_16525)">
<mask id="mask147_42_16525" style="mask-type:luminance" maskUnits="userSpaceOnUse" x="107" y="119" width="50" height="39">
<path d="M107.697 151.337L111.786 119.051L156.808 124.753L152.719 157.039L107.697 151.337Z" fill="white"/>
</mask>
<g mask="url(#mask147_42_16525)">
<mask id="mask148_42_16525" style="mask-type:luminance" maskUnits="userSpaceOnUse" x="109" y="121" width="46" height="34">
<path d="M109.741 135.195C108.611 144.109 117.746 152.61 130.146 154.181C142.545 155.75 153.51 149.796 154.64 140.881C155.769 131.967 146.634 123.466 134.235 121.895C121.835 120.325 110.87 126.279 109.741 135.195Z" fill="white"/>
</mask>
<g mask="url(#mask148_42_16525)">
<mask id="mask149_42_16525" style="mask-type:luminance" maskUnits="userSpaceOnUse" x="109" y="121" width="47" height="34">
<path d="M155.165 121.512H109.331V154.669H155.165V121.512Z" fill="white"/>
</mask>
<g mask="url(#mask149_42_16525)">
<mask id="mask150_42_16525" style="mask-type:luminance" maskUnits="userSpaceOnUse" x="109" y="121" width="47" height="34">
<path d="M109.332 121.512H155.166V154.669H109.332V121.512Z" fill="white"/>
</mask>
<g mask="url(#mask150_42_16525)">
<mask id="mask151_42_16525" style="mask-type:luminance" maskUnits="userSpaceOnUse" x="107" y="119" width="50" height="39">
<path d="M107.698 151.337L111.787 119.051L156.81 124.753L152.721 157.039L107.698 151.337Z" fill="white"/>
</mask>
<g mask="url(#mask151_42_16525)">
<mask id="mask152_42_16525" style="mask-type:luminance" maskUnits="userSpaceOnUse" x="109" y="121" width="46" height="34">
<path d="M109.747 135.195C108.617 144.109 117.752 152.61 130.152 154.181C142.551 155.75 153.516 149.796 154.646 140.881C155.775 131.967 146.64 123.466 134.241 121.895C121.842 120.325 110.876 126.279 109.747 135.195Z" fill="white"/>
</mask>
<g mask="url(#mask152_42_16525)">
<path d="M107.699 151.337L111.789 119.051L156.686 124.738L152.596 157.022L107.699 151.337Z" fill="#83BBFF"/>
</g>
</g>
</g>
</g>
</g>
</g>
</g>
<mask id="mask153_42_16525" style="mask-type:luminance" maskUnits="userSpaceOnUse" x="122" y="129" width="21" height="18">
<path d="M122.981 129.314H142.972V146.867H122.981V129.314Z" fill="white"/>
</mask>
<g mask="url(#mask153_42_16525)">
<mask id="mask154_42_16525" style="mask-type:luminance" maskUnits="userSpaceOnUse" x="120" y="127" width="25" height="22">
<path d="M120.555 140.257L126.338 127.622L144.96 136.145L139.175 148.781L120.555 140.257Z" fill="white"/>
</mask>
<g mask="url(#mask154_42_16525)">
<mask id="mask155_42_16525" style="mask-type:luminance" maskUnits="userSpaceOnUse" x="120" y="127" width="25" height="22">
<path d="M120.555 140.257L126.338 127.622L144.96 136.145L139.175 148.781L120.555 140.257Z" fill="white"/>
</mask>
<g mask="url(#mask155_42_16525)">
<path d="M134.717 133.25C133.708 133.725 132.653 134.612 131.586 135.997L128.487 134.58C129.049 133.827 129.761 133.216 130.624 132.746C130.738 132.654 130.853 132.563 130.847 132.416C130.902 132.296 130.896 132.149 130.805 132.037L129.466 129.767C129.375 129.652 129.281 129.538 129.137 129.542C129.017 129.489 128.843 129.553 128.756 129.586C127.262 130.487 126.072 131.671 125.211 133.079L124.556 132.78C124.318 132.669 123.998 132.74 123.861 133.037L123.234 134.408C123.124 134.646 123.194 134.966 123.491 135.104L124.146 135.403C123.693 136.709 123.68 137.999 124.072 139.187C124.47 140.522 125.384 141.518 126.754 142.145C128.125 142.772 129.329 142.819 130.426 142.313C131.435 141.837 132.403 140.983 133.443 139.658L136.66 141.13C135.957 142.035 134.986 142.741 133.715 143.313C133.601 143.404 133.487 143.497 133.432 143.616C133.376 143.736 133.382 143.882 133.473 143.996L134.612 146.391C134.71 146.652 135.033 146.728 135.294 146.631C137.287 145.741 138.852 144.368 139.997 142.657L141.128 143.176C141.366 143.284 141.686 143.216 141.824 142.917L142.45 141.547C142.559 141.309 142.49 140.987 142.191 140.852L141.06 140.334C141.568 138.909 141.582 137.618 141.216 136.37C140.82 135.035 139.932 133.98 138.563 133.353C137.104 132.757 135.841 132.685 134.717 133.25ZM137.045 136.982C137.403 137.145 137.645 137.401 137.748 137.808C137.818 138.128 137.801 138.481 137.755 138.894L135.073 137.665C135.557 137.239 135.873 137.023 136.047 136.959C136.363 136.742 136.687 136.818 137.045 136.982ZM128.066 138.494C127.708 138.33 127.523 138.102 127.422 137.694C127.325 137.433 127.316 137.142 127.392 136.816L129.895 137.961C129.498 138.357 129.209 138.513 129.036 138.578C128.689 138.707 128.422 138.658 128.066 138.494Z" fill="white"/>
</g>
</g>
</g>
<mask id="mask156_42_16525" style="mask-type:luminance" maskUnits="userSpaceOnUse" x="-45" y="-84" width="475" height="475">
<path d="M429.189 -83.7655H-44.7529V390.176H429.189V-83.7655Z" fill="black" fill-opacity="0.13"/>
</mask>
<g mask="url(#mask156_42_16525)">
<mask id="mask157_42_16525" style="mask-type:luminance" maskUnits="userSpaceOnUse" x="161" y="101" width="63" height="47">
<path d="M223.916 101.032H161.992V147.354H223.916V101.032Z" fill="white"/>
</mask>
<g mask="url(#mask157_42_16525)">
<mask id="mask158_42_16525" style="mask-type:luminance" maskUnits="userSpaceOnUse" x="163" y="103" width="59" height="42">
<path d="M163.944 103.47H221.967V144.916H163.944V103.47Z" fill="white"/>
</mask>
<g mask="url(#mask158_42_16525)">
<mask id="mask159_42_16525" style="mask-type:luminance" maskUnits="userSpaceOnUse" x="162" y="101" width="62" height="46">
<path d="M165.946 101.214L223.558 106.221L220.027 146.851L162.415 141.844L165.946 101.214Z" fill="white"/>
</mask>
<g mask="url(#mask159_42_16525)">
<mask id="mask160_42_16525" style="mask-type:luminance" maskUnits="userSpaceOnUse" x="164" y="103" width="58" height="42">
<path d="M194.692 103.713C178.817 102.332 165.155 110.309 164.18 121.529C163.204 132.747 175.284 142.962 191.161 144.343C207.037 145.722 220.697 137.745 221.672 126.527C222.647 115.306 210.568 105.092 194.692 103.713Z" fill="white"/>
</mask>
<g mask="url(#mask160_42_16525)">
<mask id="mask161_42_16525" style="mask-type:luminance" maskUnits="userSpaceOnUse" x="163" y="103" width="59" height="42">
<path d="M221.971 103.471H163.948V144.917H221.971V103.471Z" fill="white"/>
</mask>
<g mask="url(#mask161_42_16525)">
<mask id="mask162_42_16525" style="mask-type:luminance" maskUnits="userSpaceOnUse" x="163" y="103" width="59" height="42">
<path d="M163.95 103.471H221.974V144.917H163.95V103.471Z" fill="white"/>
</mask>
<g mask="url(#mask162_42_16525)">
<mask id="mask163_42_16525" style="mask-type:luminance" maskUnits="userSpaceOnUse" x="162" y="101" width="62" height="46">
<path d="M165.952 101.214L223.564 106.222L220.033 146.852L162.421 141.845L165.952 101.214Z" fill="white"/>
</mask>
<g mask="url(#mask163_42_16525)">
<mask id="mask164_42_16525" style="mask-type:luminance" maskUnits="userSpaceOnUse" x="164" y="103" width="58" height="42">
<path d="M194.698 103.713C178.823 102.333 165.161 110.309 164.185 121.53C163.21 132.748 175.29 142.963 191.167 144.344C207.042 145.723 220.703 137.746 221.678 126.528C222.653 115.307 210.574 105.092 194.698 103.713Z" fill="white"/>
</mask>
<g mask="url(#mask164_42_16525)">
<path d="M165.952 101.214L223.406 106.209L219.875 146.839L162.42 141.845L165.952 101.214Z" fill="black"/>
</g>
</g>
</g>
</g>
</g>
</g>
</g>
</g>
</g>
<mask id="mask165_42_16525" style="mask-type:luminance" maskUnits="userSpaceOnUse" x="161" y="100" width="59" height="42">
<path d="M161.503 100.545H219.526V141.99H161.503V100.545Z" fill="white"/>
</mask>
<g mask="url(#mask165_42_16525)">
<mask id="mask166_42_16525" style="mask-type:luminance" maskUnits="userSpaceOnUse" x="159" y="97" width="63" height="49">
<path d="M159.346 137.812L164.458 97.4447L221.857 104.715L216.745 145.082L159.346 137.812Z" fill="white"/>
</mask>
<g mask="url(#mask166_42_16525)">
<mask id="mask167_42_16525" style="mask-type:luminance" maskUnits="userSpaceOnUse" x="161" y="100" width="59" height="42">
<path d="M161.9 117.628C160.486 128.776 172.158 139.436 187.965 141.438C203.774 143.44 217.733 136.027 219.144 124.879C220.556 113.731 208.886 103.07 193.079 101.068C177.27 99.0667 163.311 106.48 161.9 117.628Z" fill="white"/>
</mask>
<g mask="url(#mask167_42_16525)">
<mask id="mask168_42_16525" style="mask-type:luminance" maskUnits="userSpaceOnUse" x="161" y="100" width="59" height="42">
<path d="M219.526 100.545H161.503V141.99H219.526V100.545Z" fill="white"/>
</mask>
<g mask="url(#mask168_42_16525)">
<mask id="mask169_42_16525" style="mask-type:luminance" maskUnits="userSpaceOnUse" x="161" y="100" width="59" height="42">
<path d="M161.504 100.545H219.528V141.99H161.504V100.545Z" fill="white"/>
</mask>
<g mask="url(#mask169_42_16525)">
<mask id="mask170_42_16525" style="mask-type:luminance" maskUnits="userSpaceOnUse" x="159" y="97" width="63" height="49">
<path d="M159.349 137.812L164.461 97.4445L221.86 104.715L216.748 145.082L159.349 137.812Z" fill="white"/>
</mask>
<g mask="url(#mask170_42_16525)">
<mask id="mask171_42_16525" style="mask-type:luminance" maskUnits="userSpaceOnUse" x="161" y="100" width="59" height="42">
<path d="M161.904 117.629C160.491 128.777 172.163 139.437 187.97 141.439C203.778 143.441 217.738 136.028 219.149 124.88C220.56 113.732 208.89 103.071 193.084 101.07C177.275 99.0678 163.316 106.481 161.904 117.629Z" fill="white"/>
</mask>
<g mask="url(#mask171_42_16525)">
<path d="M159.349 137.812L164.461 97.4445L221.704 104.694L216.59 145.063L159.349 137.812Z" fill="white"/>
</g>
</g>
</g>
</g>
</g>
</g>
</g>
<mask id="mask172_42_16525" style="mask-type:luminance" maskUnits="userSpaceOnUse" x="161" y="100" width="59" height="42">
<path d="M161.503 100.545H219.526V141.99H161.503V100.545Z" fill="white"/>
</mask>
<g mask="url(#mask172_42_16525)">
<mask id="mask173_42_16525" style="mask-type:luminance" maskUnits="userSpaceOnUse" x="159" y="97" width="63" height="49">
<path d="M159.346 137.812L164.445 97.5415L221.768 104.802L216.667 145.072L159.346 137.812Z" fill="white"/>
</mask>
<g mask="url(#mask173_42_16525)">
<mask id="mask174_42_16525" style="mask-type:luminance" maskUnits="userSpaceOnUse" x="159" y="97" width="64" height="49">
<path d="M159.346 137.811L164.464 97.4032L222.112 104.706L216.994 145.113L159.346 137.811Z" fill="white"/>
</mask>
<g mask="url(#mask174_42_16525)">
<mask id="mask175_42_16525" style="mask-type:luminance" maskUnits="userSpaceOnUse" x="161" y="100" width="59" height="42">
<path d="M161.902 117.629C160.491 128.776 172.159 139.436 187.965 141.438C203.774 143.44 217.732 136.027 219.143 124.879C220.556 113.733 208.886 103.072 193.08 101.07C177.273 99.0685 163.313 106.481 161.902 117.629Z" fill="white"/>
</mask>
<g mask="url(#mask175_42_16525)">
<path d="M161.902 117.63C160.491 128.776 172.159 139.436 187.966 141.438C203.775 143.44 217.732 136.027 219.143 124.879C220.557 113.733 208.887 103.072 193.08 101.071C177.273 99.0687 163.314 106.482 161.902 117.63Z" stroke="black" stroke-width="2.19418"/>
</g>
</g>
</g>
</g>
<mask id="mask176_42_16525" style="mask-type:luminance" maskUnits="userSpaceOnUse" x="162" y="94" width="59" height="43">
<path d="M162.475 94.2065H220.499V136.14H162.475V94.2065Z" fill="white"/>
</mask>
<g mask="url(#mask176_42_16525)">
<mask id="mask177_42_16525" style="mask-type:luminance" maskUnits="userSpaceOnUse" x="160" y="91" width="63" height="48">
<path d="M160.22 131.703L165.334 91.3359L222.733 98.606L217.621 138.974L160.22 131.703Z" fill="white"/>
</mask>
<g mask="url(#mask177_42_16525)">
<mask id="mask178_42_16525" style="mask-type:luminance" maskUnits="userSpaceOnUse" x="162" y="94" width="59" height="42">
<path d="M162.781 111.52C161.368 122.668 173.038 133.329 188.847 135.33C204.655 137.332 218.615 129.917 220.026 118.771C221.437 107.623 209.767 96.9628 193.959 94.961C178.152 92.9592 164.193 100.372 162.781 111.52Z" fill="white"/>
</mask>
<g mask="url(#mask178_42_16525)">
<mask id="mask179_42_16525" style="mask-type:luminance" maskUnits="userSpaceOnUse" x="162" y="94" width="59" height="43">
<path d="M220.497 94.2078H162.473V136.141H220.497V94.2078Z" fill="white"/>
</mask>
<g mask="url(#mask179_42_16525)">
<mask id="mask180_42_16525" style="mask-type:luminance" maskUnits="userSpaceOnUse" x="162" y="94" width="59" height="43">
<path d="M162.471 94.2075H220.495V136.141H162.471V94.2075Z" fill="white"/>
</mask>
<g mask="url(#mask180_42_16525)">
<mask id="mask181_42_16525" style="mask-type:luminance" maskUnits="userSpaceOnUse" x="160" y="91" width="63" height="48">
<path d="M160.216 131.704L165.33 91.3369L222.729 98.607L217.617 138.975L160.216 131.704Z" fill="white"/>
</mask>
<g mask="url(#mask181_42_16525)">
<mask id="mask182_42_16525" style="mask-type:luminance" maskUnits="userSpaceOnUse" x="162" y="94" width="59" height="42">
<path d="M162.778 111.52C161.365 122.668 173.034 133.329 188.843 135.331C204.652 137.332 218.611 129.918 220.023 118.772C221.434 107.624 209.764 96.9631 193.955 94.9613C178.148 92.9595 164.189 100.372 162.778 111.52Z" fill="white"/>
</mask>
<g mask="url(#mask182_42_16525)">
<path d="M160.218 131.704L165.332 91.3362L222.573 98.5853L217.461 138.955L160.218 131.704Z" fill="white"/>
</g>
</g>
</g>
</g>
</g>
</g>
</g>
<mask id="mask183_42_16525" style="mask-type:luminance" maskUnits="userSpaceOnUse" x="162" y="94" width="59" height="43">
<path d="M162.475 94.2065H220.499V136.14H162.475V94.2065Z" fill="white"/>
</mask>
<g mask="url(#mask183_42_16525)">
<mask id="mask184_42_16525" style="mask-type:luminance" maskUnits="userSpaceOnUse" x="160" y="91" width="63" height="48">
<path d="M160.221 131.704L165.321 91.4341L222.644 98.6947L217.544 138.965L160.221 131.704Z" fill="white"/>
</mask>
<g mask="url(#mask184_42_16525)">
<mask id="mask185_42_16525" style="mask-type:luminance" maskUnits="userSpaceOnUse" x="160" y="91" width="63" height="49">
<path d="M160.219 131.704L165.339 91.2966L222.985 98.5991L217.868 139.007L160.219 131.704Z" fill="white"/>
</mask>
<g mask="url(#mask185_42_16525)">
<mask id="mask186_42_16525" style="mask-type:luminance" maskUnits="userSpaceOnUse" x="162" y="94" width="59" height="42">
<path d="M162.78 111.522C161.367 122.668 173.037 133.328 188.844 135.33C204.65 137.332 218.61 129.919 220.021 118.771C221.434 107.625 209.764 96.9646 193.958 94.9628C178.151 92.9609 164.191 100.374 162.78 111.522Z" fill="white"/>
</mask>
<g mask="url(#mask186_42_16525)">
<path d="M162.779 111.522C161.366 122.668 173.036 133.328 188.843 135.33C204.65 137.332 218.609 129.919 220.02 118.771C221.434 107.625 209.764 96.9642 193.957 94.9624C178.15 92.9606 164.191 100.374 162.779 111.522Z" stroke="black" stroke-width="2.19418"/>
</g>
</g>
</g>
</g>
<mask id="mask187_42_16525" style="mask-type:luminance" maskUnits="userSpaceOnUse" x="169" y="100" width="44" height="32">
<path d="M169.791 100.545H212.212V131.264H169.791V100.545Z" fill="white"/>
</mask>
<g mask="url(#mask187_42_16525)">
<mask id="mask188_42_16525" style="mask-type:luminance" maskUnits="userSpaceOnUse" x="168" y="98" width="46" height="36">
<path d="M168.073 128.007L171.825 98.3743L213.962 103.711L210.208 133.344L168.073 128.007Z" fill="white"/>
</mask>
<g mask="url(#mask188_42_16525)">
<mask id="mask189_42_16525" style="mask-type:luminance" maskUnits="userSpaceOnUse" x="169" y="100" width="44" height="31">
<path d="M169.953 113.191C168.916 121.373 177.484 129.199 189.087 130.668C200.692 132.138 210.939 126.697 211.975 118.512C213.011 110.33 204.444 102.504 192.841 101.035C181.236 99.5646 170.989 105.006 169.953 113.191Z" fill="white"/>
</mask>
<g mask="url(#mask189_42_16525)">
<mask id="mask190_42_16525" style="mask-type:luminance" maskUnits="userSpaceOnUse" x="169" y="100" width="44" height="32">
<path d="M212.209 100.545H169.789V131.263H212.209V100.545Z" fill="white"/>
</mask>
<g mask="url(#mask190_42_16525)">
<mask id="mask191_42_16525" style="mask-type:luminance" maskUnits="userSpaceOnUse" x="169" y="100" width="44" height="32">
<path d="M169.786 100.544H212.207V131.263H169.786V100.544Z" fill="white"/>
</mask>
<g mask="url(#mask191_42_16525)">
<mask id="mask192_42_16525" style="mask-type:luminance" maskUnits="userSpaceOnUse" x="168" y="98" width="46" height="36">
<path d="M168.069 128.007L171.821 98.3739L213.958 103.711L210.204 133.344L168.069 128.007Z" fill="white"/>
</mask>
<g mask="url(#mask192_42_16525)">
<mask id="mask193_42_16525" style="mask-type:luminance" maskUnits="userSpaceOnUse" x="169" y="100" width="44" height="31">
<path d="M169.948 113.19C168.912 121.373 177.479 129.199 189.083 130.667C200.688 132.138 210.935 126.696 211.971 118.512C213.007 110.329 204.44 102.503 192.837 101.035C181.232 99.5643 170.984 105.006 169.948 113.19Z" fill="white"/>
</mask>
<g mask="url(#mask193_42_16525)">
<path d="M168.07 128.007L171.822 98.3739L213.843 103.696L210.089 133.328L168.07 128.007Z" fill="black"/>
</g>
</g>
</g>
</g>
</g>
</g>
</g>
<mask id="mask194_42_16525" style="mask-type:luminance" maskUnits="userSpaceOnUse" x="169" y="100" width="44" height="32">
<path d="M169.791 100.545H212.212V131.264H169.791V100.545Z" fill="white"/>
</mask>
<g mask="url(#mask194_42_16525)">
<mask id="mask195_42_16525" style="mask-type:luminance" maskUnits="userSpaceOnUse" x="168" y="98" width="46" height="36">
<path d="M168.073 128.007L171.84 98.2581L213.924 103.587L210.157 133.338L168.073 128.007Z" fill="white"/>
</mask>
<g mask="url(#mask195_42_16525)">
<mask id="mask196_42_16525" style="mask-type:luminance" maskUnits="userSpaceOnUse" x="168" y="98" width="47" height="36">
<path d="M168.076 128.007L171.832 98.3474L214.148 103.707L210.392 133.367L168.076 128.007Z" fill="white"/>
</mask>
<g mask="url(#mask196_42_16525)">
<mask id="mask197_42_16525" style="mask-type:luminance" maskUnits="userSpaceOnUse" x="169" y="100" width="44" height="31">
<path d="M169.953 113.193C168.916 121.375 177.482 129.2 189.085 130.668C200.688 132.138 210.933 126.697 211.969 118.514C213.006 110.332 204.44 102.508 192.837 101.039C181.236 99.5687 170.989 105.01 169.953 113.193Z" fill="white"/>
</mask>
<g mask="url(#mask197_42_16525)">
<path d="M169.953 113.192C168.917 121.375 177.482 129.199 189.085 130.668C200.688 132.138 210.934 126.696 211.97 118.514C213.006 110.332 204.441 102.507 192.837 101.039C181.236 99.5682 170.989 105.01 169.953 113.192Z" stroke="black" stroke-width="2.19418"/>
</g>
</g>
</g>
</g>
<path d="M165.846 129.176L167.033 123.645" stroke="black" stroke-width="1.46278"/>
<path d="M172.163 135.511L174.791 130.503" stroke="black" stroke-width="1.46278"/>
<path d="M181.48 139.275L183.322 133.927" stroke="black" stroke-width="1.46278"/>
<path d="M192.009 141.239L192.267 135.588" stroke="black" stroke-width="1.46278"/>
<path d="M201.462 139.864L200.918 134.234" stroke="black" stroke-width="1.46278"/>
<path d="M210.794 136.604L210.251 130.974" stroke="black" stroke-width="1.46278"/>
<mask id="mask198_42_16525" style="mask-type:luminance" maskUnits="userSpaceOnUse" x="173" y="102" width="39" height="29">
<path d="M173.205 102.008H211.725V130.289H173.205V102.008Z" fill="white"/>
</mask>
<g mask="url(#mask198_42_16525)">
<mask id="mask199_42_16525" style="mask-type:luminance" maskUnits="userSpaceOnUse" x="171" y="100" width="43" height="33">
<path d="M171.604 127.508L175.053 100.28L213.024 105.09L209.575 132.317L171.604 127.508Z" fill="white"/>
</mask>
<g mask="url(#mask199_42_16525)">
<mask id="mask200_42_16525" style="mask-type:luminance" maskUnits="userSpaceOnUse" x="173" y="102" width="39" height="29">
<path d="M173.328 113.893C172.376 121.413 180.08 128.582 190.537 129.905C200.994 131.231 210.243 126.209 211.195 118.691C212.147 111.171 204.443 104.002 193.986 102.678C183.53 101.353 174.281 106.375 173.328 113.893Z" fill="white"/>
</mask>
<g mask="url(#mask200_42_16525)">
<mask id="mask201_42_16525" style="mask-type:luminance" maskUnits="userSpaceOnUse" x="173" y="102" width="39" height="29">
<path d="M211.722 102.008H173.202V130.289H211.722V102.008Z" fill="white"/>
</mask>
<g mask="url(#mask201_42_16525)">
<mask id="mask202_42_16525" style="mask-type:luminance" maskUnits="userSpaceOnUse" x="173" y="102" width="39" height="29">
<path d="M173.202 102.008H211.722V130.289H173.202V102.008Z" fill="white"/>
</mask>
<g mask="url(#mask202_42_16525)">
<mask id="mask203_42_16525" style="mask-type:luminance" maskUnits="userSpaceOnUse" x="171" y="100" width="43" height="33">
<path d="M171.606 127.508L175.055 100.28L213.027 105.09L209.578 132.317L171.606 127.508Z" fill="white"/>
</mask>
<g mask="url(#mask203_42_16525)">
<mask id="mask204_42_16525" style="mask-type:luminance" maskUnits="userSpaceOnUse" x="173" y="102" width="39" height="29">
<path d="M173.332 113.893C172.38 121.413 180.084 128.582 190.541 129.905C200.998 131.231 210.247 126.209 211.199 118.691C212.151 111.171 204.447 104.002 193.99 102.678C183.534 101.353 174.285 106.375 173.332 113.893Z" fill="white"/>
</mask>
<g mask="url(#mask204_42_16525)">
<path d="M171.607 127.508L175.057 100.28L212.922 105.076L209.472 132.304L171.607 127.508Z" fill="#83BBFF"/>
</g>
</g>
</g>
</g>
</g>
</g>
</g>
<mask id="mask205_42_16525" style="mask-type:luminance" maskUnits="userSpaceOnUse" x="184" y="108" width="17" height="16">
<path d="M184.419 108.835H200.997V123.95H184.419V108.835Z" fill="white"/>
</mask>
<g mask="url(#mask205_42_16525)">
<mask id="mask206_42_16525" style="mask-type:luminance" maskUnits="userSpaceOnUse" x="182" y="107" width="21" height="19">
<path d="M182.45 118.164L187.32 107.522L202.95 114.676L198.08 125.318L182.45 118.164Z" fill="white"/>
</mask>
<g mask="url(#mask206_42_16525)">
<mask id="mask207_42_16525" style="mask-type:luminance" maskUnits="userSpaceOnUse" x="182" y="107" width="21" height="19">
<path d="M182.45 118.164L187.32 107.522L202.95 114.676L198.08 125.318L182.45 118.164Z" fill="white"/>
</mask>
<g mask="url(#mask207_42_16525)">
<path d="M194.394 112.254C193.541 112.656 192.651 113.403 191.752 114.572L189.139 113.376C189.612 112.742 190.212 112.226 190.941 111.829C191.036 111.751 191.133 111.675 191.13 111.551C191.175 111.45 191.171 111.327 191.093 111.231L189.964 109.315C189.886 109.22 189.81 109.123 189.686 109.127C189.585 109.081 189.438 109.136 189.366 109.163C188.105 109.925 187.101 110.923 186.376 112.111L185.821 111.858C185.621 111.765 185.351 111.824 185.237 112.075L184.707 113.231C184.616 113.433 184.673 113.702 184.924 113.818L185.478 114.071C185.096 115.172 185.082 116.26 185.414 117.263C185.751 118.389 186.52 119.229 187.676 119.758C188.833 120.286 189.848 120.326 190.773 119.898C191.625 119.498 192.442 118.778 193.318 117.66L196.032 118.901C195.44 119.663 194.619 120.261 193.548 120.743C193.451 120.819 193.354 120.897 193.308 120.998C193.263 121.099 193.267 121.223 193.345 121.318L194.305 123.339C194.387 123.558 194.661 123.623 194.88 123.541C196.562 122.791 197.882 121.633 198.845 120.189L199.802 120.627C200.001 120.718 200.272 120.659 200.386 120.408L200.916 119.252C201.009 119.052 200.95 118.781 200.699 118.667L199.742 118.229C200.171 117.027 200.184 115.94 199.876 114.886C199.541 113.761 198.792 112.871 197.636 112.342C196.407 111.839 195.341 111.778 194.394 112.254ZM196.356 115.403C196.659 115.542 196.863 115.757 196.95 116.1C197.007 116.37 196.994 116.667 196.956 117.014L194.695 115.98C195.103 115.62 195.367 115.437 195.514 115.382C195.781 115.201 196.055 115.265 196.356 115.403ZM188.783 116.677C188.48 116.54 188.326 116.347 188.24 116.004C188.158 115.783 188.151 115.536 188.215 115.262L190.326 116.229C189.991 116.562 189.749 116.694 189.602 116.747C189.309 116.858 189.084 116.816 188.783 116.677Z" fill="white"/>
</g>
</g>
</g>
<path d="M273.933 103.826L273.933 119.092" stroke="black" stroke-width="3.65696"/>
<path d="M279.418 111.14L273.933 103.826L268.447 111.14" stroke="black" stroke-width="3.65696" stroke-linecap="round" stroke-linejoin="round"/>
<path d="M207.36 76.0739L207.36 91.3398" stroke="black" stroke-width="3.65696"/>
<path d="M212.847 83.3878L207.361 76.0739L201.876 83.3878" stroke="black" stroke-width="3.65696" stroke-linecap="round" stroke-linejoin="round"/>
</g>
</g>
<line y1="273.5" x2="392" y2="273.5" stroke="#F3F4F6"/>
<defs>
<linearGradient id="paint0_linear_42_16525" x1="0" y1="30" x2="274" y2="30" gradientUnits="userSpaceOnUse">
<stop stop-color="#0470FF"/>
<stop offset="1" stop-color="#039BFF"/>
</linearGradient>
<linearGradient id="paint1_linear_42_16525" x1="0" y1="30" x2="274" y2="30" gradientUnits="userSpaceOnUse">
<stop stop-color="#0470FF"/>
<stop offset="1" stop-color="#039BFF"/>
</linearGradient>
<linearGradient id="paint2_linear_42_16525" x1="0" y1="30" x2="274" y2="30" gradientUnits="userSpaceOnUse">
<stop stop-color="#0470FF"/>
<stop offset="1" stop-color="#039BFF"/>
</linearGradient>
<linearGradient id="paint3_linear_42_16525" x1="0" y1="30" x2="274" y2="30" gradientUnits="userSpaceOnUse">
<stop stop-color="#0470FF"/>
<stop offset="1" stop-color="#039BFF"/>
</linearGradient>
<linearGradient id="paint4_linear_42_16525" x1="0" y1="30" x2="274" y2="30" gradientUnits="userSpaceOnUse">
<stop stop-color="#0470FF"/>
<stop offset="1" stop-color="#039BFF"/>
</linearGradient>
<linearGradient id="paint5_linear_42_16525" x1="0" y1="30" x2="274" y2="30" gradientUnits="userSpaceOnUse">
<stop stop-color="#0470FF"/>
<stop offset="1" stop-color="#039BFF"/>
</linearGradient>
<linearGradient id="paint6_linear_42_16525" x1="0" y1="30" x2="274" y2="30" gradientUnits="userSpaceOnUse">
<stop stop-color="#0470FF"/>
<stop offset="1" stop-color="#039BFF"/>
</linearGradient>
<clipPath id="clip0_42_16525">
<rect width="392" height="274" fill="white"/>
</clipPath>
<clipPath id="clip1_42_16525">
<rect width="229.312" height="166.553" fill="white" transform="translate(81 53.9999)"/>
</clipPath>
</defs>
</svg>
