<svg width="146" height="19" viewBox="0 0 146 19" fill="none" xmlns="http://www.w3.org/2000/svg">
<path d="M0.00012207 0.0457728C0.423425 1.69676 1.85285 3.38423 3.81402 3.80702H9.7413L10.0437 3.9264V18.8833H13.745V3.9264L14.0812 3.80702H20.0137C21.9968 3.29613 23.3954 1.69676 23.8114 0.0457728V0.00927734H0.00012207V0.0457728Z" fill="#0A2540"/>
<path d="M36.6329 18.9259H50.7139C52.673 18.5365 54.129 16.8104 54.5372 15.1396H32.8096C33.2151 16.811 34.6925 18.5365 36.6329 18.9259Z" fill="#0A2540"/>
<path d="M36.6329 11.254H50.7139C52.673 10.8677 54.129 9.14114 54.5372 7.46826H32.8096C33.2151 9.14166 34.6925 10.8677 36.6329 11.254Z" fill="#0A2540"/>
<path d="M36.6329 3.7873H50.7139C52.673 3.39684 54.129 1.67184 54.5372 0H32.8096C33.2151 1.67184 34.6925 3.39684 36.6329 3.7873Z" fill="#0A2540"/>
<path d="M68.7472 3.75155H81.7559C83.7171 3.18176 85.3639 1.68769 85.7653 0.0314941H65.1006V11.1953H82.014V15.113L68.7472 15.1234C66.6682 15.7031 64.9051 17.0991 64.0257 18.943L65.1006 18.9232H85.648V7.4836H68.7472V3.75155Z" fill="#0A2540"/>
<path d="M113.018 18.9277C114.865 18.1447 115.858 16.7904 116.239 15.2056H99.8088L99.8192 0.026123L96.1362 0.0365435V18.9277H113.018Z" fill="#0A2540"/>
<path d="M127.367 3.80259H141.453C143.41 3.41369 144.865 1.68712 145.275 0.0168457H123.546C123.952 1.68764 125.429 3.41369 127.367 3.80259Z" fill="#0A2540"/>
<path d="M124.112 7.49756V18.9205H127.776V11.3151H141.108V18.9205H144.769V7.51737L124.112 7.49756Z" fill="#0A2540"/>
</svg>
