<svg width="1440" height="702" viewBox="0 0 1440 702" fill="none" xmlns="http://www.w3.org/2000/svg">
<path d="M-150.744 0H-189.155V37.5263M-150.744 0V37.5263M-150.744 0H-112.333M-150.744 37.5263H-189.155M-150.744 37.5263V75.0526M-150.744 37.5263H-112.333M-189.155 37.5263V75.0526M-150.744 75.0526H-189.155M-150.744 75.0526V112.579M-150.744 75.0526H-112.333M-189.155 75.0526V112.579M-150.744 112.579H-189.155M-150.744 112.579V150.105M-150.744 112.579H-112.333M-189.155 112.579V150.105M-150.744 150.105H-189.155M-150.744 150.105V187.632M-150.744 150.105H-112.333M-189.155 150.105V187.632M-150.744 187.632H-189.155M-150.744 187.632V225.158M-150.744 187.632H-112.333M-189.155 187.632V225.158M-150.744 225.158H-189.155M-150.744 225.158V262.684M-150.744 225.158H-112.333M-189.155 225.158V262.684M-150.744 262.684H-189.155M-150.744 262.684V300.211M-150.744 262.684H-112.333M-189.155 262.684V300.211M-150.744 300.211H-189.155M-150.744 300.211V337.737M-150.744 300.211H-112.333M-189.155 300.211V337.737M-150.744 337.737H-189.155M-150.744 337.737V375.263M-150.744 337.737H-112.333M-189.155 337.737V375.263M-150.744 375.263H-189.155M-150.744 375.263V412.789M-150.744 375.263H-112.333M-189.155 375.263V412.789M-150.744 412.789H-189.155M-150.744 412.789V450.316M-150.744 412.789H-112.333M-189.155 412.789V450.316M-150.744 450.316H-189.155M-150.744 450.316V487.842M-150.744 450.316H-112.333M-189.155 450.316V487.842M-150.744 487.842H-189.155M-150.744 487.842V525.368M-150.744 487.842H-112.333M-189.155 487.842V525.368M-150.744 525.368H-189.155M-150.744 525.368V562.895M-150.744 525.368H-112.333M-189.155 525.368V562.895M-150.744 562.895H-189.155M-150.744 562.895V600.421M-150.744 562.895H-112.333M-189.155 562.895V600.421M-150.744 600.421H-189.155M-150.744 600.421V637.947M-150.744 600.421H-112.333M-189.155 600.421V637.947M-150.744 637.947H-189.155M-150.744 637.947V675.474M-150.744 637.947H-112.333M-189.155 637.947V675.474M-150.744 675.474H-189.155M-150.744 675.474V713M-150.744 675.474H-112.333M-189.155 675.474V713H-150.744M-150.744 713H-112.333M-112.333 0V37.5263M-112.333 0H-73.9213M-112.333 37.5263V75.0526M-112.333 37.5263H-73.9213M-112.333 75.0526V112.579M-112.333 75.0526H-73.9213M-112.333 112.579V150.105M-112.333 112.579H-73.9213M-112.333 150.105V187.632M-112.333 150.105H-73.9213M-112.333 187.632V225.158M-112.333 187.632H-73.9213M-112.333 225.158V262.684M-112.333 225.158H-73.9213M-112.333 262.684V300.211M-112.333 262.684H-73.9213M-112.333 300.211V337.737M-112.333 300.211H-73.9213M-112.333 337.737V375.263M-112.333 337.737H-73.9213M-112.333 375.263V412.789M-112.333 375.263H-73.9213M-112.333 412.789V450.316M-112.333 412.789H-73.9213M-112.333 450.316V487.842M-112.333 450.316H-73.9213M-112.333 487.842V525.368M-112.333 487.842H-73.9213M-112.333 525.368V562.895M-112.333 525.368H-73.9213M-112.333 562.895V600.421M-112.333 562.895H-73.9213M-112.333 600.421V637.947M-112.333 600.421H-73.9213M-112.333 637.947V675.474M-112.333 637.947H-73.9213M-112.333 675.474V713M-112.333 675.474H-73.9213M-112.333 713H-73.9213M-73.9213 0V37.5263M-73.9213 0H-35.51M-73.9213 37.5263V75.0526M-73.9213 37.5263H-35.51M-73.9213 75.0526V112.579M-73.9213 75.0526H-35.51M-73.9213 112.579V150.105M-73.9213 112.579H-35.51M-73.9213 150.105V187.632M-73.9213 150.105H-35.51M-73.9213 187.632V225.158M-73.9213 187.632H-35.51M-73.9213 225.158V262.684M-73.9213 225.158H-35.51M-73.9213 262.684V300.211M-73.9213 262.684H-35.51M-73.9213 300.211V337.737M-73.9213 300.211H-35.51M-73.9213 337.737V375.263M-73.9213 337.737H-35.51M-73.9213 375.263V412.789M-73.9213 375.263H-35.51M-73.9213 412.789V450.316M-73.9213 412.789H-35.51M-73.9213 450.316V487.842M-73.9213 450.316H-35.51M-73.9213 487.842V525.368M-73.9213 487.842H-35.51M-73.9213 525.368V562.895M-73.9213 525.368H-35.51M-73.9213 562.895V600.421M-73.9213 562.895H-35.51M-73.9213 600.421V637.947M-73.9213 600.421H-35.51M-73.9213 637.947V675.474M-73.9213 637.947H-35.51M-73.9213 675.474V713M-73.9213 675.474H-35.51M-73.9213 713H-35.51M-35.51 0V37.5263M-35.51 0H2.90133M-35.51 37.5263V75.0526M-35.51 37.5263H2.90133M-35.51 75.0526V112.579M-35.51 75.0526H2.90133M-35.51 112.579V150.105M-35.51 112.579H2.90133M-35.51 150.105V187.632M-35.51 150.105H2.90133M-35.51 187.632V225.158M-35.51 187.632H2.90133M-35.51 225.158V262.684M-35.51 225.158H2.90133M-35.51 262.684V300.211M-35.51 262.684H2.90133M-35.51 300.211V337.737M-35.51 300.211H2.90133M-35.51 337.737V375.263M-35.51 337.737H2.90133M-35.51 375.263V412.789M-35.51 375.263H2.90133M-35.51 412.789V450.316M-35.51 412.789H2.90133M-35.51 450.316V487.842M-35.51 450.316H2.90133M-35.51 487.842V525.368M-35.51 487.842H2.90133M-35.51 525.368V562.895M-35.51 525.368H2.90133M-35.51 562.895V600.421M-35.51 562.895H2.90133M-35.51 600.421V637.947M-35.51 600.421H2.90133M-35.51 637.947V675.474M-35.51 637.947H2.90133M-35.51 675.474V713M-35.51 675.474H2.90133M-35.51 713H2.90133M2.90133 0V37.5263M2.90133 0H41.3127M2.90133 37.5263V75.0526M2.90133 37.5263H41.3127M2.90133 75.0526V112.579M2.90133 75.0526H41.3127M2.90133 112.579V150.105M2.90133 112.579H41.3127M2.90133 150.105V187.632M2.90133 150.105H41.3127M2.90133 187.632V225.158M2.90133 187.632H41.3127M2.90133 225.158V262.684M2.90133 225.158H41.3127M2.90133 262.684V300.211M2.90133 262.684H41.3127M2.90133 300.211V337.737M2.90133 300.211H41.3127M2.90133 337.737V375.263M2.90133 337.737H41.3127M2.90133 375.263V412.789M2.90133 375.263H41.3127M2.90133 412.789V450.316M2.90133 412.789H41.3127M2.90133 450.316V487.842M2.90133 450.316H41.3127M2.90133 487.842V525.368M2.90133 487.842H41.3127M2.90133 525.368V562.895M2.90133 525.368H41.3127M2.90133 562.895V600.421M2.90133 562.895H41.3127M2.90133 600.421V637.947M2.90133 600.421H41.3127M2.90133 637.947V675.474M2.90133 637.947H41.3127M2.90133 675.474V713M2.90133 675.474H41.3127M2.90133 713H41.3127M41.3127 0V37.5263M41.3127 0H79.724M41.3127 37.5263V75.0526M41.3127 37.5263H79.724M41.3127 75.0526V112.579M41.3127 75.0526H79.724M41.3127 112.579V150.105M41.3127 112.579H79.724M41.3127 150.105V187.632M41.3127 150.105H79.724M41.3127 187.632V225.158M41.3127 187.632H79.724M41.3127 225.158V262.684M41.3127 225.158H79.724M41.3127 262.684V300.211M41.3127 262.684H79.724M41.3127 300.211V337.737M41.3127 300.211H79.724M41.3127 337.737V375.263M41.3127 337.737H79.724M41.3127 375.263V412.789M41.3127 375.263H79.724M41.3127 412.789V450.316M41.3127 412.789H79.724M41.3127 450.316V487.842M41.3127 450.316H79.724M41.3127 487.842V525.368M41.3127 487.842H79.724M41.3127 525.368V562.895M41.3127 525.368H79.724M41.3127 562.895V600.421M41.3127 562.895H79.724M41.3127 600.421V637.947M41.3127 600.421H79.724M41.3127 637.947V675.474M41.3127 637.947H79.724M41.3127 675.474V713M41.3127 675.474H79.724M41.3127 713H79.724M79.724 0V37.5263M79.724 0H118.135M79.724 37.5263V75.0526M79.724 37.5263H118.135M79.724 75.0526V112.579M79.724 75.0526H118.135M79.724 112.579V150.105M79.724 112.579H118.135M79.724 150.105V187.632M79.724 150.105H118.135M79.724 187.632V225.158M79.724 187.632H118.135M79.724 225.158V262.684M79.724 225.158H118.135M79.724 262.684V300.211M79.724 262.684H118.135M79.724 300.211V337.737M79.724 300.211H118.135M79.724 337.737V375.263M79.724 337.737H118.135M79.724 375.263V412.789M79.724 375.263H118.135M79.724 412.789V450.316M79.724 412.789H118.135M79.724 450.316V487.842M79.724 450.316H118.135M79.724 487.842V525.368M79.724 487.842H118.135M79.724 525.368V562.895M79.724 525.368H118.135M79.724 562.895V600.421M79.724 562.895H118.135M79.724 600.421V637.947M79.724 600.421H118.135M79.724 637.947V675.474M79.724 637.947H118.135M79.724 675.474V713M79.724 675.474H118.135M79.724 713H118.135M118.135 0V37.5263M118.135 0H156.547M118.135 37.5263V75.0526M118.135 37.5263H156.547M118.135 75.0526V112.579M118.135 75.0526H156.547M118.135 112.579V150.105M118.135 112.579H156.547M118.135 150.105V187.632M118.135 150.105H156.547M118.135 187.632V225.158M118.135 187.632H156.547M118.135 225.158V262.684M118.135 225.158H156.547M118.135 262.684V300.211M118.135 262.684H156.547M118.135 300.211V337.737M118.135 300.211H156.547M118.135 337.737V375.263M118.135 337.737H156.547M118.135 375.263V412.789M118.135 375.263H156.547M118.135 412.789V450.316M118.135 412.789H156.547M118.135 450.316V487.842M118.135 450.316H156.547M118.135 487.842V525.368M118.135 487.842H156.547M118.135 525.368V562.895M118.135 525.368H156.547M118.135 562.895V600.421M118.135 562.895H156.547M118.135 600.421V637.947M118.135 600.421H156.547M118.135 637.947V675.474M118.135 637.947H156.547M118.135 675.474V713M118.135 675.474H156.547M118.135 713H156.547M156.547 0V37.5263M156.547 0H194.958M156.547 37.5263V75.0526M156.547 37.5263H194.958M156.547 75.0526V112.579M156.547 75.0526H194.958M156.547 112.579V150.105M156.547 112.579H194.958M156.547 150.105V187.632M156.547 150.105H194.958M156.547 187.632V225.158M156.547 187.632H194.958M156.547 225.158V262.684M156.547 225.158H194.958M156.547 262.684V300.211M156.547 262.684H194.958M156.547 300.211V337.737M156.547 300.211H194.958M156.547 337.737V375.263M156.547 337.737H194.958M156.547 375.263V412.789M156.547 375.263H194.958M156.547 412.789V450.316M156.547 412.789H194.958M156.547 450.316V487.842M156.547 450.316H194.958M156.547 487.842V525.368M156.547 487.842H194.958M156.547 525.368V562.895M156.547 525.368H194.958M156.547 562.895V600.421M156.547 562.895H194.958M156.547 600.421V637.947M156.547 600.421H194.958M156.547 637.947V675.474M156.547 637.947H194.958M156.547 675.474V713M156.547 675.474H194.958M156.547 713H194.958M194.958 0V37.5263M194.958 0H233.369M194.958 37.5263V75.0526M194.958 37.5263H233.369M194.958 75.0526V112.579M194.958 75.0526H233.369M194.958 112.579V150.105M194.958 112.579H233.369M194.958 150.105V187.632M194.958 150.105H233.369M194.958 187.632V225.158M194.958 187.632H233.369M194.958 225.158V262.684M194.958 225.158H233.369M194.958 262.684V300.211M194.958 262.684H233.369M194.958 300.211V337.737M194.958 300.211H233.369M194.958 337.737V375.263M194.958 337.737H233.369M194.958 375.263V412.789M194.958 375.263H233.369M194.958 412.789V450.316M194.958 412.789H233.369M194.958 450.316V487.842M194.958 450.316H233.369M194.958 487.842V525.368M194.958 487.842H233.369M194.958 525.368V562.895M194.958 525.368H233.369M194.958 562.895V600.421M194.958 562.895H233.369M194.958 600.421V637.947M194.958 600.421H233.369M194.958 637.947V675.474M194.958 637.947H233.369M194.958 675.474V713M194.958 675.474H233.369M194.958 713H233.369M233.369 0V37.5263M233.369 0H271.781M233.369 37.5263V75.0526M233.369 37.5263H271.781M233.369 75.0526V112.579M233.369 75.0526H271.781M233.369 112.579V150.105M233.369 112.579H271.781M233.369 150.105V187.632M233.369 150.105H271.781M233.369 187.632V225.158M233.369 187.632H271.781M233.369 225.158V262.684M233.369 225.158H271.781M233.369 262.684V300.211M233.369 262.684H271.781M233.369 300.211V337.737M233.369 300.211H271.781M233.369 337.737V375.263M233.369 337.737H271.781M233.369 375.263V412.789M233.369 375.263H271.781M233.369 412.789V450.316M233.369 412.789H271.781M233.369 450.316V487.842M233.369 450.316H271.781M233.369 487.842V525.368M233.369 487.842H271.781M233.369 525.368V562.895M233.369 525.368H271.781M233.369 562.895V600.421M233.369 562.895H271.781M233.369 600.421V637.947M233.369 600.421H271.781M233.369 637.947V675.474M233.369 637.947H271.781M233.369 675.474V713M233.369 675.474H271.781M233.369 713H271.781M271.781 0V37.5263M271.781 0H310.192M271.781 37.5263V75.0526M271.781 37.5263H310.192M271.781 75.0526V112.579M271.781 75.0526H310.192M271.781 112.579V150.105M271.781 112.579H310.192M271.781 150.105V187.632M271.781 150.105H310.192M271.781 187.632V225.158M271.781 187.632H310.192M271.781 225.158V262.684M271.781 225.158H310.192M271.781 262.684V300.211M271.781 262.684H310.192M271.781 300.211V337.737M271.781 300.211H310.192M271.781 337.737V375.263M271.781 337.737H310.192M271.781 375.263V412.789M271.781 375.263H310.192M271.781 412.789V450.316M271.781 412.789H310.192M271.781 450.316V487.842M271.781 450.316H310.192M271.781 487.842V525.368M271.781 487.842H310.192M271.781 525.368V562.895M271.781 525.368H310.192M271.781 562.895V600.421M271.781 562.895H310.192M271.781 600.421V637.947M271.781 600.421H310.192M271.781 637.947V675.474M271.781 637.947H310.192M271.781 675.474V713M271.781 675.474H310.192M271.781 713H310.192M310.192 0V37.5263M310.192 0H348.603M310.192 37.5263V75.0526M310.192 37.5263H348.603M310.192 75.0526V112.579M310.192 75.0526H348.603M310.192 112.579V150.105M310.192 112.579H348.603M310.192 150.105V187.632M310.192 150.105H348.603M310.192 187.632V225.158M310.192 187.632H348.603M310.192 225.158V262.684M310.192 225.158H348.603M310.192 262.684V300.211M310.192 262.684H348.603M310.192 300.211V337.737M310.192 300.211H348.603M310.192 337.737V375.263M310.192 337.737H348.603M310.192 375.263V412.789M310.192 375.263H348.603M310.192 412.789V450.316M310.192 412.789H348.603M310.192 450.316V487.842M310.192 450.316H348.603M310.192 487.842V525.368M310.192 487.842H348.603M310.192 525.368V562.895M310.192 525.368H348.603M310.192 562.895V600.421M310.192 562.895H348.603M310.192 600.421V637.947M310.192 600.421H348.603M310.192 637.947V675.474M310.192 637.947H348.603M310.192 675.474V713M310.192 675.474H348.603M310.192 713H348.603M348.603 0V37.5263M348.603 0H387.015M348.603 37.5263V75.0526M348.603 37.5263H387.015M348.603 75.0526V112.579M348.603 75.0526H387.015M348.603 112.579V150.105M348.603 112.579H387.015M348.603 150.105V187.632M348.603 150.105H387.015M348.603 187.632V225.158M348.603 187.632H387.015M348.603 225.158V262.684M348.603 225.158H387.015M348.603 262.684V300.211M348.603 262.684H387.015M348.603 300.211V337.737M348.603 300.211H387.015M348.603 337.737V375.263M348.603 337.737H387.015M348.603 375.263V412.789M348.603 375.263H387.015M348.603 412.789V450.316M348.603 412.789H387.015M348.603 450.316V487.842M348.603 450.316H387.015M348.603 487.842V525.368M348.603 487.842H387.015M348.603 525.368V562.895M348.603 525.368H387.015M348.603 562.895V600.421M348.603 562.895H387.015M348.603 600.421V637.947M348.603 600.421H387.015M348.603 637.947V675.474M348.603 637.947H387.015M348.603 675.474V713M348.603 675.474H387.015M348.603 713H387.015M387.015 0V37.5263M387.015 0H425.426M387.015 37.5263V75.0526M387.015 37.5263H425.426M387.015 75.0526V112.579M387.015 75.0526H425.426M387.015 112.579V150.105M387.015 112.579H425.426M387.015 150.105V187.632M387.015 150.105H425.426M387.015 187.632V225.158M387.015 187.632H425.426M387.015 225.158V262.684M387.015 225.158H425.426M387.015 262.684V300.211M387.015 262.684H425.426M387.015 300.211V337.737M387.015 300.211H425.426M387.015 337.737V375.263M387.015 337.737H425.426M387.015 375.263V412.789M387.015 375.263H425.426M387.015 412.789V450.316M387.015 412.789H425.426M387.015 450.316V487.842M387.015 450.316H425.426M387.015 487.842V525.368M387.015 487.842H425.426M387.015 525.368V562.895M387.015 525.368H425.426M387.015 562.895V600.421M387.015 562.895H425.426M387.015 600.421V637.947M387.015 600.421H425.426M387.015 637.947V675.474M387.015 637.947H425.426M387.015 675.474V713M387.015 675.474H425.426M387.015 713H425.426M425.426 0V37.5263M425.426 0H463.837M425.426 37.5263V75.0526M425.426 37.5263H463.837M425.426 75.0526V112.579M425.426 75.0526H463.837M425.426 112.579V150.105M425.426 112.579H463.837M425.426 150.105V187.632M425.426 150.105H463.837M425.426 187.632V225.158M425.426 187.632H463.837M425.426 225.158V262.684M425.426 225.158H463.837M425.426 262.684V300.211M425.426 262.684H463.837M425.426 300.211V337.737M425.426 300.211H463.837M425.426 337.737V375.263M425.426 337.737H463.837M425.426 375.263V412.789M425.426 375.263H463.837M425.426 412.789V450.316M425.426 412.789H463.837M425.426 450.316V487.842M425.426 450.316H463.837M425.426 487.842V525.368M425.426 487.842H463.837M425.426 525.368V562.895M425.426 525.368H463.837M425.426 562.895V600.421M425.426 562.895H463.837M425.426 600.421V637.947M425.426 600.421H463.837M425.426 637.947V675.474M425.426 637.947H463.837M425.426 675.474V713M425.426 675.474H463.837M425.426 713H463.837M463.837 0V37.5263M463.837 0H502.249M463.837 37.5263V75.0526M463.837 37.5263H502.249M463.837 75.0526V112.579M463.837 75.0526H502.249M463.837 112.579V150.105M463.837 112.579H502.249M463.837 150.105V187.632M463.837 150.105H502.249M463.837 187.632V225.158M463.837 187.632H502.249M463.837 225.158V262.684M463.837 225.158H502.249M463.837 262.684V300.211M463.837 262.684H502.249M463.837 300.211V337.737M463.837 300.211H502.249M463.837 337.737V375.263M463.837 337.737H502.249M463.837 375.263V412.789M463.837 375.263H502.249M463.837 412.789V450.316M463.837 412.789H502.249M463.837 450.316V487.842M463.837 450.316H502.249M463.837 487.842V525.368M463.837 487.842H502.249M463.837 525.368V562.895M463.837 525.368H502.249M463.837 562.895V600.421M463.837 562.895H502.249M463.837 600.421V637.947M463.837 600.421H502.249M463.837 637.947V675.474M463.837 637.947H502.249M463.837 675.474V713M463.837 675.474H502.249M463.837 713H502.249M502.249 0V37.5263M502.249 0H540.66M502.249 37.5263V75.0526M502.249 37.5263H540.66M502.249 75.0526V112.579M502.249 75.0526H540.66M502.249 112.579V150.105M502.249 112.579H540.66M502.249 150.105V187.632M502.249 150.105H540.66M502.249 187.632V225.158M502.249 187.632H540.66M502.249 225.158V262.684M502.249 225.158H540.66M502.249 262.684V300.211M502.249 262.684H540.66M502.249 300.211V337.737M502.249 300.211H540.66M502.249 337.737V375.263M502.249 337.737H540.66M502.249 375.263V412.789M502.249 375.263H540.66M502.249 412.789V450.316M502.249 412.789H540.66M502.249 450.316V487.842M502.249 450.316H540.66M502.249 487.842V525.368M502.249 487.842H540.66M502.249 525.368V562.895M502.249 525.368H540.66M502.249 562.895V600.421M502.249 562.895H540.66M502.249 600.421V637.947M502.249 600.421H540.66M502.249 637.947V675.474M502.249 637.947H540.66M502.249 675.474V713M502.249 675.474H540.66M502.249 713H540.66M540.66 0V37.5263M540.66 0H579.071M540.66 37.5263V75.0526M540.66 37.5263H579.071M540.66 75.0526V112.579M540.66 75.0526H579.071M540.66 112.579V150.105M540.66 112.579H579.071M540.66 150.105V187.632M540.66 150.105H579.071M540.66 187.632V225.158M540.66 187.632H579.071M540.66 225.158V262.684M540.66 225.158H579.071M540.66 262.684V300.211M540.66 262.684H579.071M540.66 300.211V337.737M540.66 300.211H579.071M540.66 337.737V375.263M540.66 337.737H579.071M540.66 375.263V412.789M540.66 375.263H579.071M540.66 412.789V450.316M540.66 412.789H579.071M540.66 450.316V487.842M540.66 450.316H579.071M540.66 487.842V525.368M540.66 487.842H579.071M540.66 525.368V562.895M540.66 525.368H579.071M540.66 562.895V600.421M540.66 562.895H579.071M540.66 600.421V637.947M540.66 600.421H579.071M540.66 637.947V675.474M540.66 637.947H579.071M540.66 675.474V713M540.66 675.474H579.071M540.66 713H579.071M579.071 0V37.5263M579.071 0H617.482M579.071 37.5263V75.0526M579.071 37.5263H617.482M579.071 75.0526V112.579M579.071 75.0526H617.482M579.071 112.579V150.105M579.071 112.579H617.482M579.071 150.105V187.632M579.071 150.105H617.482M579.071 187.632V225.158M579.071 187.632H617.482M579.071 225.158V262.684M579.071 225.158H617.482M579.071 262.684V300.211M579.071 262.684H617.482M579.071 300.211V337.737M579.071 300.211H617.482M579.071 337.737V375.263M579.071 337.737H617.482M579.071 375.263V412.789M579.071 375.263H617.482M579.071 412.789V450.316M579.071 412.789H617.482M579.071 450.316V487.842M579.071 450.316H617.482M579.071 487.842V525.368M579.071 487.842H617.482M579.071 525.368V562.895M579.071 525.368H617.482M579.071 562.895V600.421M579.071 562.895H617.482M579.071 600.421V637.947M579.071 600.421H617.482M579.071 637.947V675.474M579.071 637.947H617.482M579.071 675.474V713M579.071 675.474H617.482M579.071 713H617.482M617.482 0V37.5263M617.482 0H655.894M617.482 37.5263V75.0526M617.482 37.5263H655.894M617.482 75.0526V112.579M617.482 75.0526H655.894M617.482 112.579V150.105M617.482 112.579H655.894M617.482 150.105V187.632M617.482 150.105H655.894M617.482 187.632V225.158M617.482 187.632H655.894M617.482 225.158V262.684M617.482 225.158H655.894M617.482 262.684V300.211M617.482 262.684H655.894M617.482 300.211V337.737M617.482 300.211H655.894M617.482 337.737V375.263M617.482 337.737H655.894M617.482 375.263V412.789M617.482 375.263H655.894M617.482 412.789V450.316M617.482 412.789H655.894M617.482 450.316V487.842M617.482 450.316H655.894M617.482 487.842V525.368M617.482 487.842H655.894M617.482 525.368V562.895M617.482 525.368H655.894M617.482 562.895V600.421M617.482 562.895H655.894M617.482 600.421V637.947M617.482 600.421H655.894M617.482 637.947V675.474M617.482 637.947H655.894M617.482 675.474V713M617.482 675.474H655.894M617.482 713H655.894M655.894 0V37.5263M655.894 0H694.305M655.894 37.5263V75.0526M655.894 37.5263H694.305M655.894 75.0526V112.579M655.894 75.0526H694.305M655.894 112.579V150.105M655.894 112.579H694.305M655.894 150.105V187.632M655.894 150.105H694.305M655.894 187.632V225.158M655.894 187.632H694.305M655.894 225.158V262.684M655.894 225.158H694.305M655.894 262.684V300.211M655.894 262.684H694.305M655.894 300.211V337.737M655.894 300.211H694.305M655.894 337.737V375.263M655.894 337.737H694.305M655.894 375.263V412.789M655.894 375.263H694.305M655.894 412.789V450.316M655.894 412.789H694.305M655.894 450.316V487.842M655.894 450.316H694.305M655.894 487.842V525.368M655.894 487.842H694.305M655.894 525.368V562.895M655.894 525.368H694.305M655.894 562.895V600.421M655.894 562.895H694.305M655.894 600.421V637.947M655.894 600.421H694.305M655.894 637.947V675.474M655.894 637.947H694.305M655.894 675.474V713M655.894 675.474H694.305M655.894 713H694.305M694.305 0V37.5263M694.305 0H732.716M694.305 37.5263V75.0526M694.305 37.5263H732.716M694.305 75.0526V112.579M694.305 75.0526H732.716M694.305 112.579V150.105M694.305 112.579H732.716M694.305 150.105V187.632M694.305 150.105H732.716M694.305 187.632V225.158M694.305 187.632H732.716M694.305 225.158V262.684M694.305 225.158H732.716M694.305 262.684V300.211M694.305 262.684H732.716M694.305 300.211V337.737M694.305 300.211H732.716M694.305 337.737V375.263M694.305 337.737H732.716M694.305 375.263V412.789M694.305 375.263H732.716M694.305 412.789V450.316M694.305 412.789H732.716M694.305 450.316V487.842M694.305 450.316H732.716M694.305 487.842V525.368M694.305 487.842H732.716M694.305 525.368V562.895M694.305 525.368H732.716M694.305 562.895V600.421M694.305 562.895H732.716M694.305 600.421V637.947M694.305 600.421H732.716M694.305 637.947V675.474M694.305 637.947H732.716M694.305 675.474V713M694.305 675.474H732.716M694.305 713H732.716M732.716 0V37.5263M732.716 0H771.128M732.716 37.5263V75.0526M732.716 37.5263H771.128M732.716 75.0526V112.579M732.716 75.0526H771.128M732.716 112.579V150.105M732.716 112.579H771.128M732.716 150.105V187.632M732.716 150.105H771.128M732.716 187.632V225.158M732.716 187.632H771.128M732.716 225.158V262.684M732.716 225.158H771.128M732.716 262.684V300.211M732.716 262.684H771.128M732.716 300.211V337.737M732.716 300.211H771.128M732.716 337.737V375.263M732.716 337.737H771.128M732.716 375.263V412.789M732.716 375.263H771.128M732.716 412.789V450.316M732.716 412.789H771.128M732.716 450.316V487.842M732.716 450.316H771.128M732.716 487.842V525.368M732.716 487.842H771.128M732.716 525.368V562.895M732.716 525.368H771.128M732.716 562.895V600.421M732.716 562.895H771.128M732.716 600.421V637.947M732.716 600.421H771.128M732.716 637.947V675.474M732.716 637.947H771.128M732.716 675.474V713M732.716 675.474H771.128M732.716 713H771.128M771.128 0V37.5263M771.128 0H809.539M771.128 37.5263V75.0526M771.128 37.5263H809.539M771.128 75.0526V112.579M771.128 75.0526H809.539M771.128 112.579V150.105M771.128 112.579H809.539M771.128 150.105V187.632M771.128 150.105H809.539M771.128 187.632V225.158M771.128 187.632H809.539M771.128 225.158V262.684M771.128 225.158H809.539M771.128 262.684V300.211M771.128 262.684H809.539M771.128 300.211V337.737M771.128 300.211H809.539M771.128 337.737V375.263M771.128 337.737H809.539M771.128 375.263V412.789M771.128 375.263H809.539M771.128 412.789V450.316M771.128 412.789H809.539M771.128 450.316V487.842M771.128 450.316H809.539M771.128 487.842V525.368M771.128 487.842H809.539M771.128 525.368V562.895M771.128 525.368H809.539M771.128 562.895V600.421M771.128 562.895H809.539M771.128 600.421V637.947M771.128 600.421H809.539M771.128 637.947V675.474M771.128 637.947H809.539M771.128 675.474V713M771.128 675.474H809.539M771.128 713H809.539M809.539 0V37.5263M809.539 0H847.95M809.539 37.5263V75.0526M809.539 37.5263H847.95M809.539 75.0526V112.579M809.539 75.0526H847.95M809.539 112.579V150.105M809.539 112.579H847.95M809.539 150.105V187.632M809.539 150.105H847.95M809.539 187.632V225.158M809.539 187.632H847.95M809.539 225.158V262.684M809.539 225.158H847.95M809.539 262.684V300.211M809.539 262.684H847.95M809.539 300.211V337.737M809.539 300.211H847.95M809.539 337.737V375.263M809.539 337.737H847.95M809.539 375.263V412.789M809.539 375.263H847.95M809.539 412.789V450.316M809.539 412.789H847.95M809.539 450.316V487.842M809.539 450.316H847.95M809.539 487.842V525.368M809.539 487.842H847.95M809.539 525.368V562.895M809.539 525.368H847.95M809.539 562.895V600.421M809.539 562.895H847.95M809.539 600.421V637.947M809.539 600.421H847.95M809.539 637.947V675.474M809.539 637.947H847.95M809.539 675.474V713M809.539 675.474H847.95M809.539 713H847.95M847.95 0V37.5263M847.95 0H886.362M847.95 37.5263V75.0526M847.95 37.5263H886.362M847.95 75.0526V112.579M847.95 75.0526H886.362M847.95 112.579V150.105M847.95 112.579H886.362M847.95 150.105V187.632M847.95 150.105H886.362M847.95 187.632V225.158M847.95 187.632H886.362M847.95 225.158V262.684M847.95 225.158H886.362M847.95 262.684V300.211M847.95 262.684H886.362M847.95 300.211V337.737M847.95 300.211H886.362M847.95 337.737V375.263M847.95 337.737H886.362M847.95 375.263V412.789M847.95 375.263H886.362M847.95 412.789V450.316M847.95 412.789H886.362M847.95 450.316V487.842M847.95 450.316H886.362M847.95 487.842V525.368M847.95 487.842H886.362M847.95 525.368V562.895M847.95 525.368H886.362M847.95 562.895V600.421M847.95 562.895H886.362M847.95 600.421V637.947M847.95 600.421H886.362M847.95 637.947V675.474M847.95 637.947H886.362M847.95 675.474V713M847.95 675.474H886.362M847.95 713H886.362M886.362 0V37.5263M886.362 0H924.773M886.362 37.5263V75.0526M886.362 37.5263H924.773M886.362 75.0526V112.579M886.362 75.0526H924.773M886.362 112.579V150.105M886.362 112.579H924.773M886.362 150.105V187.632M886.362 150.105H924.773M886.362 187.632V225.158M886.362 187.632H924.773M886.362 225.158V262.684M886.362 225.158H924.773M886.362 262.684V300.211M886.362 262.684H924.773M886.362 300.211V337.737M886.362 300.211H924.773M886.362 337.737V375.263M886.362 337.737H924.773M886.362 375.263V412.789M886.362 375.263H924.773M886.362 412.789V450.316M886.362 412.789H924.773M886.362 450.316V487.842M886.362 450.316H924.773M886.362 487.842V525.368M886.362 487.842H924.773M886.362 525.368V562.895M886.362 525.368H924.773M886.362 562.895V600.421M886.362 562.895H924.773M886.362 600.421V637.947M886.362 600.421H924.773M886.362 637.947V675.474M886.362 637.947H924.773M886.362 675.474V713M886.362 675.474H924.773M886.362 713H924.773M924.773 0V37.5263M924.773 0H963.184M924.773 37.5263V75.0526M924.773 37.5263H963.184M924.773 75.0526V112.579M924.773 75.0526H963.184M924.773 112.579V150.105M924.773 112.579H963.184M924.773 150.105V187.632M924.773 150.105H963.184M924.773 187.632V225.158M924.773 187.632H963.184M924.773 225.158V262.684M924.773 225.158H963.184M924.773 262.684V300.211M924.773 262.684H963.184M924.773 300.211V337.737M924.773 300.211H963.184M924.773 337.737V375.263M924.773 337.737H963.184M924.773 375.263V412.789M924.773 375.263H963.184M924.773 412.789V450.316M924.773 412.789H963.184M924.773 450.316V487.842M924.773 450.316H963.184M924.773 487.842V525.368M924.773 487.842H963.184M924.773 525.368V562.895M924.773 525.368H963.184M924.773 562.895V600.421M924.773 562.895H963.184M924.773 600.421V637.947M924.773 600.421H963.184M924.773 637.947V675.474M924.773 637.947H963.184M924.773 675.474V713M924.773 675.474H963.184M924.773 713H963.184M963.184 0V37.5263M963.184 0H1001.6M963.184 37.5263V75.0526M963.184 37.5263H1001.6M963.184 75.0526V112.579M963.184 75.0526H1001.6M963.184 112.579V150.105M963.184 112.579H1001.6M963.184 150.105V187.632M963.184 150.105H1001.6M963.184 187.632V225.158M963.184 187.632H1001.6M963.184 225.158V262.684M963.184 225.158H1001.6M963.184 262.684V300.211M963.184 262.684H1001.6M963.184 300.211V337.737M963.184 300.211H1001.6M963.184 337.737V375.263M963.184 337.737H1001.6M963.184 375.263V412.789M963.184 375.263H1001.6M963.184 412.789V450.316M963.184 412.789H1001.6M963.184 450.316V487.842M963.184 450.316H1001.6M963.184 487.842V525.368M963.184 487.842H1001.6M963.184 525.368V562.895M963.184 525.368H1001.6M963.184 562.895V600.421M963.184 562.895H1001.6M963.184 600.421V637.947M963.184 600.421H1001.6M963.184 637.947V675.474M963.184 637.947H1001.6M963.184 675.474V713M963.184 675.474H1001.6M963.184 713H1001.6M1001.6 0V37.5263M1001.6 0H1040.01M1001.6 37.5263V75.0526M1001.6 37.5263H1040.01M1001.6 75.0526V112.579M1001.6 75.0526H1040.01M1001.6 112.579V150.105M1001.6 112.579H1040.01M1001.6 150.105V187.632M1001.6 150.105H1040.01M1001.6 187.632V225.158M1001.6 187.632H1040.01M1001.6 225.158V262.684M1001.6 225.158H1040.01M1001.6 262.684V300.211M1001.6 262.684H1040.01M1001.6 300.211V337.737M1001.6 300.211H1040.01M1001.6 337.737V375.263M1001.6 337.737H1040.01M1001.6 375.263V412.789M1001.6 375.263H1040.01M1001.6 412.789V450.316M1001.6 412.789H1040.01M1001.6 450.316V487.842M1001.6 450.316H1040.01M1001.6 487.842V525.368M1001.6 487.842H1040.01M1001.6 525.368V562.895M1001.6 525.368H1040.01M1001.6 562.895V600.421M1001.6 562.895H1040.01M1001.6 600.421V637.947M1001.6 600.421H1040.01M1001.6 637.947V675.474M1001.6 637.947H1040.01M1001.6 675.474V713M1001.6 675.474H1040.01M1001.6 713H1040.01M1040.01 0V37.5263M1040.01 0H1078.42M1040.01 37.5263V75.0526M1040.01 37.5263H1078.42M1040.01 75.0526V112.579M1040.01 75.0526H1078.42M1040.01 112.579V150.105M1040.01 112.579H1078.42M1040.01 150.105V187.632M1040.01 150.105H1078.42M1040.01 187.632V225.158M1040.01 187.632H1078.42M1040.01 225.158V262.684M1040.01 225.158H1078.42M1040.01 262.684V300.211M1040.01 262.684H1078.42M1040.01 300.211V337.737M1040.01 300.211H1078.42M1040.01 337.737V375.263M1040.01 337.737H1078.42M1040.01 375.263V412.789M1040.01 375.263H1078.42M1040.01 412.789V450.316M1040.01 412.789H1078.42M1040.01 450.316V487.842M1040.01 450.316H1078.42M1040.01 487.842V525.368M1040.01 487.842H1078.42M1040.01 525.368V562.895M1040.01 525.368H1078.42M1040.01 562.895V600.421M1040.01 562.895H1078.42M1040.01 600.421V637.947M1040.01 600.421H1078.42M1040.01 637.947V675.474M1040.01 637.947H1078.42M1040.01 675.474V713M1040.01 675.474H1078.42M1040.01 713H1078.42M1078.42 0V37.5263M1078.42 0H1116.83M1078.42 37.5263V75.0526M1078.42 37.5263H1116.83M1078.42 75.0526V112.579M1078.42 75.0526H1116.83M1078.42 112.579V150.105M1078.42 112.579H1116.83M1078.42 150.105V187.632M1078.42 150.105H1116.83M1078.42 187.632V225.158M1078.42 187.632H1116.83M1078.42 225.158V262.684M1078.42 225.158H1116.83M1078.42 262.684V300.211M1078.42 262.684H1116.83M1078.42 300.211V337.737M1078.42 300.211H1116.83M1078.42 337.737V375.263M1078.42 337.737H1116.83M1078.42 375.263V412.789M1078.42 375.263H1116.83M1078.42 412.789V450.316M1078.42 412.789H1116.83M1078.42 450.316V487.842M1078.42 450.316H1116.83M1078.42 487.842V525.368M1078.42 487.842H1116.83M1078.42 525.368V562.895M1078.42 525.368H1116.83M1078.42 562.895V600.421M1078.42 562.895H1116.83M1078.42 600.421V637.947M1078.42 600.421H1116.83M1078.42 637.947V675.474M1078.42 637.947H1116.83M1078.42 675.474V713M1078.42 675.474H1116.83M1078.42 713H1116.83M1116.83 0V37.5263M1116.83 0H1155.24M1116.83 37.5263V75.0526M1116.83 37.5263H1155.24M1116.83 75.0526V112.579M1116.83 75.0526H1155.24M1116.83 112.579V150.105M1116.83 112.579H1155.24M1116.83 150.105V187.632M1116.83 150.105H1155.24M1116.83 187.632V225.158M1116.83 187.632H1155.24M1116.83 225.158V262.684M1116.83 225.158H1155.24M1116.83 262.684V300.211M1116.83 262.684H1155.24M1116.83 300.211V337.737M1116.83 300.211H1155.24M1116.83 337.737V375.263M1116.83 337.737H1155.24M1116.83 375.263V412.789M1116.83 375.263H1155.24M1116.83 412.789V450.316M1116.83 412.789H1155.24M1116.83 450.316V487.842M1116.83 450.316H1155.24M1116.83 487.842V525.368M1116.83 487.842H1155.24M1116.83 525.368V562.895M1116.83 525.368H1155.24M1116.83 562.895V600.421M1116.83 562.895H1155.24M1116.83 600.421V637.947M1116.83 600.421H1155.24M1116.83 637.947V675.474M1116.83 637.947H1155.24M1116.83 675.474V713M1116.83 675.474H1155.24M1116.83 713H1155.24M1155.24 0V37.5263M1155.24 0H1193.65M1155.24 37.5263V75.0526M1155.24 37.5263H1193.65M1155.24 75.0526V112.579M1155.24 75.0526H1193.65M1155.24 112.579V150.105M1155.24 112.579H1193.65M1155.24 150.105V187.632M1155.24 150.105H1193.65M1155.24 187.632V225.158M1155.24 187.632H1193.65M1155.24 225.158V262.684M1155.24 225.158H1193.65M1155.24 262.684V300.211M1155.24 262.684H1193.65M1155.24 300.211V337.737M1155.24 300.211H1193.65M1155.24 337.737V375.263M1155.24 337.737H1193.65M1155.24 375.263V412.789M1155.24 375.263H1193.65M1155.24 412.789V450.316M1155.24 412.789H1193.65M1155.24 450.316V487.842M1155.24 450.316H1193.65M1155.24 487.842V525.368M1155.24 487.842H1193.65M1155.24 525.368V562.895M1155.24 525.368H1193.65M1155.24 562.895V600.421M1155.24 562.895H1193.65M1155.24 600.421V637.947M1155.24 600.421H1193.65M1155.24 637.947V675.474M1155.24 637.947H1193.65M1155.24 675.474V713M1155.24 675.474H1193.65M1155.24 713H1193.65M1193.65 0V37.5263M1193.65 0H1232.06M1193.65 37.5263V75.0526M1193.65 37.5263H1232.06M1193.65 75.0526V112.579M1193.65 75.0526H1232.06M1193.65 112.579V150.105M1193.65 112.579H1232.06M1193.65 150.105V187.632M1193.65 150.105H1232.06M1193.65 187.632V225.158M1193.65 187.632H1232.06M1193.65 225.158V262.684M1193.65 225.158H1232.06M1193.65 262.684V300.211M1193.65 262.684H1232.06M1193.65 300.211V337.737M1193.65 300.211H1232.06M1193.65 337.737V375.263M1193.65 337.737H1232.06M1193.65 375.263V412.789M1193.65 375.263H1232.06M1193.65 412.789V450.316M1193.65 412.789H1232.06M1193.65 450.316V487.842M1193.65 450.316H1232.06M1193.65 487.842V525.368M1193.65 487.842H1232.06M1193.65 525.368V562.895M1193.65 525.368H1232.06M1193.65 562.895V600.421M1193.65 562.895H1232.06M1193.65 600.421V637.947M1193.65 600.421H1232.06M1193.65 637.947V675.474M1193.65 637.947H1232.06M1193.65 675.474V713M1193.65 675.474H1232.06M1193.65 713H1232.06M1232.06 0V37.5263M1232.06 0H1270.47M1232.06 37.5263V75.0526M1232.06 37.5263H1270.47M1232.06 75.0526V112.579M1232.06 75.0526H1270.47M1232.06 112.579V150.105M1232.06 112.579H1270.47M1232.06 150.105V187.632M1232.06 150.105H1270.47M1232.06 187.632V225.158M1232.06 187.632H1270.47M1232.06 225.158V262.684M1232.06 225.158H1270.47M1232.06 262.684V300.211M1232.06 262.684H1270.47M1232.06 300.211V337.737M1232.06 300.211H1270.47M1232.06 337.737V375.263M1232.06 337.737H1270.47M1232.06 375.263V412.789M1232.06 375.263H1270.47M1232.06 412.789V450.316M1232.06 412.789H1270.47M1232.06 450.316V487.842M1232.06 450.316H1270.47M1232.06 487.842V525.368M1232.06 487.842H1270.47M1232.06 525.368V562.895M1232.06 525.368H1270.47M1232.06 562.895V600.421M1232.06 562.895H1270.47M1232.06 600.421V637.947M1232.06 600.421H1270.47M1232.06 637.947V675.474M1232.06 637.947H1270.47M1232.06 675.474V713M1232.06 675.474H1270.47M1232.06 713H1270.47M1270.47 0V37.5263M1270.47 0H1308.89M1270.47 37.5263V75.0526M1270.47 37.5263H1308.89M1270.47 75.0526V112.579M1270.47 75.0526H1308.89M1270.47 112.579V150.105M1270.47 112.579H1308.89M1270.47 150.105V187.632M1270.47 150.105H1308.89M1270.47 187.632V225.158M1270.47 187.632H1308.89M1270.47 225.158V262.684M1270.47 225.158H1308.89M1270.47 262.684V300.211M1270.47 262.684H1308.89M1270.47 300.211V337.737M1270.47 300.211H1308.89M1270.47 337.737V375.263M1270.47 337.737H1308.89M1270.47 375.263V412.789M1270.47 375.263H1308.89M1270.47 412.789V450.316M1270.47 412.789H1308.89M1270.47 450.316V487.842M1270.47 450.316H1308.89M1270.47 487.842V525.368M1270.47 487.842H1308.89M1270.47 525.368V562.895M1270.47 525.368H1308.89M1270.47 562.895V600.421M1270.47 562.895H1308.89M1270.47 600.421V637.947M1270.47 600.421H1308.89M1270.47 637.947V675.474M1270.47 637.947H1308.89M1270.47 675.474V713M1270.47 675.474H1308.89M1270.47 713H1308.89M1308.89 0V37.5263M1308.89 0H1347.3M1308.89 37.5263V75.0526M1308.89 37.5263H1347.3M1308.89 75.0526V112.579M1308.89 75.0526H1347.3M1308.89 112.579V150.105M1308.89 112.579H1347.3M1308.89 150.105V187.632M1308.89 150.105H1347.3M1308.89 187.632V225.158M1308.89 187.632H1347.3M1308.89 225.158V262.684M1308.89 225.158H1347.3M1308.89 262.684V300.211M1308.89 262.684H1347.3M1308.89 300.211V337.737M1308.89 300.211H1347.3M1308.89 337.737V375.263M1308.89 337.737H1347.3M1308.89 375.263V412.789M1308.89 375.263H1347.3M1308.89 412.789V450.316M1308.89 412.789H1347.3M1308.89 450.316V487.842M1308.89 450.316H1347.3M1308.89 487.842V525.368M1308.89 487.842H1347.3M1308.89 525.368V562.895M1308.89 525.368H1347.3M1308.89 562.895V600.421M1308.89 562.895H1347.3M1308.89 600.421V637.947M1308.89 600.421H1347.3M1308.89 637.947V675.474M1308.89 637.947H1347.3M1308.89 675.474V713M1308.89 675.474H1347.3M1308.89 713H1347.3M1347.3 0V37.5263M1347.3 0H1385.71M1347.3 37.5263V75.0526M1347.3 37.5263H1385.71M1347.3 75.0526V112.579M1347.3 75.0526H1385.71M1347.3 112.579V150.105M1347.3 112.579H1385.71M1347.3 150.105V187.632M1347.3 150.105H1385.71M1347.3 187.632V225.158M1347.3 187.632H1385.71M1347.3 225.158V262.684M1347.3 225.158H1385.71M1347.3 262.684V300.211M1347.3 262.684H1385.71M1347.3 300.211V337.737M1347.3 300.211H1385.71M1347.3 337.737V375.263M1347.3 337.737H1385.71M1347.3 375.263V412.789M1347.3 375.263H1385.71M1347.3 412.789V450.316M1347.3 412.789H1385.71M1347.3 450.316V487.842M1347.3 450.316H1385.71M1347.3 487.842V525.368M1347.3 487.842H1385.71M1347.3 525.368V562.895M1347.3 525.368H1385.71M1347.3 562.895V600.421M1347.3 562.895H1385.71M1347.3 600.421V637.947M1347.3 600.421H1385.71M1347.3 637.947V675.474M1347.3 637.947H1385.71M1347.3 675.474V713M1347.3 675.474H1385.71M1347.3 713H1385.71M1385.71 0V37.5263M1385.71 0H1424.12M1385.71 37.5263V75.0526M1385.71 37.5263H1424.12M1385.71 75.0526V112.579M1385.71 75.0526H1424.12M1385.71 112.579V150.105M1385.71 112.579H1424.12M1385.71 150.105V187.632M1385.71 150.105H1424.12M1385.71 187.632V225.158M1385.71 187.632H1424.12M1385.71 225.158V262.684M1385.71 225.158H1424.12M1385.71 262.684V300.211M1385.71 262.684H1424.12M1385.71 300.211V337.737M1385.71 300.211H1424.12M1385.71 337.737V375.263M1385.71 337.737H1424.12M1385.71 375.263V412.789M1385.71 375.263H1424.12M1385.71 412.789V450.316M1385.71 412.789H1424.12M1385.71 450.316V487.842M1385.71 450.316H1424.12M1385.71 487.842V525.368M1385.71 487.842H1424.12M1385.71 525.368V562.895M1385.71 525.368H1424.12M1385.71 562.895V600.421M1385.71 562.895H1424.12M1385.71 600.421V637.947M1385.71 600.421H1424.12M1385.71 637.947V675.474M1385.71 637.947H1424.12M1385.71 675.474V713M1385.71 675.474H1424.12M1385.71 713H1424.12M1424.12 0V37.5263M1424.12 0H1462.53M1424.12 37.5263V75.0526M1424.12 37.5263H1462.53M1424.12 75.0526V112.579M1424.12 75.0526H1462.53M1424.12 112.579V150.105M1424.12 112.579H1462.53M1424.12 150.105V187.632M1424.12 150.105H1462.53M1424.12 187.632V225.158M1424.12 187.632H1462.53M1424.12 225.158V262.684M1424.12 225.158H1462.53M1424.12 262.684V300.211M1424.12 262.684H1462.53M1424.12 300.211V337.737M1424.12 300.211H1462.53M1424.12 337.737V375.263M1424.12 337.737H1462.53M1424.12 375.263V412.789M1424.12 375.263H1462.53M1424.12 412.789V450.316M1424.12 412.789H1462.53M1424.12 450.316V487.842M1424.12 450.316H1462.53M1424.12 487.842V525.368M1424.12 487.842H1462.53M1424.12 525.368V562.895M1424.12 525.368H1462.53M1424.12 562.895V600.421M1424.12 562.895H1462.53M1424.12 600.421V637.947M1424.12 600.421H1462.53M1424.12 637.947V675.474M1424.12 637.947H1462.53M1424.12 675.474V713M1424.12 675.474H1462.53M1424.12 713H1462.53M1462.53 0V37.5263M1462.53 0H1500.94V37.5263M1462.53 37.5263V75.0526M1462.53 37.5263H1500.94M1462.53 75.0526V112.579M1462.53 75.0526H1500.94M1462.53 112.579V150.105M1462.53 112.579H1500.94M1462.53 150.105V187.632M1462.53 150.105H1500.94M1462.53 187.632V225.158M1462.53 187.632H1500.94M1462.53 225.158V262.684M1462.53 225.158H1500.94M1462.53 262.684V300.211M1462.53 262.684H1500.94M1462.53 300.211V337.737M1462.53 300.211H1500.94M1462.53 337.737V375.263M1462.53 337.737H1500.94M1462.53 375.263V412.789M1462.53 375.263H1500.94M1462.53 412.789V450.316M1462.53 412.789H1500.94M1462.53 450.316V487.842M1462.53 450.316H1500.94M1462.53 487.842V525.368M1462.53 487.842H1500.94M1462.53 525.368V562.895M1462.53 525.368H1500.94M1462.53 562.895V600.421M1462.53 562.895H1500.94M1462.53 600.421V637.947M1462.53 600.421H1500.94M1462.53 637.947V675.474M1462.53 637.947H1500.94M1462.53 675.474V713M1462.53 675.474H1500.94M1462.53 713H1500.94V675.474M1500.94 37.5263V75.0526M1500.94 75.0526V112.579M1500.94 112.579V150.105M1500.94 150.105V187.632M1500.94 187.632V225.158M1500.94 225.158V262.684M1500.94 262.684V300.211M1500.94 300.211V337.737M1500.94 337.737V375.263M1500.94 375.263V412.789M1500.94 412.789V450.316M1500.94 450.316V487.842M1500.94 487.842V525.368M1500.94 525.368V562.895M1500.94 562.895V600.421M1500.94 600.421V637.947M1500.94 637.947V675.474" stroke="url(#paint0_linear_148_24783)" stroke-opacity="0.17" stroke-width="1.20053"/>
<defs>
<linearGradient id="paint0_linear_148_24783" x1="655.894" y1="0" x2="655.894" y2="713" gradientUnits="userSpaceOnUse">
<stop stop-color="white"/>
<stop offset="1" stop-color="#A7C6ED"/>
</linearGradient>
</defs>
</svg>
