<svg preserveAspectRatio="none" width="100%" height="100%" overflow="visible" style="display: block;" viewBox="0 0 1691.3 714.201" fill="none" xmlns="http://www.w3.org/2000/svg">
<path id="Vector" d="M39.0116 0.600267H0.600267V38.1266M39.0116 0.600267V38.1266M39.0116 0.600267H77.4229M39.0116 38.1266H0.600267M39.0116 38.1266V75.6529M39.0116 38.1266H77.4229M0.600267 38.1266V75.6529M39.0116 75.6529H0.600267M39.0116 75.6529V113.179M39.0116 75.6529H77.4229M0.600267 75.6529V113.179M39.0116 113.179H0.600267M39.0116 113.179V150.706M39.0116 113.179H77.4229M0.600267 113.179V150.706M39.0116 150.706H0.600267M39.0116 150.706V188.232M39.0116 150.706H77.4229M0.600267 150.706V188.232M39.0116 188.232H0.600267M39.0116 188.232V225.758M39.0116 188.232H77.4229M0.600267 188.232V225.758M39.0116 225.758H0.600267M39.0116 225.758V263.284M39.0116 225.758H77.4229M0.600267 225.758V263.284M39.0116 263.284H0.600267M39.0116 263.284V300.811M39.0116 263.284H77.4229M0.600267 263.284V300.811M39.0116 300.811H0.600267M39.0116 300.811V338.337M39.0116 300.811H77.4229M0.600267 300.811V338.337M39.0116 338.337H0.600267M39.0116 338.337V375.863M39.0116 338.337H77.4229M0.600267 338.337V375.863M39.0116 375.863H0.600267M39.0116 375.863V413.39M39.0116 375.863H77.4229M0.600267 375.863V413.39M39.0116 413.39H0.600267M39.0116 413.39V450.916M39.0116 413.39H77.4229M0.600267 413.39V450.916M39.0116 450.916H0.600267M39.0116 450.916V488.442M39.0116 450.916H77.4229M0.600267 450.916V488.442M39.0116 488.442H0.600267M39.0116 488.442V525.969M39.0116 488.442H77.4229M0.600267 488.442V525.969M39.0116 525.969H0.600267M39.0116 525.969V563.495M39.0116 525.969H77.4229M0.600267 525.969V563.495M39.0116 563.495H0.600267M39.0116 563.495V601.021M39.0116 563.495H77.4229M0.600267 563.495V601.021M39.0116 601.021H0.600267M39.0116 601.021V638.548M39.0116 601.021H77.4229M0.600267 601.021V638.548M39.0116 638.548H0.600267M39.0116 638.548V676.074M39.0116 638.548H77.4229M0.600267 638.548V676.074M39.0116 676.074H0.600267M39.0116 676.074V713.6M39.0116 676.074H77.4229M0.600267 676.074V713.6H39.0116M39.0116 713.6H77.4229M77.4229 0.600267V38.1266M77.4229 0.600267H115.834M77.4229 38.1266V75.6529M77.4229 38.1266H115.834M77.4229 75.6529V113.179M77.4229 75.6529H115.834M77.4229 113.179V150.706M77.4229 113.179H115.834M77.4229 150.706V188.232M77.4229 150.706H115.834M77.4229 188.232V225.758M77.4229 188.232H115.834M77.4229 225.758V263.284M77.4229 225.758H115.834M77.4229 263.284V300.811M77.4229 263.284H115.834M77.4229 300.811V338.337M77.4229 300.811H115.834M77.4229 338.337V375.863M77.4229 338.337H115.834M77.4229 375.863V413.39M77.4229 375.863H115.834M77.4229 413.39V450.916M77.4229 413.39H115.834M77.4229 450.916V488.442M77.4229 450.916H115.834M77.4229 488.442V525.969M77.4229 488.442H115.834M77.4229 525.969V563.495M77.4229 525.969H115.834M77.4229 563.495V601.021M77.4229 563.495H115.834M77.4229 601.021V638.548M77.4229 601.021H115.834M77.4229 638.548V676.074M77.4229 638.548H115.834M77.4229 676.074V713.6M77.4229 676.074H115.834M77.4229 713.6H115.834M115.834 0.600267V38.1266M115.834 0.600267H154.246M115.834 38.1266V75.6529M115.834 38.1266H154.246M115.834 75.6529V113.179M115.834 75.6529H154.246M115.834 113.179V150.706M115.834 113.179H154.246M115.834 150.706V188.232M115.834 150.706H154.246M115.834 188.232V225.758M115.834 188.232H154.246M115.834 225.758V263.284M115.834 225.758H154.246M115.834 263.284V300.811M115.834 263.284H154.246M115.834 300.811V338.337M115.834 300.811H154.246M115.834 338.337V375.863M115.834 338.337H154.246M115.834 375.863V413.39M115.834 375.863H154.246M115.834 413.39V450.916M115.834 413.39H154.246M115.834 450.916V488.442M115.834 450.916H154.246M115.834 488.442V525.969M115.834 488.442H154.246M115.834 525.969V563.495M115.834 525.969H154.246M115.834 563.495V601.021M115.834 563.495H154.246M115.834 601.021V638.548M115.834 601.021H154.246M115.834 638.548V676.074M115.834 638.548H154.246M115.834 676.074V713.6M115.834 676.074H154.246M115.834 713.6H154.246M154.246 0.600267V38.1266M154.246 0.600267H192.657M154.246 38.1266V75.6529M154.246 38.1266H192.657M154.246 75.6529V113.179M154.246 75.6529H192.657M154.246 113.179V150.706M154.246 113.179H192.657M154.246 150.706V188.232M154.246 150.706H192.657M154.246 188.232V225.758M154.246 188.232H192.657M154.246 225.758V263.284M154.246 225.758H192.657M154.246 263.284V300.811M154.246 263.284H192.657M154.246 300.811V338.337M154.246 300.811H192.657M154.246 338.337V375.863M154.246 338.337H192.657M154.246 375.863V413.39M154.246 375.863H192.657M154.246 413.39V450.916M154.246 413.39H192.657M154.246 450.916V488.442M154.246 450.916H192.657M154.246 488.442V525.969M154.246 488.442H192.657M154.246 525.969V563.495M154.246 525.969H192.657M154.246 563.495V601.021M154.246 563.495H192.657M154.246 601.021V638.548M154.246 601.021H192.657M154.246 638.548V676.074M154.246 638.548H192.657M154.246 676.074V713.6M154.246 676.074H192.657M154.246 713.6H192.657M192.657 0.600267V38.1266M192.657 0.600267H231.068M192.657 38.1266V75.6529M192.657 38.1266H231.068M192.657 75.6529V113.179M192.657 75.6529H231.068M192.657 113.179V150.706M192.657 113.179H231.068M192.657 150.706V188.232M192.657 150.706H231.068M192.657 188.232V225.758M192.657 188.232H231.068M192.657 225.758V263.284M192.657 225.758H231.068M192.657 263.284V300.811M192.657 263.284H231.068M192.657 300.811V338.337M192.657 300.811H231.068M192.657 338.337V375.863M192.657 338.337H231.068M192.657 375.863V413.39M192.657 375.863H231.068M192.657 413.39V450.916M192.657 413.39H231.068M192.657 450.916V488.442M192.657 450.916H231.068M192.657 488.442V525.969M192.657 488.442H231.068M192.657 525.969V563.495M192.657 525.969H231.068M192.657 563.495V601.021M192.657 563.495H231.068M192.657 601.021V638.548M192.657 601.021H231.068M192.657 638.548V676.074M192.657 638.548H231.068M192.657 676.074V713.6M192.657 676.074H231.068M192.657 713.6H231.068M231.068 0.600267V38.1266M231.068 0.600267H269.48M231.068 38.1266V75.6529M231.068 38.1266H269.48M231.068 75.6529V113.179M231.068 75.6529H269.48M231.068 113.179V150.706M231.068 113.179H269.48M231.068 150.706V188.232M231.068 150.706H269.48M231.068 188.232V225.758M231.068 188.232H269.48M231.068 225.758V263.284M231.068 225.758H269.48M231.068 263.284V300.811M231.068 263.284H269.48M231.068 300.811V338.337M231.068 300.811H269.48M231.068 338.337V375.863M231.068 338.337H269.48M231.068 375.863V413.39M231.068 375.863H269.48M231.068 413.39V450.916M231.068 413.39H269.48M231.068 450.916V488.442M231.068 450.916H269.48M231.068 488.442V525.969M231.068 488.442H269.48M231.068 525.969V563.495M231.068 525.969H269.48M231.068 563.495V601.021M231.068 563.495H269.48M231.068 601.021V638.548M231.068 601.021H269.48M231.068 638.548V676.074M231.068 638.548H269.48M231.068 676.074V713.6M231.068 676.074H269.48M231.068 713.6H269.48M269.48 0.600267V38.1266M269.48 0.600267H307.891M269.48 38.1266V75.6529M269.48 38.1266H307.891M269.48 75.6529V113.179M269.48 75.6529H307.891M269.48 113.179V150.706M269.48 113.179H307.891M269.48 150.706V188.232M269.48 150.706H307.891M269.48 188.232V225.758M269.48 188.232H307.891M269.48 225.758V263.284M269.48 225.758H307.891M269.48 263.284V300.811M269.48 263.284H307.891M269.48 300.811V338.337M269.48 300.811H307.891M269.48 338.337V375.863M269.48 338.337H307.891M269.48 375.863V413.39M269.48 375.863H307.891M269.48 413.39V450.916M269.48 413.39H307.891M269.48 450.916V488.442M269.48 450.916H307.891M269.48 488.442V525.969M269.48 488.442H307.891M269.48 525.969V563.495M269.48 525.969H307.891M269.48 563.495V601.021M269.48 563.495H307.891M269.48 601.021V638.548M269.48 601.021H307.891M269.48 638.548V676.074M269.48 638.548H307.891M269.48 676.074V713.6M269.48 676.074H307.891M269.48 713.6H307.891M307.891 0.600267V38.1266M307.891 0.600267H346.302M307.891 38.1266V75.6529M307.891 38.1266H346.302M307.891 75.6529V113.179M307.891 75.6529H346.302M307.891 113.179V150.706M307.891 113.179H346.302M307.891 150.706V188.232M307.891 150.706H346.302M307.891 188.232V225.758M307.891 188.232H346.302M307.891 225.758V263.284M307.891 225.758H346.302M307.891 263.284V300.811M307.891 263.284H346.302M307.891 300.811V338.337M307.891 300.811H346.302M307.891 338.337V375.863M307.891 338.337H346.302M307.891 375.863V413.39M307.891 375.863H346.302M307.891 413.39V450.916M307.891 413.39H346.302M307.891 450.916V488.442M307.891 450.916H346.302M307.891 488.442V525.969M307.891 488.442H346.302M307.891 525.969V563.495M307.891 525.969H346.302M307.891 563.495V601.021M307.891 563.495H346.302M307.891 601.021V638.548M307.891 601.021H346.302M307.891 638.548V676.074M307.891 638.548H346.302M307.891 676.074V713.6M307.891 676.074H346.302M307.891 713.6H346.302M346.302 0.600267V38.1266M346.302 0.600267H384.713M346.302 38.1266V75.6529M346.302 38.1266H384.713M346.302 75.6529V113.179M346.302 75.6529H384.713M346.302 113.179V150.706M346.302 113.179H384.713M346.302 150.706V188.232M346.302 150.706H384.713M346.302 188.232V225.758M346.302 188.232H384.713M346.302 225.758V263.284M346.302 225.758H384.713M346.302 263.284V300.811M346.302 263.284H384.713M346.302 300.811V338.337M346.302 300.811H384.713M346.302 338.337V375.863M346.302 338.337H384.713M346.302 375.863V413.39M346.302 375.863H384.713M346.302 413.39V450.916M346.302 413.39H384.713M346.302 450.916V488.442M346.302 450.916H384.713M346.302 488.442V525.969M346.302 488.442H384.713M346.302 525.969V563.495M346.302 525.969H384.713M346.302 563.495V601.021M346.302 563.495H384.713M346.302 601.021V638.548M346.302 601.021H384.713M346.302 638.548V676.074M346.302 638.548H384.713M346.302 676.074V713.6M346.302 676.074H384.713M346.302 713.6H384.713M384.713 0.600267V38.1266M384.713 0.600267H423.125M384.713 38.1266V75.6529M384.713 38.1266H423.125M384.713 75.6529V113.179M384.713 75.6529H423.125M384.713 113.179V150.706M384.713 113.179H423.125M384.713 150.706V188.232M384.713 150.706H423.125M384.713 188.232V225.758M384.713 188.232H423.125M384.713 225.758V263.284M384.713 225.758H423.125M384.713 263.284V300.811M384.713 263.284H423.125M384.713 300.811V338.337M384.713 300.811H423.125M384.713 338.337V375.863M384.713 338.337H423.125M384.713 375.863V413.39M384.713 375.863H423.125M384.713 413.39V450.916M384.713 413.39H423.125M384.713 450.916V488.442M384.713 450.916H423.125M384.713 488.442V525.969M384.713 488.442H423.125M384.713 525.969V563.495M384.713 525.969H423.125M384.713 563.495V601.021M384.713 563.495H423.125M384.713 601.021V638.548M384.713 601.021H423.125M384.713 638.548V676.074M384.713 638.548H423.125M384.713 676.074V713.6M384.713 676.074H423.125M384.713 713.6H423.125M423.125 0.600267V38.1266M423.125 0.600267H461.536M423.125 38.1266V75.6529M423.125 38.1266H461.536M423.125 75.6529V113.179M423.125 75.6529H461.536M423.125 113.179V150.706M423.125 113.179H461.536M423.125 150.706V188.232M423.125 150.706H461.536M423.125 188.232V225.758M423.125 188.232H461.536M423.125 225.758V263.284M423.125 225.758H461.536M423.125 263.284V300.811M423.125 263.284H461.536M423.125 300.811V338.337M423.125 300.811H461.536M423.125 338.337V375.863M423.125 338.337H461.536M423.125 375.863V413.39M423.125 375.863H461.536M423.125 413.39V450.916M423.125 413.39H461.536M423.125 450.916V488.442M423.125 450.916H461.536M423.125 488.442V525.969M423.125 488.442H461.536M423.125 525.969V563.495M423.125 525.969H461.536M423.125 563.495V601.021M423.125 563.495H461.536M423.125 601.021V638.548M423.125 601.021H461.536M423.125 638.548V676.074M423.125 638.548H461.536M423.125 676.074V713.6M423.125 676.074H461.536M423.125 713.6H461.536M461.536 0.600267V38.1266M461.536 0.600267H499.947M461.536 38.1266V75.6529M461.536 38.1266H499.947M461.536 75.6529V113.179M461.536 75.6529H499.947M461.536 113.179V150.706M461.536 113.179H499.947M461.536 150.706V188.232M461.536 150.706H499.947M461.536 188.232V225.758M461.536 188.232H499.947M461.536 225.758V263.284M461.536 225.758H499.947M461.536 263.284V300.811M461.536 263.284H499.947M461.536 300.811V338.337M461.536 300.811H499.947M461.536 338.337V375.863M461.536 338.337H499.947M461.536 375.863V413.39M461.536 375.863H499.947M461.536 413.39V450.916M461.536 413.39H499.947M461.536 450.916V488.442M461.536 450.916H499.947M461.536 488.442V525.969M461.536 488.442H499.947M461.536 525.969V563.495M461.536 525.969H499.947M461.536 563.495V601.021M461.536 563.495H499.947M461.536 601.021V638.548M461.536 601.021H499.947M461.536 638.548V676.074M461.536 638.548H499.947M461.536 676.074V713.6M461.536 676.074H499.947M461.536 713.6H499.947M499.947 0.600267V38.1266M499.947 0.600267H538.359M499.947 38.1266V75.6529M499.947 38.1266H538.359M499.947 75.6529V113.179M499.947 75.6529H538.359M499.947 113.179V150.706M499.947 113.179H538.359M499.947 150.706V188.232M499.947 150.706H538.359M499.947 188.232V225.758M499.947 188.232H538.359M499.947 225.758V263.284M499.947 225.758H538.359M499.947 263.284V300.811M499.947 263.284H538.359M499.947 300.811V338.337M499.947 300.811H538.359M499.947 338.337V375.863M499.947 338.337H538.359M499.947 375.863V413.39M499.947 375.863H538.359M499.947 413.39V450.916M499.947 413.39H538.359M499.947 450.916V488.442M499.947 450.916H538.359M499.947 488.442V525.969M499.947 488.442H538.359M499.947 525.969V563.495M499.947 525.969H538.359M499.947 563.495V601.021M499.947 563.495H538.359M499.947 601.021V638.548M499.947 601.021H538.359M499.947 638.548V676.074M499.947 638.548H538.359M499.947 676.074V713.6M499.947 676.074H538.359M499.947 713.6H538.359M538.359 0.600267V38.1266M538.359 0.600267H576.77M538.359 38.1266V75.6529M538.359 38.1266H576.77M538.359 75.6529V113.179M538.359 75.6529H576.77M538.359 113.179V150.706M538.359 113.179H576.77M538.359 150.706V188.232M538.359 150.706H576.77M538.359 188.232V225.758M538.359 188.232H576.77M538.359 225.758V263.284M538.359 225.758H576.77M538.359 263.284V300.811M538.359 263.284H576.77M538.359 300.811V338.337M538.359 300.811H576.77M538.359 338.337V375.863M538.359 338.337H576.77M538.359 375.863V413.39M538.359 375.863H576.77M538.359 413.39V450.916M538.359 413.39H576.77M538.359 450.916V488.442M538.359 450.916H576.77M538.359 488.442V525.969M538.359 488.442H576.77M538.359 525.969V563.495M538.359 525.969H576.77M538.359 563.495V601.021M538.359 563.495H576.77M538.359 601.021V638.548M538.359 601.021H576.77M538.359 638.548V676.074M538.359 638.548H576.77M538.359 676.074V713.6M538.359 676.074H576.77M538.359 713.6H576.77M576.77 0.600267V38.1266M576.77 0.600267H615.181M576.77 38.1266V75.6529M576.77 38.1266H615.181M576.77 75.6529V113.179M576.77 75.6529H615.181M576.77 113.179V150.706M576.77 113.179H615.181M576.77 150.706V188.232M576.77 150.706H615.181M576.77 188.232V225.758M576.77 188.232H615.181M576.77 225.758V263.284M576.77 225.758H615.181M576.77 263.284V300.811M576.77 263.284H615.181M576.77 300.811V338.337M576.77 300.811H615.181M576.77 338.337V375.863M576.77 338.337H615.181M576.77 375.863V413.39M576.77 375.863H615.181M576.77 413.39V450.916M576.77 413.39H615.181M576.77 450.916V488.442M576.77 450.916H615.181M576.77 488.442V525.969M576.77 488.442H615.181M576.77 525.969V563.495M576.77 525.969H615.181M576.77 563.495V601.021M576.77 563.495H615.181M576.77 601.021V638.548M576.77 601.021H615.181M576.77 638.548V676.074M576.77 638.548H615.181M576.77 676.074V713.6M576.77 676.074H615.181M576.77 713.6H615.181M615.181 0.600267V38.1266M615.181 0.600267H653.593M615.181 38.1266V75.6529M615.181 38.1266H653.593M615.181 75.6529V113.179M615.181 75.6529H653.593M615.181 113.179V150.706M615.181 113.179H653.593M615.181 150.706V188.232M615.181 150.706H653.593M615.181 188.232V225.758M615.181 188.232H653.593M615.181 225.758V263.284M615.181 225.758H653.593M615.181 263.284V300.811M615.181 263.284H653.593M615.181 300.811V338.337M615.181 300.811H653.593M615.181 338.337V375.863M615.181 338.337H653.593M615.181 375.863V413.39M615.181 375.863H653.593M615.181 413.39V450.916M615.181 413.39H653.593M615.181 450.916V488.442M615.181 450.916H653.593M615.181 488.442V525.969M615.181 488.442H653.593M615.181 525.969V563.495M615.181 525.969H653.593M615.181 563.495V601.021M615.181 563.495H653.593M615.181 601.021V638.548M615.181 601.021H653.593M615.181 638.548V676.074M615.181 638.548H653.593M615.181 676.074V713.6M615.181 676.074H653.593M615.181 713.6H653.593M653.593 0.600267V38.1266M653.593 0.600267H692.004M653.593 38.1266V75.6529M653.593 38.1266H692.004M653.593 75.6529V113.179M653.593 75.6529H692.004M653.593 113.179V150.706M653.593 113.179H692.004M653.593 150.706V188.232M653.593 150.706H692.004M653.593 188.232V225.758M653.593 188.232H692.004M653.593 225.758V263.284M653.593 225.758H692.004M653.593 263.284V300.811M653.593 263.284H692.004M653.593 300.811V338.337M653.593 300.811H692.004M653.593 338.337V375.863M653.593 338.337H692.004M653.593 375.863V413.39M653.593 375.863H692.004M653.593 413.39V450.916M653.593 413.39H692.004M653.593 450.916V488.442M653.593 450.916H692.004M653.593 488.442V525.969M653.593 488.442H692.004M653.593 525.969V563.495M653.593 525.969H692.004M653.593 563.495V601.021M653.593 563.495H692.004M653.593 601.021V638.548M653.593 601.021H692.004M653.593 638.548V676.074M653.593 638.548H692.004M653.593 676.074V713.6M653.593 676.074H692.004M653.593 713.6H692.004M692.004 0.600267V38.1266M692.004 0.600267H730.415M692.004 38.1266V75.6529M692.004 38.1266H730.415M692.004 75.6529V113.179M692.004 75.6529H730.415M692.004 113.179V150.706M692.004 113.179H730.415M692.004 150.706V188.232M692.004 150.706H730.415M692.004 188.232V225.758M692.004 188.232H730.415M692.004 225.758V263.284M692.004 225.758H730.415M692.004 263.284V300.811M692.004 263.284H730.415M692.004 300.811V338.337M692.004 300.811H730.415M692.004 338.337V375.863M692.004 338.337H730.415M692.004 375.863V413.39M692.004 375.863H730.415M692.004 413.39V450.916M692.004 413.39H730.415M692.004 450.916V488.442M692.004 450.916H730.415M692.004 488.442V525.969M692.004 488.442H730.415M692.004 525.969V563.495M692.004 525.969H730.415M692.004 563.495V601.021M692.004 563.495H730.415M692.004 601.021V638.548M692.004 601.021H730.415M692.004 638.548V676.074M692.004 638.548H730.415M692.004 676.074V713.6M692.004 676.074H730.415M692.004 713.6H730.415M730.415 0.600267V38.1266M730.415 0.600267H768.827M730.415 38.1266V75.6529M730.415 38.1266H768.827M730.415 75.6529V113.179M730.415 75.6529H768.827M730.415 113.179V150.706M730.415 113.179H768.827M730.415 150.706V188.232M730.415 150.706H768.827M730.415 188.232V225.758M730.415 188.232H768.827M730.415 225.758V263.284M730.415 225.758H768.827M730.415 263.284V300.811M730.415 263.284H768.827M730.415 300.811V338.337M730.415 300.811H768.827M730.415 338.337V375.863M730.415 338.337H768.827M730.415 375.863V413.39M730.415 375.863H768.827M730.415 413.39V450.916M730.415 413.39H768.827M730.415 450.916V488.442M730.415 450.916H768.827M730.415 488.442V525.969M730.415 488.442H768.827M730.415 525.969V563.495M730.415 525.969H768.827M730.415 563.495V601.021M730.415 563.495H768.827M730.415 601.021V638.548M730.415 601.021H768.827M730.415 638.548V676.074M730.415 638.548H768.827M730.415 676.074V713.6M730.415 676.074H768.827M730.415 713.6H768.827M768.827 0.600267V38.1266M768.827 0.600267H807.238M768.827 38.1266V75.6529M768.827 38.1266H807.238M768.827 75.6529V113.179M768.827 75.6529H807.238M768.827 113.179V150.706M768.827 113.179H807.238M768.827 150.706V188.232M768.827 150.706H807.238M768.827 188.232V225.758M768.827 188.232H807.238M768.827 225.758V263.284M768.827 225.758H807.238M768.827 263.284V300.811M768.827 263.284H807.238M768.827 300.811V338.337M768.827 300.811H807.238M768.827 338.337V375.863M768.827 338.337H807.238M768.827 375.863V413.39M768.827 375.863H807.238M768.827 413.39V450.916M768.827 413.39H807.238M768.827 450.916V488.442M768.827 450.916H807.238M768.827 488.442V525.969M768.827 488.442H807.238M768.827 525.969V563.495M768.827 525.969H807.238M768.827 563.495V601.021M768.827 563.495H807.238M768.827 601.021V638.548M768.827 601.021H807.238M768.827 638.548V676.074M768.827 638.548H807.238M768.827 676.074V713.6M768.827 676.074H807.238M768.827 713.6H807.238M807.238 0.600267V38.1266M807.238 0.600267H845.649M807.238 38.1266V75.6529M807.238 38.1266H845.649M807.238 75.6529V113.179M807.238 75.6529H845.649M807.238 113.179V150.706M807.238 113.179H845.649M807.238 150.706V188.232M807.238 150.706H845.649M807.238 188.232V225.758M807.238 188.232H845.649M807.238 225.758V263.284M807.238 225.758H845.649M807.238 263.284V300.811M807.238 263.284H845.649M807.238 300.811V338.337M807.238 300.811H845.649M807.238 338.337V375.863M807.238 338.337H845.649M807.238 375.863V413.39M807.238 375.863H845.649M807.238 413.39V450.916M807.238 413.39H845.649M807.238 450.916V488.442M807.238 450.916H845.649M807.238 488.442V525.969M807.238 488.442H845.649M807.238 525.969V563.495M807.238 525.969H845.649M807.238 563.495V601.021M807.238 563.495H845.649M807.238 601.021V638.548M807.238 601.021H845.649M807.238 638.548V676.074M807.238 638.548H845.649M807.238 676.074V713.6M807.238 676.074H845.649M807.238 713.6H845.649M845.649 0.600267V38.1266M845.649 0.600267H884.061M845.649 38.1266V75.6529M845.649 38.1266H884.061M845.649 75.6529V113.179M845.649 75.6529H884.061M845.649 113.179V150.706M845.649 113.179H884.061M845.649 150.706V188.232M845.649 150.706H884.061M845.649 188.232V225.758M845.649 188.232H884.061M845.649 225.758V263.284M845.649 225.758H884.061M845.649 263.284V300.811M845.649 263.284H884.061M845.649 300.811V338.337M845.649 300.811H884.061M845.649 338.337V375.863M845.649 338.337H884.061M845.649 375.863V413.39M845.649 375.863H884.061M845.649 413.39V450.916M845.649 413.39H884.061M845.649 450.916V488.442M845.649 450.916H884.061M845.649 488.442V525.969M845.649 488.442H884.061M845.649 525.969V563.495M845.649 525.969H884.061M845.649 563.495V601.021M845.649 563.495H884.061M845.649 601.021V638.548M845.649 601.021H884.061M845.649 638.548V676.074M845.649 638.548H884.061M845.649 676.074V713.6M845.649 676.074H884.061M845.649 713.6H884.061M884.061 0.600267V38.1266M884.061 0.600267H922.472M884.061 38.1266V75.6529M884.061 38.1266H922.472M884.061 75.6529V113.179M884.061 75.6529H922.472M884.061 113.179V150.706M884.061 113.179H922.472M884.061 150.706V188.232M884.061 150.706H922.472M884.061 188.232V225.758M884.061 188.232H922.472M884.061 225.758V263.284M884.061 225.758H922.472M884.061 263.284V300.811M884.061 263.284H922.472M884.061 300.811V338.337M884.061 300.811H922.472M884.061 338.337V375.863M884.061 338.337H922.472M884.061 375.863V413.39M884.061 375.863H922.472M884.061 413.39V450.916M884.061 413.39H922.472M884.061 450.916V488.442M884.061 450.916H922.472M884.061 488.442V525.969M884.061 488.442H922.472M884.061 525.969V563.495M884.061 525.969H922.472M884.061 563.495V601.021M884.061 563.495H922.472M884.061 601.021V638.548M884.061 601.021H922.472M884.061 638.548V676.074M884.061 638.548H922.472M884.061 676.074V713.6M884.061 676.074H922.472M884.061 713.6H922.472M922.472 0.600267V38.1266M922.472 0.600267H960.883M922.472 38.1266V75.6529M922.472 38.1266H960.883M922.472 75.6529V113.179M922.472 75.6529H960.883M922.472 113.179V150.706M922.472 113.179H960.883M922.472 150.706V188.232M922.472 150.706H960.883M922.472 188.232V225.758M922.472 188.232H960.883M922.472 225.758V263.284M922.472 225.758H960.883M922.472 263.284V300.811M922.472 263.284H960.883M922.472 300.811V338.337M922.472 300.811H960.883M922.472 338.337V375.863M922.472 338.337H960.883M922.472 375.863V413.39M922.472 375.863H960.883M922.472 413.39V450.916M922.472 413.39H960.883M922.472 450.916V488.442M922.472 450.916H960.883M922.472 488.442V525.969M922.472 488.442H960.883M922.472 525.969V563.495M922.472 525.969H960.883M922.472 563.495V601.021M922.472 563.495H960.883M922.472 601.021V638.548M922.472 601.021H960.883M922.472 638.548V676.074M922.472 638.548H960.883M922.472 676.074V713.6M922.472 676.074H960.883M922.472 713.6H960.883M960.883 0.600267V38.1266M960.883 0.600267H999.295M960.883 38.1266V75.6529M960.883 38.1266H999.295M960.883 75.6529V113.179M960.883 75.6529H999.295M960.883 113.179V150.706M960.883 113.179H999.295M960.883 150.706V188.232M960.883 150.706H999.295M960.883 188.232V225.758M960.883 188.232H999.295M960.883 225.758V263.284M960.883 225.758H999.295M960.883 263.284V300.811M960.883 263.284H999.295M960.883 300.811V338.337M960.883 300.811H999.295M960.883 338.337V375.863M960.883 338.337H999.295M960.883 375.863V413.39M960.883 375.863H999.295M960.883 413.39V450.916M960.883 413.39H999.295M960.883 450.916V488.442M960.883 450.916H999.295M960.883 488.442V525.969M960.883 488.442H999.295M960.883 525.969V563.495M960.883 525.969H999.295M960.883 563.495V601.021M960.883 563.495H999.295M960.883 601.021V638.548M960.883 601.021H999.295M960.883 638.548V676.074M960.883 638.548H999.295M960.883 676.074V713.6M960.883 676.074H999.295M960.883 713.6H999.295M999.295 0.600267V38.1266M999.295 0.600267H1037.71M999.295 38.1266V75.6529M999.295 38.1266H1037.71M999.295 75.6529V113.179M999.295 75.6529H1037.71M999.295 113.179V150.706M999.295 113.179H1037.71M999.295 150.706V188.232M999.295 150.706H1037.71M999.295 188.232V225.758M999.295 188.232H1037.71M999.295 225.758V263.284M999.295 225.758H1037.71M999.295 263.284V300.811M999.295 263.284H1037.71M999.295 300.811V338.337M999.295 300.811H1037.71M999.295 338.337V375.863M999.295 338.337H1037.71M999.295 375.863V413.39M999.295 375.863H1037.71M999.295 413.39V450.916M999.295 413.39H1037.71M999.295 450.916V488.442M999.295 450.916H1037.71M999.295 488.442V525.969M999.295 488.442H1037.71M999.295 525.969V563.495M999.295 525.969H1037.71M999.295 563.495V601.021M999.295 563.495H1037.71M999.295 601.021V638.548M999.295 601.021H1037.71M999.295 638.548V676.074M999.295 638.548H1037.71M999.295 676.074V713.6M999.295 676.074H1037.71M999.295 713.6H1037.71M1037.71 0.600267V38.1266M1037.71 0.600267H1076.12M1037.71 38.1266V75.6529M1037.71 38.1266H1076.12M1037.71 75.6529V113.179M1037.71 75.6529H1076.12M1037.71 113.179V150.706M1037.71 113.179H1076.12M1037.71 150.706V188.232M1037.71 150.706H1076.12M1037.71 188.232V225.758M1037.71 188.232H1076.12M1037.71 225.758V263.284M1037.71 225.758H1076.12M1037.71 263.284V300.811M1037.71 263.284H1076.12M1037.71 300.811V338.337M1037.71 300.811H1076.12M1037.71 338.337V375.863M1037.71 338.337H1076.12M1037.71 375.863V413.39M1037.71 375.863H1076.12M1037.71 413.39V450.916M1037.71 413.39H1076.12M1037.71 450.916V488.442M1037.71 450.916H1076.12M1037.71 488.442V525.969M1037.71 488.442H1076.12M1037.71 525.969V563.495M1037.71 525.969H1076.12M1037.71 563.495V601.021M1037.71 563.495H1076.12M1037.71 601.021V638.548M1037.71 601.021H1076.12M1037.71 638.548V676.074M1037.71 638.548H1076.12M1037.71 676.074V713.6M1037.71 676.074H1076.12M1037.71 713.6H1076.12M1076.12 0.600267V38.1266M1076.12 0.600267H1114.53M1076.12 38.1266V75.6529M1076.12 38.1266H1114.53M1076.12 75.6529V113.179M1076.12 75.6529H1114.53M1076.12 113.179V150.706M1076.12 113.179H1114.53M1076.12 150.706V188.232M1076.12 150.706H1114.53M1076.12 188.232V225.758M1076.12 188.232H1114.53M1076.12 225.758V263.284M1076.12 225.758H1114.53M1076.12 263.284V300.811M1076.12 263.284H1114.53M1076.12 300.811V338.337M1076.12 300.811H1114.53M1076.12 338.337V375.863M1076.12 338.337H1114.53M1076.12 375.863V413.39M1076.12 375.863H1114.53M1076.12 413.39V450.916M1076.12 413.39H1114.53M1076.12 450.916V488.442M1076.12 450.916H1114.53M1076.12 488.442V525.969M1076.12 488.442H1114.53M1076.12 525.969V563.495M1076.12 525.969H1114.53M1076.12 563.495V601.021M1076.12 563.495H1114.53M1076.12 601.021V638.548M1076.12 601.021H1114.53M1076.12 638.548V676.074M1076.12 638.548H1114.53M1076.12 676.074V713.6M1076.12 676.074H1114.53M1076.12 713.6H1114.53M1114.53 0.600267V38.1266M1114.53 0.600267H1152.94M1114.53 38.1266V75.6529M1114.53 38.1266H1152.94M1114.53 75.6529V113.179M1114.53 75.6529H1152.94M1114.53 113.179V150.706M1114.53 113.179H1152.94M1114.53 150.706V188.232M1114.53 150.706H1152.94M1114.53 188.232V225.758M1114.53 188.232H1152.94M1114.53 225.758V263.284M1114.53 225.758H1152.94M1114.53 263.284V300.811M1114.53 263.284H1152.94M1114.53 300.811V338.337M1114.53 300.811H1152.94M1114.53 338.337V375.863M1114.53 338.337H1152.94M1114.53 375.863V413.39M1114.53 375.863H1152.94M1114.53 413.39V450.916M1114.53 413.39H1152.94M1114.53 450.916V488.442M1114.53 450.916H1152.94M1114.53 488.442V525.969M1114.53 488.442H1152.94M1114.53 525.969V563.495M1114.53 525.969H1152.94M1114.53 563.495V601.021M1114.53 563.495H1152.94M1114.53 601.021V638.548M1114.53 601.021H1152.94M1114.53 638.548V676.074M1114.53 638.548H1152.94M1114.53 676.074V713.6M1114.53 676.074H1152.94M1114.53 713.6H1152.94M1152.94 0.600267V38.1266M1152.94 0.600267H1191.35M1152.94 38.1266V75.6529M1152.94 38.1266H1191.35M1152.94 75.6529V113.179M1152.94 75.6529H1191.35M1152.94 113.179V150.706M1152.94 113.179H1191.35M1152.94 150.706V188.232M1152.94 150.706H1191.35M1152.94 188.232V225.758M1152.94 188.232H1191.35M1152.94 225.758V263.284M1152.94 225.758H1191.35M1152.94 263.284V300.811M1152.94 263.284H1191.35M1152.94 300.811V338.337M1152.94 300.811H1191.35M1152.94 338.337V375.863M1152.94 338.337H1191.35M1152.94 375.863V413.39M1152.94 375.863H1191.35M1152.94 413.39V450.916M1152.94 413.39H1191.35M1152.94 450.916V488.442M1152.94 450.916H1191.35M1152.94 488.442V525.969M1152.94 488.442H1191.35M1152.94 525.969V563.495M1152.94 525.969H1191.35M1152.94 563.495V601.021M1152.94 563.495H1191.35M1152.94 601.021V638.548M1152.94 601.021H1191.35M1152.94 638.548V676.074M1152.94 638.548H1191.35M1152.94 676.074V713.6M1152.94 676.074H1191.35M1152.94 713.6H1191.35M1191.35 0.600267V38.1266M1191.35 0.600267H1229.76M1191.35 38.1266V75.6529M1191.35 38.1266H1229.76M1191.35 75.6529V113.179M1191.35 75.6529H1229.76M1191.35 113.179V150.706M1191.35 113.179H1229.76M1191.35 150.706V188.232M1191.35 150.706H1229.76M1191.35 188.232V225.758M1191.35 188.232H1229.76M1191.35 225.758V263.284M1191.35 225.758H1229.76M1191.35 263.284V300.811M1191.35 263.284H1229.76M1191.35 300.811V338.337M1191.35 300.811H1229.76M1191.35 338.337V375.863M1191.35 338.337H1229.76M1191.35 375.863V413.39M1191.35 375.863H1229.76M1191.35 413.39V450.916M1191.35 413.39H1229.76M1191.35 450.916V488.442M1191.35 450.916H1229.76M1191.35 488.442V525.969M1191.35 488.442H1229.76M1191.35 525.969V563.495M1191.35 525.969H1229.76M1191.35 563.495V601.021M1191.35 563.495H1229.76M1191.35 601.021V638.548M1191.35 601.021H1229.76M1191.35 638.548V676.074M1191.35 638.548H1229.76M1191.35 676.074V713.6M1191.35 676.074H1229.76M1191.35 713.6H1229.76M1229.76 0.600267V38.1266M1229.76 0.600267H1268.17M1229.76 38.1266V75.6529M1229.76 38.1266H1268.17M1229.76 75.6529V113.179M1229.76 75.6529H1268.17M1229.76 113.179V150.706M1229.76 113.179H1268.17M1229.76 150.706V188.232M1229.76 150.706H1268.17M1229.76 188.232V225.758M1229.76 188.232H1268.17M1229.76 225.758V263.284M1229.76 225.758H1268.17M1229.76 263.284V300.811M1229.76 263.284H1268.17M1229.76 300.811V338.337M1229.76 300.811H1268.17M1229.76 338.337V375.863M1229.76 338.337H1268.17M1229.76 375.863V413.39M1229.76 375.863H1268.17M1229.76 413.39V450.916M1229.76 413.39H1268.17M1229.76 450.916V488.442M1229.76 450.916H1268.17M1229.76 488.442V525.969M1229.76 488.442H1268.17M1229.76 525.969V563.495M1229.76 525.969H1268.17M1229.76 563.495V601.021M1229.76 563.495H1268.17M1229.76 601.021V638.548M1229.76 601.021H1268.17M1229.76 638.548V676.074M1229.76 638.548H1268.17M1229.76 676.074V713.6M1229.76 676.074H1268.17M1229.76 713.6H1268.17M1268.17 0.600267V38.1266M1268.17 0.600267H1306.59M1268.17 38.1266V75.6529M1268.17 38.1266H1306.59M1268.17 75.6529V113.179M1268.17 75.6529H1306.59M1268.17 113.179V150.706M1268.17 113.179H1306.59M1268.17 150.706V188.232M1268.17 150.706H1306.59M1268.17 188.232V225.758M1268.17 188.232H1306.59M1268.17 225.758V263.284M1268.17 225.758H1306.59M1268.17 263.284V300.811M1268.17 263.284H1306.59M1268.17 300.811V338.337M1268.17 300.811H1306.59M1268.17 338.337V375.863M1268.17 338.337H1306.59M1268.17 375.863V413.39M1268.17 375.863H1306.59M1268.17 413.39V450.916M1268.17 413.39H1306.59M1268.17 450.916V488.442M1268.17 450.916H1306.59M1268.17 488.442V525.969M1268.17 488.442H1306.59M1268.17 525.969V563.495M1268.17 525.969H1306.59M1268.17 563.495V601.021M1268.17 563.495H1306.59M1268.17 601.021V638.548M1268.17 601.021H1306.59M1268.17 638.548V676.074M1268.17 638.548H1306.59M1268.17 676.074V713.6M1268.17 676.074H1306.59M1268.17 713.6H1306.59M1306.59 0.600267V38.1266M1306.59 0.600267H1345M1306.59 38.1266V75.6529M1306.59 38.1266H1345M1306.59 75.6529V113.179M1306.59 75.6529H1345M1306.59 113.179V150.706M1306.59 113.179H1345M1306.59 150.706V188.232M1306.59 150.706H1345M1306.59 188.232V225.758M1306.59 188.232H1345M1306.59 225.758V263.284M1306.59 225.758H1345M1306.59 263.284V300.811M1306.59 263.284H1345M1306.59 300.811V338.337M1306.59 300.811H1345M1306.59 338.337V375.863M1306.59 338.337H1345M1306.59 375.863V413.39M1306.59 375.863H1345M1306.59 413.39V450.916M1306.59 413.39H1345M1306.59 450.916V488.442M1306.59 450.916H1345M1306.59 488.442V525.969M1306.59 488.442H1345M1306.59 525.969V563.495M1306.59 525.969H1345M1306.59 563.495V601.021M1306.59 563.495H1345M1306.59 601.021V638.548M1306.59 601.021H1345M1306.59 638.548V676.074M1306.59 638.548H1345M1306.59 676.074V713.6M1306.59 676.074H1345M1306.59 713.6H1345M1345 0.600267V38.1266M1345 0.600267H1383.41M1345 38.1266V75.6529M1345 38.1266H1383.41M1345 75.6529V113.179M1345 75.6529H1383.41M1345 113.179V150.706M1345 113.179H1383.41M1345 150.706V188.232M1345 150.706H1383.41M1345 188.232V225.758M1345 188.232H1383.41M1345 225.758V263.284M1345 225.758H1383.41M1345 263.284V300.811M1345 263.284H1383.41M1345 300.811V338.337M1345 300.811H1383.41M1345 338.337V375.863M1345 338.337H1383.41M1345 375.863V413.39M1345 375.863H1383.41M1345 413.39V450.916M1345 413.39H1383.41M1345 450.916V488.442M1345 450.916H1383.41M1345 488.442V525.969M1345 488.442H1383.41M1345 525.969V563.495M1345 525.969H1383.41M1345 563.495V601.021M1345 563.495H1383.41M1345 601.021V638.548M1345 601.021H1383.41M1345 638.548V676.074M1345 638.548H1383.41M1345 676.074V713.6M1345 676.074H1383.41M1345 713.6H1383.41M1383.41 0.600267V38.1266M1383.41 0.600267H1421.82M1383.41 38.1266V75.6529M1383.41 38.1266H1421.82M1383.41 75.6529V113.179M1383.41 75.6529H1421.82M1383.41 113.179V150.706M1383.41 113.179H1421.82M1383.41 150.706V188.232M1383.41 150.706H1421.82M1383.41 188.232V225.758M1383.41 188.232H1421.82M1383.41 225.758V263.284M1383.41 225.758H1421.82M1383.41 263.284V300.811M1383.41 263.284H1421.82M1383.41 300.811V338.337M1383.41 300.811H1421.82M1383.41 338.337V375.863M1383.41 338.337H1421.82M1383.41 375.863V413.39M1383.41 375.863H1421.82M1383.41 413.39V450.916M1383.41 413.39H1421.82M1383.41 450.916V488.442M1383.41 450.916H1421.82M1383.41 488.442V525.969M1383.41 488.442H1421.82M1383.41 525.969V563.495M1383.41 525.969H1421.82M1383.41 563.495V601.021M1383.41 563.495H1421.82M1383.41 601.021V638.548M1383.41 601.021H1421.82M1383.41 638.548V676.074M1383.41 638.548H1421.82M1383.41 676.074V713.6M1383.41 676.074H1421.82M1383.41 713.6H1421.82M1421.82 0.600267V38.1266M1421.82 0.600267H1460.23M1421.82 38.1266V75.6529M1421.82 38.1266H1460.23M1421.82 75.6529V113.179M1421.82 75.6529H1460.23M1421.82 113.179V150.706M1421.82 113.179H1460.23M1421.82 150.706V188.232M1421.82 150.706H1460.23M1421.82 188.232V225.758M1421.82 188.232H1460.23M1421.82 225.758V263.284M1421.82 225.758H1460.23M1421.82 263.284V300.811M1421.82 263.284H1460.23M1421.82 300.811V338.337M1421.82 300.811H1460.23M1421.82 338.337V375.863M1421.82 338.337H1460.23M1421.82 375.863V413.39M1421.82 375.863H1460.23M1421.82 413.39V450.916M1421.82 413.39H1460.23M1421.82 450.916V488.442M1421.82 450.916H1460.23M1421.82 488.442V525.969M1421.82 488.442H1460.23M1421.82 525.969V563.495M1421.82 525.969H1460.23M1421.82 563.495V601.021M1421.82 563.495H1460.23M1421.82 601.021V638.548M1421.82 601.021H1460.23M1421.82 638.548V676.074M1421.82 638.548H1460.23M1421.82 676.074V713.6M1421.82 676.074H1460.23M1421.82 713.6H1460.23M1460.23 0.600267V38.1266M1460.23 0.600267H1498.64M1460.23 38.1266V75.6529M1460.23 38.1266H1498.64M1460.23 75.6529V113.179M1460.23 75.6529H1498.64M1460.23 113.179V150.706M1460.23 113.179H1498.64M1460.23 150.706V188.232M1460.23 150.706H1498.64M1460.23 188.232V225.758M1460.23 188.232H1498.64M1460.23 225.758V263.284M1460.23 225.758H1498.64M1460.23 263.284V300.811M1460.23 263.284H1498.64M1460.23 300.811V338.337M1460.23 300.811H1498.64M1460.23 338.337V375.863M1460.23 338.337H1498.64M1460.23 375.863V413.39M1460.23 375.863H1498.64M1460.23 413.39V450.916M1460.23 413.39H1498.64M1460.23 450.916V488.442M1460.23 450.916H1498.64M1460.23 488.442V525.969M1460.23 488.442H1498.64M1460.23 525.969V563.495M1460.23 525.969H1498.64M1460.23 563.495V601.021M1460.23 563.495H1498.64M1460.23 601.021V638.548M1460.23 601.021H1498.64M1460.23 638.548V676.074M1460.23 638.548H1498.64M1460.23 676.074V713.6M1460.23 676.074H1498.64M1460.23 713.6H1498.64M1498.64 0.600267V38.1266M1498.64 0.600267H1537.05M1498.64 38.1266V75.6529M1498.64 38.1266H1537.05M1498.64 75.6529V113.179M1498.64 75.6529H1537.05M1498.64 113.179V150.706M1498.64 113.179H1537.05M1498.64 150.706V188.232M1498.64 150.706H1537.05M1498.64 188.232V225.758M1498.64 188.232H1537.05M1498.64 225.758V263.284M1498.64 225.758H1537.05M1498.64 263.284V300.811M1498.64 263.284H1537.05M1498.64 300.811V338.337M1498.64 300.811H1537.05M1498.64 338.337V375.863M1498.64 338.337H1537.05M1498.64 375.863V413.39M1498.64 375.863H1537.05M1498.64 413.39V450.916M1498.64 413.39H1537.05M1498.64 450.916V488.442M1498.64 450.916H1537.05M1498.64 488.442V525.969M1498.64 488.442H1537.05M1498.64 525.969V563.495M1498.64 525.969H1537.05M1498.64 563.495V601.021M1498.64 563.495H1537.05M1498.64 601.021V638.548M1498.64 601.021H1537.05M1498.64 638.548V676.074M1498.64 638.548H1537.05M1498.64 676.074V713.6M1498.64 676.074H1537.05M1498.64 713.6H1537.05M1537.05 0.600267V38.1266M1537.05 0.600267H1575.46M1537.05 38.1266V75.6529M1537.05 38.1266H1575.46M1537.05 75.6529V113.179M1537.05 75.6529H1575.46M1537.05 113.179V150.706M1537.05 113.179H1575.46M1537.05 150.706V188.232M1537.05 150.706H1575.46M1537.05 188.232V225.758M1537.05 188.232H1575.46M1537.05 225.758V263.284M1537.05 225.758H1575.46M1537.05 263.284V300.811M1537.05 263.284H1575.46M1537.05 300.811V338.337M1537.05 300.811H1575.46M1537.05 338.337V375.863M1537.05 338.337H1575.46M1537.05 375.863V413.39M1537.05 375.863H1575.46M1537.05 413.39V450.916M1537.05 413.39H1575.46M1537.05 450.916V488.442M1537.05 450.916H1575.46M1537.05 488.442V525.969M1537.05 488.442H1575.46M1537.05 525.969V563.495M1537.05 525.969H1575.46M1537.05 563.495V601.021M1537.05 563.495H1575.46M1537.05 601.021V638.548M1537.05 601.021H1575.46M1537.05 638.548V676.074M1537.05 638.548H1575.46M1537.05 676.074V713.6M1537.05 676.074H1575.46M1537.05 713.6H1575.46M1575.46 0.600267V38.1266M1575.46 0.600267H1613.88M1575.46 38.1266V75.6529M1575.46 38.1266H1613.88M1575.46 75.6529V113.179M1575.46 75.6529H1613.88M1575.46 113.179V150.706M1575.46 113.179H1613.88M1575.46 150.706V188.232M1575.46 150.706H1613.88M1575.46 188.232V225.758M1575.46 188.232H1613.88M1575.46 225.758V263.284M1575.46 225.758H1613.88M1575.46 263.284V300.811M1575.46 263.284H1613.88M1575.46 300.811V338.337M1575.46 300.811H1613.88M1575.46 338.337V375.863M1575.46 338.337H1613.88M1575.46 375.863V413.39M1575.46 375.863H1613.88M1575.46 413.39V450.916M1575.46 413.39H1613.88M1575.46 450.916V488.442M1575.46 450.916H1613.88M1575.46 488.442V525.969M1575.46 488.442H1613.88M1575.46 525.969V563.495M1575.46 525.969H1613.88M1575.46 563.495V601.021M1575.46 563.495H1613.88M1575.46 601.021V638.548M1575.46 601.021H1613.88M1575.46 638.548V676.074M1575.46 638.548H1613.88M1575.46 676.074V713.6M1575.46 676.074H1613.88M1575.46 713.6H1613.88M1613.88 0.600267V38.1266M1613.88 0.600267H1652.29M1613.88 38.1266V75.6529M1613.88 38.1266H1652.29M1613.88 75.6529V113.179M1613.88 75.6529H1652.29M1613.88 113.179V150.706M1613.88 113.179H1652.29M1613.88 150.706V188.232M1613.88 150.706H1652.29M1613.88 188.232V225.758M1613.88 188.232H1652.29M1613.88 225.758V263.284M1613.88 225.758H1652.29M1613.88 263.284V300.811M1613.88 263.284H1652.29M1613.88 300.811V338.337M1613.88 300.811H1652.29M1613.88 338.337V375.863M1613.88 338.337H1652.29M1613.88 375.863V413.39M1613.88 375.863H1652.29M1613.88 413.39V450.916M1613.88 413.39H1652.29M1613.88 450.916V488.442M1613.88 450.916H1652.29M1613.88 488.442V525.969M1613.88 488.442H1652.29M1613.88 525.969V563.495M1613.88 525.969H1652.29M1613.88 563.495V601.021M1613.88 563.495H1652.29M1613.88 601.021V638.548M1613.88 601.021H1652.29M1613.88 638.548V676.074M1613.88 638.548H1652.29M1613.88 676.074V713.6M1613.88 676.074H1652.29M1613.88 713.6H1652.29M1652.29 0.600267V38.1266M1652.29 0.600267H1690.7V38.1266M1652.29 38.1266V75.6529M1652.29 38.1266H1690.7M1652.29 75.6529V113.179M1652.29 75.6529H1690.7M1652.29 113.179V150.706M1652.29 113.179H1690.7M1652.29 150.706V188.232M1652.29 150.706H1690.7M1652.29 188.232V225.758M1652.29 188.232H1690.7M1652.29 225.758V263.284M1652.29 225.758H1690.7M1652.29 263.284V300.811M1652.29 263.284H1690.7M1652.29 300.811V338.337M1652.29 300.811H1690.7M1652.29 338.337V375.863M1652.29 338.337H1690.7M1652.29 375.863V413.39M1652.29 375.863H1690.7M1652.29 413.39V450.916M1652.29 413.39H1690.7M1652.29 450.916V488.442M1652.29 450.916H1690.7M1652.29 488.442V525.969M1652.29 488.442H1690.7M1652.29 525.969V563.495M1652.29 525.969H1690.7M1652.29 563.495V601.021M1652.29 563.495H1690.7M1652.29 601.021V638.548M1652.29 601.021H1690.7M1652.29 638.548V676.074M1652.29 638.548H1690.7M1652.29 676.074V713.6M1652.29 676.074H1690.7M1652.29 713.6H1690.7V676.074M1690.7 38.1266V75.6529M1690.7 75.6529V113.179M1690.7 113.179V150.706M1690.7 150.706V188.232M1690.7 188.232V225.758M1690.7 225.758V263.284M1690.7 263.284V300.811M1690.7 300.811V338.337M1690.7 338.337V375.863M1690.7 375.863V413.39M1690.7 413.39V450.916M1690.7 450.916V488.442M1690.7 488.442V525.969M1690.7 525.969V563.495M1690.7 563.495V601.021M1690.7 601.021V638.548M1690.7 638.548V676.074" stroke="url(#paint0_linear_0_4)" stroke-opacity="0.17" stroke-width="1.20053"/>
<defs>
<linearGradient id="paint0_linear_0_4" x1="845.649" y1="0.600267" x2="845.649" y2="713.6" gradientUnits="userSpaceOnUse">
<stop stop-color="white"/>
<stop offset="1" stop-color="#A7C6ED"/>
</linearGradient>
</defs>
</svg>
