<svg xmlns="http://www.w3.org/2000/svg" xmlns:xlink="http://www.w3.org/1999/xlink" width="1000" zoomAndPan="magnify" viewBox="0 0 750 749.999995" height="1000" preserveAspectRatio="xMidYMid meet" version="1.0"><defs><filter x="0%" y="0%" width="100%" height="100%" id="35d39c9760"><feColorMatrix values="0 0 0 0 1 0 0 0 0 1 0 0 0 0 1 0 0 0 1 0" color-interpolation-filters="sRGB"/></filter><mask id="8985d3879d"><g filter="url(#35d39c9760)"><rect x="-75" width="900" fill="#000000" y="-74.999999" height="899.999994" fill-opacity="0.15"/></g></mask><clipPath id="4e4ed69a72"><path d="M 0.960938 0.558594 L 181.921875 0.558594 L 181.921875 181.519531 L 0.960938 181.519531 Z M 0.960938 0.558594 " clip-rule="nonzero"/></clipPath><clipPath id="9aa42150c2"><path d="M 25 61 L 103 61 L 103 137 L 25 137 Z M 25 61 " clip-rule="nonzero"/></clipPath><clipPath id="97601e0dc9"><path d="M 64.761719 61.164062 L 102.996094 99.398438 L 63.964844 138.429688 L 25.730469 100.195312 Z M 64.761719 61.164062 " clip-rule="nonzero"/></clipPath><clipPath id="bc1f0df82f"><path d="M 77.699219 31.515625 L 124.691406 78.511719 L 64.15625 139.046875 L 17.164062 92.050781 Z M 77.699219 31.515625 " clip-rule="nonzero"/></clipPath><clipPath id="4544c0d8a9"><path d="M 77.699219 31.515625 L 124.691406 78.511719 L 64.15625 139.046875 L 17.164062 92.050781 Z M 77.699219 31.515625 " clip-rule="nonzero"/></clipPath><clipPath id="c6caa5cceb"><path d="M 6 27 L 156 27 L 156 177 L 6 177 Z M 6 27 " clip-rule="nonzero"/></clipPath><clipPath id="e6da0b98cf"><path d="M 102.984375 0.652344 L 181.839844 79.507812 L 79.886719 181.460938 L 1.03125 102.609375 Z M 102.984375 0.652344 " clip-rule="nonzero"/></clipPath><clipPath id="9e392bda2f"><path d="M 102.984375 0.652344 L 181.839844 79.507812 L 79.886719 181.460938 L 1.03125 102.609375 Z M 102.984375 0.652344 " clip-rule="nonzero"/></clipPath><clipPath id="edbf3053d2"><path d="M 102.984375 0.652344 L 181.839844 79.507812 L 79.886719 181.460938 L 1.03125 102.609375 Z M 102.984375 0.652344 " clip-rule="nonzero"/></clipPath><clipPath id="b9df0c1427"><path d="M 19 36 L 148 36 L 148 166 L 19 166 Z M 19 36 " clip-rule="nonzero"/></clipPath><clipPath id="22e2d6b9c6"><path d="M 102.234375 13.671875 L 170.734375 82.171875 L 83.117188 169.789062 L 14.617188 101.289062 Z M 102.234375 13.671875 " clip-rule="nonzero"/></clipPath><clipPath id="2615d87c9e"><path d="M 102.234375 13.671875 L 170.734375 82.171875 L 83.117188 169.789062 L 14.617188 101.289062 Z M 102.234375 13.671875 " clip-rule="nonzero"/></clipPath><clipPath id="379abcd7f8"><path d="M 102.234375 13.671875 L 170.734375 82.171875 L 83.117188 169.789062 L 14.617188 101.289062 Z M 102.234375 13.671875 " clip-rule="nonzero"/></clipPath><clipPath id="6a0a0e1c7e"><path d="M 10 31 L 152 31 L 152 173 L 10 173 Z M 10 31 " clip-rule="nonzero"/></clipPath><clipPath id="b88f80ddc2"><path d="M 101.609375 6.011719 L 176.484375 80.882812 L 80.105469 177.261719 L 5.230469 102.390625 Z M 101.609375 6.011719 " clip-rule="nonzero"/></clipPath><clipPath id="f7a0d965b5"><path d="M 101.609375 6.011719 L 176.484375 80.882812 L 80.105469 177.261719 L 5.230469 102.390625 Z M 101.609375 6.011719 " clip-rule="nonzero"/></clipPath><clipPath id="11745f37ca"><path d="M 101.609375 6.011719 L 176.484375 80.882812 L 80.105469 177.261719 L 5.230469 102.390625 Z M 101.609375 6.011719 " clip-rule="nonzero"/></clipPath><clipPath id="b50a200e11"><rect x="0" width="182" y="0" height="182"/></clipPath><clipPath id="db53a017f1"><rect x="0" width="182" y="0" height="182"/></clipPath><clipPath id="140bd809cd"><path d="M 25 93 L 107 93 L 107 176 L 25 176 Z M 25 93 " clip-rule="nonzero"/></clipPath><clipPath id="12e31bb7ba"><path d="M 39.210938 93.015625 L 108.757812 106.457031 L 95.1875 176.683594 L 25.640625 163.246094 Z M 39.210938 93.015625 " clip-rule="nonzero"/></clipPath><clipPath id="b7ee9fc3f6"><path d="M 31.574219 51.769531 L 116.121094 68.105469 L 95.039062 177.199219 L 10.492188 160.859375 Z M 31.574219 51.769531 " clip-rule="nonzero"/></clipPath><clipPath id="f7bed8eeac"><path d="M 3 12 L 162 12 L 162 208 L 3 208 Z M 3 12 " clip-rule="nonzero"/></clipPath><clipPath id="52f7bf9a17"><path d="M 36.324219 0.246094 L 178.144531 27.652344 L 142.832031 210.382812 L 1.011719 182.976562 Z M 36.324219 0.246094 " clip-rule="nonzero"/></clipPath><clipPath id="f303f81aa9"><path d="M 36.324219 0.246094 L 178.144531 27.652344 L 142.832031 210.382812 L 1.011719 182.976562 Z M 36.324219 0.246094 " clip-rule="nonzero"/></clipPath><clipPath id="0de1264d62"><path d="M 36.324219 0.246094 L 178.144531 27.652344 L 142.832031 210.382812 L 1.011719 182.976562 Z M 36.324219 0.246094 " clip-rule="nonzero"/></clipPath><clipPath id="f1ba91c7d1"><path d="M 16 25 L 154 25 L 154 195 L 16 195 Z M 16 25 " clip-rule="nonzero"/></clipPath><clipPath id="26bcaa6fe3"><path d="M 44.972656 14.777344 L 167.699219 38.496094 L 137.132812 196.679688 L 14.402344 172.964844 Z M 44.972656 14.777344 " clip-rule="nonzero"/></clipPath><clipPath id="7024622063"><path d="M 44.972656 14.777344 L 167.699219 38.496094 L 137.132812 196.679688 L 14.402344 172.964844 Z M 44.972656 14.777344 " clip-rule="nonzero"/></clipPath><clipPath id="015cce14c5"><path d="M 44.972656 14.777344 L 167.699219 38.496094 L 137.132812 196.679688 L 14.402344 172.964844 Z M 44.972656 14.777344 " clip-rule="nonzero"/></clipPath><clipPath id="0205109b93"><path d="M 7 19 L 158 19 L 158 205 L 7 205 Z M 7 19 " clip-rule="nonzero"/></clipPath><clipPath id="47214b6532"><path d="M 38.738281 7 L 173.738281 33.085938 L 140.140625 206.953125 L 5.140625 180.867188 Z M 38.738281 7 " clip-rule="nonzero"/></clipPath><clipPath id="2c62fc4707"><path d="M 38.738281 7 L 173.738281 33.085938 L 140.140625 206.953125 L 5.140625 180.867188 Z M 38.738281 7 " clip-rule="nonzero"/></clipPath><clipPath id="32c25136da"><rect x="0" width="179" y="0" height="212"/></clipPath></defs><g mask="url(#8985d3879d)"><g transform="matrix(1, 0, 0, 1, 342, 304)"><g clip-path="url(#db53a017f1)"><g clip-path="url(#4e4ed69a72)"><g transform="matrix(1, 0, 0, 1, -0.000000000000056843, -0.000000000000113687)"><g clip-path="url(#b50a200e11)"><g clip-path="url(#9aa42150c2)"><g clip-path="url(#97601e0dc9)"><g clip-path="url(#bc1f0df82f)"><g clip-path="url(#4544c0d8a9)"><path fill="#000000" d="M 96.265625 96.871094 L 101.230469 91.902344 C 111.390625 81.746094 111.375 65.191406 101.195312 55.015625 C 91.019531 44.835938 74.464844 44.816406 64.304688 54.976562 L 59.339844 59.945312 C 56.476562 57.230469 51.96875 57.257812 49.171875 60.058594 L 22.328125 86.902344 C 21.988281 87.242188 21.6875 87.609375 21.421875 88.007812 C 21.15625 88.40625 20.929688 88.828125 20.746094 89.269531 C 20.5625 89.710938 20.425781 90.167969 20.332031 90.636719 C 20.238281 91.109375 20.195312 91.582031 20.195312 92.0625 C 20.195312 92.539062 20.242188 93.015625 20.335938 93.484375 C 20.429688 93.957031 20.566406 94.414062 20.753906 94.855469 C 20.9375 95.296875 21.160156 95.71875 21.425781 96.117188 C 21.695312 96.515625 21.996094 96.886719 22.335938 97.226562 L 58.984375 133.875 C 59.324219 134.210938 59.691406 134.515625 60.089844 134.78125 C 60.492188 135.046875 60.910156 135.273438 61.355469 135.457031 C 61.796875 135.640625 62.253906 135.78125 62.722656 135.875 C 63.195312 135.96875 63.667969 136.015625 64.148438 136.015625 C 64.628906 136.015625 65.101562 135.96875 65.570312 135.878906 C 66.042969 135.785156 66.5 135.644531 66.941406 135.464844 C 67.382812 135.28125 67.804688 135.054688 68.203125 134.789062 C 68.601562 134.523438 68.96875 134.222656 69.308594 133.882812 L 96.152344 107.039062 C 98.953125 104.238281 98.976562 99.730469 96.265625 96.871094 Z M 67.175781 97.488281 C 66.992188 97.625 66.535156 97.898438 66.5 97.917969 C 65.09375 98.695312 63.445312 98.835938 61.921875 98.402344 L 56.523438 107.117188 C 56.425781 107.3125 56.285156 107.476562 56.109375 107.609375 C 55.933594 107.738281 55.734375 107.824219 55.519531 107.859375 C 55.300781 107.898438 55.089844 107.882812 54.878906 107.820312 C 54.667969 107.753906 54.484375 107.644531 54.324219 107.496094 L 48.828125 102 C 48.675781 101.839844 48.566406 101.65625 48.503906 101.445312 C 48.4375 101.234375 48.425781 101.019531 48.460938 100.804688 C 48.5 100.585938 48.582031 100.390625 48.714844 100.214844 C 48.84375 100.035156 49.007812 99.898438 49.207031 99.800781 L 57.808594 94.289062 C 57.375 92.765625 57.515625 91.117188 58.292969 89.710938 C 58.3125 89.671875 58.585938 89.21875 58.722656 89.035156 C 58.890625 88.808594 59.074219 88.597656 59.273438 88.398438 C 59.550781 88.117188 59.855469 87.867188 60.1875 87.648438 C 60.515625 87.429688 60.863281 87.242188 61.230469 87.089844 C 61.59375 86.941406 61.972656 86.824219 62.359375 86.75 C 62.75 86.671875 63.140625 86.632812 63.539062 86.632812 C 63.933594 86.632812 64.324219 86.671875 64.714844 86.75 C 65.101562 86.828125 65.480469 86.941406 65.847656 87.09375 C 66.214844 87.246094 66.5625 87.433594 66.890625 87.652344 C 67.21875 87.875 67.523438 88.125 67.804688 88.402344 C 68.085938 88.683594 68.335938 88.988281 68.558594 89.320312 C 68.777344 89.648438 68.964844 89.996094 69.117188 90.363281 C 69.265625 90.730469 69.382812 91.105469 69.460938 91.496094 C 69.539062 91.882812 69.578125 92.277344 69.578125 92.671875 C 69.578125 93.070312 69.539062 93.460938 69.460938 93.851562 C 69.382812 94.238281 69.269531 94.617188 69.117188 94.980469 C 68.96875 95.347656 68.78125 95.695312 68.5625 96.023438 C 68.34375 96.351562 68.09375 96.65625 67.8125 96.9375 C 67.613281 97.136719 67.398438 97.320312 67.175781 97.488281 Z M 89.976562 90.550781 L 65.65625 66.234375 L 70.609375 61.28125 C 77.304688 54.589844 88.199219 54.597656 94.90625 61.304688 C 101.617188 68.011719 101.621094 78.90625 94.925781 85.597656 Z M 89.976562 90.550781 " fill-opacity="1" fill-rule="nonzero"/></g></g></g></g><g clip-path="url(#c6caa5cceb)"><g clip-path="url(#e6da0b98cf)"><g clip-path="url(#9e392bda2f)"><g clip-path="url(#edbf3053d2)"><path fill="#000000" d="M 133.984375 110.453125 L 142.347656 102.089844 C 159.457031 84.980469 159.488281 57.15625 142.414062 40.085938 C 125.34375 23.011719 97.519531 23.03125 80.40625 40.144531 L 72.039062 48.507812 C 67.238281 43.960938 59.664062 44.019531 54.949219 48.738281 L 9.738281 93.945312 C 9.167969 94.515625 8.660156 95.136719 8.210938 95.804688 C 7.761719 96.476562 7.382812 97.183594 7.074219 97.929688 C 6.765625 98.671875 6.53125 99.441406 6.375 100.230469 C 6.214844 101.019531 6.136719 101.820312 6.136719 102.625 C 6.136719 103.429688 6.210938 104.226562 6.367188 105.015625 C 6.523438 105.808594 6.757812 106.574219 7.066406 107.316406 C 7.371094 108.0625 7.75 108.769531 8.195312 109.4375 C 8.644531 110.109375 9.152344 110.726562 9.71875 111.296875 L 71.199219 172.773438 C 71.769531 173.34375 72.386719 173.851562 73.054688 174.300781 C 73.726562 174.746094 74.433594 175.125 75.175781 175.429688 C 75.921875 175.738281 76.6875 175.96875 77.476562 176.125 C 78.265625 176.28125 79.066406 176.359375 79.871094 176.359375 C 80.675781 176.359375 81.472656 176.28125 82.265625 176.121094 C 83.054688 175.964844 83.820312 175.730469 84.566406 175.421875 C 85.3125 175.113281 86.019531 174.734375 86.6875 174.285156 C 87.359375 173.835938 87.980469 173.328125 88.550781 172.757812 L 133.757812 127.546875 C 138.476562 122.832031 138.535156 115.253906 133.984375 110.453125 Z M 85.085938 111.585938 C 84.777344 111.820312 84.011719 112.28125 83.953125 112.316406 C 81.585938 113.625 78.8125 113.867188 76.253906 113.144531 L 67.148438 127.808594 C 67.066406 127.972656 66.96875 128.125 66.851562 128.265625 C 66.730469 128.402344 66.601562 128.527344 66.453125 128.636719 C 66.304688 128.746094 66.148438 128.835938 65.980469 128.90625 C 65.8125 128.980469 65.640625 129.03125 65.460938 129.0625 C 65.28125 129.09375 65.097656 129.101562 64.917969 129.089844 C 64.734375 129.082031 64.558594 129.046875 64.382812 128.996094 C 64.207031 128.941406 64.042969 128.871094 63.886719 128.777344 C 63.726562 128.6875 63.582031 128.578125 63.453125 128.449219 L 54.234375 119.234375 C 54.109375 119.101562 54 118.957031 53.90625 118.800781 C 53.816406 118.640625 53.742188 118.476562 53.6875 118.300781 C 53.636719 118.128906 53.605469 117.949219 53.59375 117.765625 C 53.582031 117.585938 53.589844 117.402344 53.621094 117.222656 C 53.652344 117.042969 53.707031 116.871094 53.777344 116.703125 C 53.847656 116.535156 53.941406 116.378906 54.046875 116.230469 C 54.15625 116.085938 54.28125 115.953125 54.421875 115.835938 C 54.5625 115.71875 54.710938 115.617188 54.875 115.535156 L 69.351562 106.242188 C 68.628906 103.683594 68.871094 100.910156 70.179688 98.542969 C 70.214844 98.484375 70.675781 97.71875 70.90625 97.410156 C 71.191406 97.03125 71.5 96.671875 71.835938 96.335938 C 72.304688 95.863281 72.820312 95.441406 73.371094 95.074219 C 73.925781 94.703125 74.511719 94.386719 75.125 94.132812 C 75.742188 93.878906 76.375 93.683594 77.03125 93.554688 C 77.683594 93.421875 78.34375 93.355469 79.007812 93.355469 C 79.675781 93.355469 80.335938 93.417969 80.988281 93.546875 C 81.640625 93.675781 82.273438 93.867188 82.890625 94.125 C 83.503906 94.378906 84.089844 94.6875 84.640625 95.058594 C 85.195312 95.425781 85.707031 95.847656 86.175781 96.316406 C 86.648438 96.789062 87.066406 97.300781 87.4375 97.855469 C 87.804688 98.40625 88.117188 98.992188 88.371094 99.605469 C 88.625 100.222656 88.816406 100.855469 88.949219 101.507812 C 89.078125 102.160156 89.140625 102.820312 89.140625 103.488281 C 89.140625 104.152344 89.074219 104.8125 88.941406 105.464844 C 88.8125 106.117188 88.617188 106.753906 88.363281 107.367188 C 88.105469 107.984375 87.792969 108.570312 87.421875 109.121094 C 87.050781 109.675781 86.632812 110.1875 86.160156 110.660156 C 85.824219 110.996094 85.464844 111.304688 85.085938 111.585938 Z M 123.433594 99.855469 L 82.640625 59.058594 L 90.980469 50.71875 C 102.253906 39.445312 120.570312 39.425781 131.824219 50.675781 C 143.074219 61.929688 143.046875 80.238281 131.773438 91.511719 Z M 123.433594 99.855469 " fill-opacity="1" fill-rule="nonzero"/></g></g></g></g><g clip-path="url(#b9df0c1427)"><g clip-path="url(#22e2d6b9c6)"><g clip-path="url(#2615d87c9e)"><g clip-path="url(#379abcd7f8)"><path fill="#000000" d="M 129.53125 108.691406 L 136.71875 101.503906 C 151.421875 86.800781 151.316406 62.757812 136.484375 47.925781 C 121.652344 33.09375 97.609375 32.980469 82.902344 47.683594 L 75.714844 54.875 C 71.542969 50.921875 65 50.9375 60.945312 54.988281 L 22.09375 93.839844 C 21.605469 94.332031 21.167969 94.863281 20.78125 95.441406 C 20.398438 96.019531 20.074219 96.628906 19.8125 97.269531 C 19.546875 97.910156 19.347656 98.574219 19.214844 99.257812 C 19.082031 99.9375 19.019531 100.628906 19.023438 101.324219 C 19.023438 102.019531 19.097656 102.707031 19.234375 103.390625 C 19.375 104.074219 19.578125 104.738281 19.847656 105.382812 C 20.117188 106.027344 20.445312 106.640625 20.832031 107.222656 C 21.222656 107.800781 21.664062 108.339844 22.160156 108.832031 L 75.574219 162.246094 C 76.066406 162.742188 76.605469 163.183594 77.183594 163.574219 C 77.765625 163.960938 78.378906 164.292969 79.023438 164.558594 C 79.667969 164.828125 80.332031 165.035156 81.015625 165.171875 C 81.699219 165.3125 82.386719 165.382812 83.082031 165.386719 C 83.777344 165.386719 84.46875 165.324219 85.152344 165.191406 C 85.832031 165.058594 86.496094 164.859375 87.136719 164.597656 C 87.777344 164.332031 88.386719 164.007812 88.964844 163.625 C 89.542969 163.242188 90.074219 162.804688 90.566406 162.3125 L 129.417969 123.460938 C 133.472656 119.40625 133.488281 112.859375 129.53125 108.691406 Z M 87.285156 109.441406 C 87.019531 109.640625 86.359375 110.035156 86.308594 110.0625 C 84.269531 111.183594 81.875 111.382812 79.660156 110.742188 L 71.863281 123.375 C 71.792969 123.515625 71.707031 123.644531 71.605469 123.765625 C 71.503906 123.882812 71.390625 123.992188 71.265625 124.085938 C 71.136719 124.179688 71.003906 124.253906 70.859375 124.316406 C 70.714844 124.378906 70.5625 124.421875 70.410156 124.449219 C 70.253906 124.472656 70.097656 124.480469 69.9375 124.46875 C 69.78125 124.460938 69.628906 124.429688 69.476562 124.382812 C 69.324219 124.339844 69.183594 124.273438 69.046875 124.195312 C 68.910156 124.113281 68.785156 124.019531 68.667969 123.910156 L 60.660156 115.902344 C 60.550781 115.785156 60.457031 115.660156 60.375 115.523438 C 60.296875 115.390625 60.234375 115.246094 60.1875 115.09375 C 60.140625 114.941406 60.109375 114.789062 60.101562 114.632812 C 60.089844 114.472656 60.097656 114.316406 60.125 114.164062 C 60.148438 114.007812 60.195312 113.859375 60.253906 113.714844 C 60.316406 113.570312 60.394531 113.433594 60.488281 113.308594 C 60.582031 113.179688 60.6875 113.066406 60.808594 112.964844 C 60.925781 112.863281 61.058594 112.78125 61.199219 112.710938 L 73.664062 104.75 C 73.027344 102.53125 73.222656 100.136719 74.34375 98.101562 C 74.371094 98.046875 74.769531 97.386719 74.964844 97.125 C 75.207031 96.796875 75.472656 96.488281 75.761719 96.199219 C 76.167969 95.792969 76.609375 95.433594 77.085938 95.113281 C 77.5625 94.796875 78.066406 94.527344 78.597656 94.3125 C 79.128906 94.09375 79.675781 93.929688 80.238281 93.820312 C 80.800781 93.710938 81.371094 93.65625 81.945312 93.65625 C 82.523438 93.660156 83.09375 93.71875 83.65625 93.832031 C 84.222656 93.949219 84.769531 94.117188 85.304688 94.339844 C 85.835938 94.5625 86.34375 94.835938 86.824219 95.15625 C 87.300781 95.476562 87.746094 95.84375 88.15625 96.25 C 88.5625 96.660156 88.929688 97.105469 89.25 97.585938 C 89.574219 98.0625 89.84375 98.570312 90.066406 99.101562 C 90.289062 99.636719 90.457031 100.183594 90.574219 100.75 C 90.6875 101.3125 90.746094 101.882812 90.75 102.460938 C 90.75 103.035156 90.699219 103.605469 90.585938 104.167969 C 90.476562 104.734375 90.3125 105.28125 90.097656 105.8125 C 89.878906 106.339844 89.609375 106.84375 89.292969 107.320312 C 88.972656 107.800781 88.613281 108.238281 88.207031 108.644531 C 87.917969 108.933594 87.609375 109.199219 87.285156 109.441406 Z M 120.363281 99.484375 L 84.921875 64.039062 L 92.089844 56.871094 C 101.777344 47.183594 117.605469 47.253906 127.382812 57.027344 C 137.160156 66.804688 137.21875 82.625 127.53125 92.316406 Z M 120.363281 99.484375 " fill-opacity="1" fill-rule="nonzero"/></g></g></g></g><g clip-path="url(#6a0a0e1c7e)"><g clip-path="url(#b88f80ddc2)"><g clip-path="url(#f7a0d965b5)"><g clip-path="url(#11745f37ca)"><path fill="#000000" d="M 131.207031 110.097656 L 139.117188 102.191406 C 155.289062 86.019531 155.261719 59.660156 139.050781 43.449219 C 122.839844 27.238281 96.476562 27.199219 80.300781 43.378906 L 72.394531 51.285156 C 67.835938 46.964844 60.660156 47.007812 56.203125 51.464844 L 13.464844 94.203125 C 12.925781 94.742188 12.445312 95.328125 12.019531 95.960938 C 11.597656 96.59375 11.242188 97.265625 10.949219 97.96875 C 10.65625 98.675781 10.4375 99.402344 10.289062 100.148438 C 10.140625 100.898438 10.066406 101.652344 10.070312 102.417969 C 10.070312 103.179688 10.144531 103.933594 10.292969 104.683594 C 10.445312 105.433594 10.664062 106.160156 10.957031 106.867188 C 11.25 107.570312 11.609375 108.242188 12.035156 108.875 C 12.460938 109.511719 12.941406 110.097656 13.480469 110.640625 L 71.855469 169.011719 C 72.394531 169.554688 72.984375 170.035156 73.617188 170.460938 C 74.253906 170.886719 74.925781 171.242188 75.628906 171.535156 C 76.335938 171.828125 77.0625 172.050781 77.8125 172.199219 C 78.558594 172.351562 79.316406 172.425781 80.078125 172.425781 C 80.839844 172.425781 81.597656 172.355469 82.347656 172.207031 C 83.09375 172.058594 83.820312 171.839844 84.527344 171.546875 C 85.230469 171.257812 85.898438 170.898438 86.535156 170.476562 C 87.167969 170.050781 87.753906 169.570312 88.292969 169.03125 L 131.03125 126.292969 C 135.488281 121.835938 135.53125 114.65625 131.207031 110.097656 Z M 84.882812 111.074219 C 84.59375 111.289062 83.871094 111.726562 83.8125 111.757812 C 81.574219 112.992188 78.945312 113.21875 76.519531 112.527344 L 67.925781 126.40625 C 67.847656 126.558594 67.753906 126.703125 67.644531 126.832031 C 67.53125 126.964844 67.40625 127.082031 67.269531 127.1875 C 67.128906 127.289062 66.980469 127.375 66.820312 127.441406 C 66.664062 127.507812 66.496094 127.558594 66.328125 127.585938 C 66.15625 127.617188 65.984375 127.625 65.8125 127.613281 C 65.640625 127.601562 65.472656 127.570312 65.308594 127.519531 C 65.140625 127.46875 64.984375 127.402344 64.835938 127.3125 C 64.6875 127.226562 64.546875 127.125 64.421875 127.003906 L 55.671875 118.25 C 55.550781 118.125 55.449219 117.988281 55.359375 117.839844 C 55.273438 117.691406 55.203125 117.535156 55.152344 117.367188 C 55.101562 117.203125 55.070312 117.035156 55.0625 116.859375 C 55.050781 116.6875 55.058594 116.515625 55.089844 116.347656 C 55.117188 116.175781 55.167969 116.011719 55.234375 115.855469 C 55.300781 115.695312 55.386719 115.546875 55.488281 115.40625 C 55.59375 115.269531 55.710938 115.144531 55.839844 115.03125 C 55.972656 114.921875 56.117188 114.828125 56.269531 114.75 L 69.96875 105.976562 C 69.277344 103.546875 69.5 100.921875 70.738281 98.683594 C 70.769531 98.625 71.203125 97.902344 71.421875 97.609375 C 71.691406 97.25 71.980469 96.914062 72.300781 96.59375 C 72.746094 96.148438 73.230469 95.75 73.753906 95.402344 C 74.277344 95.050781 74.832031 94.757812 75.414062 94.515625 C 75.996094 94.273438 76.597656 94.09375 77.214844 93.96875 C 77.832031 93.847656 78.457031 93.785156 79.089844 93.785156 C 79.71875 93.789062 80.34375 93.851562 80.964844 93.972656 C 81.582031 94.097656 82.183594 94.28125 82.765625 94.523438 C 83.351562 94.765625 83.90625 95.0625 84.429688 95.410156 C 84.953125 95.761719 85.441406 96.160156 85.886719 96.609375 C 86.332031 97.054688 86.734375 97.539062 87.082031 98.066406 C 87.433594 98.589844 87.730469 99.144531 87.972656 99.726562 C 88.214844 100.3125 88.398438 100.914062 88.523438 101.53125 C 88.644531 102.152344 88.707031 102.773438 88.707031 103.40625 C 88.710938 104.039062 88.648438 104.660156 88.527344 105.28125 C 88.402344 105.898438 88.222656 106.5 87.980469 107.082031 C 87.738281 107.664062 87.445312 108.21875 87.09375 108.742188 C 86.742188 109.265625 86.34375 109.75 85.898438 110.195312 C 85.582031 110.511719 85.242188 110.804688 84.882812 111.074219 Z M 121.191406 100.035156 L 82.457031 61.304688 L 90.34375 53.417969 C 101 42.761719 118.351562 42.777344 129.035156 53.464844 C 139.71875 64.148438 139.730469 81.496094 129.074219 92.152344 Z M 121.191406 100.035156 " fill-opacity="1" fill-rule="nonzero"/></g></g></g></g></g></g></g></g></g></g><g transform="matrix(1, 0, 0, 1, 285, 273)"><g clip-path="url(#32c25136da)"><g clip-path="url(#140bd809cd)"><g clip-path="url(#12e31bb7ba)"><g clip-path="url(#b7ee9fc3f6)"><path fill="#a9c5e7" d="M 98.734375 108.363281 L 100.457031 99.4375 C 103.988281 81.179688 91.996094 63.445312 73.738281 59.917969 C 55.480469 56.386719 37.742188 68.371094 34.210938 86.636719 L 32.488281 95.5625 C 27.460938 94.730469 22.65625 98.027344 21.683594 103.0625 L 12.359375 151.308594 C 12.242188 151.917969 12.183594 152.53125 12.1875 153.152344 C 12.191406 153.769531 12.253906 154.382812 12.378906 154.992188 C 12.503906 155.597656 12.6875 156.1875 12.925781 156.757812 C 13.167969 157.332031 13.460938 157.875 13.808594 158.386719 C 14.15625 158.898438 14.546875 159.375 14.988281 159.8125 C 15.429688 160.246094 15.910156 160.636719 16.425781 160.976562 C 16.941406 161.320312 17.488281 161.605469 18.0625 161.839844 C 18.636719 162.074219 19.226562 162.25 19.835938 162.367188 L 85.585938 175.074219 C 86.195312 175.191406 86.808594 175.25 87.429688 175.246094 C 88.046875 175.242188 88.660156 175.179688 89.269531 175.054688 C 89.875 174.929688 90.464844 174.746094 91.035156 174.507812 C 91.609375 174.265625 92.148438 173.972656 92.664062 173.625 C 93.175781 173.277344 93.652344 172.882812 94.085938 172.445312 C 94.523438 172.003906 94.914062 171.523438 95.253906 171.007812 C 95.59375 170.488281 95.882812 169.945312 96.117188 169.371094 C 96.351562 168.796875 96.527344 168.207031 96.644531 167.597656 L 105.96875 119.347656 C 106.941406 114.316406 103.707031 109.464844 98.734375 108.363281 Z M 68.035156 130.125 C 67.9375 130.40625 67.648438 131.03125 67.625 131.078125 C 66.679688 132.929688 65.015625 134.277344 63.070312 134.917969 L 63.59375 148.175781 C 63.613281 148.316406 63.613281 148.453125 63.601562 148.59375 C 63.585938 148.734375 63.554688 148.871094 63.507812 149.003906 C 63.460938 149.132812 63.398438 149.257812 63.324219 149.378906 C 63.246094 149.496094 63.160156 149.601562 63.058594 149.699219 C 62.957031 149.796875 62.84375 149.882812 62.722656 149.953125 C 62.601562 150.023438 62.476562 150.078125 62.34375 150.121094 C 62.207031 150.164062 62.070312 150.1875 61.929688 150.195312 C 61.789062 150.207031 61.652344 150.199219 61.511719 150.175781 L 51.65625 148.269531 C 51.515625 148.242188 51.386719 148.195312 51.257812 148.136719 C 51.132812 148.074219 51.015625 148 50.90625 147.910156 C 50.796875 147.824219 50.699219 147.722656 50.613281 147.613281 C 50.527344 147.5 50.457031 147.382812 50.398438 147.253906 C 50.339844 147.125 50.296875 146.992188 50.273438 146.855469 C 50.246094 146.71875 50.234375 146.578125 50.242188 146.4375 C 50.246094 146.296875 50.269531 146.160156 50.308594 146.027344 C 50.347656 145.890625 50.398438 145.761719 50.46875 145.640625 L 55.691406 133.492188 C 54.125 132.171875 53.082031 130.300781 52.898438 128.230469 C 52.890625 128.179688 52.855469 127.492188 52.871094 127.195312 C 52.886719 126.832031 52.929688 126.472656 53 126.113281 C 53.097656 125.609375 53.242188 125.121094 53.433594 124.648438 C 53.628906 124.171875 53.867188 123.722656 54.148438 123.292969 C 54.429688 122.867188 54.75 122.46875 55.113281 122.105469 C 55.472656 121.742188 55.863281 121.414062 56.289062 121.128906 C 56.710938 120.839844 57.160156 120.597656 57.632812 120.398438 C 58.105469 120.199219 58.59375 120.050781 59.09375 119.949219 C 59.597656 119.84375 60.105469 119.792969 60.617188 119.789062 C 61.128906 119.785156 61.636719 119.832031 62.140625 119.929688 C 62.640625 120.027344 63.132812 120.171875 63.605469 120.367188 C 64.082031 120.558594 64.53125 120.796875 64.957031 121.082031 C 65.386719 121.363281 65.78125 121.683594 66.144531 122.042969 C 66.511719 122.40625 66.835938 122.796875 67.125 123.222656 C 67.410156 123.648438 67.652344 124.09375 67.851562 124.566406 C 68.050781 125.039062 68.199219 125.527344 68.304688 126.027344 C 68.40625 126.53125 68.457031 127.039062 68.460938 127.550781 C 68.464844 128.0625 68.414062 128.570312 68.320312 129.074219 C 68.25 129.429688 68.152344 129.78125 68.035156 130.125 Z M 87.429688 106.152344 L 43.800781 97.722656 L 45.523438 88.820312 C 47.847656 76.789062 59.519531 68.894531 71.554688 71.21875 C 83.589844 73.546875 91.472656 85.21875 89.148438 97.25 Z M 87.429688 106.152344 " fill-opacity="1" fill-rule="nonzero"/></g></g></g><g clip-path="url(#f7bed8eeac)"><g clip-path="url(#52f7bf9a17)"><g clip-path="url(#f303f81aa9)"><g clip-path="url(#0de1264d62)"><path fill="#000000" d="M 149.296875 95.328125 L 152.195312 80.335938 C 158.121094 49.671875 137.949219 19.882812 107.238281 13.949219 C 76.53125 8.015625 46.703125 28.136719 40.773438 58.804688 L 37.878906 73.796875 C 29.425781 72.398438 21.34375 77.9375 19.710938 86.390625 L 4.054688 167.417969 C 3.953125 167.925781 3.882812 168.4375 3.832031 168.957031 C 3.785156 169.472656 3.761719 169.992188 3.765625 170.511719 C 3.769531 171.03125 3.796875 171.546875 3.851562 172.0625 C 3.90625 172.582031 3.984375 173.09375 4.089844 173.601562 C 4.191406 174.109375 4.320312 174.613281 4.476562 175.109375 C 4.628906 175.605469 4.808594 176.09375 5.007812 176.570312 C 5.210938 177.050781 5.433594 177.515625 5.683594 177.972656 C 5.929688 178.429688 6.199219 178.875 6.492188 179.304688 C 6.78125 179.734375 7.09375 180.148438 7.425781 180.550781 C 7.757812 180.949219 8.109375 181.332031 8.480469 181.695312 C 8.847656 182.0625 9.234375 182.410156 9.640625 182.734375 C 10.042969 183.0625 10.460938 183.371094 10.894531 183.65625 C 11.328125 183.941406 11.777344 184.207031 12.238281 184.449219 C 12.695312 184.691406 13.167969 184.910156 13.648438 185.105469 C 14.128906 185.304688 14.621094 185.476562 15.117188 185.625 C 15.617188 185.773438 16.121094 185.894531 16.632812 185.992188 L 127.214844 207.363281 C 127.726562 207.460938 128.238281 207.535156 128.757812 207.582031 C 129.273438 207.632812 129.792969 207.65625 130.3125 207.652344 C 130.832031 207.648438 131.351562 207.621094 131.871094 207.566406 C 132.386719 207.515625 132.898438 207.433594 133.410156 207.332031 C 133.917969 207.226562 134.421875 207.097656 134.917969 206.945312 C 135.414062 206.792969 135.902344 206.613281 136.382812 206.414062 C 136.863281 206.210938 137.328125 205.988281 137.785156 205.742188 C 138.242188 205.492188 138.6875 205.226562 139.117188 204.933594 C 139.550781 204.644531 139.964844 204.332031 140.363281 204 C 140.765625 203.667969 141.148438 203.320312 141.511719 202.949219 C 141.878906 202.582031 142.226562 202.195312 142.550781 201.792969 C 142.878906 201.390625 143.1875 200.972656 143.472656 200.539062 C 143.761719 200.105469 144.023438 199.660156 144.265625 199.199219 C 144.507812 198.738281 144.730469 198.269531 144.925781 197.789062 C 145.121094 197.308594 145.292969 196.820312 145.441406 196.320312 C 145.589844 195.824219 145.714844 195.320312 145.8125 194.8125 L 161.46875 113.78125 C 163.101562 105.328125 157.664062 97.179688 149.296875 95.328125 Z M 97.675781 131.867188 C 97.511719 132.335938 97.03125 133.382812 96.988281 133.460938 C 95.402344 136.570312 92.605469 138.835938 89.332031 139.910156 L 90.21875 162.179688 C 90.25 162.410156 90.253906 162.644531 90.226562 162.878906 C 90.203125 163.113281 90.152344 163.34375 90.074219 163.566406 C 89.992188 163.789062 89.890625 163.996094 89.761719 164.195312 C 89.636719 164.394531 89.488281 164.574219 89.316406 164.738281 C 89.144531 164.902344 88.960938 165.042969 88.753906 165.160156 C 88.550781 165.28125 88.335938 165.375 88.113281 165.445312 C 87.886719 165.515625 87.65625 165.554688 87.421875 165.570312 C 87.183594 165.585938 86.949219 165.574219 86.71875 165.535156 L 70.136719 162.332031 C 69.90625 162.28125 69.683594 162.207031 69.472656 162.101562 C 69.257812 162 69.0625 161.875 68.878906 161.726562 C 68.695312 161.578125 68.53125 161.414062 68.386719 161.226562 C 68.242188 161.039062 68.121094 160.839844 68.023438 160.625 C 67.925781 160.410156 67.855469 160.183594 67.8125 159.953125 C 67.765625 159.722656 67.75 159.488281 67.757812 159.253906 C 67.769531 159.019531 67.808594 158.785156 67.871094 158.558594 C 67.9375 158.332031 68.023438 158.117188 68.140625 157.910156 L 76.921875 137.511719 C 74.285156 135.296875 72.53125 132.152344 72.21875 128.675781 C 72.210938 128.585938 72.148438 127.433594 72.175781 126.9375 C 72.203125 126.324219 72.273438 125.71875 72.386719 125.117188 C 72.550781 124.273438 72.796875 123.453125 73.121094 122.65625 C 73.445312 121.859375 73.84375 121.101562 74.320312 120.382812 C 74.792969 119.664062 75.332031 119 75.9375 118.386719 C 76.546875 117.777344 77.203125 117.230469 77.917969 116.746094 C 78.632812 116.265625 79.386719 115.859375 80.179688 115.523438 C 80.972656 115.191406 81.792969 114.9375 82.636719 114.765625 C 83.480469 114.59375 84.335938 114.503906 85.195312 114.5 C 86.058594 114.496094 86.910156 114.574219 87.757812 114.738281 C 88.605469 114.902344 89.425781 115.148438 90.222656 115.472656 C 91.023438 115.796875 91.78125 116.195312 92.5 116.671875 C 93.21875 117.144531 93.886719 117.6875 94.496094 118.292969 C 95.109375 118.898438 95.660156 119.554688 96.140625 120.269531 C 96.625 120.980469 97.03125 121.734375 97.367188 122.527344 C 97.699219 123.324219 97.953125 124.140625 98.125 124.984375 C 98.300781 125.828125 98.386719 126.679688 98.394531 127.539062 C 98.398438 128.398438 98.316406 129.253906 98.152344 130.097656 C 98.039062 130.699219 97.878906 131.289062 97.675781 131.867188 Z M 130.285156 91.609375 L 56.910156 77.429688 L 59.796875 62.480469 C 63.703125 42.277344 83.332031 29.023438 103.570312 32.933594 C 123.808594 36.84375 137.078125 56.457031 133.171875 76.660156 Z M 130.285156 91.609375 " fill-opacity="1" fill-rule="nonzero"/></g></g></g></g><g clip-path="url(#f1ba91c7d1)"><g clip-path="url(#26bcaa6fe3)"><g clip-path="url(#7024622063)"><g clip-path="url(#015cce14c5)"><path fill="#000000" d="M 142.730469 97.082031 L 145.238281 84.105469 C 150.371094 57.558594 132.914062 31.773438 106.339844 26.636719 C 79.765625 21.503906 53.953125 38.921875 48.820312 65.472656 L 46.3125 78.449219 C 38.996094 77.242188 32.003906 82.035156 30.589844 89.351562 L 17.035156 159.492188 C 16.867188 160.378906 16.78125 161.269531 16.789062 162.171875 C 16.792969 163.074219 16.886719 163.964844 17.066406 164.847656 C 17.246094 165.730469 17.511719 166.589844 17.863281 167.417969 C 18.210938 168.25 18.640625 169.039062 19.144531 169.785156 C 19.652344 170.53125 20.222656 171.222656 20.867188 171.855469 C 21.507812 172.488281 22.203125 173.054688 22.957031 173.550781 C 23.710938 174.046875 24.503906 174.46875 25.339844 174.808594 C 26.175781 175.148438 27.035156 175.402344 27.921875 175.574219 L 123.617188 194.066406 C 124.5 194.238281 125.394531 194.320312 126.296875 194.316406 C 127.199219 194.3125 128.09375 194.21875 128.976562 194.039062 C 129.859375 193.859375 130.71875 193.59375 131.550781 193.246094 C 132.378906 192.894531 133.171875 192.46875 133.917969 191.964844 C 134.664062 191.460938 135.355469 190.886719 135.988281 190.246094 C 136.625 189.605469 137.191406 188.910156 137.6875 188.160156 C 138.183594 187.40625 138.601562 186.613281 138.941406 185.777344 C 139.28125 184.945312 139.539062 184.085938 139.710938 183.199219 L 153.265625 113.054688 C 154.679688 105.738281 149.972656 98.683594 142.730469 97.082031 Z M 98.058594 128.714844 C 97.917969 129.121094 97.5 130.027344 97.460938 130.097656 C 96.089844 132.789062 93.667969 134.746094 90.835938 135.675781 L 91.605469 154.953125 C 91.628906 155.15625 91.632812 155.359375 91.609375 155.5625 C 91.589844 155.765625 91.542969 155.964844 91.476562 156.15625 C 91.40625 156.347656 91.320312 156.53125 91.207031 156.703125 C 91.097656 156.871094 90.96875 157.027344 90.820312 157.171875 C 90.675781 157.3125 90.511719 157.433594 90.335938 157.539062 C 90.160156 157.640625 89.976562 157.722656 89.78125 157.78125 C 89.585938 157.84375 89.386719 157.878906 89.179688 157.890625 C 88.976562 157.90625 88.773438 157.894531 88.574219 157.859375 L 74.226562 155.089844 C 74.027344 155.042969 73.832031 154.980469 73.648438 154.890625 C 73.464844 154.804688 73.292969 154.695312 73.136719 154.566406 C 72.976562 154.4375 72.835938 154.292969 72.710938 154.132812 C 72.585938 153.96875 72.480469 153.796875 72.394531 153.609375 C 72.3125 153.425781 72.25 153.230469 72.210938 153.03125 C 72.171875 152.828125 72.160156 152.628906 72.167969 152.425781 C 72.175781 152.21875 72.207031 152.019531 72.265625 151.824219 C 72.320312 151.628906 72.398438 151.441406 72.496094 151.261719 L 80.097656 133.601562 C 77.8125 131.683594 76.296875 128.964844 76.027344 125.953125 C 76.019531 125.878906 75.96875 124.878906 75.988281 124.449219 C 76.011719 123.917969 76.074219 123.394531 76.175781 122.875 C 76.316406 122.144531 76.527344 121.433594 76.808594 120.742188 C 77.089844 120.054688 77.433594 119.398438 77.847656 118.777344 C 78.257812 118.152344 78.722656 117.578125 79.246094 117.046875 C 79.773438 116.519531 80.34375 116.046875 80.960938 115.628906 C 81.578125 115.210938 82.230469 114.859375 82.917969 114.570312 C 83.605469 114.28125 84.3125 114.0625 85.042969 113.910156 C 85.773438 113.761719 86.511719 113.6875 87.257812 113.683594 C 88.003906 113.679688 88.742188 113.746094 89.476562 113.886719 C 90.207031 114.03125 90.917969 114.242188 91.609375 114.523438 C 92.300781 114.804688 92.957031 115.152344 93.578125 115.5625 C 94.203125 115.972656 94.777344 116.4375 95.308594 116.964844 C 95.839844 117.488281 96.3125 118.058594 96.730469 118.675781 C 97.148438 119.292969 97.5 119.945312 97.789062 120.632812 C 98.078125 121.320312 98.296875 122.027344 98.449219 122.757812 C 98.597656 123.488281 98.675781 124.222656 98.679688 124.96875 C 98.683594 125.714844 98.613281 126.453125 98.472656 127.183594 C 98.371094 127.703125 98.234375 128.214844 98.058594 128.714844 Z M 126.277344 93.863281 L 62.78125 81.59375 L 65.28125 68.652344 C 68.660156 51.164062 85.648438 39.6875 103.164062 43.070312 C 120.679688 46.457031 132.160156 63.433594 128.777344 80.921875 Z M 126.277344 93.863281 " fill-opacity="1" fill-rule="nonzero"/></g></g></g></g><g clip-path="url(#0205109b93)"><g clip-path="url(#47214b6532)"><g clip-path="url(#2c62fc4707)"><path fill="#ffffff" d="M 146.003906 97.390625 L 148.757812 83.132812 C 154.394531 53.972656 135.246094 25.648438 106.082031 20.011719 C 76.921875 14.378906 48.589844 33.519531 42.953125 62.6875 L 40.195312 76.945312 C 32.167969 75.617188 24.496094 80.886719 22.941406 88.925781 L 8.050781 165.984375 C 7.863281 166.953125 7.769531 167.9375 7.777344 168.925781 C 7.78125 169.914062 7.882812 170.894531 8.082031 171.867188 C 8.28125 172.835938 8.570312 173.777344 8.957031 174.6875 C 9.339844 175.601562 9.808594 176.46875 10.363281 177.289062 C 10.917969 178.109375 11.546875 178.867188 12.25 179.5625 C 12.953125 180.257812 13.71875 180.878906 14.542969 181.425781 C 15.371094 181.96875 16.242188 182.429688 17.15625 182.804688 C 18.074219 183.179688 19.019531 183.460938 19.992188 183.648438 L 125.003906 203.941406 C 125.976562 204.128906 126.957031 204.21875 127.949219 204.214844 C 128.9375 204.207031 129.917969 204.105469 130.886719 203.90625 C 131.855469 203.710938 132.796875 203.417969 133.710938 203.035156 C 134.625 202.652344 135.488281 202.179688 136.308594 201.628906 C 137.128906 201.074219 137.886719 200.445312 138.585938 199.738281 C 139.28125 199.035156 139.902344 198.269531 140.445312 197.445312 C 140.992188 196.617188 141.453125 195.746094 141.824219 194.832031 C 142.199219 193.914062 142.480469 192.96875 142.667969 191.996094 L 157.558594 114.9375 C 159.113281 106.898438 153.949219 99.148438 146.003906 97.390625 Z M 96.972656 132.152344 C 96.816406 132.597656 96.355469 133.59375 96.316406 133.671875 C 94.808594 136.625 92.152344 138.78125 89.046875 139.800781 L 89.882812 160.980469 C 89.910156 161.203125 89.914062 161.425781 89.890625 161.648438 C 89.867188 161.871094 89.816406 162.085938 89.742188 162.296875 C 89.667969 162.511719 89.570312 162.710938 89.449219 162.898438 C 89.328125 163.085938 89.183594 163.257812 89.023438 163.414062 C 88.863281 163.570312 88.683594 163.703125 88.492188 163.816406 C 88.296875 163.929688 88.09375 164.019531 87.878906 164.085938 C 87.664062 164.152344 87.445312 164.191406 87.222656 164.207031 C 87 164.222656 86.777344 164.210938 86.554688 164.171875 L 70.8125 161.128906 C 70.589844 161.082031 70.382812 161.011719 70.179688 160.914062 C 69.976562 160.816406 69.789062 160.699219 69.613281 160.558594 C 69.441406 160.414062 69.285156 160.257812 69.148438 160.078125 C 69.011719 159.902344 68.894531 159.710938 68.804688 159.507812 C 68.710938 159.300781 68.644531 159.089844 68.601562 158.871094 C 68.558594 158.648438 68.542969 158.429688 68.554688 158.203125 C 68.5625 157.980469 68.597656 157.761719 68.660156 157.542969 C 68.71875 157.328125 68.804688 157.125 68.914062 156.929688 L 77.257812 137.523438 C 74.753906 135.417969 73.09375 132.429688 72.796875 129.125 C 72.785156 129.039062 72.730469 127.941406 72.753906 127.472656 C 72.78125 126.890625 72.847656 126.3125 72.957031 125.742188 C 73.113281 124.9375 73.34375 124.15625 73.652344 123.398438 C 73.960938 122.640625 74.34375 121.921875 74.792969 121.238281 C 75.242188 120.554688 75.757812 119.921875 76.332031 119.339844 C 76.90625 118.757812 77.535156 118.238281 78.210938 117.78125 C 78.890625 117.320312 79.605469 116.933594 80.359375 116.617188 C 81.113281 116.296875 81.890625 116.058594 82.695312 115.894531 C 83.496094 115.730469 84.304688 115.644531 85.125 115.640625 C 85.941406 115.636719 86.753906 115.710938 87.558594 115.867188 C 88.359375 116.023438 89.140625 116.253906 89.898438 116.5625 C 90.65625 116.871094 91.375 117.253906 92.058594 117.703125 C 92.742188 118.15625 93.375 118.667969 93.957031 119.242188 C 94.539062 119.820312 95.058594 120.445312 95.515625 121.125 C 95.976562 121.800781 96.363281 122.519531 96.679688 123.273438 C 96.996094 124.027344 97.238281 124.804688 97.402344 125.605469 C 97.566406 126.410156 97.648438 127.21875 97.652344 128.035156 C 97.65625 128.855469 97.582031 129.667969 97.425781 130.46875 C 97.316406 131.042969 97.164062 131.601562 96.972656 132.152344 Z M 127.949219 93.859375 L 58.269531 80.394531 L 61.015625 66.179688 C 64.730469 46.964844 83.375 34.351562 102.59375 38.066406 C 121.816406 41.78125 134.410156 60.429688 130.695312 79.644531 Z M 127.949219 93.859375 " fill-opacity="1" fill-rule="nonzero"/></g></g></g></g></g></svg>