<svg xmlns="http://www.w3.org/2000/svg" xmlns:xlink="http://www.w3.org/1999/xlink" width="1000" zoomAndPan="magnify" viewBox="0 0 750 749.999995" height="1000" preserveAspectRatio="xMidYMid meet" version="1.0"><defs><filter x="0%" y="0%" width="100%" height="100%" id="08502999b4"><feColorMatrix values="0 0 0 0 1 0 0 0 0 1 0 0 0 0 1 0 0 0 1 0" color-interpolation-filters="sRGB"/></filter><clipPath id="25055cba9c"><path d="M 2 55 L 71 55 L 71 81 L 2 81 Z M 2 55 " clip-rule="nonzero"/></clipPath><clipPath id="e0e57af434"><path d="M 2.382812 70.535156 L 68.382812 55.066406 L 70.722656 65.046875 L 4.722656 80.515625 Z M 2.382812 70.535156 " clip-rule="nonzero"/></clipPath><clipPath id="643cd1be02"><path d="M 0.160156 0 L 68.800781 0 L 68.800781 25.640625 L 0.160156 25.640625 Z M 0.160156 0 " clip-rule="nonzero"/></clipPath><clipPath id="b21fcc0498"><path d="M 0.382812 15.535156 L 66.382812 0.0664062 L 68.722656 10.046875 L 2.722656 25.515625 Z M 0.382812 15.535156 " clip-rule="nonzero"/></clipPath><clipPath id="5be0020a53"><rect x="0" width="69" y="0" height="26"/></clipPath><clipPath id="a549984b70"><path d="M 14.070312 67.070312 L 68.53125 67.070312 L 68.53125 83.152344 L 14.070312 83.152344 Z M 14.070312 67.070312 " clip-rule="nonzero"/></clipPath><clipPath id="771baba84b"><path d="M 0.0703125 0.0703125 L 54.53125 0.0703125 L 54.53125 16.152344 L 0.0703125 16.152344 Z M 0.0703125 0.0703125 " clip-rule="nonzero"/></clipPath><clipPath id="a4f3ea7dfb"><rect x="0" width="55" y="0" height="17"/></clipPath><clipPath id="ebd19d4d3a"><path d="M 9.078125 80.519531 L 78.328125 80.519531 L 78.328125 201.460938 L 9.078125 201.460938 Z M 9.078125 80.519531 " clip-rule="nonzero"/></clipPath><clipPath id="9e7dc37030"><path d="M 0.078125 0.519531 L 69.328125 0.519531 L 69.328125 121.460938 L 0.078125 121.460938 Z M 0.078125 0.519531 " clip-rule="nonzero"/></clipPath><clipPath id="d1ca2d85e0"><rect x="0" width="70" y="0" height="122"/></clipPath><clipPath id="755612baf9"><path d="M 144 55 L 213 55 L 213 82 L 144 82 Z M 144 55 " clip-rule="nonzero"/></clipPath><clipPath id="c878340422"><path d="M 146.71875 55.066406 L 212.464844 71.578125 L 209.96875 81.523438 L 144.222656 65.011719 Z M 146.71875 55.066406 " clip-rule="nonzero"/></clipPath><clipPath id="66c2343314"><path d="M 0 0 L 68.640625 0 L 68.640625 26.601562 L 0 26.601562 Z M 0 0 " clip-rule="nonzero"/></clipPath><clipPath id="d7fdff71aa"><path d="M 2.71875 0.0664062 L 68.464844 16.578125 L 65.96875 26.523438 L 0.222656 10.011719 Z M 2.71875 0.0664062 " clip-rule="nonzero"/></clipPath><clipPath id="2f5cf18396"><rect x="0" width="69" y="0" height="27"/></clipPath><clipPath id="976df74948"><path d="M 135.839844 67.765625 L 205.085938 67.765625 L 205.085938 188.707031 L 135.839844 188.707031 Z M 135.839844 67.765625 " clip-rule="nonzero"/></clipPath><clipPath id="47cb1618e3"><path d="M 0.839844 0.765625 L 70.085938 0.765625 L 70.085938 121.707031 L 0.839844 121.707031 Z M 0.839844 0.765625 " clip-rule="nonzero"/></clipPath><clipPath id="a711a6b7f7"><rect x="0" width="71" y="0" height="122"/></clipPath><clipPath id="e442497e4e"><path d="M 67.101562 37.265625 L 148.457031 37.265625 L 148.457031 201.460938 L 67.101562 201.460938 Z M 67.101562 37.265625 " clip-rule="nonzero"/></clipPath><clipPath id="096a2744ff"><path d="M 0.101562 0.265625 L 81.457031 0.265625 L 81.457031 164.460938 L 0.101562 164.460938 Z M 0.101562 0.265625 " clip-rule="nonzero"/></clipPath><clipPath id="29c93b0c49"><rect x="0" width="82" y="0" height="165"/></clipPath><clipPath id="6c577c8b2e"><path d="M 78.074219 25.234375 L 137.480469 25.234375 L 137.480469 37.265625 L 78.074219 37.265625 Z M 78.074219 25.234375 " clip-rule="nonzero"/></clipPath><clipPath id="56e0c5f0fa"><path d="M 0.0742188 0.234375 L 59.480469 0.234375 L 59.480469 12.265625 L 0.0742188 12.265625 Z M 0.0742188 0.234375 " clip-rule="nonzero"/></clipPath><clipPath id="e02990ab63"><rect x="0" width="60" y="0" height="13"/></clipPath><clipPath id="eed6a1c608"><path d="M 0.394531 0.964844 L 214.976562 0.964844 L 214.976562 214.851562 L 0.394531 214.851562 Z M 0.394531 0.964844 " clip-rule="nonzero"/></clipPath><clipPath id="95c137addc"><rect x="0" width="216" y="0" height="216"/></clipPath><mask id="2b1d3e9981"><g filter="url(#08502999b4)"><rect x="-371" width="1080" fill="#000000" y="-541.999999" height="1079.999992" fill-opacity="0.13"/></g></mask><clipPath id="17dfce1fc0"><path d="M 3 4 L 114 4 L 114 84 L 3 84 Z M 3 4 " clip-rule="nonzero"/></clipPath><clipPath id="6fd534845e"><path d="M 7.253906 0.265625 L 117.457031 9.847656 L 110.699219 87.566406 L 0.496094 77.984375 Z M 7.253906 0.265625 " clip-rule="nonzero"/></clipPath><clipPath id="607a94c967"><path d="M 62.238281 5.046875 C 31.871094 2.40625 5.738281 17.664062 3.875 39.125 C 2.007812 60.585938 25.113281 80.125 55.484375 82.765625 C 85.851562 85.40625 111.984375 70.148438 113.847656 48.6875 C 115.714844 27.226562 92.609375 7.6875 62.238281 5.046875 Z M 62.238281 5.046875 " clip-rule="nonzero"/></clipPath><clipPath id="c66d9aedb4"><path d="M 0 0 L 111 0 L 111 80 L 0 80 Z M 0 0 " clip-rule="nonzero"/></clipPath><clipPath id="55f58e685d"><path d="M 4.253906 -3.734375 L 114.457031 5.847656 L 107.699219 83.566406 L -2.503906 73.984375 Z M 4.253906 -3.734375 " clip-rule="nonzero"/></clipPath><clipPath id="73957eff49"><path d="M 59.238281 1.046875 C 28.871094 -1.59375 2.738281 13.664062 0.875 35.125 C -0.992188 56.585938 22.113281 76.125 52.484375 78.765625 C 82.851562 81.40625 108.984375 66.148438 110.847656 44.6875 C 112.714844 23.226562 89.609375 3.6875 59.238281 1.046875 Z M 59.238281 1.046875 " clip-rule="nonzero"/></clipPath><clipPath id="82768cbc2b"><rect x="0" width="111" y="0" height="80"/></clipPath><clipPath id="4868bef981"><rect x="0" width="118" y="0" height="88"/></clipPath><clipPath id="88abdf2382"><path d="M 15 29 L 126 29 L 126 108 L 15 108 Z M 15 29 " clip-rule="nonzero"/></clipPath><clipPath id="9eda2820bf"><path d="M 10.636719 100.277344 L 20.417969 23.058594 L 130.214844 36.964844 L 120.433594 114.183594 Z M 10.636719 100.277344 " clip-rule="nonzero"/></clipPath><clipPath id="bd585cb814"><path d="M 15.527344 61.667969 C 12.828125 82.992188 35.148438 103.382812 65.386719 107.210938 C 95.625 111.042969 122.328125 96.859375 125.027344 75.539062 C 127.730469 54.214844 105.40625 33.824219 75.167969 29.992188 C 44.929688 26.164062 18.226562 40.34375 15.527344 61.667969 Z M 15.527344 61.667969 " clip-rule="nonzero"/></clipPath><clipPath id="d3d09c4f49"><path d="M 0 0 L 111 0 L 111 79 L 0 79 Z M 0 0 " clip-rule="nonzero"/></clipPath><clipPath id="220700d302"><path d="M -4.363281 71.277344 L 5.417969 -5.941406 L 115.214844 7.964844 L 105.433594 85.183594 Z M -4.363281 71.277344 " clip-rule="nonzero"/></clipPath><clipPath id="8262a619c7"><path d="M 0.527344 32.667969 C -2.171875 53.992188 20.148438 74.382812 50.386719 78.210938 C 80.625 82.042969 107.328125 67.859375 110.027344 46.539062 C 112.730469 25.214844 90.40625 4.824219 60.167969 0.992188 C 29.929688 -2.835938 3.226562 11.34375 0.527344 32.667969 Z M 0.527344 32.667969 " clip-rule="nonzero"/></clipPath><clipPath id="4023bc27dd"><rect x="0" width="111" y="0" height="79"/></clipPath><clipPath id="aff2de0428"><path d="M 15 29 L 126 29 L 126 108 L 15 108 Z M 15 29 " clip-rule="nonzero"/></clipPath><clipPath id="41d253a470"><path d="M 10.636719 100.277344 L 20.46875 22.652344 L 129.808594 36.503906 L 119.976562 114.128906 Z M 10.636719 100.277344 " clip-rule="nonzero"/></clipPath><clipPath id="3ef84fcd7c"><path d="M 10.636719 100.277344 L 20.425781 22.980469 L 130.703125 36.949219 L 120.910156 114.242188 Z M 10.636719 100.277344 " clip-rule="nonzero"/></clipPath><clipPath id="e1eb9e175c"><path d="M 15.527344 61.667969 C 12.828125 82.992188 35.148438 103.382812 65.386719 107.210938 C 95.621094 111.042969 122.324219 96.859375 125.023438 75.535156 C 127.726562 54.214844 105.402344 33.824219 75.167969 29.992188 C 44.929688 26.164062 18.226562 40.34375 15.527344 61.667969 Z M 15.527344 61.667969 " clip-rule="nonzero"/></clipPath><clipPath id="fb7c838be5"><path d="M 16 17 L 127 17 L 127 97 L 16 97 Z M 16 17 " clip-rule="nonzero"/></clipPath><clipPath id="83ce09a6b9"><path d="M 12.320312 88.59375 L 22.101562 11.375 L 131.898438 25.28125 L 122.117188 102.5 Z M 12.320312 88.59375 " clip-rule="nonzero"/></clipPath><clipPath id="a5e1aa4138"><path d="M 17.210938 49.984375 C 14.507812 71.308594 36.832031 91.699219 67.070312 95.527344 C 97.308594 99.359375 124.011719 85.175781 126.710938 63.851562 C 129.414062 42.527344 107.089844 22.136719 76.851562 18.308594 C 46.613281 14.476562 19.910156 28.660156 17.210938 49.984375 Z M 17.210938 49.984375 " clip-rule="nonzero"/></clipPath><clipPath id="b8f9e0ded9"><path d="M 0 0 L 111 0 L 111 80 L 0 80 Z M 0 0 " clip-rule="nonzero"/></clipPath><clipPath id="f2026ac4c5"><path d="M -3.679688 71.59375 L 6.101562 -5.625 L 115.898438 8.28125 L 106.117188 85.5 Z M -3.679688 71.59375 " clip-rule="nonzero"/></clipPath><clipPath id="cd5a3e32c5"><path d="M 1.210938 32.984375 C -1.492188 54.308594 20.832031 74.699219 51.070312 78.527344 C 81.308594 82.359375 108.011719 68.175781 110.710938 46.851562 C 113.414062 25.527344 91.089844 5.136719 60.851562 1.308594 C 30.613281 -2.523438 3.910156 11.660156 1.210938 32.984375 Z M 1.210938 32.984375 " clip-rule="nonzero"/></clipPath><clipPath id="b12b9d6290"><rect x="0" width="111" y="0" height="80"/></clipPath><clipPath id="cd4d7d9daf"><path d="M 16 17 L 127 17 L 127 97 L 16 97 Z M 16 17 " clip-rule="nonzero"/></clipPath><clipPath id="753815c510"><path d="M 12.320312 88.59375 L 22.152344 10.96875 L 131.492188 24.820312 L 121.660156 102.441406 Z M 12.320312 88.59375 " clip-rule="nonzero"/></clipPath><clipPath id="625ec3007d"><path d="M 12.320312 88.59375 L 22.109375 11.296875 L 132.382812 25.265625 L 122.59375 102.558594 Z M 12.320312 88.59375 " clip-rule="nonzero"/></clipPath><clipPath id="5523564e84"><path d="M 17.210938 49.984375 C 14.507812 71.308594 36.832031 91.695312 67.070312 95.527344 C 97.304688 99.355469 124.007812 85.175781 126.707031 63.851562 C 129.410156 42.53125 107.085938 22.140625 76.847656 18.308594 C 46.613281 14.480469 19.910156 28.660156 17.210938 49.984375 Z M 17.210938 49.984375 " clip-rule="nonzero"/></clipPath><clipPath id="70d6b6f2d7"><path d="M 30 29 L 112 29 L 112 88 L 30 88 Z M 30 29 " clip-rule="nonzero"/></clipPath><clipPath id="5c43eb8161"><path d="M 27.335938 81.515625 L 34.515625 24.832031 L 115.117188 35.039062 L 107.9375 91.726562 Z M 27.335938 81.515625 " clip-rule="nonzero"/></clipPath><clipPath id="b99747a992"><path d="M 30.925781 53.171875 C 28.945312 68.828125 45.332031 83.796875 67.527344 86.605469 C 89.726562 89.417969 109.328125 79.007812 111.308594 63.355469 C 113.292969 47.703125 96.90625 32.734375 74.707031 29.921875 C 52.511719 27.109375 32.910156 37.519531 30.925781 53.171875 Z M 30.925781 53.171875 " clip-rule="nonzero"/></clipPath><clipPath id="039ec247cc"><path d="M 0 0 L 82 0 L 82 59 L 0 59 Z M 0 0 " clip-rule="nonzero"/></clipPath><clipPath id="58807a843f"><path d="M -2.664062 52.515625 L 4.515625 -4.167969 L 85.117188 6.039062 L 77.9375 62.726562 Z M -2.664062 52.515625 " clip-rule="nonzero"/></clipPath><clipPath id="2c0014216e"><path d="M 0.925781 24.171875 C -1.054688 39.828125 15.332031 54.796875 37.527344 57.605469 C 59.726562 60.417969 79.328125 50.007812 81.308594 34.355469 C 83.292969 18.703125 66.90625 3.734375 44.707031 0.921875 C 22.511719 -1.890625 2.910156 8.519531 0.925781 24.171875 Z M 0.925781 24.171875 " clip-rule="nonzero"/></clipPath><clipPath id="a91fbd75ab"><rect x="0" width="82" y="0" height="59"/></clipPath><clipPath id="9634e17902"><path d="M 30 29 L 112 29 L 112 88 L 30 88 Z M 30 29 " clip-rule="nonzero"/></clipPath><clipPath id="e15f0dc187"><path d="M 27.335938 81.515625 L 34.527344 24.757812 L 114.652344 34.90625 L 107.464844 91.664062 Z M 27.335938 81.515625 " clip-rule="nonzero"/></clipPath><clipPath id="e16473024b"><path d="M 27.339844 81.515625 L 34.523438 24.78125 L 115.46875 35.03125 L 108.28125 91.769531 Z M 27.339844 81.515625 " clip-rule="nonzero"/></clipPath><clipPath id="e61495ad56"><path d="M 30.929688 53.175781 C 28.945312 68.828125 45.332031 83.796875 67.523438 86.605469 C 89.71875 89.417969 109.320312 79.007812 111.300781 63.355469 C 113.285156 47.707031 96.898438 32.738281 74.703125 29.925781 C 52.507812 27.117188 32.910156 37.523438 30.929688 53.175781 Z M 30.929688 53.175781 " clip-rule="nonzero"/></clipPath><clipPath id="45d8ec3c69"><path d="M 37 32 L 110 32 L 110 86 L 37 86 Z M 37 32 " clip-rule="nonzero"/></clipPath><clipPath id="9c298302ff"><path d="M 34.089844 80.5625 L 40.6875 28.476562 L 113.316406 37.675781 L 106.722656 89.761719 Z M 34.089844 80.5625 " clip-rule="nonzero"/></clipPath><clipPath id="415d2b8871"><path d="M 37.386719 54.519531 C 35.566406 68.902344 50.304688 82.617188 70.304688 85.148438 C 90.308594 87.683594 108 78.078125 109.820312 63.695312 C 111.644531 49.3125 96.90625 35.597656 76.902344 33.066406 C 56.902344 30.53125 39.210938 40.136719 37.386719 54.519531 Z M 37.386719 54.519531 " clip-rule="nonzero"/></clipPath><clipPath id="9e4c274bfc"><path d="M 0 0 L 73 0 L 73 54 L 0 54 Z M 0 0 " clip-rule="nonzero"/></clipPath><clipPath id="f58248af1e"><path d="M -2.910156 48.5625 L 3.6875 -3.523438 L 76.316406 5.675781 L 69.722656 57.761719 Z M -2.910156 48.5625 " clip-rule="nonzero"/></clipPath><clipPath id="f4a0794bd0"><path d="M 0.386719 22.519531 C -1.433594 36.902344 13.304688 50.617188 33.304688 53.148438 C 53.308594 55.683594 71 46.078125 72.820312 31.695312 C 74.644531 17.3125 59.90625 3.597656 39.902344 1.066406 C 19.902344 -1.46875 2.210938 8.136719 0.386719 22.519531 Z M 0.386719 22.519531 " clip-rule="nonzero"/></clipPath><clipPath id="c5d268528b"><rect x="0" width="73" y="0" height="54"/></clipPath><clipPath id="0843f0c6bc"><path d="M 59 45 L 91 45 L 91 74 L 59 74 Z M 59 45 " clip-rule="nonzero"/></clipPath><clipPath id="13fe4fe3ec"><path d="M 54.835938 62.691406 L 64.289062 42.035156 L 94.125 55.691406 L 84.671875 76.347656 Z M 54.835938 62.691406 " clip-rule="nonzero"/></clipPath><clipPath id="7fd81b48a9"><path d="M 54.835938 62.691406 L 64.289062 42.035156 L 94.125 55.691406 L 84.671875 76.347656 Z M 54.835938 62.691406 " clip-rule="nonzero"/></clipPath><clipPath id="bf15a21811"><rect x="0" width="142" y="0" height="125"/></clipPath><mask id="35e7b739eb"><g filter="url(#08502999b4)"><rect x="-468" width="1080" fill="#000000" y="-554.999999" height="1079.999992" fill-opacity="0.13"/></g></mask><clipPath id="4c77ccea54"><path d="M 3 4 L 115 4 L 115 84 L 3 84 Z M 3 4 " clip-rule="nonzero"/></clipPath><clipPath id="fc19e4ba52"><path d="M 7.320312 0.460938 L 117.523438 10.039062 L 110.769531 87.761719 L 0.5625 78.179688 Z M 7.320312 0.460938 " clip-rule="nonzero"/></clipPath><clipPath id="3c94f96901"><path d="M 62.308594 5.242188 C 31.941406 2.601562 5.808594 17.859375 3.941406 39.320312 C 2.078125 60.78125 25.183594 80.320312 55.550781 82.960938 C 85.921875 85.601562 112.050781 70.34375 113.917969 48.882812 C 115.785156 27.417969 92.675781 7.882812 62.308594 5.242188 Z M 62.308594 5.242188 " clip-rule="nonzero"/></clipPath><clipPath id="005d5925a7"><path d="M 0 0 L 112 0 L 112 80 L 0 80 Z M 0 0 " clip-rule="nonzero"/></clipPath><clipPath id="bace7c061d"><path d="M 4.320312 -3.539062 L 114.523438 6.039062 L 107.769531 83.761719 L -2.4375 74.179688 Z M 4.320312 -3.539062 " clip-rule="nonzero"/></clipPath><clipPath id="659648f841"><path d="M 59.308594 1.242188 C 28.941406 -1.398438 2.808594 13.859375 0.941406 35.320312 C -0.921875 56.78125 22.183594 76.320312 52.550781 78.960938 C 82.921875 81.601562 109.050781 66.34375 110.917969 44.882812 C 112.785156 23.417969 89.675781 3.882812 59.308594 1.242188 Z M 59.308594 1.242188 " clip-rule="nonzero"/></clipPath><clipPath id="97b0bd8ef7"><rect x="0" width="112" y="0" height="80"/></clipPath><clipPath id="a4201c82c1"><rect x="0" width="118" y="0" height="88"/></clipPath><clipPath id="2c8bf6e5bb"><path d="M 15 29 L 126 29 L 126 109 L 15 109 Z M 15 29 " clip-rule="nonzero"/></clipPath><clipPath id="ea8b18e6e7"><path d="M 10.707031 100.472656 L 20.484375 23.253906 L 130.285156 37.160156 L 120.503906 114.378906 Z M 10.707031 100.472656 " clip-rule="nonzero"/></clipPath><clipPath id="2d0e84eacd"><path d="M 15.597656 61.863281 C 12.894531 83.1875 35.21875 103.578125 65.457031 107.40625 C 95.695312 111.238281 122.398438 97.054688 125.097656 75.730469 C 127.796875 54.40625 105.476562 34.015625 75.238281 30.1875 C 45 26.355469 18.296875 40.539062 15.597656 61.863281 Z M 15.597656 61.863281 " clip-rule="nonzero"/></clipPath><clipPath id="ebcd128f3f"><path d="M 0 0 L 111 0 L 111 80 L 0 80 Z M 0 0 " clip-rule="nonzero"/></clipPath><clipPath id="64cd8f3dae"><path d="M -4.292969 71.472656 L 5.484375 -5.746094 L 115.285156 8.160156 L 105.503906 85.378906 Z M -4.292969 71.472656 " clip-rule="nonzero"/></clipPath><clipPath id="27b7b14e1f"><path d="M 0.597656 32.863281 C -2.105469 54.1875 20.21875 74.578125 50.457031 78.40625 C 80.695312 82.238281 107.398438 68.054688 110.097656 46.730469 C 112.796875 25.40625 90.476562 5.015625 60.238281 1.1875 C 30 -2.644531 3.296875 11.539062 0.597656 32.863281 Z M 0.597656 32.863281 " clip-rule="nonzero"/></clipPath><clipPath id="51f93fd9ed"><rect x="0" width="111" y="0" height="80"/></clipPath><clipPath id="6a9b7352dd"><path d="M 15 29 L 126 29 L 126 109 L 15 109 Z M 15 29 " clip-rule="nonzero"/></clipPath><clipPath id="23232c1de4"><path d="M 10.707031 100.472656 L 20.539062 22.847656 L 129.878906 36.699219 L 120.046875 114.320312 Z M 10.707031 100.472656 " clip-rule="nonzero"/></clipPath><clipPath id="3d80d8762d"><path d="M 10.707031 100.472656 L 20.496094 23.175781 L 130.769531 37.144531 L 120.980469 114.4375 Z M 10.707031 100.472656 " clip-rule="nonzero"/></clipPath><clipPath id="14f42de321"><path d="M 15.597656 61.863281 C 12.894531 83.1875 35.21875 103.574219 65.453125 107.40625 C 95.691406 111.234375 122.394531 97.054688 125.09375 75.730469 C 127.792969 54.410156 105.472656 34.019531 75.234375 30.1875 C 44.996094 26.359375 18.296875 40.539062 15.597656 61.863281 Z M 15.597656 61.863281 " clip-rule="nonzero"/></clipPath><clipPath id="a737de570d"><path d="M 17 17 L 128 17 L 128 97 L 17 97 Z M 17 17 " clip-rule="nonzero"/></clipPath><clipPath id="a54d789562"><path d="M 12.386719 88.789062 L 22.167969 11.566406 L 131.964844 25.476562 L 122.1875 102.695312 Z M 12.386719 88.789062 " clip-rule="nonzero"/></clipPath><clipPath id="54d3b66fb4"><path d="M 17.277344 50.179688 C 14.578125 71.5 36.902344 91.894531 67.140625 95.722656 C 97.378906 99.550781 124.078125 85.371094 126.78125 64.046875 C 129.480469 42.722656 107.15625 22.332031 76.917969 18.503906 C 46.683594 14.671875 19.980469 28.855469 17.277344 50.179688 Z M 17.277344 50.179688 " clip-rule="nonzero"/></clipPath><clipPath id="392c8cbd9d"><path d="M 0 0 L 111 0 L 111 80 L 0 80 Z M 0 0 " clip-rule="nonzero"/></clipPath><clipPath id="c03a1d106c"><path d="M -4.613281 71.789062 L 5.167969 -5.433594 L 114.964844 8.476562 L 105.1875 85.695312 Z M -4.613281 71.789062 " clip-rule="nonzero"/></clipPath><clipPath id="8509edabd1"><path d="M 0.277344 33.179688 C -2.421875 54.5 19.902344 74.894531 50.140625 78.722656 C 80.378906 82.550781 107.078125 68.371094 109.78125 47.046875 C 112.480469 25.722656 90.15625 5.332031 59.917969 1.503906 C 29.683594 -2.328125 2.980469 11.855469 0.277344 33.179688 Z M 0.277344 33.179688 " clip-rule="nonzero"/></clipPath><clipPath id="0482ce1f0f"><rect x="0" width="111" y="0" height="80"/></clipPath><clipPath id="8bf522e776"><path d="M 17 17 L 127 17 L 127 97 L 17 97 Z M 17 17 " clip-rule="nonzero"/></clipPath><clipPath id="b069173fc8"><path d="M 12.386719 88.789062 L 22.21875 11.164062 L 131.5625 25.011719 L 121.730469 102.636719 Z M 12.386719 88.789062 " clip-rule="nonzero"/></clipPath><clipPath id="5fa06db440"><path d="M 12.386719 88.785156 L 22.179688 11.492188 L 132.453125 25.457031 L 122.664062 102.753906 Z M 12.386719 88.785156 " clip-rule="nonzero"/></clipPath><clipPath id="4ea4679e49"><path d="M 17.277344 50.179688 C 14.578125 71.5 36.898438 91.890625 67.136719 95.722656 C 97.375 99.550781 124.074219 85.371094 126.777344 64.046875 C 129.476562 42.722656 107.15625 22.332031 76.917969 18.503906 C 46.679688 14.675781 19.980469 28.855469 17.277344 50.179688 Z M 17.277344 50.179688 " clip-rule="nonzero"/></clipPath><clipPath id="52fe83b726"><path d="M 30 29 L 112 29 L 112 88 L 30 88 Z M 30 29 " clip-rule="nonzero"/></clipPath><clipPath id="d0c69edc33"><path d="M 27.40625 81.710938 L 34.585938 25.027344 L 115.183594 35.234375 L 108.003906 91.917969 Z M 27.40625 81.710938 " clip-rule="nonzero"/></clipPath><clipPath id="141ea14c07"><path d="M 30.996094 53.367188 C 29.011719 69.019531 45.398438 83.988281 67.597656 86.800781 C 89.792969 89.613281 109.394531 79.203125 111.378906 63.550781 C 113.359375 47.894531 96.972656 32.925781 74.777344 30.117188 C 52.578125 27.304688 32.976562 37.714844 30.996094 53.367188 Z M 30.996094 53.367188 " clip-rule="nonzero"/></clipPath><clipPath id="40fa78a38f"><path d="M 0 0 L 82 0 L 82 59 L 0 59 Z M 0 0 " clip-rule="nonzero"/></clipPath><clipPath id="3096d1b1b3"><path d="M -2.59375 52.710938 L 4.585938 -3.972656 L 85.183594 6.234375 L 78.003906 62.917969 Z M -2.59375 52.710938 " clip-rule="nonzero"/></clipPath><clipPath id="1f8cbdd9ae"><path d="M 0.996094 24.367188 C -0.988281 40.019531 15.398438 54.988281 37.597656 57.800781 C 59.792969 60.613281 79.394531 50.203125 81.378906 34.550781 C 83.359375 18.894531 66.972656 3.925781 44.777344 1.117188 C 22.578125 -1.695312 2.976562 8.714844 0.996094 24.367188 Z M 0.996094 24.367188 " clip-rule="nonzero"/></clipPath><clipPath id="b38a2245fa"><rect x="0" width="82" y="0" height="59"/></clipPath><clipPath id="eb703a4b3e"><path d="M 30 29 L 112 29 L 112 88 L 30 88 Z M 30 29 " clip-rule="nonzero"/></clipPath><clipPath id="1d176b2fbf"><path d="M 27.40625 81.710938 L 34.59375 24.953125 L 114.722656 35.101562 L 107.535156 91.859375 Z M 27.40625 81.710938 " clip-rule="nonzero"/></clipPath><clipPath id="12da0cf322"><path d="M 27.40625 81.710938 L 34.59375 24.972656 L 115.535156 35.226562 L 108.351562 91.964844 Z M 27.40625 81.710938 " clip-rule="nonzero"/></clipPath><clipPath id="63d1d8fbf1"><path d="M 30.996094 53.371094 C 29.015625 69.023438 45.398438 83.988281 67.59375 86.800781 C 89.789062 89.613281 109.386719 79.203125 111.371094 63.550781 C 113.351562 47.898438 96.96875 32.933594 74.773438 30.121094 C 52.578125 27.3125 32.980469 37.71875 30.996094 53.371094 Z M 30.996094 53.371094 " clip-rule="nonzero"/></clipPath><clipPath id="b88457135f"><path d="M 37 32 L 111 32 L 111 86 L 37 86 Z M 37 32 " clip-rule="nonzero"/></clipPath><clipPath id="929992c459"><path d="M 34.15625 80.757812 L 40.753906 28.671875 L 113.386719 37.871094 L 106.789062 89.957031 Z M 34.15625 80.757812 " clip-rule="nonzero"/></clipPath><clipPath id="6ff070383f"><path d="M 37.457031 54.714844 C 35.632812 69.097656 50.371094 82.808594 70.375 85.34375 C 90.378906 87.875 108.070312 78.269531 109.890625 63.886719 C 111.710938 49.507812 96.972656 35.792969 76.972656 33.257812 C 56.96875 30.726562 39.277344 40.332031 37.457031 54.714844 Z M 37.457031 54.714844 " clip-rule="nonzero"/></clipPath><clipPath id="2ef00a57da"><path d="M 0 0 L 74 0 L 74 54 L 0 54 Z M 0 0 " clip-rule="nonzero"/></clipPath><clipPath id="e15b7c4d27"><path d="M -2.84375 48.757812 L 3.753906 -3.328125 L 76.386719 5.871094 L 69.789062 57.957031 Z M -2.84375 48.757812 " clip-rule="nonzero"/></clipPath><clipPath id="2a5b3fac62"><path d="M 0.457031 22.714844 C -1.367188 37.097656 13.371094 50.808594 33.375 53.34375 C 53.378906 55.875 71.070312 46.269531 72.890625 31.886719 C 74.710938 17.507812 59.972656 3.792969 39.972656 1.257812 C 19.96875 -1.273438 2.277344 8.332031 0.457031 22.714844 Z M 0.457031 22.714844 " clip-rule="nonzero"/></clipPath><clipPath id="92ba0c24bf"><rect x="0" width="74" y="0" height="54"/></clipPath><clipPath id="6be79f56d7"><path d="M 59 45 L 91 45 L 91 74 L 59 74 Z M 59 45 " clip-rule="nonzero"/></clipPath><clipPath id="2824118e3c"><path d="M 54.90625 62.886719 L 64.359375 42.230469 L 94.195312 55.886719 L 84.742188 76.542969 Z M 54.90625 62.886719 " clip-rule="nonzero"/></clipPath><clipPath id="d4c5de15fc"><path d="M 54.90625 62.886719 L 64.359375 42.230469 L 94.195312 55.886719 L 84.742188 76.542969 Z M 54.90625 62.886719 " clip-rule="nonzero"/></clipPath><clipPath id="4b46eb590c"><rect x="0" width="142" y="0" height="125"/></clipPath><mask id="fe1c193a7e"><g filter="url(#08502999b4)"><rect x="-555" width="1080" fill="#000000" y="-541.999999" height="1079.999992" fill-opacity="0.13"/></g></mask><clipPath id="b9b516cb53"><path d="M 4 4 L 115 4 L 115 84 L 4 84 Z M 4 4 " clip-rule="nonzero"/></clipPath><clipPath id="e5223b75dc"><path d="M 7.773438 0.265625 L 117.976562 9.847656 L 111.21875 87.566406 L 1.015625 77.984375 Z M 7.773438 0.265625 " clip-rule="nonzero"/></clipPath><clipPath id="3ccac71dcb"><path d="M 62.761719 5.046875 C 32.390625 2.40625 6.261719 17.664062 4.394531 39.125 C 2.527344 60.585938 25.636719 80.125 56.003906 82.765625 C 86.371094 85.40625 112.503906 70.148438 114.371094 48.6875 C 116.234375 27.226562 93.128906 7.6875 62.761719 5.046875 Z M 62.761719 5.046875 " clip-rule="nonzero"/></clipPath><clipPath id="18f8f61e6f"><path d="M 0 0 L 111 0 L 111 80 L 0 80 Z M 0 0 " clip-rule="nonzero"/></clipPath><clipPath id="57767db090"><path d="M 3.773438 -3.734375 L 113.976562 5.847656 L 107.21875 83.566406 L -2.984375 73.984375 Z M 3.773438 -3.734375 " clip-rule="nonzero"/></clipPath><clipPath id="72b8cb5852"><path d="M 58.761719 1.046875 C 28.390625 -1.59375 2.261719 13.664062 0.394531 35.125 C -1.472656 56.585938 21.636719 76.125 52.003906 78.765625 C 82.371094 81.40625 108.503906 66.148438 110.371094 44.6875 C 112.234375 23.226562 89.128906 3.6875 58.761719 1.046875 Z M 58.761719 1.046875 " clip-rule="nonzero"/></clipPath><clipPath id="7d6238bbc2"><rect x="0" width="111" y="0" height="80"/></clipPath><clipPath id="ccfecabea3"><rect x="0" width="119" y="0" height="88"/></clipPath><clipPath id="074bae513f"><path d="M 15 29 L 126 29 L 126 108 L 15 108 Z M 15 29 " clip-rule="nonzero"/></clipPath><clipPath id="3a5faf2478"><path d="M 11.15625 100.277344 L 20.9375 23.058594 L 130.734375 36.964844 L 120.953125 114.183594 Z M 11.15625 100.277344 " clip-rule="nonzero"/></clipPath><clipPath id="0abb53956c"><path d="M 16.046875 61.667969 C 13.347656 82.992188 35.671875 103.382812 65.910156 107.210938 C 96.144531 111.042969 122.847656 96.859375 125.550781 75.539062 C 128.25 54.214844 105.925781 33.824219 75.6875 29.992188 C 45.449219 26.164062 18.75 40.34375 16.046875 61.667969 Z M 16.046875 61.667969 " clip-rule="nonzero"/></clipPath><clipPath id="0cb4a4f050"><path d="M 0 0 L 111 0 L 111 79 L 0 79 Z M 0 0 " clip-rule="nonzero"/></clipPath><clipPath id="947444bfe9"><path d="M -3.84375 71.277344 L 5.9375 -5.941406 L 115.734375 7.964844 L 105.953125 85.183594 Z M -3.84375 71.277344 " clip-rule="nonzero"/></clipPath><clipPath id="268862c91f"><path d="M 1.046875 32.667969 C -1.652344 53.992188 20.671875 74.382812 50.910156 78.210938 C 81.144531 82.042969 107.847656 67.859375 110.550781 46.539062 C 113.25 25.214844 90.925781 4.824219 60.6875 0.992188 C 30.449219 -2.835938 3.75 11.34375 1.046875 32.667969 Z M 1.046875 32.667969 " clip-rule="nonzero"/></clipPath><clipPath id="8b5e8481a0"><rect x="0" width="111" y="0" height="79"/></clipPath><clipPath id="53031f6d43"><path d="M 15 29 L 126 29 L 126 108 L 15 108 Z M 15 29 " clip-rule="nonzero"/></clipPath><clipPath id="59386f9c00"><path d="M 11.15625 100.277344 L 20.988281 22.652344 L 130.332031 36.503906 L 120.5 114.128906 Z M 11.15625 100.277344 " clip-rule="nonzero"/></clipPath><clipPath id="65a3925bdb"><path d="M 11.15625 100.277344 L 20.949219 22.980469 L 131.222656 36.949219 L 121.433594 114.242188 Z M 11.15625 100.277344 " clip-rule="nonzero"/></clipPath><clipPath id="8e71cd414f"><path d="M 16.046875 61.667969 C 13.347656 82.992188 35.667969 103.382812 65.90625 107.210938 C 96.144531 111.042969 122.84375 96.859375 125.546875 75.535156 C 128.246094 54.214844 105.921875 33.824219 75.6875 29.992188 C 45.449219 26.164062 18.75 40.34375 16.046875 61.667969 Z M 16.046875 61.667969 " clip-rule="nonzero"/></clipPath><clipPath id="6b0e5a16b7"><path d="M 17 17 L 128 17 L 128 97 L 17 97 Z M 17 17 " clip-rule="nonzero"/></clipPath><clipPath id="cefaea15fc"><path d="M 12.839844 88.59375 L 22.621094 11.375 L 132.417969 25.28125 L 122.636719 102.5 Z M 12.839844 88.59375 " clip-rule="nonzero"/></clipPath><clipPath id="297ec724eb"><path d="M 17.730469 49.984375 C 15.03125 71.308594 37.351562 91.699219 67.589844 95.527344 C 97.828125 99.359375 124.53125 85.175781 127.230469 63.851562 C 129.933594 42.527344 107.609375 22.136719 77.371094 18.308594 C 47.132812 14.476562 20.429688 28.660156 17.730469 49.984375 Z M 17.730469 49.984375 " clip-rule="nonzero"/></clipPath><clipPath id="f29af0d25e"><path d="M 0 0 L 111 0 L 111 80 L 0 80 Z M 0 0 " clip-rule="nonzero"/></clipPath><clipPath id="9e1ae62fea"><path d="M -4.160156 71.59375 L 5.621094 -5.625 L 115.417969 8.28125 L 105.636719 85.5 Z M -4.160156 71.59375 " clip-rule="nonzero"/></clipPath><clipPath id="c8df40da68"><path d="M 0.730469 32.984375 C -1.96875 54.308594 20.351562 74.699219 50.589844 78.527344 C 80.828125 82.359375 107.53125 68.175781 110.230469 46.851562 C 112.933594 25.527344 90.609375 5.136719 60.371094 1.308594 C 30.132812 -2.523438 3.429688 11.660156 0.730469 32.984375 Z M 0.730469 32.984375 " clip-rule="nonzero"/></clipPath><clipPath id="de95b3621f"><rect x="0" width="111" y="0" height="80"/></clipPath><clipPath id="e57c381267"><path d="M 17 17 L 128 17 L 128 97 L 17 97 Z M 17 17 " clip-rule="nonzero"/></clipPath><clipPath id="61c73ff892"><path d="M 12.839844 88.59375 L 22.671875 10.96875 L 132.011719 24.820312 L 122.179688 102.441406 Z M 12.839844 88.59375 " clip-rule="nonzero"/></clipPath><clipPath id="0a135f7555"><path d="M 12.839844 88.59375 L 22.628906 11.296875 L 132.90625 25.265625 L 123.113281 102.558594 Z M 12.839844 88.59375 " clip-rule="nonzero"/></clipPath><clipPath id="9b09656765"><path d="M 17.730469 49.984375 C 15.03125 71.308594 37.351562 91.695312 67.589844 95.527344 C 97.824219 99.355469 124.527344 85.175781 127.226562 63.851562 C 129.929688 42.53125 107.605469 22.140625 77.367188 18.308594 C 47.132812 14.480469 20.429688 28.660156 17.730469 49.984375 Z M 17.730469 49.984375 " clip-rule="nonzero"/></clipPath><clipPath id="713d3d866f"><path d="M 31 29 L 112 29 L 112 88 L 31 88 Z M 31 29 " clip-rule="nonzero"/></clipPath><clipPath id="7d28025a04"><path d="M 27.859375 81.515625 L 35.039062 24.832031 L 115.636719 35.039062 L 108.457031 91.726562 Z M 27.859375 81.515625 " clip-rule="nonzero"/></clipPath><clipPath id="52fc863e1d"><path d="M 31.449219 53.171875 C 29.464844 68.828125 45.851562 83.796875 68.046875 86.605469 C 90.246094 89.417969 109.847656 79.007812 111.828125 63.355469 C 113.8125 47.703125 97.425781 32.734375 75.226562 29.921875 C 53.03125 27.109375 33.429688 37.519531 31.449219 53.171875 Z M 31.449219 53.171875 " clip-rule="nonzero"/></clipPath><clipPath id="bc0eb9dc84"><path d="M 0 0 L 81 0 L 81 59 L 0 59 Z M 0 0 " clip-rule="nonzero"/></clipPath><clipPath id="9f1c65785a"><path d="M -3.140625 52.515625 L 4.039062 -4.167969 L 84.636719 6.039062 L 77.457031 62.726562 Z M -3.140625 52.515625 " clip-rule="nonzero"/></clipPath><clipPath id="73747d7a31"><path d="M 0.449219 24.171875 C -1.535156 39.828125 14.851562 54.796875 37.046875 57.605469 C 59.246094 60.417969 78.847656 50.007812 80.828125 34.355469 C 82.8125 18.703125 66.425781 3.734375 44.226562 0.921875 C 22.03125 -1.890625 2.429688 8.519531 0.449219 24.171875 Z M 0.449219 24.171875 " clip-rule="nonzero"/></clipPath><clipPath id="58fec6bc3b"><rect x="0" width="81" y="0" height="59"/></clipPath><clipPath id="425381a908"><path d="M 31 29 L 112 29 L 112 88 L 31 88 Z M 31 29 " clip-rule="nonzero"/></clipPath><clipPath id="83875ef8da"><path d="M 27.859375 81.515625 L 35.046875 24.757812 L 115.175781 34.90625 L 107.984375 91.664062 Z M 27.859375 81.515625 " clip-rule="nonzero"/></clipPath><clipPath id="8e14fa0684"><path d="M 27.859375 81.515625 L 35.042969 24.78125 L 115.988281 35.03125 L 108.800781 91.769531 Z M 27.859375 81.515625 " clip-rule="nonzero"/></clipPath><clipPath id="22ddcf43d1"><path d="M 31.449219 53.175781 C 29.464844 68.828125 45.851562 83.796875 68.046875 86.605469 C 90.238281 89.417969 109.839844 79.007812 111.820312 63.355469 C 113.804688 47.707031 97.417969 32.738281 75.222656 29.925781 C 53.03125 27.117188 33.429688 37.523438 31.449219 53.175781 Z M 31.449219 53.175781 " clip-rule="nonzero"/></clipPath><clipPath id="44e0cb9660"><path d="M 37 32 L 111 32 L 111 86 L 37 86 Z M 37 32 " clip-rule="nonzero"/></clipPath><clipPath id="e9ac4af841"><path d="M 34.609375 80.5625 L 41.207031 28.476562 L 113.839844 37.675781 L 107.242188 89.761719 Z M 34.609375 80.5625 " clip-rule="nonzero"/></clipPath><clipPath id="8c754a76c3"><path d="M 37.90625 54.519531 C 36.085938 68.902344 50.824219 82.617188 70.828125 85.148438 C 90.828125 87.683594 108.519531 78.078125 110.34375 63.695312 C 112.164062 49.3125 97.425781 35.597656 77.421875 33.066406 C 57.421875 30.53125 39.730469 40.136719 37.90625 54.519531 Z M 37.90625 54.519531 " clip-rule="nonzero"/></clipPath><clipPath id="6a89cf86fe"><path d="M 0 0 L 74 0 L 74 54 L 0 54 Z M 0 0 " clip-rule="nonzero"/></clipPath><clipPath id="b8b33cc294"><path d="M -2.390625 48.5625 L 4.207031 -3.523438 L 76.839844 5.675781 L 70.242188 57.761719 Z M -2.390625 48.5625 " clip-rule="nonzero"/></clipPath><clipPath id="29e701071d"><path d="M 0.90625 22.519531 C -0.914062 36.902344 13.824219 50.617188 33.828125 53.148438 C 53.828125 55.683594 71.519531 46.078125 73.34375 31.695312 C 75.164062 17.3125 60.425781 3.597656 40.421875 1.066406 C 20.421875 -1.46875 2.730469 8.136719 0.90625 22.519531 Z M 0.90625 22.519531 " clip-rule="nonzero"/></clipPath><clipPath id="ede8109c36"><rect x="0" width="74" y="0" height="54"/></clipPath><clipPath id="145f1f7fa4"><path d="M 59 45 L 91 45 L 91 74 L 59 74 Z M 59 45 " clip-rule="nonzero"/></clipPath><clipPath id="99994da182"><path d="M 55.355469 62.691406 L 64.8125 42.035156 L 94.644531 55.691406 L 85.191406 76.347656 Z M 55.355469 62.691406 " clip-rule="nonzero"/></clipPath><clipPath id="2b61250960"><path d="M 55.355469 62.691406 L 64.8125 42.035156 L 94.644531 55.691406 L 85.191406 76.347656 Z M 55.355469 62.691406 " clip-rule="nonzero"/></clipPath><clipPath id="bd24404000"><rect x="0" width="143" y="0" height="125"/></clipPath></defs><g transform="matrix(1, 0, 0, 1, 270, 240)"><g clip-path="url(#95c137addc)"><g clip-path="url(#25055cba9c)"><g clip-path="url(#e0e57af434)"><g transform="matrix(1, 0, 0, 1, 2, 55)"><g clip-path="url(#5be0020a53)"><g clip-path="url(#643cd1be02)"><g clip-path="url(#b21fcc0498)"><path fill="#ffffff" d="M 0.382812 15.535156 L 66.398438 0.0625 L 68.738281 10.042969 L 2.722656 25.515625 Z M 0.382812 15.535156 " fill-opacity="1" fill-rule="nonzero"/></g></g></g></g></g></g><g clip-path="url(#a549984b70)"><g transform="matrix(1, 0, 0, 1, 14, 67)"><g clip-path="url(#a4f3ea7dfb)"><g clip-path="url(#771baba84b)"><path fill="#ffffff" d="M 0.0703125 0.0703125 L 54.546875 0.0703125 L 54.546875 16.152344 L 0.0703125 16.152344 Z M 0.0703125 0.0703125 " fill-opacity="1" fill-rule="nonzero"/></g></g></g></g><g clip-path="url(#ebd19d4d3a)"><g transform="matrix(1, 0, 0, 1, 9, 80)"><g clip-path="url(#d1ca2d85e0)"><g clip-path="url(#9e7dc37030)"><path fill="#ffffff" d="M 0.078125 0.519531 L 69.328125 0.519531 L 69.328125 121.433594 L 0.078125 121.433594 Z M 0.078125 0.519531 " fill-opacity="1" fill-rule="nonzero"/></g></g></g></g><g clip-path="url(#755612baf9)"><g clip-path="url(#c878340422)"><g transform="matrix(1, 0, 0, 1, 144, 55)"><g clip-path="url(#2f5cf18396)"><g clip-path="url(#66c2343314)"><g clip-path="url(#d7fdff71aa)"><path fill="#ffffff" d="M 2.71875 0.0664062 L 68.480469 16.582031 L 65.984375 26.527344 L 0.222656 10.011719 Z M 2.71875 0.0664062 " fill-opacity="1" fill-rule="nonzero"/></g></g></g></g></g></g><g clip-path="url(#976df74948)"><g transform="matrix(1, 0, 0, 1, 135, 67)"><g clip-path="url(#a711a6b7f7)"><g clip-path="url(#47cb1618e3)"><path fill="#ffffff" d="M 0.839844 0.765625 L 70.085938 0.765625 L 70.085938 121.679688 L 0.839844 121.679688 Z M 0.839844 0.765625 " fill-opacity="1" fill-rule="nonzero"/></g></g></g></g><g clip-path="url(#e442497e4e)"><g transform="matrix(1, 0, 0, 1, 67, 37)"><g clip-path="url(#29c93b0c49)"><g clip-path="url(#096a2744ff)"><path fill="#ffffff" d="M 0.101562 0.265625 L 81.457031 0.265625 L 81.457031 164.566406 L 0.101562 164.566406 Z M 0.101562 0.265625 " fill-opacity="1" fill-rule="nonzero"/></g></g></g></g><g clip-path="url(#6c577c8b2e)"><g transform="matrix(1, 0, 0, 1, 78, 25)"><g clip-path="url(#e02990ab63)"><g clip-path="url(#56e0c5f0fa)"><path fill="#ffffff" d="M 0.0742188 0.234375 L 59.484375 0.234375 L 59.484375 12.265625 L 0.0742188 12.265625 Z M 0.0742188 0.234375 " fill-opacity="1" fill-rule="nonzero"/></g></g></g></g><g clip-path="url(#eed6a1c608)"><path fill="#000000" d="M 191.28125 79.398438 L 168.359375 73.660156 L 164.660156 72.730469 L 162.757812 72.253906 L 150.441406 69.171875 L 150.441406 198.183594 L 201.023438 198.183594 L 201.023438 81.839844 Z M 82.785156 120.300781 L 104.996094 120.300781 L 104.996094 113.351562 L 82.785156 113.351562 Z M 110.328125 120.300781 L 132.539062 120.300781 L 132.539062 113.351562 L 110.328125 113.351562 Z M 135.203125 125.640625 L 80.117188 125.640625 C 78.644531 125.640625 77.449219 124.445312 77.449219 122.972656 L 77.449219 110.683594 C 77.449219 109.207031 78.644531 108.011719 80.117188 108.011719 L 135.203125 108.011719 C 136.675781 108.011719 137.871094 109.207031 137.871094 110.683594 L 137.871094 122.972656 C 137.871094 124.445312 136.675781 125.640625 135.203125 125.640625 Z M 82.785156 67.667969 L 104.996094 67.667969 L 104.996094 60.71875 L 82.785156 60.71875 Z M 110.328125 67.667969 L 132.539062 67.667969 L 132.539062 60.71875 L 110.328125 60.71875 Z M 135.203125 73.007812 L 80.117188 73.007812 C 78.644531 73.007812 77.449219 71.8125 77.449219 70.339844 L 77.449219 58.050781 C 77.449219 56.574219 78.644531 55.378906 80.117188 55.378906 L 135.203125 55.378906 C 136.675781 55.378906 137.871094 56.574219 137.871094 58.050781 L 137.871094 70.339844 C 137.871094 71.8125 136.675781 73.007812 135.203125 73.007812 Z M 82.785156 93.984375 L 104.996094 93.984375 L 104.996094 87.035156 L 82.785156 87.035156 Z M 110.328125 93.984375 L 132.539062 93.984375 L 132.539062 87.035156 L 110.328125 87.035156 Z M 135.203125 99.324219 L 80.117188 99.324219 C 78.644531 99.324219 77.449219 98.128906 77.449219 96.65625 L 77.449219 84.367188 C 77.449219 82.890625 78.644531 81.695312 80.117188 81.695312 L 135.203125 81.695312 C 136.675781 81.695312 137.871094 82.890625 137.871094 84.367188 L 137.871094 96.65625 C 137.871094 98.128906 136.675781 99.324219 135.203125 99.324219 Z M 32.996094 104.152344 L 43.695312 104.152344 L 43.695312 93.433594 L 32.996094 93.433594 Z M 46.359375 109.492188 L 30.328125 109.492188 C 28.859375 109.492188 27.664062 108.296875 27.664062 106.824219 L 27.664062 90.761719 C 27.664062 89.289062 28.859375 88.089844 30.328125 88.089844 L 46.359375 88.089844 C 47.832031 88.089844 49.027344 89.289062 49.027344 90.761719 L 49.027344 106.824219 C 49.027344 108.296875 47.832031 109.492188 46.359375 109.492188 Z M 32.996094 170.785156 L 43.695312 170.785156 L 43.695312 160.066406 L 32.996094 160.066406 Z M 46.359375 176.125 L 30.328125 176.125 C 28.859375 176.125 27.664062 174.929688 27.664062 173.457031 L 27.664062 157.394531 C 27.664062 155.921875 28.859375 154.726562 30.328125 154.726562 L 46.359375 154.726562 C 47.832031 154.726562 49.027344 155.921875 49.027344 157.394531 L 49.027344 173.457031 C 49.027344 174.929688 47.832031 176.125 46.359375 176.125 Z M 170.386719 105.347656 L 170.386719 94.628906 L 181.082031 94.628906 L 181.082031 105.347656 Z M 183.75 110.691406 L 167.71875 110.691406 C 166.246094 110.691406 165.050781 109.492188 165.050781 108.019531 L 165.050781 91.957031 C 165.050781 90.484375 166.246094 89.289062 167.71875 89.289062 L 183.75 89.289062 C 185.222656 89.289062 186.417969 90.484375 186.417969 91.957031 L 186.417969 108.019531 C 186.417969 109.492188 185.222656 110.691406 183.75 110.691406 Z M 170.386719 171.980469 L 170.386719 161.261719 L 181.082031 161.261719 L 181.082031 171.980469 Z M 183.75 177.324219 L 167.71875 177.324219 C 166.246094 177.324219 165.050781 176.125 165.050781 174.652344 L 165.050781 158.589844 C 165.050781 157.117188 166.246094 155.921875 167.71875 155.921875 L 183.75 155.921875 C 185.222656 155.921875 186.417969 157.117188 186.417969 158.589844 L 186.417969 174.652344 C 186.417969 176.125 185.222656 177.324219 183.75 177.324219 Z M 170.386719 138.664062 L 170.386719 127.945312 L 181.082031 127.945312 L 181.082031 138.664062 Z M 183.75 144.007812 L 167.71875 144.007812 C 166.246094 144.007812 165.050781 142.808594 165.050781 141.335938 L 165.050781 125.273438 C 165.050781 123.800781 166.246094 122.605469 167.71875 122.605469 L 183.75 122.605469 C 185.222656 122.605469 186.417969 123.800781 186.417969 125.273438 L 186.417969 141.335938 C 186.417969 142.808594 185.222656 144.007812 183.75 144.007812 Z M 32.996094 137.46875 L 43.695312 137.46875 L 43.695312 126.75 L 32.996094 126.75 Z M 46.359375 142.808594 L 30.328125 142.808594 C 28.859375 142.808594 27.664062 141.613281 27.664062 140.140625 L 27.664062 124.078125 C 27.664062 122.605469 28.859375 121.40625 30.328125 121.40625 L 46.359375 121.40625 C 47.832031 121.40625 49.027344 122.605469 49.027344 124.078125 L 49.027344 140.140625 C 49.027344 141.613281 47.832031 142.808594 46.359375 142.808594 Z M 104.996094 22.757812 L 104.996094 3.617188 C 104.996094 2.140625 106.1875 0.945312 107.660156 0.945312 C 109.132812 0.945312 110.328125 2.140625 110.328125 3.617188 L 110.328125 22.757812 L 137.566406 22.757812 C 139.039062 22.757812 140.230469 23.953125 140.230469 25.429688 L 140.230469 36.015625 L 147.777344 36.015625 C 149.25 36.015625 150.441406 37.214844 150.441406 38.6875 L 150.441406 53.808594 L 168.265625 58.273438 L 194.890625 64.941406 L 212.84375 69.4375 C 214.050781 69.738281 214.859375 70.828125 214.859375 72.023438 L 214.863281 72.023438 L 214.863281 81.886719 C 214.863281 83.363281 213.667969 84.558594 212.195312 84.558594 C 211.917969 84.558594 211.648438 84.515625 211.394531 84.433594 L 206.359375 83.171875 L 206.359375 198.183594 L 212.199219 198.183594 C 213.667969 198.183594 214.863281 199.378906 214.863281 200.855469 L 214.863281 212.148438 C 214.863281 213.621094 213.667969 214.820312 212.199219 214.820312 L 3.125 214.820312 C 1.652344 214.820312 0.457031 213.621094 0.457031 212.148438 L 0.457031 200.855469 C 0.457031 199.378906 1.652344 198.183594 3.125 198.183594 L 8.964844 198.183594 L 8.964844 83.171875 L 3.925781 84.433594 C 3.671875 84.515625 3.402344 84.558594 3.125 84.558594 C 1.652344 84.558594 0.457031 83.363281 0.457031 81.886719 L 0.457031 72.023438 L 0.460938 72.023438 C 0.460938 70.828125 1.269531 69.738281 2.480469 69.4375 L 20.433594 64.941406 L 47.054688 58.273438 L 64.878906 53.808594 L 64.878906 38.6875 C 64.878906 37.214844 66.074219 36.015625 67.546875 36.015625 L 75.089844 36.015625 L 75.089844 25.429688 C 75.089844 23.953125 76.285156 22.757812 77.757812 22.757812 Z M 145.109375 41.359375 L 145.109375 198.183594 L 136.269531 198.183594 L 136.269531 146.65625 C 136.269531 145.179688 135.074219 143.984375 133.601562 143.984375 L 81.71875 143.984375 C 80.246094 143.984375 79.050781 145.179688 79.050781 146.65625 L 79.050781 198.183594 L 70.210938 198.183594 L 70.210938 41.359375 Z M 80.421875 36.015625 L 134.898438 36.015625 L 134.898438 28.101562 L 80.421875 28.101562 Z M 10.828125 77.207031 C 10.929688 77.175781 11.03125 77.152344 11.136719 77.128906 L 22.746094 74.222656 L 45.667969 68.484375 L 49.371094 67.554688 L 51.273438 67.078125 L 64.878906 63.671875 L 64.878906 59.308594 L 48.347656 63.449219 L 21.722656 70.117188 L 5.792969 74.105469 L 5.792969 78.46875 Z M 64.878906 198.183594 L 14.296875 198.183594 L 14.296875 81.839844 L 24.039062 79.398438 L 46.960938 73.660156 L 50.664062 72.730469 L 52.5625 72.253906 L 64.878906 69.171875 Z M 204.183594 77.128906 L 192.574219 74.222656 L 169.652344 68.484375 L 165.949219 67.554688 L 164.050781 67.078125 L 150.441406 63.671875 L 150.441406 59.308594 L 166.976562 63.449219 L 193.597656 70.117188 L 209.53125 74.105469 L 209.53125 78.46875 L 204.496094 77.207031 C 204.394531 77.175781 204.289062 77.152344 204.183594 77.128906 Z M 130.9375 198.183594 L 130.9375 149.324219 L 110.328125 149.324219 L 110.328125 198.183594 Z M 104.996094 149.324219 L 84.386719 149.324219 L 84.386719 198.183594 L 104.996094 198.183594 Z M 5.792969 209.476562 L 209.53125 209.476562 L 209.53125 203.527344 L 5.792969 203.527344 Z M 5.792969 209.476562 " fill-opacity="1" fill-rule="evenodd"/></g></g></g><g transform="matrix(1, 0, 0, 1, 206, 377)"><g clip-path="url(#bf15a21811)"><g mask="url(#2b1d3e9981)"><g transform="matrix(1, 0, 0, 1, 16, 30)"><g clip-path="url(#4868bef981)"><g clip-path="url(#17dfce1fc0)"><g clip-path="url(#6fd534845e)"><g clip-path="url(#607a94c967)"><g transform="matrix(1, 0, 0, 1, 3, 4)"><g clip-path="url(#82768cbc2b)"><g clip-path="url(#c66d9aedb4)"><g clip-path="url(#55f58e685d)"><g clip-path="url(#73957eff49)"><path fill="#000000" d="M 4.253906 -3.734375 L 114.152344 5.820312 L 107.394531 83.539062 L -2.503906 73.984375 Z M 4.253906 -3.734375 " fill-opacity="1" fill-rule="nonzero"/></g></g></g></g></g></g></g></g></g></g></g><g clip-path="url(#88abdf2382)"><g clip-path="url(#9eda2820bf)"><g clip-path="url(#bd585cb814)"><g transform="matrix(1, 0, 0, 1, 15, 29)"><g clip-path="url(#4023bc27dd)"><g clip-path="url(#d3d09c4f49)"><g clip-path="url(#220700d302)"><g clip-path="url(#8262a619c7)"><path fill="#ffffff" d="M -4.363281 71.277344 L 5.417969 -5.941406 L 114.914062 7.925781 L 105.132812 85.148438 Z M -4.363281 71.277344 " fill-opacity="1" fill-rule="nonzero"/></g></g></g></g></g></g></g></g><g clip-path="url(#aff2de0428)"><g clip-path="url(#41d253a470)"><g clip-path="url(#3ef84fcd7c)"><g clip-path="url(#e1eb9e175c)"><path stroke-linecap="butt" transform="matrix(0.105717, -0.834666, 0.834666, 0.105717, 10.637097, 100.27694)" fill="none" stroke-linejoin="miter" d="M 46.256826 0.000137644 C 20.708859 0.00209694 -0.00155423 29.366854 0.000558369 65.594601 C -0.00251856 101.818325 20.710457 131.187463 46.258424 131.185504 C 71.802369 131.188734 92.512198 101.819371 92.515275 65.595647 C 92.513163 29.367899 71.804793 -0.00182165 46.256826 0.000137644 Z M 46.256826 0.000137644 " stroke="#000000" stroke-width="5.348649" stroke-opacity="1" stroke-miterlimit="4"/></g></g></g></g><g clip-path="url(#fb7c838be5)"><g clip-path="url(#83ce09a6b9)"><g clip-path="url(#a5e1aa4138)"><g transform="matrix(1, 0, 0, 1, 16, 17)"><g clip-path="url(#b12b9d6290)"><g clip-path="url(#b8f9e0ded9)"><g clip-path="url(#f2026ac4c5)"><g clip-path="url(#cd5a3e32c5)"><path fill="#ffffff" d="M -3.679688 71.59375 L 6.101562 -5.625 L 115.597656 8.242188 L 105.816406 85.460938 Z M -3.679688 71.59375 " fill-opacity="1" fill-rule="nonzero"/></g></g></g></g></g></g></g></g><g clip-path="url(#cd4d7d9daf)"><g clip-path="url(#753815c510)"><g clip-path="url(#625ec3007d)"><g clip-path="url(#5523564e84)"><path stroke-linecap="butt" transform="matrix(0.105717, -0.834666, 0.834666, 0.105717, 12.319762, 88.592497)" fill="none" stroke-linejoin="miter" d="M 46.255963 0.00135859 C 20.707413 -0.00128824 0.0021895 29.367491 -0.00030402 65.595822 C 0.00122518 101.818963 20.709595 131.188684 46.257562 131.186725 C 71.801506 131.189955 92.511336 101.820592 92.51383 65.592261 C 92.5123 29.36912 71.80393 -0.000600709 46.255963 0.00135859 Z M 46.255963 0.00135859 " stroke="#000000" stroke-width="5.348649" stroke-opacity="1" stroke-miterlimit="4"/></g></g></g></g><g clip-path="url(#70d6b6f2d7)"><g clip-path="url(#5c43eb8161)"><g clip-path="url(#b99747a992)"><g transform="matrix(1, 0, 0, 1, 30, 29)"><g clip-path="url(#a91fbd75ab)"><g clip-path="url(#039ec247cc)"><g clip-path="url(#58807a843f)"><g clip-path="url(#2c0014216e)"><path fill="#000000" d="M -2.664062 52.515625 L 4.515625 -4.167969 L 84.894531 6.011719 L 77.714844 62.695312 Z M -2.664062 52.515625 " fill-opacity="1" fill-rule="nonzero"/></g></g></g></g></g></g></g></g><g clip-path="url(#9634e17902)"><g clip-path="url(#e15f0dc187)"><g clip-path="url(#e16473024b)"><g clip-path="url(#e61495ad56)"><path stroke-linecap="butt" transform="matrix(0.105717, -0.834666, 0.834666, 0.105717, 27.338321, 81.516335)" fill="none" stroke-linejoin="miter" d="M 33.954646 0.00213677 C 15.201536 -0.0000830974 -0.00176271 21.558206 0.000739918 48.145067 C -0.000780172 74.737117 15.202053 96.295884 33.95458 96.293498 C 52.703083 96.296301 67.906382 74.738012 67.907902 48.145962 C 67.904816 21.554496 52.707173 -0.000249491 33.954646 0.00213677 Z M 33.954646 0.00213677 " stroke="#000000" stroke-width="5.348649" stroke-opacity="1" stroke-miterlimit="4"/></g></g></g></g><path stroke-linecap="butt" transform="matrix(0.176338, -0.822647, 0.822647, 0.176338, 21.838566, 83.489274)" fill="none" stroke-linejoin="miter" d="M 0.000273556 1.501987 L 12.863001 1.498876 " stroke="#000000" stroke-width="3" stroke-opacity="1" stroke-miterlimit="4"/><path stroke-linecap="butt" transform="matrix(0.391024, -0.744945, 0.744945, 0.391024, 34.036099, 95.287652)" fill="none" stroke-linejoin="miter" d="M -0.00150341 1.499214 L 12.862123 1.500918 " stroke="#000000" stroke-width="3" stroke-opacity="1" stroke-miterlimit="4"/><path stroke-linecap="butt" transform="matrix(0.274096, -0.795434, 0.795434, 0.274096, 51.781698, 101.791325)" fill="none" stroke-linejoin="miter" d="M -0.0000734244 1.50218 L 12.860713 1.500108 " stroke="#000000" stroke-width="3" stroke-opacity="1" stroke-miterlimit="4"/><path stroke-linecap="butt" transform="matrix(0.0381154, -0.84047, 0.84047, 0.0381154, 71.85618, 106.772439)" fill="none" stroke-linejoin="miter" d="M 0.00178186 1.500278 L 12.861856 1.498034 " stroke="#000000" stroke-width="3" stroke-opacity="1" stroke-miterlimit="4"/><path stroke-linecap="butt" transform="matrix(-0.0809226, -0.837433, 0.837433, -0.0809226, 89.940439, 104.318797)" fill="none" stroke-linejoin="miter" d="M -0.00199094 1.498284 L 12.862613 1.500642 " stroke="#000000" stroke-width="3" stroke-opacity="1" stroke-miterlimit="4"/><path stroke-linecap="butt" transform="matrix(-0.0809226, -0.837433, 0.837433, -0.0809226, 107.796207, 97.209147)" fill="none" stroke-linejoin="miter" d="M 0.00234029 1.498344 L 12.862323 1.500256 " stroke="#000000" stroke-width="3" stroke-opacity="1" stroke-miterlimit="4"/><g clip-path="url(#45d8ec3c69)"><g clip-path="url(#9c298302ff)"><g clip-path="url(#415d2b8871)"><g transform="matrix(1, 0, 0, 1, 37, 32)"><g clip-path="url(#c5d268528b)"><g clip-path="url(#9e4c274bfc)"><g clip-path="url(#f58248af1e)"><g clip-path="url(#f4a0794bd0)"><path fill="#a9c5e7" d="M -2.910156 48.5625 L 3.6875 -3.523438 L 76.113281 5.652344 L 69.519531 57.734375 Z M -2.910156 48.5625 " fill-opacity="1" fill-rule="nonzero"/></g></g></g></g></g></g></g></g><g clip-path="url(#0843f0c6bc)"><g clip-path="url(#13fe4fe3ec)"><g clip-path="url(#7fd81b48a9)"><path fill="#ffffff" d="M 77.683594 51.386719 C 76.054688 52.152344 74.351562 53.582031 72.632812 55.816406 L 67.632812 53.527344 C 68.539062 52.316406 69.6875 51.328125 71.082031 50.570312 C 71.265625 50.421875 71.449219 50.273438 71.441406 50.039062 C 71.527344 49.847656 71.519531 49.609375 71.371094 49.425781 L 69.210938 45.761719 C 69.0625 45.578125 68.914062 45.394531 68.679688 45.402344 C 68.488281 45.316406 68.207031 45.417969 68.066406 45.472656 C 65.65625 46.925781 63.734375 48.835938 62.347656 51.109375 L 61.289062 50.625 C 60.90625 50.449219 60.390625 50.5625 60.167969 51.042969 L 59.15625 53.253906 C 58.980469 53.636719 59.09375 54.152344 59.574219 54.375 L 60.632812 54.855469 C 59.898438 56.964844 59.875 59.046875 60.511719 60.964844 C 61.152344 63.117188 62.625 64.722656 64.835938 65.734375 C 67.046875 66.746094 68.992188 66.820312 70.761719 66.003906 C 72.390625 65.238281 73.949219 63.859375 75.625 61.722656 L 80.816406 64.097656 C 79.683594 65.554688 78.117188 66.695312 76.066406 67.617188 C 75.882812 67.765625 75.699219 67.914062 75.609375 68.109375 C 75.523438 68.300781 75.53125 68.535156 75.679688 68.71875 L 77.515625 72.582031 C 77.671875 73.003906 78.195312 73.128906 78.617188 72.972656 C 81.832031 71.535156 84.355469 69.320312 86.199219 66.5625 L 88.027344 67.398438 C 88.410156 67.574219 88.929688 67.460938 89.148438 66.980469 L 90.160156 64.769531 C 90.335938 64.382812 90.222656 63.867188 89.742188 63.648438 L 87.917969 62.8125 C 88.734375 60.511719 88.757812 58.429688 88.167969 56.417969 C 87.527344 54.261719 86.097656 52.5625 83.886719 51.550781 C 81.535156 50.589844 79.496094 50.472656 77.683594 51.386719 Z M 81.4375 57.40625 C 82.015625 57.667969 82.40625 58.082031 82.574219 58.738281 C 82.683594 59.253906 82.65625 59.824219 82.585938 60.488281 L 78.261719 58.507812 C 79.039062 57.820312 79.550781 57.46875 79.828125 57.367188 C 80.335938 57.015625 80.863281 57.140625 81.4375 57.40625 Z M 66.953125 59.84375 C 66.375 59.578125 66.078125 59.210938 65.914062 58.554688 C 65.757812 58.132812 65.742188 57.660156 65.867188 57.136719 L 69.902344 58.984375 C 69.261719 59.621094 68.796875 59.875 68.519531 59.980469 C 67.957031 60.1875 67.53125 60.105469 66.953125 59.84375 Z M 66.953125 59.84375 " fill-opacity="1" fill-rule="nonzero"/></g></g></g></g></g><g transform="matrix(1, 0, 0, 1, 303, 390)"><g clip-path="url(#4b46eb590c)"><g mask="url(#35e7b739eb)"><g transform="matrix(1, 0, 0, 1, 16, 30)"><g clip-path="url(#a4201c82c1)"><g clip-path="url(#4c77ccea54)"><g clip-path="url(#fc19e4ba52)"><g clip-path="url(#3c94f96901)"><g transform="matrix(1, 0, 0, 1, 3, 4)"><g clip-path="url(#97b0bd8ef7)"><g clip-path="url(#005d5925a7)"><g clip-path="url(#bace7c061d)"><g clip-path="url(#659648f841)"><path fill="#000000" d="M 4.320312 -3.539062 L 114.222656 6.015625 L 107.464844 83.734375 L -2.4375 74.179688 Z M 4.320312 -3.539062 " fill-opacity="1" fill-rule="nonzero"/></g></g></g></g></g></g></g></g></g></g></g><g clip-path="url(#2c8bf6e5bb)"><g clip-path="url(#ea8b18e6e7)"><g clip-path="url(#2d0e84eacd)"><g transform="matrix(1, 0, 0, 1, 15, 29)"><g clip-path="url(#51f93fd9ed)"><g clip-path="url(#ebcd128f3f)"><g clip-path="url(#64cd8f3dae)"><g clip-path="url(#27b7b14e1f)"><path fill="#ffffff" d="M -4.292969 71.472656 L 5.484375 -5.746094 L 114.980469 8.121094 L 105.203125 85.339844 Z M -4.292969 71.472656 " fill-opacity="1" fill-rule="nonzero"/></g></g></g></g></g></g></g></g><g clip-path="url(#6a9b7352dd)"><g clip-path="url(#23232c1de4)"><g clip-path="url(#3d80d8762d)"><g clip-path="url(#14f42de321)"><path stroke-linecap="butt" transform="matrix(0.105717, -0.834666, 0.834666, 0.105717, 10.705769, 100.471402)" fill="none" stroke-linejoin="miter" d="M 46.256069 0.00219893 C 20.707518 -0.0004479 0.00229467 29.368331 -0.000782259 65.592056 C 0.00133034 101.819803 20.7097 131.189524 46.257667 131.187565 C 71.801028 131.186189 92.511441 101.821432 92.513935 65.593102 C 92.511822 29.365354 71.804036 0.000239628 46.256069 0.00219893 Z M 46.256069 0.00219893 " stroke="#000000" stroke-width="5.348649" stroke-opacity="1" stroke-miterlimit="4"/></g></g></g></g><g clip-path="url(#a737de570d)"><g clip-path="url(#a54d789562)"><g clip-path="url(#54d3b66fb4)"><g transform="matrix(1, 0, 0, 1, 17, 17)"><g clip-path="url(#0482ce1f0f)"><g clip-path="url(#392c8cbd9d)"><g clip-path="url(#c03a1d106c)"><g clip-path="url(#8509edabd1)"><path fill="#ffffff" d="M -4.613281 71.789062 L 5.167969 -5.433594 L 114.664062 8.4375 L 104.882812 85.65625 Z M -4.613281 71.789062 " fill-opacity="1" fill-rule="nonzero"/></g></g></g></g></g></g></g></g><g clip-path="url(#8bf522e776)"><g clip-path="url(#b069173fc8)"><g clip-path="url(#5fa06db440)"><g clip-path="url(#4ea4679e49)"><path stroke-linecap="butt" transform="matrix(0.105717, -0.834666, 0.834666, 0.105717, 12.388434, 88.78696)" fill="none" stroke-linejoin="miter" d="M 46.254623 -0.00118625 C 20.711262 0.000189643 0.000848875 29.364946 -0.00164465 65.593277 C 0.000467955 101.821024 20.708254 131.186139 46.256805 131.188786 C 71.804772 131.186827 92.515185 101.82207 92.513072 65.594323 C 92.51096 29.366575 71.803173 0.00146057 46.254623 -0.00118625 Z M 46.254623 -0.00118625 " stroke="#000000" stroke-width="5.348649" stroke-opacity="1" stroke-miterlimit="4"/></g></g></g></g><g clip-path="url(#52fe83b726)"><g clip-path="url(#d0c69edc33)"><g clip-path="url(#141ea14c07)"><g transform="matrix(1, 0, 0, 1, 30, 29)"><g clip-path="url(#b38a2245fa)"><g clip-path="url(#40fa78a38f)"><g clip-path="url(#3096d1b1b3)"><g clip-path="url(#1f8cbdd9ae)"><path fill="#000000" d="M -2.59375 52.710938 L 4.585938 -3.972656 L 84.964844 6.207031 L 77.785156 62.890625 Z M -2.59375 52.710938 " fill-opacity="1" fill-rule="nonzero"/></g></g></g></g></g></g></g></g><g clip-path="url(#eb703a4b3e)"><g clip-path="url(#1d176b2fbf)"><g clip-path="url(#12da0cf322)"><g clip-path="url(#63d1d8fbf1)"><path stroke-linecap="butt" transform="matrix(0.105717, -0.834666, 0.834666, 0.105717, 27.406979, 81.710798)" fill="none" stroke-linejoin="miter" d="M 33.953308 -0.000390811 C 15.200781 0.00199545 0.00150497 21.555095 -0.0000151211 48.147145 C -0.00153521 74.739195 15.200715 96.293357 33.953825 96.295577 C 52.706351 96.293191 67.905627 74.740091 67.907147 48.148041 C 67.904061 21.556574 52.706418 0.00182905 33.953308 -0.000390811 Z M 33.953308 -0.000390811 " stroke="#000000" stroke-width="5.348649" stroke-opacity="1" stroke-miterlimit="4"/></g></g></g></g><path stroke-linecap="butt" transform="matrix(0.176338, -0.822647, 0.822647, 0.176338, 21.907252, 83.683708)" fill="none" stroke-linejoin="miter" d="M -0.00131576 1.499556 L 12.862385 1.500984 " stroke="#000000" stroke-width="3" stroke-opacity="1" stroke-miterlimit="4"/><path stroke-linecap="butt" transform="matrix(0.391024, -0.744945, 0.744945, 0.391024, 34.104771, 95.482086)" fill="none" stroke-linejoin="miter" d="M -0.00152188 1.501426 L 12.859946 1.499019 " stroke="#000000" stroke-width="3" stroke-opacity="1" stroke-miterlimit="4"/><path stroke-linecap="butt" transform="matrix(0.274096, -0.795434, 0.795434, 0.274096, 51.850385, 101.985817)" fill="none" stroke-linejoin="miter" d="M -0.00187914 1.499936 L 12.86042 1.502253 " stroke="#000000" stroke-width="3" stroke-opacity="1" stroke-miterlimit="4"/><path stroke-linecap="butt" transform="matrix(0.0381154, -0.84047, 0.84047, 0.0381154, 71.924896, 106.96687)" fill="none" stroke-linejoin="miter" d="M 0.00082163 1.502222 L 12.860896 1.499978 " stroke="#000000" stroke-width="3" stroke-opacity="1" stroke-miterlimit="4"/><path stroke-linecap="butt" transform="matrix(-0.0809226, -0.837433, 0.837433, -0.0809226, 90.009125, 104.513257)" fill="none" stroke-linejoin="miter" d="M 0.00143618 1.500557 L 12.861865 1.497847 " stroke="#000000" stroke-width="3" stroke-opacity="1" stroke-miterlimit="4"/><path stroke-linecap="butt" transform="matrix(-0.0809226, -0.837433, 0.837433, -0.0809226, 107.864894, 97.40361)" fill="none" stroke-linejoin="miter" d="M 0.00114885 1.500171 L 12.861131 1.502083 " stroke="#000000" stroke-width="3" stroke-opacity="1" stroke-miterlimit="4"/><g clip-path="url(#b88457135f)"><g clip-path="url(#929992c459)"><g clip-path="url(#6ff070383f)"><g transform="matrix(1, 0, 0, 1, 37, 32)"><g clip-path="url(#92ba0c24bf)"><g clip-path="url(#2ef00a57da)"><g clip-path="url(#e15b7c4d27)"><g clip-path="url(#2a5b3fac62)"><path fill="#a9c5e7" d="M -2.84375 48.757812 L 3.753906 -3.328125 L 76.183594 5.847656 L 69.585938 57.929688 Z M -2.84375 48.757812 " fill-opacity="1" fill-rule="nonzero"/></g></g></g></g></g></g></g></g><g clip-path="url(#6be79f56d7)"><g clip-path="url(#2824118e3c)"><g clip-path="url(#d4c5de15fc)"><path fill="#ffffff" d="M 77.753906 51.578125 C 76.125 52.34375 74.421875 53.777344 72.703125 56.011719 L 67.703125 53.722656 C 68.605469 52.507812 69.757812 51.523438 71.148438 50.765625 C 71.332031 50.617188 71.515625 50.46875 71.507812 50.234375 C 71.597656 50.039062 71.589844 49.804688 71.441406 49.621094 L 69.28125 45.957031 C 69.132812 45.773438 68.984375 45.589844 68.746094 45.597656 C 68.554688 45.507812 68.277344 45.613281 68.136719 45.667969 C 65.726562 47.121094 63.804688 49.03125 62.417969 51.304688 L 61.359375 50.820312 C 60.972656 50.644531 60.457031 50.753906 60.238281 51.234375 L 59.226562 53.445312 C 59.050781 53.832031 59.164062 54.347656 59.644531 54.566406 L 60.699219 55.050781 C 59.96875 57.160156 59.945312 59.242188 60.578125 61.15625 C 61.222656 63.3125 62.695312 64.917969 64.90625 65.929688 C 67.117188 66.941406 69.058594 67.015625 70.828125 66.199219 C 72.457031 65.433594 74.019531 64.054688 75.695312 61.914062 L 80.886719 64.292969 C 79.753906 65.75 78.183594 66.890625 76.136719 67.8125 C 75.949219 67.960938 75.765625 68.109375 75.679688 68.300781 C 75.589844 68.496094 75.597656 68.730469 75.746094 68.914062 L 77.582031 72.777344 C 77.738281 73.199219 78.265625 73.320312 78.683594 73.164062 C 81.898438 71.730469 84.425781 69.515625 86.269531 66.753906 L 88.09375 67.589844 C 88.480469 67.765625 88.996094 67.65625 89.214844 67.175781 L 90.226562 64.964844 C 90.40625 64.578125 90.292969 64.0625 89.8125 63.84375 L 87.984375 63.007812 C 88.804688 60.707031 88.828125 58.625 88.238281 56.613281 C 87.597656 54.457031 86.164062 52.757812 83.957031 51.746094 C 81.605469 50.785156 79.566406 50.664062 77.753906 51.578125 Z M 81.507812 57.601562 C 82.085938 57.863281 82.476562 58.277344 82.640625 58.933594 C 82.753906 59.449219 82.726562 60.019531 82.652344 60.683594 L 78.328125 58.703125 C 79.109375 58.011719 79.617188 57.664062 79.898438 57.5625 C 80.40625 57.210938 80.929688 57.335938 81.507812 57.601562 Z M 67.019531 60.039062 C 66.445312 59.773438 66.148438 59.40625 65.984375 58.75 C 65.828125 58.328125 65.8125 57.855469 65.933594 57.332031 L 69.972656 59.179688 C 69.332031 59.816406 68.867188 60.070312 68.585938 60.171875 C 68.027344 60.382812 67.597656 60.300781 67.019531 60.039062 Z M 67.019531 60.039062 " fill-opacity="1" fill-rule="nonzero"/></g></g></g></g></g><g transform="matrix(1, 0, 0, 1, 390, 377)"><g clip-path="url(#bd24404000)"><g mask="url(#fe1c193a7e)"><g transform="matrix(1, 0, 0, 1, 16, 30)"><g clip-path="url(#ccfecabea3)"><g clip-path="url(#b9b516cb53)"><g clip-path="url(#e5223b75dc)"><g clip-path="url(#3ccac71dcb)"><g transform="matrix(1, 0, 0, 1, 4, 4)"><g clip-path="url(#7d6238bbc2)"><g clip-path="url(#18f8f61e6f)"><g clip-path="url(#57767db090)"><g clip-path="url(#72b8cb5852)"><path fill="#000000" d="M 3.773438 -3.734375 L 113.671875 5.820312 L 106.917969 83.539062 L -2.984375 73.984375 Z M 3.773438 -3.734375 " fill-opacity="1" fill-rule="nonzero"/></g></g></g></g></g></g></g></g></g></g></g><g clip-path="url(#074bae513f)"><g clip-path="url(#3a5faf2478)"><g clip-path="url(#0abb53956c)"><g transform="matrix(1, 0, 0, 1, 15, 29)"><g clip-path="url(#8b5e8481a0)"><g clip-path="url(#0cb4a4f050)"><g clip-path="url(#947444bfe9)"><g clip-path="url(#268862c91f)"><path fill="#ffffff" d="M -3.84375 71.277344 L 5.9375 -5.941406 L 115.433594 7.925781 L 105.652344 85.148438 Z M -3.84375 71.277344 " fill-opacity="1" fill-rule="nonzero"/></g></g></g></g></g></g></g></g><g clip-path="url(#53031f6d43)"><g clip-path="url(#59386f9c00)"><g clip-path="url(#65a3925bdb)"><g clip-path="url(#8e71cd414f)"><path stroke-linecap="butt" transform="matrix(0.105717, -0.834666, 0.834666, 0.105717, 11.157376, 100.27694)" fill="none" stroke-linejoin="miter" d="M 46.256714 -0.000744277 C 20.708747 0.00121502 -0.00166594 29.365972 0.000446666 65.593719 C -0.00204686 101.82205 20.710346 131.186581 46.258896 131.189228 C 71.802257 131.187852 92.512087 101.818489 92.515164 65.594765 C 92.513051 29.367017 71.805265 0.00190255 46.256714 -0.000744277 Z M 46.256714 -0.000744277 " stroke="#000000" stroke-width="5.348649" stroke-opacity="1" stroke-miterlimit="4"/></g></g></g></g><g clip-path="url(#6b0e5a16b7)"><g clip-path="url(#cefaea15fc)"><g clip-path="url(#297ec724eb)"><g transform="matrix(1, 0, 0, 1, 17, 17)"><g clip-path="url(#de95b3621f)"><g clip-path="url(#f29af0d25e)"><g clip-path="url(#9e1ae62fea)"><g clip-path="url(#c8df40da68)"><path fill="#ffffff" d="M -4.160156 71.59375 L 5.621094 -5.625 L 115.117188 8.242188 L 105.335938 85.460938 Z M -4.160156 71.59375 " fill-opacity="1" fill-rule="nonzero"/></g></g></g></g></g></g></g></g><g clip-path="url(#e57c381267)"><g clip-path="url(#61c73ff892)"><g clip-path="url(#0a135f7555)"><g clip-path="url(#9b09656765)"><path stroke-linecap="butt" transform="matrix(0.105717, -0.834666, 0.834666, 0.105717, 12.840042, 88.592497)" fill="none" stroke-linejoin="miter" d="M 46.255852 0.000476668 C 20.707885 0.00243597 0.0020778 29.366609 -0.000415722 65.59494 C 0.00111348 101.818081 20.709483 131.187802 46.25745 131.185843 C 71.801395 131.189073 92.511224 101.81971 92.513718 65.591379 C 92.512189 29.368238 71.803819 -0.00148263 46.255852 0.000476668 Z M 46.255852 0.000476668 " stroke="#000000" stroke-width="5.348649" stroke-opacity="1" stroke-miterlimit="4"/></g></g></g></g><g clip-path="url(#713d3d866f)"><g clip-path="url(#7d28025a04)"><g clip-path="url(#52fc863e1d)"><g transform="matrix(1, 0, 0, 1, 31, 29)"><g clip-path="url(#58fec6bc3b)"><g clip-path="url(#bc0eb9dc84)"><g clip-path="url(#9f1c65785a)"><g clip-path="url(#73747d7a31)"><path fill="#000000" d="M -3.140625 52.515625 L 4.039062 -4.167969 L 84.414062 6.011719 L 77.234375 62.695312 Z M -3.140625 52.515625 " fill-opacity="1" fill-rule="nonzero"/></g></g></g></g></g></g></g></g><g clip-path="url(#425381a908)"><g clip-path="url(#83875ef8da)"><g clip-path="url(#8e14fa0684)"><g clip-path="url(#22ddcf43d1)"><path stroke-linecap="butt" transform="matrix(0.105717, -0.834666, 0.834666, 0.105717, 27.858615, 81.516335)" fill="none" stroke-linejoin="miter" d="M 33.954532 0.00123758 C 15.201422 -0.000982281 -0.0018766 21.557307 0.00120943 48.148774 C -0.000894061 74.736218 15.201939 96.294985 33.954466 96.292599 C 52.702969 96.295402 67.906268 74.737113 67.907788 48.145063 C 67.905286 21.558202 52.707059 -0.00114867 33.954532 0.00123758 Z M 33.954532 0.00123758 " stroke="#000000" stroke-width="5.348649" stroke-opacity="1" stroke-miterlimit="4"/></g></g></g></g><path stroke-linecap="butt" transform="matrix(0.176338, -0.822647, 0.822647, 0.176338, 22.358859, 83.489274)" fill="none" stroke-linejoin="miter" d="M 0.0000836473 1.501101 L 12.862811 1.49799 " stroke="#000000" stroke-width="3" stroke-opacity="1" stroke-miterlimit="4"/><path stroke-linecap="butt" transform="matrix(0.391024, -0.744945, 0.744945, 0.391024, 34.556408, 95.287652)" fill="none" stroke-linejoin="miter" d="M -0.00193261 1.498396 L 12.861694 1.5001 " stroke="#000000" stroke-width="3" stroke-opacity="1" stroke-miterlimit="4"/><path stroke-linecap="butt" transform="matrix(0.274096, -0.795434, 0.795434, 0.274096, 52.301993, 101.791325)" fill="none" stroke-linejoin="miter" d="M -0.000369172 1.501322 L 12.860417 1.499249 " stroke="#000000" stroke-width="3" stroke-opacity="1" stroke-miterlimit="4"/><path stroke-linecap="butt" transform="matrix(0.0381154, -0.84047, 0.84047, 0.0381154, 72.376504, 106.772439)" fill="none" stroke-linejoin="miter" d="M 0.00173919 1.499337 L 12.862024 1.501731 " stroke="#000000" stroke-width="3" stroke-opacity="1" stroke-miterlimit="4"/><path stroke-linecap="butt" transform="matrix(-0.0809226, -0.837433, 0.837433, -0.0809226, 90.460731, 104.318797)" fill="none" stroke-linejoin="miter" d="M -0.00235047 1.502005 L 12.8627 1.499742 " stroke="#000000" stroke-width="3" stroke-opacity="1" stroke-miterlimit="4"/><path stroke-linecap="butt" transform="matrix(-0.0809226, -0.837433, 0.837433, -0.0809226, 108.316502, 97.209147)" fill="none" stroke-linejoin="miter" d="M 0.00198103 1.502062 L 12.86241 1.499353 " stroke="#000000" stroke-width="3" stroke-opacity="1" stroke-miterlimit="4"/><g clip-path="url(#44e0cb9660)"><g clip-path="url(#e9ac4af841)"><g clip-path="url(#8c754a76c3)"><g transform="matrix(1, 0, 0, 1, 37, 32)"><g clip-path="url(#ede8109c36)"><g clip-path="url(#6a89cf86fe)"><g clip-path="url(#b8b33cc294)"><g clip-path="url(#29e701071d)"><path fill="#a9c5e7" d="M -2.390625 48.5625 L 4.207031 -3.523438 L 76.636719 5.652344 L 70.039062 57.734375 Z M -2.390625 48.5625 " fill-opacity="1" fill-rule="nonzero"/></g></g></g></g></g></g></g></g><g clip-path="url(#145f1f7fa4)"><g clip-path="url(#99994da182)"><g clip-path="url(#2b61250960)"><path fill="#ffffff" d="M 78.203125 51.386719 C 76.574219 52.152344 74.875 53.582031 73.152344 55.816406 L 68.15625 53.527344 C 69.058594 52.316406 70.207031 51.328125 71.601562 50.570312 C 71.785156 50.421875 71.96875 50.273438 71.960938 50.039062 C 72.050781 49.847656 72.039062 49.609375 71.890625 49.425781 L 69.730469 45.761719 C 69.585938 45.578125 69.4375 45.394531 69.199219 45.402344 C 69.007812 45.316406 68.726562 45.417969 68.585938 45.472656 C 66.175781 46.925781 64.257812 48.835938 62.867188 51.109375 L 61.808594 50.625 C 61.425781 50.449219 60.910156 50.5625 60.691406 51.042969 L 59.675781 53.253906 C 59.5 53.636719 59.613281 54.152344 60.09375 54.375 L 61.152344 54.855469 C 60.421875 56.964844 60.398438 59.046875 61.03125 60.964844 C 61.671875 63.117188 63.148438 64.722656 65.359375 65.734375 C 67.570312 66.746094 69.511719 66.820312 71.28125 66.003906 C 72.910156 65.238281 74.46875 63.859375 76.148438 61.722656 L 81.335938 64.097656 C 80.207031 65.554688 78.636719 66.695312 76.585938 67.617188 C 76.402344 67.765625 76.21875 67.914062 76.128906 68.109375 C 76.042969 68.300781 76.050781 68.535156 76.199219 68.71875 L 78.035156 72.582031 C 78.191406 73.003906 78.714844 73.128906 79.136719 72.972656 C 82.351562 71.535156 84.875 69.320312 86.722656 66.5625 L 88.546875 67.398438 C 88.929688 67.574219 89.449219 67.460938 89.667969 66.980469 L 90.679688 64.769531 C 90.855469 64.382812 90.742188 63.867188 90.261719 63.648438 L 88.4375 62.8125 C 89.257812 60.511719 89.28125 58.429688 88.691406 56.417969 C 88.046875 54.261719 86.617188 52.5625 84.40625 51.550781 C 82.054688 50.589844 80.015625 50.472656 78.203125 51.386719 Z M 81.960938 57.40625 C 82.535156 57.667969 82.929688 58.082031 83.09375 58.738281 C 83.207031 59.253906 83.175781 59.824219 83.105469 60.488281 L 78.78125 58.507812 C 79.5625 57.820312 80.070312 57.46875 80.347656 57.367188 C 80.859375 57.019531 81.382812 57.140625 81.960938 57.40625 Z M 67.472656 59.84375 C 66.894531 59.578125 66.601562 59.210938 66.433594 58.554688 C 66.277344 58.132812 66.261719 57.660156 66.386719 57.136719 L 70.421875 58.984375 C 69.785156 59.621094 69.320312 59.875 69.039062 59.980469 C 68.476562 60.1875 68.050781 60.105469 67.472656 59.84375 Z M 67.472656 59.84375 " fill-opacity="1" fill-rule="nonzero"/></g></g></g></g></g></svg>