<svg xmlns="http://www.w3.org/2000/svg" xmlns:xlink="http://www.w3.org/1999/xlink" width="1000" zoomAndPan="magnify" viewBox="0 0 750 749.999995" height="1000" preserveAspectRatio="xMidYMid meet" version="1.0"><defs><g/><clipPath id="e7b0bb3d64"><path d="M 277.230469 188.859375 L 463.980469 188.859375 L 463.980469 413.859375 L 277.230469 413.859375 Z M 277.230469 188.859375 " clip-rule="nonzero"/></clipPath><clipPath id="61c9019e5e"><path d="M 346.675781 188.859375 L 394.875 188.859375 C 433.230469 188.859375 464.320312 219.953125 464.320312 258.304688 L 464.320312 344.414062 C 464.320312 382.769531 433.230469 413.859375 394.875 413.859375 L 346.675781 413.859375 C 308.324219 413.859375 277.230469 382.769531 277.230469 344.414062 L 277.230469 258.304688 C 277.230469 219.953125 308.324219 188.859375 346.675781 188.859375 Z M 346.675781 188.859375 " clip-rule="nonzero"/></clipPath><clipPath id="1d5fa1e579"><path d="M 302.425781 217.019531 L 441.925781 217.019531 L 441.925781 420.910156 L 302.425781 420.910156 Z M 302.425781 217.019531 " clip-rule="nonzero"/></clipPath><clipPath id="aee3c242d6"><path d="M 371.863281 217.019531 L 372.695312 217.019531 C 411.046875 217.019531 442.136719 248.109375 442.136719 286.457031 L 442.136719 351.453125 C 442.136719 389.804688 411.046875 420.894531 372.695312 420.894531 L 371.863281 420.894531 C 333.515625 420.894531 302.425781 389.804688 302.425781 351.453125 L 302.425781 286.457031 C 302.425781 248.109375 333.515625 217.019531 371.863281 217.019531 Z M 371.863281 217.019531 " clip-rule="nonzero"/></clipPath><clipPath id="41d580cf7a"><path d="M 237.910156 302.527344 L 512.089844 302.527344 L 512.089844 576.707031 L 237.910156 576.707031 Z M 237.910156 302.527344 " clip-rule="nonzero"/></clipPath><clipPath id="e2cb29d61e"><path d="M 375 302.527344 C 299.289062 302.527344 237.910156 363.902344 237.910156 439.617188 C 237.910156 515.328125 299.289062 576.707031 375 576.707031 C 450.710938 576.707031 512.089844 515.328125 512.089844 439.617188 C 512.089844 363.902344 450.710938 302.527344 375 302.527344 Z M 375 302.527344 " clip-rule="nonzero"/></clipPath><clipPath id="160c219960"><path d="M 0.910156 0.527344 L 275.089844 0.527344 L 275.089844 274.707031 L 0.910156 274.707031 Z M 0.910156 0.527344 " clip-rule="nonzero"/></clipPath><clipPath id="155fa89ebb"><path d="M 138 0.527344 C 62.289062 0.527344 0.910156 61.902344 0.910156 137.617188 C 0.910156 213.328125 62.289062 274.707031 138 274.707031 C 213.710938 274.707031 275.089844 213.328125 275.089844 137.617188 C 275.089844 61.902344 213.710938 0.527344 138 0.527344 Z M 138 0.527344 " clip-rule="nonzero"/></clipPath><clipPath id="7a8cf82c1e"><rect x="0" width="276" y="0" height="275"/></clipPath><clipPath id="6d64bdc391"><path d="M 237.910156 302.527344 L 512.082031 302.527344 L 512.082031 576.699219 L 237.910156 576.699219 Z M 237.910156 302.527344 " clip-rule="nonzero"/></clipPath><clipPath id="4d7cc684b8"><path d="M 374.996094 302.527344 C 299.285156 302.527344 237.910156 363.902344 237.910156 439.613281 C 237.910156 515.324219 299.285156 576.699219 374.996094 576.699219 C 450.707031 576.699219 512.082031 515.324219 512.082031 439.613281 C 512.082031 363.902344 450.707031 302.527344 374.996094 302.527344 Z M 374.996094 302.527344 " clip-rule="nonzero"/></clipPath><clipPath id="a219c80bbb"><path d="M 251.660156 314.289062 L 505.820312 314.289062 L 505.820312 568.453125 L 251.660156 568.453125 Z M 251.660156 314.289062 " clip-rule="nonzero"/></clipPath><clipPath id="7b3ce312fa"><path d="M 378.738281 314.289062 C 308.554688 314.289062 251.660156 371.1875 251.660156 441.371094 C 251.660156 511.554688 308.554688 568.453125 378.738281 568.453125 C 448.925781 568.453125 505.820312 511.554688 505.820312 441.371094 C 505.820312 371.1875 448.925781 314.289062 378.738281 314.289062 Z M 378.738281 314.289062 " clip-rule="nonzero"/></clipPath><clipPath id="4d75e53697"><path d="M 0.660156 0.289062 L 254.820312 0.289062 L 254.820312 254.453125 L 0.660156 254.453125 Z M 0.660156 0.289062 " clip-rule="nonzero"/></clipPath><clipPath id="cd75e07541"><path d="M 127.738281 0.289062 C 57.554688 0.289062 0.660156 57.1875 0.660156 127.371094 C 0.660156 197.554688 57.554688 254.453125 127.738281 254.453125 C 197.925781 254.453125 254.820312 197.554688 254.820312 127.371094 C 254.820312 57.1875 197.925781 0.289062 127.738281 0.289062 Z M 127.738281 0.289062 " clip-rule="nonzero"/></clipPath><clipPath id="7a6d9b05b5"><rect x="0" width="255" y="0" height="255"/></clipPath><clipPath id="f7fd15d54d"><path d="M 271.457031 335.378906 L 477.15625 335.378906 L 477.15625 541.078125 L 271.457031 541.078125 Z M 271.457031 335.378906 " clip-rule="nonzero"/></clipPath><clipPath id="eb862ed2f5"><path d="M 374.304688 335.378906 C 317.503906 335.378906 271.457031 381.425781 271.457031 438.226562 C 271.457031 495.03125 317.503906 541.078125 374.304688 541.078125 C 431.109375 541.078125 477.15625 495.03125 477.15625 438.226562 C 477.15625 381.425781 431.109375 335.378906 374.304688 335.378906 Z M 374.304688 335.378906 " clip-rule="nonzero"/></clipPath><clipPath id="309bbc3dce"><path d="M 0.457031 0.378906 L 206.15625 0.378906 L 206.15625 206.078125 L 0.457031 206.078125 Z M 0.457031 0.378906 " clip-rule="nonzero"/></clipPath><clipPath id="8b613c59bb"><path d="M 103.304688 0.378906 C 46.503906 0.378906 0.457031 46.425781 0.457031 103.226562 C 0.457031 160.03125 46.503906 206.078125 103.304688 206.078125 C 160.109375 206.078125 206.15625 160.03125 206.15625 103.226562 C 206.15625 46.425781 160.109375 0.378906 103.304688 0.378906 Z M 103.304688 0.378906 " clip-rule="nonzero"/></clipPath><clipPath id="d9ce0539d1"><rect x="0" width="207" y="0" height="207"/></clipPath><clipPath id="74a5e1a44e"><path d="M 271.457031 335.378906 L 476.957031 335.378906 L 476.957031 540.878906 L 271.457031 540.878906 Z M 271.457031 335.378906 " clip-rule="nonzero"/></clipPath><clipPath id="51f1760a27"><path d="M 374.304688 335.378906 C 317.503906 335.378906 271.457031 381.425781 271.457031 438.226562 C 271.457031 495.03125 317.503906 541.078125 374.304688 541.078125 C 431.105469 541.078125 477.15625 495.03125 477.15625 438.226562 C 477.15625 381.425781 431.105469 335.378906 374.304688 335.378906 Z M 374.304688 335.378906 " clip-rule="nonzero"/></clipPath><clipPath id="3ddfb4bd12"><path d="M 286 348 L 465 348 L 465 527 L 286 527 Z M 286 348 " clip-rule="nonzero"/></clipPath><clipPath id="bbbbfc622b"><path d="M 293.132812 342.855469 L 470.476562 354.867188 L 458.464844 532.210938 L 281.121094 520.199219 Z M 293.132812 342.855469 " clip-rule="nonzero"/></clipPath><clipPath id="9431d610da"><path d="M 293.132812 342.855469 L 470.230469 354.847656 L 458.238281 531.945312 L 281.136719 519.953125 Z M 293.132812 342.855469 " clip-rule="nonzero"/></clipPath><clipPath id="e773736815"><path d="M 381.683594 348.851562 C 332.777344 345.539062 290.449219 382.5 287.136719 431.402344 C 283.824219 480.308594 320.785156 522.636719 369.6875 525.949219 C 418.59375 529.261719 460.921875 492.300781 464.234375 443.398438 C 467.546875 394.492188 430.585938 352.164062 381.683594 348.851562 Z M 381.683594 348.851562 " clip-rule="nonzero"/></clipPath><clipPath id="2e2cfb90da"><path d="M 365.523438 313.59375 L 384.4375 313.59375 L 384.4375 330.117188 L 365.523438 330.117188 Z M 365.523438 313.59375 " clip-rule="nonzero"/></clipPath><clipPath id="fb9baab802"><path d="M 374.996094 330.117188 L 365.550781 313.59375 L 384.4375 313.59375 Z M 374.996094 330.117188 " clip-rule="nonzero"/></clipPath><clipPath id="382096cffe"><path d="M 0.523438 0.59375 L 19.4375 0.59375 L 19.4375 17.117188 L 0.523438 17.117188 Z M 0.523438 0.59375 " clip-rule="nonzero"/></clipPath><clipPath id="2938dafdfb"><path d="M 9.996094 17.117188 L 0.550781 0.59375 L 19.4375 0.59375 Z M 9.996094 17.117188 " clip-rule="nonzero"/></clipPath><clipPath id="d5c67048a6"><rect x="0" width="20" y="0" height="18"/></clipPath><clipPath id="2c3314c48c"><path d="M 327 393 L 421 393 L 421 487 L 327 487 Z M 327 393 " clip-rule="nonzero"/></clipPath><clipPath id="5086a93d2d"><path d="M 326.757812 394.128906 L 419.734375 392.070312 L 421.792969 485.046875 L 328.816406 487.105469 Z M 326.757812 394.128906 " clip-rule="nonzero"/></clipPath><clipPath id="d46a9d303f"><path d="M 326.757812 394.128906 L 419.792969 392.066406 L 421.851562 485.105469 L 328.816406 487.164062 Z M 326.757812 394.128906 " clip-rule="nonzero"/></clipPath><clipPath id="44c1a4b4f3"><path d="M 373.273438 393.097656 C 347.582031 393.667969 327.21875 414.953125 327.785156 440.644531 C 328.355469 466.335938 349.644531 486.703125 375.332031 486.132812 C 401.023438 485.566406 421.390625 464.277344 420.824219 438.585938 C 420.253906 412.894531 398.964844 392.527344 373.273438 393.097656 Z M 373.273438 393.097656 " clip-rule="nonzero"/></clipPath><clipPath id="8e0dd78f2b"><path d="M 339.488281 403.859375 L 409.34375 403.859375 L 409.34375 473.71875 L 339.488281 473.71875 Z M 339.488281 403.859375 " clip-rule="nonzero"/></clipPath><clipPath id="447f791d00"><path d="M 374.417969 403.859375 C 355.125 403.859375 339.488281 419.5 339.488281 438.789062 C 339.488281 458.082031 355.125 473.71875 374.417969 473.71875 C 393.707031 473.71875 409.34375 458.082031 409.34375 438.789062 C 409.34375 419.5 393.707031 403.859375 374.417969 403.859375 Z M 374.417969 403.859375 " clip-rule="nonzero"/></clipPath><clipPath id="5ad8d8511d"><path d="M 0.488281 0.859375 L 70.34375 0.859375 L 70.34375 70.71875 L 0.488281 70.71875 Z M 0.488281 0.859375 " clip-rule="nonzero"/></clipPath><clipPath id="78ebf0c892"><path d="M 35.417969 0.859375 C 16.125 0.859375 0.488281 16.5 0.488281 35.789062 C 0.488281 55.082031 16.125 70.71875 35.417969 70.71875 C 54.707031 70.71875 70.34375 55.082031 70.34375 35.789062 C 70.34375 16.5 54.707031 0.859375 35.417969 0.859375 Z M 35.417969 0.859375 " clip-rule="nonzero"/></clipPath><clipPath id="f33ee25e5d"><rect x="0" width="71" y="0" height="71"/></clipPath><clipPath id="cfd0bebbd7"><rect x="0" width="10" y="0" height="21"/></clipPath><clipPath id="2ec794030b"><rect x="0" width="24" y="0" height="25"/></clipPath><clipPath id="7fdd804f90"><rect x="0" width="25" y="0" height="23"/></clipPath><clipPath id="b8ba8f8d93"><rect x="0" width="24" y="0" height="20"/></clipPath><clipPath id="3024751894"><rect x="0" width="26" y="0" height="26"/></clipPath><clipPath id="6b77cfea31"><path d="M 9 6 L 17.761719 6 L 17.761719 16 L 9 16 Z M 9 6 " clip-rule="nonzero"/></clipPath><clipPath id="4ac265c2db"><rect x="0" width="18" y="0" height="21"/></clipPath><clipPath id="46715a04ed"><rect x="0" width="26" y="0" height="26"/></clipPath><clipPath id="0999d59222"><rect x="0" width="24" y="0" height="21"/></clipPath><clipPath id="c55068d39c"><rect x="0" width="25" y="0" height="23"/></clipPath><clipPath id="fd9b7e4f9b"><rect x="0" width="26" y="0" height="26"/></clipPath></defs><g clip-path="url(#e7b0bb3d64)"><g clip-path="url(#61c9019e5e)"><path stroke-linecap="butt" transform="matrix(0.75, 0, 0, 0.75, 277.231249, 188.860117)" fill="none" stroke-linejoin="miter" d="M 92.592714 -0.000989595 L 156.858342 -0.000989595 C 207.99897 -0.000989595 249.452097 41.457346 249.452097 92.592765 L 249.452097 207.405271 C 249.452097 258.545898 207.99897 299.999025 156.858342 299.999025 L 92.592714 299.999025 C 41.457295 299.999025 -0.00104052 258.545898 -0.00104052 207.405271 L -0.00104052 92.592765 C -0.00104052 41.457346 41.457295 -0.000989595 92.592714 -0.000989595 Z M 92.592714 -0.000989595 " stroke="#000000" stroke-width="18" stroke-opacity="1" stroke-miterlimit="4"/></g></g><g clip-path="url(#1d5fa1e579)"><g clip-path="url(#aee3c242d6)"><path stroke-linecap="butt" transform="matrix(0.75, 0, 0, 0.75, 302.425565, 217.019189)" fill="none" stroke-linejoin="miter" d="M 92.583621 0.000456835 L 93.692996 0.000456835 C 144.828412 0.000456835 186.281536 41.453581 186.281536 92.583789 L 186.281536 179.245246 C 186.281536 230.380662 144.828412 271.833786 93.692996 271.833786 L 92.583621 271.833786 C 41.453413 271.833786 0.000288718 230.380662 0.000288718 179.245246 L 0.000288718 92.583789 C 0.000288718 41.453581 41.453413 0.000456835 92.583621 0.000456835 Z M 92.583621 0.000456835 " stroke="#000000" stroke-width="18" stroke-opacity="1" stroke-miterlimit="4"/></g></g><g clip-path="url(#41d580cf7a)"><g clip-path="url(#e2cb29d61e)"><g transform="matrix(1, 0, 0, 1, 237, 302)"><g clip-path="url(#7a8cf82c1e)"><g clip-path="url(#160c219960)"><g clip-path="url(#155fa89ebb)"><path fill="#ffffff" d="M 0.910156 0.527344 L 275.089844 0.527344 L 275.089844 274.707031 L 0.910156 274.707031 Z M 0.910156 0.527344 " fill-opacity="1" fill-rule="nonzero"/></g></g></g></g></g></g><g clip-path="url(#6d64bdc391)"><g clip-path="url(#4d7cc684b8)"><path stroke-linecap="butt" transform="matrix(0.75, 0, 0, 0.75, 237.909893, 302.526684)" fill="none" stroke-linejoin="miter" d="M 182.781621 0.000879058 C 81.833693 0.000879058 0.000350392 81.834222 0.000350392 182.78215 C 0.000350392 283.730078 81.833693 365.56342 182.781621 365.56342 C 283.729549 365.56342 365.562892 283.730078 365.562892 182.78215 C 365.562892 81.834222 283.729549 0.000879058 182.781621 0.000879058 Z M 182.781621 0.000879058 " stroke="#000000" stroke-width="16" stroke-opacity="1" stroke-miterlimit="4"/></g></g><g clip-path="url(#a219c80bbb)"><g clip-path="url(#7b3ce312fa)"><g transform="matrix(1, 0, 0, 1, 251, 314)"><g clip-path="url(#7a6d9b05b5)"><g clip-path="url(#4d75e53697)"><g clip-path="url(#cd75e07541)"><path fill="#abc7e9" d="M 0.660156 0.289062 L 254.820312 0.289062 L 254.820312 254.453125 L 0.660156 254.453125 Z M 0.660156 0.289062 " fill-opacity="1" fill-rule="nonzero"/></g></g></g></g></g></g><g clip-path="url(#f7fd15d54d)"><g clip-path="url(#eb862ed2f5)"><g transform="matrix(1, 0, 0, 1, 271, 335)"><g clip-path="url(#d9ce0539d1)"><g clip-path="url(#309bbc3dce)"><g clip-path="url(#8b613c59bb)"><path fill="#ffffff" d="M 0.457031 0.378906 L 206.15625 0.378906 L 206.15625 206.078125 L 0.457031 206.078125 Z M 0.457031 0.378906 " fill-opacity="1" fill-rule="nonzero"/></g></g></g></g></g></g><g clip-path="url(#74a5e1a44e)"><g clip-path="url(#51f1760a27)"><path stroke-linecap="butt" transform="matrix(0.75, 0, 0, 0.75, 271.455517, 335.377854)" fill="none" stroke-linejoin="miter" d="M 137.132233 0.00140293 C 61.397855 0.00140293 0.00201844 61.397239 0.00201844 137.131618 C 0.00201844 212.871205 61.397855 274.267041 137.132233 274.267041 C 212.866612 274.267041 274.267657 212.871205 274.267657 137.131618 C 274.267657 61.397239 212.866612 0.00140293 137.132233 0.00140293 Z M 137.132233 0.00140293 " stroke="#000000" stroke-width="16" stroke-opacity="1" stroke-miterlimit="4"/></g></g><g clip-path="url(#3ddfb4bd12)"><g clip-path="url(#bbbbfc622b)"><g clip-path="url(#9431d610da)"><g clip-path="url(#e773736815)"><path fill="#000000" d="M 377.121094 350.910156 C 376.390625 350.894531 375.664062 350.890625 374.933594 350.898438 L 374.898438 346.398438 C 375.664062 346.390625 376.433594 346.394531 377.199219 346.410156 Z M 372.757812 350.941406 C 372.019531 350.964844 371.285156 351 370.550781 351.042969 L 370.289062 346.550781 C 371.0625 346.503906 371.835938 346.46875 372.609375 346.445312 Z M 368.359375 351.195312 C 367.632812 351.257812 366.90625 351.328125 366.179688 351.40625 L 365.691406 346.933594 C 366.453125 346.851562 367.21875 346.777344 367.984375 346.710938 Z M 364.015625 351.671875 C 363.289062 351.769531 362.5625 351.878906 361.835938 351.996094 L 361.121094 347.550781 C 361.882812 347.429688 362.648438 347.316406 363.414062 347.210938 Z M 359.671875 352.371094 C 358.953125 352.507812 358.238281 352.648438 357.527344 352.804688 L 356.582031 348.402344 C 357.335938 348.242188 358.085938 348.089844 358.84375 347.949219 Z M 355.394531 353.289062 C 354.683594 353.460938 353.972656 353.640625 353.261719 353.832031 L 352.097656 349.484375 C 352.84375 349.285156 353.589844 349.09375 354.339844 348.914062 Z M 351.148438 354.425781 C 350.449219 354.632812 349.753906 354.847656 349.058594 355.074219 L 347.671875 350.792969 C 348.402344 350.554688 349.136719 350.328125 349.875 350.109375 Z M 346.984375 355.773438 C 346.292969 356.019531 345.605469 356.269531 344.921875 356.53125 L 343.316406 352.328125 C 344.039062 352.050781 344.761719 351.785156 345.488281 351.53125 Z M 342.878906 357.339844 C 342.207031 357.617188 341.535156 357.902344 340.867188 358.195312 L 339.050781 354.078125 C 339.753906 353.769531 340.460938 353.46875 341.171875 353.175781 Z M 338.871094 359.105469 C 338.207031 359.417969 337.550781 359.738281 336.894531 360.066406 L 334.875 356.046875 C 335.5625 355.699219 336.253906 355.363281 336.953125 355.035156 Z M 334.949219 361.078125 C 334.304688 361.421875 333.664062 361.773438 333.03125 362.136719 L 330.808594 358.222656 C 331.476562 357.84375 332.148438 357.472656 332.828125 357.109375 Z M 331.136719 363.242188 C 330.511719 363.621094 329.886719 364.003906 329.269531 364.398438 L 326.851562 360.601562 C 327.503906 360.191406 328.15625 359.785156 328.816406 359.386719 Z M 327.4375 365.601562 C 326.828125 366.007812 326.226562 366.421875 325.632812 366.847656 L 323.027344 363.179688 C 323.652344 362.734375 324.285156 362.296875 324.921875 361.867188 Z M 323.859375 368.140625 C 323.273438 368.578125 322.695312 369.023438 322.121094 369.476562 L 319.332031 365.945312 C 319.9375 365.46875 320.546875 365 321.164062 364.539062 Z M 320.414062 370.859375 C 319.851562 371.324219 319.296875 371.800781 318.746094 372.28125 L 315.785156 368.894531 C 316.363281 368.386719 316.949219 367.886719 317.539062 367.398438 Z M 317.113281 373.746094 C 316.574219 374.242188 316.042969 374.742188 315.515625 375.25 L 312.386719 372.015625 C 312.941406 371.480469 313.5 370.953125 314.066406 370.433594 Z M 313.960938 376.796875 C 313.445312 377.320312 312.941406 377.847656 312.441406 378.378906 L 309.152344 375.308594 C 309.679688 374.746094 310.210938 374.191406 310.75 373.640625 Z M 310.964844 380 C 310.480469 380.546875 310 381.101562 309.53125 381.660156 L 306.089844 378.757812 C 306.585938 378.167969 307.089844 377.589844 307.601562 377.011719 Z M 308.136719 383.355469 C 307.675781 383.925781 307.226562 384.5 306.785156 385.082031 L 303.203125 382.359375 C 303.667969 381.746094 304.140625 381.140625 304.625 380.539062 Z M 305.480469 386.84375 C 305.050781 387.4375 304.632812 388.035156 304.21875 388.640625 L 300.503906 386.097656 C 300.9375 385.464844 301.378906 384.835938 301.832031 384.210938 Z M 303.003906 390.46875 C 302.605469 391.082031 302.214844 391.699219 301.835938 392.324219 L 297.996094 389.976562 C 298.398438 389.320312 298.808594 388.667969 299.222656 388.023438 Z M 300.714844 394.207031 C 300.351562 394.839844 299.992188 395.476562 299.644531 396.121094 L 295.691406 393.96875 C 296.058594 393.292969 296.433594 392.621094 296.820312 391.957031 Z M 298.617188 398.066406 C 298.285156 398.714844 297.964844 399.367188 297.648438 400.027344 L 293.589844 398.082031 C 293.921875 397.386719 294.261719 396.699219 294.613281 396.015625 Z M 296.726562 402.011719 C 296.425781 402.679688 296.136719 403.351562 295.855469 404.027344 L 291.703125 402.292969 C 292 401.582031 292.304688 400.875 292.621094 400.171875 Z M 295.03125 406.070312 C 294.769531 406.746094 294.511719 407.429688 294.265625 408.113281 L 290.03125 406.59375 C 290.292969 405.871094 290.558594 405.15625 290.835938 404.441406 Z M 293.554688 410.183594 C 293.324219 410.878906 293.101562 411.578125 292.890625 412.277344 L 288.582031 410.976562 C 288.808594 410.238281 289.039062 409.503906 289.28125 408.773438 Z M 292.28125 414.394531 C 292.085938 415.097656 291.902344 415.800781 291.730469 416.503906 L 287.359375 415.421875 C 287.546875 414.679688 287.738281 413.941406 287.941406 413.203125 Z M 291.230469 418.636719 C 291.070312 419.351562 290.921875 420.070312 290.785156 420.789062 L 286.367188 419.929688 C 286.511719 419.175781 286.667969 418.417969 286.835938 417.667969 Z M 290.390625 422.960938 C 290.269531 423.675781 290.160156 424.390625 290.054688 425.113281 L 285.601562 424.476562 C 285.707031 423.722656 285.824219 422.964844 285.953125 422.214844 Z M 289.773438 427.28125 C 289.691406 428.011719 289.613281 428.742188 289.546875 429.472656 L 285.066406 429.0625 C 285.136719 428.292969 285.214844 427.527344 285.304688 426.761719 Z M 289.371094 431.679688 C 289.324219 432.414062 289.285156 433.152344 289.253906 433.886719 L 284.757812 433.703125 C 284.789062 432.929688 284.832031 432.15625 284.882812 431.378906 Z M 289.191406 436.085938 C 289.179688 436.816406 289.175781 437.546875 289.183594 438.273438 L 284.683594 438.3125 C 284.675781 437.546875 284.679688 436.78125 284.691406 436.015625 Z M 289.230469 440.449219 C 289.253906 441.1875 289.289062 441.921875 289.332031 442.65625 L 284.839844 442.925781 C 284.796875 442.152344 284.757812 441.378906 284.734375 440.605469 Z M 289.492188 444.847656 C 289.554688 445.574219 289.625 446.300781 289.703125 447.027344 L 285.230469 447.523438 C 285.148438 446.757812 285.074219 445.996094 285.007812 445.230469 Z M 289.972656 449.191406 C 290.070312 449.917969 290.179688 450.644531 290.296875 451.371094 L 285.855469 452.09375 C 285.734375 451.332031 285.617188 450.566406 285.515625 449.800781 Z M 290.679688 453.535156 C 290.8125 454.25 290.960938 454.964844 291.113281 455.679688 L 286.714844 456.628906 C 286.550781 455.875 286.398438 455.125 286.257812 454.371094 Z M 291.601562 457.808594 C 291.773438 458.523438 291.957031 459.234375 292.144531 459.941406 L 287.800781 461.113281 C 287.601562 460.367188 287.410156 459.621094 287.226562 458.871094 Z M 292.746094 462.054688 C 292.953125 462.753906 293.171875 463.449219 293.394531 464.144531 L 289.117188 465.535156 C 288.878906 464.804688 288.652344 464.070312 288.433594 463.335938 Z M 294.101562 466.214844 C 294.34375 466.90625 294.597656 467.59375 294.859375 468.277344 L 290.65625 469.886719 C 290.382812 469.167969 290.113281 468.445312 289.855469 467.71875 Z M 295.667969 470.316406 C 295.949219 470.992188 296.234375 471.664062 296.53125 472.332031 L 292.414062 474.152344 C 292.105469 473.449219 291.800781 472.742188 291.507812 472.03125 Z M 297.441406 474.324219 C 297.753906 474.988281 298.078125 475.644531 298.40625 476.296875 L 294.390625 478.324219 C 294.042969 477.636719 293.703125 476.945312 293.375 476.25 Z M 299.417969 478.242188 C 299.765625 478.886719 300.117188 479.527344 300.480469 480.160156 L 296.570312 482.390625 C 296.191406 481.722656 295.816406 481.050781 295.453125 480.371094 Z M 301.589844 482.054688 C 301.96875 482.679688 302.355469 483.300781 302.75 483.917969 L 298.957031 486.339844 C 298.542969 485.691406 298.136719 485.039062 297.738281 484.378906 Z M 303.953125 485.75 C 304.363281 486.355469 304.777344 486.957031 305.203125 487.550781 L 301.539062 490.164062 C 301.089844 489.539062 300.652344 488.90625 300.222656 488.269531 Z M 306.496094 489.324219 C 306.9375 489.910156 307.382812 490.488281 307.835938 491.0625 L 304.308594 493.855469 C 303.832031 493.25 303.363281 492.640625 302.898438 492.027344 Z M 309.222656 492.765625 C 309.6875 493.324219 310.164062 493.882812 310.644531 494.429688 L 307.261719 497.398438 C 306.753906 496.820312 306.257812 496.234375 305.761719 495.644531 Z M 312.113281 496.0625 C 312.609375 496.601562 313.109375 497.132812 313.621094 497.65625 L 310.390625 500.789062 C 309.855469 500.238281 309.328125 499.679688 308.804688 499.113281 Z M 315.167969 499.210938 C 315.691406 499.722656 316.21875 500.230469 316.753906 500.726562 L 313.6875 504.019531 C 313.125 503.496094 312.566406 502.964844 312.019531 502.425781 Z M 318.378906 502.203125 C 318.925781 502.6875 319.476562 503.164062 320.039062 503.636719 L 317.140625 507.078125 C 316.550781 506.582031 315.96875 506.078125 315.394531 505.570312 Z M 321.734375 505.027344 C 322.304688 505.484375 322.882812 505.933594 323.464844 506.375 L 320.746094 509.960938 C 320.132812 509.496094 319.527344 509.023438 318.925781 508.542969 Z M 325.226562 507.675781 C 325.820312 508.105469 326.421875 508.523438 327.023438 508.933594 L 324.488281 512.652344 C 323.855469 512.21875 323.222656 511.777344 322.597656 511.328125 Z M 328.855469 510.148438 C 329.46875 510.546875 330.085938 510.933594 330.710938 511.3125 L 328.367188 515.15625 C 327.710938 514.753906 327.0625 514.347656 326.414062 513.929688 Z M 332.597656 512.429688 C 333.230469 512.792969 333.867188 513.152344 334.511719 513.5 L 332.367188 517.457031 C 331.691406 517.089844 331.019531 516.714844 330.351562 516.332031 Z M 336.457031 514.523438 C 337.109375 514.855469 337.761719 515.175781 338.421875 515.492188 L 336.480469 519.550781 C 335.789062 519.21875 335.101562 518.882812 334.417969 518.53125 Z M 340.410156 516.410156 C 341.078125 516.707031 341.75 516.996094 342.425781 517.277344 L 340.695312 521.433594 C 339.984375 521.136719 339.277344 520.832031 338.574219 520.519531 Z M 344.46875 518.097656 C 345.144531 518.359375 345.828125 518.613281 346.511719 518.859375 L 345 523.097656 C 344.277344 522.839844 343.558594 522.570312 342.84375 522.296875 Z M 348.585938 519.570312 C 349.28125 519.800781 349.980469 520.019531 350.679688 520.230469 L 349.382812 524.539062 C 348.644531 524.316406 347.910156 524.085938 347.179688 523.84375 Z M 352.796875 520.835938 C 353.496094 521.027344 354.203125 521.210938 354.90625 521.386719 L 353.832031 525.753906 C 353.089844 525.570312 352.347656 525.378906 351.609375 525.179688 Z M 357.039062 521.882812 C 357.757812 522.039062 358.472656 522.1875 359.195312 522.324219 L 358.34375 526.746094 C 357.585938 526.597656 356.828125 526.441406 356.078125 526.277344 Z M 361.363281 522.714844 C 362.078125 522.835938 362.796875 522.945312 363.515625 523.046875 L 362.886719 527.503906 C 362.132812 527.394531 361.375 527.28125 360.625 527.152344 Z M 365.6875 523.324219 C 366.417969 523.410156 367.148438 523.484375 367.878906 523.550781 L 367.472656 528.03125 C 366.707031 527.960938 365.9375 527.882812 365.171875 527.796875 Z M 370.085938 523.722656 C 370.820312 523.769531 371.558594 523.808594 372.292969 523.835938 L 372.117188 528.332031 C 371.34375 528.300781 370.570312 528.261719 369.792969 528.210938 Z M 374.492188 523.898438 C 375.222656 523.90625 375.953125 523.910156 376.679688 523.902344 L 376.726562 528.402344 C 375.960938 528.410156 375.195312 528.40625 374.425781 528.394531 Z M 378.859375 523.851562 C 379.59375 523.824219 380.328125 523.789062 381.0625 523.746094 L 381.335938 528.238281 C 380.566406 528.285156 379.792969 528.320312 379.019531 528.347656 Z M 383.253906 523.582031 C 383.980469 523.519531 384.707031 523.449219 385.429688 523.367188 L 385.933594 527.839844 C 385.171875 527.925781 384.40625 528 383.640625 528.066406 Z M 387.597656 523.097656 C 388.324219 522.996094 389.050781 522.886719 389.777344 522.765625 L 390.503906 527.207031 C 389.742188 527.332031 388.976562 527.449219 388.210938 527.554688 Z M 391.9375 522.382812 C 392.65625 522.246094 393.371094 522.101562 394.082031 521.945312 L 395.035156 526.34375 C 394.285156 526.507812 393.535156 526.660156 392.78125 526.804688 Z M 396.214844 521.457031 C 396.925781 521.28125 397.636719 521.097656 398.34375 520.90625 L 399.523438 525.25 C 398.777344 525.453125 398.03125 525.644531 397.28125 525.828125 Z M 400.453125 520.304688 C 401.152344 520.097656 401.851562 519.878906 402.542969 519.652344 L 403.941406 523.929688 C 403.210938 524.167969 402.476562 524.398438 401.742188 524.617188 Z M 404.617188 518.945312 C 405.304688 518.699219 405.992188 518.445312 406.675781 518.183594 L 408.292969 522.382812 C 407.574219 522.660156 406.847656 522.925781 406.125 523.183594 Z M 408.714844 517.371094 C 409.390625 517.089844 410.058594 516.800781 410.726562 516.507812 L 412.554688 520.617188 C 411.851562 520.929688 411.144531 521.234375 410.4375 521.527344 Z M 412.71875 515.589844 C 413.382812 515.277344 414.039062 514.953125 414.691406 514.625 L 416.722656 518.636719 C 416.039062 518.988281 415.347656 519.324219 414.648438 519.65625 Z M 416.636719 513.609375 C 417.277344 513.261719 417.917969 512.90625 418.550781 512.546875 L 420.785156 516.453125 C 420.117188 516.832031 419.445312 517.207031 418.769531 517.570312 Z M 420.441406 511.433594 C 421.066406 511.054688 421.6875 510.664062 422.304688 510.269531 L 424.734375 514.058594 C 424.085938 514.476562 423.433594 514.882812 422.773438 515.28125 Z M 424.136719 509.066406 C 424.742188 508.65625 425.34375 508.238281 425.9375 507.8125 L 428.550781 511.472656 C 427.925781 511.921875 427.296875 512.359375 426.660156 512.789062 Z M 427.707031 506.515625 C 428.289062 506.074219 428.867188 505.625 429.441406 505.171875 L 432.238281 508.695312 C 431.636719 509.175781 431.027344 509.644531 430.414062 510.109375 Z M 431.140625 503.785156 C 431.703125 503.316406 432.257812 502.84375 432.808594 502.359375 L 435.777344 505.738281 C 435.203125 506.246094 434.617188 506.746094 434.027344 507.238281 Z M 434.4375 500.890625 C 434.972656 500.394531 435.503906 499.890625 436.027344 499.378906 L 439.167969 502.605469 C 438.613281 503.140625 438.058594 503.671875 437.492188 504.191406 Z M 437.582031 497.828125 C 438.09375 497.308594 438.597656 496.777344 439.09375 496.242188 L 442.390625 499.304688 C 441.867188 499.867188 441.335938 500.425781 440.800781 500.976562 Z M 440.566406 494.617188 C 441.050781 494.070312 441.527344 493.515625 441.996094 492.953125 L 445.445312 495.847656 C 444.949219 496.4375 444.449219 497.019531 443.941406 497.597656 Z M 443.386719 491.253906 C 443.84375 490.683594 444.292969 490.105469 444.734375 489.523438 L 448.320312 492.238281 C 447.859375 492.851562 447.386719 493.457031 446.90625 494.058594 Z M 446.03125 487.757812 C 446.457031 487.164062 446.878906 486.566406 447.289062 485.960938 L 451.011719 488.488281 C 450.578125 489.125 450.136719 489.757812 449.6875 490.382812 Z M 448.5 484.128906 C 448.894531 483.511719 449.28125 482.894531 449.660156 482.269531 L 453.507812 484.605469 C 453.109375 485.265625 452.699219 485.914062 452.285156 486.5625 Z M 450.773438 480.382812 C 451.140625 479.75 451.496094 479.109375 451.84375 478.464844 L 455.800781 480.605469 C 455.4375 481.28125 455.0625 481.953125 454.679688 482.621094 Z M 452.863281 476.519531 C 453.191406 475.867188 453.515625 475.214844 453.828125 474.554688 L 457.890625 476.488281 C 457.5625 477.179688 457.222656 477.871094 456.875 478.554688 Z M 454.742188 472.566406 C 455.039062 471.898438 455.328125 471.222656 455.609375 470.546875 L 459.765625 472.273438 C 459.472656 472.984375 459.167969 473.691406 458.855469 474.394531 Z M 456.425781 468.503906 C 456.6875 467.824219 456.941406 467.144531 457.183594 466.457031 L 461.425781 467.964844 C 461.167969 468.6875 460.902344 469.40625 460.625 470.121094 Z M 457.894531 464.386719 C 458.121094 463.6875 458.339844 462.988281 458.550781 462.289062 L 462.859375 463.578125 C 462.640625 464.316406 462.410156 465.050781 462.167969 465.785156 Z M 459.152344 460.171875 C 459.34375 459.46875 459.527344 458.765625 459.699219 458.058594 L 464.070312 459.128906 C 463.886719 459.871094 463.695312 460.613281 463.496094 461.351562 Z M 460.191406 455.925781 C 460.347656 455.210938 460.496094 454.492188 460.632812 453.769531 L 465.054688 454.617188 C 464.90625 455.375 464.753906 456.128906 464.589844 456.882812 Z M 461.019531 451.601562 C 461.136719 450.886719 461.246094 450.167969 461.347656 449.449219 L 465.804688 450.070312 C 465.699219 450.828125 465.582031 451.582031 465.460938 452.335938 Z M 461.625 447.277344 C 461.707031 446.546875 461.78125 445.816406 461.84375 445.085938 L 466.328125 445.484375 C 466.257812 446.25 466.179688 447.019531 466.09375 447.785156 Z M 462.011719 442.875 C 462.058594 442.140625 462.097656 441.40625 462.125 440.667969 L 466.621094 440.839844 C 466.59375 441.613281 466.554688 442.386719 466.503906 443.160156 Z M 462.183594 438.472656 C 462.191406 437.742188 462.191406 437.011719 462.183594 436.285156 L 466.683594 436.230469 C 466.691406 436.996094 466.691406 437.765625 466.683594 438.53125 Z M 462.132812 434.105469 C 462.105469 433.367188 462.066406 432.632812 462.023438 431.898438 L 466.511719 431.621094 C 466.5625 432.390625 466.601562 433.164062 466.628906 433.9375 Z M 461.855469 429.710938 C 461.792969 428.984375 461.71875 428.257812 461.636719 427.53125 L 466.109375 427.023438 C 466.195312 427.789062 466.273438 428.550781 466.339844 429.316406 Z M 461.363281 425.367188 C 461.261719 424.640625 461.152344 423.914062 461.03125 423.1875 L 465.472656 422.453125 C 465.597656 423.214844 465.714844 423.980469 465.820312 424.746094 Z M 460.644531 421.027344 C 460.507812 420.3125 460.359375 419.597656 460.207031 418.882812 L 464.601562 417.921875 C 464.765625 418.671875 464.921875 419.425781 465.066406 420.179688 Z M 459.710938 416.753906 C 459.535156 416.039062 459.351562 415.332031 459.160156 414.625 L 463.5 413.4375 C 463.703125 414.183594 463.898438 414.929688 464.082031 415.679688 Z M 458.554688 412.515625 C 458.34375 411.816406 458.125 411.121094 457.898438 410.425781 L 462.171875 409.023438 C 462.414062 409.75 462.644531 410.484375 462.863281 411.21875 Z M 457.1875 408.355469 C 456.941406 407.664062 456.6875 406.976562 456.421875 406.292969 L 460.621094 404.671875 C 460.898438 405.394531 461.167969 406.117188 461.425781 406.839844 Z M 455.605469 404.257812 C 455.328125 403.585938 455.039062 402.914062 454.742188 402.246094 L 458.851562 400.414062 C 459.164062 401.117188 459.46875 401.820312 459.761719 402.53125 Z M 453.824219 400.253906 C 453.507812 399.59375 453.183594 398.9375 452.851562 398.285156 L 456.863281 396.246094 C 457.214844 396.933594 457.554688 397.625 457.886719 398.320312 Z M 451.835938 396.34375 C 451.488281 395.699219 451.132812 395.0625 450.769531 394.429688 L 454.671875 392.191406 C 455.054688 392.855469 455.429688 393.527344 455.792969 394.203125 Z M 449.652344 392.539062 C 449.273438 391.914062 448.886719 391.292969 448.488281 390.675781 L 452.273438 388.242188 C 452.691406 388.890625 453.097656 389.542969 453.5 390.203125 Z M 447.28125 388.847656 C 446.871094 388.242188 446.453125 387.644531 446.027344 387.050781 L 449.683594 384.429688 C 450.132812 385.054688 450.570312 385.683594 451.003906 386.320312 Z M 444.726562 385.28125 C 444.285156 384.699219 443.835938 384.121094 443.378906 383.546875 L 446.902344 380.746094 C 447.378906 381.347656 447.851562 381.957031 448.316406 382.570312 Z M 441.992188 381.851562 C 441.523438 381.289062 441.046875 380.734375 440.5625 380.1875 L 443.9375 377.210938 C 444.445312 377.785156 444.949219 378.371094 445.441406 378.960938 Z M 439.089844 378.558594 C 438.59375 378.023438 438.089844 377.492188 437.578125 376.96875 L 440.800781 373.828125 C 441.335938 374.378906 441.867188 374.933594 442.390625 375.5 Z M 436.027344 375.417969 C 435.503906 374.910156 434.972656 374.40625 434.4375 373.90625 L 437.496094 370.605469 C 438.058594 371.128906 438.617188 371.660156 439.167969 372.195312 Z M 432.808594 372.4375 C 432.261719 371.953125 431.707031 371.476562 431.144531 371.007812 L 434.03125 367.558594 C 434.625 368.050781 435.207031 368.550781 435.785156 369.0625 Z M 429.445312 369.621094 C 428.871094 369.167969 428.292969 368.71875 427.710938 368.28125 L 430.417969 364.6875 C 431.035156 365.148438 431.640625 365.621094 432.242188 366.097656 Z M 425.945312 366.980469 C 425.347656 366.554688 424.75 366.136719 424.144531 365.726562 L 426.667969 362.003906 C 427.304688 362.433594 427.9375 362.875 428.5625 363.320312 Z M 422.308594 364.519531 C 421.695312 364.125 421.074219 363.738281 420.449219 363.359375 L 422.78125 359.511719 C 423.4375 359.910156 424.089844 360.316406 424.738281 360.730469 Z M 418.5625 362.25 C 417.925781 361.886719 417.285156 361.53125 416.644531 361.183594 L 418.777344 357.222656 C 419.453125 357.585938 420.125 357.960938 420.796875 358.34375 Z M 414.691406 360.167969 C 414.042969 359.839844 413.386719 359.519531 412.730469 359.207031 L 414.65625 355.140625 C 415.351562 355.46875 416.039062 355.804688 416.722656 356.152344 Z M 410.738281 358.292969 C 410.070312 357.996094 409.394531 357.707031 408.71875 357.429688 L 410.4375 353.269531 C 411.148438 353.5625 411.859375 353.867188 412.5625 354.179688 Z M 406.675781 356.617188 C 405.996094 356.355469 405.3125 356.101562 404.628906 355.859375 L 406.128906 351.617188 C 406.851562 351.875 407.570312 352.140625 408.285156 352.414062 Z M 402.554688 355.15625 C 401.855469 354.929688 401.15625 354.710938 400.453125 354.5 L 401.738281 350.1875 C 402.476562 350.40625 403.214844 350.636719 403.949219 350.875 Z M 398.339844 353.898438 C 397.636719 353.710938 396.933594 353.53125 396.226562 353.359375 L 397.289062 348.984375 C 398.03125 349.167969 398.773438 349.355469 399.511719 349.554688 Z M 394.089844 352.867188 C 393.375 352.710938 392.65625 352.566406 391.933594 352.429688 L 392.773438 348.007812 C 393.53125 348.152344 394.289062 348.304688 395.042969 348.46875 Z M 389.769531 352.046875 C 389.050781 351.929688 388.332031 351.820312 387.613281 351.722656 L 388.226562 347.261719 C 388.984375 347.367188 389.742188 347.480469 390.496094 347.605469 Z M 385.4375 351.449219 C 384.710938 351.367188 383.980469 351.292969 383.246094 351.230469 L 383.636719 346.746094 C 384.40625 346.8125 385.175781 346.890625 385.941406 346.976562 Z M 381.53125 351.097656 C 380.792969 351.046875 380.058594 351.007812 379.320312 350.972656 L 379.511719 346.480469 C 380.285156 346.511719 381.058594 346.554688 381.835938 346.605469 Z M 381.53125 351.097656 " fill-opacity="1" fill-rule="nonzero"/></g></g></g></g><g clip-path="url(#2e2cfb90da)"><g clip-path="url(#fb9baab802)"><g transform="matrix(1, 0, 0, 1, 365, 313)"><g clip-path="url(#d5c67048a6)"><g clip-path="url(#382096cffe)"><g clip-path="url(#2938dafdfb)"><path fill="#000000" d="M 19.4375 17.117188 L 0.523438 17.117188 L 0.523438 0.59375 L 19.4375 0.59375 Z M 19.4375 17.117188 " fill-opacity="1" fill-rule="nonzero"/></g></g></g></g></g></g><path stroke-linecap="butt" transform="matrix(0.0219443, -0.749679, 0.749679, 0.0219443, 373.665248, 360.306624)" fill="none" stroke-linejoin="miter" d="M 0.000557139 0.99883 L 15.580218 1.001318 " stroke="#000000" stroke-width="2" stroke-opacity="1" stroke-miterlimit="4"/><path stroke-linecap="butt" transform="matrix(0.0219443, -0.749679, 0.749679, 0.0219443, 374.595805, 526.481994)" fill="none" stroke-linejoin="miter" d="M -0.0000244685 0.997688 L 15.579636 1.000176 " stroke="#000000" stroke-width="2" stroke-opacity="1" stroke-miterlimit="4"/><path stroke-linecap="butt" transform="matrix(0.458017, -0.593902, 0.593902, 0.458017, 322.260162, 509.648659)" fill="none" stroke-linejoin="miter" d="M 0.00241843 1.000499 L 15.584035 1.000616 " stroke="#000000" stroke-width="2" stroke-opacity="1" stroke-miterlimit="4"/><path stroke-linecap="butt" transform="matrix(0.724855, -0.192575, 0.192575, 0.724855, 290.938524, 464.353533)" fill="none" stroke-linejoin="miter" d="M 0.00229785 1.000247 L 15.581838 1.000561 " stroke="#000000" stroke-width="2" stroke-opacity="1" stroke-miterlimit="4"/><path stroke-linecap="butt" transform="matrix(0.705383, 0.254824, -0.254824, 0.705383, 290.423952, 409.477464)" fill="none" stroke-linejoin="miter" d="M -0.00111635 1.001462 L 15.581162 0.99865 " stroke="#000000" stroke-width="2" stroke-opacity="1" stroke-miterlimit="4"/><path stroke-linecap="butt" transform="matrix(-0.413229, -0.625892, 0.625892, -0.413229, 427.738518, 510.897835)" fill="none" stroke-linejoin="miter" d="M 0.00108607 0.998913 L 15.583418 1.001435 " stroke="#000000" stroke-width="2" stroke-opacity="1" stroke-miterlimit="4"/><path stroke-linecap="butt" transform="matrix(-0.706506, -0.251692, 0.251692, -0.706506, 459.92854, 466.097085)" fill="none" stroke-linejoin="miter" d="M 0.000663894 0.999699 L 15.581453 1.00014 " stroke="#000000" stroke-width="2" stroke-opacity="1" stroke-miterlimit="4"/><path stroke-linecap="butt" transform="matrix(-0.711176, 0.238177, -0.238177, -0.711176, 460.821988, 410.860104)" fill="none" stroke-linejoin="miter" d="M 0.0020431 1.001373 L 15.579572 1.000345 " stroke="#000000" stroke-width="2" stroke-opacity="1" stroke-miterlimit="4"/><path stroke-linecap="butt" transform="matrix(-0.420028, 0.621351, -0.621351, -0.420028, 428.862966, 367.042502)" fill="none" stroke-linejoin="miter" d="M -0.00195263 1.000399 L 15.58343 1.001338 " stroke="#000000" stroke-width="2" stroke-opacity="1" stroke-miterlimit="4"/><path stroke-linecap="butt" transform="matrix(0.464322, 0.588986, -0.588986, 0.464322, 322.917145, 366.471945)" fill="none" stroke-linejoin="miter" d="M 0.0012627 1.001053 L 15.580803 1.000286 " stroke="#ffffff" stroke-width="2" stroke-opacity="1" stroke-miterlimit="4"/><g clip-path="url(#2c3314c48c)"><g clip-path="url(#5086a93d2d)"><g clip-path="url(#d46a9d303f)"><g clip-path="url(#44c1a4b4f3)"><path fill="#000000" d="M 360.1875 404.023438 C 358.082031 404.855469 356.0625 405.875 354.132812 407.074219 L 345.425781 393.058594 C 348.191406 391.339844 351.082031 389.882812 354.097656 388.683594 Z M 348.707031 411.152344 C 347.019531 412.671875 345.476562 414.328125 344.082031 416.121094 L 331.0625 405.984375 C 333.054688 403.425781 335.257812 401.058594 337.667969 398.886719 Z M 340.402344 421.820312 C 339.34375 423.832031 338.476562 425.914062 337.792969 428.070312 L 322.0625 423.097656 C 323.039062 420.003906 324.285156 417.015625 325.800781 414.136719 Z M 336.335938 434.683594 C 336.09375 436.59375 335.992188 438.519531 336.035156 440.460938 C 336.042969 440.820312 336.054688 441.175781 336.074219 441.53125 L 319.59375 442.34375 C 319.566406 441.839844 319.550781 441.335938 319.539062 440.828125 C 319.476562 438.058594 319.621094 435.3125 319.972656 432.585938 Z M 337 448.242188 C 337.507812 450.457031 338.210938 452.605469 339.105469 454.691406 L 323.941406 461.195312 C 322.65625 458.203125 321.652344 455.117188 320.921875 451.941406 Z M 342.324219 460.664062 C 343.574219 462.558594 344.984375 464.332031 346.550781 465.980469 L 334.589844 477.347656 C 332.351562 474.992188 330.339844 472.460938 328.550781 469.75 Z M 351.644531 470.46875 C 353.476562 471.816406 355.410156 472.992188 357.441406 473.992188 L 350.160156 488.796875 C 347.25 487.367188 344.484375 485.6875 341.867188 483.761719 Z M 363.757812 476.425781 C 365.933594 477.046875 368.148438 477.472656 370.40625 477.699219 L 368.75 494.117188 C 365.515625 493.792969 362.339844 493.183594 359.21875 492.289062 Z M 377.277344 477.78125 C 379.546875 477.605469 381.773438 477.234375 383.957031 476.667969 L 388.101562 492.640625 C 384.96875 493.453125 381.785156 493.984375 378.542969 494.230469 Z M 390.332031 474.390625 C 392.390625 473.441406 394.351562 472.3125 396.214844 471.011719 L 405.671875 484.53125 C 403.003906 486.398438 400.195312 488.011719 397.246094 489.371094 Z M 401.417969 466.640625 C 403.023438 465.027344 404.472656 463.289062 405.769531 461.421875 L 419.320312 470.835938 C 417.46875 473.5 415.398438 475.984375 413.105469 478.285156 Z M 409.128906 455.53125 C 410.074219 453.472656 410.828125 451.34375 411.390625 449.152344 L 427.371094 453.253906 C 426.566406 456.398438 425.484375 459.449219 424.128906 462.40625 Z M 412.480469 442.472656 C 412.570312 441.246094 412.601562 440.007812 412.574219 438.769531 C 412.550781 437.703125 412.484375 436.644531 412.375 435.59375 L 428.785156 433.878906 C 428.941406 435.382812 429.035156 436.890625 429.070312 438.402344 C 429.109375 440.167969 429.066406 441.929688 428.9375 443.683594 Z M 411.078125 428.949219 C 410.449219 426.773438 409.632812 424.671875 408.625 422.640625 L 423.410156 415.316406 C 424.855469 418.226562 426.027344 421.246094 426.929688 424.367188 Z M 405.085938 416.855469 C 403.734375 415.03125 402.230469 413.335938 400.578125 411.777344 L 411.902344 399.777344 C 414.265625 402.007812 416.414062 404.425781 418.34375 407.035156 Z M 395.242188 407.566406 C 393.339844 406.320312 391.347656 405.253906 389.261719 404.367188 L 395.71875 389.183594 C 398.707031 390.453125 401.558594 391.980469 404.28125 393.761719 Z M 382.820312 402.285156 C 380.621094 401.785156 378.382812 401.480469 376.113281 401.378906 L 376.875 384.894531 C 380.121094 385.042969 383.320312 385.476562 386.476562 386.195312 Z M 373.457031 401.347656 C 371.164062 401.394531 368.90625 401.644531 366.683594 402.09375 L 363.421875 385.917969 C 366.601562 385.277344 369.824219 384.921875 373.09375 384.851562 Z M 373.457031 401.347656 " fill-opacity="1" fill-rule="nonzero"/></g></g></g></g><g clip-path="url(#8e0dd78f2b)"><g clip-path="url(#447f791d00)"><g transform="matrix(1, 0, 0, 1, 339, 403)"><g clip-path="url(#f33ee25e5d)"><g clip-path="url(#5ad8d8511d)"><g clip-path="url(#78ebf0c892)"><path fill="#abc7e9" d="M 0.488281 0.859375 L 70.34375 0.859375 L 70.34375 70.71875 L 0.488281 70.71875 Z M 0.488281 0.859375 " fill-opacity="1" fill-rule="nonzero"/></g></g></g></g></g></g><g transform="matrix(1, 0, 0, 1, 370, 359)"><g clip-path="url(#cfd0bebbd7)"><g fill="#000000" fill-opacity="1"><g transform="translate(0.776518, 14.408965)"><g><path d="M 4.09375 -9.0625 C 4.875 -9.0625 5.539062 -8.863281 6.09375 -8.46875 C 6.644531 -8.082031 7.070312 -7.546875 7.375 -6.859375 C 7.675781 -6.171875 7.828125 -5.375 7.828125 -4.46875 C 7.828125 -3.5625 7.675781 -2.757812 7.375 -2.0625 C 7.082031 -1.363281 6.65625 -0.816406 6.09375 -0.421875 C 5.539062 -0.0351562 4.875 0.15625 4.09375 0.15625 C 3.3125 0.15625 2.640625 -0.0351562 2.078125 -0.421875 C 1.523438 -0.816406 1.097656 -1.363281 0.796875 -2.0625 C 0.503906 -2.757812 0.359375 -3.5625 0.359375 -4.46875 C 0.359375 -5.375 0.507812 -6.171875 0.8125 -6.859375 C 1.113281 -7.546875 1.539062 -8.082031 2.09375 -8.46875 C 2.65625 -8.863281 3.320312 -9.0625 4.09375 -9.0625 Z M 4.09375 -8.09375 C 3.507812 -8.09375 3.019531 -7.9375 2.625 -7.625 C 2.226562 -7.3125 1.925781 -6.878906 1.71875 -6.328125 C 1.519531 -5.785156 1.421875 -5.164062 1.421875 -4.46875 C 1.421875 -3.769531 1.519531 -3.144531 1.71875 -2.59375 C 1.914062 -2.039062 2.210938 -1.601562 2.609375 -1.28125 C 3.003906 -0.957031 3.5 -0.796875 4.09375 -0.796875 C 4.6875 -0.796875 5.179688 -0.957031 5.578125 -1.28125 C 5.972656 -1.601562 6.269531 -2.039062 6.46875 -2.59375 C 6.664062 -3.144531 6.765625 -3.769531 6.765625 -4.46875 C 6.765625 -5.164062 6.660156 -5.785156 6.453125 -6.328125 C 6.253906 -6.878906 5.957031 -7.3125 5.5625 -7.625 C 5.164062 -7.9375 4.675781 -8.09375 4.09375 -8.09375 Z M 4.09375 -8.09375 "/></g></g></g></g></g><g transform="matrix(1, 0, 0, 1, 404, 371)"><g clip-path="url(#2ec794030b)"><g fill="#000000" fill-opacity="1"><g transform="translate(3.807361, 11.273424)"><g><path d="M 0.265625 0.21875 L 0.890625 -0.546875 L 2.75 0.953125 L 7.03125 -4.375 C 6.6875 -4.488281 6.320312 -4.601562 5.9375 -4.71875 C 5.5625 -4.832031 5.195312 -4.957031 4.84375 -5.09375 L 5.125 -6 L 8.015625 -4.953125 L 8.515625 -4.5625 L 3.5625 1.59375 L 4.9375 2.71875 L 4.3125 3.484375 Z M 0.265625 0.21875 "/></g></g></g><g fill="#000000" fill-opacity="1"><g transform="translate(8.32038, 14.912084)"><g><path d="M 8.875 -4.5 C 9.476562 -4 9.875 -3.421875 10.0625 -2.765625 C 10.25 -2.117188 10.242188 -1.429688 10.046875 -0.703125 C 9.847656 0.015625 9.46875 0.722656 8.90625 1.421875 C 8.332031 2.128906 7.710938 2.660156 7.046875 3.015625 C 6.378906 3.378906 5.703125 3.539062 5.015625 3.5 C 4.335938 3.457031 3.695312 3.1875 3.09375 2.6875 C 2.488281 2.195312 2.085938 1.625 1.890625 0.96875 C 1.703125 0.3125 1.710938 -0.378906 1.921875 -1.109375 C 2.128906 -1.835938 2.519531 -2.554688 3.09375 -3.265625 C 3.65625 -3.960938 4.269531 -4.484375 4.9375 -4.828125 C 5.601562 -5.171875 6.273438 -5.320312 6.953125 -5.28125 C 7.628906 -5.238281 8.269531 -4.976562 8.875 -4.5 Z M 8.265625 -3.734375 C 7.804688 -4.097656 7.320312 -4.28125 6.8125 -4.28125 C 6.3125 -4.289062 5.8125 -4.144531 5.3125 -3.84375 C 4.820312 -3.550781 4.359375 -3.132812 3.921875 -2.59375 C 3.472656 -2.039062 3.148438 -1.488281 2.953125 -0.9375 C 2.765625 -0.382812 2.722656 0.140625 2.828125 0.640625 C 2.941406 1.140625 3.226562 1.570312 3.6875 1.9375 C 4.144531 2.3125 4.628906 2.5 5.140625 2.5 C 5.648438 2.5 6.15625 2.347656 6.65625 2.046875 C 7.15625 1.742188 7.628906 1.316406 8.078125 0.765625 C 8.515625 0.222656 8.820312 -0.320312 9 -0.875 C 9.1875 -1.4375 9.222656 -1.957031 9.109375 -2.4375 C 9.003906 -2.925781 8.722656 -3.359375 8.265625 -3.734375 Z M 8.265625 -3.734375 "/></g></g></g></g></g><g transform="matrix(1, 0, 0, 1, 429, 406)"><g clip-path="url(#7fdd804f90)"><g fill="#000000" fill-opacity="1"><g transform="translate(5.363026, 5.493009)"><g><path d="M 9.03125 1.125 C 8.78125 0.425781 8.351562 -0.0507812 7.75 -0.3125 C 7.144531 -0.570312 6.304688 -0.554688 5.234375 -0.265625 L 4.953125 -1.265625 C 6.203125 -1.585938 7.25 -1.582031 8.09375 -1.25 C 8.945312 -0.914062 9.5625 -0.234375 9.9375 0.796875 C 10.269531 1.710938 10.316406 2.503906 10.078125 3.171875 C 9.835938 3.835938 9.328125 4.3125 8.546875 4.59375 C 8.023438 4.789062 7.546875 4.828125 7.109375 4.703125 C 6.671875 4.585938 6.242188 4.34375 5.828125 3.96875 C 5.410156 3.59375 4.988281 3.113281 4.5625 2.53125 C 4.125 1.976562 3.742188 1.5625 3.421875 1.28125 C 3.097656 1 2.773438 0.832031 2.453125 0.78125 C 2.128906 0.738281 1.753906 0.785156 1.328125 0.921875 C 1.460938 1.265625 1.609375 1.648438 1.765625 2.078125 C 1.929688 2.503906 2.082031 2.898438 2.21875 3.265625 L 3.453125 6.625 L 2.546875 6.953125 L 0.109375 0.296875 C 0.203125 0.253906 0.300781 0.210938 0.40625 0.171875 C 0.519531 0.128906 0.632812 0.0859375 0.75 0.046875 C 1.394531 -0.191406 1.957031 -0.28125 2.4375 -0.21875 C 2.925781 -0.164062 3.382812 0.03125 3.8125 0.375 C 4.25 0.726562 4.695312 1.207031 5.15625 1.8125 C 5.769531 2.644531 6.300781 3.191406 6.75 3.453125 C 7.195312 3.722656 7.675781 3.765625 8.1875 3.578125 C 8.613281 3.421875 8.921875 3.132812 9.109375 2.71875 C 9.296875 2.300781 9.269531 1.769531 9.03125 1.125 Z M 9.03125 1.125 "/></g></g></g><g fill="#000000" fill-opacity="1"><g transform="translate(7.981518, 12.66565)"><g><path d="M 9.921875 0.734375 C 10.191406 1.472656 10.234375 2.164062 10.046875 2.8125 C 9.867188 3.46875 9.507812 4.054688 8.96875 4.578125 C 8.425781 5.097656 7.734375 5.515625 6.890625 5.828125 C 6.035156 6.140625 5.226562 6.273438 4.46875 6.234375 C 3.707031 6.191406 3.050781 5.972656 2.5 5.578125 C 1.945312 5.191406 1.535156 4.628906 1.265625 3.890625 C 0.992188 3.160156 0.941406 2.46875 1.109375 1.8125 C 1.285156 1.15625 1.648438 0.566406 2.203125 0.046875 C 2.765625 -0.460938 3.472656 -0.875 4.328125 -1.1875 C 5.171875 -1.5 5.96875 -1.628906 6.71875 -1.578125 C 7.46875 -1.535156 8.117188 -1.316406 8.671875 -0.921875 C 9.234375 -0.535156 9.648438 0.015625 9.921875 0.734375 Z M 9.015625 1.0625 C 8.816406 0.519531 8.5 0.117188 8.0625 -0.140625 C 7.632812 -0.410156 7.128906 -0.546875 6.546875 -0.546875 C 5.960938 -0.554688 5.34375 -0.441406 4.6875 -0.203125 C 4.03125 0.0351562 3.472656 0.34375 3.015625 0.71875 C 2.566406 1.09375 2.257812 1.523438 2.09375 2.015625 C 1.925781 2.503906 1.945312 3.023438 2.15625 3.578125 C 2.351562 4.140625 2.671875 4.546875 3.109375 4.796875 C 3.546875 5.054688 4.054688 5.1875 4.640625 5.1875 C 5.234375 5.1875 5.859375 5.066406 6.515625 4.828125 C 7.171875 4.585938 7.71875 4.273438 8.15625 3.890625 C 8.601562 3.515625 8.90625 3.085938 9.0625 2.609375 C 9.226562 2.128906 9.210938 1.613281 9.015625 1.0625 Z M 9.015625 1.0625 "/></g></g></g></g></g><g transform="matrix(1, 0, 0, 1, 429, 450)"><g clip-path="url(#b8ba8f8d93)"><g fill="#000000" fill-opacity="1"><g transform="translate(9.257727, 1.397305)"><g><path d="M -0.859375 3.90625 C -0.648438 2.738281 -0.207031 1.898438 0.46875 1.390625 C 1.144531 0.890625 2.003906 0.671875 3.046875 0.734375 L 2.96875 1.8125 C 2.15625 1.757812 1.503906 1.90625 1.015625 2.25 C 0.535156 2.59375 0.210938 3.210938 0.046875 4.109375 C -0.078125 4.785156 -0.03125 5.34375 0.1875 5.78125 C 0.414062 6.21875 0.789062 6.484375 1.3125 6.578125 C 1.84375 6.671875 2.257812 6.59375 2.5625 6.34375 C 2.863281 6.101562 3.09375 5.5625 3.25 4.71875 L 3.515625 3.25 L 4.359375 3.40625 L 4.109375 4.8125 C 4.015625 5.320312 4.054688 5.78125 4.234375 6.1875 C 4.410156 6.59375 4.773438 6.84375 5.328125 6.9375 C 5.890625 7.039062 6.320312 6.945312 6.625 6.65625 C 6.925781 6.375 7.128906 5.929688 7.234375 5.328125 C 7.378906 4.585938 7.300781 4.007812 7 3.59375 C 6.695312 3.1875 6.226562 2.867188 5.59375 2.640625 L 5.890625 1.65625 C 6.734375 1.9375 7.375 2.390625 7.8125 3.015625 C 8.25 3.640625 8.375 4.460938 8.1875 5.484375 C 8.007812 6.421875 7.6875 7.109375 7.21875 7.546875 C 6.75 7.984375 6.125 8.128906 5.34375 7.984375 C 4.78125 7.878906 4.351562 7.648438 4.0625 7.296875 C 3.769531 6.953125 3.597656 6.492188 3.546875 5.921875 L 3.515625 5.921875 C 3.273438 6.703125 2.957031 7.207031 2.5625 7.4375 C 2.164062 7.675781 1.660156 7.738281 1.046875 7.625 C 0.296875 7.488281 -0.257812 7.109375 -0.625 6.484375 C -0.988281 5.867188 -1.066406 5.007812 -0.859375 3.90625 Z M -0.859375 3.90625 "/></g></g></g><g fill="#000000" fill-opacity="1"><g transform="translate(7.88927, 8.818896)"><g><path d="M 8.15625 5.671875 C 8.019531 6.429688 7.710938 7.050781 7.234375 7.53125 C 6.753906 8.007812 6.144531 8.332031 5.40625 8.5 C 4.675781 8.675781 3.863281 8.679688 2.96875 8.515625 C 2.082031 8.347656 1.320312 8.054688 0.6875 7.640625 C 0.0507812 7.222656 -0.40625 6.703125 -0.6875 6.078125 C -0.96875 5.453125 -1.039062 4.757812 -0.90625 4 C -0.757812 3.226562 -0.445312 2.601562 0.03125 2.125 C 0.519531 1.65625 1.132812 1.335938 1.875 1.171875 C 2.625 1.003906 3.441406 1.003906 4.328125 1.171875 C 5.222656 1.335938 5.976562 1.628906 6.59375 2.046875 C 7.21875 2.472656 7.671875 2.992188 7.953125 3.609375 C 8.234375 4.222656 8.300781 4.910156 8.15625 5.671875 Z M 7.203125 5.5 C 7.316406 4.925781 7.253906 4.414062 7.015625 3.96875 C 6.773438 3.519531 6.40625 3.144531 5.90625 2.84375 C 5.40625 2.539062 4.8125 2.328125 4.125 2.203125 C 3.4375 2.078125 2.804688 2.0625 2.234375 2.15625 C 1.660156 2.25 1.175781 2.460938 0.78125 2.796875 C 0.394531 3.128906 0.144531 3.585938 0.03125 4.171875 C -0.0703125 4.753906 -0.00390625 5.265625 0.234375 5.703125 C 0.484375 6.148438 0.859375 6.523438 1.359375 6.828125 C 1.867188 7.128906 2.46875 7.34375 3.15625 7.46875 C 3.84375 7.59375 4.472656 7.601562 5.046875 7.5 C 5.628906 7.394531 6.109375 7.175781 6.484375 6.84375 C 6.859375 6.519531 7.097656 6.070312 7.203125 5.5 Z M 7.203125 5.5 "/></g></g></g></g></g><g transform="matrix(1, 0, 0, 1, 404, 482)"><g clip-path="url(#3024751894)"><g fill="#000000" fill-opacity="1"><g transform="translate(16.508653, 4.817884)"><g><path d="M -4.71875 3.609375 L -3.390625 5.34375 L 0.90625 2.0625 L 1.46875 2.796875 L 0.828125 10.5625 L -0.125 11.296875 L -3.640625 6.703125 L -4.765625 7.5625 L -5.328125 6.828125 L -4.203125 5.96875 L -5.53125 4.234375 Z M -2.828125 6.078125 L -0.046875 9.734375 L -0.015625 9.71875 L 0.46875 3.515625 C 0.175781 3.742188 -0.109375 3.96875 -0.390625 4.1875 C -0.671875 4.414062 -0.9375 4.628906 -1.1875 4.828125 Z M -2.828125 6.078125 "/></g></g></g><g fill="#000000" fill-opacity="1"><g transform="translate(10.136687, 9.68993)"><g><path d="M 2.25 9.6875 C 1.625 10.164062 0.972656 10.414062 0.296875 10.4375 C -0.367188 10.457031 -1.03125 10.285156 -1.6875 9.921875 C -2.34375 9.554688 -2.945312 9.015625 -3.5 8.296875 C -4.050781 7.578125 -4.421875 6.851562 -4.609375 6.125 C -4.804688 5.394531 -4.800781 4.703125 -4.59375 4.046875 C -4.382812 3.398438 -3.96875 2.835938 -3.34375 2.359375 C -2.726562 1.890625 -2.082031 1.640625 -1.40625 1.609375 C -0.726562 1.585938 -0.0546875 1.757812 0.609375 2.125 C 1.273438 2.5 1.882812 3.046875 2.4375 3.765625 C 2.988281 4.484375 3.351562 5.207031 3.53125 5.9375 C 3.707031 6.664062 3.691406 7.351562 3.484375 8 C 3.273438 8.65625 2.863281 9.21875 2.25 9.6875 Z M 1.671875 8.90625 C 2.128906 8.550781 2.421875 8.128906 2.546875 7.640625 C 2.671875 7.160156 2.644531 6.640625 2.46875 6.078125 C 2.300781 5.515625 2.007812 4.957031 1.59375 4.40625 C 1.164062 3.851562 0.707031 3.414062 0.21875 3.09375 C -0.269531 2.78125 -0.769531 2.617188 -1.28125 2.609375 C -1.800781 2.597656 -2.296875 2.769531 -2.765625 3.125 C -3.234375 3.488281 -3.523438 3.914062 -3.640625 4.40625 C -3.765625 4.90625 -3.738281 5.429688 -3.5625 5.984375 C -3.382812 6.546875 -3.082031 7.101562 -2.65625 7.65625 C -2.238281 8.207031 -1.78125 8.640625 -1.28125 8.953125 C -0.789062 9.265625 -0.296875 9.421875 0.203125 9.421875 C 0.710938 9.429688 1.203125 9.257812 1.671875 8.90625 Z M 1.671875 8.90625 "/></g></g></g></g></g><g transform="matrix(1, 0, 0, 1, 366, 497)"><g clip-path="url(#4ac265c2db)"><g clip-path="url(#6b77cfea31)"><g fill="#000000" fill-opacity="1"><g transform="translate(17.361312, 6.666845)"><g><path d="M -4.3125 0.6875 C -5.007812 0.664062 -5.5625 0.804688 -5.96875 1.109375 C -6.375 1.410156 -6.585938 1.90625 -6.609375 2.59375 C -6.617188 3.144531 -6.441406 3.578125 -6.078125 3.890625 C -5.722656 4.203125 -5.164062 4.367188 -4.40625 4.390625 C -3.957031 4.398438 -3.523438 4.347656 -3.109375 4.234375 C -2.703125 4.128906 -2.394531 4 -2.1875 3.84375 L -1.203125 4.203125 L -1.328125 8.859375 L -7.34375 8.703125 L -7.328125 7.734375 L -2.34375 7.859375 L -2.25 4.734375 C -2.53125 4.898438 -2.867188 5.03125 -3.265625 5.125 C -3.671875 5.226562 -4.125 5.269531 -4.625 5.25 C -5.632812 5.226562 -6.398438 4.976562 -6.921875 4.5 C -7.453125 4.019531 -7.707031 3.367188 -7.6875 2.546875 C -7.664062 1.878906 -7.5 1.332031 -7.1875 0.90625 C -6.882812 0.488281 -6.476562 0.1875 -5.96875 0 C -5.457031 -0.1875 -4.894531 -0.269531 -4.28125 -0.25 C -3.28125 -0.226562 -2.453125 0.0078125 -1.796875 0.46875 C -1.148438 0.9375 -0.695312 1.679688 -0.4375 2.703125 L -1.484375 2.953125 C -1.679688 2.253906 -2.003906 1.707031 -2.453125 1.3125 C -2.910156 0.914062 -3.53125 0.707031 -4.3125 0.6875 Z M -4.3125 0.6875 "/></g></g></g></g><g fill="#000000" fill-opacity="1"><g transform="translate(9.520985, 6.453473)"><g><path d="M -4.34375 8.953125 C -5.125 8.929688 -5.785156 8.71875 -6.328125 8.3125 C -6.867188 7.90625 -7.28125 7.351562 -7.5625 6.65625 C -7.84375 5.957031 -7.972656 5.15625 -7.953125 4.25 C -7.921875 3.34375 -7.75 2.546875 -7.4375 1.859375 C -7.125 1.171875 -6.679688 0.640625 -6.109375 0.265625 C -5.546875 -0.109375 -4.875 -0.285156 -4.09375 -0.265625 C -3.3125 -0.242188 -2.644531 -0.03125 -2.09375 0.375 C -1.550781 0.78125 -1.140625 1.332031 -0.859375 2.03125 C -0.578125 2.738281 -0.453125 3.546875 -0.484375 4.453125 C -0.503906 5.359375 -0.675781 6.148438 -1 6.828125 C -1.320312 7.515625 -1.765625 8.046875 -2.328125 8.421875 C -2.898438 8.796875 -3.570312 8.972656 -4.34375 8.953125 Z M -4.3125 7.984375 C -3.726562 7.992188 -3.234375 7.847656 -2.828125 7.546875 C -2.421875 7.242188 -2.109375 6.820312 -1.890625 6.28125 C -1.679688 5.75 -1.566406 5.132812 -1.546875 4.4375 C -1.523438 3.738281 -1.601562 3.109375 -1.78125 2.546875 C -1.96875 1.984375 -2.253906 1.535156 -2.640625 1.203125 C -3.023438 0.867188 -3.515625 0.695312 -4.109375 0.6875 C -4.703125 0.664062 -5.203125 0.8125 -5.609375 1.125 C -6.015625 1.4375 -6.320312 1.863281 -6.53125 2.40625 C -6.75 2.957031 -6.867188 3.582031 -6.890625 4.28125 C -6.910156 4.976562 -6.820312 5.601562 -6.625 6.15625 C -6.4375 6.707031 -6.148438 7.144531 -5.765625 7.46875 C -5.378906 7.789062 -4.894531 7.960938 -4.3125 7.984375 Z M -4.3125 7.984375 "/></g></g></g></g></g><g transform="matrix(1, 0, 0, 1, 321, 482)"><g clip-path="url(#46715a04ed)"><g fill="#000000" fill-opacity="1"><g transform="translate(21.932999, 14.418736)"><g><path d="M -2.921875 1.75 L -2.96875 1.71875 C -3.550781 2.269531 -4.164062 2.53125 -4.8125 2.5 C -5.457031 2.46875 -6.117188 2.191406 -6.796875 1.671875 C -7.234375 1.335938 -7.582031 0.960938 -7.84375 0.546875 C -8.101562 0.128906 -8.222656 -0.3125 -8.203125 -0.78125 C -8.179688 -1.25 -7.976562 -1.734375 -7.59375 -2.234375 C -7.050781 -2.953125 -6.382812 -3.351562 -5.59375 -3.4375 C -4.800781 -3.519531 -3.941406 -3.207031 -3.015625 -2.5 C -2.441406 -2.0625 -2.023438 -1.554688 -1.765625 -0.984375 C -1.503906 -0.421875 -1.445312 0.210938 -1.59375 0.921875 C -1.75 1.640625 -2.160156 2.441406 -2.828125 3.328125 C -3.378906 4.035156 -3.96875 4.59375 -4.59375 5 C -5.21875 5.414062 -5.875 5.617188 -6.5625 5.609375 C -7.25 5.609375 -7.945312 5.335938 -8.65625 4.796875 C -9.25 4.335938 -9.648438 3.875 -9.859375 3.40625 C -10.078125 2.9375 -10.140625 2.441406 -10.046875 1.921875 C -9.960938 1.398438 -9.753906 0.820312 -9.421875 0.1875 L -8.515625 0.703125 C -8.867188 1.421875 -9.03125 2.039062 -9 2.5625 C -8.96875 3.082031 -8.65625 3.570312 -8.0625 4.03125 C -7.3125 4.601562 -6.570312 4.765625 -5.84375 4.515625 C -5.113281 4.273438 -4.351562 3.632812 -3.5625 2.59375 Z M -6.140625 1.203125 C -5.648438 1.566406 -5.1875 1.796875 -4.75 1.890625 C -4.320312 1.992188 -3.9375 1.988281 -3.59375 1.875 C -3.257812 1.757812 -2.992188 1.578125 -2.796875 1.328125 C -2.460938 0.898438 -2.351562 0.40625 -2.46875 -0.15625 C -2.582031 -0.726562 -2.972656 -1.265625 -3.640625 -1.765625 C -4.335938 -2.296875 -4.9375 -2.515625 -5.4375 -2.421875 C -5.945312 -2.335938 -6.390625 -2.054688 -6.765625 -1.578125 C -7.148438 -1.078125 -7.28125 -0.59375 -7.15625 -0.125 C -7.039062 0.332031 -6.703125 0.773438 -6.140625 1.203125 Z M -6.140625 1.203125 "/></g></g></g><g fill="#000000" fill-opacity="1"><g transform="translate(15.829891, 9.756482)"><g><path d="M -8.75 4.71875 C -9.375 4.238281 -9.785156 3.675781 -9.984375 3.03125 C -10.191406 2.382812 -10.203125 1.695312 -10.015625 0.96875 C -9.835938 0.238281 -9.476562 -0.484375 -8.9375 -1.203125 C -8.382812 -1.921875 -7.773438 -2.46875 -7.109375 -2.84375 C -6.453125 -3.21875 -5.785156 -3.390625 -5.109375 -3.359375 C -4.429688 -3.335938 -3.78125 -3.085938 -3.15625 -2.609375 C -2.539062 -2.140625 -2.128906 -1.578125 -1.921875 -0.921875 C -1.710938 -0.273438 -1.703125 0.410156 -1.890625 1.140625 C -2.078125 1.878906 -2.445312 2.609375 -3 3.328125 C -3.539062 4.046875 -4.140625 4.585938 -4.796875 4.953125 C -5.460938 5.316406 -6.132812 5.484375 -6.8125 5.453125 C -7.488281 5.429688 -8.132812 5.1875 -8.75 4.71875 Z M -8.15625 3.953125 C -7.695312 4.304688 -7.210938 4.476562 -6.703125 4.46875 C -6.203125 4.457031 -5.703125 4.296875 -5.203125 3.984375 C -4.710938 3.679688 -4.257812 3.25 -3.84375 2.6875 C -3.414062 2.132812 -3.113281 1.578125 -2.9375 1.015625 C -2.769531 0.460938 -2.742188 -0.0546875 -2.859375 -0.546875 C -2.972656 -1.046875 -3.265625 -1.476562 -3.734375 -1.84375 C -4.203125 -2.207031 -4.691406 -2.378906 -5.203125 -2.359375 C -5.722656 -2.347656 -6.226562 -2.179688 -6.71875 -1.859375 C -7.207031 -1.546875 -7.664062 -1.113281 -8.09375 -0.5625 C -8.507812 0 -8.800781 0.554688 -8.96875 1.109375 C -9.144531 1.671875 -9.171875 2.195312 -9.046875 2.6875 C -8.921875 3.175781 -8.625 3.597656 -8.15625 3.953125 Z M -8.15625 3.953125 "/></g></g></g></g></g><g transform="matrix(1, 0, 0, 1, 297, 450)"><g clip-path="url(#0999d59222)"><g fill="#000000" fill-opacity="1"><g transform="translate(18.11764, 16.351778)"><g><path d="M -8.71875 -1.265625 L -7.59375 2.265625 L -8.515625 2.5625 L -10.703125 -4.34375 L -9.78125 -4.640625 C -8.351562 -3.890625 -6.90625 -3.441406 -5.4375 -3.296875 C -3.976562 -3.160156 -2.546875 -3.257812 -1.140625 -3.59375 L -0.796875 -2.5 C -1.734375 -2.289062 -2.703125 -2.179688 -3.703125 -2.171875 C -4.703125 -2.171875 -5.695312 -2.28125 -6.6875 -2.5 C -7.675781 -2.726562 -8.617188 -3.070312 -9.515625 -3.53125 C -9.378906 -3.175781 -9.238281 -2.804688 -9.09375 -2.421875 C -8.957031 -2.035156 -8.832031 -1.648438 -8.71875 -1.265625 Z M -8.71875 -1.265625 "/></g></g></g><g fill="#000000" fill-opacity="1"><g transform="translate(15.982243, 9.64072)"><g><path d="M -9.875 -1.15625 C -10.113281 -1.894531 -10.128906 -2.585938 -9.921875 -3.234375 C -9.710938 -3.878906 -9.328125 -4.445312 -8.765625 -4.9375 C -8.203125 -5.4375 -7.492188 -5.820312 -6.640625 -6.09375 C -5.773438 -6.375 -4.960938 -6.476562 -4.203125 -6.40625 C -3.453125 -6.332031 -2.800781 -6.085938 -2.25 -5.671875 C -1.707031 -5.265625 -1.316406 -4.691406 -1.078125 -3.953125 C -0.847656 -3.203125 -0.832031 -2.5 -1.03125 -1.84375 C -1.238281 -1.195312 -1.628906 -0.628906 -2.203125 -0.140625 C -2.785156 0.347656 -3.507812 0.734375 -4.375 1.015625 C -5.226562 1.285156 -6.03125 1.378906 -6.78125 1.296875 C -7.53125 1.222656 -8.175781 0.976562 -8.71875 0.5625 C -9.257812 0.15625 -9.644531 -0.414062 -9.875 -1.15625 Z M -8.953125 -1.453125 C -8.773438 -0.890625 -8.472656 -0.46875 -8.046875 -0.1875 C -7.628906 0.09375 -7.128906 0.242188 -6.546875 0.265625 C -5.972656 0.296875 -5.359375 0.207031 -4.703125 0 C -4.035156 -0.21875 -3.46875 -0.503906 -3 -0.859375 C -2.53125 -1.210938 -2.203125 -1.625 -2.015625 -2.09375 C -1.828125 -2.570312 -1.820312 -3.097656 -2 -3.671875 C -2.1875 -4.234375 -2.492188 -4.648438 -2.921875 -4.921875 C -3.347656 -5.203125 -3.851562 -5.351562 -4.4375 -5.375 C -5.019531 -5.40625 -5.644531 -5.3125 -6.3125 -5.09375 C -6.96875 -4.882812 -7.523438 -4.597656 -7.984375 -4.234375 C -8.441406 -3.867188 -8.757812 -3.453125 -8.9375 -2.984375 C -9.125 -2.515625 -9.128906 -2.003906 -8.953125 -1.453125 Z M -8.953125 -1.453125 "/></g></g></g></g></g><g transform="matrix(1, 0, 0, 1, 297, 406)"><g clip-path="url(#c55068d39c)"><g fill="#000000" fill-opacity="1"><g transform="translate(13.220883, 20.297476)"><g><path d="M 1.53125 -3.515625 C 1.0625 -2.304688 0.519531 -1.523438 -0.09375 -1.171875 C -0.71875 -0.816406 -1.367188 -0.773438 -2.046875 -1.046875 C -2.535156 -1.234375 -2.90625 -1.5625 -3.15625 -2.03125 C -3.414062 -2.5 -3.46875 -3.128906 -3.3125 -3.921875 C -3.664062 -3.429688 -4.066406 -3.109375 -4.515625 -2.953125 C -4.960938 -2.804688 -5.457031 -2.835938 -6 -3.046875 C -6.644531 -3.304688 -7.082031 -3.75 -7.3125 -4.375 C -7.539062 -5 -7.457031 -5.820312 -7.0625 -6.84375 C -6.664062 -7.863281 -6.171875 -8.535156 -5.578125 -8.859375 C -4.984375 -9.179688 -4.363281 -9.21875 -3.71875 -8.96875 C -3.175781 -8.757812 -2.789062 -8.441406 -2.5625 -8.015625 C -2.332031 -7.585938 -2.253906 -7.078125 -2.328125 -6.484375 C -1.898438 -7.179688 -1.429688 -7.613281 -0.921875 -7.78125 C -0.421875 -7.957031 0.0703125 -7.953125 0.5625 -7.765625 C 1.238281 -7.492188 1.6875 -7.019531 1.90625 -6.34375 C 2.125 -5.664062 2 -4.722656 1.53125 -3.515625 Z M -2.40625 -5.046875 C -2.65625 -4.410156 -2.769531 -3.894531 -2.75 -3.5 C -2.726562 -3.101562 -2.625 -2.789062 -2.4375 -2.5625 C -2.25 -2.34375 -2.035156 -2.1875 -1.796875 -2.09375 C -1.304688 -1.90625 -0.851562 -1.953125 -0.4375 -2.234375 C -0.03125 -2.515625 0.328125 -3.054688 0.640625 -3.859375 C 0.941406 -4.660156 1.035156 -5.304688 0.921875 -5.796875 C 0.816406 -6.285156 0.519531 -6.625 0.03125 -6.8125 C -0.207031 -6.90625 -0.46875 -6.9375 -0.75 -6.90625 C -1.039062 -6.875 -1.328125 -6.710938 -1.609375 -6.421875 C -1.898438 -6.140625 -2.164062 -5.679688 -2.40625 -5.046875 Z M -6.15625 -6.5 C -6.4375 -5.789062 -6.5 -5.226562 -6.34375 -4.8125 C -6.195312 -4.40625 -5.898438 -4.113281 -5.453125 -3.9375 C -4.921875 -3.726562 -4.457031 -3.765625 -4.0625 -4.046875 C -3.664062 -4.328125 -3.359375 -4.753906 -3.140625 -5.328125 C -2.921875 -5.898438 -2.859375 -6.421875 -2.953125 -6.890625 C -3.054688 -7.359375 -3.375 -7.695312 -3.90625 -7.90625 C -4.351562 -8.082031 -4.769531 -8.070312 -5.15625 -7.875 C -5.539062 -7.675781 -5.875 -7.21875 -6.15625 -6.5 Z M -6.15625 -6.5 "/></g></g></g><g fill="#000000" fill-opacity="1"><g transform="translate(15.995013, 13.135861)"><g><path d="M -6.96875 -7.078125 C -6.6875 -7.804688 -6.265625 -8.359375 -5.703125 -8.734375 C -5.140625 -9.109375 -4.484375 -9.3125 -3.734375 -9.34375 C -2.984375 -9.382812 -2.1875 -9.238281 -1.34375 -8.90625 C -0.5 -8.582031 0.191406 -8.15625 0.734375 -7.625 C 1.273438 -7.09375 1.628906 -6.492188 1.796875 -5.828125 C 1.960938 -5.171875 1.90625 -4.476562 1.625 -3.75 C 1.34375 -3.019531 0.914062 -2.46875 0.34375 -2.09375 C -0.21875 -1.71875 -0.878906 -1.515625 -1.640625 -1.484375 C -2.398438 -1.460938 -3.203125 -1.613281 -4.046875 -1.9375 C -4.890625 -2.269531 -5.578125 -2.703125 -6.109375 -3.234375 C -6.640625 -3.765625 -6.984375 -4.359375 -7.140625 -5.015625 C -7.304688 -5.671875 -7.25 -6.359375 -6.96875 -7.078125 Z M -6.0625 -6.734375 C -6.28125 -6.191406 -6.3125 -5.675781 -6.15625 -5.1875 C -6.007812 -4.707031 -5.71875 -4.273438 -5.28125 -3.890625 C -4.84375 -3.515625 -4.300781 -3.195312 -3.65625 -2.9375 C -3 -2.6875 -2.375 -2.550781 -1.78125 -2.53125 C -1.195312 -2.519531 -0.6875 -2.640625 -0.25 -2.890625 C 0.1875 -3.140625 0.515625 -3.539062 0.734375 -4.09375 C 0.941406 -4.644531 0.96875 -5.164062 0.8125 -5.65625 C 0.664062 -6.144531 0.367188 -6.582031 -0.078125 -6.96875 C -0.523438 -7.351562 -1.078125 -7.671875 -1.734375 -7.921875 C -2.378906 -8.179688 -2.992188 -8.3125 -3.578125 -8.3125 C -4.160156 -8.3125 -4.664062 -8.1875 -5.09375 -7.9375 C -5.53125 -7.6875 -5.851562 -7.285156 -6.0625 -6.734375 Z M -6.0625 -6.734375 "/></g></g></g></g></g><g transform="matrix(1, 0, 0, 1, 321, 369)"><g clip-path="url(#fd9b7e4f9b)"><g fill="#000000" fill-opacity="1"><g transform="translate(9.052932, 20.883514)"><g><path d="M 2.09375 -8.4375 L 2.046875 -8.390625 C 2.359375 -7.703125 2.40625 -7.0625 2.1875 -6.46875 C 1.96875 -5.882812 1.503906 -5.34375 0.796875 -4.84375 C 0.335938 -4.519531 -0.125 -4.296875 -0.59375 -4.171875 C -1.0625 -4.054688 -1.515625 -4.078125 -1.953125 -4.234375 C -2.390625 -4.390625 -2.789062 -4.722656 -3.15625 -5.234375 C -3.664062 -5.960938 -3.835938 -6.710938 -3.671875 -7.484375 C -3.515625 -8.265625 -2.972656 -8.984375 -2.046875 -9.640625 C -1.441406 -10.066406 -0.828125 -10.320312 -0.203125 -10.40625 C 0.410156 -10.488281 1.035156 -10.347656 1.671875 -9.984375 C 2.304688 -9.617188 2.945312 -8.984375 3.59375 -8.078125 C 4.101562 -7.359375 4.460938 -6.632812 4.671875 -5.90625 C 4.890625 -5.1875 4.894531 -4.503906 4.6875 -3.859375 C 4.488281 -3.222656 4.03125 -2.648438 3.3125 -2.140625 C 2.414062 -1.515625 1.582031 -1.238281 0.8125 -1.3125 C 0.0390625 -1.394531 -0.722656 -1.796875 -1.484375 -2.515625 L -0.765625 -3.28125 C -0.179688 -2.71875 0.390625 -2.40625 0.953125 -2.34375 C 1.523438 -2.289062 2.128906 -2.484375 2.765625 -2.921875 C 3.503906 -3.441406 3.863281 -4.085938 3.84375 -4.859375 C 3.820312 -5.628906 3.4375 -6.546875 2.6875 -7.609375 Z M 0.515625 -5.609375 C 1.023438 -5.960938 1.394531 -6.332031 1.625 -6.71875 C 1.851562 -7.101562 1.960938 -7.46875 1.953125 -7.8125 C 1.953125 -8.15625 1.863281 -8.457031 1.6875 -8.71875 C 1.382812 -9.15625 0.941406 -9.398438 0.359375 -9.453125 C -0.222656 -9.515625 -0.847656 -9.304688 -1.515625 -8.828125 C -2.234375 -8.328125 -2.628906 -7.820312 -2.703125 -7.3125 C -2.773438 -6.8125 -2.632812 -6.3125 -2.28125 -5.8125 C -1.925781 -5.3125 -1.503906 -5.054688 -1.015625 -5.046875 C -0.535156 -5.035156 -0.0234375 -5.222656 0.515625 -5.609375 Z M 0.515625 -5.609375 "/></g></g></g><g fill="#000000" fill-opacity="1"><g transform="translate(15.438258, 16.380229)"><g><path d="M -1.875 -9.765625 C -1.238281 -10.210938 -0.582031 -10.4375 0.09375 -10.4375 C 0.769531 -10.4375 1.425781 -10.242188 2.0625 -9.859375 C 2.707031 -9.472656 3.289062 -8.910156 3.8125 -8.171875 C 4.332031 -7.429688 4.675781 -6.6875 4.84375 -5.9375 C 5.007812 -5.195312 4.972656 -4.503906 4.734375 -3.859375 C 4.503906 -3.222656 4.070312 -2.679688 3.4375 -2.234375 C 2.800781 -1.785156 2.140625 -1.554688 1.453125 -1.546875 C 0.773438 -1.546875 0.113281 -1.742188 -0.53125 -2.140625 C -1.175781 -2.546875 -1.757812 -3.117188 -2.28125 -3.859375 C -2.800781 -4.597656 -3.132812 -5.335938 -3.28125 -6.078125 C -3.4375 -6.816406 -3.394531 -7.503906 -3.15625 -8.140625 C -2.925781 -8.773438 -2.5 -9.316406 -1.875 -9.765625 Z M -1.328125 -8.96875 C -1.804688 -8.632812 -2.113281 -8.222656 -2.25 -7.734375 C -2.394531 -7.253906 -2.390625 -6.726562 -2.234375 -6.15625 C -2.085938 -5.59375 -1.816406 -5.03125 -1.421875 -4.46875 C -1.015625 -3.894531 -0.570312 -3.4375 -0.09375 -3.09375 C 0.382812 -2.757812 0.878906 -2.578125 1.390625 -2.546875 C 1.910156 -2.515625 2.410156 -2.671875 2.890625 -3.015625 C 3.378906 -3.359375 3.691406 -3.773438 3.828125 -4.265625 C 3.960938 -4.753906 3.953125 -5.28125 3.796875 -5.84375 C 3.640625 -6.414062 3.359375 -6.988281 2.953125 -7.5625 C 2.554688 -8.125 2.113281 -8.566406 1.625 -8.890625 C 1.144531 -9.222656 0.648438 -9.398438 0.140625 -9.421875 C -0.359375 -9.453125 -0.847656 -9.300781 -1.328125 -8.96875 Z M -1.328125 -8.96875 "/></g></g></g></g></g></svg>