<svg xmlns="http://www.w3.org/2000/svg" xmlns:xlink="http://www.w3.org/1999/xlink" width="1000" zoomAndPan="magnify" viewBox="0 0 750 749.999995" height="1000" preserveAspectRatio="xMidYMid meet" version="1.0"><defs><clipPath id="cd184494f7"><path d="M 57 64 L 194 64 L 194 209 L 57 209 Z M 57 64 " clip-rule="nonzero"/></clipPath><clipPath id="925cc15af2"><path d="M 29.183594 111.167969 L 116.96875 37.804688 L 221.28125 162.621094 L 133.5 235.984375 Z M 29.183594 111.167969 " clip-rule="nonzero"/></clipPath><clipPath id="5ba2d6fe4f"><path d="M 73.078125 74.488281 C 48.835938 94.746094 52.472656 139.035156 81.203125 173.410156 C 109.929688 207.78125 152.871094 219.226562 177.109375 198.964844 C 201.351562 178.707031 197.710938 134.417969 168.984375 100.046875 C 140.257812 65.671875 97.316406 54.226562 73.078125 74.488281 Z M 73.078125 74.488281 " clip-rule="nonzero"/></clipPath><clipPath id="d6d5891073"><path d="M 0 0 L 137 0 L 137 145 L 0 145 Z M 0 0 " clip-rule="nonzero"/></clipPath><clipPath id="497f8b10b8"><path d="M -27.816406 47.167969 L 59.96875 -26.195312 L 164.28125 98.621094 L 76.5 171.984375 Z M -27.816406 47.167969 " clip-rule="nonzero"/></clipPath><clipPath id="d8809f5682"><path d="M 16.078125 10.488281 C -8.164062 30.746094 -4.527344 75.035156 24.203125 109.410156 C 52.929688 143.78125 95.871094 155.226562 120.109375 134.964844 C 144.351562 114.707031 140.710938 70.417969 111.984375 36.046875 C 83.257812 1.671875 40.316406 -9.773438 16.078125 10.488281 Z M 16.078125 10.488281 " clip-rule="nonzero"/></clipPath><clipPath id="895d8058c5"><rect x="0" width="137" y="0" height="145"/></clipPath><clipPath id="33eb3929d5"><path d="M 57 64 L 194 64 L 194 209 L 57 209 Z M 57 64 " clip-rule="nonzero"/></clipPath><clipPath id="ac05f988d2"><path d="M 29.183594 111.167969 L 116.859375 37.898438 L 220.84375 162.320312 L 133.167969 235.589844 Z M 29.183594 111.167969 " clip-rule="nonzero"/></clipPath><clipPath id="cd3bd3509f"><path d="M 29.1875 111.171875 L 117.054688 37.734375 L 221.820312 163.09375 L 133.953125 236.527344 Z M 29.1875 111.171875 " clip-rule="nonzero"/></clipPath><clipPath id="ac8c11360c"><path d="M 73.078125 74.492188 C 48.835938 94.75 52.476562 139.035156 81.203125 173.410156 C 109.929688 207.78125 152.867188 219.222656 177.105469 198.964844 C 201.34375 178.707031 197.707031 134.421875 168.980469 100.046875 C 140.253906 65.675781 97.316406 54.234375 73.078125 74.492188 Z M 73.078125 74.492188 " clip-rule="nonzero"/></clipPath><clipPath id="ee75d969a4"><path d="M 70 53 L 207 53 L 207 199 L 70 199 Z M 70 53 " clip-rule="nonzero"/></clipPath><clipPath id="da08646275"><path d="M 42.6875 100.269531 L 130.46875 26.90625 L 234.78125 151.722656 L 147 225.085938 Z M 42.6875 100.269531 " clip-rule="nonzero"/></clipPath><clipPath id="46bc76a0fb"><path d="M 86.578125 63.589844 C 62.335938 83.847656 65.976562 128.136719 94.703125 162.511719 C 123.429688 196.886719 166.371094 208.328125 190.609375 188.070312 C 214.851562 167.808594 211.214844 123.519531 182.484375 89.148438 C 153.757812 54.773438 110.816406 43.332031 86.578125 63.589844 Z M 86.578125 63.589844 " clip-rule="nonzero"/></clipPath><clipPath id="5c656f3f0c"><path d="M 0 0 L 137 0 L 137 146 L 0 146 Z M 0 0 " clip-rule="nonzero"/></clipPath><clipPath id="03219d35be"><path d="M -27.3125 47.269531 L 60.46875 -26.09375 L 164.78125 98.722656 L 77 172.085938 Z M -27.3125 47.269531 " clip-rule="nonzero"/></clipPath><clipPath id="23f25e8ceb"><path d="M 16.578125 10.589844 C -7.664062 30.847656 -4.023438 75.136719 24.703125 109.511719 C 53.429688 143.886719 96.371094 155.328125 120.609375 135.070312 C 144.851562 114.808594 141.214844 70.519531 112.484375 36.148438 C 83.757812 1.773438 40.816406 -9.667969 16.578125 10.589844 Z M 16.578125 10.589844 " clip-rule="nonzero"/></clipPath><clipPath id="bf9d950afb"><rect x="0" width="137" y="0" height="146"/></clipPath><clipPath id="d25934eca8"><path d="M 70 53 L 207 53 L 207 199 L 70 199 Z M 70 53 " clip-rule="nonzero"/></clipPath><clipPath id="d2feb4d789"><path d="M 42.6875 100.269531 L 130.359375 27 L 234.34375 151.421875 L 146.671875 224.691406 Z M 42.6875 100.269531 " clip-rule="nonzero"/></clipPath><clipPath id="8c3167a3bc"><path d="M 42.6875 100.273438 L 130.554688 26.835938 L 235.324219 152.195312 L 147.457031 225.628906 Z M 42.6875 100.273438 " clip-rule="nonzero"/></clipPath><clipPath id="6d079826e5"><path d="M 86.578125 63.59375 C 62.339844 83.851562 65.976562 128.136719 94.703125 162.511719 C 123.429688 196.882812 166.367188 208.324219 190.605469 188.066406 C 214.847656 167.808594 211.207031 123.523438 182.480469 89.148438 C 153.753906 54.777344 110.816406 43.335938 86.578125 63.59375 Z M 86.578125 63.59375 " clip-rule="nonzero"/></clipPath><clipPath id="7c408973f0"><path d="M 86 73 L 187 73 L 187 180 L 86 180 Z M 86 73 " clip-rule="nonzero"/></clipPath><clipPath id="66df3473d0"><path d="M 65.9375 107.679688 L 130.378906 53.824219 L 206.949219 145.449219 L 142.511719 199.300781 Z M 65.9375 107.679688 " clip-rule="nonzero"/></clipPath><clipPath id="ccb4b4cd91"><path d="M 98.15625 80.75 C 80.363281 95.621094 83.035156 128.132812 104.121094 153.367188 C 125.210938 178.597656 156.730469 187 174.527344 172.128906 C 192.320312 157.257812 189.648438 124.746094 168.5625 99.511719 C 147.472656 74.277344 115.953125 65.878906 98.15625 80.75 Z M 98.15625 80.75 " clip-rule="nonzero"/></clipPath><clipPath id="dd42d4d6c5"><path d="M 0 0 L 101 0 L 101 107 L 0 107 Z M 0 0 " clip-rule="nonzero"/></clipPath><clipPath id="cc9e1026d5"><path d="M -20.0625 34.679688 L 44.378906 -19.175781 L 120.949219 72.449219 L 56.511719 126.300781 Z M -20.0625 34.679688 " clip-rule="nonzero"/></clipPath><clipPath id="40620a0e65"><path d="M 12.15625 7.75 C -5.636719 22.621094 -2.964844 55.132812 18.121094 80.367188 C 39.210938 105.597656 70.730469 114 88.527344 99.128906 C 106.320312 84.257812 103.648438 51.746094 82.5625 26.511719 C 61.472656 1.277344 29.953125 -7.121094 12.15625 7.75 Z M 12.15625 7.75 " clip-rule="nonzero"/></clipPath><clipPath id="de143d4eb9"><rect x="0" width="101" y="0" height="107"/></clipPath><clipPath id="7048577bd8"><path d="M 86 73 L 187 73 L 187 180 L 86 180 Z M 86 73 " clip-rule="nonzero"/></clipPath><clipPath id="e933f86a74"><path d="M 65.9375 107.679688 L 130.511719 53.710938 L 206.855469 145.058594 L 142.28125 199.023438 Z M 65.9375 107.679688 " clip-rule="nonzero"/></clipPath><clipPath id="db78828bf0"><path d="M 65.9375 107.679688 L 130.4375 53.773438 L 207.339844 145.792969 L 142.84375 199.695312 Z M 65.9375 107.679688 " clip-rule="nonzero"/></clipPath><clipPath id="9eeac79f70"><path d="M 98.15625 80.753906 C 80.363281 95.625 83.035156 128.132812 104.121094 153.363281 C 125.207031 178.59375 156.726562 186.992188 174.519531 172.125 C 192.308594 157.253906 189.640625 124.746094 168.554688 99.515625 C 147.46875 74.28125 115.949219 65.882812 98.15625 80.753906 Z M 98.15625 80.753906 " clip-rule="nonzero"/></clipPath><clipPath id="51e89338ce"><path d="M 92 81 L 184 81 L 184 178 L 92 178 Z M 92 81 " clip-rule="nonzero"/></clipPath><clipPath id="70912e24fd"><path d="M 74.164062 113.40625 L 133.375 63.921875 L 202.378906 146.488281 L 143.171875 195.972656 Z M 74.164062 113.40625 " clip-rule="nonzero"/></clipPath><clipPath id="40b08cfe8e"><path d="M 103.769531 88.664062 C 87.421875 102.328125 89.570312 131.835938 108.574219 154.574219 C 127.578125 177.3125 156.238281 184.667969 172.585938 171.003906 C 188.9375 157.339844 186.785156 127.832031 167.78125 105.09375 C 148.777344 82.355469 120.121094 75 103.769531 88.664062 Z M 103.769531 88.664062 " clip-rule="nonzero"/></clipPath><clipPath id="f860307d07"><path d="M 0 0 L 92 0 L 92 97 L 0 97 Z M 0 0 " clip-rule="nonzero"/></clipPath><clipPath id="446c10fc97"><path d="M -17.835938 32.40625 L 41.375 -17.078125 L 110.378906 65.488281 L 51.171875 114.972656 Z M -17.835938 32.40625 " clip-rule="nonzero"/></clipPath><clipPath id="7026b4512b"><path d="M 11.769531 7.664062 C -4.578125 21.328125 -2.429688 50.835938 16.574219 73.574219 C 35.578125 96.3125 64.238281 103.667969 80.585938 90.003906 C 96.9375 76.339844 94.785156 46.832031 75.78125 24.09375 C 56.777344 1.355469 28.121094 -6 11.769531 7.664062 Z M 11.769531 7.664062 " clip-rule="nonzero"/></clipPath><clipPath id="5583234a4e"><rect x="0" width="92" y="0" height="97"/></clipPath><clipPath id="d99293348a"><path d="M 118 131 L 166 131 L 166 153 L 118 153 Z M 118 131 " clip-rule="nonzero"/></clipPath><clipPath id="5ac96a9fe8"><path d="M 104.605469 111.648438 L 153.226562 95.253906 L 169.625 143.878906 L 121 160.273438 Z M 104.605469 111.648438 " clip-rule="nonzero"/></clipPath><clipPath id="5ee379940b"><path d="M 104.605469 111.648438 L 153.226562 95.253906 L 169.625 143.878906 L 121 160.273438 Z M 104.605469 111.648438 " clip-rule="nonzero"/></clipPath><clipPath id="4668d2db37"><path d="M 118 102 L 156 102 L 156 142 L 118 142 Z M 118 102 " clip-rule="nonzero"/></clipPath><clipPath id="fc434c900e"><path d="M 104.605469 111.648438 L 153.226562 95.253906 L 169.625 143.878906 L 121 160.273438 Z M 104.605469 111.648438 " clip-rule="nonzero"/></clipPath><clipPath id="027bb50364"><path d="M 104.605469 111.648438 L 153.226562 95.253906 L 169.625 143.878906 L 121 160.273438 Z M 104.605469 111.648438 " clip-rule="nonzero"/></clipPath><clipPath id="7673417877"><path d="M 118 131 L 166 131 L 166 153 L 118 153 Z M 118 131 " clip-rule="nonzero"/></clipPath><clipPath id="b5d8da0214"><path d="M 104.605469 111.648438 L 153.226562 95.253906 L 169.625 143.878906 L 121 160.273438 Z M 104.605469 111.648438 " clip-rule="nonzero"/></clipPath><clipPath id="7d1c5ffdb0"><path d="M 104.605469 111.648438 L 153.226562 95.253906 L 169.625 143.878906 L 121 160.273438 Z M 104.605469 111.648438 " clip-rule="nonzero"/></clipPath><clipPath id="2f753594a5"><path d="M 118 102 L 156 102 L 156 142 L 118 142 Z M 118 102 " clip-rule="nonzero"/></clipPath><clipPath id="5215460fd0"><path d="M 104.605469 111.648438 L 153.226562 95.253906 L 169.625 143.878906 L 121 160.273438 Z M 104.605469 111.648438 " clip-rule="nonzero"/></clipPath><clipPath id="25b0c78879"><path d="M 104.605469 111.648438 L 153.226562 95.253906 L 169.625 143.878906 L 121 160.273438 Z M 104.605469 111.648438 " clip-rule="nonzero"/></clipPath><clipPath id="da340c9b81"><rect x="0" width="264" y="0" height="263"/></clipPath><clipPath id="7f3605d39f"><path d="M 58 67 L 203 67 L 203 216 L 58 216 Z M 58 67 " clip-rule="nonzero"/></clipPath><clipPath id="0b020a847b"><path d="M 29.824219 118.621094 L 118.332031 39.03125 L 231.496094 164.875 L 142.992188 244.464844 Z M 29.824219 118.621094 " clip-rule="nonzero"/></clipPath><clipPath id="559f7d55e0"><path d="M 74.078125 78.828125 C 49.636719 100.804688 55.089844 146.71875 86.257812 181.375 C 117.421875 216.03125 162.5 226.308594 186.941406 204.332031 C 211.378906 182.351562 205.925781 136.441406 174.761719 101.785156 C 143.59375 67.128906 98.519531 56.847656 74.078125 78.828125 Z M 74.078125 78.828125 " clip-rule="nonzero"/></clipPath><clipPath id="ed44180499"><path d="M 0 0 L 145 0 L 145 149 L 0 149 Z M 0 0 " clip-rule="nonzero"/></clipPath><clipPath id="959408449e"><path d="M -28.175781 51.621094 L 60.332031 -27.96875 L 173.496094 97.875 L 84.992188 177.464844 Z M -28.175781 51.621094 " clip-rule="nonzero"/></clipPath><clipPath id="05af866218"><path d="M 16.078125 11.828125 C -8.363281 33.804688 -2.910156 79.71875 28.257812 114.375 C 59.421875 149.03125 104.5 159.308594 128.941406 137.332031 C 153.378906 115.351562 147.925781 69.441406 116.761719 34.785156 C 85.59375 0.128906 40.519531 -10.152344 16.078125 11.828125 Z M 16.078125 11.828125 " clip-rule="nonzero"/></clipPath><clipPath id="92b2af4ae9"><rect x="0" width="145" y="0" height="149"/></clipPath><clipPath id="b73143c353"><path d="M 58 67 L 203 67 L 203 216 L 58 216 Z M 58 67 " clip-rule="nonzero"/></clipPath><clipPath id="8f3f3c507f"><path d="M 29.824219 118.621094 L 118.125 39.21875 L 230.960938 164.695312 L 142.664062 244.097656 Z M 29.824219 118.621094 " clip-rule="nonzero"/></clipPath><clipPath id="4115e6fdd8"><path d="M 29.828125 118.625 L 118.417969 38.957031 L 232.074219 165.347656 L 143.484375 245.011719 Z M 29.828125 118.625 " clip-rule="nonzero"/></clipPath><clipPath id="c0e8c715ab"><path d="M 74.078125 78.832031 C 49.640625 100.808594 55.089844 146.71875 86.253906 181.371094 C 117.417969 216.027344 162.496094 226.304688 186.933594 204.328125 C 211.371094 182.351562 205.917969 136.441406 174.753906 101.789062 C 143.589844 67.132812 98.515625 56.855469 74.078125 78.832031 Z M 74.078125 78.832031 " clip-rule="nonzero"/></clipPath><clipPath id="a2f3603922"><path d="M 72 55 L 216 55 L 216 205 L 72 205 Z M 72 55 " clip-rule="nonzero"/></clipPath><clipPath id="106eb13647"><path d="M 43.453125 106.78125 L 131.957031 27.191406 L 245.125 153.035156 L 156.617188 232.625 Z M 43.453125 106.78125 " clip-rule="nonzero"/></clipPath><clipPath id="adeff7ff2a"><path d="M 87.703125 66.988281 C 63.265625 88.964844 68.71875 134.878906 99.882812 169.535156 C 131.050781 204.191406 176.128906 214.46875 200.566406 192.492188 C 225.007812 170.511719 219.554688 124.601562 188.386719 89.945312 C 157.222656 55.289062 112.144531 45.007812 87.703125 66.988281 Z M 87.703125 66.988281 " clip-rule="nonzero"/></clipPath><clipPath id="1d9e6d9f43"><path d="M 0 0 L 144 0 L 144 150 L 0 150 Z M 0 0 " clip-rule="nonzero"/></clipPath><clipPath id="1a7c6f7d52"><path d="M -28.546875 51.78125 L 59.957031 -27.808594 L 173.125 98.035156 L 84.617188 177.625 Z M -28.546875 51.78125 " clip-rule="nonzero"/></clipPath><clipPath id="5ee1f1c30f"><path d="M 15.703125 11.988281 C -8.734375 33.964844 -3.28125 79.878906 27.882812 114.535156 C 59.050781 149.191406 104.128906 159.46875 128.566406 137.492188 C 153.007812 115.511719 147.554688 69.601562 116.386719 34.945312 C 85.222656 0.289062 40.144531 -9.992188 15.703125 11.988281 Z M 15.703125 11.988281 " clip-rule="nonzero"/></clipPath><clipPath id="86a24624fd"><rect x="0" width="144" y="0" height="150"/></clipPath><clipPath id="cd841fd6b8"><path d="M 72 55 L 216 55 L 216 205 L 72 205 Z M 72 55 " clip-rule="nonzero"/></clipPath><clipPath id="327bbe03ad"><path d="M 43.453125 106.78125 L 131.75 27.378906 L 244.585938 152.855469 L 156.289062 232.257812 Z M 43.453125 106.78125 " clip-rule="nonzero"/></clipPath><clipPath id="a42e832369"><path d="M 43.453125 106.785156 L 132.042969 27.117188 L 245.699219 153.503906 L 157.109375 233.171875 Z M 43.453125 106.785156 " clip-rule="nonzero"/></clipPath><clipPath id="f43d199628"><path d="M 87.703125 66.992188 C 63.265625 88.96875 68.71875 134.878906 99.882812 169.53125 C 131.046875 204.1875 176.121094 214.464844 200.558594 192.488281 C 225 170.511719 219.546875 124.601562 188.382812 89.945312 C 157.21875 55.292969 112.140625 45.015625 87.703125 66.992188 Z M 87.703125 66.992188 " clip-rule="nonzero"/></clipPath><clipPath id="bab12f5314"><path d="M 89 75 L 195 75 L 195 186 L 89 186 Z M 89 75 " clip-rule="nonzero"/></clipPath><clipPath id="c4bce2daf0"><path d="M 67.90625 113.609375 L 132.875 55.183594 L 215.949219 147.5625 L 150.980469 205.988281 Z M 67.90625 113.609375 " clip-rule="nonzero"/></clipPath><clipPath id="a513c52059"><path d="M 100.390625 84.398438 C 82.449219 100.53125 86.453125 134.234375 109.332031 159.671875 C 132.210938 185.113281 165.300781 192.660156 183.242188 176.527344 C 201.179688 160.390625 197.179688 126.691406 174.300781 101.25 C 151.421875 75.808594 118.332031 68.261719 100.390625 84.398438 Z M 100.390625 84.398438 " clip-rule="nonzero"/></clipPath><clipPath id="03f0d3a1b4"><path d="M 0 0 L 106 0 L 106 111 L 0 111 Z M 0 0 " clip-rule="nonzero"/></clipPath><clipPath id="5fa9a99ae6"><path d="M -21.09375 38.609375 L 43.875 -19.816406 L 126.949219 72.5625 L 61.980469 130.988281 Z M -21.09375 38.609375 " clip-rule="nonzero"/></clipPath><clipPath id="776c20b5f5"><path d="M 11.390625 9.398438 C -6.550781 25.53125 -2.546875 59.234375 20.332031 84.671875 C 43.210938 110.113281 76.300781 117.660156 94.242188 101.527344 C 112.179688 85.390625 108.179688 51.691406 85.300781 26.25 C 62.421875 0.808594 29.332031 -6.738281 11.390625 9.398438 Z M 11.390625 9.398438 " clip-rule="nonzero"/></clipPath><clipPath id="60ff4c2a62"><rect x="0" width="106" y="0" height="111"/></clipPath><clipPath id="e1a346a10a"><path d="M 89 75 L 195 75 L 195 186 L 89 186 Z M 89 75 " clip-rule="nonzero"/></clipPath><clipPath id="165a3431e6"><path d="M 67.90625 113.609375 L 132.96875 55.101562 L 215.625 147.011719 L 150.5625 205.523438 Z M 67.90625 113.609375 " clip-rule="nonzero"/></clipPath><clipPath id="4542770713"><path d="M 67.90625 113.609375 L 132.9375 55.128906 L 216.367188 147.90625 L 151.339844 206.386719 Z M 67.90625 113.609375 " clip-rule="nonzero"/></clipPath><clipPath id="b545f10742"><path d="M 100.390625 84.398438 C 82.449219 100.53125 86.453125 134.230469 109.328125 159.667969 C 132.207031 185.109375 165.292969 192.652344 183.234375 176.519531 C 201.171875 160.386719 197.167969 126.6875 174.292969 101.25 C 151.417969 75.808594 118.328125 68.265625 100.390625 84.398438 Z M 100.390625 84.398438 " clip-rule="nonzero"/></clipPath><clipPath id="0d69dfe922"><path d="M 96 84 L 192 84 L 192 184 L 96 184 Z M 96 84 " clip-rule="nonzero"/></clipPath><clipPath id="bf16279806"><path d="M 76.679688 119.253906 L 136.375 65.570312 L 211.234375 148.816406 L 151.542969 202.5 Z M 76.679688 119.253906 " clip-rule="nonzero"/></clipPath><clipPath id="2375cc7eb9"><path d="M 106.527344 92.414062 C 90.042969 107.234375 93.394531 137.835938 114.007812 160.761719 C 134.625 183.6875 164.699219 190.253906 181.183594 175.429688 C 197.667969 160.609375 194.320312 130.007812 173.703125 107.082031 C 153.085938 84.15625 123.011719 77.589844 106.527344 92.414062 Z M 106.527344 92.414062 " clip-rule="nonzero"/></clipPath><clipPath id="23b8727e7b"><path d="M 0 0 L 96 0 L 96 100 L 0 100 Z M 0 0 " clip-rule="nonzero"/></clipPath><clipPath id="399bd5dea2"><path d="M -19.320312 35.253906 L 40.375 -18.429688 L 115.234375 64.816406 L 55.542969 118.5 Z M -19.320312 35.253906 " clip-rule="nonzero"/></clipPath><clipPath id="4933a70766"><path d="M 10.527344 8.414062 C -5.957031 23.234375 -2.605469 53.835938 18.007812 76.761719 C 38.625 99.6875 68.699219 106.253906 85.183594 91.429688 C 101.667969 76.609375 98.320312 46.007812 77.703125 23.082031 C 57.085938 0.15625 27.011719 -6.410156 10.527344 8.414062 Z M 10.527344 8.414062 " clip-rule="nonzero"/></clipPath><clipPath id="d8ea41cf25"><rect x="0" width="96" y="0" height="100"/></clipPath><clipPath id="3eb7592cba"><path d="M 137 104 L 165 104 L 165 132 L 137 132 Z M 137 104 " clip-rule="nonzero"/></clipPath><clipPath id="c1e8f535d6"><path d="M 158.089844 104.027344 L 172.558594 146.78125 L 129.804688 161.253906 L 115.332031 118.496094 Z M 158.089844 104.027344 " clip-rule="nonzero"/></clipPath><clipPath id="ca1782e276"><path d="M 158.089844 104.027344 L 172.558594 146.78125 L 129.804688 161.253906 L 115.332031 118.496094 Z M 158.089844 104.027344 " clip-rule="nonzero"/></clipPath><clipPath id="aa3903383a"><path d="M 145 126 L 173 126 L 173 154 L 145 154 Z M 145 126 " clip-rule="nonzero"/></clipPath><clipPath id="86b1af45bc"><path d="M 158.089844 104.027344 L 172.558594 146.78125 L 129.804688 161.253906 L 115.332031 118.496094 Z M 158.089844 104.027344 " clip-rule="nonzero"/></clipPath><clipPath id="74de85b347"><path d="M 158.089844 104.027344 L 172.558594 146.78125 L 129.804688 161.253906 L 115.332031 118.496094 Z M 158.089844 104.027344 " clip-rule="nonzero"/></clipPath><clipPath id="7e9b1d7976"><path d="M 115 111 L 143 111 L 143 139 L 115 139 Z M 115 111 " clip-rule="nonzero"/></clipPath><clipPath id="0f9f7fec24"><path d="M 158.089844 104.027344 L 172.558594 146.78125 L 129.804688 161.253906 L 115.332031 118.496094 Z M 158.089844 104.027344 " clip-rule="nonzero"/></clipPath><clipPath id="f37ac664e4"><path d="M 158.089844 104.027344 L 172.558594 146.78125 L 129.804688 161.253906 L 115.332031 118.496094 Z M 158.089844 104.027344 " clip-rule="nonzero"/></clipPath><clipPath id="da3b2d2dad"><path d="M 123 133 L 151 133 L 151 162 L 123 162 Z M 123 133 " clip-rule="nonzero"/></clipPath><clipPath id="4fdc0a5c44"><path d="M 158.089844 104.027344 L 172.558594 146.78125 L 129.804688 161.253906 L 115.332031 118.496094 Z M 158.089844 104.027344 " clip-rule="nonzero"/></clipPath><clipPath id="c832dc05af"><path d="M 158.089844 104.027344 L 172.558594 146.78125 L 129.804688 161.253906 L 115.332031 118.496094 Z M 158.089844 104.027344 " clip-rule="nonzero"/></clipPath><clipPath id="da4d0c7c0b"><rect x="0" width="274" y="0" height="271"/></clipPath><clipPath id="6a4f484a43"><path d="M 59 68 L 207 68 L 207 220 L 59 220 Z M 59 68 " clip-rule="nonzero"/></clipPath><clipPath id="dc0be0aa09"><path d="M 29.988281 120.683594 L 120.300781 39.292969 L 236.027344 167.703125 L 145.714844 249.097656 Z M 29.988281 120.683594 " clip-rule="nonzero"/></clipPath><clipPath id="92a8502c83"><path d="M 75.144531 79.988281 C 50.203125 102.460938 55.824219 149.351562 87.695312 184.714844 C 119.566406 220.082031 165.621094 230.53125 190.5625 208.054688 C 215.5 185.578125 209.878906 138.691406 178.007812 103.324219 C 146.136719 67.960938 100.082031 57.511719 75.144531 79.988281 Z M 75.144531 79.988281 " clip-rule="nonzero"/></clipPath><clipPath id="7f830e30c0"><path d="M 0 0 L 148 0 L 148 152 L 0 152 Z M 0 0 " clip-rule="nonzero"/></clipPath><clipPath id="db0bec4f62"><path d="M -29.011719 52.683594 L 61.300781 -28.707031 L 177.027344 99.703125 L 86.714844 181.097656 Z M -29.011719 52.683594 " clip-rule="nonzero"/></clipPath><clipPath id="736d8732c8"><path d="M 16.144531 11.988281 C -8.796875 34.460938 -3.175781 81.351562 28.695312 116.714844 C 60.566406 152.082031 106.621094 162.53125 131.5625 140.054688 C 156.5 117.578125 150.878906 70.691406 119.007812 35.324219 C 87.136719 -0.0390625 41.082031 -10.488281 16.144531 11.988281 Z M 16.144531 11.988281 " clip-rule="nonzero"/></clipPath><clipPath id="cf0863b5b2"><rect x="0" width="148" y="0" height="152"/></clipPath><clipPath id="3da0d594bb"><path d="M 59 68 L 207 68 L 207 220 L 59 220 Z M 59 68 " clip-rule="nonzero"/></clipPath><clipPath id="2cf321b2b3"><path d="M 29.988281 120.683594 L 120.34375 39.253906 L 235.703125 167.257812 L 145.347656 248.6875 Z M 29.988281 120.683594 " clip-rule="nonzero"/></clipPath><clipPath id="ec9be183d5"><path d="M 29.988281 120.683594 L 120.382812 39.21875 L 236.605469 168.183594 L 146.210938 249.648438 Z M 29.988281 120.683594 " clip-rule="nonzero"/></clipPath><clipPath id="2c57625815"><path d="M 75.140625 79.992188 C 50.203125 102.46875 55.824219 149.351562 87.691406 184.710938 C 119.558594 220.074219 165.609375 230.519531 190.546875 208.046875 C 215.480469 185.574219 209.863281 138.691406 177.996094 103.328125 C 146.125 67.96875 100.078125 57.519531 75.140625 79.992188 Z M 75.140625 79.992188 " clip-rule="nonzero"/></clipPath><clipPath id="dabf98ea8a"><path d="M 73 56 L 221 56 L 221 208 L 73 208 Z M 73 56 " clip-rule="nonzero"/></clipPath><clipPath id="7c06eead7c"><path d="M 43.894531 108.574219 L 134.207031 27.183594 L 249.933594 155.597656 L 159.621094 236.988281 Z M 43.894531 108.574219 " clip-rule="nonzero"/></clipPath><clipPath id="7d6545e2c7"><path d="M 89.050781 67.878906 C 64.109375 90.355469 69.730469 137.242188 101.601562 172.609375 C 133.472656 207.972656 179.527344 218.421875 204.464844 195.945312 C 229.40625 173.46875 223.785156 126.582031 191.914062 91.214844 C 160.042969 55.851562 113.988281 45.402344 89.050781 67.878906 Z M 89.050781 67.878906 " clip-rule="nonzero"/></clipPath><clipPath id="45f484dd67"><path d="M 0 0 L 148 0 L 148 152 L 0 152 Z M 0 0 " clip-rule="nonzero"/></clipPath><clipPath id="b82c29d111"><path d="M -29.105469 52.574219 L 61.207031 -28.816406 L 176.933594 99.597656 L 86.621094 180.988281 Z M -29.105469 52.574219 " clip-rule="nonzero"/></clipPath><clipPath id="66fb466b8a"><path d="M 16.050781 11.878906 C -8.890625 34.355469 -3.269531 81.242188 28.601562 116.609375 C 60.472656 151.972656 106.527344 162.421875 131.464844 139.945312 C 156.40625 117.46875 150.785156 70.582031 118.914062 35.214844 C 87.042969 -0.148438 40.988281 -10.597656 16.050781 11.878906 Z M 16.050781 11.878906 " clip-rule="nonzero"/></clipPath><clipPath id="a748f7ccfe"><rect x="0" width="148" y="0" height="152"/></clipPath><clipPath id="22fcbbbd3d"><path d="M 73 56 L 221 56 L 221 208 L 73 208 Z M 73 56 " clip-rule="nonzero"/></clipPath><clipPath id="f63c304838"><path d="M 43.894531 108.574219 L 134.25 27.144531 L 249.609375 155.148438 L 159.253906 236.578125 Z M 43.894531 108.574219 " clip-rule="nonzero"/></clipPath><clipPath id="7fe298acac"><path d="M 43.894531 108.574219 L 134.289062 27.109375 L 250.511719 156.074219 L 160.117188 237.539062 Z M 43.894531 108.574219 " clip-rule="nonzero"/></clipPath><clipPath id="71358a4a7e"><path d="M 89.046875 67.886719 C 64.109375 90.359375 69.730469 137.242188 101.597656 172.601562 C 133.464844 207.964844 179.515625 218.410156 204.449219 195.9375 C 229.386719 173.464844 223.769531 126.582031 191.898438 91.21875 C 160.03125 55.859375 113.984375 45.410156 89.046875 67.886719 Z M 89.046875 67.886719 " clip-rule="nonzero"/></clipPath><clipPath id="9696ebbb4f"><path d="M 90 76 L 199 76 L 199 189 L 90 189 Z M 90 76 " clip-rule="nonzero"/></clipPath><clipPath id="a40d5df08d"><path d="M 68.875 115.523438 L 135.171875 55.777344 L 220.125 150.042969 L 153.828125 209.789062 Z M 68.875 115.523438 " clip-rule="nonzero"/></clipPath><clipPath id="2d31c24e1f"><path d="M 102.023438 85.648438 C 83.714844 102.148438 87.839844 136.570312 111.234375 162.53125 C 134.632812 188.488281 168.4375 196.160156 186.746094 179.660156 C 205.054688 163.164062 200.929688 128.742188 177.53125 102.78125 C 154.136719 76.820312 120.328125 69.152344 102.023438 85.648438 Z M 102.023438 85.648438 " clip-rule="nonzero"/></clipPath><clipPath id="4e330c69f0"><path d="M 0 0 L 109 0 L 109 113 L 0 113 Z M 0 0 " clip-rule="nonzero"/></clipPath><clipPath id="e29217d697"><path d="M -21.125 39.523438 L 45.171875 -20.222656 L 130.125 74.042969 L 63.828125 133.789062 Z M -21.125 39.523438 " clip-rule="nonzero"/></clipPath><clipPath id="d9e4081e16"><path d="M 12.023438 9.648438 C -6.285156 26.148438 -2.160156 60.570312 21.234375 86.53125 C 44.632812 112.488281 78.4375 120.160156 96.746094 103.660156 C 115.054688 87.164062 110.929688 52.742188 87.53125 26.78125 C 64.136719 0.820312 30.328125 -6.847656 12.023438 9.648438 Z M 12.023438 9.648438 " clip-rule="nonzero"/></clipPath><clipPath id="5993edde47"><rect x="0" width="109" y="0" height="113"/></clipPath><clipPath id="16166aaa5f"><path d="M 90 76 L 199 76 L 199 189 L 90 189 Z M 90 76 " clip-rule="nonzero"/></clipPath><clipPath id="007f0d074d"><path d="M 68.875 115.523438 L 135.273438 55.683594 L 219.789062 149.464844 L 153.390625 209.300781 Z M 68.875 115.523438 " clip-rule="nonzero"/></clipPath><clipPath id="7259695607"><path d="M 68.875 115.523438 L 135.230469 55.71875 L 220.550781 150.390625 L 154.191406 210.195312 Z M 68.875 115.523438 " clip-rule="nonzero"/></clipPath><clipPath id="854e90fe20"><path d="M 102.019531 85.652344 C 83.714844 102.148438 87.839844 136.566406 111.234375 162.523438 C 134.628906 188.484375 168.429688 196.152344 186.738281 179.65625 C 205.042969 163.160156 200.917969 128.742188 177.523438 102.78125 C 154.128906 76.824219 120.324219 69.15625 102.019531 85.652344 Z M 102.019531 85.652344 " clip-rule="nonzero"/></clipPath><clipPath id="3b8bd7e89f"><path d="M 97 85 L 196 85 L 196 187 L 97 187 Z M 97 85 " clip-rule="nonzero"/></clipPath><clipPath id="faa58265d4"><path d="M 77.839844 121.28125 L 138.753906 66.386719 L 215.3125 151.332031 L 154.398438 206.230469 Z M 77.839844 121.28125 " clip-rule="nonzero"/></clipPath><clipPath id="df02dc41c3"><path d="M 108.296875 93.835938 C 91.476562 108.992188 94.933594 140.246094 116.015625 163.640625 C 137.097656 187.035156 167.824219 193.710938 184.644531 178.550781 C 201.464844 163.390625 198.011719 132.136719 176.929688 108.742188 C 155.847656 85.351562 125.121094 78.675781 108.296875 93.835938 Z M 108.296875 93.835938 " clip-rule="nonzero"/></clipPath><clipPath id="cc5eccff1d"><path d="M 0 0 L 99 0 L 99 102 L 0 102 Z M 0 0 " clip-rule="nonzero"/></clipPath><clipPath id="0283c25dff"><path d="M -19.160156 36.28125 L 41.753906 -18.613281 L 118.3125 66.332031 L 57.398438 121.230469 Z M -19.160156 36.28125 " clip-rule="nonzero"/></clipPath><clipPath id="5bdfea1af6"><path d="M 11.296875 8.835938 C -5.523438 23.992188 -2.066406 55.246094 19.015625 78.640625 C 40.097656 102.035156 70.824219 108.710938 87.644531 93.550781 C 104.464844 78.390625 101.011719 47.136719 79.929688 23.742188 C 58.847656 0.351562 28.121094 -6.324219 11.296875 8.835938 Z M 11.296875 8.835938 " clip-rule="nonzero"/></clipPath><clipPath id="8b20f604a7"><rect x="0" width="99" y="0" height="102"/></clipPath><clipPath id="7f7a9d8fc5"><path d="M 121 122 L 166 122 L 166 159 L 121 159 Z M 121 122 " clip-rule="nonzero"/></clipPath><clipPath id="e7d4e88c99"><path d="M 162.410156 103.746094 L 176.035156 150.644531 L 129.136719 164.269531 L 115.511719 117.371094 Z M 162.410156 103.746094 " clip-rule="nonzero"/></clipPath><clipPath id="e52acf1ce4"><path d="M 162.410156 103.746094 L 176.035156 150.644531 L 129.136719 164.269531 L 115.511719 117.371094 Z M 162.410156 103.746094 " clip-rule="nonzero"/></clipPath><clipPath id="09155e4db8"><path d="M 162.410156 103.746094 L 176.035156 150.644531 L 129.136719 164.269531 L 115.511719 117.371094 Z M 162.410156 103.746094 " clip-rule="nonzero"/></clipPath><clipPath id="29be430c9a"><path d="M 126 109 L 171 109 L 171 146 L 126 146 Z M 126 109 " clip-rule="nonzero"/></clipPath><clipPath id="cb171a1d14"><path d="M 162.410156 103.746094 L 176.035156 150.644531 L 129.136719 164.269531 L 115.511719 117.371094 Z M 162.410156 103.746094 " clip-rule="nonzero"/></clipPath><clipPath id="bc61bf82dd"><path d="M 162.410156 103.746094 L 176.035156 150.644531 L 129.136719 164.269531 L 115.511719 117.371094 Z M 162.410156 103.746094 " clip-rule="nonzero"/></clipPath><clipPath id="ea3d71db1a"><path d="M 162.410156 103.746094 L 176.035156 150.644531 L 129.136719 164.269531 L 115.511719 117.371094 Z M 162.410156 103.746094 " clip-rule="nonzero"/></clipPath><clipPath id="9ed30f6729"><rect x="0" width="279" y="0" height="276"/></clipPath><clipPath id="e0788bf437"><path d="M 56 58 L 183 58 L 183 211 L 56 211 Z M 56 58 " clip-rule="nonzero"/></clipPath><clipPath id="b82b4f3475"><path d="M 31.425781 90.042969 L 131.523438 36.367188 L 207.84375 178.6875 L 107.746094 232.363281 Z M 31.425781 90.042969 " clip-rule="nonzero"/></clipPath><clipPath id="3565ed5a98"><path d="M 81.472656 63.203125 C 53.832031 78.027344 48.464844 121.816406 69.484375 161.011719 C 90.503906 200.207031 129.949219 219.964844 157.589844 205.144531 C 185.230469 190.320312 190.597656 146.53125 169.578125 107.335938 C 148.558594 68.140625 109.113281 48.382812 81.472656 63.203125 Z M 81.472656 63.203125 " clip-rule="nonzero"/></clipPath><clipPath id="ae342e4510"><path d="M 0 0 L 127 0 L 127 153 L 0 153 Z M 0 0 " clip-rule="nonzero"/></clipPath><clipPath id="4199cb03dd"><path d="M -24.574219 32.042969 L 75.523438 -21.632812 L 151.84375 120.6875 L 51.746094 174.363281 Z M -24.574219 32.042969 " clip-rule="nonzero"/></clipPath><clipPath id="00932283e7"><path d="M 25.472656 5.203125 C -2.167969 20.027344 -7.535156 63.816406 13.484375 103.011719 C 34.503906 142.207031 73.949219 161.964844 101.589844 147.144531 C 129.230469 132.320312 134.597656 88.53125 113.578125 49.335938 C 92.558594 10.140625 53.113281 -9.617188 25.472656 5.203125 Z M 25.472656 5.203125 " clip-rule="nonzero"/></clipPath><clipPath id="77ff933a33"><rect x="0" width="127" y="0" height="153"/></clipPath><clipPath id="8eb3d64ab6"><path d="M 56 58 L 183 58 L 183 211 L 56 211 Z M 56 58 " clip-rule="nonzero"/></clipPath><clipPath id="9d109ab162"><path d="M 31.425781 90.042969 L 131.792969 36.21875 L 207.933594 178.203125 L 107.566406 232.027344 Z M 31.425781 90.042969 " clip-rule="nonzero"/></clipPath><clipPath id="38c8284fa3"><path d="M 31.425781 90.042969 L 131.621094 36.316406 L 208.273438 179.257812 L 108.078125 232.984375 Z M 31.425781 90.042969 " clip-rule="nonzero"/></clipPath><clipPath id="8f8ffad5d7"><path d="M 81.472656 63.207031 C 53.832031 78.027344 48.464844 121.816406 69.484375 161.007812 C 90.5 200.203125 129.945312 219.960938 157.585938 205.140625 C 185.222656 190.320312 190.59375 146.53125 169.574219 107.335938 C 148.554688 68.140625 109.113281 48.382812 81.472656 63.207031 Z M 81.472656 63.207031 " clip-rule="nonzero"/></clipPath><clipPath id="b9db0f52e7"><path d="M 71 50 L 198 50 L 198 203 L 71 203 Z M 71 50 " clip-rule="nonzero"/></clipPath><clipPath id="d782680650"><path d="M 46.742188 82.160156 L 146.839844 28.484375 L 223.160156 170.808594 L 123.0625 224.484375 Z M 46.742188 82.160156 " clip-rule="nonzero"/></clipPath><clipPath id="9d3a388bae"><path d="M 96.792969 55.324219 C 69.152344 70.144531 63.78125 113.933594 84.800781 153.128906 C 105.820312 192.324219 145.265625 212.085938 172.90625 197.261719 C 200.546875 182.441406 205.914062 138.648438 184.894531 99.453125 C 163.878906 60.257812 124.433594 40.5 96.792969 55.324219 Z M 96.792969 55.324219 " clip-rule="nonzero"/></clipPath><clipPath id="f1b3724fdd"><path d="M 0 0 L 127 0 L 127 153 L 0 153 Z M 0 0 " clip-rule="nonzero"/></clipPath><clipPath id="c2d5076cb7"><path d="M -24.257812 32.160156 L 75.839844 -21.515625 L 152.160156 120.808594 L 52.0625 174.484375 Z M -24.257812 32.160156 " clip-rule="nonzero"/></clipPath><clipPath id="d04119f3b4"><path d="M 25.792969 5.324219 C -1.847656 20.144531 -7.21875 63.933594 13.800781 103.128906 C 34.820312 142.324219 74.265625 162.085938 101.90625 147.261719 C 129.546875 132.441406 134.914062 88.648438 113.894531 49.453125 C 92.878906 10.257812 53.433594 -9.5 25.792969 5.324219 Z M 25.792969 5.324219 " clip-rule="nonzero"/></clipPath><clipPath id="6191d3c182"><rect x="0" width="127" y="0" height="153"/></clipPath><clipPath id="5c54fc2b81"><path d="M 71 50 L 198 50 L 198 203 L 71 203 Z M 71 50 " clip-rule="nonzero"/></clipPath><clipPath id="0c50184c71"><path d="M 46.742188 82.160156 L 147.113281 28.339844 L 223.25 170.324219 L 122.882812 224.144531 Z M 46.742188 82.160156 " clip-rule="nonzero"/></clipPath><clipPath id="0f28880e62"><path d="M 46.746094 82.160156 L 146.9375 28.433594 L 223.589844 171.375 L 123.394531 225.101562 Z M 46.746094 82.160156 " clip-rule="nonzero"/></clipPath><clipPath id="23b1ff3da0"><path d="M 96.789062 55.324219 C 69.152344 70.148438 63.78125 113.933594 84.800781 153.128906 C 105.816406 192.324219 145.261719 212.082031 172.902344 197.257812 C 200.542969 182.4375 205.910156 138.648438 184.890625 99.457031 C 163.875 60.261719 124.429688 40.503906 96.789062 55.324219 Z M 96.789062 55.324219 " clip-rule="nonzero"/></clipPath><clipPath id="a29a15e5aa"><path d="M 86 70 L 179 70 L 179 183 L 86 183 Z M 86 70 " clip-rule="nonzero"/></clipPath><clipPath id="7a98c3b42c"><path d="M 67.855469 94.035156 L 141.332031 54.632812 L 197.355469 159.109375 L 123.878906 198.507812 Z M 67.855469 94.035156 " clip-rule="nonzero"/></clipPath><clipPath id="77d7b60c7d"><path d="M 104.59375 74.332031 C 84.304688 85.214844 80.363281 117.359375 95.792969 146.132812 C 111.222656 174.902344 140.179688 189.40625 160.46875 178.527344 C 180.757812 167.648438 184.699219 135.5 169.269531 106.730469 C 153.839844 77.957031 124.882812 63.453125 104.59375 74.332031 Z M 104.59375 74.332031 " clip-rule="nonzero"/></clipPath><clipPath id="e4c3cd6df0"><path d="M 0 0 L 93 0 L 93 113 L 0 113 Z M 0 0 " clip-rule="nonzero"/></clipPath><clipPath id="9e39cc039b"><path d="M -18.144531 24.035156 L 55.332031 -15.367188 L 111.355469 89.109375 L 37.878906 128.507812 Z M -18.144531 24.035156 " clip-rule="nonzero"/></clipPath><clipPath id="882daa5bfe"><path d="M 18.59375 4.332031 C -1.695312 15.214844 -5.636719 47.359375 9.792969 76.132812 C 25.222656 104.902344 54.179688 119.40625 74.46875 108.527344 C 94.757812 97.648438 98.699219 65.5 83.269531 36.730469 C 67.839844 7.957031 38.882812 -6.546875 18.59375 4.332031 Z M 18.59375 4.332031 " clip-rule="nonzero"/></clipPath><clipPath id="3edb1b3cb7"><rect x="0" width="93" y="0" height="113"/></clipPath><clipPath id="0750c0f86e"><path d="M 86 70 L 179 70 L 179 183 L 86 183 Z M 86 70 " clip-rule="nonzero"/></clipPath><clipPath id="11bf2c8c02"><path d="M 67.855469 94.035156 L 141.296875 54.652344 L 197.085938 158.691406 L 123.648438 198.074219 Z M 67.855469 94.035156 " clip-rule="nonzero"/></clipPath><clipPath id="fa7236191f"><path d="M 67.859375 94.039062 L 141.402344 54.601562 L 197.667969 159.523438 L 124.121094 198.960938 Z M 67.859375 94.039062 " clip-rule="nonzero"/></clipPath><clipPath id="04abb19084"><path d="M 104.59375 74.339844 C 84.304688 85.21875 80.363281 117.363281 95.792969 146.132812 C 111.21875 174.898438 140.171875 189.402344 160.460938 178.523438 C 180.75 167.644531 184.6875 135.503906 169.261719 106.734375 C 153.832031 77.964844 124.882812 63.460938 104.59375 74.339844 Z M 104.59375 74.339844 " clip-rule="nonzero"/></clipPath><clipPath id="603e749ca9"><path d="M 91 79 L 176 79 L 176 181 L 91 181 Z M 91 79 " clip-rule="nonzero"/></clipPath><clipPath id="a1b5cbc607"><path d="M 74.710938 101.265625 L 142.222656 65.0625 L 192.707031 159.210938 L 125.195312 195.414062 Z M 74.710938 101.265625 " clip-rule="nonzero"/></clipPath><clipPath id="79fdcb1da2"><path d="M 108.464844 83.164062 C 89.820312 93.160156 85.980469 122.285156 99.882812 148.210938 C 113.785156 174.136719 140.171875 187.050781 158.8125 177.054688 C 177.457031 167.058594 181.300781 137.933594 167.394531 112.007812 C 153.492188 86.082031 127.109375 73.167969 108.464844 83.164062 Z M 108.464844 83.164062 " clip-rule="nonzero"/></clipPath><clipPath id="863b2318e4"><path d="M 0 0 L 85 0 L 85 102 L 0 102 Z M 0 0 " clip-rule="nonzero"/></clipPath><clipPath id="0d0717ab5d"><path d="M -16.289062 22.265625 L 51.222656 -13.9375 L 101.707031 80.210938 L 34.195312 116.414062 Z M -16.289062 22.265625 " clip-rule="nonzero"/></clipPath><clipPath id="1af57784de"><path d="M 17.464844 4.164062 C -1.179688 14.160156 -5.019531 43.285156 8.882812 69.210938 C 22.785156 95.136719 49.171875 108.050781 67.8125 98.054688 C 86.457031 88.058594 90.300781 58.933594 76.394531 33.007812 C 62.492188 7.082031 36.109375 -5.832031 17.464844 4.164062 Z M 17.464844 4.164062 " clip-rule="nonzero"/></clipPath><clipPath id="d451e20587"><rect x="0" width="85" y="0" height="102"/></clipPath><clipPath id="8176dcdc37"><path d="M 110 108 L 166 108 L 166 155 L 110 155 Z M 110 108 " clip-rule="nonzero"/></clipPath><clipPath id="bb75f4cd29"><path d="M 65.820312 123.945312 L 156.324219 90.378906 L 186.027344 170.464844 L 95.523438 204.03125 Z M 65.820312 123.945312 " clip-rule="nonzero"/></clipPath><clipPath id="65c0f7e521"><path d="M 65.636719 123.449219 L 156.140625 89.882812 L 186.085938 170.621094 L 95.582031 204.1875 Z M 65.636719 123.449219 " clip-rule="nonzero"/></clipPath><clipPath id="f25c5ad666"><path d="M 57.449219 101.375 L 295.753906 12.988281 L 333.910156 115.863281 L 95.605469 204.25 Z M 57.449219 101.375 " clip-rule="nonzero"/></clipPath><clipPath id="28f283ebd4"><rect x="0" width="255" y="0" height="261"/></clipPath></defs><g transform="matrix(1, 0, 0, 1, 115, 297)"><g clip-path="url(#da340c9b81)"><g clip-path="url(#cd184494f7)"><g clip-path="url(#925cc15af2)"><g clip-path="url(#5ba2d6fe4f)"><g transform="matrix(1, 0, 0, 1, 57, 64)"><g clip-path="url(#895d8058c5)"><g clip-path="url(#d6d5891073)"><g clip-path="url(#497f8b10b8)"><g clip-path="url(#d8809f5682)"><path fill="#ffffff" d="M -27.816406 47.167969 L 59.96875 -26.195312 L 163.996094 98.277344 L 76.210938 171.640625 Z M -27.816406 47.167969 " fill-opacity="1" fill-rule="nonzero"/></g></g></g></g></g></g></g></g><g clip-path="url(#33eb3929d5)"><g clip-path="url(#ac05f988d2)"><g clip-path="url(#cd3bd3509f)"><g clip-path="url(#ac8c11360c)"><path stroke-linecap="butt" transform="matrix(0.524983, -0.438752, 0.438752, 0.524983, 29.187056, 111.170919)" fill="none" stroke-linejoin="miter" d="M 83.601895 0.00336998 C 37.427138 0.000598196 0.00236901 53.078417 -0.0000619937 118.554671 C 0.00116826 184.026545 37.431473 237.102583 83.601849 237.101693 C 129.772225 237.100804 167.201375 184.026646 167.203806 118.550392 C 167.202576 53.078518 129.772271 0.00248051 83.601895 0.00336998 Z M 83.601895 0.00336998 " stroke="#000000" stroke-width="6.577157" stroke-opacity="1" stroke-miterlimit="4"/></g></g></g></g><g clip-path="url(#ee75d969a4)"><g clip-path="url(#da08646275)"><g clip-path="url(#46bc76a0fb)"><g transform="matrix(1, 0, 0, 1, 70, 53)"><g clip-path="url(#bf9d950afb)"><g clip-path="url(#5c656f3f0c)"><g clip-path="url(#03219d35be)"><g clip-path="url(#23f25e8ceb)"><path fill="#ffffff" d="M -27.3125 47.269531 L 60.46875 -26.09375 L 164.496094 98.378906 L 76.714844 171.742188 Z M -27.3125 47.269531 " fill-opacity="1" fill-rule="nonzero"/></g></g></g></g></g></g></g></g><g clip-path="url(#d25934eca8)"><g clip-path="url(#d2feb4d789)"><g clip-path="url(#8c3167a3bc)"><g clip-path="url(#6d079826e5)"><path stroke-linecap="butt" transform="matrix(0.524983, -0.438752, 0.438752, 0.524983, 42.687994, 100.272833)" fill="none" stroke-linejoin="miter" d="M 83.601173 0.00209558 C 37.430798 0.00298505 0.0016474 53.077143 -0.000783607 118.553397 C 0.000446648 184.02527 37.430752 237.101308 83.601127 237.100419 C 129.775884 237.103191 167.200653 184.025372 167.203084 118.549117 C 167.201854 53.077244 129.771549 0.0012061 83.601173 0.00209558 Z M 83.601173 0.00209558 " stroke="#000000" stroke-width="6.577157" stroke-opacity="1" stroke-miterlimit="4"/></g></g></g></g><g clip-path="url(#7c408973f0)"><g clip-path="url(#66df3473d0)"><g clip-path="url(#ccb4b4cd91)"><g transform="matrix(1, 0, 0, 1, 86, 73)"><g clip-path="url(#de143d4eb9)"><g clip-path="url(#dd42d4d6c5)"><g clip-path="url(#cc9e1026d5)"><g clip-path="url(#40620a0e65)"><path fill="#000000" d="M -20.0625 34.679688 L 44.378906 -19.175781 L 120.742188 72.195312 L 56.300781 126.050781 Z M -20.0625 34.679688 " fill-opacity="1" fill-rule="nonzero"/></g></g></g></g></g></g></g></g><g clip-path="url(#7048577bd8)"><g clip-path="url(#e933f86a74)"><g clip-path="url(#db78828bf0)"><g clip-path="url(#9eeac79f70)"><path stroke-linecap="butt" transform="matrix(0.524983, -0.438752, 0.438752, 0.524983, 65.939164, 107.678849)" fill="none" stroke-linejoin="miter" d="M 61.367543 0.000357319 C 27.474421 0.00115683 0.00190513 38.962769 0.00157407 87.022066 C 0.00124301 135.081364 27.478493 174.042868 61.367954 174.046449 C 95.256695 174.041988 122.733591 135.084037 122.733922 87.02474 C 122.737915 38.961062 95.260665 -0.00044219 61.367543 0.000357319 Z M 61.367543 0.000357319 " stroke="#000000" stroke-width="6.577157" stroke-opacity="1" stroke-miterlimit="4"/></g></g></g></g><path stroke-linecap="butt" transform="matrix(0.560404, -0.392502, 0.392502, 0.560404, 58.128734, 104.415118)" fill="none" stroke-linejoin="miter" d="M -0.000967601 2.499818 L 23.246011 2.498894 " stroke="#000000" stroke-width="5" stroke-opacity="1" stroke-miterlimit="4"/><path stroke-linecap="butt" transform="matrix(0.645298, -0.227378, 0.227378, 0.645298, 59.424974, 129.340106)" fill="none" stroke-linejoin="miter" d="M -0.00158705 2.49909 L 23.24335 2.49944 " stroke="#000000" stroke-width="5" stroke-opacity="1" stroke-miterlimit="4"/><path stroke-linecap="butt" transform="matrix(0.603582, -0.322178, 0.322178, 0.603582, 71.343954, 154.842713)" fill="none" stroke-linejoin="miter" d="M -0.00116826 2.4992 L 23.24457 2.500848 " stroke="#000000" stroke-width="5" stroke-opacity="1" stroke-miterlimit="4"/><path stroke-linecap="butt" transform="matrix(0.487921, -0.479629, 0.479629, 0.487921, 88.711712, 179.507603)" fill="none" stroke-linejoin="miter" d="M 0.000210723 2.498478 L 23.246777 2.501101 " stroke="#000000" stroke-width="5" stroke-opacity="1" stroke-miterlimit="4"/><path stroke-linecap="butt" transform="matrix(0.415321, -0.543709, 0.543709, 0.415321, 110.061866, 195.576793)" fill="none" stroke-linejoin="miter" d="M 0.00276104 2.499247 L 23.244091 2.498752 " stroke="#000000" stroke-width="5" stroke-opacity="1" stroke-miterlimit="4"/><path stroke-linecap="butt" transform="matrix(0.415321, -0.543709, 0.543709, 0.415321, 135.05623, 205.997983)" fill="none" stroke-linejoin="miter" d="M 0.0000348258 2.497325 L 23.24483 2.501368 " stroke="#000000" stroke-width="5" stroke-opacity="1" stroke-miterlimit="4"/><g clip-path="url(#51e89338ce)"><g clip-path="url(#70912e24fd)"><g clip-path="url(#40b08cfe8e)"><g transform="matrix(1, 0, 0, 1, 92, 81)"><g clip-path="url(#5583234a4e)"><g clip-path="url(#f860307d07)"><g clip-path="url(#446c10fc97)"><g clip-path="url(#7026b4512b)"><path fill="#a9c5e7" d="M -17.835938 32.40625 L 41.375 -17.078125 L 110.183594 65.257812 L 50.976562 114.738281 Z M -17.835938 32.40625 " fill-opacity="1" fill-rule="nonzero"/></g></g></g></g></g></g></g></g><g clip-path="url(#d99293348a)"><g clip-path="url(#5ac96a9fe8)"><g clip-path="url(#5ee379940b)"><path fill="#ffffff" d="M 159.769531 136.824219 C 143.222656 152.847656 128.347656 149.125 118.910156 147 C 118.324219 146.863281 117.625 147.507812 118.617188 148.089844 C 122.292969 150.371094 133.410156 155.113281 144.566406 151.351562 C 155.734375 147.585938 160.320312 139.253906 160.792969 137.910156 C 161.265625 136.578125 160.484375 136.195312 159.769531 136.824219 Z M 164.273438 131.902344 C 163.511719 131.390625 160.777344 132.167969 159.15625 132.945312 C 157.53125 133.71875 155.335938 135.613281 155.765625 136.160156 C 155.957031 136.355469 156.15625 136.171875 157.285156 135.675781 C 158.414062 135.167969 161.542969 133.652344 162.527344 134.3125 C 163.511719 134.976562 163.226562 139.832031 163.140625 140.628906 C 163.070312 141.421875 163.550781 141.457031 163.96875 140.804688 C 164.378906 140.15625 165 138.621094 165.121094 136.710938 C 165.230469 134.789062 164.851562 132.289062 164.273438 131.902344 Z M 164.273438 131.902344 " fill-opacity="1" fill-rule="nonzero"/></g></g></g><g clip-path="url(#4668d2db37)"><g clip-path="url(#fc434c900e)"><g clip-path="url(#027bb50364)"><path fill="#ffffff" d="M 140.066406 122.152344 C 140.894531 124.613281 141.648438 126.644531 141.140625 129.25 C 140.738281 131.367188 139.515625 132.996094 137.738281 133.59375 C 135.3125 134.414062 133.277344 133.039062 132.355469 130.3125 C 130.542969 124.929688 135.035156 122.324219 139.601562 120.785156 Z M 151.625 135.402344 C 151.335938 135.917969 150.738281 136.148438 150.183594 136.058594 C 147.5 135.023438 146.855469 134.339844 145.140625 133.066406 C 142.867188 137.773438 140.769531 139.65625 136.277344 141.171875 C 130.964844 142.964844 125.71875 141.082031 123.503906 134.515625 C 121.773438 129.390625 123.378906 124.960938 126.757812 121.921875 C 129.675781 119.253906 134.375 117.375 137.894531 115.722656 L 137.621094 114.902344 C 137.113281 113.402344 136.628906 111.585938 135.3125 110.585938 C 134.148438 109.683594 132.511719 109.699219 131.214844 110.136719 C 128.804688 110.949219 127.074219 112.910156 127.410156 115.644531 C 127.496094 116.25 127.269531 116.949219 126.707031 117.167969 L 120.355469 118.578125 C 119.800781 118.636719 119.09375 118.410156 118.96875 117.570312 C 117.875 109.667969 123.828125 105.167969 129.835938 103.144531 C 132.910156 102.105469 137.199219 101.570312 140.410156 103.078125 C 144.453125 104.914062 145.449219 108.839844 146.855469 113.007812 L 150.175781 122.851562 C 151.171875 125.808594 152.835938 126.695312 154.53125 127.902344 C 155.128906 128.335938 155.449219 128.988281 155.078125 129.589844 C 154.152344 131.097656 152.535156 133.871094 151.648438 135.414062 L 151.625 135.402344 " fill-opacity="1" fill-rule="evenodd"/></g></g></g><g clip-path="url(#7673417877)"><g clip-path="url(#b5d8da0214)"><g clip-path="url(#7d1c5ffdb0)"><path fill="#ffffff" d="M 159.769531 136.824219 C 143.222656 152.847656 128.347656 149.125 118.910156 147 C 118.324219 146.863281 117.625 147.507812 118.617188 148.089844 C 122.292969 150.371094 133.410156 155.113281 144.566406 151.351562 C 155.734375 147.585938 160.320312 139.253906 160.792969 137.910156 C 161.265625 136.578125 160.484375 136.195312 159.769531 136.824219 Z M 164.273438 131.902344 C 163.511719 131.390625 160.777344 132.167969 159.15625 132.945312 C 157.53125 133.71875 155.335938 135.613281 155.765625 136.160156 C 155.957031 136.355469 156.15625 136.171875 157.285156 135.675781 C 158.414062 135.167969 161.542969 133.652344 162.527344 134.3125 C 163.511719 134.976562 163.226562 139.832031 163.140625 140.628906 C 163.070312 141.421875 163.550781 141.457031 163.96875 140.804688 C 164.378906 140.15625 165 138.621094 165.121094 136.710938 C 165.230469 134.789062 164.851562 132.289062 164.273438 131.902344 Z M 164.273438 131.902344 " fill-opacity="1" fill-rule="nonzero"/></g></g></g><g clip-path="url(#2f753594a5)"><g clip-path="url(#5215460fd0)"><g clip-path="url(#25b0c78879)"><path fill="#ffffff" d="M 140.066406 122.152344 C 140.894531 124.613281 141.648438 126.644531 141.140625 129.25 C 140.738281 131.367188 139.515625 132.996094 137.738281 133.59375 C 135.3125 134.414062 133.277344 133.039062 132.355469 130.3125 C 130.542969 124.929688 135.035156 122.324219 139.601562 120.785156 Z M 151.625 135.402344 C 151.335938 135.917969 150.738281 136.148438 150.183594 136.058594 C 147.5 135.023438 146.855469 134.339844 145.140625 133.066406 C 142.867188 137.773438 140.769531 139.65625 136.277344 141.171875 C 130.964844 142.964844 125.71875 141.082031 123.503906 134.515625 C 121.773438 129.390625 123.378906 124.960938 126.757812 121.921875 C 129.675781 119.253906 134.375 117.375 137.894531 115.722656 L 137.621094 114.902344 C 137.113281 113.402344 136.628906 111.585938 135.3125 110.585938 C 134.148438 109.683594 132.511719 109.699219 131.214844 110.136719 C 128.804688 110.949219 127.074219 112.910156 127.410156 115.644531 C 127.496094 116.25 127.269531 116.949219 126.707031 117.167969 L 120.355469 118.578125 C 119.800781 118.636719 119.09375 118.410156 118.96875 117.570312 C 117.875 109.667969 123.828125 105.167969 129.835938 103.144531 C 132.910156 102.105469 137.199219 101.570312 140.410156 103.078125 C 144.453125 104.914062 145.449219 108.839844 146.855469 113.007812 L 150.175781 122.851562 C 151.171875 125.808594 152.835938 126.695312 154.53125 127.902344 C 155.128906 128.335938 155.449219 128.988281 155.078125 129.589844 C 154.152344 131.097656 152.535156 133.871094 151.648438 135.414062 L 151.625 135.402344 " fill-opacity="1" fill-rule="evenodd"/></g></g></g></g></g><g transform="matrix(1, 0, 0, 1, 183, 253)"><g clip-path="url(#da4d0c7c0b)"><g clip-path="url(#7f3605d39f)"><g clip-path="url(#0b020a847b)"><g clip-path="url(#559f7d55e0)"><g transform="matrix(1, 0, 0, 1, 58, 67)"><g clip-path="url(#92b2af4ae9)"><g clip-path="url(#ed44180499)"><g clip-path="url(#959408449e)"><g clip-path="url(#05af866218)"><path fill="#ffffff" d="M -28.175781 51.621094 L 60.332031 -27.96875 L 173.1875 97.53125 L 84.679688 177.121094 Z M -28.175781 51.621094 " fill-opacity="1" fill-rule="nonzero"/></g></g></g></g></g></g></g></g><g clip-path="url(#b73143c353)"><g clip-path="url(#8f3f3c507f)"><g clip-path="url(#4115e6fdd8)"><g clip-path="url(#c0e8c715ab)"><path stroke-linecap="butt" transform="matrix(0.516363, -0.464351, 0.464351, 0.516363, 29.827404, 118.624241)" fill="none" stroke-linejoin="miter" d="M 85.695685 0.00130263 C 38.368935 0.00195275 -0.00231396 54.406323 0.0000266039 121.51687 C -0.00139407 188.631599 38.369328 243.040624 85.696078 243.039974 C 133.022828 243.039324 171.389894 188.631192 171.387553 121.520645 C 171.388974 54.405916 133.022435 0.00065251 85.695685 0.00130263 Z M 85.695685 0.00130263 " stroke="#000000" stroke-width="6.48" stroke-opacity="1" stroke-miterlimit="4"/></g></g></g></g><g clip-path="url(#a2f3603922)"><g clip-path="url(#106eb13647)"><g clip-path="url(#adeff7ff2a)"><g transform="matrix(1, 0, 0, 1, 72, 55)"><g clip-path="url(#86a24624fd)"><g clip-path="url(#1d9e6d9f43)"><g clip-path="url(#1a7c6f7d52)"><g clip-path="url(#5ee1f1c30f)"><path fill="#ffffff" d="M -28.546875 51.78125 L 59.957031 -27.808594 L 172.8125 97.6875 L 84.308594 177.277344 Z M -28.546875 51.78125 " fill-opacity="1" fill-rule="nonzero"/></g></g></g></g></g></g></g></g><g clip-path="url(#cd841fd6b8)"><g clip-path="url(#327bbe03ad)"><g clip-path="url(#a42e832369)"><g clip-path="url(#f43d199628)"><path stroke-linecap="butt" transform="matrix(0.516363, -0.464351, 0.464351, 0.516363, 43.453967, 106.78388)" fill="none" stroke-linejoin="miter" d="M 85.693514 0.000352114 C 38.366764 0.00100224 -0.000302375 54.409134 0.00203819 121.519681 C 0.000617515 188.63441 38.367157 243.039673 85.693907 243.039023 C 133.024839 243.042134 171.391905 188.634003 171.393326 121.519273 C 171.390985 54.408726 133.020264 -0.000298008 85.693514 0.000352114 Z M 85.693514 0.000352114 " stroke="#000000" stroke-width="6.48" stroke-opacity="1" stroke-miterlimit="4"/></g></g></g></g><g clip-path="url(#bab12f5314)"><g clip-path="url(#c4bce2daf0)"><g clip-path="url(#a513c52059)"><g transform="matrix(1, 0, 0, 1, 89, 75)"><g clip-path="url(#60ff4c2a62)"><g clip-path="url(#03f0d3a1b4)"><g clip-path="url(#5fa9a99ae6)"><g clip-path="url(#776c20b5f5)"><path fill="#000000" d="M -21.09375 38.609375 L 43.875 -19.816406 L 126.71875 72.308594 L 61.75 130.734375 Z M -21.09375 38.609375 " fill-opacity="1" fill-rule="nonzero"/></g></g></g></g></g></g></g></g><g clip-path="url(#e1a346a10a)"><g clip-path="url(#165a3431e6)"><g clip-path="url(#4542770713)"><g clip-path="url(#b545f10742)"><path stroke-linecap="butt" transform="matrix(0.516363, -0.464351, 0.464351, 0.516363, 67.907218, 113.608645)" fill="none" stroke-linejoin="miter" d="M 62.906872 0.00129306 C 28.162514 -0.000194771 0.00137143 39.937882 0.00112694 89.200449 C 0.00130376 138.470958 28.164485 178.405184 62.908844 178.406672 C 97.64902 178.404398 125.810162 138.466321 125.810407 89.203755 C 125.814413 39.937006 97.647048 -0.000980346 62.906872 0.00129306 Z M 62.906872 0.00129306 " stroke="#000000" stroke-width="6.48" stroke-opacity="1" stroke-miterlimit="4"/></g></g></g></g><path stroke-linecap="butt" transform="matrix(0.553993, -0.418741, 0.418741, 0.553993, 59.479767, 110.265843)" fill="none" stroke-linejoin="miter" d="M -0.00347533 3.000738 L 23.829819 2.999871 " stroke="#000000" stroke-width="6" stroke-opacity="1" stroke-miterlimit="4"/><path stroke-linecap="butt" transform="matrix(0.646178, -0.254375, 0.254375, 0.646178, 61.83954, 136.092619)" fill="none" stroke-linejoin="miter" d="M -0.00152768 2.999547 L 23.828875 2.998548 " stroke="#000000" stroke-width="6" stroke-opacity="1" stroke-miterlimit="4"/><path stroke-linecap="butt" transform="matrix(0.600377, -0.348999, 0.348999, 0.600377, 75.15245, 162.179141)" fill="none" stroke-linejoin="miter" d="M -0.000426002 3.000079 L 23.826536 2.998713 " stroke="#000000" stroke-width="6" stroke-opacity="1" stroke-miterlimit="4"/><path stroke-linecap="butt" transform="matrix(0.477267, -0.50445, 0.50445, 0.477267, 94.072372, 187.222929)" fill="none" stroke-linejoin="miter" d="M -0.00137714 3.001732 L 23.824897 3.000956 " stroke="#000000" stroke-width="6" stroke-opacity="1" stroke-miterlimit="4"/><path stroke-linecap="butt" transform="matrix(0.401269, -0.566777, 0.566777, 0.401269, 116.849638, 203.158729)" fill="none" stroke-linejoin="miter" d="M -0.000200523 3.001575 L 23.823955 2.999284 " stroke="#000000" stroke-width="6" stroke-opacity="1" stroke-miterlimit="4"/><path stroke-linecap="butt" transform="matrix(0.401269, -0.566777, 0.566777, 0.401269, 143.230357, 213.051639)" fill="none" stroke-linejoin="miter" d="M 0.000976106 2.997543 L 23.828381 2.999842 " stroke="#000000" stroke-width="6" stroke-opacity="1" stroke-miterlimit="4"/><g clip-path="url(#0d69dfe922)"><g clip-path="url(#bf16279806)"><g clip-path="url(#2375cc7eb9)"><g transform="matrix(1, 0, 0, 1, 96, 84)"><g clip-path="url(#d8ea41cf25)"><g clip-path="url(#23b8727e7b)"><g clip-path="url(#399bd5dea2)"><g clip-path="url(#4933a70766)"><path fill="#a9c5e7" d="M -19.320312 35.253906 L 40.375 -18.429688 L 115.027344 64.585938 L 55.332031 118.265625 Z M -19.320312 35.253906 " fill-opacity="1" fill-rule="nonzero"/></g></g></g></g></g></g></g></g><g clip-path="url(#3eb7592cba)"><g clip-path="url(#c1e8f535d6)"><g clip-path="url(#ca1782e276)"><path fill="#ffffff" d="M 158.089844 104.03125 L 164.953125 124.300781 L 144.679688 131.164062 L 137.820312 110.890625 Z M 158.089844 104.03125 " fill-opacity="1" fill-rule="nonzero"/></g></g></g><g clip-path="url(#aa3903383a)"><g clip-path="url(#86b1af45bc)"><g clip-path="url(#74de85b347)"><path fill="#ffffff" d="M 152.253906 153.546875 L 145.394531 133.273438 L 165.667969 126.414062 L 172.527344 146.6875 Z M 152.253906 153.546875 " fill-opacity="1" fill-rule="nonzero"/></g></g></g><g clip-path="url(#7e9b1d7976)"><g clip-path="url(#0f9f7fec24)"><g clip-path="url(#f37ac664e4)"><path fill="#ffffff" d="M 135.699219 111.609375 L 142.558594 131.878906 L 122.289062 138.742188 L 115.425781 118.46875 Z M 135.699219 111.609375 " fill-opacity="1" fill-rule="nonzero"/></g></g></g><g clip-path="url(#da3b2d2dad)"><g clip-path="url(#4fdc0a5c44)"><g clip-path="url(#c832dc05af)"><path fill="#ffffff" d="M 129.863281 161.125 L 123.003906 140.851562 L 143.273438 133.992188 L 150.136719 154.261719 Z M 129.863281 161.125 " fill-opacity="1" fill-rule="nonzero"/></g></g></g></g></g><g transform="matrix(1, 0, 0, 1, 268, 215)"><g clip-path="url(#9ed30f6729)"><g clip-path="url(#6a4f484a43)"><g clip-path="url(#dc0be0aa09)"><g clip-path="url(#92a8502c83)"><g transform="matrix(1, 0, 0, 1, 59, 68)"><g clip-path="url(#cf0863b5b2)"><g clip-path="url(#7f830e30c0)"><g clip-path="url(#db0bec4f62)"><g clip-path="url(#736d8732c8)"><path fill="#ffffff" d="M -29.011719 52.683594 L 61.300781 -28.707031 L 176.710938 99.351562 L 86.398438 180.742188 Z M -29.011719 52.683594 " fill-opacity="1" fill-rule="nonzero"/></g></g></g></g></g></g></g></g><g clip-path="url(#3da0d594bb)"><g clip-path="url(#2cf321b2b3)"><g clip-path="url(#ec9be183d5)"><g clip-path="url(#2c57625815)"><path stroke-linecap="butt" transform="matrix(0.684518, -0.616899, 0.616899, 0.684518, 29.989402, 120.684886)" fill="none" stroke-linejoin="miter" d="M 65.961841 -0.00135958 C 29.529287 0.000643083 -0.0000450729 41.878595 0.000557097 93.535018 C -0.00167865 145.19459 29.533169 187.071243 65.962885 187.072389 C 102.389451 187.070697 131.921933 145.195583 131.924168 93.536011 C 131.920417 41.876751 102.391556 -0.000213246 65.961841 -0.00135958 Z M 65.961841 -0.00135958 " stroke="#000000" stroke-width="4.883439" stroke-opacity="1" stroke-miterlimit="4"/></g></g></g></g><g clip-path="url(#dabf98ea8a)"><g clip-path="url(#7c06eead7c)"><g clip-path="url(#7d6545e2c7)"><g transform="matrix(1, 0, 0, 1, 73, 56)"><g clip-path="url(#a748f7ccfe)"><g clip-path="url(#45f484dd67)"><g clip-path="url(#b82c29d111)"><g clip-path="url(#66fb466b8a)"><path fill="#ffffff" d="M -29.105469 52.574219 L 61.207031 -28.816406 L 176.617188 99.242188 L 86.304688 180.636719 Z M -29.105469 52.574219 " fill-opacity="1" fill-rule="nonzero"/></g></g></g></g></g></g></g></g><g clip-path="url(#22fcbbbd3d)"><g clip-path="url(#f63c304838)"><g clip-path="url(#7fe298acac)"><g clip-path="url(#71358a4a7e)"><path stroke-linecap="butt" transform="matrix(0.684518, -0.616899, 0.616899, 0.684518, 43.894841, 108.575991)" fill="none" stroke-linejoin="miter" d="M 65.960006 0.00199152 C 29.53029 0.000845191 0.000957907 41.878798 0.00156008 93.53522 C -0.000675675 145.194792 29.534172 187.071445 65.960739 187.069753 C 102.390454 187.070899 131.922936 145.195785 131.922022 93.533376 C 131.92142 41.876953 102.392559 -0.0000111378 65.960006 0.00199152 Z M 65.960006 0.00199152 " stroke="#000000" stroke-width="4.883439" stroke-opacity="1" stroke-miterlimit="4"/></g></g></g></g><g clip-path="url(#9696ebbb4f)"><g clip-path="url(#a40d5df08d)"><g clip-path="url(#2d31c24e1f)"><g transform="matrix(1, 0, 0, 1, 90, 76)"><g clip-path="url(#5993edde47)"><g clip-path="url(#4e330c69f0)"><g clip-path="url(#e29217d697)"><g clip-path="url(#d9e4081e16)"><path fill="#000000" d="M -21.125 39.523438 L 45.171875 -20.222656 L 129.890625 73.78125 L 63.59375 133.53125 Z M -21.125 39.523438 " fill-opacity="1" fill-rule="nonzero"/></g></g></g></g></g></g></g></g><g clip-path="url(#16166aaa5f)"><g clip-path="url(#007f0d074d)"><g clip-path="url(#7259695607)"><g clip-path="url(#854e90fe20)"><path stroke-linecap="butt" transform="matrix(0.684518, -0.616899, 0.616899, 0.684518, 68.874117, 115.52348)" fill="none" stroke-linejoin="miter" d="M 48.421511 0.0000426837 C 21.6808 -0.000271418 0.00120772 30.742327 0.00252227 68.66368 C 0.000998901 106.588181 21.678372 137.326184 48.422232 137.329336 C 75.162943 137.32965 96.842536 106.587051 96.844059 68.66255 C 96.842745 30.741197 75.162222 0.000356786 48.421511 0.0000426837 Z M 48.421511 0.0000426837 " stroke="#000000" stroke-width="4.883439" stroke-opacity="1" stroke-miterlimit="4"/></g></g></g></g><path stroke-linecap="butt" transform="matrix(0.734515, -0.556431, 0.556431, 0.734515, 60.433687, 112.345326)" fill="none" stroke-linejoin="miter" d="M 0.00149828 1.998608 L 18.341725 2.001264 " stroke="#000000" stroke-width="4" stroke-opacity="1" stroke-miterlimit="4"/><path stroke-linecap="butt" transform="matrix(0.857073, -0.338459, 0.338459, 0.857073, 62.805035, 138.760764)" fill="none" stroke-linejoin="miter" d="M -0.00215784 2.001077 L 18.343251 1.999018 " stroke="#000000" stroke-width="4" stroke-opacity="1" stroke-miterlimit="4"/><path stroke-linecap="butt" transform="matrix(0.796163, -0.463954, 0.463954, 0.796163, 76.470474, 165.372521)" fill="none" stroke-linejoin="miter" d="M 0.0000544755 2.000027 L 18.33939 2.001023 " stroke="#000000" stroke-width="4" stroke-opacity="1" stroke-miterlimit="4"/><path stroke-linecap="butt" transform="matrix(0.632582, -0.670051, 0.670051, 0.632582, 95.886684, 190.881191)" fill="none" stroke-linejoin="miter" d="M 0.00127231 1.998464 L 18.341533 1.998232 " stroke="#000000" stroke-width="4" stroke-opacity="1" stroke-miterlimit="4"/><path stroke-linecap="butt" transform="matrix(0.531649, -0.752647, 0.752647, 0.531649, 119.19478, 207.102109)" fill="none" stroke-linejoin="miter" d="M 0.000656688 1.9984 L 18.343831 2.000752 " stroke="#000000" stroke-width="4" stroke-opacity="1" stroke-miterlimit="4"/><path stroke-linecap="butt" transform="matrix(0.531649, -0.752647, 0.752647, 0.531649, 146.151389, 217.177918)" fill="none" stroke-linejoin="miter" d="M -0.00113174 2.000224 L 18.339597 1.999114 " stroke="#000000" stroke-width="4" stroke-opacity="1" stroke-miterlimit="4"/><g clip-path="url(#3b8bd7e89f)"><g clip-path="url(#faa58265d4)"><g clip-path="url(#df02dc41c3)"><g transform="matrix(1, 0, 0, 1, 97, 85)"><g clip-path="url(#8b20f604a7)"><g clip-path="url(#cc5eccff1d)"><g clip-path="url(#0283c25dff)"><g clip-path="url(#5bdfea1af6)"><path fill="#a9c5e7" d="M -19.160156 36.28125 L 41.753906 -18.613281 L 118.097656 66.09375 L 57.183594 120.992188 Z M -19.160156 36.28125 " fill-opacity="1" fill-rule="nonzero"/></g></g></g></g></g></g></g></g><g clip-path="url(#7f7a9d8fc5)"><g clip-path="url(#e7d4e88c99)"><g clip-path="url(#e52acf1ce4)"><g clip-path="url(#09155e4db8)"><path fill="#ffffff" d="M 163.324219 150.96875 L 164.78125 149.441406 C 165.207031 149.011719 165.195312 148.339844 164.765625 147.914062 C 164.691406 147.875 164.601562 147.777344 164.53125 147.738281 L 161.539062 146.09375 C 161.101562 145.851562 160.519531 145.960938 160.207031 146.359375 C 159.15625 147.582031 157.9375 148.671875 156.617188 149.605469 C 148.003906 155.601562 136.167969 153.464844 130.175781 144.851562 C 129.011719 143.167969 128.097656 141.289062 127.523438 139.308594 C 126.652344 136.316406 126.535156 133.164062 127.191406 130.152344 L 132.296875 132.960938 C 131.707031 140.421875 137.28125 146.953125 144.742188 147.542969 C 148.4375 147.816406 152.117188 146.5625 154.894531 144.101562 C 155.339844 143.726562 155.382812 143.042969 154.992188 142.542969 C 154.90625 142.445312 154.816406 142.347656 154.6875 142.324219 L 151.679688 140.625 C 151.316406 140.425781 150.960938 140.464844 150.636719 140.621094 L 149.855469 141.09375 C 145.953125 143.269531 140.960938 141.902344 138.785156 138 C 137.773438 136.210938 137.464844 134.09375 137.988281 132.101562 L 138.316406 130.90625 C 138.425781 130.441406 138.222656 129.949219 137.785156 129.710938 L 125.386719 122.894531 C 124.878906 122.613281 124.199219 122.8125 123.917969 123.324219 C 123.878906 123.394531 123.878906 123.394531 123.839844 123.46875 L 123.175781 125.191406 C 121.0625 130.15625 120.832031 135.679688 122.324219 140.820312 C 126.082031 153.761719 139.648438 161.214844 152.644531 157.441406 C 156.710938 156.257812 160.355469 154.035156 163.324219 150.96875 Z M 163.324219 150.96875 " fill-opacity="1" fill-rule="nonzero"/></g></g></g></g><g clip-path="url(#29be430c9a)"><g clip-path="url(#cb171a1d14)"><g clip-path="url(#bc61bf82dd)"><g clip-path="url(#ea3d71db1a)"><path fill="#ffffff" d="M 168.5 142.84375 C 170.484375 137.855469 170.71875 132.335938 169.222656 127.195312 C 165.464844 114.253906 151.898438 106.796875 138.902344 110.574219 C 134.835938 111.757812 131.136719 113.996094 128.207031 116.992188 L 126.75 118.515625 C 126.324219 118.945312 126.335938 119.617188 126.765625 120.042969 C 126.839844 120.085938 126.929688 120.179688 127 120.222656 L 129.992188 121.863281 C 130.429688 122.105469 131.011719 121.996094 131.324219 121.601562 C 132.375 120.375 133.59375 119.285156 134.914062 118.351562 C 143.527344 112.355469 155.363281 114.492188 161.355469 123.105469 C 162.519531 124.792969 163.433594 126.671875 164.007812 128.648438 C 164.878906 131.644531 164.996094 134.792969 164.339844 137.804688 L 159.234375 134.996094 C 159.824219 127.535156 154.25 121.003906 146.789062 120.414062 C 145.15625 120.277344 143.492188 120.453125 141.910156 120.914062 C 141.683594 120.980469 140.738281 121.316406 140.570312 121.363281 C 139.148438 121.960938 137.792969 122.785156 136.636719 123.855469 C 136.191406 124.230469 136.148438 124.917969 136.539062 125.417969 C 136.625 125.511719 136.714844 125.609375 136.84375 125.632812 L 139.910156 127.316406 C 140.273438 127.515625 140.628906 127.476562 140.949219 127.320312 L 141.75 126.90625 C 145.652344 124.730469 150.644531 126.097656 152.820312 130 C 153.832031 131.789062 154.140625 133.90625 153.613281 135.894531 L 153.289062 137.09375 C 153.175781 137.554688 153.382812 138.046875 153.820312 138.289062 L 166.214844 145.101562 C 166.726562 145.382812 167.402344 145.1875 167.683594 144.675781 C 167.726562 144.601562 167.726562 144.601562 167.765625 144.53125 Z M 168.5 142.84375 " fill-opacity="1" fill-rule="nonzero"/></g></g></g></g></g></g><g transform="matrix(1, 0, 0, 1, 368, 191)"><g clip-path="url(#28f283ebd4)"><g clip-path="url(#e0788bf437)"><g clip-path="url(#b82b4f3475)"><g clip-path="url(#3565ed5a98)"><g transform="matrix(1, 0, 0, 1, 56, 58)"><g clip-path="url(#77ff933a33)"><g clip-path="url(#ae342e4510)"><g clip-path="url(#4199cb03dd)"><g clip-path="url(#00932283e7)"><path fill="#ffffff" d="M -24.574219 32.042969 L 75.523438 -21.632812 L 151.632812 120.296875 L 51.535156 173.972656 Z M -24.574219 32.042969 " fill-opacity="1" fill-rule="nonzero"/></g></g></g></g></g></g></g></g><g clip-path="url(#8eb3d64ab6)"><g clip-path="url(#9d109ab162)"><g clip-path="url(#38c8284fa3)"><g clip-path="url(#8f8ffad5d7)"><path stroke-linecap="butt" transform="matrix(0.612003, -0.328185, 0.328185, 0.612003, 31.427161, 90.042702)" fill="none" stroke-linejoin="miter" d="M 81.772544 0.00139355 C 36.609636 -0.00101975 -0.0011227 51.916966 0.00298941 115.957109 C -0.000513998 179.99955 36.611865 231.916696 81.774773 231.919109 C 126.932724 231.918864 163.54844 180.003536 163.546986 115.958437 C 163.545532 51.913337 126.938111 -0.00115037 81.772544 0.00139355 Z M 81.772544 0.00139355 " stroke="#000000" stroke-width="6.48" stroke-opacity="1" stroke-miterlimit="4"/></g></g></g></g><g clip-path="url(#b9db0f52e7)"><g clip-path="url(#d782680650)"><g clip-path="url(#9d3a388bae)"><g transform="matrix(1, 0, 0, 1, 71, 50)"><g clip-path="url(#6191d3c182)"><g clip-path="url(#f1b3724fdd)"><g clip-path="url(#c2d5076cb7)"><g clip-path="url(#d04119f3b4)"><path fill="#ffffff" d="M -24.257812 32.160156 L 75.839844 -21.515625 L 151.949219 120.417969 L 51.855469 174.09375 Z M -24.257812 32.160156 " fill-opacity="1" fill-rule="nonzero"/></g></g></g></g></g></g></g></g><g clip-path="url(#5c54fc2b81)"><g clip-path="url(#0c50184c71)"><g clip-path="url(#0f28880e62)"><g clip-path="url(#23b1ff3da0)"><path stroke-linecap="butt" transform="matrix(0.612003, -0.328185, 0.328185, 0.612003, 46.744357, 82.16193)" fill="none" stroke-linejoin="miter" d="M 81.772931 -0.00173385 C 36.612322 0.00346836 -0.000736025 51.913839 0.000717788 115.958938 C -0.00278562 180.00138 36.609593 231.918526 81.77516 231.915982 C 126.938068 231.918395 163.548827 180.000409 163.544715 115.960267 C 163.548218 51.917825 126.935839 0.00067945 81.772931 -0.00173385 Z M 81.772931 -0.00173385 " stroke="#000000" stroke-width="6.48" stroke-opacity="1" stroke-miterlimit="4"/></g></g></g></g><g clip-path="url(#a29a15e5aa)"><g clip-path="url(#7a98c3b42c)"><g clip-path="url(#77d7b60c7d)"><g transform="matrix(1, 0, 0, 1, 86, 70)"><g clip-path="url(#3edb1b3cb7)"><g clip-path="url(#e4c3cd6df0)"><g clip-path="url(#9e39cc039b)"><g clip-path="url(#882daa5bfe)"><path fill="#000000" d="M -18.144531 24.035156 L 55.332031 -15.367188 L 111.203125 88.820312 L 37.726562 128.222656 Z M -18.144531 24.035156 " fill-opacity="1" fill-rule="nonzero"/></g></g></g></g></g></g></g></g><g clip-path="url(#0750c0f86e)"><g clip-path="url(#11bf2c8c02)"><g clip-path="url(#fa7236191f)"><g clip-path="url(#04abb19084)"><path stroke-linecap="butt" transform="matrix(0.612003, -0.328185, 0.328185, 0.612003, 67.858526, 94.039556)" fill="none" stroke-linejoin="miter" d="M 60.024956 -0.000688526 C 26.873768 -0.00202281 -0.00321434 38.108756 -0.000549011 85.118996 C -0.000182604 132.121622 26.872503 170.231109 60.02369 170.232444 C 93.174878 170.233778 120.044245 132.125299 120.046537 85.117716 C 120.043872 38.107475 93.176144 0.000645759 60.024956 -0.000688526 Z M 60.024956 -0.000688526 " stroke="#000000" stroke-width="6.48" stroke-opacity="1" stroke-miterlimit="4"/></g></g></g></g><path stroke-linecap="butt" transform="matrix(0.637703, -0.274933, 0.274933, 0.637703, 60.906583, 89.262848)" fill="none" stroke-linejoin="miter" d="M 0.000713287 2.497742 L 22.737786 2.499581 " stroke="#000000" stroke-width="5" stroke-opacity="1" stroke-miterlimit="4"/><path stroke-linecap="butt" transform="matrix(0.688141, -0.0933553, 0.0933553, 0.688141, 57.164962, 113.752692)" fill="none" stroke-linejoin="miter" d="M 0.00019941 2.499464 L 22.734441 2.501309 " stroke="#000000" stroke-width="5" stroke-opacity="1" stroke-miterlimit="4"/><path stroke-linecap="butt" transform="matrix(0.666164, -0.196159, 0.196159, 0.666164, 63.61962, 140.945053)" fill="none" stroke-linejoin="miter" d="M -0.000443656 2.498236 L 22.737896 2.503175 " stroke="#000000" stroke-width="5" stroke-opacity="1" stroke-miterlimit="4"/><path stroke-linecap="butt" transform="matrix(0.583567, -0.376433, 0.376433, 0.583567, 75.536152, 168.42221)" fill="none" stroke-linejoin="miter" d="M -0.00212898 2.501513 L 22.73879 2.497981 " stroke="#000000" stroke-width="5" stroke-opacity="1" stroke-miterlimit="4"/><path stroke-linecap="butt" transform="matrix(0.524578, -0.45505, 0.45505, 0.524578, 93.058261, 188.341417)" fill="none" stroke-linejoin="miter" d="M -0.000134912 2.498894 L 22.740537 2.499829 " stroke="#000000" stroke-width="5" stroke-opacity="1" stroke-miterlimit="4"/><path stroke-linecap="butt" transform="matrix(0.524578, -0.45505, 0.45505, 0.524578, 115.263007, 203.498712)" fill="none" stroke-linejoin="miter" d="M 0.00333708 2.499914 L 22.736074 2.501411 " stroke="#000000" stroke-width="5" stroke-opacity="1" stroke-miterlimit="4"/><g clip-path="url(#603e749ca9)"><g clip-path="url(#a1b5cbc607)"><g clip-path="url(#79fdcb1da2)"><g transform="matrix(1, 0, 0, 1, 91, 79)"><g clip-path="url(#d451e20587)"><g clip-path="url(#863b2318e4)"><g clip-path="url(#0d0717ab5d)"><g clip-path="url(#1af57784de)"><path fill="#a9c5e7" d="M -16.289062 22.265625 L 51.222656 -13.9375 L 101.566406 79.945312 L 34.054688 116.148438 Z M -16.289062 22.265625 " fill-opacity="1" fill-rule="nonzero"/></g></g></g></g></g></g></g></g><g clip-path="url(#8176dcdc37)"><g clip-path="url(#bb75f4cd29)"><g clip-path="url(#65c0f7e521)"><g clip-path="url(#f25c5ad666)"><path fill="#ffffff" d="M 141.460938 109.222656 C 137.246094 110.785156 135.136719 115.195312 133.652344 120.351562 C 127.613281 116.632812 123.445312 115.90625 119.34375 117.425781 C 110.980469 120.527344 108.625 133.832031 112.914062 145.394531 C 115.597656 152.632812 120.78125 155.902344 126.621094 153.738281 C 130.824219 152.175781 133.109375 149.066406 134.984375 137.640625 C 134.984375 137.640625 135.753906 132.835938 136.28125 129.527344 C 137.144531 130.203125 138.0625 130.9375 139.035156 131.726562 L 143.136719 135.046875 C 151.105469 141.476562 154.875 143.257812 159.832031 141.417969 C 165.523438 139.308594 166.976562 133.507812 164.234375 126.121094 C 159.742188 114.011719 149.421875 106.273438 141.460938 109.222656 Z M 129.941406 136.605469 C 128.125 145.082031 127.1875 147.175781 124.761719 148.078125 C 122.265625 149.003906 119.964844 147.351562 118.507812 143.429688 C 115.394531 135.03125 116.382812 124.902344 121.351562 123.058594 C 124.042969 122.058594 126.871094 122.785156 132.152344 126.460938 C 130.75 132.710938 129.941406 136.605469 129.941406 136.605469 Z M 146.066406 129.644531 L 141.183594 125.714844 C 139.871094 124.683594 138.632812 123.75 137.464844 122.910156 C 138.621094 117.691406 140.085938 114.765625 142.75 113.777344 C 148.285156 111.722656 155.746094 118.265625 159.476562 128.316406 C 160.898438 132.144531 160.472656 134.832031 157.882812 135.792969 C 155.398438 136.714844 153.601562 135.507812 146.066406 129.644531 Z M 146.066406 129.644531 " fill-opacity="1" fill-rule="nonzero"/></g></g></g></g></g></g></svg>