<svg xmlns="http://www.w3.org/2000/svg" xmlns:xlink="http://www.w3.org/1999/xlink" width="1000" zoomAndPan="magnify" viewBox="0 0 750 749.999995" height="1000" preserveAspectRatio="xMidYMid meet" version="1.0"><defs><filter x="0%" y="0%" width="100%" height="100%" id="ed4df99f82"><feColorMatrix values="0 0 0 0 1 0 0 0 0 1 0 0 0 0 1 0 0 0 1 0" color-interpolation-filters="sRGB"/></filter><mask id="f6f10a3a00"><g filter="url(#ed4df99f82)"><rect x="-75" width="900" fill="#000000" y="-74.999999" height="899.999994" fill-opacity="0.13"/></g></mask><clipPath id="7c5702431a"><path d="M 4 6 L 135 6 L 135 99 L 4 99 Z M 4 6 " clip-rule="nonzero"/></clipPath><clipPath id="86bff6a53a"><path d="M 8.699219 0.734375 L 138.421875 12.011719 L 130.46875 103.496094 L 0.746094 92.21875 Z M 8.699219 0.734375 " clip-rule="nonzero"/></clipPath><clipPath id="0a005732cb"><path d="M 73.425781 6.359375 C 37.679688 3.253906 6.917969 21.214844 4.722656 46.476562 C 2.527344 71.738281 29.726562 94.738281 65.472656 97.84375 C 101.21875 100.953125 131.980469 82.992188 134.175781 57.730469 C 136.371094 32.46875 109.171875 9.46875 73.425781 6.359375 Z M 73.425781 6.359375 " clip-rule="nonzero"/></clipPath><clipPath id="45c5b1bc40"><path d="M 0 0 L 131 0 L 131 93 L 0 93 Z M 0 0 " clip-rule="nonzero"/></clipPath><clipPath id="72e89fab5c"><path d="M 4.699219 -5.265625 L 134.421875 6.011719 L 126.46875 97.496094 L -3.253906 86.21875 Z M 4.699219 -5.265625 " clip-rule="nonzero"/></clipPath><clipPath id="b81e7652c1"><path d="M 69.425781 0.359375 C 33.679688 -2.746094 2.917969 15.214844 0.722656 40.476562 C -1.472656 65.738281 25.726562 88.738281 61.472656 91.84375 C 97.21875 94.953125 127.980469 76.992188 130.175781 51.730469 C 132.371094 26.46875 105.171875 3.46875 69.425781 0.359375 Z M 69.425781 0.359375 " clip-rule="nonzero"/></clipPath><clipPath id="874fb5d250"><rect x="0" width="131" y="0" height="93"/></clipPath><clipPath id="b4af820f94"><rect x="0" width="139" y="0" height="104"/></clipPath><clipPath id="7601d6176c"><path d="M 307 373 L 438 373 L 438 467 L 307 467 Z M 307 373 " clip-rule="nonzero"/></clipPath><clipPath id="d6fe7a1ea5"><path d="M 302.371094 457.140625 L 313.886719 366.242188 L 443.128906 382.613281 L 431.617188 473.511719 Z M 302.371094 457.140625 " clip-rule="nonzero"/></clipPath><clipPath id="9975e90f52"><path d="M 308.128906 411.691406 C 304.949219 436.792969 331.226562 460.796875 366.820312 465.304688 C 402.414062 469.8125 433.84375 453.117188 437.023438 428.019531 C 440.203125 402.917969 413.925781 378.914062 378.332031 374.40625 C 342.738281 369.898438 311.308594 386.59375 308.128906 411.691406 Z M 308.128906 411.691406 " clip-rule="nonzero"/></clipPath><clipPath id="ae67094162"><path d="M 0 0 L 131 0 L 131 94 L 0 94 Z M 0 0 " clip-rule="nonzero"/></clipPath><clipPath id="a455fdac5e"><path d="M -4.628906 84.140625 L 6.886719 -6.757812 L 136.128906 9.613281 L 124.617188 100.511719 Z M -4.628906 84.140625 " clip-rule="nonzero"/></clipPath><clipPath id="c6440692ea"><path d="M 1.128906 38.691406 C -2.050781 63.792969 24.226562 87.796875 59.820312 92.304688 C 95.414062 96.8125 126.84375 80.117188 130.023438 55.019531 C 133.203125 29.917969 106.925781 5.914062 71.332031 1.40625 C 35.738281 -3.101562 4.308594 13.59375 1.128906 38.691406 Z M 1.128906 38.691406 " clip-rule="nonzero"/></clipPath><clipPath id="51053db353"><rect x="0" width="131" y="0" height="94"/></clipPath><clipPath id="ed716af39c"><path d="M 307 373 L 438 373 L 438 467 L 307 467 Z M 307 373 " clip-rule="nonzero"/></clipPath><clipPath id="4ee7c26b61"><path d="M 302.371094 457.140625 L 313.871094 366.367188 L 442.589844 382.667969 L 431.09375 473.445312 Z M 302.371094 457.140625 " clip-rule="nonzero"/></clipPath><clipPath id="66ad4ecbc2"><path d="M 302.371094 457.140625 L 313.894531 366.160156 L 443.695312 382.597656 L 432.171875 473.578125 Z M 302.371094 457.140625 " clip-rule="nonzero"/></clipPath><clipPath id="19fbcdc911"><path d="M 308.128906 411.695312 C 304.949219 436.792969 331.222656 460.792969 366.816406 465.300781 C 402.40625 469.808594 433.832031 453.117188 437.011719 428.019531 C 440.191406 402.921875 413.917969 378.921875 378.328125 374.414062 C 342.734375 369.90625 311.308594 386.597656 308.128906 411.695312 Z M 308.128906 411.695312 " clip-rule="nonzero"/></clipPath><clipPath id="ed4e9f1639"><path d="M 310 359 L 440 359 L 440 453 L 310 453 Z M 310 359 " clip-rule="nonzero"/></clipPath><clipPath id="d1e8b7a0db"><path d="M 304.832031 443.386719 L 316.34375 352.488281 L 445.585938 368.859375 L 434.074219 459.757812 Z M 304.832031 443.386719 " clip-rule="nonzero"/></clipPath><clipPath id="833af77211"><path d="M 310.589844 397.9375 C 307.410156 423.039062 333.6875 447.042969 369.28125 451.550781 C 404.871094 456.058594 436.304688 439.363281 439.484375 414.265625 C 442.664062 389.164062 416.386719 365.160156 380.792969 360.652344 C 345.199219 356.144531 313.765625 372.839844 310.589844 397.9375 Z M 310.589844 397.9375 " clip-rule="nonzero"/></clipPath><clipPath id="e66b630fb7"><path d="M 0 0 L 130 0 L 130 94 L 0 94 Z M 0 0 " clip-rule="nonzero"/></clipPath><clipPath id="2a42ff476b"><path d="M -5.167969 84.386719 L 6.34375 -6.511719 L 135.585938 9.859375 L 124.074219 100.757812 Z M -5.167969 84.386719 " clip-rule="nonzero"/></clipPath><clipPath id="33a67c179f"><path d="M 0.589844 38.9375 C -2.589844 64.039062 23.6875 88.042969 59.28125 92.550781 C 94.871094 97.058594 126.304688 80.363281 129.484375 55.265625 C 132.664062 30.164062 106.386719 6.160156 70.792969 1.652344 C 35.199219 -2.855469 3.765625 13.839844 0.589844 38.9375 Z M 0.589844 38.9375 " clip-rule="nonzero"/></clipPath><clipPath id="05fd677827"><rect x="0" width="130" y="0" height="94"/></clipPath><clipPath id="f58430aa06"><path d="M 310 359 L 440 359 L 440 453 L 310 453 Z M 310 359 " clip-rule="nonzero"/></clipPath><clipPath id="28afcf3721"><path d="M 304.832031 443.386719 L 316.328125 352.613281 L 445.050781 368.914062 L 433.554688 459.691406 Z M 304.832031 443.386719 " clip-rule="nonzero"/></clipPath><clipPath id="c339da2f8e"><path d="M 304.832031 443.386719 L 316.355469 352.40625 L 446.152344 368.84375 L 434.628906 459.824219 Z M 304.832031 443.386719 " clip-rule="nonzero"/></clipPath><clipPath id="1e3b921cf4"><path d="M 310.585938 397.941406 C 307.410156 423.039062 333.683594 447.039062 369.273438 451.546875 C 404.863281 456.054688 436.292969 439.363281 439.472656 414.265625 C 442.652344 389.167969 416.375 365.167969 380.785156 360.660156 C 345.195312 356.152344 313.765625 372.84375 310.585938 397.941406 Z M 310.585938 397.941406 " clip-rule="nonzero"/></clipPath><clipPath id="c1caed4d1d"><path d="M 326 373 L 422 373 L 422 442 L 326 442 Z M 326 373 " clip-rule="nonzero"/></clipPath><clipPath id="ea5765156e"><path d="M 322.507812 435.0625 L 330.960938 368.339844 L 425.835938 380.355469 L 417.382812 447.078125 Z M 322.507812 435.0625 " clip-rule="nonzero"/></clipPath><clipPath id="3f88aad2f4"><path d="M 326.734375 401.699219 C 324.402344 420.125 343.691406 437.746094 369.820312 441.054688 C 395.945312 444.363281 419.019531 432.109375 421.355469 413.683594 C 423.6875 395.257812 404.398438 377.640625 378.269531 374.332031 C 352.140625 371.019531 329.070312 383.273438 326.734375 401.699219 Z M 326.734375 401.699219 " clip-rule="nonzero"/></clipPath><clipPath id="c03caf3073"><path d="M 0 0 L 96 0 L 96 69 L 0 69 Z M 0 0 " clip-rule="nonzero"/></clipPath><clipPath id="812f7d1cfd"><path d="M -3.492188 62.0625 L 4.960938 -4.660156 L 99.835938 7.355469 L 91.382812 74.078125 Z M -3.492188 62.0625 " clip-rule="nonzero"/></clipPath><clipPath id="040e0e3355"><path d="M 0.734375 28.699219 C -1.597656 47.125 17.691406 64.746094 43.820312 68.054688 C 69.945312 71.363281 93.019531 59.109375 95.355469 40.683594 C 97.6875 22.257812 78.398438 4.640625 52.269531 1.332031 C 26.140625 -1.980469 3.070312 10.273438 0.734375 28.699219 Z M 0.734375 28.699219 " clip-rule="nonzero"/></clipPath><clipPath id="96aa912fb4"><rect x="0" width="96" y="0" height="69"/></clipPath><clipPath id="fa837d7672"><path d="M 326 373 L 422 373 L 422 442 L 326 442 Z M 326 373 " clip-rule="nonzero"/></clipPath><clipPath id="a09634edf1"><path d="M 322.507812 435.0625 L 330.992188 368.097656 L 425.484375 380.066406 L 417.003906 447.03125 Z M 322.507812 435.0625 " clip-rule="nonzero"/></clipPath><clipPath id="763ca3f0f6"><path d="M 322.507812 435.0625 L 330.96875 368.273438 L 426.25 380.34375 L 417.792969 447.128906 Z M 322.507812 435.0625 " clip-rule="nonzero"/></clipPath><clipPath id="9822029217"><path d="M 326.734375 401.703125 C 324.402344 420.125 343.6875 437.746094 369.816406 441.054688 C 395.941406 444.363281 419.011719 432.109375 421.347656 413.6875 C 423.679688 395.261719 404.390625 377.644531 378.265625 374.335938 C 352.140625 371.023438 329.066406 383.277344 326.734375 401.703125 Z M 326.734375 401.703125 " clip-rule="nonzero"/></clipPath><clipPath id="b3a2601786"><path d="M 334 377 L 420 377 L 420 440 L 334 440 Z M 334 377 " clip-rule="nonzero"/></clipPath><clipPath id="d40d282719"><path d="M 330.460938 433.933594 L 338.226562 372.628906 L 423.722656 383.457031 L 415.957031 444.765625 Z M 330.460938 433.933594 " clip-rule="nonzero"/></clipPath><clipPath id="a2cc92b584"><path d="M 334.34375 403.28125 C 332.199219 420.210938 349.550781 436.351562 373.09375 439.335938 C 396.640625 442.316406 417.464844 431.011719 419.609375 414.082031 C 421.753906 397.152344 404.402344 381.007812 380.859375 378.027344 C 357.316406 375.046875 336.488281 386.351562 334.34375 403.28125 Z M 334.34375 403.28125 " clip-rule="nonzero"/></clipPath><clipPath id="1de408136a"><path d="M 0 0 L 86 0 L 86 63 L 0 63 Z M 0 0 " clip-rule="nonzero"/></clipPath><clipPath id="f7de9ccf21"><path d="M -3.539062 56.933594 L 4.226562 -4.371094 L 89.722656 6.457031 L 81.957031 67.765625 Z M -3.539062 56.933594 " clip-rule="nonzero"/></clipPath><clipPath id="786929fb57"><path d="M 0.34375 26.28125 C -1.800781 43.210938 15.550781 59.351562 39.09375 62.335938 C 62.640625 65.316406 83.464844 54.011719 85.609375 37.082031 C 87.753906 20.152344 70.402344 4.007812 46.859375 1.027344 C 23.316406 -1.953125 2.488281 9.351562 0.34375 26.28125 Z M 0.34375 26.28125 " clip-rule="nonzero"/></clipPath><clipPath id="f7f6f62c75"><rect x="0" width="86" y="0" height="63"/></clipPath><clipPath id="dc2ecf8527"><path d="M 359 392 L 397 392 L 397 426 L 359 426 Z M 359 392 " clip-rule="nonzero"/></clipPath><clipPath id="fcca2dc0d4"><path d="M 354.875 412.898438 L 365.800781 389.03125 L 401.261719 405.261719 L 390.335938 429.128906 Z M 354.875 412.898438 " clip-rule="nonzero"/></clipPath><clipPath id="d92cf8e87f"><path d="M 354.875 412.898438 L 365.800781 389.03125 L 401.261719 405.261719 L 390.335938 429.128906 Z M 354.875 412.898438 " clip-rule="nonzero"/></clipPath><mask id="9f5d3ad5b0"><g filter="url(#ed4df99f82)"><rect x="-75" width="900" fill="#000000" y="-74.999999" height="899.999994" fill-opacity="0.13"/></g></mask><clipPath id="3e45813d6f"><path d="M 4 6 L 135 6 L 135 99 L 4 99 Z M 4 6 " clip-rule="nonzero"/></clipPath><clipPath id="4cc44a0910"><path d="M 8.402344 0.75 L 138.125 12.027344 L 130.171875 103.511719 L 0.449219 92.234375 Z M 8.402344 0.75 " clip-rule="nonzero"/></clipPath><clipPath id="f3b205e573"><path d="M 73.128906 6.375 C 37.378906 3.269531 6.621094 21.230469 4.425781 46.492188 C 2.230469 71.753906 29.429688 94.753906 65.175781 97.859375 C 100.921875 100.96875 131.683594 83.007812 133.878906 57.746094 C 136.074219 32.480469 108.875 9.484375 73.128906 6.375 Z M 73.128906 6.375 " clip-rule="nonzero"/></clipPath><clipPath id="ed60d7d619"><path d="M 0 0 L 131 0 L 131 93 L 0 93 Z M 0 0 " clip-rule="nonzero"/></clipPath><clipPath id="ff2fb2a6d9"><path d="M 4.402344 -5.25 L 134.125 6.027344 L 126.171875 97.511719 L -3.550781 86.234375 Z M 4.402344 -5.25 " clip-rule="nonzero"/></clipPath><clipPath id="3b33d3ed8a"><path d="M 69.128906 0.375 C 33.378906 -2.730469 2.621094 15.230469 0.425781 40.492188 C -1.769531 65.753906 25.429688 88.753906 61.175781 91.859375 C 96.921875 94.96875 127.683594 77.007812 129.878906 51.746094 C 132.074219 26.480469 104.875 3.484375 69.128906 0.375 Z M 69.128906 0.375 " clip-rule="nonzero"/></clipPath><clipPath id="f6fe84054e"><rect x="0" width="131" y="0" height="93"/></clipPath><clipPath id="0b720802ca"><rect x="0" width="139" y="0" height="104"/></clipPath><clipPath id="7cac66dc20"><path d="M 430 333 L 560 333 L 560 427 L 430 427 Z M 430 333 " clip-rule="nonzero"/></clipPath><clipPath id="ff6b2c7bfa"><path d="M 424.554688 417.15625 L 436.066406 326.257812 L 565.308594 342.628906 L 553.796875 433.523438 Z M 424.554688 417.15625 " clip-rule="nonzero"/></clipPath><clipPath id="ad89fbced0"><path d="M 430.308594 371.707031 C 427.128906 396.808594 453.40625 420.808594 489 425.320312 C 524.59375 429.828125 556.027344 413.132812 559.207031 388.03125 C 562.382812 362.933594 536.105469 338.929688 500.515625 334.421875 C 464.921875 329.914062 433.488281 346.605469 430.308594 371.707031 Z M 430.308594 371.707031 " clip-rule="nonzero"/></clipPath><clipPath id="0ea4269d15"><path d="M 0 0 L 130 0 L 130 94 L 0 94 Z M 0 0 " clip-rule="nonzero"/></clipPath><clipPath id="4ac3bfebf9"><path d="M -5.445312 84.15625 L 6.066406 -6.742188 L 135.308594 9.628906 L 123.796875 100.523438 Z M -5.445312 84.15625 " clip-rule="nonzero"/></clipPath><clipPath id="a044845f35"><path d="M 0.308594 38.707031 C -2.871094 63.808594 23.40625 87.808594 59 92.320312 C 94.59375 96.828125 126.027344 80.132812 129.207031 55.03125 C 132.382812 29.933594 106.105469 5.929688 70.515625 1.421875 C 34.921875 -3.085938 3.488281 13.605469 0.308594 38.707031 Z M 0.308594 38.707031 " clip-rule="nonzero"/></clipPath><clipPath id="21d2411aba"><rect x="0" width="130" y="0" height="94"/></clipPath><clipPath id="198631cdea"><path d="M 430 333 L 560 333 L 560 427 L 430 427 Z M 430 333 " clip-rule="nonzero"/></clipPath><clipPath id="f6779cfc87"><path d="M 424.554688 417.15625 L 436.050781 326.378906 L 564.773438 342.683594 L 553.273438 433.460938 Z M 424.554688 417.15625 " clip-rule="nonzero"/></clipPath><clipPath id="93550a2da5"><path d="M 424.554688 417.15625 L 436.078125 326.171875 L 565.875 342.613281 L 554.351562 433.59375 Z M 424.554688 417.15625 " clip-rule="nonzero"/></clipPath><clipPath id="fc4f70e1ab"><path d="M 430.308594 371.710938 C 427.128906 396.808594 453.40625 420.808594 488.996094 425.316406 C 524.585938 429.824219 556.015625 413.132812 559.195312 388.035156 C 562.371094 362.9375 536.097656 338.9375 500.507812 334.429688 C 464.917969 329.921875 433.488281 346.613281 430.308594 371.710938 Z M 430.308594 371.710938 " clip-rule="nonzero"/></clipPath><clipPath id="0b757fda4c"><path d="M 432 319 L 562 319 L 562 413 L 432 413 Z M 432 319 " clip-rule="nonzero"/></clipPath><clipPath id="5e34415fbb"><path d="M 426.535156 403.402344 L 438.046875 312.503906 L 567.289062 328.875 L 555.777344 419.773438 Z M 426.535156 403.402344 " clip-rule="nonzero"/></clipPath><clipPath id="90a173fbbd"><path d="M 432.289062 357.953125 C 429.109375 383.054688 455.386719 407.054688 490.980469 411.566406 C 526.574219 416.074219 558.007812 399.378906 561.1875 374.277344 C 564.363281 349.179688 538.089844 325.175781 502.496094 320.667969 C 466.902344 316.160156 435.46875 332.851562 432.289062 357.953125 Z M 432.289062 357.953125 " clip-rule="nonzero"/></clipPath><clipPath id="04d0b8de79"><path d="M 0 0 L 130 0 L 130 94 L 0 94 Z M 0 0 " clip-rule="nonzero"/></clipPath><clipPath id="0c4731b5fe"><path d="M -5.464844 84.402344 L 6.046875 -6.496094 L 135.289062 9.875 L 123.777344 100.773438 Z M -5.464844 84.402344 " clip-rule="nonzero"/></clipPath><clipPath id="d63ccc3263"><path d="M 0.289062 38.953125 C -2.890625 64.054688 23.386719 88.054688 58.980469 92.566406 C 94.574219 97.074219 126.007812 80.378906 129.1875 55.277344 C 132.363281 30.179688 106.089844 6.175781 70.496094 1.667969 C 34.902344 -2.839844 3.46875 13.851562 0.289062 38.953125 Z M 0.289062 38.953125 " clip-rule="nonzero"/></clipPath><clipPath id="16440858c6"><rect x="0" width="130" y="0" height="94"/></clipPath><clipPath id="f1afe0efba"><path d="M 432 319 L 562 319 L 562 413 L 432 413 Z M 432 319 " clip-rule="nonzero"/></clipPath><clipPath id="735039d324"><path d="M 426.535156 403.402344 L 438.03125 312.628906 L 566.753906 328.929688 L 555.253906 419.707031 Z M 426.535156 403.402344 " clip-rule="nonzero"/></clipPath><clipPath id="21a606b50f"><path d="M 426.535156 403.402344 L 438.058594 312.417969 L 567.855469 328.859375 L 556.332031 419.839844 Z M 426.535156 403.402344 " clip-rule="nonzero"/></clipPath><clipPath id="9d325d8439"><path d="M 432.289062 357.957031 C 429.109375 383.054688 455.386719 407.054688 490.976562 411.5625 C 526.566406 416.070312 557.996094 399.378906 561.175781 374.28125 C 564.351562 349.183594 538.078125 325.183594 502.488281 320.675781 C 466.898438 316.167969 435.46875 332.859375 432.289062 357.957031 Z M 432.289062 357.957031 " clip-rule="nonzero"/></clipPath><clipPath id="d004a33832"><path d="M 448 333 L 544 333 L 544 402 L 448 402 Z M 448 333 " clip-rule="nonzero"/></clipPath><clipPath id="f6e07823f1"><path d="M 444.210938 395.078125 L 452.664062 328.351562 L 547.535156 340.371094 L 539.085938 407.09375 Z M 444.210938 395.078125 " clip-rule="nonzero"/></clipPath><clipPath id="36e72f696b"><path d="M 448.4375 361.714844 C 446.105469 380.140625 465.394531 397.761719 491.519531 401.070312 C 517.648438 404.378906 540.722656 392.125 543.054688 373.699219 C 545.390625 355.273438 526.101562 337.65625 499.972656 334.34375 C 473.84375 331.035156 450.769531 343.289062 448.4375 361.714844 Z M 448.4375 361.714844 " clip-rule="nonzero"/></clipPath><clipPath id="df74a0c469"><path d="M 0 0 L 96 0 L 96 69 L 0 69 Z M 0 0 " clip-rule="nonzero"/></clipPath><clipPath id="c9ea3bd2bb"><path d="M -3.789062 62.078125 L 4.664062 -4.648438 L 99.535156 7.371094 L 91.085938 74.09375 Z M -3.789062 62.078125 " clip-rule="nonzero"/></clipPath><clipPath id="76ab2ee321"><path d="M 0.4375 28.714844 C -1.894531 47.140625 17.394531 64.761719 43.519531 68.070312 C 69.648438 71.378906 92.722656 59.125 95.054688 40.699219 C 97.390625 22.273438 78.101562 4.65625 51.972656 1.34375 C 25.84375 -1.964844 2.769531 10.289062 0.4375 28.714844 Z M 0.4375 28.714844 " clip-rule="nonzero"/></clipPath><clipPath id="64d8bcf115"><rect x="0" width="96" y="0" height="69"/></clipPath><clipPath id="5b1783a0cf"><path d="M 448 333 L 544 333 L 544 402 L 448 402 Z M 448 333 " clip-rule="nonzero"/></clipPath><clipPath id="7c6916f327"><path d="M 444.210938 395.078125 L 452.691406 328.113281 L 547.1875 340.082031 L 538.707031 407.046875 Z M 444.210938 395.078125 " clip-rule="nonzero"/></clipPath><clipPath id="cae5401088"><path d="M 444.210938 395.078125 L 452.671875 328.289062 L 547.953125 340.359375 L 539.496094 407.144531 Z M 444.210938 395.078125 " clip-rule="nonzero"/></clipPath><clipPath id="057819b843"><path d="M 448.4375 361.71875 C 446.105469 380.140625 465.390625 397.757812 491.515625 401.070312 C 517.644531 404.378906 540.714844 392.125 543.046875 373.699219 C 545.382812 355.277344 526.09375 337.660156 499.96875 334.347656 C 473.839844 331.039062 450.769531 343.292969 448.4375 361.71875 Z M 448.4375 361.71875 " clip-rule="nonzero"/></clipPath><clipPath id="ec61a8c232"><path d="M 455 337 L 542 337 L 542 400 L 455 400 Z M 455 337 " clip-rule="nonzero"/></clipPath><clipPath id="424fb1fd50"><path d="M 452.164062 393.949219 L 459.929688 332.644531 L 545.425781 343.472656 L 537.660156 404.78125 Z M 452.164062 393.949219 " clip-rule="nonzero"/></clipPath><clipPath id="3713a50fe0"><path d="M 456.046875 363.296875 C 453.902344 380.226562 471.25 396.367188 494.796875 399.351562 C 518.339844 402.332031 539.167969 391.027344 541.308594 374.097656 C 543.453125 357.167969 526.105469 341.023438 502.5625 338.042969 C 479.015625 335.058594 458.191406 346.367188 456.046875 363.296875 Z M 456.046875 363.296875 " clip-rule="nonzero"/></clipPath><clipPath id="d19271843a"><path d="M 0 0 L 87 0 L 87 63 L 0 63 Z M 0 0 " clip-rule="nonzero"/></clipPath><clipPath id="970e39309e"><path d="M -2.835938 56.949219 L 4.929688 -4.355469 L 90.425781 6.472656 L 82.660156 67.78125 Z M -2.835938 56.949219 " clip-rule="nonzero"/></clipPath><clipPath id="42641d2ac6"><path d="M 1.046875 26.296875 C -1.097656 43.226562 16.25 59.367188 39.796875 62.351562 C 63.339844 65.332031 84.167969 54.027344 86.308594 37.097656 C 88.453125 20.167969 71.105469 4.023438 47.5625 1.042969 C 24.015625 -1.941406 3.191406 9.367188 1.046875 26.296875 Z M 1.046875 26.296875 " clip-rule="nonzero"/></clipPath><clipPath id="c12e5597ae"><rect x="0" width="87" y="0" height="63"/></clipPath><clipPath id="e916f45763"><path d="M 481 352 L 519 352 L 519 386 L 481 386 Z M 481 352 " clip-rule="nonzero"/></clipPath><clipPath id="306440b613"><path d="M 476.578125 372.914062 L 487.503906 349.042969 L 522.964844 365.277344 L 512.039062 389.144531 Z M 476.578125 372.914062 " clip-rule="nonzero"/></clipPath><clipPath id="ecdb47b882"><path d="M 476.578125 372.914062 L 487.503906 349.042969 L 522.964844 365.277344 L 512.039062 389.144531 Z M 476.578125 372.914062 " clip-rule="nonzero"/></clipPath><mask id="ad31da7c75"><g filter="url(#ed4df99f82)"><rect x="-75" width="900" fill="#000000" y="-74.999999" height="899.999994" fill-opacity="0.13"/></g></mask><clipPath id="cfd2d3055b"><path d="M 4 5 L 135 5 L 135 98 L 4 98 Z M 4 5 " clip-rule="nonzero"/></clipPath><clipPath id="c448f4f655"><path d="M 8.730469 0.246094 L 138.453125 11.523438 L 130.5 103.007812 L 0.78125 91.730469 Z M 8.730469 0.246094 " clip-rule="nonzero"/></clipPath><clipPath id="a778e5d48d"><path d="M 73.457031 5.875 C 37.710938 2.765625 6.953125 20.726562 4.753906 45.988281 C 2.558594 71.253906 29.757812 94.25 65.503906 97.359375 C 101.253906 100.464844 132.011719 82.503906 134.207031 57.242188 C 136.40625 31.980469 109.207031 8.980469 73.457031 5.875 Z M 73.457031 5.875 " clip-rule="nonzero"/></clipPath><clipPath id="193a4c90ce"><path d="M 0 0 L 131 0 L 131 93 L 0 93 Z M 0 0 " clip-rule="nonzero"/></clipPath><clipPath id="cc3cc3183d"><path d="M 4.730469 -4.753906 L 134.453125 6.523438 L 126.5 98.007812 L -3.21875 86.730469 Z M 4.730469 -4.753906 " clip-rule="nonzero"/></clipPath><clipPath id="a0f4d23e4a"><path d="M 69.457031 0.875 C 33.710938 -2.234375 2.953125 15.726562 0.753906 40.988281 C -1.441406 66.253906 25.757812 89.25 61.503906 92.359375 C 97.253906 95.464844 128.011719 77.503906 130.207031 52.242188 C 132.40625 26.980469 105.207031 3.980469 69.457031 0.875 Z M 69.457031 0.875 " clip-rule="nonzero"/></clipPath><clipPath id="ca41f6285d"><rect x="0" width="131" y="0" height="93"/></clipPath><clipPath id="1224fd51c6"><rect x="0" width="139" y="0" height="104"/></clipPath><clipPath id="31f15707e7"><path d="M 192 311 L 322 311 L 322 404 L 192 404 Z M 192 311 " clip-rule="nonzero"/></clipPath><clipPath id="d8e0390887"><path d="M 186.882812 394.652344 L 198.394531 303.757812 L 327.640625 320.125 L 316.128906 411.023438 Z M 186.882812 394.652344 " clip-rule="nonzero"/></clipPath><clipPath id="5422be8edd"><path d="M 192.640625 349.207031 C 189.460938 374.304688 215.738281 398.308594 251.332031 402.816406 C 286.925781 407.324219 318.355469 390.632812 321.535156 365.53125 C 324.714844 340.429688 298.4375 316.429688 262.84375 311.917969 C 227.25 307.410156 195.820312 324.105469 192.640625 349.207031 Z M 192.640625 349.207031 " clip-rule="nonzero"/></clipPath><clipPath id="398da45e2b"><path d="M 0 0 L 130 0 L 130 93 L 0 93 Z M 0 0 " clip-rule="nonzero"/></clipPath><clipPath id="3c91f2e138"><path d="M -5.117188 83.652344 L 6.394531 -7.242188 L 135.640625 9.125 L 124.128906 100.023438 Z M -5.117188 83.652344 " clip-rule="nonzero"/></clipPath><clipPath id="608e341459"><path d="M 0.640625 38.207031 C -2.539062 63.304688 23.738281 87.308594 59.332031 91.816406 C 94.925781 96.324219 126.355469 79.632812 129.535156 54.53125 C 132.714844 29.429688 106.4375 5.429688 70.84375 0.917969 C 35.25 -3.589844 3.820312 13.105469 0.640625 38.207031 Z M 0.640625 38.207031 " clip-rule="nonzero"/></clipPath><clipPath id="d7146e3d51"><rect x="0" width="130" y="0" height="93"/></clipPath><clipPath id="98241b9ae3"><path d="M 192 311 L 322 311 L 322 404 L 192 404 Z M 192 311 " clip-rule="nonzero"/></clipPath><clipPath id="036fa0ba5b"><path d="M 186.882812 394.652344 L 198.382812 303.878906 L 327.101562 320.183594 L 315.605469 410.957031 Z M 186.882812 394.652344 " clip-rule="nonzero"/></clipPath><clipPath id="76b1a54ed2"><path d="M 186.882812 394.652344 L 198.40625 303.671875 L 328.207031 320.113281 L 316.683594 411.09375 Z M 186.882812 394.652344 " clip-rule="nonzero"/></clipPath><clipPath id="4750110fa6"><path d="M 192.640625 349.207031 C 189.460938 374.304688 215.734375 398.304688 251.324219 402.8125 C 286.917969 407.320312 318.34375 390.628906 321.523438 365.53125 C 324.703125 340.433594 298.429688 316.433594 262.835938 311.925781 C 227.246094 307.417969 195.820312 324.109375 192.640625 349.207031 Z M 192.640625 349.207031 " clip-rule="nonzero"/></clipPath><clipPath id="411f97487e"><path d="M 194 297 L 324 297 L 324 390 L 194 390 Z M 194 297 " clip-rule="nonzero"/></clipPath><clipPath id="bead94502a"><path d="M 188.863281 380.898438 L 200.378906 290.003906 L 329.621094 306.371094 L 318.109375 397.269531 Z M 188.863281 380.898438 " clip-rule="nonzero"/></clipPath><clipPath id="ccc93a923c"><path d="M 194.621094 335.453125 C 191.441406 360.550781 217.71875 384.554688 253.3125 389.0625 C 288.90625 393.570312 320.335938 376.878906 323.515625 351.777344 C 326.695312 326.675781 300.417969 302.675781 264.824219 298.164062 C 229.230469 293.65625 197.800781 310.351562 194.621094 335.453125 Z M 194.621094 335.453125 " clip-rule="nonzero"/></clipPath><clipPath id="1af34cf339"><path d="M 0 0 L 130 0 L 130 93 L 0 93 Z M 0 0 " clip-rule="nonzero"/></clipPath><clipPath id="f94426f0b5"><path d="M -5.136719 83.898438 L 6.378906 -6.996094 L 135.621094 9.371094 L 124.109375 100.269531 Z M -5.136719 83.898438 " clip-rule="nonzero"/></clipPath><clipPath id="20a64868f3"><path d="M 0.621094 38.453125 C -2.558594 63.550781 23.71875 87.554688 59.3125 92.0625 C 94.90625 96.570312 126.335938 79.878906 129.515625 54.777344 C 132.695312 29.675781 106.417969 5.675781 70.824219 1.164062 C 35.230469 -3.34375 3.800781 13.351562 0.621094 38.453125 Z M 0.621094 38.453125 " clip-rule="nonzero"/></clipPath><clipPath id="6d84da3f5b"><rect x="0" width="130" y="0" height="93"/></clipPath><clipPath id="9a645e176d"><path d="M 194 297 L 324 297 L 324 390 L 194 390 Z M 194 297 " clip-rule="nonzero"/></clipPath><clipPath id="c58678588c"><path d="M 188.863281 380.898438 L 200.363281 290.125 L 329.082031 306.429688 L 317.585938 397.203125 Z M 188.863281 380.898438 " clip-rule="nonzero"/></clipPath><clipPath id="a51aff4f5b"><path d="M 188.863281 380.898438 L 200.386719 289.917969 L 330.1875 306.359375 L 318.664062 397.339844 Z M 188.863281 380.898438 " clip-rule="nonzero"/></clipPath><clipPath id="6921b48f48"><path d="M 194.621094 335.453125 C 191.441406 360.550781 217.714844 384.550781 253.308594 389.058594 C 288.898438 393.566406 320.324219 376.875 323.503906 351.777344 C 326.683594 326.679688 300.410156 302.679688 264.820312 298.171875 C 229.226562 293.664062 197.800781 310.355469 194.621094 335.453125 Z M 194.621094 335.453125 " clip-rule="nonzero"/></clipPath><clipPath id="f5dbf1ae6a"><path d="M 210 311 L 306 311 L 306 380 L 210 380 Z M 210 311 " clip-rule="nonzero"/></clipPath><clipPath id="bbbff1982b"><path d="M 206.542969 372.574219 L 214.992188 305.851562 L 309.867188 317.867188 L 301.417969 384.59375 Z M 206.542969 372.574219 " clip-rule="nonzero"/></clipPath><clipPath id="18f88530c6"><path d="M 210.769531 339.214844 C 208.433594 357.640625 227.722656 375.257812 253.851562 378.566406 C 279.980469 381.878906 303.050781 369.625 305.386719 351.199219 C 307.71875 332.773438 288.429688 315.152344 262.300781 311.84375 C 236.175781 308.535156 213.101562 320.789062 210.769531 339.214844 Z M 210.769531 339.214844 " clip-rule="nonzero"/></clipPath><clipPath id="bee64ac006"><path d="M 0 0 L 96 0 L 96 69 L 0 69 Z M 0 0 " clip-rule="nonzero"/></clipPath><clipPath id="2e8ac0a58c"><path d="M -3.457031 61.574219 L 4.992188 -5.148438 L 99.867188 6.867188 L 91.417969 73.59375 Z M -3.457031 61.574219 " clip-rule="nonzero"/></clipPath><clipPath id="38923dbb12"><path d="M 0.769531 28.214844 C -1.566406 46.640625 17.722656 64.257812 43.851562 67.566406 C 69.980469 70.878906 93.050781 58.625 95.386719 40.199219 C 97.71875 21.773438 78.429688 4.152344 52.300781 0.84375 C 26.175781 -2.464844 3.101562 9.789062 0.769531 28.214844 Z M 0.769531 28.214844 " clip-rule="nonzero"/></clipPath><clipPath id="53ffda3926"><rect x="0" width="96" y="0" height="69"/></clipPath><clipPath id="071847d453"><path d="M 210 311 L 306 311 L 306 380 L 210 380 Z M 210 311 " clip-rule="nonzero"/></clipPath><clipPath id="ec6360048a"><path d="M 206.542969 372.574219 L 215.023438 305.609375 L 309.519531 317.578125 L 301.039062 384.542969 Z M 206.542969 372.574219 " clip-rule="nonzero"/></clipPath><clipPath id="f545980d62"><path d="M 206.542969 372.574219 L 215 305.789062 L 310.285156 317.855469 L 301.824219 384.644531 Z M 206.542969 372.574219 " clip-rule="nonzero"/></clipPath><clipPath id="cc5f0c61e8"><path d="M 210.765625 339.214844 C 208.433594 357.640625 227.722656 375.257812 253.847656 378.566406 C 279.972656 381.875 303.046875 369.621094 305.378906 351.199219 C 307.710938 332.773438 288.425781 315.15625 262.296875 311.847656 C 236.171875 308.539062 213.101562 320.792969 210.765625 339.214844 Z M 210.765625 339.214844 " clip-rule="nonzero"/></clipPath><clipPath id="59be57cd7a"><path d="M 218 315 L 304 315 L 304 378 L 218 378 Z M 218 315 " clip-rule="nonzero"/></clipPath><clipPath id="7267b6fd79"><path d="M 214.496094 371.449219 L 222.261719 310.140625 L 307.757812 320.96875 L 299.992188 382.277344 Z M 214.496094 371.449219 " clip-rule="nonzero"/></clipPath><clipPath id="7123478bcd"><path d="M 218.378906 340.792969 C 216.234375 357.722656 233.582031 373.867188 257.125 376.847656 C 280.671875 379.832031 301.496094 368.523438 303.640625 351.59375 C 305.785156 334.664062 288.4375 318.523438 264.890625 315.539062 C 241.347656 312.558594 220.523438 323.863281 218.378906 340.792969 Z M 218.378906 340.792969 " clip-rule="nonzero"/></clipPath><clipPath id="afb0bfdd4c"><path d="M 0 0 L 86 0 L 86 63 L 0 63 Z M 0 0 " clip-rule="nonzero"/></clipPath><clipPath id="084f0fbf2c"><path d="M -3.503906 56.449219 L 4.261719 -4.859375 L 89.757812 5.96875 L 81.992188 67.277344 Z M -3.503906 56.449219 " clip-rule="nonzero"/></clipPath><clipPath id="f225c390b8"><path d="M 0.378906 25.792969 C -1.765625 42.722656 15.582031 58.867188 39.125 61.847656 C 62.671875 64.832031 83.496094 53.523438 85.640625 36.59375 C 87.785156 19.664062 70.4375 3.523438 46.890625 0.539062 C 23.347656 -2.441406 2.523438 8.863281 0.378906 25.792969 Z M 0.378906 25.792969 " clip-rule="nonzero"/></clipPath><clipPath id="1c9e59211c"><rect x="0" width="86" y="0" height="63"/></clipPath><clipPath id="6fac433280"><path d="M 243 330 L 281 330 L 281 363 L 243 363 Z M 243 330 " clip-rule="nonzero"/></clipPath><clipPath id="4e1d990994"><path d="M 238.90625 350.410156 L 249.832031 326.542969 L 285.292969 342.773438 L 274.371094 366.644531 Z M 238.90625 350.410156 " clip-rule="nonzero"/></clipPath><clipPath id="c9e251ed28"><path d="M 238.90625 350.410156 L 249.832031 326.542969 L 285.292969 342.773438 L 274.371094 366.644531 Z M 238.90625 350.410156 " clip-rule="nonzero"/></clipPath><mask id="5ac02e04dd"><g filter="url(#ed4df99f82)"><rect x="-75" width="900" fill="#000000" y="-74.999999" height="899.999994" fill-opacity="0.13"/></g></mask><clipPath id="7f3fb7e9c8"><path d="M 3 4 L 114 4 L 114 83 L 3 83 Z M 3 4 " clip-rule="nonzero"/></clipPath><clipPath id="3e81b2f66c"><path d="M 7.09375 0.269531 L 116.5 9.777344 L 109.792969 86.933594 L 0.386719 77.425781 Z M 7.09375 0.269531 " clip-rule="nonzero"/></clipPath><clipPath id="a2ffefe9ad"><path d="M 61.683594 5.015625 C 31.535156 2.394531 5.59375 17.539062 3.742188 38.847656 C 1.890625 60.152344 24.828125 79.546875 54.976562 82.167969 C 85.125 84.789062 111.066406 69.644531 112.917969 48.335938 C 114.769531 27.03125 91.832031 7.632812 61.683594 5.015625 Z M 61.683594 5.015625 " clip-rule="nonzero"/></clipPath><clipPath id="8444d29fa7"><path d="M 0 0 L 111 0 L 111 79 L 0 79 Z M 0 0 " clip-rule="nonzero"/></clipPath><clipPath id="f9e0bf844f"><path d="M 4.09375 -3.730469 L 113.5 5.777344 L 106.792969 82.933594 L -2.613281 73.425781 Z M 4.09375 -3.730469 " clip-rule="nonzero"/></clipPath><clipPath id="bc018b4695"><path d="M 58.683594 1.015625 C 28.535156 -1.605469 2.59375 13.539062 0.742188 34.847656 C -1.109375 56.152344 21.828125 75.546875 51.976562 78.167969 C 82.125 80.789062 108.066406 65.644531 109.917969 44.335938 C 111.769531 23.03125 88.832031 3.632812 58.683594 1.015625 Z M 58.683594 1.015625 " clip-rule="nonzero"/></clipPath><clipPath id="51134823dc"><rect x="0" width="111" y="0" height="79"/></clipPath><clipPath id="3d2a677c7e"><rect x="0" width="117" y="0" height="88"/></clipPath><clipPath id="fb33ad2cef"><path d="M 317 275 L 427 275 L 427 354 L 317 354 Z M 317 275 " clip-rule="nonzero"/></clipPath><clipPath id="0d6bc9a7bf"><path d="M 312.566406 345.765625 L 322.277344 269.105469 L 431.277344 282.914062 L 421.566406 359.574219 Z M 312.566406 345.765625 " clip-rule="nonzero"/></clipPath><clipPath id="805299df10"><path d="M 317.421875 307.4375 C 314.742188 328.605469 336.902344 348.847656 366.921875 352.652344 C 396.941406 356.453125 423.449219 342.375 426.128906 321.207031 C 428.8125 300.035156 406.648438 279.792969 376.632812 275.992188 C 346.613281 272.1875 320.105469 286.269531 317.421875 307.4375 Z M 317.421875 307.4375 " clip-rule="nonzero"/></clipPath><clipPath id="23d41c4c97"><path d="M 0 0 L 110 0 L 110 79 L 0 79 Z M 0 0 " clip-rule="nonzero"/></clipPath><clipPath id="d57d4b9310"><path d="M -4.433594 70.765625 L 5.277344 -5.894531 L 114.277344 7.914062 L 104.566406 84.574219 Z M -4.433594 70.765625 " clip-rule="nonzero"/></clipPath><clipPath id="8714a025ed"><path d="M 0.421875 32.4375 C -2.257812 53.605469 19.902344 73.847656 49.921875 77.652344 C 79.941406 81.453125 106.449219 67.375 109.128906 46.207031 C 111.8125 25.035156 89.648438 4.792969 59.632812 0.992188 C 29.613281 -2.8125 3.105469 11.269531 0.421875 32.4375 Z M 0.421875 32.4375 " clip-rule="nonzero"/></clipPath><clipPath id="3afbd0fa75"><rect x="0" width="110" y="0" height="79"/></clipPath><clipPath id="9aa9312805"><path d="M 317 275 L 427 275 L 427 354 L 317 354 Z M 317 275 " clip-rule="nonzero"/></clipPath><clipPath id="4758eb7eaf"><path d="M 312.566406 345.765625 L 322.273438 269.128906 L 430.90625 282.886719 L 421.199219 359.527344 Z M 312.566406 345.765625 " clip-rule="nonzero"/></clipPath><clipPath id="c6d054d091"><path d="M 312.574219 345.765625 L 322.289062 269.039062 L 431.753906 282.90625 L 422.035156 359.632812 Z M 312.574219 345.765625 " clip-rule="nonzero"/></clipPath><clipPath id="4c90a93a68"><path d="M 317.425781 307.441406 C 314.746094 328.609375 336.90625 348.847656 366.917969 352.652344 C 396.933594 356.453125 423.4375 342.375 426.121094 321.210938 C 428.800781 300.042969 406.640625 279.804688 376.628906 276 C 346.613281 272.199219 320.109375 286.277344 317.425781 307.441406 Z M 317.425781 307.441406 " clip-rule="nonzero"/></clipPath><clipPath id="5e925f9510"><path d="M 318 263 L 429 263 L 429 342 L 318 342 Z M 318 263 " clip-rule="nonzero"/></clipPath><clipPath id="3b00f67ba3"><path d="M 314.238281 334.167969 L 323.949219 257.507812 L 432.949219 271.3125 L 423.238281 347.972656 Z M 314.238281 334.167969 " clip-rule="nonzero"/></clipPath><clipPath id="c4f85c15ec"><path d="M 319.09375 295.835938 C 316.410156 317.007812 338.574219 337.25 368.59375 341.050781 C 398.609375 344.855469 425.117188 330.773438 427.800781 309.605469 C 430.480469 288.4375 408.320312 268.195312 378.300781 264.390625 C 348.28125 260.589844 321.773438 274.667969 319.09375 295.835938 Z M 319.09375 295.835938 " clip-rule="nonzero"/></clipPath><clipPath id="9079f23613"><path d="M 0 0 L 111 0 L 111 79 L 0 79 Z M 0 0 " clip-rule="nonzero"/></clipPath><clipPath id="7371529468"><path d="M -3.761719 71.167969 L 5.949219 -5.492188 L 114.949219 8.3125 L 105.238281 84.972656 Z M -3.761719 71.167969 " clip-rule="nonzero"/></clipPath><clipPath id="bb04c074d5"><path d="M 1.09375 32.835938 C -1.589844 54.007812 20.574219 74.25 50.59375 78.050781 C 80.609375 81.855469 107.117188 67.773438 109.800781 46.605469 C 112.480469 25.4375 90.320312 5.195312 60.300781 1.390625 C 30.28125 -2.410156 3.773438 11.667969 1.09375 32.835938 Z M 1.09375 32.835938 " clip-rule="nonzero"/></clipPath><clipPath id="ac11830f6f"><rect x="0" width="111" y="0" height="79"/></clipPath><clipPath id="9019184179"><path d="M 318 263 L 429 263 L 429 342 L 318 342 Z M 318 263 " clip-rule="nonzero"/></clipPath><clipPath id="e3b408f833"><path d="M 314.238281 334.167969 L 323.945312 257.53125 L 432.578125 271.289062 L 422.871094 347.925781 Z M 314.238281 334.167969 " clip-rule="nonzero"/></clipPath><clipPath id="95643f550d"><path d="M 314.242188 334.167969 L 323.960938 257.441406 L 433.425781 271.304688 L 423.707031 348.03125 Z M 314.242188 334.167969 " clip-rule="nonzero"/></clipPath><clipPath id="c336588497"><path d="M 319.097656 295.84375 C 316.417969 317.007812 338.574219 337.25 368.589844 341.050781 C 398.605469 344.851562 425.109375 330.777344 427.789062 309.609375 C 430.46875 288.445312 408.3125 268.203125 378.296875 264.402344 C 348.28125 260.601562 321.777344 274.675781 319.097656 295.84375 Z M 319.097656 295.84375 " clip-rule="nonzero"/></clipPath><clipPath id="63f6c4f51e"><path d="M 332 275 L 413 275 L 413 333 L 332 333 Z M 332 275 " clip-rule="nonzero"/></clipPath><clipPath id="255281c7d5"><path d="M 329.152344 327.144531 L 336.28125 270.871094 L 416.296875 281.007812 L 409.167969 337.28125 Z M 329.152344 327.144531 " clip-rule="nonzero"/></clipPath><clipPath id="83b4108ea2"><path d="M 332.71875 299.007812 C 330.75 314.546875 347.015625 329.40625 369.054688 332.199219 C 391.089844 334.988281 410.546875 324.65625 412.515625 309.117188 C 414.484375 293.574219 398.214844 278.714844 376.179688 275.925781 C 354.144531 273.132812 334.683594 283.46875 332.71875 299.007812 Z M 332.71875 299.007812 " clip-rule="nonzero"/></clipPath><clipPath id="6af92d8937"><path d="M 0 0 L 81 0 L 81 58 L 0 58 Z M 0 0 " clip-rule="nonzero"/></clipPath><clipPath id="f5a78fbf48"><path d="M -2.847656 52.144531 L 4.28125 -4.128906 L 84.296875 6.007812 L 77.167969 62.28125 Z M -2.847656 52.144531 " clip-rule="nonzero"/></clipPath><clipPath id="938e73e244"><path d="M 0.71875 24.007812 C -1.25 39.546875 15.015625 54.40625 37.054688 57.199219 C 59.089844 59.988281 78.546875 49.65625 80.515625 34.117188 C 82.484375 18.574219 66.214844 3.714844 44.179688 0.925781 C 22.144531 -1.867188 2.683594 8.46875 0.71875 24.007812 Z M 0.71875 24.007812 " clip-rule="nonzero"/></clipPath><clipPath id="4a19fc4f74"><rect x="0" width="81" y="0" height="58"/></clipPath><clipPath id="7cffeecb8e"><path d="M 332 275 L 413 275 L 413 333 L 332 333 Z M 332 275 " clip-rule="nonzero"/></clipPath><clipPath id="d75c39b204"><path d="M 329.152344 327.144531 L 336.316406 270.597656 L 415.929688 280.679688 L 408.765625 337.230469 Z M 329.152344 327.144531 " clip-rule="nonzero"/></clipPath><clipPath id="36cb84ddbd"><path d="M 329.152344 327.144531 L 336.289062 270.820312 L 416.640625 281 L 409.507812 337.320312 Z M 329.152344 327.144531 " clip-rule="nonzero"/></clipPath><clipPath id="0d71b42fff"><path d="M 332.71875 299.011719 C 330.75 314.546875 347.015625 329.40625 369.046875 332.195312 C 391.082031 334.988281 410.539062 324.652344 412.503906 309.117188 C 414.472656 293.578125 398.207031 278.722656 376.175781 275.929688 C 354.140625 273.140625 334.683594 283.472656 332.71875 299.011719 Z M 332.71875 299.011719 " clip-rule="nonzero"/></clipPath><clipPath id="deadeea230"><path d="M 338 278 L 412 278 L 412 332 L 338 332 Z M 338 278 " clip-rule="nonzero"/></clipPath><clipPath id="7338068252"><path d="M 335.855469 326.199219 L 342.40625 274.492188 L 414.507812 283.625 L 407.960938 335.332031 Z M 335.855469 326.199219 " clip-rule="nonzero"/></clipPath><clipPath id="5d3aa874f4"><path d="M 339.128906 300.347656 C 337.320312 314.625 351.953125 328.238281 371.808594 330.753906 C 391.667969 333.269531 409.230469 323.734375 411.039062 309.453125 C 412.847656 295.175781 398.214844 281.5625 378.359375 279.046875 C 358.503906 276.53125 340.9375 286.070312 339.128906 300.347656 Z M 339.128906 300.347656 " clip-rule="nonzero"/></clipPath><clipPath id="a1a3d11e09"><path d="M 0 0 L 74 0 L 74 54 L 0 54 Z M 0 0 " clip-rule="nonzero"/></clipPath><clipPath id="af9d0591e5"><path d="M -2.144531 48.199219 L 4.40625 -3.507812 L 76.507812 5.625 L 69.960938 57.332031 Z M -2.144531 48.199219 " clip-rule="nonzero"/></clipPath><clipPath id="4b6c432e35"><path d="M 1.128906 22.347656 C -0.679688 36.625 13.953125 50.238281 33.808594 52.753906 C 53.667969 55.269531 71.230469 45.734375 73.039062 31.453125 C 74.847656 17.175781 60.214844 3.5625 40.359375 1.046875 C 20.503906 -1.46875 2.9375 8.070312 1.128906 22.347656 Z M 1.128906 22.347656 " clip-rule="nonzero"/></clipPath><clipPath id="7ca75c4b52"><rect x="0" width="74" y="0" height="54"/></clipPath><clipPath id="f75dc66c2f"><path d="M 360 291 L 392 291 L 392 319 L 360 319 Z M 360 291 " clip-rule="nonzero"/></clipPath><clipPath id="0f1fd028f5"><path d="M 356.449219 308.457031 L 365.816406 288 L 395.820312 301.734375 L 386.457031 322.191406 Z M 356.449219 308.457031 " clip-rule="nonzero"/></clipPath><clipPath id="80d8fcbc69"><path d="M 356.449219 308.457031 L 365.816406 288 L 395.820312 301.734375 L 386.457031 322.191406 Z M 356.449219 308.457031 " clip-rule="nonzero"/></clipPath></defs><g mask="url(#f6f10a3a00)"><g transform="matrix(1, 0, 0, 1, 309, 374)"><g clip-path="url(#b4af820f94)"><g clip-path="url(#7c5702431a)"><g clip-path="url(#86bff6a53a)"><g clip-path="url(#0a005732cb)"><g transform="matrix(1, 0, 0, 1, 4, 6)"><g clip-path="url(#874fb5d250)"><g clip-path="url(#45c5b1bc40)"><g clip-path="url(#72e89fab5c)"><g clip-path="url(#b81e7652c1)"><path fill="#000000" d="M 4.699219 -5.265625 L 134.0625 5.980469 L 126.113281 97.464844 L -3.253906 86.21875 Z M 4.699219 -5.265625 " fill-opacity="1" fill-rule="nonzero"/></g></g></g></g></g></g></g></g></g></g></g><g clip-path="url(#7601d6176c)"><g clip-path="url(#d6fe7a1ea5)"><g clip-path="url(#9975e90f52)"><g transform="matrix(1, 0, 0, 1, 307, 373)"><g clip-path="url(#51053db353)"><g clip-path="url(#ae67094162)"><g clip-path="url(#a455fdac5e)"><g clip-path="url(#c6440692ea)"><path fill="#ffffff" d="M -4.628906 84.140625 L 6.886719 -6.757812 L 135.773438 9.570312 L 124.261719 100.464844 Z M -4.628906 84.140625 " fill-opacity="1" fill-rule="nonzero"/></g></g></g></g></g></g></g></g><g clip-path="url(#ed716af39c)"><g clip-path="url(#4ee7c26b61)"><g clip-path="url(#66ad4ecbc2)"><g clip-path="url(#19fbcdc911)"><path stroke-linecap="butt" transform="matrix(0.0942405, -0.744056, 0.744056, 0.0942405, 302.372273, 457.139326)" fill="none" stroke-linejoin="miter" d="M 61.076236 0.00104675 C 27.345199 -0.000106252 0.000641907 38.774421 0.00119255 86.611841 C 0.00108874 134.444095 27.34494 173.216581 61.075977 173.217734 C 94.807014 173.218887 122.151571 134.444359 122.151674 86.612106 C 122.151124 38.774686 94.807272 0.00219976 61.076236 0.00104675 Z M 61.076236 0.00104675 " stroke="#000000" stroke-width="4" stroke-opacity="1" stroke-miterlimit="4"/></g></g></g></g><g clip-path="url(#ed4e9f1639)"><g clip-path="url(#d1e8b7a0db)"><g clip-path="url(#833af77211)"><g transform="matrix(1, 0, 0, 1, 310, 359)"><g clip-path="url(#05fd677827)"><g clip-path="url(#e66b630fb7)"><g clip-path="url(#2a42ff476b)"><g clip-path="url(#33a67c179f)"><path fill="#ffffff" d="M -5.167969 84.386719 L 6.34375 -6.511719 L 135.234375 9.816406 L 123.71875 100.710938 Z M -5.167969 84.386719 " fill-opacity="1" fill-rule="nonzero"/></g></g></g></g></g></g></g></g><g clip-path="url(#f58430aa06)"><g clip-path="url(#28afcf3721)"><g clip-path="url(#c339da2f8e)"><g clip-path="url(#1e3b921cf4)"><path stroke-linecap="butt" transform="matrix(0.0942405, -0.744056, 0.744056, 0.0942405, 304.831745, 443.385478)" fill="none" stroke-linejoin="miter" d="M 61.075905 -0.0021915 C 27.345522 0.00182255 0.000965393 38.77635 0.000861584 86.608603 C 0.000757776 134.440857 27.345264 173.218509 61.0763 173.219662 C 94.807337 173.220815 122.15124 134.441121 122.151343 86.608868 C 122.151447 38.776614 94.806941 -0.00103849 61.075905 -0.0021915 Z M 61.075905 -0.0021915 " stroke="#000000" stroke-width="4" stroke-opacity="1" stroke-miterlimit="4"/></g></g></g></g><g clip-path="url(#c1caed4d1d)"><g clip-path="url(#ea5765156e)"><g clip-path="url(#3f88aad2f4)"><g transform="matrix(1, 0, 0, 1, 326, 373)"><g clip-path="url(#96aa912fb4)"><g clip-path="url(#c03caf3073)"><g clip-path="url(#812f7d1cfd)"><g clip-path="url(#040e0e3355)"><path fill="#000000" d="M -3.492188 62.0625 L 4.960938 -4.660156 L 99.574219 7.320312 L 91.121094 74.046875 Z M -3.492188 62.0625 " fill-opacity="1" fill-rule="nonzero"/></g></g></g></g></g></g></g></g><g clip-path="url(#fa837d7672)"><g clip-path="url(#a09634edf1)"><g clip-path="url(#763ca3f0f6)"><g clip-path="url(#9822029217)"><path stroke-linecap="butt" transform="matrix(0.0942405, -0.744056, 0.744056, 0.0942405, 322.50939, 435.062015)" fill="none" stroke-linejoin="miter" d="M 44.833835 -0.000239231 C 20.07531 0.0014064 -0.00225504 28.463359 -0.00114696 63.580091 C -0.000693327 98.691656 20.07352 127.155266 44.832699 127.158787 C 69.596392 127.156487 89.668135 98.690022 89.667682 63.578457 C 89.672395 28.466237 69.597528 -0.00253931 44.833835 -0.000239231 Z M 44.833835 -0.000239231 " stroke="#000000" stroke-width="4" stroke-opacity="1" stroke-miterlimit="4"/></g></g></g></g><path stroke-linecap="butt" transform="matrix(0.181158, -0.727792, 0.727792, 0.181158, 316.292682, 438.066143)" fill="none" stroke-linejoin="miter" d="M 0.0020117 1.497358 L 16.984567 1.499547 " stroke="#000000" stroke-width="3" stroke-opacity="1" stroke-miterlimit="4"/><path stroke-linecap="butt" transform="matrix(0.348575, -0.664075, 0.664075, 0.348575, 330.710173, 451.435054)" fill="none" stroke-linejoin="miter" d="M 0.00150644 1.500332 L 16.982586 1.498519 " stroke="#000000" stroke-width="3" stroke-opacity="1" stroke-miterlimit="4"/><path stroke-linecap="butt" transform="matrix(0.28186, -0.695022, 0.695022, 0.28186, 349.915034, 461.43619)" fill="none" stroke-linejoin="miter" d="M -0.000757294 1.499537 L 20.851529 1.501672 " stroke="#000000" stroke-width="3" stroke-opacity="1" stroke-miterlimit="4"/><path stroke-linecap="butt" transform="matrix(0.0339777, -0.74923, 0.74923, 0.0339777, 375.267611, 464.802189)" fill="none" stroke-linejoin="miter" d="M 0.00207215 1.498797 L 16.983119 1.50033 " stroke="#000000" stroke-width="3" stroke-opacity="1" stroke-miterlimit="4"/><path stroke-linecap="butt" transform="matrix(-0.0930612, -0.744204, 0.744204, -0.0930612, 396.699768, 463.955325)" fill="none" stroke-linejoin="miter" d="M -0.000944954 1.500328 L 19.7981 1.49868 " stroke="#000000" stroke-width="3" stroke-opacity="1" stroke-miterlimit="4"/><path stroke-linecap="butt" transform="matrix(-0.0698599, -0.746739, 0.746739, -0.0698599, 416.881878, 454.845382)" fill="none" stroke-linejoin="miter" d="M -0.00235644 1.502349 L 17.014659 1.498869 " stroke="#000000" stroke-width="3" stroke-opacity="1" stroke-miterlimit="4"/><g clip-path="url(#b3a2601786)"><g clip-path="url(#d40d282719)"><g clip-path="url(#a2cc92b584)"><g transform="matrix(1, 0, 0, 1, 334, 377)"><g clip-path="url(#f7f6f62c75)"><g clip-path="url(#1de408136a)"><g clip-path="url(#f7de9ccf21)"><g clip-path="url(#786929fb57)"><path fill="#a9c5e7" d="M -3.539062 56.933594 L 4.226562 -4.371094 L 89.484375 6.425781 L 81.71875 67.734375 Z M -3.539062 56.933594 " fill-opacity="1" fill-rule="nonzero"/></g></g></g></g></g></g></g></g><g clip-path="url(#dc2ecf8527)"><g clip-path="url(#fcca2dc0d4)"><g clip-path="url(#d92cf8e87f)"><path fill="#ffffff" d="M 381.765625 399.59375 C 379.847656 400.496094 377.847656 402.179688 375.820312 404.808594 L 369.9375 402.117188 C 371 400.6875 372.355469 399.527344 373.992188 398.636719 C 374.210938 398.460938 374.425781 398.285156 374.417969 398.007812 C 374.519531 397.78125 374.511719 397.503906 374.335938 397.289062 L 371.792969 392.976562 C 371.621094 392.757812 371.445312 392.542969 371.167969 392.550781 C 370.941406 392.449219 370.613281 392.570312 370.445312 392.632812 C 367.609375 394.34375 365.347656 396.59375 363.714844 399.269531 L 362.46875 398.699219 C 362.015625 398.492188 361.410156 398.621094 361.148438 399.1875 L 359.960938 401.792969 C 359.75 402.242188 359.882812 402.851562 360.449219 403.109375 L 361.695312 403.679688 C 360.832031 406.160156 360.804688 408.609375 361.550781 410.867188 C 362.308594 413.402344 364.042969 415.292969 366.644531 416.484375 C 369.246094 417.675781 371.535156 417.761719 373.617188 416.800781 C 375.535156 415.898438 377.371094 414.277344 379.34375 411.757812 L 385.457031 414.554688 C 384.121094 416.273438 382.277344 417.617188 379.863281 418.703125 C 379.644531 418.875 379.429688 419.050781 379.324219 419.277344 C 379.222656 419.503906 379.230469 419.78125 379.40625 420 L 381.566406 424.546875 C 381.75 425.039062 382.367188 425.1875 382.863281 425.003906 C 386.648438 423.3125 389.621094 420.703125 391.792969 417.457031 L 393.941406 418.441406 C 394.394531 418.648438 395.003906 418.515625 395.261719 417.949219 L 396.453125 415.347656 C 396.660156 414.894531 396.527344 414.285156 395.960938 414.027344 L 393.8125 413.042969 C 394.777344 410.335938 394.804688 407.886719 394.109375 405.515625 C 393.355469 402.980469 391.671875 400.980469 389.066406 399.789062 C 386.300781 398.65625 383.902344 398.515625 381.765625 399.59375 Z M 386.1875 406.679688 C 386.867188 406.992188 387.328125 407.476562 387.519531 408.25 C 387.652344 408.855469 387.621094 409.527344 387.535156 410.308594 L 382.445312 407.976562 C 383.363281 407.167969 383.960938 406.757812 384.292969 406.632812 C 384.890625 406.222656 385.507812 406.367188 386.1875 406.679688 Z M 369.136719 409.550781 C 368.457031 409.238281 368.105469 408.804688 367.914062 408.03125 C 367.730469 407.539062 367.710938 406.980469 367.855469 406.363281 L 372.609375 408.539062 C 371.855469 409.289062 371.308594 409.585938 370.976562 409.707031 C 370.320312 409.953125 369.8125 409.859375 369.136719 409.550781 Z M 369.136719 409.550781 " fill-opacity="1" fill-rule="nonzero"/></g></g></g><g mask="url(#9f5d3ad5b0)"><g transform="matrix(1, 0, 0, 1, 431, 334)"><g clip-path="url(#0b720802ca)"><g clip-path="url(#3e45813d6f)"><g clip-path="url(#4cc44a0910)"><g clip-path="url(#f3b205e573)"><g transform="matrix(1, 0, 0, 1, 4, 6)"><g clip-path="url(#f6fe84054e)"><g clip-path="url(#ed60d7d619)"><g clip-path="url(#ff2fb2a6d9)"><g clip-path="url(#3b33d3ed8a)"><path fill="#000000" d="M 4.402344 -5.25 L 133.765625 5.996094 L 125.8125 97.480469 L -3.550781 86.234375 Z M 4.402344 -5.25 " fill-opacity="1" fill-rule="nonzero"/></g></g></g></g></g></g></g></g></g></g></g><g clip-path="url(#7cac66dc20)"><g clip-path="url(#ff6b2c7bfa)"><g clip-path="url(#ad89fbced0)"><g transform="matrix(1, 0, 0, 1, 430, 333)"><g clip-path="url(#21d2411aba)"><g clip-path="url(#0ea4269d15)"><g clip-path="url(#4ac3bfebf9)"><g clip-path="url(#a044845f35)"><path fill="#ffffff" d="M -5.445312 84.15625 L 6.066406 -6.742188 L 134.953125 9.582031 L 123.441406 100.480469 Z M -5.445312 84.15625 " fill-opacity="1" fill-rule="nonzero"/></g></g></g></g></g></g></g></g><g clip-path="url(#198631cdea)"><g clip-path="url(#f6779cfc87)"><g clip-path="url(#93550a2da5)"><g clip-path="url(#fc4f70e1ab)"><path stroke-linecap="butt" transform="matrix(0.0942405, -0.744056, 0.744056, 0.0942405, 424.55343, 417.154392)" fill="none" stroke-linejoin="miter" d="M 61.07525 -0.000803712 C 27.344213 -0.00195672 0.000310622 38.777738 0.000206813 86.609991 C 0.000103005 134.442244 27.344609 173.219897 61.075646 173.22105 C 94.806028 173.217036 122.150585 134.442509 122.150689 86.610256 C 122.150792 38.778002 94.806286 0.000349294 61.07525 -0.000803712 Z M 61.07525 -0.000803712 " stroke="#000000" stroke-width="4" stroke-opacity="1" stroke-miterlimit="4"/></g></g></g></g><g clip-path="url(#0b757fda4c)"><g clip-path="url(#5e34415fbb)"><g clip-path="url(#90a173fbbd)"><g transform="matrix(1, 0, 0, 1, 432, 319)"><g clip-path="url(#16440858c6)"><g clip-path="url(#04d0b8de79)"><g clip-path="url(#0c4731b5fe)"><g clip-path="url(#d63ccc3263)"><path fill="#ffffff" d="M -5.464844 84.402344 L 6.046875 -6.496094 L 134.933594 9.828125 L 123.421875 100.726562 Z M -5.464844 84.402344 " fill-opacity="1" fill-rule="nonzero"/></g></g></g></g></g></g></g></g><g clip-path="url(#f1afe0efba)"><g clip-path="url(#735039d324)"><g clip-path="url(#21a606b50f)"><g clip-path="url(#9d325d8439)"><path stroke-linecap="butt" transform="matrix(0.0942405, -0.744056, 0.744056, 0.0942405, 426.534126, 403.400568)" fill="none" stroke-linejoin="miter" d="M 61.075321 -0.00111808 C 27.344285 -0.00227108 0.000382249 38.777423 0.00027844 86.609677 C 0.000174632 134.44193 27.344681 173.219583 61.075717 173.220736 C 94.806099 173.216722 122.150656 134.442195 122.15076 86.609941 C 122.150864 38.777688 94.806358 0.0000349309 61.075321 -0.00111808 Z M 61.075321 -0.00111808 " stroke="#000000" stroke-width="4" stroke-opacity="1" stroke-miterlimit="4"/></g></g></g></g><g clip-path="url(#d004a33832)"><g clip-path="url(#f6e07823f1)"><g clip-path="url(#36e72f696b)"><g transform="matrix(1, 0, 0, 1, 448, 333)"><g clip-path="url(#64d8bcf115)"><g clip-path="url(#df74a0c469)"><g clip-path="url(#c9ea3bd2bb)"><g clip-path="url(#76ab2ee321)"><path fill="#000000" d="M -3.789062 62.078125 L 4.664062 -4.648438 L 99.277344 7.335938 L 90.824219 74.0625 Z M -3.789062 62.078125 " fill-opacity="1" fill-rule="nonzero"/></g></g></g></g></g></g></g></g><g clip-path="url(#5b1783a0cf)"><g clip-path="url(#7c6916f327)"><g clip-path="url(#cae5401088)"><g clip-path="url(#057819b843)"><path stroke-linecap="butt" transform="matrix(0.0942405, -0.744056, 0.744056, 0.0942405, 444.211805, 395.07715)" fill="none" stroke-linejoin="miter" d="M 44.833307 0.000782108 C 20.074782 0.00242774 0.00238355 28.463726 -0.00232986 63.575946 C -0.00122178 98.692678 20.072991 127.156287 44.836684 127.153987 C 69.595863 127.157509 89.667607 98.691043 89.67232 63.578824 C 89.671867 28.467259 69.596999 -0.00151797 44.833307 0.000782108 Z M 44.833307 0.000782108 " stroke="#000000" stroke-width="4" stroke-opacity="1" stroke-miterlimit="4"/></g></g></g></g><path stroke-linecap="butt" transform="matrix(0.157195, -0.733341, 0.733341, 0.157195, 438.086909, 397.469797)" fill="none" stroke-linejoin="miter" d="M -0.00171892 1.501157 L 16.984325 1.498228 " stroke="#000000" stroke-width="3" stroke-opacity="1" stroke-miterlimit="4"/><path stroke-linecap="butt" transform="matrix(0.348575, -0.664075, 0.664075, 0.348575, 452.412485, 411.450168)" fill="none" stroke-linejoin="miter" d="M 0.00140711 1.501609 L 16.982486 1.499796 " stroke="#000000" stroke-width="3" stroke-opacity="1" stroke-miterlimit="4"/><path stroke-linecap="butt" transform="matrix(0.279555, -0.695952, 0.695952, 0.279555, 472.48078, 419.440704)" fill="none" stroke-linejoin="miter" d="M 0.000187625 1.4981 L 17.927544 1.498142 " stroke="#000000" stroke-width="3" stroke-opacity="1" stroke-miterlimit="4"/><path stroke-linecap="butt" transform="matrix(0.0339777, -0.74923, 0.74923, 0.0339777, 496.970018, 424.817279)" fill="none" stroke-linejoin="miter" d="M 0.00140281 1.499785 L 16.98245 1.501318 " stroke="#000000" stroke-width="3" stroke-opacity="1" stroke-miterlimit="4"/><path stroke-linecap="butt" transform="matrix(-0.0721378, -0.746523, 0.746523, -0.0721378, 518.255185, 421.878095)" fill="none" stroke-linejoin="miter" d="M 0.00047055 1.500086 L 16.985637 1.498358 " stroke="#000000" stroke-width="3" stroke-opacity="1" stroke-miterlimit="4"/><path stroke-linecap="butt" transform="matrix(-0.0719779, -0.746538, 0.746538, -0.0719779, 538.915632, 414.957696)" fill="none" stroke-linejoin="miter" d="M -0.00239733 1.499389 L 17.01906 1.497524 " stroke="#000000" stroke-width="3" stroke-opacity="1" stroke-miterlimit="4"/><g clip-path="url(#ec61a8c232)"><g clip-path="url(#424fb1fd50)"><g clip-path="url(#3713a50fe0)"><g transform="matrix(1, 0, 0, 1, 455, 337)"><g clip-path="url(#c12e5597ae)"><g clip-path="url(#d19271843a)"><g clip-path="url(#970e39309e)"><g clip-path="url(#42641d2ac6)"><path fill="#a9c5e7" d="M -2.835938 56.949219 L 4.929688 -4.355469 L 90.1875 6.441406 L 82.421875 67.75 Z M -2.835938 56.949219 " fill-opacity="1" fill-rule="nonzero"/></g></g></g></g></g></g></g></g><g clip-path="url(#e916f45763)"><g clip-path="url(#306440b613)"><g clip-path="url(#ecdb47b882)"><path fill="#ffffff" d="M 503.46875 359.609375 C 501.550781 360.507812 499.550781 362.191406 497.523438 364.824219 L 491.640625 362.132812 C 492.703125 360.703125 494.054688 359.542969 495.695312 358.652344 C 495.914062 358.476562 496.128906 358.300781 496.121094 358.023438 C 496.222656 357.796875 496.214844 357.519531 496.039062 357.300781 L 493.496094 352.992188 C 493.324219 352.773438 493.148438 352.558594 492.871094 352.566406 C 492.644531 352.464844 492.3125 352.585938 492.148438 352.648438 C 489.3125 354.359375 487.050781 356.609375 485.417969 359.28125 L 484.171875 358.714844 C 483.71875 358.503906 483.113281 358.636719 482.851562 359.203125 L 481.660156 361.804688 C 481.453125 362.257812 481.585938 362.867188 482.152344 363.125 L 483.398438 363.695312 C 482.535156 366.175781 482.507812 368.625 483.253906 370.882812 C 484.011719 373.417969 485.746094 375.308594 488.347656 376.5 C 490.949219 377.691406 493.234375 377.777344 495.320312 376.816406 C 497.238281 375.914062 499.074219 374.292969 501.046875 371.773438 L 507.15625 374.570312 C 505.824219 376.289062 503.976562 377.632812 501.566406 378.71875 C 501.347656 378.890625 501.132812 379.066406 501.027344 379.292969 C 500.925781 379.519531 500.933594 379.796875 501.109375 380.011719 L 503.269531 384.5625 C 503.453125 385.054688 504.070312 385.203125 504.566406 385.015625 C 508.351562 383.328125 511.324219 380.71875 513.492188 377.472656 L 515.644531 378.457031 C 516.097656 378.664062 516.703125 378.53125 516.964844 377.964844 L 518.15625 375.363281 C 518.363281 374.910156 518.230469 374.300781 517.664062 374.042969 L 515.515625 373.058594 C 516.480469 370.351562 516.503906 367.902344 515.8125 365.53125 C 515.054688 362.996094 513.371094 360.992188 510.769531 359.800781 C 508.003906 358.671875 505.605469 358.53125 503.46875 359.609375 Z M 507.890625 366.695312 C 508.566406 367.003906 509.03125 367.492188 509.222656 368.265625 C 509.355469 368.871094 509.324219 369.539062 509.238281 370.324219 L 504.148438 367.992188 C 505.066406 367.183594 505.664062 366.769531 505.996094 366.648438 C 506.59375 366.238281 507.210938 366.382812 507.890625 366.695312 Z M 490.835938 369.5625 C 490.160156 369.253906 489.808594 368.820312 489.617188 368.046875 C 489.433594 367.550781 489.414062 366.996094 489.558594 366.378906 L 494.3125 368.554688 C 493.558594 369.304688 493.011719 369.601562 492.679688 369.722656 C 492.019531 369.96875 491.515625 369.875 490.835938 369.5625 Z M 490.835938 369.5625 " fill-opacity="1" fill-rule="nonzero"/></g></g></g><g mask="url(#ad31da7c75)"><g transform="matrix(1, 0, 0, 1, 193, 312)"><g clip-path="url(#1224fd51c6)"><g clip-path="url(#cfd2d3055b)"><g clip-path="url(#c448f4f655)"><g clip-path="url(#a778e5d48d)"><g transform="matrix(1, 0, 0, 1, 4, 5)"><g clip-path="url(#ca41f6285d)"><g clip-path="url(#193a4c90ce)"><g clip-path="url(#cc3cc3183d)"><g clip-path="url(#a0f4d23e4a)"><path fill="#000000" d="M 4.730469 -4.753906 L 134.097656 6.492188 L 126.144531 97.976562 L -3.21875 86.730469 Z M 4.730469 -4.753906 " fill-opacity="1" fill-rule="nonzero"/></g></g></g></g></g></g></g></g></g></g></g><g clip-path="url(#31f15707e7)"><g clip-path="url(#d8e0390887)"><g clip-path="url(#5422be8edd)"><g transform="matrix(1, 0, 0, 1, 192, 311)"><g clip-path="url(#d7146e3d51)"><g clip-path="url(#398da45e2b)"><g clip-path="url(#3c91f2e138)"><g clip-path="url(#608e341459)"><path fill="#ffffff" d="M -5.117188 83.652344 L 6.394531 -7.242188 L 135.285156 9.082031 L 123.773438 99.976562 Z M -5.117188 83.652344 " fill-opacity="1" fill-rule="nonzero"/></g></g></g></g></g></g></g></g><g clip-path="url(#98241b9ae3)"><g clip-path="url(#036fa0ba5b)"><g clip-path="url(#76b1a54ed2)"><g clip-path="url(#4750110fa6)"><path stroke-linecap="butt" transform="matrix(0.0942405, -0.744056, 0.744056, 0.0942405, 186.883866, 394.652257)" fill="none" stroke-linejoin="miter" d="M 61.07786 0.00101021 C 27.346824 -0.000142793 0.00226659 38.774384 0.00216278 86.606638 C 0.00271342 134.444058 27.346565 173.216544 61.077602 173.217697 C 94.808638 173.21885 122.153195 134.444323 122.152645 86.606902 C 122.152748 38.774649 94.808897 0.00216322 61.07786 0.00101021 Z M 61.07786 0.00101021 " stroke="#000000" stroke-width="4" stroke-opacity="1" stroke-miterlimit="4"/></g></g></g></g><g clip-path="url(#411f97487e)"><g clip-path="url(#bead94502a)"><g clip-path="url(#ccc93a923c)"><g transform="matrix(1, 0, 0, 1, 194, 297)"><g clip-path="url(#6d84da3f5b)"><g clip-path="url(#1af34cf339)"><g clip-path="url(#f94426f0b5)"><g clip-path="url(#20a64868f3)"><path fill="#ffffff" d="M -5.136719 83.898438 L 6.378906 -6.996094 L 135.265625 9.328125 L 123.753906 100.222656 Z M -5.136719 83.898438 " fill-opacity="1" fill-rule="nonzero"/></g></g></g></g></g></g></g></g><g clip-path="url(#9a645e176d)"><g clip-path="url(#c58678588c)"><g clip-path="url(#a51aff4f5b)"><g clip-path="url(#6921b48f48)"><path stroke-linecap="butt" transform="matrix(0.0942405, -0.744056, 0.744056, 0.0942405, 188.864569, 380.8984)" fill="none" stroke-linejoin="miter" d="M 61.077886 0.000691955 C 27.34685 -0.000461051 0.00229256 38.774066 0.0028432 86.611487 C 0.00273939 134.44374 27.346591 173.216226 61.077628 173.217379 C 94.808664 173.218532 122.153221 134.444005 122.153325 86.611751 C 122.152774 38.774331 94.808923 0.00184496 61.077886 0.000691955 Z M 61.077886 0.000691955 " stroke="#000000" stroke-width="4" stroke-opacity="1" stroke-miterlimit="4"/></g></g></g></g><g clip-path="url(#f5dbf1ae6a)"><g clip-path="url(#bbbff1982b)"><g clip-path="url(#18f88530c6)"><g transform="matrix(1, 0, 0, 1, 210, 311)"><g clip-path="url(#53ffda3926)"><g clip-path="url(#bee64ac006)"><g clip-path="url(#2e8ac0a58c)"><g clip-path="url(#38923dbb12)"><path fill="#000000" d="M -3.457031 61.574219 L 4.992188 -5.148438 L 99.605469 6.835938 L 91.15625 73.558594 Z M -3.457031 61.574219 " fill-opacity="1" fill-rule="nonzero"/></g></g></g></g></g></g></g></g><g clip-path="url(#071847d453)"><g clip-path="url(#ec6360048a)"><g clip-path="url(#f545980d62)"><g clip-path="url(#cc5f0c61e8)"><path stroke-linecap="butt" transform="matrix(0.0942405, -0.744056, 0.744056, 0.0942405, 206.542185, 372.575011)" fill="none" stroke-linejoin="miter" d="M 44.835266 -0.0024972 C 20.071574 -0.000197117 -0.000170188 28.466268 0.000283446 63.577833 C 0.000737081 98.689398 20.075604 127.158175 44.83413 127.156529 C 69.597822 127.154229 89.67022 98.692931 89.669112 63.576199 C 89.668659 28.464634 69.594446 0.00102422 44.835266 -0.0024972 Z M 44.835266 -0.0024972 " stroke="#000000" stroke-width="4" stroke-opacity="1" stroke-miterlimit="4"/></g></g></g></g><path stroke-linecap="butt" transform="matrix(0.157195, -0.733341, 0.733341, 0.157195, 200.417352, 374.967657)" fill="none" stroke-linejoin="miter" d="M -0.0000635646 1.497642 L 16.981979 1.500896 " stroke="#000000" stroke-width="3" stroke-opacity="1" stroke-miterlimit="4"/><path stroke-linecap="butt" transform="matrix(0.348575, -0.664075, 0.664075, 0.348575, 214.742951, 388.948009)" fill="none" stroke-linejoin="miter" d="M -0.00259282 1.500182 L 16.985519 1.500561 " stroke="#000000" stroke-width="3" stroke-opacity="1" stroke-miterlimit="4"/><path stroke-linecap="butt" transform="matrix(0.24434, -0.709082, 0.709082, 0.24434, 235.652497, 397.379737)" fill="none" stroke-linejoin="miter" d="M -0.000361327 1.498324 L 16.984603 1.501474 " stroke="#000000" stroke-width="3" stroke-opacity="1" stroke-miterlimit="4"/><path stroke-linecap="butt" transform="matrix(0.0339777, -0.74923, 0.74923, 0.0339777, 259.30042, 402.315118)" fill="none" stroke-linejoin="miter" d="M -0.00137755 1.502086 L 16.984637 1.49818 " stroke="#000000" stroke-width="3" stroke-opacity="1" stroke-miterlimit="4"/><path stroke-linecap="butt" transform="matrix(-0.0721378, -0.746523, 0.746523, -0.0721378, 280.585623, 400.070391)" fill="none" stroke-linejoin="miter" d="M 0.00144634 1.502315 L 16.981429 1.500086 " stroke="#000000" stroke-width="3" stroke-opacity="1" stroke-miterlimit="4"/><path stroke-linecap="butt" transform="matrix(-0.0721378, -0.746523, 0.746523, -0.0721378, 300.931394, 392.559961)" fill="none" stroke-linejoin="miter" d="M -0.00176834 1.499297 L 16.983398 1.497569 " stroke="#000000" stroke-width="3" stroke-opacity="1" stroke-miterlimit="4"/><g clip-path="url(#59be57cd7a)"><g clip-path="url(#7267b6fd79)"><g clip-path="url(#7123478bcd)"><g transform="matrix(1, 0, 0, 1, 218, 315)"><g clip-path="url(#1c9e59211c)"><g clip-path="url(#afb0bfdd4c)"><g clip-path="url(#084f0fbf2c)"><g clip-path="url(#f225c390b8)"><path fill="#a9c5e7" d="M -3.503906 56.449219 L 4.261719 -4.859375 L 89.515625 5.9375 L 81.75 67.246094 Z M -3.503906 56.449219 " fill-opacity="1" fill-rule="nonzero"/></g></g></g></g></g></g></g></g><g clip-path="url(#6fac433280)"><g clip-path="url(#4e1d990994)"><g clip-path="url(#c9e251ed28)"><path fill="#ffffff" d="M 265.800781 337.105469 C 263.882812 338.007812 261.878906 339.691406 259.855469 342.320312 L 253.96875 339.628906 C 255.035156 338.199219 256.386719 337.039062 258.027344 336.148438 C 258.242188 335.972656 258.460938 335.800781 258.449219 335.519531 C 258.554688 335.296875 258.542969 335.015625 258.371094 334.800781 L 255.828125 330.488281 C 255.652344 330.273438 255.476562 330.054688 255.199219 330.066406 C 254.972656 329.960938 254.644531 330.085938 254.480469 330.144531 C 251.644531 331.859375 249.382812 334.105469 247.746094 336.78125 L 246.503906 336.210938 C 246.050781 336.003906 245.441406 336.136719 245.183594 336.703125 L 243.992188 339.304688 C 243.785156 339.757812 243.917969 340.363281 244.484375 340.625 L 245.726562 341.191406 C 244.867188 343.671875 244.839844 346.125 245.585938 348.382812 C 246.339844 350.917969 248.074219 352.804688 250.679688 353.996094 C 253.28125 355.1875 255.566406 355.277344 257.648438 354.3125 C 259.566406 353.414062 261.40625 351.789062 263.378906 349.273438 L 269.488281 352.070312 C 268.15625 353.785156 266.308594 355.128906 263.894531 356.214844 C 263.679688 356.390625 263.460938 356.5625 263.359375 356.789062 C 263.253906 357.015625 263.265625 357.292969 263.4375 357.511719 L 265.601562 362.058594 C 265.785156 362.554688 266.402344 362.699219 266.894531 362.515625 C 270.679688 360.824219 273.652344 358.21875 275.824219 354.96875 L 277.972656 355.953125 C 278.425781 356.160156 279.035156 356.027344 279.292969 355.460938 L 280.484375 352.859375 C 280.691406 352.40625 280.558594 351.800781 279.992188 351.539062 L 277.84375 350.554688 C 278.808594 347.851562 278.835938 345.398438 278.140625 343.027344 C 277.386719 340.492188 275.703125 338.492188 273.101562 337.300781 C 270.332031 336.171875 267.933594 336.03125 265.800781 337.105469 Z M 270.21875 344.191406 C 270.898438 344.503906 271.359375 344.988281 271.554688 345.761719 C 271.6875 346.371094 271.652344 347.039062 271.570312 347.820312 L 266.476562 345.492188 C 267.398438 344.679688 267.996094 344.269531 268.324219 344.148438 C 268.921875 343.734375 269.539062 343.882812 270.21875 344.191406 Z M 253.167969 347.0625 C 252.488281 346.75 252.140625 346.316406 251.945312 345.546875 C 251.761719 345.050781 251.742188 344.496094 251.890625 343.875 L 256.640625 346.050781 C 255.886719 346.800781 255.339844 347.097656 255.011719 347.222656 C 254.351562 347.46875 253.847656 347.375 253.167969 347.0625 Z M 253.167969 347.0625 " fill-opacity="1" fill-rule="nonzero"/></g></g></g><g mask="url(#5ac02e04dd)"><g transform="matrix(1, 0, 0, 1, 318, 276)"><g clip-path="url(#3d2a677c7e)"><g clip-path="url(#7f3fb7e9c8)"><g clip-path="url(#3e81b2f66c)"><g clip-path="url(#a2ffefe9ad)"><g transform="matrix(1, 0, 0, 1, 3, 4)"><g clip-path="url(#51134823dc)"><g clip-path="url(#8444d29fa7)"><g clip-path="url(#f9e0bf844f)"><g clip-path="url(#bc018b4695)"><path fill="#000000" d="M 4.09375 -3.730469 L 113.199219 5.753906 L 106.492188 82.910156 L -2.613281 73.425781 Z M 4.09375 -3.730469 " fill-opacity="1" fill-rule="nonzero"/></g></g></g></g></g></g></g></g></g></g></g><g clip-path="url(#fb33ad2cef)"><g clip-path="url(#0d6bc9a7bf)"><g clip-path="url(#805299df10)"><g transform="matrix(1, 0, 0, 1, 317, 275)"><g clip-path="url(#3afbd0fa75)"><g clip-path="url(#23d41c4c97)"><g clip-path="url(#d57d4b9310)"><g clip-path="url(#8714a025ed)"><path fill="#ffffff" d="M -4.433594 70.765625 L 5.277344 -5.894531 L 113.976562 7.875 L 104.269531 84.535156 Z M -4.433594 70.765625 " fill-opacity="1" fill-rule="nonzero"/></g></g></g></g></g></g></g></g><g clip-path="url(#9aa9312805)"><g clip-path="url(#4758eb7eaf)"><g clip-path="url(#c6d054d091)"><g clip-path="url(#4c90a93a68)"><path stroke-linecap="butt" transform="matrix(0.0942405, -0.744056, 0.744056, 0.0942405, 312.572683, 345.767377)" fill="none" stroke-linejoin="miter" d="M 51.509357 -0.00157064 C 23.060145 0.00028449 0.00232603 32.703671 -0.00225992 73.039572 C -0.00102437 113.379986 23.061464 146.079811 51.506164 146.083777 C 79.955375 146.081922 103.013194 113.378535 103.01778 73.042634 C 103.016544 32.70222 79.954056 0.00239573 51.509357 -0.00157064 Z M 51.509357 -0.00157064 " stroke="#000000" stroke-width="4" stroke-opacity="1" stroke-miterlimit="4"/></g></g></g></g><g clip-path="url(#5e925f9510)"><g clip-path="url(#3b00f67ba3)"><g clip-path="url(#c4f85c15ec)"><g transform="matrix(1, 0, 0, 1, 318, 263)"><g clip-path="url(#ac11830f6f)"><g clip-path="url(#9079f23613)"><g clip-path="url(#7371529468)"><g clip-path="url(#bb04c074d5)"><path fill="#ffffff" d="M -3.761719 71.167969 L 5.949219 -5.492188 L 114.648438 8.277344 L 104.9375 84.933594 Z M -3.761719 71.167969 " fill-opacity="1" fill-rule="nonzero"/></g></g></g></g></g></g></g></g><g clip-path="url(#9019184179)"><g clip-path="url(#e3b408f833)"><g clip-path="url(#95643f550d)"><g clip-path="url(#c336588497)"><path stroke-linecap="butt" transform="matrix(0.0942405, -0.744056, 0.744056, 0.0942405, 314.243133, 334.167748)" fill="none" stroke-linejoin="miter" d="M 51.506986 0.000644396 C 23.062941 0.00184508 -0.000699256 32.700719 0.000536291 73.041133 C 0.00177184 113.381547 23.059093 146.082026 51.508305 146.080171 C 79.95235 146.07897 103.01599 113.380096 103.014755 73.039682 C 103.013519 32.699268 79.956198 -0.00121073 51.506986 0.000644396 Z M 51.506986 0.000644396 " stroke="#000000" stroke-width="4" stroke-opacity="1" stroke-miterlimit="4"/></g></g></g></g><g clip-path="url(#63f6c4f51e)"><g clip-path="url(#255281c7d5)"><g clip-path="url(#83b4108ea2)"><g transform="matrix(1, 0, 0, 1, 332, 275)"><g clip-path="url(#4a19fc4f74)"><g clip-path="url(#6af92d8937)"><g clip-path="url(#f5a78fbf48)"><g clip-path="url(#938e73e244)"><path fill="#000000" d="M -2.847656 52.144531 L 4.28125 -4.128906 L 84.074219 5.976562 L 76.949219 62.253906 Z M -2.847656 52.144531 " fill-opacity="1" fill-rule="nonzero"/></g></g></g></g></g></g></g></g><g clip-path="url(#7cffeecb8e)"><g clip-path="url(#d75c39b204)"><g clip-path="url(#36cb84ddbd)"><g clip-path="url(#0d71b42fff)"><path stroke-linecap="butt" transform="matrix(0.0942405, -0.744056, 0.744056, 0.0942405, 329.153629, 327.143968)" fill="none" stroke-linejoin="miter" d="M 37.809663 0.0025799 C 16.930453 0.00112447 0.000106237 24.006251 0.00191653 53.615703 C -0.00078579 83.230977 16.93104 107.236397 37.809595 107.232685 C 58.693972 107.233486 75.619152 83.229014 75.622509 53.618908 C 75.620044 24.004288 58.693386 -0.00178616 37.809663 0.0025799 Z M 37.809663 0.0025799 " stroke="#000000" stroke-width="4" stroke-opacity="1" stroke-miterlimit="4"/></g></g></g></g><path stroke-linecap="butt" transform="matrix(0.157195, -0.733341, 0.733341, 0.157195, 323.814654, 329.128773)" fill="none" stroke-linejoin="miter" d="M 0.00150479 1.498854 L 14.325511 1.501919 " stroke="#000000" stroke-width="3" stroke-opacity="1" stroke-miterlimit="4"/><path stroke-linecap="butt" transform="matrix(0.348575, -0.664075, 0.664075, 0.348575, 335.912593, 340.874389)" fill="none" stroke-linejoin="miter" d="M -0.000501812 1.502448 L 14.322424 1.501816 " stroke="#000000" stroke-width="3" stroke-opacity="1" stroke-miterlimit="4"/><path stroke-linecap="butt" transform="matrix(0.24434, -0.709082, 0.709082, 0.24434, 353.536627, 348.176283)" fill="none" stroke-linejoin="miter" d="M 0.000348838 1.50173 L 14.323565 1.502099 " stroke="#000000" stroke-width="3" stroke-opacity="1" stroke-miterlimit="4"/><path stroke-linecap="butt" transform="matrix(0.0339777, -0.74923, 0.74923, 0.0339777, 373.471333, 352.2218)" fill="none" stroke-linejoin="miter" d="M -0.00098046 1.498138 L 14.321117 1.50034 " stroke="#000000" stroke-width="3" stroke-opacity="1" stroke-miterlimit="4"/><path stroke-linecap="butt" transform="matrix(-0.0721378, -0.746523, 0.746523, -0.0721378, 391.423342, 349.767922)" fill="none" stroke-linejoin="miter" d="M -0.000564808 1.499735 L 14.320804 1.502229 " stroke="#000000" stroke-width="3" stroke-opacity="1" stroke-miterlimit="4"/><path stroke-linecap="butt" transform="matrix(-0.0721378, -0.746523, 0.746523, -0.0721378, 409.149487, 343.579897)" fill="none" stroke-linejoin="miter" d="M -0.00131553 1.500222 L 14.325738 1.498033 " stroke="#000000" stroke-width="3" stroke-opacity="1" stroke-miterlimit="4"/><g clip-path="url(#deadeea230)"><g clip-path="url(#7338068252)"><g clip-path="url(#5d3aa874f4)"><g transform="matrix(1, 0, 0, 1, 338, 278)"><g clip-path="url(#7ca75c4b52)"><g clip-path="url(#a1a3d11e09)"><g clip-path="url(#af9d0591e5)"><g clip-path="url(#4b6c432e35)"><path fill="#a9c5e7" d="M -2.144531 48.199219 L 4.40625 -3.507812 L 76.308594 5.601562 L 69.757812 57.304688 Z M -2.144531 48.199219 " fill-opacity="1" fill-rule="nonzero"/></g></g></g></g></g></g></g></g><g clip-path="url(#f75dc66c2f)"><g clip-path="url(#0f1fd028f5)"><g clip-path="url(#80d8fcbc69)"><path fill="#ffffff" d="M 379.128906 297.234375 C 377.511719 297.992188 375.824219 299.414062 374.117188 301.632812 L 369.15625 299.359375 C 370.050781 298.15625 371.191406 297.179688 372.574219 296.425781 C 372.757812 296.277344 372.941406 296.132812 372.933594 295.898438 C 373.019531 295.707031 373.011719 295.472656 372.863281 295.289062 L 370.722656 291.652344 C 370.574219 291.46875 370.425781 291.289062 370.191406 291.296875 C 370 291.207031 369.722656 291.3125 369.582031 291.363281 C 367.191406 292.808594 365.285156 294.703125 363.90625 296.957031 L 362.855469 296.476562 C 362.476562 296.304688 361.960938 296.414062 361.742188 296.890625 L 360.738281 299.085938 C 360.566406 299.46875 360.675781 299.980469 361.152344 300.199219 L 362.203125 300.679688 C 361.476562 302.773438 361.453125 304.839844 362.082031 306.742188 C 362.71875 308.878906 364.183594 310.472656 366.378906 311.476562 C 368.574219 312.484375 370.5 312.558594 372.257812 311.746094 C 373.875 310.984375 375.425781 309.617188 377.089844 307.492188 L 382.242188 309.851562 C 381.117188 311.300781 379.558594 312.433594 377.523438 313.347656 C 377.34375 313.496094 377.160156 313.644531 377.070312 313.835938 C 376.984375 314.023438 376.992188 314.257812 377.140625 314.441406 L 378.960938 318.277344 C 379.117188 318.695312 379.636719 318.816406 380.054688 318.664062 C 383.246094 317.238281 385.753906 315.039062 387.585938 312.296875 L 389.398438 313.128906 C 389.78125 313.304688 390.292969 313.191406 390.511719 312.714844 L 391.515625 310.519531 C 391.691406 310.136719 391.578125 309.625 391.101562 309.40625 L 389.289062 308.578125 C 390.101562 306.292969 390.125 304.226562 389.539062 302.230469 C 388.902344 300.089844 387.484375 298.402344 385.289062 297.398438 C 382.953125 296.445312 380.929688 296.328125 379.128906 297.234375 Z M 382.859375 303.210938 C 383.429688 303.472656 383.820312 303.882812 383.984375 304.53125 C 384.09375 305.046875 384.066406 305.609375 383.996094 306.269531 L 379.703125 304.304688 C 380.476562 303.621094 380.980469 303.273438 381.261719 303.171875 C 381.765625 302.824219 382.285156 302.949219 382.859375 303.210938 Z M 368.476562 305.628906 C 367.90625 305.367188 367.609375 305.003906 367.449219 304.351562 C 367.292969 303.933594 367.277344 303.464844 367.398438 302.945312 L 371.40625 304.777344 C 370.769531 305.410156 370.308594 305.660156 370.03125 305.765625 C 369.476562 305.972656 369.050781 305.890625 368.476562 305.628906 Z M 368.476562 305.628906 " fill-opacity="1" fill-rule="nonzero"/></g></g></g><path stroke-linecap="butt" transform="matrix(0.000000001309, 0.75, -0.75, 0.000000001309, 258.935527, 257.514999)" fill="none" stroke-linejoin="miter" d="M 4.500835 4.502578 L 43.282087 4.502578 " stroke="#000000" stroke-width="9" stroke-opacity="1" stroke-miterlimit="4"/><path stroke-linecap="round" transform="matrix(0.000000001309, 0.75, -0.75, 0.000000001309, 258.935527, 257.514999)" fill="none" stroke-linejoin="round" d="M 22.500836 -8.997423 L 4.500835 4.502578 L 22.500836 18.002578 " stroke="#000000" stroke-width="9" stroke-opacity="1" stroke-miterlimit="4"/><path stroke-linecap="butt" transform="matrix(0.000000001309, 0.75, -0.75, 0.000000001309, 533.547937, 277.753775)" fill="none" stroke-linejoin="miter" d="M 4.500175 4.501416 L 43.281427 4.501416 " stroke="#000000" stroke-width="9" stroke-opacity="1" stroke-miterlimit="4"/><path stroke-linecap="round" transform="matrix(0.000000001309, 0.75, -0.75, 0.000000001309, 533.547937, 277.753775)" fill="none" stroke-linejoin="round" d="M 22.500176 -8.998585 L 4.500175 4.501416 L 22.500176 18.001416 " stroke="#000000" stroke-width="9" stroke-opacity="1" stroke-miterlimit="4"/><path stroke-linecap="butt" transform="matrix(0.000000001309, 0.75, -0.75, 0.000000001309, 407.127823, 225.053973)" fill="none" stroke-linejoin="miter" d="M 4.500953 4.498556 L 43.282205 4.498556 " stroke="#000000" stroke-width="9" stroke-opacity="1" stroke-miterlimit="4"/><path stroke-linecap="round" transform="matrix(0.000000001309, 0.75, -0.75, 0.000000001309, 407.127823, 225.053973)" fill="none" stroke-linejoin="round" d="M 22.500954 -9.001445 L 4.500953 4.498556 L 22.500954 17.998556 " stroke="#000000" stroke-width="9" stroke-opacity="1" stroke-miterlimit="4"/></svg>