<svg xmlns="http://www.w3.org/2000/svg" xmlns:xlink="http://www.w3.org/1999/xlink" width="1000" zoomAndPan="magnify" viewBox="0 0 750 749.999995" height="1000" preserveAspectRatio="xMidYMid meet" version="1.0"><defs><filter x="0%" y="0%" width="100%" height="100%" id="f4719e2c5e"><feColorMatrix values="0 0 0 0 1 0 0 0 0 1 0 0 0 0 1 0 0 0 1 0" color-interpolation-filters="sRGB"/></filter><mask id="71a47220f5"><g filter="url(#f4719e2c5e)"><rect x="-75" width="900" fill="#000000" y="-74.999999" height="899.999994" fill-opacity="0.08"/></g></mask><clipPath id="e189053775"><path d="M 0.078125 0.28125 L 336.320312 0.28125 L 336.320312 203.800781 L 0.078125 203.800781 Z M 0.078125 0.28125 " clip-rule="nonzero"/></clipPath><clipPath id="aed1bfd265"><path d="M 10 90 L 112 90 L 112 164 L 10 164 Z M 10 90 " clip-rule="nonzero"/></clipPath><clipPath id="eaf345d1d3"><path d="M 22.992188 90.773438 L 111.09375 141.820312 L 98.296875 163.910156 L 10.195312 112.867188 Z M 22.992188 90.773438 " clip-rule="nonzero"/></clipPath><clipPath id="c4df759600"><path d="M 0.160156 0.761719 L 101.199219 0.761719 L 101.199219 73.960938 L 0.160156 73.960938 Z M 0.160156 0.761719 " clip-rule="nonzero"/></clipPath><clipPath id="9db2bf3843"><path d="M 12.992188 0.773438 L 101.09375 51.820312 L 88.296875 73.910156 L 0.195312 22.867188 Z M 12.992188 0.773438 " clip-rule="nonzero"/></clipPath><clipPath id="953ea0df77"><rect x="0" width="102" y="0" height="74"/></clipPath><clipPath id="c176b48183"><path d="M 75 127 L 177 127 L 177 201 L 75 201 Z M 75 127 " clip-rule="nonzero"/></clipPath><clipPath id="df2cb7f70d"><path d="M 88.675781 127.34375 L 176.777344 178.386719 L 163.980469 200.476562 L 75.878906 149.433594 Z M 88.675781 127.34375 " clip-rule="nonzero"/></clipPath><clipPath id="247bff8660"><path d="M 0.679688 0.238281 L 101.960938 0.238281 L 101.960938 73.679688 L 0.679688 73.679688 Z M 0.679688 0.238281 " clip-rule="nonzero"/></clipPath><clipPath id="e55cee65a6"><path d="M 13.675781 0.34375 L 101.777344 51.386719 L 88.980469 73.476562 L 0.878906 22.433594 Z M 13.675781 0.34375 " clip-rule="nonzero"/></clipPath><clipPath id="09b94b1228"><rect x="0" width="102" y="0" height="74"/></clipPath><clipPath id="d5bccba1c6"><path d="M 287 76 L 310 76 L 310 100 L 287 100 Z M 287 76 " clip-rule="nonzero"/></clipPath><clipPath id="70a4adad10"><path d="M 287.605469 91.960938 L 296.699219 76.074219 L 309.535156 83.421875 L 300.4375 99.308594 Z M 287.605469 91.960938 " clip-rule="nonzero"/></clipPath><clipPath id="50b3a2c286"><path d="M 0.601562 0 L 22.679688 0 L 22.679688 23.398438 L 0.601562 23.398438 Z M 0.601562 0 " clip-rule="nonzero"/></clipPath><clipPath id="1364fa1374"><path d="M 0.605469 15.960938 L 9.699219 0.0742188 L 22.535156 7.421875 L 13.4375 23.308594 Z M 0.605469 15.960938 " clip-rule="nonzero"/></clipPath><clipPath id="93820ffb9e"><rect x="0" width="23" y="0" height="24"/></clipPath><clipPath id="43e5844701"><path d="M 143 69 L 315 69 L 315 199 L 143 199 Z M 143 69 " clip-rule="nonzero"/></clipPath><clipPath id="607d1b188b"><path d="M 143.414062 160.113281 L 290.863281 69.050781 L 314.574219 107.441406 L 167.121094 198.5 Z M 143.414062 160.113281 " clip-rule="nonzero"/></clipPath><clipPath id="517983fd2c"><path d="M 0.359375 0 L 171.71875 0 L 171.71875 129.519531 L 0.359375 129.519531 Z M 0.359375 0 " clip-rule="nonzero"/></clipPath><clipPath id="dadb2d8739"><path d="M 0.414062 91.113281 L 147.863281 0.0507812 L 171.574219 38.441406 L 24.121094 129.5 Z M 0.414062 91.113281 " clip-rule="nonzero"/></clipPath><clipPath id="deccad4dd1"><rect x="0" width="172" y="0" height="130"/></clipPath><clipPath id="9af9f93947"><path d="M 308 90 L 328 90 L 328 108 L 308 108 Z M 308 90 " clip-rule="nonzero"/></clipPath><clipPath id="e98bc3b5c2"><path d="M 308.449219 98.957031 L 322.085938 90.769531 L 327.078125 99.089844 L 313.441406 107.273438 Z M 308.449219 98.957031 " clip-rule="nonzero"/></clipPath><clipPath id="7382ca708c"><path d="M 0.238281 0.761719 L 19.199219 0.761719 L 19.199219 17.320312 L 0.238281 17.320312 Z M 0.238281 0.761719 " clip-rule="nonzero"/></clipPath><clipPath id="96c4cee0b5"><path d="M 0.449219 8.957031 L 14.085938 0.769531 L 19.078125 9.089844 L 5.441406 17.273438 Z M 0.449219 8.957031 " clip-rule="nonzero"/></clipPath><clipPath id="fe3d71c054"><rect x="0" width="20" y="0" height="18"/></clipPath><clipPath id="e06e0e0e8a"><path d="M 314 86 L 332 86 L 332 101 L 314 101 Z M 314 86 " clip-rule="nonzero"/></clipPath><clipPath id="6f4120cb55"><path d="M 314.574219 92.03125 L 318.105469 86.511719 L 331.542969 95.117188 L 328.007812 100.636719 Z M 314.574219 92.03125 " clip-rule="nonzero"/></clipPath><clipPath id="8a8ec226e1"><path d="M 0.480469 0.441406 L 17.761719 0.441406 L 17.761719 14.839844 L 0.480469 14.839844 Z M 0.480469 0.441406 " clip-rule="nonzero"/></clipPath><clipPath id="6413061de9"><path d="M 0.574219 6.03125 L 4.105469 0.511719 L 17.542969 9.117188 L 14.007812 14.636719 Z M 0.574219 6.03125 " clip-rule="nonzero"/></clipPath><clipPath id="0accbc84a5"><rect x="0" width="18" y="0" height="15"/></clipPath><clipPath id="effdf01824"><path d="M 299 80 L 323 80 L 323 103 L 299 103 Z M 299 80 " clip-rule="nonzero"/></clipPath><clipPath id="3380110a8e"><path d="M 299.558594 93.140625 L 307.539062 80.679688 L 322.558594 90.300781 L 314.578125 102.761719 Z M 299.558594 93.140625 " clip-rule="nonzero"/></clipPath><clipPath id="374140adb8"><path d="M 0.359375 0.679688 L 23.640625 0.679688 L 23.640625 23 L 0.359375 23 Z M 0.359375 0.679688 " clip-rule="nonzero"/></clipPath><clipPath id="dc4f45bd82"><path d="M 0.558594 13.140625 L 8.539062 0.679688 L 23.558594 10.300781 L 15.578125 22.761719 Z M 0.558594 13.140625 " clip-rule="nonzero"/></clipPath><clipPath id="fe6406d555"><rect x="0" width="24" y="0" height="23"/></clipPath><clipPath id="4dd4a6b02e"><path d="M 3 102 L 21 102 L 21 117 L 3 117 Z M 3 102 " clip-rule="nonzero"/></clipPath><clipPath id="ff6b3840a7"><path d="M 3.824219 108.554688 L 7.296875 102.761719 L 20.632812 110.75 L 17.164062 116.542969 Z M 3.824219 108.554688 " clip-rule="nonzero"/></clipPath><clipPath id="0fceaf541e"><path d="M 0.679688 0.761719 L 17.71875 0.761719 L 17.71875 14.679688 L 0.679688 14.679688 Z M 0.679688 0.761719 " clip-rule="nonzero"/></clipPath><clipPath id="4995397e2c"><path d="M 0.824219 6.554688 L 4.296875 0.761719 L 17.632812 8.75 L 14.164062 14.542969 Z M 0.824219 6.554688 " clip-rule="nonzero"/></clipPath><clipPath id="1147bce5be"><rect x="0" width="18" y="0" height="15"/></clipPath><clipPath id="85d649f572"><path d="M 10 99 L 28 99 L 28 114 L 10 114 Z M 10 99 " clip-rule="nonzero"/></clipPath><clipPath id="c6f7fe46c2"><path d="M 10.554688 105.105469 L 14.023438 99.3125 L 27.363281 107.300781 L 23.890625 113.097656 Z M 10.554688 105.105469 " clip-rule="nonzero"/></clipPath><clipPath id="7b375a1395"><path d="M 0.398438 0.160156 L 17.441406 0.160156 L 17.441406 14.320312 L 0.398438 14.320312 Z M 0.398438 0.160156 " clip-rule="nonzero"/></clipPath><clipPath id="1de04a295d"><path d="M 0.554688 6.105469 L 4.023438 0.3125 L 17.363281 8.300781 L 13.890625 14.097656 Z M 0.554688 6.105469 " clip-rule="nonzero"/></clipPath><clipPath id="e68ac92013"><rect x="0" width="18" y="0" height="15"/></clipPath><clipPath id="0597193d08"><path d="M 0.078125 90 L 184 90 L 184 203.800781 L 0.078125 203.800781 Z M 0.078125 90 " clip-rule="nonzero"/></clipPath><clipPath id="3c51351849"><path d="M 144 77 L 336.320312 77 L 336.320312 203.800781 L 144 203.800781 Z M 144 77 " clip-rule="nonzero"/></clipPath><clipPath id="dd087dfa31"><path d="M 0.078125 0.28125 L 192 0.28125 L 192 127 L 0.078125 127 Z M 0.078125 0.28125 " clip-rule="nonzero"/></clipPath><clipPath id="efdefa7201"><path d="M 152 0.28125 L 336.320312 0.28125 L 336.320312 115 L 152 115 Z M 152 0.28125 " clip-rule="nonzero"/></clipPath><clipPath id="ade8e6960a"><rect x="0" width="337" y="0" height="204"/></clipPath><clipPath id="5a69f29b15"><rect x="0" width="337" y="0" height="204"/></clipPath><clipPath id="10eaa87a25"><path d="M 308 94 L 336 94 L 336 126 L 308 126 Z M 308 94 " clip-rule="nonzero"/></clipPath><clipPath id="4860db44c5"><path d="M 308.554688 103.527344 L 322.878906 94.882812 L 335.851562 116.378906 L 321.527344 125.023438 Z M 308.554688 103.527344 " clip-rule="nonzero"/></clipPath><clipPath id="0ebdc0cd7d"><path d="M 0.359375 0.800781 L 27.960938 0.800781 L 27.960938 31.039062 L 0.359375 31.039062 Z M 0.359375 0.800781 " clip-rule="nonzero"/></clipPath><clipPath id="0370bfd5eb"><path d="M 0.554688 9.527344 L 14.878906 0.882812 L 27.851562 22.378906 L 13.527344 31.023438 Z M 0.554688 9.527344 " clip-rule="nonzero"/></clipPath><clipPath id="9c93c8723c"><rect x="0" width="28" y="0" height="32"/></clipPath><clipPath id="7c0c92edf0"><path d="M 146 104 L 325 104 L 325 225 L 146 225 Z M 146 104 " clip-rule="nonzero"/></clipPath><clipPath id="c0b7985788"><path d="M 146.832031 205.234375 L 313.492188 104.765625 L 324.972656 123.8125 L 158.316406 224.28125 Z M 146.832031 205.234375 " clip-rule="nonzero"/></clipPath><clipPath id="8e3029e6e2"><path d="M 0.601562 0.640625 L 179 0.640625 L 179 120.398438 L 0.601562 120.398438 Z M 0.601562 0.640625 " clip-rule="nonzero"/></clipPath><clipPath id="40431700f2"><path d="M 0.832031 101.234375 L 167.492188 0.765625 L 178.972656 19.8125 L 12.316406 120.28125 Z M 0.832031 101.234375 " clip-rule="nonzero"/></clipPath><clipPath id="88e5ce8227"><rect x="0" width="179" y="0" height="121"/></clipPath><clipPath id="0b44ee4b0c"><path d="M 1 123 L 166 123 L 166 228 L 1 228 Z M 1 123 " clip-rule="nonzero"/></clipPath><clipPath id="5ce404a22d"><path d="M 11.015625 123.667969 L 165.816406 211.71875 L 156.742188 227.671875 L 1.941406 139.625 Z M 11.015625 123.667969 " clip-rule="nonzero"/></clipPath><clipPath id="107d8ad9e8"><path d="M 0.878906 0.601562 L 165 0.601562 L 165 104.761719 L 0.878906 104.761719 Z M 0.878906 0.601562 " clip-rule="nonzero"/></clipPath><clipPath id="c26694f29d"><path d="M 10.015625 0.667969 L 164.816406 88.71875 L 155.742188 104.671875 L 0.941406 16.625 Z M 10.015625 0.667969 " clip-rule="nonzero"/></clipPath><clipPath id="6dfe9900fa"><rect x="0" width="165" y="0" height="105"/></clipPath><clipPath id="a3fa07b4f5"><path d="M 0.199219 10 L 202 10 L 202 155 L 0.199219 155 Z M 0.199219 10 " clip-rule="nonzero"/></clipPath><clipPath id="247d865067"><path d="M 0.199219 123 L 173 123 L 173 230.398438 L 0.199219 230.398438 Z M 0.199219 123 " clip-rule="nonzero"/></clipPath><clipPath id="860f90317e"><path d="M 139 97 L 341.480469 97 L 341.480469 230.398438 L 139 230.398438 Z M 139 97 " clip-rule="nonzero"/></clipPath><clipPath id="a37f50278e"><path d="M 169 10 L 341.480469 10 L 341.480469 131 L 169 131 Z M 169 10 " clip-rule="nonzero"/></clipPath><clipPath id="6e7af0dde1"><path d="M 202 47 L 298 47 L 298 148 L 202 148 Z M 202 47 " clip-rule="nonzero"/></clipPath><clipPath id="ee438de2eb"><path d="M 240.382812 47 L 297.710938 79.011719 L 259.488281 147.457031 L 202.164062 115.445312 Z M 240.382812 47 " clip-rule="nonzero"/></clipPath><clipPath id="1b17c4b592"><path d="M 0.0390625 0 L 95.800781 0 L 95.800781 100.601562 L 0.0390625 100.601562 Z M 0.0390625 0 " clip-rule="nonzero"/></clipPath><clipPath id="b6fae57d84"><path d="M 38.382812 0 L 95.710938 32.011719 L 57.488281 100.457031 L 0.164062 68.445312 Z M 38.382812 0 " clip-rule="nonzero"/></clipPath><clipPath id="a037f23fb9"><rect x="0" width="96" y="0" height="101"/></clipPath><clipPath id="eec94b2cd7"><path d="M 120 65 L 305 65 L 305 214 L 120 214 Z M 120 65 " clip-rule="nonzero"/></clipPath><clipPath id="42e2e877f0"><path d="M 270.628906 65.835938 L 304.789062 121.910156 L 154.953125 213.199219 L 120.792969 157.125 Z M 270.628906 65.835938 " clip-rule="nonzero"/></clipPath><clipPath id="6f0852c3c7"><path d="M 0.679688 0.761719 L 185 0.761719 L 185 148.359375 L 0.679688 148.359375 Z M 0.679688 0.761719 " clip-rule="nonzero"/></clipPath><clipPath id="825ea62f76"><path d="M 150.628906 0.835938 L 184.789062 56.910156 L 34.953125 148.199219 L 0.792969 92.125 Z M 150.628906 0.835938 " clip-rule="nonzero"/></clipPath><clipPath id="58294969d5"><rect x="0" width="185" y="0" height="149"/></clipPath><clipPath id="10cdeb4e6e"><path d="M 103 15 L 243 15 L 243 193 L 103 193 Z M 103 15 " clip-rule="nonzero"/></clipPath><clipPath id="9aa8ac951c"><path d="M 185.238281 15.097656 L 242.398438 47.402344 L 160.3125 192.652344 L 103.148438 160.347656 Z M 185.238281 15.097656 " clip-rule="nonzero"/></clipPath><clipPath id="c1c4f3781d"><path d="M 0 0 L 139.601562 0 L 139.601562 177.71875 L 0 177.71875 Z M 0 0 " clip-rule="nonzero"/></clipPath><clipPath id="03c1744f9f"><path d="M 82.238281 0.0976562 L 139.398438 32.402344 L 57.3125 177.652344 L 0.148438 145.347656 Z M 82.238281 0.0976562 " clip-rule="nonzero"/></clipPath><clipPath id="edf01ce399"><rect x="0" width="140" y="0" height="178"/></clipPath><clipPath id="d1dbb519cc"><path d="M 44 13 L 221 13 L 221 158 L 44 158 Z M 44 13 " clip-rule="nonzero"/></clipPath><clipPath id="e341e566bb"><path d="M 185.972656 13.324219 L 220.707031 69.042969 L 79.121094 157.304688 L 44.386719 101.585938 Z M 185.972656 13.324219 " clip-rule="nonzero"/></clipPath><clipPath id="2fd8c35176"><path d="M 0.359375 0.199219 L 176.761719 0.199219 L 176.761719 144.441406 L 0.359375 144.441406 Z M 0.359375 0.199219 " clip-rule="nonzero"/></clipPath><clipPath id="27ec5083ce"><path d="M 141.972656 0.324219 L 176.707031 56.042969 L 35.121094 144.304688 L 0.386719 88.585938 Z M 141.972656 0.324219 " clip-rule="nonzero"/></clipPath><clipPath id="45f268ca26"><rect x="0" width="177" y="0" height="145"/></clipPath><clipPath id="62d75db7d2"><path d="M 51 96 L 189 96 L 189 214 L 51 214 Z M 51 96 " clip-rule="nonzero"/></clipPath><clipPath id="391d583de4"><path d="M 188.605469 157.304688 L 155.296875 213.886719 L 51.578125 152.828125 L 84.890625 96.246094 Z M 188.605469 157.304688 " clip-rule="nonzero"/></clipPath><clipPath id="1a5dcd03d0"><path d="M 0.558594 0.238281 L 137.839844 0.238281 L 137.839844 118 L 0.558594 118 Z M 0.558594 0.238281 " clip-rule="nonzero"/></clipPath><clipPath id="a49e34ce64"><path d="M 137.605469 61.304688 L 104.296875 117.886719 L 0.578125 56.828125 L 33.890625 0.246094 Z M 137.605469 61.304688 " clip-rule="nonzero"/></clipPath><clipPath id="3698ce4143"><rect x="0" width="138" y="0" height="118"/></clipPath><clipPath id="97a1c15c34"><path d="M 10 113 L 83 113 L 83 165 L 10 165 Z M 10 113 " clip-rule="nonzero"/></clipPath><clipPath id="f019020c30"><path d="M 82.230469 147.828125 L 73.179688 164.578125 L 10.519531 130.703125 L 19.570312 113.953125 Z M 82.230469 147.828125 " clip-rule="nonzero"/></clipPath><clipPath id="1c96a560d2"><path d="M 0.28125 0.761719 L 72.28125 0.761719 L 72.28125 51.640625 L 0.28125 51.640625 Z M 0.28125 0.761719 " clip-rule="nonzero"/></clipPath><clipPath id="2633c28698"><path d="M 72.230469 34.828125 L 63.179688 51.578125 L 0.519531 17.703125 L 9.570312 0.953125 Z M 72.230469 34.828125 " clip-rule="nonzero"/></clipPath><clipPath id="98571f177d"><rect x="0" width="73" y="0" height="52"/></clipPath><clipPath id="3dfd9a1e57"><path d="M 19 80 L 95 80 L 95 140 L 19 140 Z M 19 80 " clip-rule="nonzero"/></clipPath><clipPath id="0151d3ba84"><path d="M 80.609375 80.238281 L 94.03125 102.578125 L 32.976562 139.265625 L 19.550781 116.925781 Z M 80.609375 80.238281 " clip-rule="nonzero"/></clipPath><clipPath id="e719cb0b6c"><path d="M 0.398438 0.160156 L 75.039062 0.160156 L 75.039062 59.441406 L 0.398438 59.441406 Z M 0.398438 0.160156 " clip-rule="nonzero"/></clipPath><clipPath id="e88d0db6f4"><path d="M 61.609375 0.238281 L 75.03125 22.578125 L 13.976562 59.265625 L 0.550781 36.925781 Z M 61.609375 0.238281 " clip-rule="nonzero"/></clipPath><clipPath id="831003b904"><rect x="0" width="76" y="0" height="60"/></clipPath><clipPath id="91301aba49"><path d="M 5 120 L 25 120 L 25 135 L 5 135 Z M 5 120 " clip-rule="nonzero"/></clipPath><clipPath id="215a126642"><path d="M 8.851562 120.265625 L 24.820312 127.570312 L 21.683594 134.433594 L 5.710938 127.125 Z M 8.851562 120.265625 " clip-rule="nonzero"/></clipPath><clipPath id="ce3981d3e0"><path d="M 0.480469 0.238281 L 19.921875 0.238281 L 19.921875 14.640625 L 0.480469 14.640625 Z M 0.480469 0.238281 " clip-rule="nonzero"/></clipPath><clipPath id="0b38d191e5"><path d="M 3.851562 0.265625 L 19.820312 7.570312 L 16.683594 14.433594 L 0.710938 7.125 Z M 3.851562 0.265625 " clip-rule="nonzero"/></clipPath><clipPath id="467a3b7d24"><rect x="0" width="20" y="0" height="15"/></clipPath><clipPath id="1fa1e9c3c2"><path d="M 10 117 L 30 117 L 30 133 L 10 133 Z M 10 117 " clip-rule="nonzero"/></clipPath><clipPath id="1965bfe5dd"><path d="M 13.664062 117.941406 L 29.632812 125.25 L 26.492188 132.109375 L 10.523438 124.804688 Z M 13.664062 117.941406 " clip-rule="nonzero"/></clipPath><clipPath id="57573f6b98"><path d="M 0.519531 0.839844 L 19.71875 0.839844 L 19.71875 15.238281 L 0.519531 15.238281 Z M 0.519531 0.839844 " clip-rule="nonzero"/></clipPath><clipPath id="fb95a78428"><path d="M 3.664062 0.941406 L 19.632812 8.25 L 16.492188 15.109375 L 0.523438 7.804688 Z M 3.664062 0.941406 " clip-rule="nonzero"/></clipPath><clipPath id="52a11ec58e"><rect x="0" width="20" y="0" height="16"/></clipPath><clipPath id="4c5cab87b2"><path d="M 290 92 L 332 92 L 332 125 L 290 125 Z M 290 92 " clip-rule="nonzero"/></clipPath><clipPath id="701b96364a"><path d="M 290.632812 112.78125 L 323.675781 92.699219 L 331.089844 104.902344 L 298.046875 124.980469 Z M 290.632812 112.78125 " clip-rule="nonzero"/></clipPath><clipPath id="8082e84179"><path d="M 0.601562 0.640625 L 41.160156 0.640625 L 41.160156 33 L 0.601562 33 Z M 0.601562 0.640625 " clip-rule="nonzero"/></clipPath><clipPath id="d5fb91f988"><path d="M 0.632812 20.78125 L 33.675781 0.699219 L 41.089844 12.902344 L 8.046875 32.980469 Z M 0.632812 20.78125 " clip-rule="nonzero"/></clipPath><clipPath id="fcc3d69b6a"><rect x="0" width="42" y="0" height="33"/></clipPath><clipPath id="b2595d700a"><path d="M 287 77 L 328 77 L 328 111 L 287 111 Z M 287 77 " clip-rule="nonzero"/></clipPath><clipPath id="ea7d9e68ca"><path d="M 294.792969 77.992188 L 327.921875 97.933594 L 320.558594 110.164062 L 287.433594 90.226562 Z M 294.792969 77.992188 " clip-rule="nonzero"/></clipPath><clipPath id="82704efe77"><path d="M 0.238281 0.761719 L 41 0.761719 L 41 33.398438 L 0.238281 33.398438 Z M 0.238281 0.761719 " clip-rule="nonzero"/></clipPath><clipPath id="47075f04c0"><path d="M 7.792969 0.992188 L 40.921875 20.933594 L 33.558594 33.164062 L 0.433594 13.226562 Z M 7.792969 0.992188 " clip-rule="nonzero"/></clipPath><clipPath id="083c4c7fa1"><rect x="0" width="41" y="0" height="34"/></clipPath><clipPath id="ffb86991ba"><path d="M 324 95 L 338 95 L 338 109 L 324 109 Z M 324 95 " clip-rule="nonzero"/></clipPath><clipPath id="01d12cbfe6"><path d="M 329.773438 95.683594 L 337.492188 101.539062 L 332.445312 108.195312 L 324.722656 102.339844 Z M 329.773438 95.683594 " clip-rule="nonzero"/></clipPath><clipPath id="964585a190"><path d="M 0.679688 0.519531 L 13.640625 0.519531 L 13.640625 13.238281 L 0.679688 13.238281 Z M 0.679688 0.519531 " clip-rule="nonzero"/></clipPath><clipPath id="6a1c38826f"><path d="M 5.773438 0.683594 L 13.492188 6.539062 L 8.445312 13.195312 L 0.722656 7.339844 Z M 5.773438 0.683594 " clip-rule="nonzero"/></clipPath><clipPath id="9e42dbf91d"><rect x="0" width="14" y="0" height="14"/></clipPath><clipPath id="70cdb05cb4"><path d="M 0.199219 0.960938 L 202 0.960938 L 202 143 L 0.199219 143 Z M 0.199219 0.960938 " clip-rule="nonzero"/></clipPath><clipPath id="925b47554b"><path d="M 0.199219 110 L 175 110 L 175 230.398438 L 0.199219 230.398438 Z M 0.199219 110 " clip-rule="nonzero"/></clipPath><clipPath id="f3d515cf31"><path d="M 141 85 L 341.480469 85 L 341.480469 230.398438 L 141 230.398438 Z M 141 85 " clip-rule="nonzero"/></clipPath><clipPath id="3abe66eba1"><path d="M 169 0.960938 L 341.480469 0.960938 L 341.480469 119 L 169 119 Z M 169 0.960938 " clip-rule="nonzero"/></clipPath><clipPath id="d43b00c5d0"><path d="M 40 88 L 116 88 L 116 148 L 40 148 Z M 40 88 " clip-rule="nonzero"/></clipPath><clipPath id="bedca237cb"><path d="M 101.726562 88.425781 L 115.148438 110.769531 L 54.09375 147.453125 L 40.667969 125.113281 Z M 101.726562 88.425781 " clip-rule="nonzero"/></clipPath><clipPath id="ba70a9ec61"><path d="M 0.519531 0.320312 L 75.160156 0.320312 L 75.160156 59.601562 L 0.519531 59.601562 Z M 0.519531 0.320312 " clip-rule="nonzero"/></clipPath><clipPath id="8ab33ff6a8"><path d="M 61.726562 0.425781 L 75.148438 22.769531 L 14.09375 59.453125 L 0.667969 37.113281 Z M 61.726562 0.425781 " clip-rule="nonzero"/></clipPath><clipPath id="0fbe09245c"><rect x="0" width="76" y="0" height="60"/></clipPath><clipPath id="303dd29796"><path d="M 272 82 L 313 82 L 313 114 L 272 114 Z M 272 82 " clip-rule="nonzero"/></clipPath><clipPath id="5388fd366f"><path d="M 279.167969 82.214844 L 312.621094 101.605469 L 305.460938 113.957031 L 272.011719 94.566406 Z M 279.167969 82.214844 " clip-rule="nonzero"/></clipPath><clipPath id="e9becd8fc0"><path d="M 0 0.078125 L 40.679688 0.078125 L 40.679688 32 L 0 32 Z M 0 0.078125 " clip-rule="nonzero"/></clipPath><clipPath id="e91cc1d100"><path d="M 7.167969 0.214844 L 40.621094 19.605469 L 33.460938 31.957031 L 0.0117188 12.566406 Z M 7.167969 0.214844 " clip-rule="nonzero"/></clipPath><clipPath id="c2b39e6c37"><rect x="0" width="41" y="0" height="32"/></clipPath><clipPath id="4a0a323608"><path d="M 0.199219 109 L 19 109 L 19 156 L 0.199219 156 Z M 0.199219 109 " clip-rule="nonzero"/></clipPath><clipPath id="f8b10276d6"><path d="M 84.183594 157.308594 L 94.035156 157.308594 L 94.035156 167.15625 L 84.183594 167.15625 Z M 84.183594 157.308594 " clip-rule="nonzero"/></clipPath><clipPath id="412f6898cd"><path d="M 89.109375 157.308594 C 86.390625 157.308594 84.183594 159.511719 84.183594 162.230469 C 84.183594 164.953125 86.390625 167.15625 89.109375 167.15625 C 91.832031 167.15625 94.035156 164.953125 94.035156 162.230469 C 94.035156 159.511719 91.832031 157.308594 89.109375 157.308594 Z M 89.109375 157.308594 " clip-rule="nonzero"/></clipPath><clipPath id="9b9f31736c"><path d="M 0.183594 0.308594 L 10.035156 0.308594 L 10.035156 10.15625 L 0.183594 10.15625 Z M 0.183594 0.308594 " clip-rule="nonzero"/></clipPath><clipPath id="b220b7ae9e"><path d="M 5.109375 0.308594 C 2.390625 0.308594 0.183594 2.511719 0.183594 5.230469 C 0.183594 7.953125 2.390625 10.15625 5.109375 10.15625 C 7.832031 10.15625 10.035156 7.953125 10.035156 5.230469 C 10.035156 2.511719 7.832031 0.308594 5.109375 0.308594 Z M 5.109375 0.308594 " clip-rule="nonzero"/></clipPath><clipPath id="a2ec4a9944"><rect x="0" width="11" y="0" height="11"/></clipPath><clipPath id="4855014e0e"><path d="M 84.183594 157.308594 L 93.90625 157.308594 L 93.90625 167.027344 L 84.183594 167.027344 Z M 84.183594 157.308594 " clip-rule="nonzero"/></clipPath><clipPath id="acbdec3030"><path d="M 89.105469 157.304688 C 86.386719 157.304688 84.183594 159.507812 84.183594 162.226562 C 84.183594 164.945312 86.386719 167.148438 89.105469 167.148438 C 91.824219 167.148438 94.027344 164.945312 94.027344 162.226562 C 94.027344 159.507812 91.824219 157.304688 89.105469 157.304688 Z M 89.105469 157.304688 " clip-rule="nonzero"/></clipPath><mask id="5e498bfcfd"><g filter="url(#f4719e2c5e)"><rect x="-370" width="1080" fill="#000000" y="-416.999999" height="1079.999992" fill-opacity="0.13"/></g></mask><clipPath id="1b1670b244"><path d="M 2 3 L 60 3 L 60 44 L 2 44 Z M 2 3 " clip-rule="nonzero"/></clipPath><clipPath id="51227f686c"><path d="M 4.457031 0.894531 L 61.199219 5.828125 L 57.722656 45.847656 L 0.976562 40.914062 Z M 4.457031 0.894531 " clip-rule="nonzero"/></clipPath><clipPath id="7a6357ae2e"><path d="M 32.769531 3.355469 C 17.132812 1.996094 3.675781 9.855469 2.714844 20.90625 C 1.753906 31.957031 13.652344 42.015625 29.289062 43.375 C 44.929688 44.734375 58.382812 36.878906 59.34375 25.828125 C 60.304688 14.777344 48.40625 4.714844 32.769531 3.355469 Z M 32.769531 3.355469 " clip-rule="nonzero"/></clipPath><clipPath id="1692e5fe37"><path d="M 0 0 L 58 0 L 58 41 L 0 41 Z M 0 0 " clip-rule="nonzero"/></clipPath><clipPath id="8fecaae39d"><path d="M 2.457031 -2.105469 L 59.199219 2.828125 L 55.722656 42.847656 L -1.023438 37.914062 Z M 2.457031 -2.105469 " clip-rule="nonzero"/></clipPath><clipPath id="6d6f01c16f"><path d="M 30.769531 0.355469 C 15.132812 -1.003906 1.675781 6.855469 0.714844 17.90625 C -0.246094 28.957031 11.652344 39.015625 27.289062 40.375 C 42.929688 41.734375 56.382812 33.878906 57.34375 22.828125 C 58.304688 11.777344 46.40625 1.714844 30.769531 0.355469 Z M 30.769531 0.355469 " clip-rule="nonzero"/></clipPath><clipPath id="67e2cddfd8"><rect x="0" width="58" y="0" height="41"/></clipPath><clipPath id="27a8ce69ea"><rect x="0" width="62" y="0" height="46"/></clipPath><clipPath id="f1c245512b"><path d="M 111 20 L 168 20 L 168 61 L 111 61 Z M 111 20 " clip-rule="nonzero"/></clipPath><clipPath id="068e78d32d"><path d="M 108.960938 56.9375 L 113.996094 17.175781 L 170.53125 24.335938 L 165.496094 64.097656 Z M 108.960938 56.9375 " clip-rule="nonzero"/></clipPath><clipPath id="cbb0f143ce"><path d="M 111.476562 37.058594 C 110.085938 48.039062 121.582031 58.535156 137.152344 60.507812 C 152.722656 62.480469 166.472656 55.179688 167.863281 44.199219 C 169.253906 33.21875 157.757812 22.71875 142.1875 20.746094 C 126.617188 18.773438 112.867188 26.078125 111.476562 37.058594 Z M 111.476562 37.058594 " clip-rule="nonzero"/></clipPath><clipPath id="9eaed093ab"><path d="M 0 0 L 57 0 L 57 41 L 0 41 Z M 0 0 " clip-rule="nonzero"/></clipPath><clipPath id="5c7497b6d8"><path d="M -2.039062 36.9375 L 2.996094 -2.824219 L 59.53125 4.335938 L 54.496094 44.097656 Z M -2.039062 36.9375 " clip-rule="nonzero"/></clipPath><clipPath id="a15f60ddbf"><path d="M 0.476562 17.058594 C -0.914062 28.039062 10.582031 38.535156 26.152344 40.507812 C 41.722656 42.480469 55.472656 35.179688 56.863281 24.199219 C 58.253906 13.21875 46.757812 2.71875 31.1875 0.746094 C 15.617188 -1.226562 1.867188 6.078125 0.476562 17.058594 Z M 0.476562 17.058594 " clip-rule="nonzero"/></clipPath><clipPath id="2f4cb78957"><rect x="0" width="57" y="0" height="41"/></clipPath><clipPath id="5026bd83ef"><path d="M 111 20 L 168 20 L 168 61 L 111 61 Z M 111 20 " clip-rule="nonzero"/></clipPath><clipPath id="5833ba87d3"><path d="M 108.960938 56.9375 L 114.019531 16.980469 L 170.515625 24.136719 L 165.453125 64.09375 Z M 108.960938 56.9375 " clip-rule="nonzero"/></clipPath><clipPath id="c878941c81"><path d="M 108.960938 56.9375 L 114 17.144531 L 170.773438 24.335938 L 165.734375 64.128906 Z M 108.960938 56.9375 " clip-rule="nonzero"/></clipPath><clipPath id="f4f3fe15de"><path d="M 111.476562 37.0625 C 110.089844 48.039062 121.582031 58.535156 137.148438 60.507812 C 152.714844 62.480469 166.460938 55.179688 167.851562 44.203125 C 169.242188 33.222656 157.75 22.726562 142.183594 20.753906 C 126.617188 18.78125 112.867188 26.082031 111.476562 37.0625 Z M 111.476562 37.0625 " clip-rule="nonzero"/></clipPath><clipPath id="be19a8cbe1"><path d="M 112 14 L 169 14 L 169 55 L 112 55 Z M 112 14 " clip-rule="nonzero"/></clipPath><clipPath id="26d4eeca0d"><path d="M 109.828125 50.921875 L 114.863281 11.160156 L 171.398438 18.320312 L 166.363281 58.082031 Z M 109.828125 50.921875 " clip-rule="nonzero"/></clipPath><clipPath id="062008a84d"><path d="M 112.34375 31.042969 C 110.953125 42.019531 122.449219 52.519531 138.019531 54.492188 C 153.589844 56.464844 167.339844 49.164062 168.730469 38.183594 C 170.121094 27.203125 158.625 16.703125 143.054688 14.730469 C 127.484375 12.757812 113.734375 20.0625 112.34375 31.042969 Z M 112.34375 31.042969 " clip-rule="nonzero"/></clipPath><clipPath id="5984c98911"><path d="M 0 0 L 57 0 L 57 41 L 0 41 Z M 0 0 " clip-rule="nonzero"/></clipPath><clipPath id="1abf7e5dcd"><path d="M -2.171875 36.921875 L 2.863281 -2.839844 L 59.398438 4.320312 L 54.363281 44.082031 Z M -2.171875 36.921875 " clip-rule="nonzero"/></clipPath><clipPath id="29153817a8"><path d="M 0.34375 17.042969 C -1.046875 28.019531 10.449219 38.519531 26.019531 40.492188 C 41.589844 42.464844 55.339844 35.164062 56.730469 24.183594 C 58.121094 13.203125 46.625 2.703125 31.054688 0.730469 C 15.484375 -1.242188 1.734375 6.0625 0.34375 17.042969 Z M 0.34375 17.042969 " clip-rule="nonzero"/></clipPath><clipPath id="7fcaab28f4"><rect x="0" width="57" y="0" height="41"/></clipPath><clipPath id="fb9edde35b"><path d="M 112 14 L 169 14 L 169 55 L 112 55 Z M 112 14 " clip-rule="nonzero"/></clipPath><clipPath id="fe4566f07c"><path d="M 109.828125 50.921875 L 114.886719 10.964844 L 171.378906 18.117188 L 166.320312 58.078125 Z M 109.828125 50.921875 " clip-rule="nonzero"/></clipPath><clipPath id="811105786f"><path d="M 109.828125 50.921875 L 114.867188 11.128906 L 171.640625 18.320312 L 166.601562 58.113281 Z M 109.828125 50.921875 " clip-rule="nonzero"/></clipPath><clipPath id="323df4b37c"><path d="M 112.34375 31.046875 C 110.953125 42.023438 122.445312 52.519531 138.015625 54.492188 C 153.582031 56.464844 167.328125 49.164062 168.71875 38.183594 C 170.109375 27.207031 158.617188 16.710938 143.050781 14.738281 C 127.480469 12.765625 113.734375 20.066406 112.34375 31.046875 Z M 112.34375 31.046875 " clip-rule="nonzero"/></clipPath><clipPath id="21e981579c"><path d="M 119 20 L 161 20 L 161 51 L 119 51 Z M 119 20 " clip-rule="nonzero"/></clipPath><clipPath id="c97cc63073"><path d="M 117.5625 47.28125 L 121.257812 18.09375 L 162.761719 23.347656 L 159.0625 52.535156 Z M 117.5625 47.28125 " clip-rule="nonzero"/></clipPath><clipPath id="73730c9762"><path d="M 119.410156 32.6875 C 118.390625 40.746094 126.828125 48.453125 138.257812 49.902344 C 149.6875 51.347656 159.78125 45.988281 160.800781 37.929688 C 161.820312 29.867188 153.382812 22.160156 141.953125 20.714844 C 130.523438 19.265625 120.429688 24.625 119.410156 32.6875 Z M 119.410156 32.6875 " clip-rule="nonzero"/></clipPath><clipPath id="b1d4ee4d2c"><path d="M 0 0 L 42 0 L 42 31 L 0 31 Z M 0 0 " clip-rule="nonzero"/></clipPath><clipPath id="6cf1dd1b00"><path d="M -1.4375 27.28125 L 2.257812 -1.90625 L 43.761719 3.347656 L 40.0625 32.535156 Z M -1.4375 27.28125 " clip-rule="nonzero"/></clipPath><clipPath id="b44093dae6"><path d="M 0.410156 12.6875 C -0.609375 20.746094 7.828125 28.453125 19.257812 29.902344 C 30.6875 31.347656 40.78125 25.988281 41.800781 17.929688 C 42.820312 9.867188 34.382812 2.160156 22.953125 0.714844 C 11.523438 -0.734375 1.429688 4.625 0.410156 12.6875 Z M 0.410156 12.6875 " clip-rule="nonzero"/></clipPath><clipPath id="4d60a3c594"><rect x="0" width="42" y="0" height="31"/></clipPath><clipPath id="f9bcca840c"><path d="M 119 20 L 161 20 L 161 51 L 119 51 Z M 119 20 " clip-rule="nonzero"/></clipPath><clipPath id="4cd621e50f"><path d="M 117.5625 47.28125 L 121.226562 18.34375 L 162.5625 23.582031 L 158.898438 52.515625 Z M 117.5625 47.28125 " clip-rule="nonzero"/></clipPath><clipPath id="a6895680ec"><path d="M 117.5625 47.277344 L 121.261719 18.070312 L 162.933594 23.347656 L 159.234375 52.558594 Z M 117.5625 47.277344 " clip-rule="nonzero"/></clipPath><clipPath id="ac1818d298"><path d="M 119.410156 32.6875 C 118.390625 40.746094 126.824219 48.453125 138.25 49.898438 C 149.679688 51.347656 159.769531 45.988281 160.789062 37.929688 C 161.808594 29.871094 153.375 22.167969 141.949219 20.71875 C 130.519531 19.273438 120.429688 24.632812 119.410156 32.6875 Z M 119.410156 32.6875 " clip-rule="nonzero"/></clipPath><clipPath id="e6e3f8b490"><path d="M 122 22 L 161 22 L 161 50 L 122 50 Z M 122 22 " clip-rule="nonzero"/></clipPath><clipPath id="b860a4cfcf"><path d="M 121.039062 46.789062 L 124.4375 19.972656 L 161.835938 24.707031 L 158.4375 51.527344 Z M 121.039062 46.789062 " clip-rule="nonzero"/></clipPath><clipPath id="552146f6f4"><path d="M 122.738281 33.378906 C 121.800781 40.785156 129.390625 47.847656 139.6875 49.152344 C 149.988281 50.457031 159.097656 45.511719 160.035156 38.105469 C 160.972656 30.699219 153.382812 23.636719 143.085938 22.332031 C 132.785156 21.027344 123.675781 25.976562 122.738281 33.378906 Z M 122.738281 33.378906 " clip-rule="nonzero"/></clipPath><clipPath id="ef09308d38"><path d="M 0 0 L 39 0 L 39 28 L 0 28 Z M 0 0 " clip-rule="nonzero"/></clipPath><clipPath id="9b2e21b12d"><path d="M -0.960938 24.789062 L 2.4375 -2.027344 L 39.835938 2.707031 L 36.4375 29.527344 Z M -0.960938 24.789062 " clip-rule="nonzero"/></clipPath><clipPath id="73598e54da"><path d="M 0.738281 11.378906 C -0.199219 18.785156 7.390625 25.847656 17.6875 27.152344 C 27.988281 28.457031 37.097656 23.511719 38.035156 16.105469 C 38.972656 8.699219 31.382812 1.636719 21.085938 0.332031 C 10.785156 -0.972656 1.675781 3.976562 0.738281 11.378906 Z M 0.738281 11.378906 " clip-rule="nonzero"/></clipPath><clipPath id="5cb07933a3"><rect x="0" width="39" y="0" height="28"/></clipPath><clipPath id="a4785dc4db"><path d="M 133 28 L 150 28 L 150 43 L 133 43 Z M 133 28 " clip-rule="nonzero"/></clipPath><clipPath id="d6df884da4"><path d="M 131.71875 37.589844 L 136.632812 26.855469 L 151.785156 33.789062 L 146.871094 44.523438 Z M 131.71875 37.589844 " clip-rule="nonzero"/></clipPath><clipPath id="e12f10fc43"><path d="M 131.71875 37.589844 L 136.632812 26.855469 L 151.785156 33.789062 L 146.871094 44.523438 Z M 131.71875 37.589844 " clip-rule="nonzero"/></clipPath><mask id="4c2e238bc0"><g filter="url(#f4719e2c5e)"><rect x="-370" width="1080" fill="#000000" y="-416.999999" height="1079.999992" fill-opacity="0.13"/></g></mask><clipPath id="026123753d"><path d="M 1 3 L 59 3 L 59 44 L 1 44 Z M 1 3 " clip-rule="nonzero"/></clipPath><clipPath id="65863fdf5b"><path d="M 3.710938 0.882812 L 60.457031 5.816406 L 56.980469 45.835938 L 0.234375 40.902344 Z M 3.710938 0.882812 " clip-rule="nonzero"/></clipPath><clipPath id="ffa46bc8e2"><path d="M 32.027344 3.347656 C 16.390625 1.988281 2.933594 9.84375 1.972656 20.894531 C 1.011719 31.945312 12.910156 42.003906 28.546875 43.363281 C 44.183594 44.722656 57.640625 36.867188 58.601562 25.816406 C 59.5625 14.765625 47.664062 4.707031 32.027344 3.347656 Z M 32.027344 3.347656 " clip-rule="nonzero"/></clipPath><clipPath id="915e27967f"><path d="M 0 0 L 58 0 L 58 41 L 0 41 Z M 0 0 " clip-rule="nonzero"/></clipPath><clipPath id="64647053bf"><path d="M 2.710938 -2.117188 L 59.457031 2.816406 L 55.980469 42.835938 L -0.765625 37.902344 Z M 2.710938 -2.117188 " clip-rule="nonzero"/></clipPath><clipPath id="fe7cef141b"><path d="M 31.027344 0.347656 C 15.390625 -1.011719 1.933594 6.84375 0.972656 17.894531 C 0.0117188 28.945312 11.910156 39.003906 27.546875 40.363281 C 43.183594 41.722656 56.640625 33.867188 57.601562 22.816406 C 58.5625 11.765625 46.664062 1.707031 31.027344 0.347656 Z M 31.027344 0.347656 " clip-rule="nonzero"/></clipPath><clipPath id="230872e31c"><rect x="0" width="58" y="0" height="41"/></clipPath><clipPath id="b56125efc4"><rect x="0" width="61" y="0" height="46"/></clipPath><clipPath id="1e0047c1d4"><path d="M 143 176 L 201 176 L 201 217 L 143 217 Z M 143 176 " clip-rule="nonzero"/></clipPath><clipPath id="dd22cf6a53"><path d="M 141.214844 212.925781 L 146.253906 173.164062 L 202.789062 180.328125 L 197.753906 220.089844 Z M 141.214844 212.925781 " clip-rule="nonzero"/></clipPath><clipPath id="d11eef02c1"><path d="M 143.734375 193.046875 C 142.34375 204.027344 153.839844 214.527344 169.410156 216.5 C 184.980469 218.46875 198.726562 211.167969 200.117188 200.1875 C 201.507812 189.207031 190.015625 178.707031 174.445312 176.738281 C 158.875 174.765625 145.125 182.066406 143.734375 193.046875 Z M 143.734375 193.046875 " clip-rule="nonzero"/></clipPath><clipPath id="cbf24c8de6"><path d="M 0 0 L 58 0 L 58 41 L 0 41 Z M 0 0 " clip-rule="nonzero"/></clipPath><clipPath id="cc56fd19bd"><path d="M -1.785156 36.925781 L 3.253906 -2.835938 L 59.789062 4.328125 L 54.753906 44.089844 Z M -1.785156 36.925781 " clip-rule="nonzero"/></clipPath><clipPath id="de79161ccb"><path d="M 0.734375 17.046875 C -0.65625 28.027344 10.839844 38.527344 26.410156 40.5 C 41.980469 42.46875 55.726562 35.167969 57.117188 24.1875 C 58.507812 13.207031 47.015625 2.707031 31.445312 0.738281 C 15.875 -1.234375 2.125 6.066406 0.734375 17.046875 Z M 0.734375 17.046875 " clip-rule="nonzero"/></clipPath><clipPath id="976125fc39"><rect x="0" width="58" y="0" height="41"/></clipPath><clipPath id="d81c294c71"><path d="M 143 176 L 201 176 L 201 217 L 143 217 Z M 143 176 " clip-rule="nonzero"/></clipPath><clipPath id="5420b559cf"><path d="M 141.214844 212.925781 L 146.277344 172.96875 L 202.769531 180.125 L 197.710938 220.082031 Z M 141.214844 212.925781 " clip-rule="nonzero"/></clipPath><clipPath id="1d77fdd601"><path d="M 141.21875 212.925781 L 146.257812 173.132812 L 203.03125 180.324219 L 197.992188 220.117188 Z M 141.21875 212.925781 " clip-rule="nonzero"/></clipPath><clipPath id="1414d16ac5"><path d="M 143.734375 193.050781 C 142.34375 204.027344 153.835938 214.527344 169.402344 216.496094 C 184.972656 218.46875 198.71875 211.167969 200.109375 200.191406 C 201.5 189.210938 190.007812 178.714844 174.4375 176.742188 C 158.871094 174.773438 145.125 182.074219 143.734375 193.050781 Z M 143.734375 193.050781 " clip-rule="nonzero"/></clipPath><clipPath id="6517eb361f"><path d="M 144 170 L 202 170 L 202 211 L 144 211 Z M 144 170 " clip-rule="nonzero"/></clipPath><clipPath id="16d8737b65"><path d="M 142.082031 206.910156 L 147.121094 167.148438 L 203.65625 174.308594 L 198.621094 214.070312 Z M 142.082031 206.910156 " clip-rule="nonzero"/></clipPath><clipPath id="e62b60ab9e"><path d="M 144.601562 187.03125 C 143.210938 198.011719 154.707031 208.507812 170.273438 210.480469 C 185.84375 212.453125 199.59375 205.152344 200.984375 194.171875 C 202.375 183.191406 190.882812 172.691406 175.3125 170.71875 C 159.742188 168.746094 145.992188 176.050781 144.601562 187.03125 Z M 144.601562 187.03125 " clip-rule="nonzero"/></clipPath><clipPath id="f617adaf0e"><path d="M 0 0 L 58 0 L 58 41 L 0 41 Z M 0 0 " clip-rule="nonzero"/></clipPath><clipPath id="02b681127e"><path d="M -1.917969 36.910156 L 3.121094 -2.851562 L 59.65625 4.308594 L 54.621094 44.070312 Z M -1.917969 36.910156 " clip-rule="nonzero"/></clipPath><clipPath id="28d1f94095"><path d="M 0.601562 17.03125 C -0.789062 28.011719 10.707031 38.507812 26.273438 40.480469 C 41.84375 42.453125 55.59375 35.152344 56.984375 24.171875 C 58.375 13.191406 46.882812 2.691406 31.3125 0.71875 C 15.742188 -1.253906 1.992188 6.050781 0.601562 17.03125 Z M 0.601562 17.03125 " clip-rule="nonzero"/></clipPath><clipPath id="8c32eab975"><rect x="0" width="58" y="0" height="41"/></clipPath><clipPath id="39140b337d"><path d="M 144 170 L 202 170 L 202 211 L 144 211 Z M 144 170 " clip-rule="nonzero"/></clipPath><clipPath id="246224a836"><path d="M 142.082031 206.910156 L 147.144531 166.953125 L 203.636719 174.109375 L 198.578125 214.066406 Z M 142.082031 206.910156 " clip-rule="nonzero"/></clipPath><clipPath id="46a318ea16"><path d="M 142.082031 206.910156 L 147.125 167.117188 L 203.898438 174.308594 L 198.855469 214.101562 Z M 142.082031 206.910156 " clip-rule="nonzero"/></clipPath><clipPath id="98b4bd62df"><path d="M 144.601562 187.035156 C 143.210938 198.011719 154.703125 208.507812 170.269531 210.480469 C 185.835938 212.453125 199.585938 205.152344 200.976562 194.175781 C 202.363281 183.195312 190.871094 172.699219 175.304688 170.726562 C 159.738281 168.753906 145.992188 176.054688 144.601562 187.035156 Z M 144.601562 187.035156 " clip-rule="nonzero"/></clipPath><clipPath id="8faab3c56a"><path d="M 151 176 L 194 176 L 194 207 L 151 207 Z M 151 176 " clip-rule="nonzero"/></clipPath><clipPath id="deae8a7c6b"><path d="M 149.820312 203.269531 L 153.515625 174.082031 L 195.015625 179.339844 L 191.320312 208.527344 Z M 149.820312 203.269531 " clip-rule="nonzero"/></clipPath><clipPath id="11b95f9d3a"><path d="M 151.667969 188.675781 C 150.644531 196.734375 159.082031 204.441406 170.511719 205.890625 C 181.941406 207.339844 192.035156 201.976562 193.058594 193.917969 C 194.078125 185.859375 185.640625 178.148438 174.210938 176.703125 C 162.78125 175.253906 152.6875 180.617188 151.667969 188.675781 Z M 151.667969 188.675781 " clip-rule="nonzero"/></clipPath><clipPath id="2d2c089e15"><path d="M 0 0 L 43 0 L 43 31 L 0 31 Z M 0 0 " clip-rule="nonzero"/></clipPath><clipPath id="38a8c4b30f"><path d="M -1.179688 27.269531 L 2.515625 -1.917969 L 44.015625 3.339844 L 40.320312 32.527344 Z M -1.179688 27.269531 " clip-rule="nonzero"/></clipPath><clipPath id="2c86713c68"><path d="M 0.667969 12.675781 C -0.355469 20.734375 8.082031 28.441406 19.511719 29.890625 C 30.941406 31.339844 41.035156 25.976562 42.058594 17.917969 C 43.078125 9.859375 34.640625 2.148438 23.210938 0.703125 C 11.78125 -0.746094 1.6875 4.617188 0.667969 12.675781 Z M 0.667969 12.675781 " clip-rule="nonzero"/></clipPath><clipPath id="487e2cf427"><rect x="0" width="43" y="0" height="31"/></clipPath><clipPath id="20a7afc621"><path d="M 151 176 L 194 176 L 194 207 L 151 207 Z M 151 176 " clip-rule="nonzero"/></clipPath><clipPath id="e7ca0a4aa3"><path d="M 149.820312 203.269531 L 153.484375 174.335938 L 194.820312 179.570312 L 191.15625 208.503906 Z M 149.820312 203.269531 " clip-rule="nonzero"/></clipPath><clipPath id="0d4f9f3b03"><path d="M 149.820312 203.269531 L 153.519531 174.058594 L 195.191406 179.335938 L 191.492188 208.546875 Z M 149.820312 203.269531 " clip-rule="nonzero"/></clipPath><clipPath id="48006f0c9c"><path d="M 151.667969 188.679688 C 150.644531 196.734375 159.082031 204.441406 170.507812 205.890625 C 181.933594 207.335938 192.027344 201.976562 193.046875 193.917969 C 194.066406 185.859375 185.632812 178.15625 174.203125 176.707031 C 162.777344 175.261719 152.6875 180.621094 151.667969 188.679688 Z M 151.667969 188.679688 " clip-rule="nonzero"/></clipPath><clipPath id="93ab48d1cd"><path d="M 154 178 L 193 178 L 193 206 L 154 206 Z M 154 178 " clip-rule="nonzero"/></clipPath><clipPath id="1d43b25370"><path d="M 153.296875 202.777344 L 156.695312 175.960938 L 194.09375 180.695312 L 190.695312 207.515625 Z M 153.296875 202.777344 " clip-rule="nonzero"/></clipPath><clipPath id="2346685648"><path d="M 154.996094 189.371094 C 154.058594 196.773438 161.644531 203.835938 171.945312 205.140625 C 182.246094 206.445312 191.355469 201.5 192.292969 194.09375 C 193.230469 186.6875 185.640625 179.625 175.34375 178.320312 C 165.042969 177.019531 155.933594 181.964844 154.996094 189.371094 Z M 154.996094 189.371094 " clip-rule="nonzero"/></clipPath><clipPath id="b5529233f0"><path d="M 0.0390625 0 L 39 0 L 39 28 L 0.0390625 28 Z M 0.0390625 0 " clip-rule="nonzero"/></clipPath><clipPath id="3dd0515905"><path d="M -0.703125 24.777344 L 2.695312 -2.039062 L 40.09375 2.695312 L 36.695312 29.515625 Z M -0.703125 24.777344 " clip-rule="nonzero"/></clipPath><clipPath id="293096433b"><path d="M 0.996094 11.371094 C 0.0585938 18.773438 7.644531 25.835938 17.945312 27.140625 C 28.246094 28.445312 37.355469 23.5 38.292969 16.09375 C 39.230469 8.6875 31.640625 1.625 21.34375 0.320312 C 11.042969 -0.980469 1.933594 3.964844 0.996094 11.371094 Z M 0.996094 11.371094 " clip-rule="nonzero"/></clipPath><clipPath id="26d7b4168c"><rect x="0" width="39" y="0" height="28"/></clipPath><clipPath id="15a94a5c6b"><path d="M 166 184 L 183 184 L 183 199 L 166 199 Z M 166 184 " clip-rule="nonzero"/></clipPath><clipPath id="2a2093076f"><path d="M 163.976562 193.578125 L 168.886719 182.84375 L 184.042969 189.78125 L 179.128906 200.515625 Z M 163.976562 193.578125 " clip-rule="nonzero"/></clipPath><clipPath id="0afdeb7eca"><path d="M 163.976562 193.578125 L 168.886719 182.84375 L 184.042969 189.78125 L 179.128906 200.515625 Z M 163.976562 193.578125 " clip-rule="nonzero"/></clipPath><clipPath id="3328fc36aa"><path d="M 69 118 L 86 118 L 86 133 L 69 133 Z M 69 118 " clip-rule="nonzero"/></clipPath><clipPath id="a469c93e10"><path d="M 72.25 116.28125 L 87.523438 120.957031 L 83.457031 134.238281 L 68.183594 129.558594 Z M 72.25 116.28125 " clip-rule="nonzero"/></clipPath><clipPath id="92a3c4fab2"><path d="M 72.25 116.28125 L 87.769531 121.035156 L 83.660156 134.457031 L 68.140625 129.703125 Z M 72.25 116.28125 " clip-rule="nonzero"/></clipPath><clipPath id="1c356fe57a"><path d="M 79.964844 118.644531 C 75.703125 117.339844 71.332031 119.285156 70.195312 122.992188 C 69.058594 126.699219 71.59375 130.761719 75.855469 132.066406 C 80.113281 133.371094 84.488281 131.425781 85.625 127.71875 C 86.757812 124.011719 84.226562 119.949219 79.964844 118.644531 Z M 79.964844 118.644531 " clip-rule="nonzero"/></clipPath><clipPath id="a288cf40e3"><path d="M 88 126 L 100 126 L 100 136 L 88 136 Z M 88 126 " clip-rule="nonzero"/></clipPath><clipPath id="efea587330"><path d="M 90.253906 124.984375 L 100.878906 128.238281 L 98.03125 137.535156 L 87.40625 134.28125 Z M 90.253906 124.984375 " clip-rule="nonzero"/></clipPath><clipPath id="a74fe4fc06"><path d="M 90.253906 124.984375 L 100.617188 128.160156 L 97.871094 137.121094 L 87.507812 133.949219 Z M 90.253906 124.984375 " clip-rule="nonzero"/></clipPath><clipPath id="359e0175b7"><path d="M 95.40625 126.5625 C 92.558594 125.691406 89.640625 126.992188 88.878906 129.464844 C 88.121094 131.941406 89.8125 134.65625 92.660156 135.527344 C 95.503906 136.398438 98.425781 135.097656 99.183594 132.621094 C 99.941406 130.148438 98.25 127.433594 95.40625 126.5625 Z M 95.40625 126.5625 " clip-rule="nonzero"/></clipPath><clipPath id="c261eb595d"><path d="M 74 121 L 82 121 L 82 128 L 74 128 Z M 74 121 " clip-rule="nonzero"/></clipPath><clipPath id="16aede65b8"><path d="M 73.707031 125.527344 L 75.898438 121.1875 L 82.097656 124.320312 L 79.90625 128.660156 Z M 73.707031 125.527344 " clip-rule="nonzero"/></clipPath><clipPath id="0f306d73d2"><path d="M 73.707031 125.527344 L 75.898438 121.1875 L 82.097656 124.320312 L 79.90625 128.660156 Z M 73.707031 125.527344 " clip-rule="nonzero"/></clipPath><clipPath id="9ee9d5004a"><path d="M 73.707031 125.527344 L 75.898438 121.1875 L 82.097656 124.320312 L 79.90625 128.660156 Z M 73.707031 125.527344 " clip-rule="nonzero"/></clipPath><clipPath id="43e6ec1711"><path d="M 90 127 L 97 127 L 97 135 L 90 135 Z M 90 127 " clip-rule="nonzero"/></clipPath><clipPath id="cb2ccc5111"><path d="M 89.070312 131.652344 L 91.261719 127.3125 L 97.460938 130.441406 L 95.269531 134.78125 Z M 89.070312 131.652344 " clip-rule="nonzero"/></clipPath><clipPath id="8c0c05f8b1"><path d="M 89.070312 131.652344 L 91.261719 127.3125 L 97.460938 130.441406 L 95.269531 134.78125 Z M 89.070312 131.652344 " clip-rule="nonzero"/></clipPath><clipPath id="d93ee2c324"><path d="M 89.070312 131.652344 L 91.261719 127.3125 L 97.460938 130.441406 L 95.269531 134.78125 Z M 89.070312 131.652344 " clip-rule="nonzero"/></clipPath><clipPath id="2e91eff79b"><rect x="0" width="342" y="0" height="231"/></clipPath></defs><g mask="url(#71a47220f5)"><g transform="matrix(1, 0, 0, 1, 214, 305)"><g clip-path="url(#5a69f29b15)"><g clip-path="url(#e189053775)"><g transform="matrix(1, 0, 0, 1, -0.000000000000056843, -0.000000000000113687)"><g clip-path="url(#ade8e6960a)"><g clip-path="url(#aed1bfd265)"><g clip-path="url(#eaf345d1d3)"><g transform="matrix(1, 0, 0, 1, 10, 90)"><g clip-path="url(#953ea0df77)"><g clip-path="url(#c4df759600)"><g clip-path="url(#9db2bf3843)"><path fill="#000000" d="M 12.992188 0.773438 L 101.101562 51.820312 L 88.300781 73.914062 L 0.195312 22.867188 Z M 12.992188 0.773438 " fill-opacity="1" fill-rule="nonzero"/></g></g></g></g></g></g><g clip-path="url(#c176b48183)"><g clip-path="url(#df2cb7f70d)"><g transform="matrix(1, 0, 0, 1, 75, 127)"><g clip-path="url(#09b94b1228)"><g clip-path="url(#247bff8660)"><g clip-path="url(#e55cee65a6)"><path fill="#000000" d="M 13.675781 0.34375 L 101.785156 51.390625 L 88.984375 73.480469 L 0.878906 22.433594 Z M 13.675781 0.34375 " fill-opacity="1" fill-rule="nonzero"/></g></g></g></g></g></g><g clip-path="url(#d5bccba1c6)"><g clip-path="url(#70a4adad10)"><g transform="matrix(1, 0, 0, 1, 287, 76)"><g clip-path="url(#93820ffb9e)"><g clip-path="url(#50b3a2c286)"><g clip-path="url(#1364fa1374)"><path fill="#000000" d="M 0.605469 15.960938 L 9.703125 0.0703125 L 22.535156 7.417969 L 13.4375 23.308594 Z M 0.605469 15.960938 " fill-opacity="1" fill-rule="nonzero"/></g></g></g></g></g></g><g clip-path="url(#43e5844701)"><g clip-path="url(#607d1b188b)"><g transform="matrix(1, 0, 0, 1, 143, 69)"><g clip-path="url(#deccad4dd1)"><g clip-path="url(#517983fd2c)"><g clip-path="url(#dadb2d8739)"><path fill="#000000" d="M 0.414062 91.113281 L 147.824219 0.078125 L 171.53125 38.46875 L 24.121094 129.5 Z M 0.414062 91.113281 " fill-opacity="1" fill-rule="nonzero"/></g></g></g></g></g></g><g clip-path="url(#9af9f93947)"><g clip-path="url(#e98bc3b5c2)"><g transform="matrix(1, 0, 0, 1, 308, 90)"><g clip-path="url(#fe3d71c054)"><g clip-path="url(#7382ca708c)"><g clip-path="url(#96c4cee0b5)"><path fill="#000000" d="M 0.449219 8.957031 L 14.097656 0.765625 L 19.089844 9.082031 L 5.441406 17.273438 Z M 0.449219 8.957031 " fill-opacity="1" fill-rule="nonzero"/></g></g></g></g></g></g><g clip-path="url(#e06e0e0e8a)"><g clip-path="url(#6f4120cb55)"><g transform="matrix(1, 0, 0, 1, 314, 86)"><g clip-path="url(#0accbc84a5)"><g clip-path="url(#8a8ec226e1)"><g clip-path="url(#6413061de9)"><path fill="#000000" d="M 0.574219 6.03125 L 4.105469 0.511719 L 17.550781 9.125 L 14.019531 14.640625 Z M 0.574219 6.03125 " fill-opacity="1" fill-rule="nonzero"/></g></g></g></g></g></g><g clip-path="url(#effdf01824)"><g clip-path="url(#3380110a8e)"><g transform="matrix(1, 0, 0, 1, 299, 80)"><g clip-path="url(#fe6406d555)"><g clip-path="url(#374140adb8)"><g clip-path="url(#dc4f45bd82)"><path fill="#000000" d="M 0.558594 13.140625 L 8.539062 0.679688 L 23.582031 10.3125 L 15.601562 22.777344 Z M 0.558594 13.140625 " fill-opacity="1" fill-rule="nonzero"/></g></g></g></g></g></g><g clip-path="url(#4dd4a6b02e)"><g clip-path="url(#ff6b3840a7)"><g transform="matrix(1, 0, 0, 1, 3, 102)"><g clip-path="url(#1147bce5be)"><g clip-path="url(#0fceaf541e)"><g clip-path="url(#4995397e2c)"><path fill="#000000" d="M 0.824219 6.554688 L 4.296875 0.761719 L 17.625 8.746094 L 14.15625 14.539062 Z M 0.824219 6.554688 " fill-opacity="1" fill-rule="nonzero"/></g></g></g></g></g></g><g clip-path="url(#85d649f572)"><g clip-path="url(#c6f7fe46c2)"><g transform="matrix(1, 0, 0, 1, 10, 99)"><g clip-path="url(#e68ac92013)"><g clip-path="url(#7b375a1395)"><g clip-path="url(#1de04a295d)"><path fill="#000000" d="M 0.554688 6.105469 L 4.023438 0.3125 L 17.355469 8.296875 L 13.882812 14.089844 Z M 0.554688 6.105469 " fill-opacity="1" fill-rule="nonzero"/></g></g></g></g></g></g><g clip-path="url(#0597193d08)"><path stroke-linecap="butt" transform="matrix(0.70769, 0.403777, -0.403777, 0.70769, 3.140139, 107.108476)" fill="none" stroke-linejoin="miter" d="M -0.00084268 1.999891 L 229.653674 2.001508 " stroke="#000000" stroke-width="4" stroke-opacity="1" stroke-miterlimit="4"/></g><g clip-path="url(#3c51351849)"><path stroke-linecap="butt" transform="matrix(0.693356, -0.427924, 0.427924, 0.693356, 162.524683, 199.287926)" fill="none" stroke-linejoin="miter" d="M -0.00243361 2.000148 L 245.566238 1.998306 " stroke="#000000" stroke-width="4" stroke-opacity="1" stroke-miterlimit="4"/></g><g clip-path="url(#dd087dfa31)"><path stroke-linecap="butt" transform="matrix(0.693356, -0.427924, 0.427924, 0.693356, 2.332863, 106.561854)" fill="none" stroke-linejoin="miter" d="M -0.0016855 1.999902 L 245.566986 1.99806 " stroke="#000000" stroke-width="4" stroke-opacity="1" stroke-miterlimit="4"/></g><g clip-path="url(#efdefa7201)"><path stroke-linecap="butt" transform="matrix(0.70769, 0.403777, -0.403777, 0.70769, 171.938735, 2.052876)" fill="none" stroke-linejoin="miter" d="M 0.00204121 1.999535 L 229.650018 1.999363 " stroke="#000000" stroke-width="4" stroke-opacity="1" stroke-miterlimit="4"/></g></g></g></g></g></g></g><g transform="matrix(1, 0, 0, 1, 205, 252)"><g clip-path="url(#2e91eff79b)"><g clip-path="url(#10eaa87a25)"><g clip-path="url(#4860db44c5)"><g transform="matrix(1, 0, 0, 1, 308, 94)"><g clip-path="url(#9c93c8723c)"><g clip-path="url(#0ebdc0cd7d)"><g clip-path="url(#0370bfd5eb)"><path fill="#ffffff" d="M 0.554688 9.527344 L 14.878906 0.882812 L 27.84375 22.367188 L 13.519531 31.011719 Z M 0.554688 9.527344 " fill-opacity="1" fill-rule="nonzero"/></g></g></g></g></g></g><g clip-path="url(#7c0c92edf0)"><g clip-path="url(#c0b7985788)"><g transform="matrix(1, 0, 0, 1, 146, 104)"><g clip-path="url(#88e5ce8227)"><g clip-path="url(#8e3029e6e2)"><g clip-path="url(#40431700f2)"><path fill="#ffffff" d="M 0.832031 101.234375 L 167.511719 0.753906 L 178.996094 19.800781 L 12.316406 120.28125 Z M 0.832031 101.234375 " fill-opacity="1" fill-rule="nonzero"/></g></g></g></g></g></g><g clip-path="url(#0b44ee4b0c)"><g clip-path="url(#5ce404a22d)"><g transform="matrix(1, 0, 0, 1, 1, 123)"><g clip-path="url(#6dfe9900fa)"><g clip-path="url(#107d8ad9e8)"><g clip-path="url(#c26694f29d)"><path fill="#ffffff" d="M 10.015625 0.667969 L 164.839844 88.730469 L 155.765625 104.6875 L 0.941406 16.625 Z M 10.015625 0.667969 " fill-opacity="1" fill-rule="nonzero"/></g></g></g></g></g></g><g clip-path="url(#a3fa07b4f5)"><path stroke-linecap="butt" transform="matrix(0.590832, -0.364926, 0.364926, 0.590832, 1.615369, 137.977326)" fill="none" stroke-linejoin="miter" d="M -0.00268375 2.000317 L 310.148242 1.997689 " stroke="#000000" stroke-width="4" stroke-opacity="1" stroke-miterlimit="4"/></g><g clip-path="url(#247d865067)"><path stroke-linecap="butt" transform="matrix(0.601549, 0.346975, -0.346975, 0.601549, 3.727073, 137.810041)" fill="none" stroke-linejoin="miter" d="M -0.00335815 1.999575 L 255.521295 1.998762 " stroke="#000000" stroke-width="4" stroke-opacity="1" stroke-miterlimit="4"/></g><g clip-path="url(#860f90317e)"><path stroke-linecap="butt" transform="matrix(0.590832, -0.364926, 0.364926, 0.590832, 154.954635, 225.666119)" fill="none" stroke-linejoin="miter" d="M -0.000997436 1.99917 L 310.146972 2.001327 " stroke="#000000" stroke-width="4" stroke-opacity="1" stroke-miterlimit="4"/></g><g clip-path="url(#a37f50278e)"><path stroke-linecap="butt" transform="matrix(0.601407, 0.347222, -0.347222, 0.601407, 185.626028, 24.590983)" fill="none" stroke-linejoin="miter" d="M -0.00296075 2.000334 L 254.908172 2.001856 " stroke="#000000" stroke-width="4" stroke-opacity="1" stroke-miterlimit="4"/></g><g clip-path="url(#6e7af0dde1)"><g clip-path="url(#ee438de2eb)"><g transform="matrix(1, 0, 0, 1, 202, 47)"><g clip-path="url(#a037f23fb9)"><g clip-path="url(#1b17c4b592)"><g clip-path="url(#b6fae57d84)"><path fill="#ffffff" d="M 38.382812 0 L 95.710938 32.011719 L 57.445312 100.53125 L 0.121094 68.519531 Z M 38.382812 0 " fill-opacity="1" fill-rule="nonzero"/></g></g></g></g></g></g><g clip-path="url(#eec94b2cd7)"><g clip-path="url(#42e2e877f0)"><g transform="matrix(1, 0, 0, 1, 120, 65)"><g clip-path="url(#58294969d5)"><g clip-path="url(#6f0852c3c7)"><g clip-path="url(#825ea62f76)"><path fill="#ffffff" d="M 150.628906 0.835938 L 184.789062 56.910156 L 34.976562 148.1875 L 0.8125 92.113281 Z M 150.628906 0.835938 " fill-opacity="1" fill-rule="nonzero"/></g></g></g></g></g></g><g clip-path="url(#10cdeb4e6e)"><g clip-path="url(#9aa8ac951c)"><g transform="matrix(1, 0, 0, 1, 103, 15)"><g clip-path="url(#edf01ce399)"><g clip-path="url(#c1c4f3781d)"><g clip-path="url(#03c1744f9f)"><path fill="#ffffff" d="M 82.238281 0.0976562 L 139.398438 32.402344 L 57.25 177.761719 L 0.0859375 145.457031 Z M 82.238281 0.0976562 " fill-opacity="1" fill-rule="nonzero"/></g></g></g></g></g></g><g clip-path="url(#d1dbb519cc)"><g clip-path="url(#e341e566bb)"><g transform="matrix(1, 0, 0, 1, 44, 13)"><g clip-path="url(#45f268ca26)"><g clip-path="url(#2fd8c35176)"><g clip-path="url(#27ec5083ce)"><path fill="#ffffff" d="M 141.972656 0.324219 L 176.707031 56.042969 L 35.015625 144.371094 L 0.28125 88.652344 Z M 141.972656 0.324219 " fill-opacity="1" fill-rule="nonzero"/></g></g></g></g></g></g><g clip-path="url(#62d75db7d2)"><g clip-path="url(#391d583de4)"><g transform="matrix(1, 0, 0, 1, 51, 96)"><g clip-path="url(#3698ce4143)"><g clip-path="url(#1a5dcd03d0)"><g clip-path="url(#a49e34ce64)"><path fill="#ffffff" d="M 137.605469 61.304688 L 104.296875 117.886719 L 0.636719 56.859375 L 33.945312 0.277344 Z M 137.605469 61.304688 " fill-opacity="1" fill-rule="nonzero"/></g></g></g></g></g></g><g clip-path="url(#97a1c15c34)"><g clip-path="url(#f019020c30)"><g transform="matrix(1, 0, 0, 1, 10, 113)"><g clip-path="url(#98571f177d)"><g clip-path="url(#1c96a560d2)"><g clip-path="url(#2633c28698)"><path fill="#ffffff" d="M 72.230469 34.828125 L 63.179688 51.578125 L 0.503906 17.695312 L 9.558594 0.949219 Z M 72.230469 34.828125 " fill-opacity="1" fill-rule="nonzero"/></g></g></g></g></g></g><g clip-path="url(#3dfd9a1e57)"><g clip-path="url(#0151d3ba84)"><g transform="matrix(1, 0, 0, 1, 19, 80)"><g clip-path="url(#831003b904)"><g clip-path="url(#e719cb0b6c)"><g clip-path="url(#e88d0db6f4)"><path fill="#ffffff" d="M 61.609375 0.238281 L 75.03125 22.578125 L 13.941406 59.285156 L 0.519531 36.945312 Z M 61.609375 0.238281 " fill-opacity="1" fill-rule="nonzero"/></g></g></g></g></g></g><g clip-path="url(#91301aba49)"><g clip-path="url(#215a126642)"><g transform="matrix(1, 0, 0, 1, 5, 120)"><g clip-path="url(#467a3b7d24)"><g clip-path="url(#ce3981d3e0)"><g clip-path="url(#0b38d191e5)"><path fill="#ffffff" d="M 3.851562 0.265625 L 19.824219 7.574219 L 16.683594 14.433594 L 0.710938 7.125 Z M 3.851562 0.265625 " fill-opacity="1" fill-rule="nonzero"/></g></g></g></g></g></g><g clip-path="url(#1fa1e9c3c2)"><g clip-path="url(#1965bfe5dd)"><g transform="matrix(1, 0, 0, 1, 10, 117)"><g clip-path="url(#52a11ec58e)"><g clip-path="url(#57573f6b98)"><g clip-path="url(#fb95a78428)"><path fill="#ffffff" d="M 3.664062 0.941406 L 19.636719 8.25 L 16.496094 15.109375 L 0.523438 7.804688 Z M 3.664062 0.941406 " fill-opacity="1" fill-rule="nonzero"/></g></g></g></g></g></g><g clip-path="url(#4c5cab87b2)"><g clip-path="url(#701b96364a)"><g transform="matrix(1, 0, 0, 1, 290, 92)"><g clip-path="url(#fcc3d69b6a)"><g clip-path="url(#8082e84179)"><g clip-path="url(#d5fb91f988)"><path fill="#ffffff" d="M 0.632812 20.78125 L 33.664062 0.707031 L 41.078125 12.910156 L 8.046875 32.980469 Z M 0.632812 20.78125 " fill-opacity="1" fill-rule="nonzero"/></g></g></g></g></g></g><g clip-path="url(#b2595d700a)"><g clip-path="url(#ea7d9e68ca)"><g transform="matrix(1, 0, 0, 1, 287, 77)"><g clip-path="url(#083c4c7fa1)"><g clip-path="url(#82704efe77)"><g clip-path="url(#47075f04c0)"><path fill="#ffffff" d="M 7.792969 0.992188 L 40.910156 20.925781 L 33.546875 33.160156 L 0.433594 13.226562 Z M 7.792969 0.992188 " fill-opacity="1" fill-rule="nonzero"/></g></g></g></g></g></g><g clip-path="url(#ffb86991ba)"><g clip-path="url(#01d12cbfe6)"><g transform="matrix(1, 0, 0, 1, 324, 95)"><g clip-path="url(#9e42dbf91d)"><g clip-path="url(#964585a190)"><g clip-path="url(#6a1c38826f)"><path fill="#ffffff" d="M 5.773438 0.683594 L 13.492188 6.539062 L 8.445312 13.195312 L 0.722656 7.339844 Z M 5.773438 0.683594 " fill-opacity="1" fill-rule="nonzero"/></g></g></g></g></g></g><g clip-path="url(#70cdb05cb4)"><path stroke-linecap="butt" transform="matrix(0.590832, -0.364926, 0.364926, 0.590832, 1.615369, 125.519709)" fill="none" stroke-linejoin="miter" d="M -0.00312699 2.001035 L 310.147798 1.998407 " stroke="#000000" stroke-width="4" stroke-opacity="1" stroke-miterlimit="4"/></g><g clip-path="url(#925b47554b)"><path stroke-linecap="butt" transform="matrix(0.601407, 0.347222, -0.347222, 0.601407, 5.795783, 125.296643)" fill="none" stroke-linejoin="miter" d="M 0.000670195 2.000517 L 254.908991 1.997168 " stroke="#000000" stroke-width="4" stroke-opacity="1" stroke-miterlimit="4"/></g><g clip-path="url(#f3d515cf31)"><path stroke-linecap="butt" transform="matrix(0.587889, -0.369647, 0.369647, 0.587889, 156.099204, 213.956248)" fill="none" stroke-linejoin="miter" d="M 0.00103775 2.001988 L 307.299294 1.998929 " stroke="#000000" stroke-width="4" stroke-opacity="1" stroke-miterlimit="4"/></g><g clip-path="url(#3abe66eba1)"><path stroke-linecap="butt" transform="matrix(0.601407, 0.347222, -0.347222, 0.601407, 185.626028, 12.82782)" fill="none" stroke-linejoin="miter" d="M -0.00192064 2.002135 L 254.9064 1.998786 " stroke="#000000" stroke-width="4" stroke-opacity="1" stroke-miterlimit="4"/></g><g clip-path="url(#d43b00c5d0)"><g clip-path="url(#bedca237cb)"><g transform="matrix(1, 0, 0, 1, 40, 88)"><g clip-path="url(#0fbe09245c)"><g clip-path="url(#ba70a9ec61)"><g clip-path="url(#8ab33ff6a8)"><path fill="#ffffff" d="M 61.726562 0.425781 L 75.148438 22.769531 L 14.058594 59.476562 L 0.636719 37.132812 Z M 61.726562 0.425781 " fill-opacity="1" fill-rule="nonzero"/></g></g></g></g></g></g><g clip-path="url(#303dd29796)"><g clip-path="url(#5388fd366f)"><g transform="matrix(1, 0, 0, 1, 272, 82)"><g clip-path="url(#c2b39e6c37)"><g clip-path="url(#e9becd8fc0)"><g clip-path="url(#e91cc1d100)"><path fill="#ffffff" d="M 7.167969 0.214844 L 40.609375 19.597656 L 33.449219 31.949219 L 0.0117188 12.566406 Z M 7.167969 0.214844 " fill-opacity="1" fill-rule="nonzero"/></g></g></g></g></g></g><path stroke-linecap="butt" transform="matrix(0.603173, 0.344145, -0.344145, 0.603173, 31.559161, 115.521799)" fill="none" stroke-linejoin="miter" d="M -0.000851106 1.997863 L 229.651931 2.000128 " stroke="#000000" stroke-width="4" stroke-opacity="1" stroke-miterlimit="4"/><path stroke-linecap="butt" transform="matrix(0.591827, -0.36331, 0.36331, 0.591827, 167.23559, 192.895868)" fill="none" stroke-linejoin="miter" d="M -0.000509618 1.997328 L 244.275644 2.000479 " stroke="#000000" stroke-width="4" stroke-opacity="1" stroke-miterlimit="4"/><path stroke-linecap="butt" transform="matrix(0.590956, -0.364725, 0.364725, 0.590956, 29.633038, 116.271974)" fill="none" stroke-linejoin="miter" d="M 0.00154781 1.999668 L 245.564577 2.00041 " stroke="#000000" stroke-width="4" stroke-opacity="1" stroke-miterlimit="4"/><path stroke-linecap="butt" transform="matrix(0.603173, 0.344145, -0.344145, 0.603173, 175.428374, 25.981559)" fill="none" stroke-linejoin="miter" d="M -0.00254404 2.00078 L 229.650239 2.003045 " stroke="#000000" stroke-width="4" stroke-opacity="1" stroke-miterlimit="4"/><g clip-path="url(#4a0a323608)"><path stroke-linecap="butt" transform="matrix(0.0160795, -0.694258, 0.694258, 0.0160795, 1.234744, 139.976895)" fill="none" stroke-linejoin="miter" d="M 0.00184571 2.002464 L 21.579401 1.997845 " stroke="#000000" stroke-width="4" stroke-opacity="1" stroke-miterlimit="4"/></g><g clip-path="url(#f8b10276d6)"><g clip-path="url(#412f6898cd)"><g transform="matrix(1, 0, 0, 1, 84, 157)"><g clip-path="url(#a2ec4a9944)"><g clip-path="url(#9b9f31736c)"><g clip-path="url(#b220b7ae9e)"><path fill="#ffffff" d="M 0.183594 0.308594 L 10.035156 0.308594 L 10.035156 10.15625 L 0.183594 10.15625 Z M 0.183594 0.308594 " fill-opacity="1" fill-rule="nonzero"/></g></g></g></g></g></g><g clip-path="url(#4855014e0e)"><g clip-path="url(#acbdec3030)"><path stroke-linecap="butt" transform="matrix(0.694444, 0, 0, 0.694444, 84.18496, 157.30661)" fill="none" stroke-linejoin="miter" d="M 7.085534 -0.00276905 C 3.170533 -0.00276905 -0.00196705 3.169731 -0.00196705 7.084732 C -0.00196705 10.999732 3.170533 14.172232 7.085534 14.172232 C 11.000534 14.172232 14.173034 10.999732 14.173034 7.084732 C 14.173034 3.169731 11.000534 -0.00276905 7.085534 -0.00276905 Z M 7.085534 -0.00276905 " stroke="#000000" stroke-width="4.32" stroke-opacity="1" stroke-miterlimit="4"/></g></g><g mask="url(#5e498bfcfd)"><g transform="matrix(1, 0, 0, 1, 111, 20)"><g clip-path="url(#27a8ce69ea)"><g clip-path="url(#1b1670b244)"><g clip-path="url(#51227f686c)"><g clip-path="url(#7a6357ae2e)"><g transform="matrix(1, 0, 0, 1, 2, 3)"><g clip-path="url(#67e2cddfd8)"><g clip-path="url(#1692e5fe37)"><g clip-path="url(#8fecaae39d)"><g clip-path="url(#6d6f01c16f)"><path fill="#000000" d="M 2.457031 -2.105469 L 59.042969 2.816406 L 55.566406 42.832031 L -1.023438 37.914062 Z M 2.457031 -2.105469 " fill-opacity="1" fill-rule="nonzero"/></g></g></g></g></g></g></g></g></g></g></g><g clip-path="url(#f1c245512b)"><g clip-path="url(#068e78d32d)"><g clip-path="url(#cbb0f143ce)"><g transform="matrix(1, 0, 0, 1, 111, 20)"><g clip-path="url(#2f4cb78957)"><g clip-path="url(#9eaed093ab)"><g clip-path="url(#5c7497b6d8)"><g clip-path="url(#a15f60ddbf)"><path fill="#ffffff" d="M -2.039062 36.9375 L 2.996094 -2.824219 L 59.378906 4.316406 L 54.339844 44.078125 Z M -2.039062 36.9375 " fill-opacity="1" fill-rule="nonzero"/></g></g></g></g></g></g></g></g><g clip-path="url(#5026bd83ef)"><g clip-path="url(#5833ba87d3)"><g clip-path="url(#c878941c81)"><g clip-path="url(#f4f3fe15de)"><path stroke-linecap="butt" transform="matrix(0.0872597, -0.68894, 0.68894, 0.0872597, 108.960857, 56.938452)" fill="none" stroke-linejoin="miter" d="M 28.849723 -0.00248646 C 12.917833 0.00258422 0.00266736 18.319356 0.00116996 40.914257 C -0.000327432 63.509159 12.916717 81.825633 28.849313 81.826142 C 44.78749 81.825945 57.702656 63.509174 57.704153 40.914272 C 57.705651 18.319371 44.7879 -0.00268352 28.849723 -0.00248646 Z M 28.849723 -0.00248646 " stroke="#000000" stroke-width="6.48" stroke-opacity="1" stroke-miterlimit="4"/></g></g></g></g><g clip-path="url(#be19a8cbe1)"><g clip-path="url(#26d4eeca0d)"><g clip-path="url(#062008a84d)"><g transform="matrix(1, 0, 0, 1, 112, 14)"><g clip-path="url(#7fcaab28f4)"><g clip-path="url(#5984c98911)"><g clip-path="url(#1abf7e5dcd)"><g clip-path="url(#29153817a8)"><path fill="#ffffff" d="M -2.171875 36.921875 L 2.863281 -2.839844 L 59.242188 4.300781 L 54.207031 44.0625 Z M -2.171875 36.921875 " fill-opacity="1" fill-rule="nonzero"/></g></g></g></g></g></g></g></g><g clip-path="url(#fb9edde35b)"><g clip-path="url(#fe4566f07c)"><g clip-path="url(#811105786f)"><g clip-path="url(#323df4b37c)"><path stroke-linecap="butt" transform="matrix(0.0872597, -0.68894, 0.68894, 0.0872597, 109.827283, 50.921988)" fill="none" stroke-linejoin="miter" d="M 28.848662 -0.00124734 C 12.916066 -0.00175708 0.000900112 18.315015 0.00010952 40.915496 C -0.00138787 63.510398 12.915656 81.826872 28.853833 81.826675 C 44.78643 81.827184 57.701595 63.510413 57.703093 40.915511 C 57.703883 18.31503 44.786839 -0.0014444 28.848662 -0.00124734 Z M 28.848662 -0.00124734 " stroke="#000000" stroke-width="6.48" stroke-opacity="1" stroke-miterlimit="4"/></g></g></g></g><g clip-path="url(#21e981579c)"><g clip-path="url(#c97cc63073)"><g clip-path="url(#73730c9762)"><g transform="matrix(1, 0, 0, 1, 119, 20)"><g clip-path="url(#4d60a3c594)"><g clip-path="url(#b1d4ee4d2c)"><g clip-path="url(#6cf1dd1b00)"><g clip-path="url(#b44093dae6)"><path fill="#000000" d="M -1.4375 27.28125 L 2.257812 -1.90625 L 43.644531 3.335938 L 39.949219 32.523438 Z M -1.4375 27.28125 " fill-opacity="1" fill-rule="nonzero"/></g></g></g></g></g></g></g></g><g clip-path="url(#f9bcca840c)"><g clip-path="url(#4cd621e50f)"><g clip-path="url(#a6895680ec)"><g clip-path="url(#ac1818d298)"><path stroke-linecap="butt" transform="matrix(0.0872597, -0.68894, 0.68894, 0.0872597, 117.56189, 47.279213)" fill="none" stroke-linejoin="miter" d="M 21.179959 0.000158139 C 9.483082 0.00180546 -0.00109247 13.444451 0.00155425 30.02869 C -0.000672649 46.619216 9.481335 60.063699 21.178212 60.062052 C 32.875089 60.060405 42.353683 46.618466 42.356616 30.03352 C 42.353263 13.443701 32.871256 -0.000782382 21.179959 0.000158139 Z M 21.179959 0.000158139 " stroke="#000000" stroke-width="6.48" stroke-opacity="1" stroke-miterlimit="4"/></g></g></g></g><path stroke-linecap="butt" transform="matrix(0.145551, -0.67902, 0.67902, 0.145551, 114.682243, 48.288872)" fill="none" stroke-linejoin="miter" d="M 0.00059702 0.997092 L 8.020192 0.998139 " stroke="#000000" stroke-width="2" stroke-opacity="1" stroke-miterlimit="4"/><path stroke-linecap="butt" transform="matrix(0.322754, -0.614884, 0.614884, 0.322754, 120.967593, 54.352827)" fill="none" stroke-linejoin="miter" d="M -0.000554095 0.999565 L 8.023185 0.999806 " stroke="#000000" stroke-width="2" stroke-opacity="1" stroke-miterlimit="4"/><path stroke-linecap="butt" transform="matrix(0.226241, -0.656558, 0.656558, 0.226241, 130.102067, 57.707758)" fill="none" stroke-linejoin="miter" d="M 0.000170147 0.998704 L 8.02113 1.001349 " stroke="#000000" stroke-width="2" stroke-opacity="1" stroke-miterlimit="4"/><path stroke-linecap="butt" transform="matrix(0.0314608, -0.693731, 0.693731, 0.0314608, 140.435689, 60.284976)" fill="none" stroke-linejoin="miter" d="M 0.0000104072 0.999258 L 8.02397 1.001371 " stroke="#000000" stroke-width="2" stroke-opacity="1" stroke-miterlimit="4"/><path stroke-linecap="butt" transform="matrix(-0.0667942, -0.691225, 0.691225, -0.0667942, 149.747348, 59.027875)" fill="none" stroke-linejoin="miter" d="M 0.00035421 0.998483 L 8.024943 0.999698 " stroke="#000000" stroke-width="2" stroke-opacity="1" stroke-miterlimit="4"/><path stroke-linecap="butt" transform="matrix(-0.0667942, -0.691225, 0.691225, -0.0667942, 158.941498, 55.367026)" fill="none" stroke-linejoin="miter" d="M -0.000800348 1.000053 L 8.023789 1.001268 " stroke="#000000" stroke-width="2" stroke-opacity="1" stroke-miterlimit="4"/><g clip-path="url(#e6e3f8b490)"><g clip-path="url(#b860a4cfcf)"><g clip-path="url(#552146f6f4)"><g transform="matrix(1, 0, 0, 1, 122, 22)"><g clip-path="url(#5cb07933a3)"><g clip-path="url(#ef09308d38)"><g clip-path="url(#9b2e21b12d)"><g clip-path="url(#73598e54da)"><path fill="#a9c5e7" d="M -0.960938 24.789062 L 2.4375 -2.027344 L 39.730469 2.695312 L 36.335938 29.511719 Z M -0.960938 24.789062 " fill-opacity="1" fill-rule="nonzero"/></g></g></g></g></g></g></g></g><g clip-path="url(#a4785dc4db)"><g clip-path="url(#d6df884da4)"><g clip-path="url(#e12f10fc43)"><path fill="#ffffff" d="M 143.480469 31.769531 C 142.640625 32.164062 141.765625 32.898438 140.878906 34.050781 L 138.304688 32.871094 C 138.773438 32.246094 139.363281 31.738281 140.082031 31.351562 C 140.175781 31.273438 140.269531 31.199219 140.265625 31.074219 C 140.3125 30.976562 140.308594 30.855469 140.230469 30.761719 L 139.117188 28.875 C 139.042969 28.78125 138.964844 28.683594 138.84375 28.6875 C 138.746094 28.644531 138.601562 28.699219 138.527344 28.722656 C 137.289062 29.472656 136.300781 30.457031 135.585938 31.625 L 135.039062 31.378906 C 134.84375 31.285156 134.574219 31.34375 134.460938 31.59375 L 133.941406 32.730469 C 133.851562 32.929688 133.910156 33.195312 134.15625 33.308594 L 134.699219 33.558594 C 134.324219 34.640625 134.3125 35.714844 134.636719 36.699219 C 134.96875 37.808594 135.726562 38.636719 136.867188 39.15625 C 138.003906 39.679688 139.003906 39.714844 139.914062 39.296875 C 140.753906 38.902344 141.558594 38.191406 142.421875 37.089844 L 145.09375 38.3125 C 144.511719 39.0625 143.703125 39.652344 142.648438 40.128906 C 142.550781 40.203125 142.457031 40.28125 142.414062 40.378906 C 142.367188 40.476562 142.371094 40.597656 142.449219 40.695312 L 143.394531 42.683594 C 143.472656 42.898438 143.742188 42.964844 143.960938 42.882812 C 145.613281 42.144531 146.914062 41.003906 147.863281 39.582031 L 148.804688 40.011719 C 149.003906 40.101562 149.269531 40.046875 149.382812 39.796875 L 149.902344 38.660156 C 149.992188 38.460938 149.9375 38.195312 149.6875 38.082031 L 148.75 37.652344 C 149.171875 36.46875 149.183594 35.398438 148.878906 34.359375 C 148.546875 33.25 147.8125 32.375 146.671875 31.855469 C 145.464844 31.359375 144.414062 31.296875 143.480469 31.769531 Z M 145.414062 34.867188 C 145.710938 35.003906 145.914062 35.214844 145.996094 35.554688 C 146.054688 35.820312 146.039062 36.113281 146.003906 36.457031 L 143.777344 35.4375 C 144.179688 35.082031 144.441406 34.902344 144.585938 34.847656 C 144.847656 34.667969 145.117188 34.734375 145.414062 34.867188 Z M 137.957031 36.125 C 137.660156 35.988281 137.503906 35.796875 137.421875 35.460938 C 137.339844 35.242188 137.332031 35 137.394531 34.730469 L 139.472656 35.683594 C 139.144531 36.007812 138.90625 36.140625 138.761719 36.195312 C 138.472656 36.300781 138.253906 36.257812 137.957031 36.125 Z M 137.957031 36.125 " fill-opacity="1" fill-rule="nonzero"/></g></g></g><g mask="url(#4c2e238bc0)"><g transform="matrix(1, 0, 0, 1, 144, 176)"><g clip-path="url(#b56125efc4)"><g clip-path="url(#026123753d)"><g clip-path="url(#65863fdf5b)"><g clip-path="url(#ffa46bc8e2)"><g transform="matrix(1, 0, 0, 1, 1, 3)"><g clip-path="url(#230872e31c)"><g clip-path="url(#915e27967f)"><g clip-path="url(#64647053bf)"><g clip-path="url(#fe7cef141b)"><path fill="#000000" d="M 2.710938 -2.117188 L 59.300781 2.804688 L 55.824219 42.824219 L -0.765625 37.902344 Z M 2.710938 -2.117188 " fill-opacity="1" fill-rule="nonzero"/></g></g></g></g></g></g></g></g></g></g></g><g clip-path="url(#1e0047c1d4)"><g clip-path="url(#dd22cf6a53)"><g clip-path="url(#d11eef02c1)"><g transform="matrix(1, 0, 0, 1, 143, 176)"><g clip-path="url(#976125fc39)"><g clip-path="url(#cbf24c8de6)"><g clip-path="url(#cc56fd19bd)"><g clip-path="url(#de79161ccb)"><path fill="#ffffff" d="M -1.785156 36.925781 L 3.253906 -2.835938 L 59.632812 4.308594 L 54.597656 44.070312 Z M -1.785156 36.925781 " fill-opacity="1" fill-rule="nonzero"/></g></g></g></g></g></g></g></g><g clip-path="url(#d81c294c71)"><g clip-path="url(#5420b559cf)"><g clip-path="url(#1d77fdd601)"><g clip-path="url(#1414d16ac5)"><path stroke-linecap="butt" transform="matrix(0.0872597, -0.68894, 0.68894, 0.0872597, 141.217535, 212.927489)" fill="none" stroke-linejoin="miter" d="M 28.851007 -0.00100183 C 12.91841 -0.00151157 -0.00233572 18.315967 0.0017473 40.910161 C 0.000956709 63.510643 12.918001 81.827117 28.850597 81.827627 C 44.788774 81.82743 57.70394 63.510658 57.704731 40.910177 C 57.700648 18.315982 44.783604 -0.00049209 28.851007 -0.00100183 Z M 28.851007 -0.00100183 " stroke="#000000" stroke-width="6.48" stroke-opacity="1" stroke-miterlimit="4"/></g></g></g></g><g clip-path="url(#6517eb361f)"><g clip-path="url(#16d8737b65)"><g clip-path="url(#e62b60ab9e)"><g transform="matrix(1, 0, 0, 1, 144, 170)"><g clip-path="url(#8c32eab975)"><g clip-path="url(#f617adaf0e)"><g clip-path="url(#02b681127e)"><g clip-path="url(#28d1f94095)"><path fill="#ffffff" d="M -1.917969 36.910156 L 3.121094 -2.851562 L 59.5 4.289062 L 54.464844 44.050781 Z M -1.917969 36.910156 " fill-opacity="1" fill-rule="nonzero"/></g></g></g></g></g></g></g></g><g clip-path="url(#39140b337d)"><g clip-path="url(#246224a836)"><g clip-path="url(#46a318ea16)"><g clip-path="url(#98b4bd62df)"><path stroke-linecap="butt" transform="matrix(0.0872597, -0.68894, 0.68894, 0.0872597, 142.083961, 206.911022)" fill="none" stroke-linejoin="miter" d="M 28.849943 0.000237719 C 12.917347 -0.000272022 0.00218082 18.3165 0.000683428 40.911401 C -0.000813967 63.506302 12.916937 81.828357 28.849533 81.828867 C 44.787004 81.823089 57.702169 63.506317 57.703667 40.911416 C 57.705164 18.316515 44.78812 0.0000406557 28.849943 0.000237719 Z M 28.849943 0.000237719 " stroke="#000000" stroke-width="6.48" stroke-opacity="1" stroke-miterlimit="4"/></g></g></g></g><g clip-path="url(#8faab3c56a)"><g clip-path="url(#deae8a7c6b)"><g clip-path="url(#11b95f9d3a)"><g transform="matrix(1, 0, 0, 1, 151, 176)"><g clip-path="url(#487e2cf427)"><g clip-path="url(#2d2c089e15)"><g clip-path="url(#38a8c4b30f)"><g clip-path="url(#2c86713c68)"><path fill="#000000" d="M -1.179688 27.269531 L 2.515625 -1.917969 L 43.902344 3.324219 L 40.207031 32.511719 Z M -1.179688 27.269531 " fill-opacity="1" fill-rule="nonzero"/></g></g></g></g></g></g></g></g><g clip-path="url(#20a7afc621)"><g clip-path="url(#e7ca0a4aa3)"><g clip-path="url(#0d4f9f3b03)"><g clip-path="url(#48006f0c9c)"><path stroke-linecap="butt" transform="matrix(0.0872597, -0.68894, 0.68894, 0.0872597, 149.81857, 203.268279)" fill="none" stroke-linejoin="miter" d="M 21.175703 0.00234093 C 9.4837 -0.00229897 0.000232383 13.445927 -0.00270132 30.030872 C -0.0000546033 46.615111 9.482659 60.065175 21.179537 60.063528 C 32.876414 60.06188 42.355008 46.619942 42.357235 30.029416 C 42.354588 13.445177 32.872581 0.000693603 21.175703 0.00234093 Z M 21.175703 0.00234093 " stroke="#000000" stroke-width="6.48" stroke-opacity="1" stroke-miterlimit="4"/></g></g></g></g><path stroke-linecap="butt" transform="matrix(0.145551, -0.67902, 0.67902, 0.145551, 146.938949, 204.277908)" fill="none" stroke-linejoin="miter" d="M 0.00199411 0.998421 L 8.021589 0.999468 " stroke="#000000" stroke-width="2" stroke-opacity="1" stroke-miterlimit="4"/><path stroke-linecap="butt" transform="matrix(0.322754, -0.614884, 0.614884, 0.322754, 153.224302, 210.341892)" fill="none" stroke-linejoin="miter" d="M 0.00118411 1.000448 L 8.024923 1.000688 " stroke="#000000" stroke-width="2" stroke-opacity="1" stroke-miterlimit="4"/><path stroke-linecap="butt" transform="matrix(0.226241, -0.656558, 0.656558, 0.226241, 162.358774, 213.696794)" fill="none" stroke-linejoin="miter" d="M 0.00171713 0.999856 L 8.022677 1.002501 " stroke="#000000" stroke-width="2" stroke-opacity="1" stroke-miterlimit="4"/><path stroke-linecap="butt" transform="matrix(0.0314608, -0.693731, 0.693731, 0.0314608, 172.692367, 216.273981)" fill="none" stroke-linejoin="miter" d="M 0.00112586 1.000844 L 8.02483 0.997337 " stroke="#000000" stroke-width="2" stroke-opacity="1" stroke-miterlimit="4"/><path stroke-linecap="butt" transform="matrix(-0.0667942, -0.691225, 0.691225, -0.0667942, 182.004028, 215.016912)" fill="none" stroke-linejoin="miter" d="M 0.00127973 1.000211 L 8.025869 1.001426 " stroke="#000000" stroke-width="2" stroke-opacity="1" stroke-miterlimit="4"/><path stroke-linecap="butt" transform="matrix(-0.0667942, -0.691225, 0.691225, -0.0667942, 191.198207, 211.356091)" fill="none" stroke-linejoin="miter" d="M 0.00017044 1.001744 L 8.024759 1.002959 " stroke="#000000" stroke-width="2" stroke-opacity="1" stroke-miterlimit="4"/><g clip-path="url(#93ab48d1cd)"><g clip-path="url(#1d43b25370)"><g clip-path="url(#2346685648)"><g transform="matrix(1, 0, 0, 1, 154, 178)"><g clip-path="url(#26d7b4168c)"><g clip-path="url(#b5529233f0)"><g clip-path="url(#3dd0515905)"><g clip-path="url(#293096433b)"><path fill="#a9c5e7" d="M -0.703125 24.777344 L 2.695312 -2.039062 L 39.988281 2.683594 L 36.589844 29.503906 Z M -0.703125 24.777344 " fill-opacity="1" fill-rule="nonzero"/></g></g></g></g></g></g></g></g><g clip-path="url(#15a94a5c6b)"><g clip-path="url(#2a2093076f)"><g clip-path="url(#0afdeb7eca)"><path fill="#ffffff" d="M 175.738281 187.757812 C 174.898438 188.152344 174.023438 188.886719 173.136719 190.039062 L 170.5625 188.863281 C 171.027344 188.238281 171.621094 187.730469 172.335938 187.339844 C 172.433594 187.261719 172.527344 187.1875 172.523438 187.066406 C 172.566406 186.964844 172.5625 186.84375 172.488281 186.75 L 171.375 184.863281 C 171.296875 184.769531 171.222656 184.675781 171.101562 184.679688 C 171 184.632812 170.859375 184.6875 170.785156 184.714844 C 169.542969 185.460938 168.554688 186.445312 167.839844 187.617188 L 167.296875 187.367188 C 167.097656 187.277344 166.832031 187.332031 166.71875 187.582031 L 166.199219 188.71875 C 166.109375 188.917969 166.164062 189.183594 166.414062 189.296875 L 166.957031 189.546875 C 166.582031 190.628906 166.570312 191.703125 166.894531 192.691406 C 167.226562 193.796875 167.984375 194.625 169.121094 195.144531 C 170.261719 195.667969 171.261719 195.707031 172.171875 195.285156 C 173.011719 194.890625 173.816406 194.179688 174.679688 193.078125 L 177.351562 194.300781 C 176.765625 195.054688 175.960938 195.640625 174.902344 196.117188 C 174.808594 196.191406 174.714844 196.269531 174.667969 196.367188 C 174.625 196.464844 174.628906 196.589844 174.703125 196.683594 L 175.648438 198.671875 C 175.730469 198.886719 176 198.953125 176.214844 198.871094 C 177.871094 198.132812 179.171875 196.992188 180.121094 195.570312 L 181.0625 196 C 181.261719 196.09375 181.527344 196.035156 181.640625 195.785156 L 182.160156 194.648438 C 182.25 194.449219 182.191406 194.183594 181.945312 194.070312 L 181.003906 193.640625 C 181.425781 192.457031 181.4375 191.386719 181.136719 190.347656 C 180.804688 189.238281 180.070312 188.363281 178.929688 187.84375 C 177.71875 187.347656 176.671875 187.289062 175.738281 187.757812 Z M 177.671875 190.859375 C 177.96875 190.992188 178.167969 191.207031 178.253906 191.542969 C 178.3125 191.808594 178.296875 192.101562 178.261719 192.445312 L 176.035156 191.425781 C 176.433594 191.070312 176.695312 190.890625 176.839844 190.835938 C 177.101562 190.65625 177.375 190.722656 177.671875 190.859375 Z M 170.210938 192.113281 C 169.914062 191.976562 169.761719 191.789062 169.675781 191.449219 C 169.597656 191.234375 169.589844 190.988281 169.652344 190.71875 L 171.730469 191.671875 C 171.402344 192 171.164062 192.128906 171.019531 192.183594 C 170.730469 192.289062 170.507812 192.25 170.210938 192.113281 Z M 170.210938 192.113281 " fill-opacity="1" fill-rule="nonzero"/></g></g></g><path stroke-linecap="butt" transform="matrix(0.57939, -0.382832, 0.382832, 0.57939, 94.034979, 120.893527)" fill="none" stroke-linejoin="miter" d="M 0.00137615 1.998277 L 153.338128 2.00348 " stroke="#000000" stroke-width="4" stroke-opacity="1" stroke-miterlimit="4"/><path stroke-linecap="butt" transform="matrix(0.57939, -0.382832, 0.382832, 0.57939, 132.551109, 154.604943)" fill="none" stroke-linejoin="miter" d="M -0.00195087 2.001995 L 153.337902 2.002505 " stroke="#000000" stroke-width="4" stroke-opacity="1" stroke-miterlimit="4"/><path stroke-linecap="butt" transform="matrix(0.579338, -0.382911, 0.382911, 0.579338, 144.49603, 163.365996)" fill="none" stroke-linejoin="miter" d="M 0.00082042 1.998412 L 100.125365 2.003264 " stroke="#000000" stroke-width="4" stroke-opacity="1" stroke-miterlimit="4"/><path stroke-linecap="butt" transform="matrix(0.579338, -0.382911, 0.382911, 0.579338, 103.548288, 131.31135)" fill="none" stroke-linejoin="miter" d="M -0.000920379 1.997189 L 100.123624 2.002042 " stroke="#000000" stroke-width="4" stroke-opacity="1" stroke-miterlimit="4"/><g clip-path="url(#3328fc36aa)"><g clip-path="url(#a469c93e10)"><g clip-path="url(#92a3c4fab2)"><g clip-path="url(#1c356fe57a)"><path stroke-linecap="butt" transform="matrix(0.664002, 0.203357, -0.203357, 0.664002, 72.251172, 116.28094)" fill="none" stroke-linejoin="miter" d="M 11.617445 0.00166111 C 5.199429 0.00235476 0.00127903 4.524014 -0.000656453 10.107466 C -0.00259194 15.690919 5.201081 20.215447 11.619098 20.214754 C 18.031736 20.215707 23.235264 15.6924 23.2372 10.108948 C 23.233757 4.527143 18.035462 0.000967461 11.617445 0.00166111 Z M 11.617445 0.00166111 " stroke="#000000" stroke-width="4.32" stroke-opacity="1" stroke-miterlimit="4"/></g></g></g></g><g clip-path="url(#a288cf40e3)"><g clip-path="url(#efea587330)"><g clip-path="url(#a74fe4fc06)"><g clip-path="url(#359e0175b7)"><path stroke-linecap="butt" transform="matrix(0.664002, 0.203357, -0.203357, 0.664002, 90.253367, 124.984895)" fill="none" stroke-linejoin="miter" d="M 7.760123 -0.000707734 C 3.471932 0.00070721 0.00276807 3.022173 -0.00335161 6.747914 C -0.00244568 10.477387 3.471208 13.502154 7.759399 13.500739 C 12.042211 13.500971 15.516754 10.477859 15.515848 6.748386 C 15.516589 3.024292 12.042936 -0.000475487 7.760123 -0.000707734 Z M 7.760123 -0.000707734 " stroke="#000000" stroke-width="2.16" stroke-opacity="1" stroke-miterlimit="4"/></g></g></g></g><g clip-path="url(#c261eb595d)"><g clip-path="url(#16aede65b8)"><g clip-path="url(#0f306d73d2)"><g clip-path="url(#9ee9d5004a)"><path fill="#000000" d="M 78.667969 123.207031 C 78.316406 123.367188 77.941406 123.664062 77.550781 124.140625 L 76.519531 123.617188 C 76.722656 123.359375 76.976562 123.152344 77.28125 122.996094 C 77.320312 122.964844 77.359375 122.933594 77.363281 122.882812 C 77.382812 122.84375 77.382812 122.792969 77.355469 122.75 L 76.9375 121.949219 C 76.90625 121.90625 76.878906 121.867188 76.828125 121.867188 C 76.789062 121.847656 76.726562 121.867188 76.699219 121.878906 C 76.171875 122.179688 75.742188 122.582031 75.425781 123.066406 L 75.207031 122.957031 C 75.125 122.917969 75.015625 122.9375 74.964844 123.039062 L 74.726562 123.511719 C 74.683594 123.59375 74.703125 123.707031 74.800781 123.757812 L 75.019531 123.867188 C 74.84375 124.320312 74.8125 124.769531 74.925781 125.1875 C 75.039062 125.65625 75.335938 126.011719 75.792969 126.242188 C 76.25 126.472656 76.660156 126.5 77.042969 126.332031 C 77.394531 126.175781 77.742188 125.886719 78.121094 125.433594 L 79.191406 125.972656 C 78.9375 126.285156 78.59375 126.523438 78.148438 126.710938 C 78.105469 126.742188 78.066406 126.773438 78.046875 126.8125 C 78.023438 126.855469 78.023438 126.90625 78.054688 126.945312 L 78.398438 127.792969 C 78.429688 127.882812 78.539062 127.914062 78.628906 127.882812 C 79.324219 127.589844 79.882812 127.125 80.304688 126.535156 L 80.683594 126.726562 C 80.761719 126.765625 80.875 126.746094 80.925781 126.644531 L 81.164062 126.171875 C 81.207031 126.089844 81.1875 125.976562 81.085938 125.925781 L 80.710938 125.734375 C 80.910156 125.242188 80.9375 124.792969 80.835938 124.351562 C 80.722656 123.882812 80.4375 123.507812 79.980469 123.277344 C 79.492188 123.058594 79.0625 123.019531 78.667969 123.207031 Z M 79.398438 124.53125 C 79.515625 124.589844 79.597656 124.683594 79.625 124.824219 C 79.640625 124.9375 79.628906 125.058594 79.605469 125.203125 L 78.710938 124.753906 C 78.886719 124.609375 78.996094 124.535156 79.058594 124.515625 C 79.167969 124.441406 79.277344 124.472656 79.398438 124.53125 Z M 76.304688 124.980469 C 76.183594 124.921875 76.125 124.839844 76.097656 124.695312 C 76.070312 124.605469 76.070312 124.503906 76.105469 124.390625 L 76.9375 124.808594 C 76.796875 124.945312 76.695312 124.996094 76.632812 125.019531 C 76.511719 125.058594 76.421875 125.039062 76.304688 124.980469 Z M 76.304688 124.980469 " fill-opacity="1" fill-rule="nonzero"/></g></g></g></g><g clip-path="url(#43e6ec1711)"><g clip-path="url(#cb2ccc5111)"><g clip-path="url(#8c0c05f8b1)"><g clip-path="url(#d93ee2c324)"><path fill="#000000" d="M 94.03125 129.332031 C 93.679688 129.488281 93.300781 129.789062 92.914062 130.261719 L 91.878906 129.742188 C 92.085938 129.484375 92.339844 129.277344 92.644531 129.121094 C 92.683594 129.089844 92.722656 129.058594 92.726562 129.007812 C 92.746094 128.964844 92.746094 128.914062 92.71875 128.875 L 92.300781 128.070312 C 92.269531 128.03125 92.242188 127.988281 92.191406 127.988281 C 92.152344 127.96875 92.089844 127.988281 92.0625 128 C 91.535156 128.300781 91.105469 128.707031 90.789062 129.1875 L 90.570312 129.078125 C 90.488281 129.039062 90.378906 129.058594 90.328125 129.164062 L 90.089844 129.636719 C 90.046875 129.71875 90.066406 129.828125 90.164062 129.878906 L 90.382812 129.992188 C 90.203125 130.441406 90.175781 130.890625 90.289062 131.308594 C 90.402344 131.78125 90.695312 132.132812 91.152344 132.363281 C 91.609375 132.597656 92.019531 132.621094 92.40625 132.457031 C 92.757812 132.296875 93.105469 132.007812 93.484375 131.554688 L 94.554688 132.097656 C 94.300781 132.40625 93.957031 132.644531 93.511719 132.832031 C 93.46875 132.863281 93.429688 132.894531 93.410156 132.9375 C 93.386719 132.976562 93.386719 133.027344 93.417969 133.070312 L 93.761719 133.914062 C 93.792969 134.007812 93.902344 134.035156 93.992188 134.003906 C 94.6875 133.710938 95.246094 133.246094 95.667969 132.660156 L 96.046875 132.847656 C 96.125 132.890625 96.234375 132.867188 96.289062 132.765625 L 96.527344 132.292969 C 96.566406 132.210938 96.550781 132.097656 96.449219 132.046875 L 96.074219 131.855469 C 96.273438 131.363281 96.300781 130.914062 96.195312 130.476562 C 96.085938 130.007812 95.800781 129.628906 95.34375 129.398438 C 94.855469 129.179688 94.425781 129.144531 94.03125 129.332031 Z M 94.761719 130.652344 C 94.878906 130.714844 94.957031 130.804688 94.988281 130.949219 C 95.003906 131.058594 94.992188 131.183594 94.96875 131.324219 L 94.074219 130.875 C 94.25 130.730469 94.359375 130.65625 94.421875 130.636719 C 94.53125 130.5625 94.640625 130.59375 94.761719 130.652344 Z M 91.667969 131.101562 C 91.546875 131.042969 91.488281 130.960938 91.460938 130.816406 C 91.433594 130.726562 91.433594 130.625 91.464844 130.511719 L 92.300781 130.933594 C 92.160156 131.066406 92.058594 131.117188 91.996094 131.140625 C 91.875 131.183594 91.785156 131.164062 91.667969 131.101562 Z M 91.667969 131.101562 " fill-opacity="1" fill-rule="nonzero"/></g></g></g></g></g></g></svg>