<svg xmlns="http://www.w3.org/2000/svg" xmlns:xlink="http://www.w3.org/1999/xlink" width="1000" zoomAndPan="magnify" viewBox="0 0 750 749.999995" height="1000" preserveAspectRatio="xMidYMid meet" version="1.0"><defs><filter x="0%" y="0%" width="100%" height="100%" id="f9b26bd993"><feColorMatrix values="0 0 0 0 1 0 0 0 0 1 0 0 0 0 1 0 0 0 1 0" color-interpolation-filters="sRGB"/></filter><mask id="691b2ee7d5"><g filter="url(#f9b26bd993)"><rect x="-75" width="900" fill="#000000" y="-74.999999" height="899.999994" fill-opacity="0.08"/></g></mask><clipPath id="c42f4e4d92"><path d="M 0.960938 0.800781 L 352.078125 0.800781 L 352.078125 229.761719 L 0.960938 229.761719 Z M 0.960938 0.800781 " clip-rule="nonzero"/></clipPath><clipPath id="5cd6962fff"><path d="M 18 92 L 117 92 L 117 172 L 18 172 Z M 18 92 " clip-rule="nonzero"/></clipPath><clipPath id="5d965cf372"><path d="M 32.613281 92.8125 L 116.480469 150.554688 L 102 171.582031 L 18.132812 113.84375 Z M 32.613281 92.8125 " clip-rule="nonzero"/></clipPath><clipPath id="f6a517b0a6"><path d="M 0 0.71875 L 98.640625 0.71875 L 98.640625 79.679688 L 0 79.679688 Z M 0 0.71875 " clip-rule="nonzero"/></clipPath><clipPath id="075717afd9"><path d="M 14.613281 0.8125 L 98.480469 58.554688 L 84 79.582031 L 0.132812 21.84375 Z M 14.613281 0.8125 " clip-rule="nonzero"/></clipPath><clipPath id="42e8e23277"><rect x="0" width="99" y="0" height="80"/></clipPath><clipPath id="213b5c5720"><path d="M 80 134 L 180 134 L 180 214 L 80 214 Z M 80 134 " clip-rule="nonzero"/></clipPath><clipPath id="b330932405"><path d="M 95.253906 134.378906 L 179.121094 192.117188 L 164.640625 213.148438 L 80.777344 155.40625 Z M 95.253906 134.378906 " clip-rule="nonzero"/></clipPath><clipPath id="2d8f5f6eac"><path d="M 0.640625 0.238281 L 99.28125 0.238281 L 99.28125 79.199219 L 0.640625 79.199219 Z M 0.640625 0.238281 " clip-rule="nonzero"/></clipPath><clipPath id="dbfd85500e"><path d="M 15.253906 0.378906 L 99.121094 58.117188 L 84.640625 79.148438 L 0.777344 21.40625 Z M 15.253906 0.378906 " clip-rule="nonzero"/></clipPath><clipPath id="a32db69106"><rect x="0" width="100" y="0" height="80"/></clipPath><clipPath id="9db1bf40c0"><path d="M 296 99 L 319 99 L 319 123 L 296 123 Z M 296 99 " clip-rule="nonzero"/></clipPath><clipPath id="ee7899ba2c"><path d="M 296.328125 114.570312 L 306.636719 99.441406 L 318.855469 107.765625 L 308.550781 122.894531 Z M 296.328125 114.570312 " clip-rule="nonzero"/></clipPath><clipPath id="92cf77b05e"><path d="M 0.160156 0.441406 L 22.960938 0.441406 L 22.960938 23.960938 L 0.160156 23.960938 Z M 0.160156 0.441406 " clip-rule="nonzero"/></clipPath><clipPath id="86bb07977f"><path d="M 0.328125 15.570312 L 10.636719 0.441406 L 22.855469 8.765625 L 12.550781 23.894531 Z M 0.328125 15.570312 " clip-rule="nonzero"/></clipPath><clipPath id="26750e865d"><rect x="0" width="23" y="0" height="24"/></clipPath><clipPath id="339cc3afc7"><path d="M 147 91 L 323 91 L 323 212 L 147 212 Z M 147 91 " clip-rule="nonzero"/></clipPath><clipPath id="f56d211b65"><path d="M 147.277344 171.304688 L 301.363281 91.984375 L 322.015625 132.101562 L 167.925781 211.421875 Z M 147.277344 171.304688 " clip-rule="nonzero"/></clipPath><clipPath id="a0a0d7cdfa"><path d="M 0.121094 1 L 175 1 L 175 120.519531 L 0.121094 120.519531 Z M 0.121094 1 " clip-rule="nonzero"/></clipPath><clipPath id="1359c267f9"><path d="M 0.277344 80.304688 L 154.363281 0.984375 L 175.015625 41.101562 L 20.925781 120.421875 Z M 0.277344 80.304688 " clip-rule="nonzero"/></clipPath><clipPath id="8960249780"><rect x="0" width="176" y="0" height="121"/></clipPath><clipPath id="e3b5bbc2b2"><path d="M 316 116 L 336 116 L 336 132 L 316 132 Z M 316 116 " clip-rule="nonzero"/></clipPath><clipPath id="accc3ef2ec"><path d="M 316.570312 123.167969 L 330.800781 116.066406 L 335.132812 124.75 L 320.898438 131.847656 Z M 316.570312 123.167969 " clip-rule="nonzero"/></clipPath><clipPath id="5a048bbe1e"><path d="M 0.558594 0 L 19.28125 0 L 19.28125 16 L 0.558594 16 Z M 0.558594 0 " clip-rule="nonzero"/></clipPath><clipPath id="298ac3fcd6"><path d="M 0.570312 7.167969 L 14.800781 0.0664062 L 19.132812 8.75 L 4.898438 15.847656 Z M 0.570312 7.167969 " clip-rule="nonzero"/></clipPath><clipPath id="f4e8153092"><rect x="0" width="20" y="0" height="16"/></clipPath><clipPath id="ea33374422"><path d="M 323 111 L 340 111 L 340 127 L 323 127 Z M 323 111 " clip-rule="nonzero"/></clipPath><clipPath id="0bcb4d7bd0"><path d="M 323.210938 116.738281 L 327.164062 111.511719 L 339.890625 121.136719 L 335.9375 126.359375 Z M 323.210938 116.738281 " clip-rule="nonzero"/></clipPath><clipPath id="80f10a9caa"><path d="M 0.0390625 0.441406 L 17 0.441406 L 17 15.558594 L 0.0390625 15.558594 Z M 0.0390625 0.441406 " clip-rule="nonzero"/></clipPath><clipPath id="0b1edf6709"><path d="M 0.210938 5.738281 L 4.164062 0.511719 L 16.890625 10.136719 L 12.9375 15.359375 Z M 0.210938 5.738281 " clip-rule="nonzero"/></clipPath><clipPath id="d6ce81c758"><rect x="0" width="17" y="0" height="16"/></clipPath><clipPath id="38a8070cdb"><path d="M 308 104 L 332 104 L 332 128 L 308 128 Z M 308 104 " clip-rule="nonzero"/></clipPath><clipPath id="7f9c14b197"><path d="M 308.15625 116.679688 L 317.082031 104.875 L 331.308594 115.632812 L 322.382812 127.4375 Z M 308.15625 116.679688 " clip-rule="nonzero"/></clipPath><clipPath id="03ea279562"><path d="M 0 0.71875 L 23.441406 0.71875 L 23.441406 23.519531 L 0 23.519531 Z M 0 0.71875 " clip-rule="nonzero"/></clipPath><clipPath id="f7e209c16c"><path d="M 0.15625 12.679688 L 9.082031 0.875 L 23.308594 11.632812 L 14.382812 23.4375 Z M 0.15625 12.679688 " clip-rule="nonzero"/></clipPath><clipPath id="a63af0edb3"><rect x="0" width="24" y="0" height="24"/></clipPath><clipPath id="b8a81c2374"><path d="M 12 103 L 29 103 L 29 119 L 12 119 Z M 12 103 " clip-rule="nonzero"/></clipPath><clipPath id="2e9bb91a3f"><path d="M 12.121094 109.050781 L 16.03125 103.542969 L 28.707031 112.546875 L 24.796875 118.050781 Z M 12.121094 109.050781 " clip-rule="nonzero"/></clipPath><clipPath id="2bfbcf088f"><path d="M 0 0.519531 L 16.800781 0.519531 L 16.800781 15.160156 L 0 15.160156 Z M 0 0.519531 " clip-rule="nonzero"/></clipPath><clipPath id="61426fb329"><path d="M 0.121094 6.050781 L 4.03125 0.542969 L 16.707031 9.546875 L 12.796875 15.050781 Z M 0.121094 6.050781 " clip-rule="nonzero"/></clipPath><clipPath id="08063cfe88"><rect x="0" width="17" y="0" height="16"/></clipPath><clipPath id="cbaa497d96"><path d="M 19 100 L 36 100 L 36 116 L 19 116 Z M 19 100 " clip-rule="nonzero"/></clipPath><clipPath id="f97b7d091a"><path d="M 19.097656 106.136719 L 23.007812 100.628906 L 35.683594 109.632812 L 31.773438 115.136719 Z M 19.097656 106.136719 " clip-rule="nonzero"/></clipPath><clipPath id="f141060218"><path d="M 0 0.398438 L 16.761719 0.398438 L 16.761719 15.28125 L 0 15.28125 Z M 0 0.398438 " clip-rule="nonzero"/></clipPath><clipPath id="d77ffe5cfe"><path d="M 0.0976562 6.136719 L 4.007812 0.628906 L 16.683594 9.632812 L 12.773438 15.136719 Z M 0.0976562 6.136719 " clip-rule="nonzero"/></clipPath><clipPath id="4525732bd6"><rect x="0" width="17" y="0" height="16"/></clipPath><clipPath id="a276f405cb"><path d="M 0.960938 90 L 184 90 L 184 229.761719 L 0.960938 229.761719 Z M 0.960938 90 " clip-rule="nonzero"/></clipPath><clipPath id="da4ed3e429"><path d="M 145 103 L 352.078125 103 L 352.078125 229.761719 L 145 229.761719 Z M 145 103 " clip-rule="nonzero"/></clipPath><clipPath id="c25f78a5a0"><path d="M 0.960938 0.800781 L 208 0.800781 L 208 127 L 0.960938 127 Z M 0.960938 0.800781 " clip-rule="nonzero"/></clipPath><clipPath id="ad27986d8e"><path d="M 168 0.800781 L 352.078125 0.800781 L 352.078125 141 L 168 141 Z M 168 0.800781 " clip-rule="nonzero"/></clipPath><clipPath id="b59c7707b1"><rect x="0" width="353" y="0" height="230"/></clipPath><clipPath id="67b430862e"><rect x="0" width="353" y="0" height="230"/></clipPath><clipPath id="73093cdddd"><path d="M 515 358 L 542 358 L 542 389 L 515 389 Z M 515 358 " clip-rule="nonzero"/></clipPath><clipPath id="069df2762d"><path d="M 515.46875 366.191406 L 530.417969 358.691406 L 541.679688 381.128906 L 526.726562 388.632812 Z M 515.46875 366.191406 " clip-rule="nonzero"/></clipPath><clipPath id="e0ad8eb48f"><path d="M 0.28125 0.558594 L 26.679688 0.558594 L 26.679688 30.800781 L 0.28125 30.800781 Z M 0.28125 0.558594 " clip-rule="nonzero"/></clipPath><clipPath id="db1fdc30a2"><path d="M 0.46875 8.191406 L 15.417969 0.691406 L 26.679688 23.128906 L 11.726562 30.632812 Z M 0.46875 8.191406 " clip-rule="nonzero"/></clipPath><clipPath id="3e509f37ed"><rect x="0" width="27" y="0" height="31"/></clipPath><clipPath id="82f0fe47e2"><path d="M 346 367 L 531 367 L 531 475 L 346 475 Z M 346 367 " clip-rule="nonzero"/></clipPath><clipPath id="bd9fd65bf0"><path d="M 346.324219 455.015625 L 520.289062 367.808594 L 530.257812 387.695312 L 356.292969 474.898438 Z M 346.324219 455.015625 " clip-rule="nonzero"/></clipPath><clipPath id="0a35fab200"><path d="M 0.320312 0.679688 L 184.398438 0.679688 L 184.398438 107.960938 L 0.320312 107.960938 Z M 0.320312 0.679688 " clip-rule="nonzero"/></clipPath><clipPath id="e6c1ef8e44"><path d="M 0.324219 88.015625 L 174.289062 0.808594 L 184.257812 20.695312 L 10.292969 107.898438 Z M 0.324219 88.015625 " clip-rule="nonzero"/></clipPath><clipPath id="4b744c3d8e"><rect x="0" width="185" y="0" height="108"/></clipPath><clipPath id="188cfdb74d"><path d="M 207 362 L 366 362 L 366 477 L 207 477 Z M 207 362 " clip-rule="nonzero"/></clipPath><clipPath id="492c860e2c"><path d="M 217.398438 362.226562 L 365.34375 461.363281 L 355.125 476.613281 L 207.179688 377.476562 Z M 217.398438 362.226562 " clip-rule="nonzero"/></clipPath><clipPath id="984ae3ce19"><path d="M 0.121094 0.160156 L 158.519531 0.160156 L 158.519531 114.640625 L 0.121094 114.640625 Z M 0.121094 0.160156 " clip-rule="nonzero"/></clipPath><clipPath id="09358466e2"><path d="M 10.398438 0.226562 L 158.34375 99.363281 L 148.125 114.613281 L 0.179688 15.476562 Z M 10.398438 0.226562 " clip-rule="nonzero"/></clipPath><clipPath id="65b61ba07e"><rect x="0" width="159" y="0" height="115"/></clipPath><clipPath id="3450136578"><path d="M 408 304 L 507 304 L 507 407 L 408 407 Z M 408 304 " clip-rule="nonzero"/></clipPath><clipPath id="78b581bffe"><path d="M 451.898438 304.535156 L 506.5625 340.910156 L 463.132812 406.175781 L 408.46875 369.804688 Z M 451.898438 304.535156 " clip-rule="nonzero"/></clipPath><clipPath id="93058d82de"><path d="M 0.238281 0.320312 L 98.640625 0.320312 L 98.640625 102.320312 L 0.238281 102.320312 Z M 0.238281 0.320312 " clip-rule="nonzero"/></clipPath><clipPath id="ad4ba09ed5"><path d="M 43.898438 0.535156 L 98.5625 36.910156 L 55.132812 102.175781 L 0.46875 65.804688 Z M 43.898438 0.535156 " clip-rule="nonzero"/></clipPath><clipPath id="8d40da2389"><rect x="0" width="99" y="0" height="103"/></clipPath><clipPath id="f2f608db5b"><path d="M 324 325 L 511 325 L 511 464 L 324 464 Z M 324 325 " clip-rule="nonzero"/></clipPath><clipPath id="eb7fab43e0"><path d="M 480.582031 325.671875 L 510.28125 384.230469 L 353.800781 463.589844 L 324.101562 405.03125 Z M 480.582031 325.671875 " clip-rule="nonzero"/></clipPath><clipPath id="984782e4bf"><path d="M 0 0.441406 L 186.480469 0.441406 L 186.480469 138.679688 L 0 138.679688 Z M 0 0.441406 " clip-rule="nonzero"/></clipPath><clipPath id="e27b2c41e7"><path d="M 156.582031 0.671875 L 186.28125 59.230469 L 29.800781 138.589844 L 0.101562 80.03125 Z M 156.582031 0.671875 " clip-rule="nonzero"/></clipPath><clipPath id="07651f76ef"><rect x="0" width="187" y="0" height="139"/></clipPath><clipPath id="d6ae52eb40"><path d="M 306 268 L 454 268 L 454 444 L 306 444 Z M 306 268 " clip-rule="nonzero"/></clipPath><clipPath id="167ae8c4b3"><path d="M 399.402344 268.445312 L 453.878906 305.097656 L 360.746094 443.523438 L 306.269531 406.871094 Z M 399.402344 268.445312 " clip-rule="nonzero"/></clipPath><clipPath id="261be78c45"><path d="M 0.238281 0.320312 L 148 0.320312 L 148 175.761719 L 0.238281 175.761719 Z M 0.238281 0.320312 " clip-rule="nonzero"/></clipPath><clipPath id="2b5244c90d"><path d="M 93.402344 0.445312 L 147.878906 37.097656 L 54.746094 175.523438 L 0.269531 138.871094 Z M 93.402344 0.445312 " clip-rule="nonzero"/></clipPath><clipPath id="640ad15cee"><rect x="0" width="148" y="0" height="176"/></clipPath><clipPath id="3a5c47fa04"><path d="M 252 266 L 431 266 L 431 402 L 252 402 Z M 252 266 " clip-rule="nonzero"/></clipPath><clipPath id="c146860fb7"><path d="M 400.269531 266.738281 L 430.566406 324.988281 L 282.550781 401.972656 L 252.253906 343.722656 Z M 400.269531 266.738281 " clip-rule="nonzero"/></clipPath><clipPath id="041df218b7"><path d="M 0.238281 0.640625 L 178.800781 0.640625 L 178.800781 136 L 0.238281 136 Z M 0.238281 0.640625 " clip-rule="nonzero"/></clipPath><clipPath id="af6c973470"><path d="M 148.269531 0.738281 L 178.566406 58.988281 L 30.550781 135.972656 L 0.253906 77.722656 Z M 148.269531 0.738281 " clip-rule="nonzero"/></clipPath><clipPath id="e9f777bd31"><rect x="0" width="179" y="0" height="136"/></clipPath><clipPath id="ce23663a50"><path d="M 255 341 L 392 341 L 392 465 L 255 465 Z M 255 341 " clip-rule="nonzero"/></clipPath><clipPath id="97d01e6cdc"><path d="M 391.695312 410.488281 L 354.085938 464.308594 L 255.429688 395.371094 L 293.039062 341.550781 Z M 391.695312 410.488281 " clip-rule="nonzero"/></clipPath><clipPath id="e5a590d444"><path d="M 0.359375 0.519531 L 136.921875 0.519531 L 136.921875 123.398438 L 0.359375 123.398438 Z M 0.359375 0.519531 " clip-rule="nonzero"/></clipPath><clipPath id="55f4076a95"><path d="M 136.695312 69.488281 L 99.085938 123.308594 L 0.429688 54.371094 L 38.039062 0.550781 Z M 136.695312 69.488281 " clip-rule="nonzero"/></clipPath><clipPath id="5ec9572ed6"><rect x="0" width="137" y="0" height="124"/></clipPath><clipPath id="c74caf7d32"><path d="M 216 354 L 287 354 L 287 409 L 216 409 Z M 216 354 " clip-rule="nonzero"/></clipPath><clipPath id="514b644c77"><path d="M 286.386719 392.765625 L 276.058594 408.757812 L 216.21875 370.113281 L 226.546875 354.121094 Z M 286.386719 392.765625 " clip-rule="nonzero"/></clipPath><clipPath id="b4af1b26f4"><path d="M 0 0 L 70.558594 0 L 70.558594 54.960938 L 0 54.960938 Z M 0 0 " clip-rule="nonzero"/></clipPath><clipPath id="88697548db"><path d="M 70.386719 38.765625 L 60.058594 54.757812 L 0.21875 16.113281 L 10.546875 0.121094 Z M 70.386719 38.765625 " clip-rule="nonzero"/></clipPath><clipPath id="ba02cb70ef"><rect x="0" width="71" y="0" height="55"/></clipPath><clipPath id="38baaaa2fc"><path d="M 226 325 L 302 325 L 302 381 L 226 381 Z M 226 325 " clip-rule="nonzero"/></clipPath><clipPath id="8806d58c78"><path d="M 290.023438 325.25 L 301.667969 348.570312 L 237.945312 380.394531 L 226.296875 357.078125 Z M 290.023438 325.25 " clip-rule="nonzero"/></clipPath><clipPath id="be15f330c7"><path d="M 0.078125 0.199219 L 75.679688 0.199219 L 75.679688 55.398438 L 0.078125 55.398438 Z M 0.078125 0.199219 " clip-rule="nonzero"/></clipPath><clipPath id="dc6a990f59"><path d="M 64.023438 0.25 L 75.667969 23.570312 L 11.945312 55.394531 L 0.296875 32.078125 Z M 64.023438 0.25 " clip-rule="nonzero"/></clipPath><clipPath id="2cb9f14821"><rect x="0" width="76" y="0" height="56"/></clipPath><clipPath id="adb68e5742"><path d="M 211 359 L 231 359 L 231 375 L 211 375 Z M 211 359 " clip-rule="nonzero"/></clipPath><clipPath id="0c3ae1072d"><path d="M 215.367188 359.578125 L 230.71875 368.101562 L 227.058594 374.695312 L 211.707031 366.171875 Z M 215.367188 359.578125 " clip-rule="nonzero"/></clipPath><clipPath id="bae991e411"><path d="M 0.679688 0.519531 L 19.878906 0.519531 L 19.878906 15.878906 L 0.679688 15.878906 Z M 0.679688 0.519531 " clip-rule="nonzero"/></clipPath><clipPath id="6026d388c6"><path d="M 4.367188 0.578125 L 19.71875 9.101562 L 16.058594 15.695312 L 0.707031 7.171875 Z M 4.367188 0.578125 " clip-rule="nonzero"/></clipPath><clipPath id="4a0ab43e4c"><rect x="0" width="20" y="0" height="16"/></clipPath><clipPath id="1063677ddd"><path d="M 216 357 L 236 357 L 236 373 L 216 373 Z M 216 357 " clip-rule="nonzero"/></clipPath><clipPath id="9f14d345d6"><path d="M 220.347656 357.632812 L 235.699219 366.160156 L 232.035156 372.753906 L 216.683594 364.230469 Z M 220.347656 357.632812 " clip-rule="nonzero"/></clipPath><clipPath id="6bc60b6e33"><path d="M 0.480469 0.601562 L 19.921875 0.601562 L 19.921875 15.960938 L 0.480469 15.960938 Z M 0.480469 0.601562 " clip-rule="nonzero"/></clipPath><clipPath id="a175b3167f"><path d="M 4.347656 0.632812 L 19.699219 9.160156 L 16.035156 15.753906 L 0.683594 7.230469 Z M 4.347656 0.632812 " clip-rule="nonzero"/></clipPath><clipPath id="586a3fff64"><rect x="0" width="20" y="0" height="16"/></clipPath><clipPath id="df2cbb6544"><path d="M 496 356 L 538 356 L 538 387 L 496 387 Z M 496 356 " clip-rule="nonzero"/></clipPath><clipPath id="e1df59f058"><path d="M 496.878906 374.023438 L 531.382812 356.574219 L 537.824219 369.316406 L 503.320312 386.765625 Z M 496.878906 374.023438 " clip-rule="nonzero"/></clipPath><clipPath id="9967a6d58e"><path d="M 0.800781 0.398438 L 41.839844 0.398438 L 41.839844 30.878906 L 0.800781 30.878906 Z M 0.800781 0.398438 " clip-rule="nonzero"/></clipPath><clipPath id="5d68f3f275"><path d="M 0.878906 18.023438 L 35.382812 0.574219 L 41.824219 13.316406 L 7.320312 30.765625 Z M 0.878906 18.023438 " clip-rule="nonzero"/></clipPath><clipPath id="1e9c554f57"><rect x="0" width="42" y="0" height="31"/></clipPath><clipPath id="a49045d751"><path d="M 493 338 L 534 338 L 534 373 L 493 373 Z M 493 338 " clip-rule="nonzero"/></clipPath><clipPath id="b98ac5a642"><path d="M 502.046875 338.640625 L 533.890625 360.570312 L 525.789062 372.332031 L 493.945312 350.398438 Z M 502.046875 338.640625 " clip-rule="nonzero"/></clipPath><clipPath id="7eb78c0cb5"><path d="M 0.921875 0.640625 L 41 0.640625 L 41 34.480469 L 0.921875 34.480469 Z M 0.921875 0.640625 " clip-rule="nonzero"/></clipPath><clipPath id="c02a4e090d"><path d="M 9.046875 0.640625 L 40.890625 22.570312 L 32.789062 34.332031 L 0.945312 12.398438 Z M 9.046875 0.640625 " clip-rule="nonzero"/></clipPath><clipPath id="554793d99d"><rect x="0" width="41" y="0" height="35"/></clipPath><clipPath id="01bedf6eda"><path d="M 530 359 L 544 359 L 544 372 L 530 372 Z M 530 359 " clip-rule="nonzero"/></clipPath><clipPath id="e7fabb4338"><path d="M 536.136719 359.191406 L 543.378906 365.632812 L 537.828125 371.875 L 530.585938 365.4375 Z M 536.136719 359.191406 " clip-rule="nonzero"/></clipPath><clipPath id="f52a6c4dca"><path d="M 0.398438 0.0390625 L 13.601562 0.0390625 L 13.601562 13 L 0.398438 13 Z M 0.398438 0.0390625 " clip-rule="nonzero"/></clipPath><clipPath id="ce4db5cd4c"><path d="M 6.136719 0.191406 L 13.378906 6.632812 L 7.828125 12.875 L 0.585938 6.4375 Z M 6.136719 0.191406 " clip-rule="nonzero"/></clipPath><clipPath id="6d4268a10a"><rect x="0" width="14" y="0" height="13"/></clipPath><clipPath id="cf0263f0b7"><path d="M 246 335 L 323 335 L 323 391 L 246 391 Z M 246 335 " clip-rule="nonzero"/></clipPath><clipPath id="57b8a7c4f4"><path d="M 310.4375 335.058594 L 322.085938 358.375 L 258.359375 390.203125 L 246.714844 366.882812 Z M 310.4375 335.058594 " clip-rule="nonzero"/></clipPath><clipPath id="28be4d5d82"><path d="M 0.480469 0.0390625 L 76.320312 0.0390625 L 76.320312 55.238281 L 0.480469 55.238281 Z M 0.480469 0.0390625 " clip-rule="nonzero"/></clipPath><clipPath id="90ba5f4f72"><path d="M 64.4375 0.0585938 L 76.085938 23.375 L 12.359375 55.203125 L 0.714844 31.882812 Z M 64.4375 0.0585938 " clip-rule="nonzero"/></clipPath><clipPath id="bdbe9874dd"><rect x="0" width="77" y="0" height="56"/></clipPath><clipPath id="5fe76d5ef3"><path d="M 479 342 L 520 342 L 520 377 L 479 377 Z M 479 342 " clip-rule="nonzero"/></clipPath><clipPath id="dce0731986"><path d="M 487.828125 342.660156 L 519.671875 364.59375 L 511.574219 376.351562 L 479.730469 354.417969 Z M 487.828125 342.660156 " clip-rule="nonzero"/></clipPath><clipPath id="bfd3cc0434"><path d="M 0.519531 0.480469 L 40.839844 0.480469 L 40.839844 34.558594 L 0.519531 34.558594 Z M 0.519531 0.480469 " clip-rule="nonzero"/></clipPath><clipPath id="35548eb876"><path d="M 8.828125 0.660156 L 40.671875 22.59375 L 32.574219 34.351562 L 0.730469 12.417969 Z M 8.828125 0.660156 " clip-rule="nonzero"/></clipPath><clipPath id="a4b933efdc"><rect x="0" width="41" y="0" height="35"/></clipPath><clipPath id="09bb82ea8e"><path d="M 287 402 L 298 402 L 298 413 L 287 413 Z M 287 402 " clip-rule="nonzero"/></clipPath><clipPath id="037deccbe0"><path d="M 287.59375 402.363281 L 297.414062 403.128906 L 296.648438 412.949219 L 286.828125 412.183594 Z M 287.59375 402.363281 " clip-rule="nonzero"/></clipPath><clipPath id="d3c257f529"><path d="M 292.503906 402.746094 C 289.792969 402.535156 287.421875 404.5625 287.210938 407.273438 C 287 409.984375 289.027344 412.355469 291.738281 412.566406 C 294.449219 412.777344 296.820312 410.75 297.03125 408.039062 C 297.242188 405.328125 295.21875 402.957031 292.503906 402.746094 Z M 292.503906 402.746094 " clip-rule="nonzero"/></clipPath><clipPath id="7ef30580ba"><path d="M 0 0.480469 L 10.359375 0.480469 L 10.359375 10.800781 L 0 10.800781 Z M 0 0.480469 " clip-rule="nonzero"/></clipPath><clipPath id="2a02da0c10"><path d="M 0.59375 0.363281 L 10.414062 1.128906 L 9.648438 10.949219 L -0.171875 10.183594 Z M 0.59375 0.363281 " clip-rule="nonzero"/></clipPath><clipPath id="855eb5f020"><path d="M 5.503906 0.746094 C 2.792969 0.535156 0.421875 2.5625 0.210938 5.273438 C 0 7.984375 2.027344 10.355469 4.738281 10.566406 C 7.449219 10.777344 9.820312 8.75 10.03125 6.039062 C 10.242188 3.328125 8.21875 0.957031 5.503906 0.746094 Z M 5.503906 0.746094 " clip-rule="nonzero"/></clipPath><clipPath id="8b0a79f80e"><rect x="0" width="11" y="0" height="11"/></clipPath><clipPath id="f8041326dd"><path d="M 287 402 L 298 402 L 298 413 L 287 413 Z M 287 402 " clip-rule="nonzero"/></clipPath><clipPath id="015da9e504"><path d="M 287.59375 402.363281 L 297.316406 403.121094 L 296.558594 412.839844 L 286.835938 412.082031 Z M 287.59375 402.363281 " clip-rule="nonzero"/></clipPath><clipPath id="8ed8eaca02"><path d="M 287.59375 402.363281 L 297.410156 403.128906 L 296.644531 412.941406 L 286.828125 412.175781 Z M 287.59375 402.363281 " clip-rule="nonzero"/></clipPath><clipPath id="030f7dc49e"><path d="M 292.5 402.746094 C 289.792969 402.535156 287.421875 404.558594 287.210938 407.269531 C 287 409.980469 289.027344 412.347656 291.734375 412.558594 C 294.445312 412.769531 296.816406 410.746094 297.027344 408.035156 C 297.238281 405.324219 295.210938 402.957031 292.5 402.746094 Z M 292.5 402.746094 " clip-rule="nonzero"/></clipPath><mask id="39ab7b500d"><g filter="url(#f9b26bd993)"><rect x="-75" width="900" fill="#000000" y="-74.999999" height="899.999994" fill-opacity="0.13"/></g></mask><clipPath id="e694b69f8f"><path d="M 3 4 L 61 4 L 61 46 L 3 46 Z M 3 4 " clip-rule="nonzero"/></clipPath><clipPath id="f5c3d89350"><path d="M 7.378906 0.796875 L 63.566406 10.125 L 56.988281 49.753906 L 0.796875 40.421875 Z M 7.378906 0.796875 " clip-rule="nonzero"/></clipPath><clipPath id="79368f52f6"><path d="M 35.414062 5.453125 C 19.929688 2.878906 5.902344 9.667969 4.085938 20.609375 C 2.269531 31.550781 13.347656 42.507812 28.832031 45.078125 C 44.316406 47.648438 58.34375 40.863281 60.160156 29.921875 C 61.976562 18.976562 50.898438 8.023438 35.414062 5.453125 Z M 35.414062 5.453125 " clip-rule="nonzero"/></clipPath><clipPath id="62814dc403"><path d="M 0 0 L 58 0 L 58 42 L 0 42 Z M 0 0 " clip-rule="nonzero"/></clipPath><clipPath id="9c890d8ca4"><path d="M 4.378906 -3.203125 L 60.566406 6.125 L 53.988281 45.753906 L -2.203125 36.421875 Z M 4.378906 -3.203125 " clip-rule="nonzero"/></clipPath><clipPath id="9779998cdc"><path d="M 32.414062 1.453125 C 16.929688 -1.121094 2.902344 5.667969 1.085938 16.609375 C -0.730469 27.550781 10.347656 38.507812 25.832031 41.078125 C 41.316406 43.648438 55.34375 36.863281 57.160156 25.921875 C 58.976562 14.976562 47.898438 4.023438 32.414062 1.453125 Z M 32.414062 1.453125 " clip-rule="nonzero"/></clipPath><clipPath id="ddbbaf5da1"><rect x="0" width="58" y="0" height="42"/></clipPath><clipPath id="8bb50c3099"><rect x="0" width="64" y="0" height="50"/></clipPath><clipPath id="e3a73c0347"><path d="M 323 269 L 381 269 L 381 311 L 323 311 Z M 323 269 " clip-rule="nonzero"/></clipPath><clipPath id="0c87aef73b"><path d="M 320.101562 304.226562 L 328.214844 264.976562 L 384.023438 276.511719 L 375.910156 315.761719 Z M 320.101562 304.226562 " clip-rule="nonzero"/></clipPath><clipPath id="00d4399e1a"><path d="M 324.160156 284.601562 C 321.917969 295.441406 332.5625 306.804688 347.929688 309.980469 C 363.300781 313.15625 377.578125 306.945312 379.816406 296.105469 C 382.058594 285.269531 371.414062 273.90625 356.042969 270.730469 C 340.675781 267.554688 326.398438 273.765625 324.160156 284.601562 Z M 324.160156 284.601562 " clip-rule="nonzero"/></clipPath><clipPath id="379cc73003"><path d="M 0 0 L 58 0 L 58 42 L 0 42 Z M 0 0 " clip-rule="nonzero"/></clipPath><clipPath id="50ed8ad2c1"><path d="M -2.898438 35.226562 L 5.214844 -4.023438 L 61.023438 7.511719 L 52.910156 46.761719 Z M -2.898438 35.226562 " clip-rule="nonzero"/></clipPath><clipPath id="b9555cd75b"><path d="M 1.160156 15.601562 C -1.082031 26.441406 9.5625 37.804688 24.929688 40.980469 C 40.300781 44.15625 54.578125 37.945312 56.816406 27.105469 C 59.058594 16.269531 48.414062 4.90625 33.042969 1.730469 C 17.675781 -1.445312 3.398438 4.765625 1.160156 15.601562 Z M 1.160156 15.601562 " clip-rule="nonzero"/></clipPath><clipPath id="520ded8e18"><rect x="0" width="58" y="0" height="42"/></clipPath><clipPath id="b720fecdd7"><path d="M 323 269 L 381 269 L 381 311 L 323 311 Z M 323 269 " clip-rule="nonzero"/></clipPath><clipPath id="d7d8bb5a86"><path d="M 320.101562 304.226562 L 328.148438 265.300781 L 383.96875 276.839844 L 375.921875 315.765625 Z M 320.101562 304.226562 " clip-rule="nonzero"/></clipPath><clipPath id="0f2e0d7aa9"><path d="M 320.101562 304.226562 L 328.222656 264.941406 L 384.265625 276.527344 L 376.144531 315.808594 Z M 320.101562 304.226562 " clip-rule="nonzero"/></clipPath><clipPath id="4129e0fa63"><path d="M 324.160156 284.601562 C 321.917969 295.441406 332.558594 306.800781 347.925781 309.976562 C 363.292969 313.152344 377.566406 306.941406 379.804688 296.105469 C 382.046875 285.269531 371.40625 273.910156 356.039062 270.734375 C 340.671875 267.558594 326.398438 273.765625 324.160156 284.601562 Z M 324.160156 284.601562 " clip-rule="nonzero"/></clipPath><clipPath id="dd79538708"><path d="M 325 263 L 382 263 L 382 305 L 325 305 Z M 325 263 " clip-rule="nonzero"/></clipPath><clipPath id="13e93471cc"><path d="M 321.433594 298.296875 L 329.546875 259.046875 L 385.355469 270.582031 L 377.242188 309.832031 Z M 321.433594 298.296875 " clip-rule="nonzero"/></clipPath><clipPath id="44ccfb0260"><path d="M 325.488281 278.671875 C 323.25 289.511719 333.894531 300.871094 349.261719 304.050781 C 364.632812 307.226562 378.90625 301.015625 381.148438 290.175781 C 383.386719 279.335938 372.746094 267.976562 357.375 264.800781 C 342.007812 261.621094 327.730469 267.832031 325.488281 278.671875 Z M 325.488281 278.671875 " clip-rule="nonzero"/></clipPath><clipPath id="f6b3192afb"><path d="M 0 0 L 57 0 L 57 42 L 0 42 Z M 0 0 " clip-rule="nonzero"/></clipPath><clipPath id="85de29756c"><path d="M -3.566406 35.296875 L 4.546875 -3.953125 L 60.355469 7.582031 L 52.242188 46.832031 Z M -3.566406 35.296875 " clip-rule="nonzero"/></clipPath><clipPath id="818c66c7ee"><path d="M 0.488281 15.671875 C -1.75 26.511719 8.894531 37.871094 24.261719 41.050781 C 39.632812 44.226562 53.90625 38.015625 56.148438 27.175781 C 58.386719 16.335938 47.746094 4.976562 32.375 1.800781 C 17.007812 -1.378906 2.730469 4.832031 0.488281 15.671875 Z M 0.488281 15.671875 " clip-rule="nonzero"/></clipPath><clipPath id="8fb981172b"><rect x="0" width="57" y="0" height="42"/></clipPath><clipPath id="be7abb34d0"><path d="M 325 263 L 382 263 L 382 305 L 325 305 Z M 325 263 " clip-rule="nonzero"/></clipPath><clipPath id="a3cc8007a8"><path d="M 321.433594 298.296875 L 329.480469 259.371094 L 385.300781 270.90625 L 377.253906 309.835938 Z M 321.433594 298.296875 " clip-rule="nonzero"/></clipPath><clipPath id="870143a66c"><path d="M 321.433594 298.292969 L 329.554688 259.011719 L 385.597656 270.59375 L 377.476562 309.878906 Z M 321.433594 298.292969 " clip-rule="nonzero"/></clipPath><clipPath id="3658e19f85"><path d="M 325.488281 278.671875 C 323.25 289.507812 333.890625 300.867188 349.257812 304.046875 C 364.625 307.222656 378.898438 301.011719 381.136719 290.175781 C 383.378906 279.339844 372.734375 267.980469 357.371094 264.800781 C 342.003906 261.625 327.730469 267.835938 325.488281 278.671875 Z M 325.488281 278.671875 " clip-rule="nonzero"/></clipPath><clipPath id="1fe5197e16"><path d="M 332 270 L 374 270 L 374 301 L 332 301 Z M 332 270 " clip-rule="nonzero"/></clipPath><clipPath id="fe89e3de38"><path d="M 329.421875 295.265625 L 335.375 266.457031 L 376.34375 274.921875 L 370.386719 303.734375 Z M 329.421875 295.265625 " clip-rule="nonzero"/></clipPath><clipPath id="a2830f8d6c"><path d="M 332.398438 280.859375 C 330.753906 288.816406 338.566406 297.15625 349.847656 299.488281 C 361.132812 301.820312 371.609375 297.261719 373.253906 289.304688 C 374.898438 281.351562 367.085938 273.007812 355.804688 270.675781 C 344.523438 268.34375 334.042969 272.90625 332.398438 280.859375 Z M 332.398438 280.859375 " clip-rule="nonzero"/></clipPath><clipPath id="6b7a6842fe"><path d="M 0 0 L 42 0 L 42 31 L 0 31 Z M 0 0 " clip-rule="nonzero"/></clipPath><clipPath id="6594ab6f1f"><path d="M -2.578125 25.265625 L 3.375 -3.542969 L 44.34375 4.921875 L 38.386719 33.734375 Z M -2.578125 25.265625 " clip-rule="nonzero"/></clipPath><clipPath id="6b853f39c8"><path d="M 0.398438 10.859375 C -1.246094 18.816406 6.566406 27.15625 17.847656 29.488281 C 29.132812 31.820312 39.609375 27.261719 41.253906 19.304688 C 42.898438 11.351562 35.085938 3.007812 23.804688 0.675781 C 12.523438 -1.65625 2.042969 2.90625 0.398438 10.859375 Z M 0.398438 10.859375 " clip-rule="nonzero"/></clipPath><clipPath id="6f02be4110"><rect x="0" width="42" y="0" height="31"/></clipPath><clipPath id="cf4990b908"><path d="M 332 270 L 374 270 L 374 301 L 332 301 Z M 332 270 " clip-rule="nonzero"/></clipPath><clipPath id="3b940bfcf7"><path d="M 329.421875 295.265625 L 335.339844 266.621094 L 376.472656 275.125 L 370.550781 303.769531 Z M 329.421875 295.265625 " clip-rule="nonzero"/></clipPath><clipPath id="eae0792ef4"><path d="M 329.425781 295.269531 L 335.382812 266.433594 L 376.519531 274.9375 L 370.5625 303.769531 Z M 329.425781 295.269531 " clip-rule="nonzero"/></clipPath><clipPath id="2ed874f754"><path d="M 332.402344 280.867188 C 330.757812 288.820312 338.570312 297.160156 349.847656 299.488281 C 361.128906 301.820312 371.605469 297.261719 373.25 289.308594 C 374.894531 281.355469 367.082031 273.015625 355.800781 270.683594 C 344.523438 268.351562 334.046875 272.910156 332.402344 280.867188 Z M 332.402344 280.867188 " clip-rule="nonzero"/></clipPath><clipPath id="e3a4f9cab2"><path d="M 335 271 L 373 271 L 373 300 L 335 300 Z M 335 271 " clip-rule="nonzero"/></clipPath><clipPath id="16bd050897"><path d="M 332.925781 295.046875 L 338.398438 268.574219 L 375.316406 276.203125 L 369.84375 302.675781 Z M 332.925781 295.046875 " clip-rule="nonzero"/></clipPath><clipPath id="9e53b5188a"><path d="M 335.660156 281.808594 C 334.152344 289.121094 341.167969 296.75 351.335938 298.851562 C 361.5 300.953125 370.96875 296.730469 372.480469 289.417969 C 373.988281 282.109375 366.972656 274.480469 356.804688 272.378906 C 346.640625 270.277344 337.171875 274.5 335.660156 281.808594 Z M 335.660156 281.808594 " clip-rule="nonzero"/></clipPath><clipPath id="adc0fb5b27"><path d="M 0 0 L 38 0 L 38 29 L 0 29 Z M 0 0 " clip-rule="nonzero"/></clipPath><clipPath id="bbe1e0204c"><path d="M -2.074219 24.046875 L 3.398438 -2.425781 L 40.316406 5.203125 L 34.84375 31.675781 Z M -2.074219 24.046875 " clip-rule="nonzero"/></clipPath><clipPath id="4ef1513fc9"><path d="M 0.660156 10.808594 C -0.847656 18.121094 6.167969 25.75 16.335938 27.851562 C 26.5 29.953125 35.96875 25.730469 37.480469 18.417969 C 38.988281 11.109375 31.972656 3.480469 21.804688 1.378906 C 11.640625 -0.722656 2.171875 3.5 0.660156 10.808594 Z M 0.660156 10.808594 " clip-rule="nonzero"/></clipPath><clipPath id="4b54e59210"><rect x="0" width="38" y="0" height="29"/></clipPath><clipPath id="64904d5183"><path d="M 346 278 L 363 278 L 363 293 L 346 293 Z M 346 278 " clip-rule="nonzero"/></clipPath><clipPath id="0928209b03"><path d="M 344.292969 286.699219 L 349.753906 276.867188 L 364.835938 285.242188 L 359.371094 295.078125 Z M 344.292969 286.699219 " clip-rule="nonzero"/></clipPath><clipPath id="745be750c8"><path d="M 344.292969 286.699219 L 349.753906 276.867188 L 364.835938 285.242188 L 359.371094 295.078125 Z M 344.292969 286.699219 " clip-rule="nonzero"/></clipPath><mask id="528b99f43c"><g filter="url(#f9b26bd993)"><rect x="-75" width="900" fill="#000000" y="-74.999999" height="899.999994" fill-opacity="0.13"/></g></mask><clipPath id="c2e6964990"><path d="M 3 4 L 61 4 L 61 46 L 3 46 Z M 3 4 " clip-rule="nonzero"/></clipPath><clipPath id="9fd43127cf"><path d="M 7.40625 0.820312 L 63.597656 10.152344 L 57.015625 49.777344 L 0.828125 40.449219 Z M 7.40625 0.820312 " clip-rule="nonzero"/></clipPath><clipPath id="5372af5e1b"><path d="M 35.445312 5.476562 C 19.960938 2.90625 5.933594 9.691406 4.117188 20.632812 C 2.300781 31.578125 13.378906 42.53125 28.863281 45.105469 C 44.347656 47.675781 58.375 40.886719 60.191406 29.945312 C 62.007812 19.003906 50.929688 8.046875 35.445312 5.476562 Z M 35.445312 5.476562 " clip-rule="nonzero"/></clipPath><clipPath id="13316ad801"><path d="M 0 0 L 58 0 L 58 42 L 0 42 Z M 0 0 " clip-rule="nonzero"/></clipPath><clipPath id="40904aa20a"><path d="M 4.40625 -3.179688 L 60.597656 6.152344 L 54.015625 45.777344 L -2.171875 36.449219 Z M 4.40625 -3.179688 " clip-rule="nonzero"/></clipPath><clipPath id="994ddf11bc"><path d="M 32.445312 1.476562 C 16.960938 -1.09375 2.933594 5.691406 1.117188 16.632812 C -0.699219 27.578125 10.378906 38.53125 25.863281 41.105469 C 41.347656 43.675781 55.375 36.886719 57.191406 25.945312 C 59.007812 15.003906 47.929688 4.046875 32.445312 1.476562 Z M 32.445312 1.476562 " clip-rule="nonzero"/></clipPath><clipPath id="4b01a3d6b9"><rect x="0" width="58" y="0" height="42"/></clipPath><clipPath id="2041c9fe13"><rect x="0" width="64" y="0" height="50"/></clipPath><clipPath id="7c8b9bdc4c"><path d="M 343 427 L 401 427 L 401 469 L 343 469 Z M 343 427 " clip-rule="nonzero"/></clipPath><clipPath id="d965e5d80f"><path d="M 340.132812 462.253906 L 348.246094 423.003906 L 404.050781 434.539062 L 395.941406 473.789062 Z M 340.132812 462.253906 " clip-rule="nonzero"/></clipPath><clipPath id="0b15e683c5"><path d="M 344.1875 442.628906 C 341.949219 453.464844 352.589844 464.828125 367.960938 468.003906 C 383.332031 471.179688 397.605469 464.96875 399.847656 454.132812 C 402.085938 443.292969 391.441406 431.933594 376.074219 428.753906 C 360.703125 425.578125 346.429688 431.789062 344.1875 442.628906 Z M 344.1875 442.628906 " clip-rule="nonzero"/></clipPath><clipPath id="1f6d9d072a"><path d="M 0 0 L 58 0 L 58 42 L 0 42 Z M 0 0 " clip-rule="nonzero"/></clipPath><clipPath id="6946df190c"><path d="M -2.867188 35.253906 L 5.246094 -3.996094 L 61.050781 7.539062 L 52.941406 46.789062 Z M -2.867188 35.253906 " clip-rule="nonzero"/></clipPath><clipPath id="86e9b74ca1"><path d="M 1.1875 15.628906 C -1.050781 26.464844 9.589844 37.828125 24.960938 41.003906 C 40.332031 44.179688 54.605469 37.96875 56.847656 27.132812 C 59.085938 16.292969 48.441406 4.933594 33.074219 1.753906 C 17.703125 -1.421875 3.429688 4.789062 1.1875 15.628906 Z M 1.1875 15.628906 " clip-rule="nonzero"/></clipPath><clipPath id="21ac977976"><rect x="0" width="58" y="0" height="42"/></clipPath><clipPath id="3c58d21630"><path d="M 343 427 L 401 427 L 401 469 L 343 469 Z M 343 427 " clip-rule="nonzero"/></clipPath><clipPath id="5c0cb8bc56"><path d="M 340.132812 462.253906 L 348.175781 423.324219 L 403.996094 434.863281 L 395.953125 473.789062 Z M 340.132812 462.253906 " clip-rule="nonzero"/></clipPath><clipPath id="88d4639a4e"><path d="M 340.132812 462.25 L 348.25 422.96875 L 404.292969 434.550781 L 396.175781 473.832031 Z M 340.132812 462.25 " clip-rule="nonzero"/></clipPath><clipPath id="435cf2202c"><path d="M 344.1875 442.628906 C 341.949219 453.464844 352.589844 464.824219 367.957031 468 C 383.324219 471.175781 397.597656 464.96875 399.835938 454.128906 C 402.074219 443.292969 391.433594 431.933594 376.066406 428.757812 C 360.699219 425.582031 346.429688 431.792969 344.1875 442.628906 Z M 344.1875 442.628906 " clip-rule="nonzero"/></clipPath><clipPath id="eb254f95a7"><path d="M 345 421 L 402 421 L 402 463 L 345 463 Z M 345 421 " clip-rule="nonzero"/></clipPath><clipPath id="8ad20e7c71"><path d="M 341.464844 456.320312 L 349.574219 417.070312 L 405.382812 428.605469 L 397.273438 467.855469 Z M 341.464844 456.320312 " clip-rule="nonzero"/></clipPath><clipPath id="d6071710bf"><path d="M 345.519531 436.695312 C 343.28125 447.535156 353.921875 458.898438 369.292969 462.074219 C 384.660156 465.25 398.9375 459.039062 401.175781 448.199219 C 403.417969 437.363281 392.773438 426 377.40625 422.824219 C 362.035156 419.648438 347.761719 425.859375 345.519531 436.695312 Z M 345.519531 436.695312 " clip-rule="nonzero"/></clipPath><clipPath id="5513183d48"><path d="M 0 0 L 57 0 L 57 42 L 0 42 Z M 0 0 " clip-rule="nonzero"/></clipPath><clipPath id="a5c03a3fa0"><path d="M -3.535156 35.320312 L 4.574219 -3.929688 L 60.382812 7.605469 L 52.273438 46.855469 Z M -3.535156 35.320312 " clip-rule="nonzero"/></clipPath><clipPath id="5459fba07d"><path d="M 0.519531 15.695312 C -1.71875 26.535156 8.921875 37.898438 24.292969 41.074219 C 39.660156 44.25 53.9375 38.039062 56.175781 27.199219 C 58.417969 16.363281 47.773438 5 32.40625 1.824219 C 17.035156 -1.351562 2.761719 4.859375 0.519531 15.695312 Z M 0.519531 15.695312 " clip-rule="nonzero"/></clipPath><clipPath id="488c85486a"><rect x="0" width="57" y="0" height="42"/></clipPath><clipPath id="42f48c8a0e"><path d="M 345 421 L 402 421 L 402 463 L 345 463 Z M 345 421 " clip-rule="nonzero"/></clipPath><clipPath id="590ba1290c"><path d="M 341.464844 456.320312 L 349.507812 417.394531 L 405.328125 428.933594 L 397.285156 467.859375 Z M 341.464844 456.320312 " clip-rule="nonzero"/></clipPath><clipPath id="2454577334"><path d="M 341.464844 456.320312 L 349.582031 417.035156 L 405.625 428.621094 L 397.507812 467.902344 Z M 341.464844 456.320312 " clip-rule="nonzero"/></clipPath><clipPath id="bb7088dab4"><path d="M 345.519531 436.699219 C 343.28125 447.535156 353.921875 458.894531 369.289062 462.070312 C 384.65625 465.246094 398.925781 459.035156 401.167969 448.199219 C 403.40625 437.363281 392.765625 426.003906 377.398438 422.828125 C 362.03125 419.652344 347.757812 425.859375 345.519531 436.699219 Z M 345.519531 436.699219 " clip-rule="nonzero"/></clipPath><clipPath id="9e6f30ac63"><path d="M 352 428 L 394 428 L 394 459 L 352 459 Z M 352 428 " clip-rule="nonzero"/></clipPath><clipPath id="fea381307d"><path d="M 349.449219 453.292969 L 355.40625 424.480469 L 396.371094 432.949219 L 390.417969 461.761719 Z M 349.449219 453.292969 " clip-rule="nonzero"/></clipPath><clipPath id="6d6a4edd4a"><path d="M 352.429688 438.886719 C 350.785156 446.84375 358.597656 455.183594 369.878906 457.515625 C 381.160156 459.847656 391.640625 455.289062 393.285156 447.332031 C 394.929688 439.375 387.117188 431.035156 375.832031 428.703125 C 364.550781 426.371094 354.074219 430.929688 352.429688 438.886719 Z M 352.429688 438.886719 " clip-rule="nonzero"/></clipPath><clipPath id="5bf380c83e"><path d="M 0 0 L 42 0 L 42 31 L 0 31 Z M 0 0 " clip-rule="nonzero"/></clipPath><clipPath id="6181badb7b"><path d="M -2.550781 25.292969 L 3.40625 -3.519531 L 44.371094 4.949219 L 38.417969 33.761719 Z M -2.550781 25.292969 " clip-rule="nonzero"/></clipPath><clipPath id="08b32136af"><path d="M 0.429688 10.886719 C -1.214844 18.84375 6.597656 27.183594 17.878906 29.515625 C 29.160156 31.847656 39.640625 27.289062 41.285156 19.332031 C 42.929688 11.375 35.117188 3.035156 23.832031 0.703125 C 12.550781 -1.628906 2.074219 2.929688 0.429688 10.886719 Z M 0.429688 10.886719 " clip-rule="nonzero"/></clipPath><clipPath id="520b6c3444"><rect x="0" width="42" y="0" height="31"/></clipPath><clipPath id="47e5d969b1"><path d="M 352 428 L 394 428 L 394 459 L 352 459 Z M 352 428 " clip-rule="nonzero"/></clipPath><clipPath id="4b334242ee"><path d="M 349.449219 453.292969 L 355.371094 424.648438 L 396.5 433.148438 L 390.582031 461.792969 Z M 349.449219 453.292969 " clip-rule="nonzero"/></clipPath><clipPath id="1daca0cd76"><path d="M 349.453125 453.292969 L 355.414062 424.457031 L 396.550781 432.960938 L 390.589844 461.796875 Z M 349.453125 453.292969 " clip-rule="nonzero"/></clipPath><clipPath id="e1feeeca66"><path d="M 352.429688 438.890625 C 350.785156 446.84375 358.597656 455.183594 369.878906 457.515625 C 381.15625 459.847656 391.632812 455.289062 393.277344 447.332031 C 394.921875 439.378906 387.109375 431.039062 375.832031 428.710938 C 364.550781 426.378906 354.074219 430.9375 352.429688 438.890625 Z M 352.429688 438.890625 " clip-rule="nonzero"/></clipPath><clipPath id="1555608fca"><path d="M 355 429 L 393 429 L 393 458 L 355 458 Z M 355 429 " clip-rule="nonzero"/></clipPath><clipPath id="25a3e17bad"><path d="M 352.957031 453.070312 L 358.425781 426.597656 L 395.34375 434.226562 L 389.875 460.703125 Z M 352.957031 453.070312 " clip-rule="nonzero"/></clipPath><clipPath id="cc1578fbb8"><path d="M 355.691406 439.835938 C 354.179688 447.144531 361.199219 454.773438 371.363281 456.875 C 381.53125 458.976562 390.996094 454.753906 392.507812 447.445312 C 394.019531 440.132812 387.003906 432.503906 376.835938 430.402344 C 366.667969 428.300781 357.203125 432.523438 355.691406 439.835938 Z M 355.691406 439.835938 " clip-rule="nonzero"/></clipPath><clipPath id="b8c005fda9"><path d="M 0 0 L 38 0 L 38 29 L 0 29 Z M 0 0 " clip-rule="nonzero"/></clipPath><clipPath id="c199bf4527"><path d="M -2.042969 24.070312 L 3.425781 -2.402344 L 40.34375 5.226562 L 34.875 31.703125 Z M -2.042969 24.070312 " clip-rule="nonzero"/></clipPath><clipPath id="7ab57bdf3a"><path d="M 0.691406 10.835938 C -0.820312 18.144531 6.199219 25.773438 16.363281 27.875 C 26.53125 29.976562 35.996094 25.753906 37.507812 18.445312 C 39.019531 11.132812 32.003906 3.503906 21.835938 1.402344 C 11.667969 -0.699219 2.203125 3.523438 0.691406 10.835938 Z M 0.691406 10.835938 " clip-rule="nonzero"/></clipPath><clipPath id="aa7a5a0dde"><rect x="0" width="38" y="0" height="29"/></clipPath><clipPath id="adb2a40d90"><path d="M 366 436 L 383 436 L 383 451 L 366 451 Z M 366 436 " clip-rule="nonzero"/></clipPath><clipPath id="204d3469c6"><path d="M 364.320312 444.726562 L 369.785156 434.890625 L 384.863281 443.269531 L 379.402344 453.101562 Z M 364.320312 444.726562 " clip-rule="nonzero"/></clipPath><clipPath id="95aedddf78"><path d="M 364.320312 444.726562 L 369.785156 434.890625 L 384.863281 443.269531 L 379.402344 453.101562 Z M 364.320312 444.726562 " clip-rule="nonzero"/></clipPath><clipPath id="b4031250a7"><path d="M 0.679688 52 L 21 52 L 21 90 L 0.679688 90 Z M 0.679688 52 " clip-rule="nonzero"/></clipPath><clipPath id="a14aa3db4d"><path d="M 0.679688 53 L 40 53 L 40 88 L 0.679688 88 Z M 0.679688 53 " clip-rule="nonzero"/></clipPath><clipPath id="9660300ffa"><path d="M 28 21 L 69.558594 21 L 69.558594 56 L 28 56 Z M 28 21 " clip-rule="nonzero"/></clipPath><clipPath id="46bb1fd0b6"><path d="M 47 0 L 69.558594 0 L 69.558594 57 L 47 57 Z M 47 0 " clip-rule="nonzero"/></clipPath><clipPath id="6d8cf5a28b"><rect x="0" width="70" y="0" height="90"/></clipPath><clipPath id="0a8c8fd23d"><path d="M 0.839844 52 L 21 52 L 21 90.121094 L 0.839844 90.121094 Z M 0.839844 52 " clip-rule="nonzero"/></clipPath><clipPath id="c235e335a1"><path d="M 0.839844 53 L 40 53 L 40 89 L 0.839844 89 Z M 0.839844 53 " clip-rule="nonzero"/></clipPath><clipPath id="bb52523a71"><path d="M 28 21 L 69.71875 21 L 69.71875 56 L 28 56 Z M 28 21 " clip-rule="nonzero"/></clipPath><clipPath id="22ddf7a2b5"><path d="M 47 0.121094 L 69.71875 0.121094 L 69.71875 57 L 47 57 Z M 47 0.121094 " clip-rule="nonzero"/></clipPath><clipPath id="8162177ae5"><path d="M 57 0.121094 L 69 0.121094 L 69 10 L 57 10 Z M 57 0.121094 " clip-rule="nonzero"/></clipPath><clipPath id="4eda994388"><rect x="0" width="70" y="0" height="91"/></clipPath></defs><g mask="url(#691b2ee7d5)"><g transform="matrix(1, 0, 0, 1, 204, 292)"><g clip-path="url(#67b430862e)"><g clip-path="url(#c42f4e4d92)"><g transform="matrix(1, 0, 0, 1, -0.000000000000028422, -0.000000000000113687)"><g clip-path="url(#b59c7707b1)"><g clip-path="url(#5cd6962fff)"><g clip-path="url(#5d965cf372)"><g transform="matrix(1, 0, 0, 1, 18, 92)"><g clip-path="url(#42e8e23277)"><g clip-path="url(#f6a517b0a6)"><g clip-path="url(#075717afd9)"><path fill="#000000" d="M 14.613281 0.8125 L 98.484375 58.558594 L 84.007812 79.585938 L 0.132812 21.84375 Z M 14.613281 0.8125 " fill-opacity="1" fill-rule="nonzero"/></g></g></g></g></g></g><g clip-path="url(#213b5c5720)"><g clip-path="url(#b330932405)"><g transform="matrix(1, 0, 0, 1, 80, 134)"><g clip-path="url(#a32db69106)"><g clip-path="url(#2d8f5f6eac)"><g clip-path="url(#dbfd85500e)"><path fill="#000000" d="M 15.253906 0.378906 L 99.125 58.121094 L 84.648438 79.152344 L 0.777344 21.40625 Z M 15.253906 0.378906 " fill-opacity="1" fill-rule="nonzero"/></g></g></g></g></g></g><g clip-path="url(#9db1bf40c0)"><g clip-path="url(#ee7899ba2c)"><g transform="matrix(1, 0, 0, 1, 296, 99)"><g clip-path="url(#26750e865d)"><g clip-path="url(#92cf77b05e)"><g clip-path="url(#86bb07977f)"><path fill="#000000" d="M 0.328125 15.570312 L 10.636719 0.4375 L 22.859375 8.761719 L 12.550781 23.894531 Z M 0.328125 15.570312 " fill-opacity="1" fill-rule="nonzero"/></g></g></g></g></g></g><g clip-path="url(#339cc3afc7)"><g clip-path="url(#f56d211b65)"><g transform="matrix(1, 0, 0, 1, 147, 91)"><g clip-path="url(#8960249780)"><g clip-path="url(#a0a0d7cdfa)"><g clip-path="url(#1359c267f9)"><path fill="#000000" d="M 0.277344 80.304688 L 154.320312 1.007812 L 174.96875 41.125 L 20.925781 120.421875 Z M 0.277344 80.304688 " fill-opacity="1" fill-rule="nonzero"/></g></g></g></g></g></g><g clip-path="url(#e3b5bbc2b2)"><g clip-path="url(#accc3ef2ec)"><g transform="matrix(1, 0, 0, 1, 316, 116)"><g clip-path="url(#f4e8153092)"><g clip-path="url(#5a048bbe1e)"><g clip-path="url(#298ac3fcd6)"><path fill="#000000" d="M 0.570312 7.167969 L 14.8125 0.0625 L 19.144531 8.742188 L 4.898438 15.847656 Z M 0.570312 7.167969 " fill-opacity="1" fill-rule="nonzero"/></g></g></g></g></g></g><g clip-path="url(#ea33374422)"><g clip-path="url(#0bcb4d7bd0)"><g transform="matrix(1, 0, 0, 1, 323, 111)"><g clip-path="url(#d6ce81c758)"><g clip-path="url(#80f10a9caa)"><g clip-path="url(#0b1edf6709)"><path fill="#000000" d="M 0.210938 5.738281 L 4.164062 0.511719 L 16.898438 10.144531 L 12.949219 15.367188 Z M 0.210938 5.738281 " fill-opacity="1" fill-rule="nonzero"/></g></g></g></g></g></g><g clip-path="url(#38a8070cdb)"><g clip-path="url(#7f9c14b197)"><g transform="matrix(1, 0, 0, 1, 308, 104)"><g clip-path="url(#a63af0edb3)"><g clip-path="url(#03ea279562)"><g clip-path="url(#f7e209c16c)"><path fill="#000000" d="M 0.15625 12.679688 L 9.082031 0.875 L 23.328125 11.648438 L 14.402344 23.453125 Z M 0.15625 12.679688 " fill-opacity="1" fill-rule="nonzero"/></g></g></g></g></g></g><g clip-path="url(#b8a81c2374)"><g clip-path="url(#2e9bb91a3f)"><g transform="matrix(1, 0, 0, 1, 12, 103)"><g clip-path="url(#08063cfe88)"><g clip-path="url(#2bfbcf088f)"><g clip-path="url(#61426fb329)"><path fill="#000000" d="M 0.121094 6.050781 L 4.03125 0.542969 L 16.699219 9.539062 L 12.789062 15.046875 Z M 0.121094 6.050781 " fill-opacity="1" fill-rule="nonzero"/></g></g></g></g></g></g><g clip-path="url(#cbaa497d96)"><g clip-path="url(#f97b7d091a)"><g transform="matrix(1, 0, 0, 1, 19, 100)"><g clip-path="url(#4525732bd6)"><g clip-path="url(#f141060218)"><g clip-path="url(#d77ffe5cfe)"><path fill="#000000" d="M 0.0976562 6.136719 L 4.007812 0.628906 L 16.675781 9.625 L 12.765625 15.132812 Z M 0.0976562 6.136719 " fill-opacity="1" fill-rule="nonzero"/></g></g></g></g></g></g><g clip-path="url(#a276f405cb)"><path stroke-linecap="butt" transform="matrix(0.67415, 0.457584, -0.457584, 0.67415, 11.549948, 107.553769)" fill="none" stroke-linejoin="miter" d="M 0.00215707 1.998943 L 229.65131 2.002294 " stroke="#000000" stroke-width="4" stroke-opacity="1" stroke-miterlimit="4"/></g><g clip-path="url(#da4ed3e429)"><path stroke-linecap="butt" transform="matrix(0.724531, -0.372714, 0.372714, 0.724531, 163.284184, 211.847593)" fill="none" stroke-linejoin="miter" d="M 0.00166404 2.00116 L 245.566106 1.998355 " stroke="#000000" stroke-width="4" stroke-opacity="1" stroke-miterlimit="4"/></g><g clip-path="url(#c25f78a5a0)"><path stroke-linecap="butt" transform="matrix(0.724531, -0.372714, 0.372714, 0.724531, 10.7876, 106.946065)" fill="none" stroke-linejoin="miter" d="M -0.00160554 1.998352 L 245.567099 1.99774 " stroke="#000000" stroke-width="4" stroke-opacity="1" stroke-miterlimit="4"/></g><g clip-path="url(#ad27986d8e)"><path stroke-linecap="butt" transform="matrix(0.67415, 0.457584, -0.457584, 0.67415, 188.00641, 15.941714)" fill="none" stroke-linejoin="miter" d="M -0.00207633 1.999998 L 229.651043 2.000656 " stroke="#000000" stroke-width="4" stroke-opacity="1" stroke-miterlimit="4"/></g></g></g></g></g></g></g><g clip-path="url(#73093cdddd)"><g clip-path="url(#069df2762d)"><g transform="matrix(1, 0, 0, 1, 515, 358)"><g clip-path="url(#3e509f37ed)"><g clip-path="url(#e0ad8eb48f)"><g clip-path="url(#db1fdc30a2)"><path fill="#ffffff" d="M 0.46875 8.191406 L 15.417969 0.691406 L 26.671875 23.117188 L 11.722656 30.621094 Z M 0.46875 8.191406 " fill-opacity="1" fill-rule="nonzero"/></g></g></g></g></g></g><g clip-path="url(#82f0fe47e2)"><g clip-path="url(#bd9fd65bf0)"><g transform="matrix(1, 0, 0, 1, 346, 367)"><g clip-path="url(#4b744c3d8e)"><g clip-path="url(#0a35fab200)"><g clip-path="url(#e6c1ef8e44)"><path fill="#ffffff" d="M 0.324219 88.015625 L 174.3125 0.796875 L 184.277344 20.683594 L 10.292969 107.898438 Z M 0.324219 88.015625 " fill-opacity="1" fill-rule="nonzero"/></g></g></g></g></g></g><g clip-path="url(#188cfdb74d)"><g clip-path="url(#492c860e2c)"><g transform="matrix(1, 0, 0, 1, 207, 362)"><g clip-path="url(#65b61ba07e)"><g clip-path="url(#984ae3ce19)"><g clip-path="url(#09358466e2)"><path fill="#ffffff" d="M 10.398438 0.226562 L 158.367188 99.378906 L 148.148438 114.625 L 0.179688 15.476562 Z M 10.398438 0.226562 " fill-opacity="1" fill-rule="nonzero"/></g></g></g></g></g></g><path stroke-linecap="butt" transform="matrix(0.666812, -0.343309, 0.343309, 0.666812, 206.899315, 376.906876)" fill="none" stroke-linejoin="miter" d="M 0.00025934 1.498867 L 287.175687 1.499003 " stroke="#000000" stroke-width="3" stroke-opacity="1" stroke-miterlimit="4"/><path stroke-linecap="butt" transform="matrix(0.618393, 0.42437, -0.42437, 0.618393, 208.822492, 376.01086)" fill="none" stroke-linejoin="miter" d="M 0.00100119 1.497777 L 236.028485 1.499533 " stroke="#000000" stroke-width="3" stroke-opacity="1" stroke-miterlimit="4"/><path stroke-linecap="butt" transform="matrix(0.666812, -0.343309, 0.343309, 0.666812, 352.955786, 476.253573)" fill="none" stroke-linejoin="miter" d="M 0.0021898 1.5013 L 287.172987 1.499052 " stroke="#000000" stroke-width="3" stroke-opacity="1" stroke-miterlimit="4"/><path stroke-linecap="butt" transform="matrix(0.618393, 0.42437, -0.42437, 0.618393, 399.823226, 278.16323)" fill="none" stroke-linejoin="miter" d="M 0.000174897 1.498302 L 236.027659 1.500058 " stroke="#000000" stroke-width="3" stroke-opacity="1" stroke-miterlimit="4"/><g clip-path="url(#3450136578)"><g clip-path="url(#78b581bffe)"><g transform="matrix(1, 0, 0, 1, 408, 304)"><g clip-path="url(#8d40da2389)"><g clip-path="url(#93058d82de)"><g clip-path="url(#ad4ba09ed5)"><path fill="#ffffff" d="M 43.898438 0.535156 L 98.5625 36.910156 L 55.085938 102.25 L 0.421875 65.875 Z M 43.898438 0.535156 " fill-opacity="1" fill-rule="nonzero"/></g></g></g></g></g></g><g clip-path="url(#f2f608db5b)"><g clip-path="url(#eb7fab43e0)"><g transform="matrix(1, 0, 0, 1, 324, 325)"><g clip-path="url(#07651f76ef)"><g clip-path="url(#984782e4bf)"><g clip-path="url(#e27b2c41e7)"><path fill="#ffffff" d="M 156.582031 0.671875 L 186.28125 59.230469 L 29.820312 138.582031 L 0.121094 80.023438 Z M 156.582031 0.671875 " fill-opacity="1" fill-rule="nonzero"/></g></g></g></g></g></g><g clip-path="url(#d6ae52eb40)"><g clip-path="url(#167ae8c4b3)"><g transform="matrix(1, 0, 0, 1, 306, 268)"><g clip-path="url(#640ad15cee)"><g clip-path="url(#261be78c45)"><g clip-path="url(#2b5244c90d)"><path fill="#ffffff" d="M 93.402344 0.445312 L 147.878906 37.097656 L 54.671875 175.628906 L 0.195312 138.976562 Z M 93.402344 0.445312 " fill-opacity="1" fill-rule="nonzero"/></g></g></g></g></g></g><g clip-path="url(#3a5c47fa04)"><g clip-path="url(#c146860fb7)"><g transform="matrix(1, 0, 0, 1, 252, 266)"><g clip-path="url(#e9f777bd31)"><g clip-path="url(#041df218b7)"><g clip-path="url(#af6c973470)"><path fill="#ffffff" d="M 148.269531 0.738281 L 178.566406 58.988281 L 30.4375 136.03125 L 0.140625 77.78125 Z M 148.269531 0.738281 " fill-opacity="1" fill-rule="nonzero"/></g></g></g></g></g></g><g clip-path="url(#ce23663a50)"><g clip-path="url(#97d01e6cdc)"><g transform="matrix(1, 0, 0, 1, 255, 341)"><g clip-path="url(#5ec9572ed6)"><g clip-path="url(#e5a590d444)"><g clip-path="url(#55f4076a95)"><path fill="#ffffff" d="M 136.695312 69.488281 L 99.085938 123.308594 L 0.484375 54.40625 L 38.09375 0.585938 Z M 136.695312 69.488281 " fill-opacity="1" fill-rule="nonzero"/></g></g></g></g></g></g><g clip-path="url(#c74caf7d32)"><g clip-path="url(#514b644c77)"><g transform="matrix(1, 0, 0, 1, 216, 354)"><g clip-path="url(#ba02cb70ef)"><g clip-path="url(#b4af1b26f4)"><g clip-path="url(#88697548db)"><path fill="#ffffff" d="M 70.386719 38.765625 L 60.058594 54.757812 L 0.207031 16.105469 L 10.535156 0.113281 Z M 70.386719 38.765625 " fill-opacity="1" fill-rule="nonzero"/></g></g></g></g></g></g><g clip-path="url(#38baaaa2fc)"><g clip-path="url(#8806d58c78)"><g transform="matrix(1, 0, 0, 1, 226, 325)"><g clip-path="url(#2cb9f14821)"><g clip-path="url(#be15f330c7)"><g clip-path="url(#dc6a990f59)"><path fill="#ffffff" d="M 64.023438 0.25 L 75.667969 23.570312 L 11.910156 55.414062 L 0.265625 32.097656 Z M 64.023438 0.25 " fill-opacity="1" fill-rule="nonzero"/></g></g></g></g></g></g><g clip-path="url(#adb68e5742)"><g clip-path="url(#0c3ae1072d)"><g transform="matrix(1, 0, 0, 1, 211, 359)"><g clip-path="url(#4a0ab43e4c)"><g clip-path="url(#bae991e411)"><g clip-path="url(#6026d388c6)"><path fill="#ffffff" d="M 4.367188 0.578125 L 19.722656 9.101562 L 16.0625 15.699219 L 0.707031 7.171875 Z M 4.367188 0.578125 " fill-opacity="1" fill-rule="nonzero"/></g></g></g></g></g></g><g clip-path="url(#1063677ddd)"><g clip-path="url(#9f14d345d6)"><g transform="matrix(1, 0, 0, 1, 216, 357)"><g clip-path="url(#586a3fff64)"><g clip-path="url(#6bc60b6e33)"><g clip-path="url(#a175b3167f)"><path fill="#ffffff" d="M 4.347656 0.632812 L 19.703125 9.160156 L 16.039062 15.757812 L 0.683594 7.230469 Z M 4.347656 0.632812 " fill-opacity="1" fill-rule="nonzero"/></g></g></g></g></g></g><g clip-path="url(#df2cbb6544)"><g clip-path="url(#e1df59f058)"><g transform="matrix(1, 0, 0, 1, 496, 356)"><g clip-path="url(#1e9c554f57)"><g clip-path="url(#9967a6d58e)"><g clip-path="url(#5d68f3f275)"><path fill="#ffffff" d="M 0.878906 18.023438 L 35.367188 0.582031 L 41.8125 13.324219 L 7.320312 30.765625 Z M 0.878906 18.023438 " fill-opacity="1" fill-rule="nonzero"/></g></g></g></g></g></g><g clip-path="url(#a49045d751)"><g clip-path="url(#b98ac5a642)"><g transform="matrix(1, 0, 0, 1, 493, 338)"><g clip-path="url(#554793d99d)"><g clip-path="url(#7eb78c0cb5)"><g clip-path="url(#c02a4e090d)"><path fill="#ffffff" d="M 9.046875 0.640625 L 40.878906 22.5625 L 32.777344 34.324219 L 0.945312 12.398438 Z M 9.046875 0.640625 " fill-opacity="1" fill-rule="nonzero"/></g></g></g></g></g></g><g clip-path="url(#01bedf6eda)"><g clip-path="url(#e7fabb4338)"><g transform="matrix(1, 0, 0, 1, 530, 359)"><g clip-path="url(#6d4268a10a)"><g clip-path="url(#f52a6c4dca)"><g clip-path="url(#ce4db5cd4c)"><path fill="#ffffff" d="M 6.136719 0.191406 L 13.378906 6.632812 L 7.828125 12.875 L 0.585938 6.4375 Z M 6.136719 0.191406 " fill-opacity="1" fill-rule="nonzero"/></g></g></g></g></g></g><path stroke-linecap="butt" transform="matrix(0.666812, -0.343309, 0.343309, 0.666812, 207.868001, 364.486965)" fill="none" stroke-linejoin="miter" d="M -0.000849423 1.501208 L 287.174578 1.501344 " stroke="#000000" stroke-width="3" stroke-opacity="1" stroke-miterlimit="4"/><path stroke-linecap="butt" transform="matrix(0.618393, 0.42437, -0.42437, 0.618393, 209.791164, 363.590949)" fill="none" stroke-linejoin="miter" d="M 0.00255287 1.499852 L 236.02709 1.497314 " stroke="#000000" stroke-width="3" stroke-opacity="1" stroke-miterlimit="4"/><path stroke-linecap="butt" transform="matrix(0.666812, -0.343309, 0.343309, 0.666812, 353.924457, 463.833669)" fill="none" stroke-linejoin="miter" d="M -0.00114405 1.496626 L 287.1719 1.501393 " stroke="#000000" stroke-width="3" stroke-opacity="1" stroke-miterlimit="4"/><path stroke-linecap="butt" transform="matrix(0.618393, 0.42437, -0.42437, 0.618393, 399.813382, 265.578669)" fill="none" stroke-linejoin="miter" d="M 0.0000226602 1.502496 L 236.02456 1.499958 " stroke="#000000" stroke-width="3" stroke-opacity="1" stroke-miterlimit="4"/><g clip-path="url(#cf0263f0b7)"><g clip-path="url(#57b8a7c4f4)"><g transform="matrix(1, 0, 0, 1, 246, 335)"><g clip-path="url(#bdbe9874dd)"><g clip-path="url(#28be4d5d82)"><g clip-path="url(#90ba5f4f72)"><path fill="#ffffff" d="M 64.4375 0.0585938 L 76.085938 23.375 L 12.324219 55.21875 L 0.679688 31.902344 Z M 64.4375 0.0585938 " fill-opacity="1" fill-rule="nonzero"/></g></g></g></g></g></g><g clip-path="url(#5fe76d5ef3)"><g clip-path="url(#dce0731986)"><g transform="matrix(1, 0, 0, 1, 479, 342)"><g clip-path="url(#a4b933efdc)"><g clip-path="url(#bfd3cc0434)"><g clip-path="url(#35548eb876)"><path fill="#ffffff" d="M 8.828125 0.660156 L 40.660156 22.585938 L 32.5625 34.34375 L 0.730469 12.417969 Z M 8.828125 0.660156 " fill-opacity="1" fill-rule="nonzero"/></g></g></g></g></g></g><path stroke-linecap="butt" transform="matrix(0.620553, 0.421205, -0.421205, 0.620553, 238.229024, 355.706515)" fill="none" stroke-linejoin="miter" d="M 0.0000154066 1.498979 L 212.639591 1.501584 " stroke="#000000" stroke-width="3" stroke-opacity="1" stroke-miterlimit="4"/><path stroke-linecap="butt" transform="matrix(0.666929, -0.343082, 0.343082, 0.666929, 367.823392, 445.738294)" fill="none" stroke-linejoin="miter" d="M 0.00241559 1.500633 L 227.378892 1.502228 " stroke="#000000" stroke-width="3" stroke-opacity="1" stroke-miterlimit="4"/><path stroke-linecap="butt" transform="matrix(0.666929, -0.343082, 0.343082, 0.666929, 237.848619, 356.329308)" fill="none" stroke-linejoin="miter" d="M 0.00100744 1.498154 L 227.377484 1.499749 " stroke="#000000" stroke-width="3" stroke-opacity="1" stroke-miterlimit="4"/><path stroke-linecap="butt" transform="matrix(0.620553, 0.421205, -0.421205, 0.620553, 388.625081, 278.749722)" fill="none" stroke-linejoin="miter" d="M -0.0018467 1.499859 L 212.642038 1.499539 " stroke="#000000" stroke-width="3" stroke-opacity="1" stroke-miterlimit="4"/><path stroke-linecap="butt" transform="matrix(0.0583186, -0.747729, 0.747729, 0.0583186, 206.940461, 377.976945)" fill="none" stroke-linejoin="miter" d="M 0.00260204 1.500393 L 18.986991 1.498154 " stroke="#000000" stroke-width="3" stroke-opacity="1" stroke-miterlimit="4"/><g clip-path="url(#09bb82ea8e)"><g clip-path="url(#037deccbe0)"><g clip-path="url(#d3c257f529)"><g transform="matrix(1, 0, 0, 1, 287, 402)"><g clip-path="url(#8b0a79f80e)"><g clip-path="url(#7ef30580ba)"><g clip-path="url(#2a02da0c10)"><g clip-path="url(#855eb5f020)"><path fill="#ffffff" d="M 0.59375 0.363281 L 10.414062 1.128906 L 9.648438 10.949219 L -0.171875 10.183594 Z M 0.59375 0.363281 " fill-opacity="1" fill-rule="nonzero"/></g></g></g></g></g></g></g></g><g clip-path="url(#f8041326dd)"><g clip-path="url(#015da9e504)"><g clip-path="url(#8ed8eaca02)"><g clip-path="url(#030f7dc49e)"><path stroke-linecap="butt" transform="matrix(0.747729, 0.0583186, -0.0583186, 0.747729, 287.594607, 402.362784)" fill="none" stroke-linejoin="miter" d="M 6.560461 0.000952794 C 2.940145 0.00121261 -0.00195601 2.93679 -0.00129121 6.562298 C -0.000626401 10.187807 2.939738 13.12431 6.560054 13.124051 C 10.185563 13.123386 13.127664 10.187809 13.126999 6.5623 C 13.126334 2.936792 10.18597 0.000287989 6.560461 0.000952794 Z M 6.560461 0.000952794 " stroke="#000000" stroke-width="2" stroke-opacity="1" stroke-miterlimit="4"/></g></g></g></g><g mask="url(#39ab7b500d)"><g transform="matrix(1, 0, 0, 1, 322, 268)"><g clip-path="url(#8bb50c3099)"><g clip-path="url(#e694b69f8f)"><g clip-path="url(#f5c3d89350)"><g clip-path="url(#79368f52f6)"><g transform="matrix(1, 0, 0, 1, 3, 4)"><g clip-path="url(#ddbbaf5da1)"><g clip-path="url(#62814dc403)"><g clip-path="url(#9c890d8ca4)"><g clip-path="url(#9779998cdc)"><path fill="#000000" d="M 4.378906 -3.203125 L 60.414062 6.101562 L 53.832031 45.726562 L -2.203125 36.421875 Z M 4.378906 -3.203125 " fill-opacity="1" fill-rule="nonzero"/></g></g></g></g></g></g></g></g></g></g></g><g clip-path="url(#e3a73c0347)"><g clip-path="url(#0c87aef73b)"><g clip-path="url(#00d4399e1a)"><g transform="matrix(1, 0, 0, 1, 323, 269)"><g clip-path="url(#520ded8e18)"><g clip-path="url(#379cc73003)"><g clip-path="url(#50ed8ad2c1)"><g clip-path="url(#b9555cd75b)"><path fill="#ffffff" d="M -2.898438 35.226562 L 5.214844 -4.023438 L 60.871094 7.480469 L 52.757812 46.730469 Z M -2.898438 35.226562 " fill-opacity="1" fill-rule="nonzero"/></g></g></g></g></g></g></g></g><g clip-path="url(#b720fecdd7)"><g clip-path="url(#d7d8bb5a86)"><g clip-path="url(#0f2e0d7aa9)"><g clip-path="url(#4129e0fa63)"><path stroke-linecap="butt" transform="matrix(0.151812, -0.734475, 0.734475, 0.151812, 320.102711, 304.22479)" fill="none" stroke-linejoin="miter" d="M 26.717749 0.00188261 C 11.958669 -0.000280764 -0.00187379 16.959285 -0.0011893 37.881832 C -0.000504811 58.804379 11.961539 75.765426 26.714465 75.763543 C 41.468444 75.76676 53.428987 58.807195 53.428302 37.884648 C 53.427618 16.962101 41.470674 -0.000000291782 26.717749 0.00188261 Z M 26.717749 0.00188261 " stroke="#000000" stroke-width="4" stroke-opacity="1" stroke-miterlimit="4"/></g></g></g></g><g clip-path="url(#dd79538708)"><g clip-path="url(#13e93471cc)"><g clip-path="url(#44ccfb0260)"><g transform="matrix(1, 0, 0, 1, 325, 263)"><g clip-path="url(#8fb981172b)"><g clip-path="url(#f6b3192afb)"><g clip-path="url(#85de29756c)"><g clip-path="url(#818c66c7ee)"><path fill="#ffffff" d="M -3.566406 35.296875 L 4.546875 -3.953125 L 60.203125 7.550781 L 52.089844 46.800781 Z M -3.566406 35.296875 " fill-opacity="1" fill-rule="nonzero"/></g></g></g></g></g></g></g></g><g clip-path="url(#be7abb34d0)"><g clip-path="url(#a3cc8007a8)"><g clip-path="url(#870143a66c)"><g clip-path="url(#3658e19f85)"><path stroke-linecap="butt" transform="matrix(0.151812, -0.734475, 0.734475, 0.151812, 321.434341, 298.293932)" fill="none" stroke-linejoin="miter" d="M 26.715274 -0.00237849 C 11.962349 -0.00049559 0.00180643 16.95907 -0.0026096 37.882671 C -0.00192511 58.805218 11.960119 75.766265 26.713044 75.764382 C 41.467024 75.7676 53.426512 58.802934 53.431983 37.884433 C 53.431298 16.961886 41.469254 0.000839129 26.715274 -0.00237849 Z M 26.715274 -0.00237849 " stroke="#000000" stroke-width="4" stroke-opacity="1" stroke-miterlimit="4"/></g></g></g></g><g clip-path="url(#1fe5197e16)"><g clip-path="url(#fe89e3de38)"><g clip-path="url(#a2830f8d6c)"><g transform="matrix(1, 0, 0, 1, 332, 270)"><g clip-path="url(#6f02be4110)"><g clip-path="url(#6b7a6842fe)"><g clip-path="url(#6594ab6f1f)"><g clip-path="url(#6b853f39c8)"><path fill="#000000" d="M -2.578125 25.265625 L 3.375 -3.542969 L 44.230469 4.898438 L 38.273438 33.710938 Z M -2.578125 25.265625 " fill-opacity="1" fill-rule="nonzero"/></g></g></g></g></g></g></g></g><g clip-path="url(#cf4990b908)"><g clip-path="url(#3b940bfcf7)"><g clip-path="url(#eae0792ef4)"><g clip-path="url(#2ed874f754)"><path stroke-linecap="butt" transform="matrix(0.151812, -0.734475, 0.734475, 0.151812, 329.424507, 295.268209)" fill="none" stroke-linejoin="miter" d="M 19.607569 0.0016082 C 8.779073 0.000735935 -0.00204268 12.452592 0.00165816 27.806124 C 0.00131273 43.16581 8.781109 55.615098 19.609605 55.61597 C 30.438101 55.616842 39.219217 43.164986 39.219563 27.8053 C 39.220962 12.450714 30.441166 0.00142621 19.607569 0.0016082 Z M 19.607569 0.0016082 " stroke="#000000" stroke-width="4" stroke-opacity="1" stroke-miterlimit="4"/></g></g></g></g><path stroke-linecap="butt" transform="matrix(0.213742, -0.718898, 0.718898, 0.213742, 326.783044, 296.137477)" fill="none" stroke-linejoin="miter" d="M -0.002941 0.498277 L 7.430708 0.499612 " stroke="#000000" stroke-width="1" stroke-opacity="1" stroke-miterlimit="4"/><path stroke-linecap="butt" transform="matrix(0.399156, -0.63496, 0.63496, 0.399156, 332.542105, 302.750806)" fill="none" stroke-linejoin="miter" d="M 0.00116677 0.498936 L 7.427253 0.499997 " stroke="#000000" stroke-width="1" stroke-opacity="1" stroke-miterlimit="4"/><path stroke-linecap="butt" transform="matrix(0.298737, -0.687936, 0.687936, 0.298737, 341.41062, 306.763042)" fill="none" stroke-linejoin="miter" d="M -0.00238263 0.500043 L 7.429501 0.497963 " stroke="#000000" stroke-width="1" stroke-opacity="1" stroke-miterlimit="4"/><path stroke-linecap="butt" transform="matrix(0.0921335, -0.744319, 0.744319, 0.0921335, 351.53653, 310.048013)" fill="none" stroke-linejoin="miter" d="M 0.000676506 0.501887 L 7.426617 0.501102 " stroke="#000000" stroke-width="1" stroke-opacity="1" stroke-miterlimit="4"/><path stroke-linecap="butt" transform="matrix(-0.0138712, -0.749872, 0.749872, -0.0138712, 360.92014, 309.473619)" fill="none" stroke-linejoin="miter" d="M 0.00240748 0.502443 L 7.430822 0.499205 " stroke="#000000" stroke-width="1" stroke-opacity="1" stroke-miterlimit="4"/><path stroke-linecap="butt" transform="matrix(-0.0138712, -0.749872, 0.749872, -0.0138712, 370.371136, 306.538805)" fill="none" stroke-linejoin="miter" d="M 0.000825294 0.500045 L 7.429143 0.502014 " stroke="#000000" stroke-width="1" stroke-opacity="1" stroke-miterlimit="4"/><g clip-path="url(#e3a4f9cab2)"><g clip-path="url(#16bd050897)"><g clip-path="url(#9e53b5188a)"><g transform="matrix(1, 0, 0, 1, 335, 271)"><g clip-path="url(#4b54e59210)"><g clip-path="url(#adc0fb5b27)"><g clip-path="url(#bbe1e0204c)"><g clip-path="url(#4ef1513fc9)"><path fill="#a9c5e7" d="M -2.074219 24.046875 L 3.398438 -2.425781 L 40.210938 5.183594 L 34.738281 31.65625 Z M -2.074219 24.046875 " fill-opacity="1" fill-rule="nonzero"/></g></g></g></g></g></g></g></g><g clip-path="url(#64904d5183)"><g clip-path="url(#0928209b03)"><g clip-path="url(#745be750c8)"><path fill="#ffffff" d="M 356.46875 281.816406 C 355.601562 282.144531 354.671875 282.808594 353.699219 283.886719 L 351.226562 282.511719 C 351.738281 281.925781 352.367188 281.464844 353.113281 281.132812 C 353.210938 281.066406 353.3125 280.996094 353.320312 280.875 C 353.371094 280.78125 353.375 280.65625 353.308594 280.558594 L 352.347656 278.589844 C 352.277344 278.492188 352.207031 278.390625 352.085938 278.386719 C 351.992188 278.332031 351.84375 278.375 351.769531 278.394531 C 350.472656 279.046875 349.410156 279.949219 348.609375 281.058594 L 348.085938 280.769531 C 347.894531 280.664062 347.625 280.699219 347.492188 280.9375 L 346.886719 282.03125 C 346.78125 282.222656 346.816406 282.492188 347.054688 282.625 L 347.578125 282.914062 C 347.117188 283.96875 347.023438 285.035156 347.269531 286.042969 C 347.515625 287.175781 348.207031 288.058594 349.300781 288.667969 C 350.394531 289.273438 351.390625 289.390625 352.328125 289.042969 C 353.195312 288.714844 354.054688 288.070312 355 287.039062 L 357.570312 288.464844 C 356.929688 289.167969 356.078125 289.691406 354.988281 290.082031 C 354.886719 290.152344 354.789062 290.21875 354.734375 290.316406 C 354.683594 290.410156 354.675781 290.53125 354.746094 290.632812 L 355.535156 292.6875 C 355.597656 292.910156 355.859375 292.996094 356.082031 292.933594 C 357.789062 292.324219 359.175781 291.289062 360.234375 289.945312 L 361.136719 290.449219 C 361.328125 290.554688 361.597656 290.515625 361.730469 290.277344 L 362.335938 289.183594 C 362.441406 288.996094 362.40625 288.726562 362.167969 288.59375 L 361.261719 288.089844 C 361.777344 286.941406 361.871094 285.875 361.648438 284.816406 C 361.40625 283.6875 360.742188 282.757812 359.644531 282.148438 C 358.476562 281.5625 357.4375 281.417969 356.46875 281.816406 Z M 358.15625 285.054688 C 358.441406 285.214844 358.625 285.441406 358.683594 285.785156 C 358.722656 286.054688 358.683594 286.347656 358.621094 286.683594 L 356.480469 285.496094 C 356.90625 285.171875 357.183594 285.015625 357.332031 284.972656 C 357.605469 284.8125 357.871094 284.898438 358.15625 285.054688 Z M 350.621094 285.726562 C 350.335938 285.570312 350.199219 285.367188 350.140625 285.023438 C 350.078125 284.800781 350.089844 284.558594 350.171875 284.292969 L 352.171875 285.40625 C 351.816406 285.707031 351.570312 285.816406 351.421875 285.859375 C 351.125 285.945312 350.90625 285.886719 350.621094 285.726562 Z M 350.621094 285.726562 " fill-opacity="1" fill-rule="nonzero"/></g></g></g><g mask="url(#528b99f43c)"><g transform="matrix(1, 0, 0, 1, 342, 426)"><g clip-path="url(#2041c9fe13)"><g clip-path="url(#c2e6964990)"><g clip-path="url(#9fd43127cf)"><g clip-path="url(#5372af5e1b)"><g transform="matrix(1, 0, 0, 1, 3, 4)"><g clip-path="url(#4b01a3d6b9)"><g clip-path="url(#13316ad801)"><g clip-path="url(#40904aa20a)"><g clip-path="url(#994ddf11bc)"><path fill="#000000" d="M 4.40625 -3.179688 L 60.441406 6.125 L 53.863281 45.753906 L -2.171875 36.449219 Z M 4.40625 -3.179688 " fill-opacity="1" fill-rule="nonzero"/></g></g></g></g></g></g></g></g></g></g></g><g clip-path="url(#7c8b9bdc4c)"><g clip-path="url(#d965e5d80f)"><g clip-path="url(#0b15e683c5)"><g transform="matrix(1, 0, 0, 1, 343, 427)"><g clip-path="url(#21ac977976)"><g clip-path="url(#1f6d9d072a)"><g clip-path="url(#6946df190c)"><g clip-path="url(#86e9b74ca1)"><path fill="#ffffff" d="M -2.867188 35.253906 L 5.246094 -3.996094 L 60.898438 7.507812 L 52.785156 46.757812 Z M -2.867188 35.253906 " fill-opacity="1" fill-rule="nonzero"/></g></g></g></g></g></g></g></g><g clip-path="url(#3c58d21630)"><g clip-path="url(#5c0cb8bc56)"><g clip-path="url(#88d4639a4e)"><g clip-path="url(#435cf2202c)"><path stroke-linecap="butt" transform="matrix(0.151812, -0.734475, 0.734475, 0.151812, 340.132311, 462.249813)" fill="none" stroke-linejoin="miter" d="M 26.714111 -0.000437016 C 11.961185 0.00144588 0.000642466 16.961011 0.00132695 37.883559 C 0.00201144 58.806106 11.958955 75.768207 26.716981 75.765269 C 41.469906 75.763386 53.430449 58.803821 53.429764 37.881274 C 53.42908 16.958727 41.46809 0.0027806 26.714111 -0.000437016 Z M 26.714111 -0.000437016 " stroke="#000000" stroke-width="4" stroke-opacity="1" stroke-miterlimit="4"/></g></g></g></g><g clip-path="url(#eb254f95a7)"><g clip-path="url(#8ad20e7c71)"><g clip-path="url(#d6071710bf)"><g transform="matrix(1, 0, 0, 1, 345, 421)"><g clip-path="url(#488c85486a)"><g clip-path="url(#5513183d48)"><g clip-path="url(#a5c03a3fa0)"><g clip-path="url(#5459fba07d)"><path fill="#ffffff" d="M -3.535156 35.320312 L 4.574219 -3.929688 L 60.230469 7.574219 L 52.117188 46.824219 Z M -3.535156 35.320312 " fill-opacity="1" fill-rule="nonzero"/></g></g></g></g></g></g></g></g><g clip-path="url(#42f48c8a0e)"><g clip-path="url(#590ba1290c)"><g clip-path="url(#2454577334)"><g clip-path="url(#bb7088dab4)"><path stroke-linecap="butt" transform="matrix(0.151812, -0.734475, 0.734475, 0.151812, 341.463941, 456.318862)" fill="none" stroke-linejoin="miter" d="M 26.712568 0.000427667 C 11.959643 0.00231057 -0.000900054 16.961876 -0.000215567 37.884423 C 0.000468921 58.80697 11.961459 75.762916 26.715438 75.766134 C 41.468363 75.764251 53.428906 58.804686 53.428222 37.882139 C 53.427537 16.959591 41.470594 -0.00250948 26.712568 0.000427667 Z M 26.712568 0.000427667 " stroke="#000000" stroke-width="4" stroke-opacity="1" stroke-miterlimit="4"/></g></g></g></g><g clip-path="url(#9e6f30ac63)"><g clip-path="url(#fea381307d)"><g clip-path="url(#6d6a4edd4a)"><g transform="matrix(1, 0, 0, 1, 352, 428)"><g clip-path="url(#520b6c3444)"><g clip-path="url(#5bf380c83e)"><g clip-path="url(#6181badb7b)"><g clip-path="url(#08b32136af)"><path fill="#000000" d="M -2.550781 25.292969 L 3.40625 -3.519531 L 44.261719 4.925781 L 38.304688 33.738281 Z M -2.550781 25.292969 " fill-opacity="1" fill-rule="nonzero"/></g></g></g></g></g></g></g></g><g clip-path="url(#47e5d969b1)"><g clip-path="url(#4b334242ee)"><g clip-path="url(#1daca0cd76)"><g clip-path="url(#e1feeeca66)"><path stroke-linecap="butt" transform="matrix(0.151812, -0.734475, 0.734475, 0.151812, 349.454136, 453.293206)" fill="none" stroke-linejoin="miter" d="M 19.608989 -0.00179616 C 8.780493 -0.00266842 -0.000622915 12.449188 -0.00096835 27.808874 C -0.00236803 43.16346 8.777428 55.612748 19.611025 55.612566 C 30.439521 55.613438 39.220637 43.161582 39.216936 27.80805 C 39.217282 12.448364 30.437485 -0.000923895 19.608989 -0.00179616 Z M 19.608989 -0.00179616 " stroke="#000000" stroke-width="4" stroke-opacity="1" stroke-miterlimit="4"/></g></g></g></g><path stroke-linecap="butt" transform="matrix(0.213742, -0.718898, 0.718898, 0.213742, 346.812672, 454.162438)" fill="none" stroke-linejoin="miter" d="M -0.000377679 0.49977 L 7.428279 0.50259 " stroke="#000000" stroke-width="1" stroke-opacity="1" stroke-miterlimit="4"/><path stroke-linecap="butt" transform="matrix(0.399156, -0.63496, 0.63496, 0.399156, 352.571733, 460.775734)" fill="none" stroke-linejoin="miter" d="M -0.000410187 0.502481 L 7.430085 0.50077 " stroke="#000000" stroke-width="1" stroke-opacity="1" stroke-miterlimit="4"/><path stroke-linecap="butt" transform="matrix(0.298737, -0.687936, 0.687936, 0.298737, 361.44022, 464.788053)" fill="none" stroke-linejoin="miter" d="M 0.000418752 0.501225 L 7.427525 0.501219 " stroke="#000000" stroke-width="1" stroke-opacity="1" stroke-miterlimit="4"/><path stroke-linecap="butt" transform="matrix(0.0921335, -0.744319, 0.744319, 0.0921335, 371.566156, 468.072981)" fill="none" stroke-linejoin="miter" d="M 0.00232826 0.498616 L 7.428268 0.497831 " stroke="#000000" stroke-width="1" stroke-opacity="1" stroke-miterlimit="4"/><path stroke-linecap="butt" transform="matrix(-0.0138712, -0.749872, 0.749872, -0.0138712, 380.94974, 467.498613)" fill="none" stroke-linejoin="miter" d="M -0.000668422 0.499378 L 7.427649 0.501347 " stroke="#000000" stroke-width="1" stroke-opacity="1" stroke-miterlimit="4"/><path stroke-linecap="butt" transform="matrix(-0.0138712, -0.749872, 0.749872, -0.0138712, 390.400764, 464.563749)" fill="none" stroke-linejoin="miter" d="M -0.00241341 0.502147 L 7.431208 0.499005 " stroke="#000000" stroke-width="1" stroke-opacity="1" stroke-miterlimit="4"/><g clip-path="url(#1555608fca)"><g clip-path="url(#25a3e17bad)"><g clip-path="url(#cc1578fbb8)"><g transform="matrix(1, 0, 0, 1, 355, 429)"><g clip-path="url(#aa7a5a0dde)"><g clip-path="url(#b8c005fda9)"><g clip-path="url(#c199bf4527)"><g clip-path="url(#7ab57bdf3a)"><path fill="#a9c5e7" d="M -2.042969 24.070312 L 3.425781 -2.402344 L 40.242188 5.207031 L 34.769531 31.679688 Z M -2.042969 24.070312 " fill-opacity="1" fill-rule="nonzero"/></g></g></g></g></g></g></g></g><g clip-path="url(#adb2a40d90)"><g clip-path="url(#204d3469c6)"><g clip-path="url(#95aedddf78)"><path fill="#ffffff" d="M 376.5 439.839844 C 375.632812 440.167969 374.703125 440.835938 373.730469 441.914062 L 371.253906 440.539062 C 371.765625 439.953125 372.398438 439.492188 373.140625 439.160156 C 373.242188 439.089844 373.34375 439.019531 373.347656 438.898438 C 373.402344 438.804688 373.40625 438.683594 373.335938 438.582031 L 372.375 436.617188 C 372.308594 436.515625 372.238281 436.414062 372.117188 436.410156 C 372.019531 436.355469 371.875 436.398438 371.800781 436.421875 C 370.503906 437.070312 369.441406 437.972656 368.636719 439.085938 L 368.113281 438.792969 C 367.925781 438.6875 367.65625 438.726562 367.523438 438.964844 L 366.914062 440.058594 C 366.808594 440.246094 366.847656 440.515625 367.082031 440.648438 L 367.605469 440.941406 C 367.148438 441.992188 367.050781 443.058594 367.300781 444.070312 C 367.542969 445.199219 368.238281 446.082031 369.332031 446.691406 C 370.425781 447.300781 371.417969 447.414062 372.359375 447.066406 C 373.226562 446.738281 374.082031 446.09375 375.027344 445.0625 L 377.597656 446.492188 C 376.957031 447.195312 376.109375 447.71875 375.019531 448.109375 C 374.917969 448.175781 374.816406 448.246094 374.765625 448.339844 C 374.710938 448.4375 374.707031 448.558594 374.773438 448.65625 L 375.5625 450.714844 C 375.625 450.9375 375.890625 451.019531 376.113281 450.957031 C 377.820312 450.347656 379.207031 449.3125 380.261719 447.972656 L 381.167969 448.472656 C 381.355469 448.578125 381.625 448.542969 381.757812 448.304688 L 382.367188 447.210938 C 382.472656 447.019531 382.433594 446.75 382.195312 446.617188 L 381.292969 446.117188 C 381.804688 444.96875 381.902344 443.898438 381.679688 442.84375 C 381.4375 441.710938 380.769531 440.78125 379.675781 440.171875 C 378.507812 439.585938 377.464844 439.445312 376.5 439.839844 Z M 378.183594 443.082031 C 378.46875 443.238281 378.65625 443.46875 378.714844 443.808594 C 378.75 444.082031 378.714844 444.371094 378.648438 444.710938 L 376.507812 443.519531 C 376.9375 443.199219 377.210938 443.039062 377.359375 442.996094 C 377.636719 442.835938 377.898438 442.921875 378.183594 443.082031 Z M 370.652344 443.753906 C 370.367188 443.59375 370.230469 443.394531 370.171875 443.050781 C 370.109375 442.828125 370.117188 442.585938 370.203125 442.320312 L 372.199219 443.429688 C 371.847656 443.730469 371.597656 443.84375 371.449219 443.882812 C 371.15625 443.96875 370.9375 443.910156 370.652344 443.753906 Z M 370.652344 443.753906 " fill-opacity="1" fill-rule="nonzero"/></g></g></g><g transform="matrix(1, 0, 0, 1, 319, 306)"><g clip-path="url(#6d8cf5a28b)"><g clip-path="url(#b4031250a7)"><path stroke-linecap="butt" transform="matrix(0.0789827, -0.689938, 0.689938, 0.0789827, 0.913512, 88.180314)" fill="none" stroke-linejoin="miter" d="M -0.00230745 1.999655 L 29.812511 2.000545 " stroke="#000000" stroke-width="4" stroke-opacity="1" stroke-miterlimit="4"/></g><g clip-path="url(#a14aa3db4d)"><path stroke-linecap="butt" transform="matrix(0.686394, 0.105435, -0.105435, 0.686394, 3.682331, 67.700803)" fill="none" stroke-linejoin="miter" d="M 0.00183891 2.000633 L 29.817072 2.002038 " stroke="#000000" stroke-width="4" stroke-opacity="1" stroke-miterlimit="4"/></g><path stroke-linecap="butt" transform="matrix(0.0889065, -0.68873, 0.68873, 0.0889065, 21.232623, 72.630705)" fill="none" stroke-linejoin="miter" d="M -0.000238833 1.999004 L 29.816026 2.001158 " stroke="#000000" stroke-width="4" stroke-opacity="1" stroke-miterlimit="4"/><path stroke-linecap="butt" transform="matrix(0.683859, 0.120787, -0.120787, 0.683859, 24.215425, 51.270852)" fill="none" stroke-linejoin="miter" d="M -0.00215855 1.997673 L 29.814844 1.997754 " stroke="#000000" stroke-width="4" stroke-opacity="1" stroke-miterlimit="4"/><path stroke-linecap="butt" transform="matrix(0.0975708, -0.687556, 0.687556, 0.0975708, 41.570424, 56.38969)" fill="none" stroke-linejoin="miter" d="M -0.0016225 1.999905 L 29.814343 2.001342 " stroke="#000000" stroke-width="4" stroke-opacity="1" stroke-miterlimit="4"/><g clip-path="url(#9660300ffa)"><path stroke-linecap="butt" transform="matrix(0.687486, 0.0980646, -0.0980646, 0.687486, 44.580533, 35.396107)" fill="none" stroke-linejoin="miter" d="M -0.00258295 1.998119 L 29.816554 2.000416 " stroke="#000000" stroke-width="4" stroke-opacity="1" stroke-miterlimit="4"/></g><g clip-path="url(#46bb1fd0b6)"><path stroke-linecap="butt" transform="matrix(-0.0157182, -0.694266, 0.694266, -0.0157182, 62.526566, 40.466576)" fill="none" stroke-linejoin="miter" d="M 0.00225923 1.998559 L 55.557676 2.001634 " stroke="#000000" stroke-width="4" stroke-opacity="1" stroke-miterlimit="4"/></g><path stroke-linecap="round" transform="matrix(-0.0157182, -0.694266, 0.694266, -0.0157182, 62.526566, 40.466576)" fill="none" stroke-linejoin="round" d="M 47.557655 -3.997227 L 55.557676 2.001634 L 47.556146 7.998313 " stroke="#000000" stroke-width="4" stroke-opacity="1" stroke-miterlimit="4"/></g></g><g transform="matrix(1, 0, 0, 1, 381, 327)"><g clip-path="url(#4eda994388)"><g clip-path="url(#0a8c8fd23d)"><path stroke-linecap="butt" transform="matrix(0.0789827, -0.689938, 0.689938, 0.0789827, 1.013363, 88.307637)" fill="none" stroke-linejoin="miter" d="M 0.00129746 2.001724 L 29.816116 2.002614 " stroke="#000000" stroke-width="4" stroke-opacity="1" stroke-miterlimit="4"/></g><g clip-path="url(#c235e335a1)"><path stroke-linecap="butt" transform="matrix(0.686394, 0.105435, -0.105435, 0.686394, 3.782181, 67.828155)" fill="none" stroke-linejoin="miter" d="M -0.00179853 1.997765 L 29.813435 1.999169 " stroke="#000000" stroke-width="4" stroke-opacity="1" stroke-miterlimit="4"/></g><path stroke-linecap="butt" transform="matrix(0.0889065, -0.68873, 0.68873, 0.0889065, 21.332444, 72.758029)" fill="none" stroke-linejoin="miter" d="M -0.00217785 2.001783 L 29.813367 1.998357 " stroke="#000000" stroke-width="4" stroke-opacity="1" stroke-miterlimit="4"/><path stroke-linecap="butt" transform="matrix(0.683859, 0.120787, -0.120787, 0.683859, 24.315276, 51.398176)" fill="none" stroke-linejoin="miter" d="M 0.000665404 1.999488 L 29.812129 2.000548 " stroke="#000000" stroke-width="4" stroke-opacity="1" stroke-miterlimit="4"/><path stroke-linecap="butt" transform="matrix(0.0975708, -0.687556, 0.687556, 0.0975708, 41.670275, 56.517013)" fill="none" stroke-linejoin="miter" d="M 0.0020369 2.001876 L 29.811643 1.998534 " stroke="#000000" stroke-width="4" stroke-opacity="1" stroke-miterlimit="4"/><g clip-path="url(#bb52523a71)"><path stroke-linecap="butt" transform="matrix(0.687486, 0.0980646, -0.0980646, 0.687486, 44.680381, 35.523459)" fill="none" stroke-linejoin="miter" d="M 0.000176925 1.999985 L 29.812951 1.997508 " stroke="#000000" stroke-width="4" stroke-opacity="1" stroke-miterlimit="4"/></g><g clip-path="url(#22ddf7a2b5)"><path stroke-linecap="butt" transform="matrix(-0.0157182, -0.694266, 0.694266, -0.0157182, 62.626387, 40.593928)" fill="none" stroke-linejoin="miter" d="M -0.0000342348 2.001014 L 55.555509 1.998466 " stroke="#000000" stroke-width="4" stroke-opacity="1" stroke-miterlimit="4"/></g><g clip-path="url(#8162177ae5)"><path stroke-linecap="round" transform="matrix(-0.0157182, -0.694266, 0.694266, -0.0157182, 62.626387, 40.593928)" fill="none" stroke-linejoin="round" d="M 47.555489 -4.000395 L 55.555509 1.998466 L 47.559476 8.000895 " stroke="#000000" stroke-width="4" stroke-opacity="1" stroke-miterlimit="4"/></g></g></g></svg>