<svg xmlns="http://www.w3.org/2000/svg" xmlns:xlink="http://www.w3.org/1999/xlink" width="1000" zoomAndPan="magnify" viewBox="0 0 750 749.999995" height="1000" preserveAspectRatio="xMidYMid meet" version="1.0"><defs><clipPath id="eb4e2bbbe2"><path d="M 369 354 L 448 354 L 448 435 L 369 435 Z M 369 354 " clip-rule="nonzero"/></clipPath><clipPath id="71d48626bd"><path d="M 378.574219 354.5625 L 447.792969 363.96875 L 438.261719 434.15625 L 369.039062 424.75 Z M 378.574219 354.5625 " clip-rule="nonzero"/></clipPath><clipPath id="b3a764f141"><path d="M 0 0.480469 L 78.839844 0.480469 L 78.839844 80.160156 L 0 80.160156 Z M 0 0.480469 " clip-rule="nonzero"/></clipPath><clipPath id="22bdd77f9f"><path d="M 9.574219 0.5625 L 78.792969 9.96875 L 69.261719 80.15625 L 0.0390625 70.75 Z M 9.574219 0.5625 " clip-rule="nonzero"/></clipPath><clipPath id="94a06ec25a"><rect x="0" width="79" y="0" height="81"/></clipPath><clipPath id="489ef260f0"><path d="M 309 297 L 370 297 L 370 357 L 309 357 Z M 309 297 " clip-rule="nonzero"/></clipPath><clipPath id="756d4e1b81"><path d="M 323.398438 297.449219 L 369.75 312.09375 L 355.675781 356.640625 L 309.324219 341.996094 Z M 323.398438 297.449219 " clip-rule="nonzero"/></clipPath><clipPath id="72284ddd59"><path d="M 0.121094 0.359375 L 60.839844 0.359375 L 60.839844 59.640625 L 0.121094 59.640625 Z M 0.121094 0.359375 " clip-rule="nonzero"/></clipPath><clipPath id="02a7087f01"><path d="M 14.398438 0.449219 L 60.75 15.09375 L 46.675781 59.640625 L 0.324219 44.996094 Z M 14.398438 0.449219 " clip-rule="nonzero"/></clipPath><clipPath id="b314bf181a"><rect x="0" width="61" y="0" height="60"/></clipPath><clipPath id="f30b775074"><path d="M 121 133 L 167 133 L 167 172 L 121 172 Z M 121 133 " clip-rule="nonzero"/></clipPath><clipPath id="e3143c0417"><path d="M 121.445312 163 L 160.3125 133.105469 L 166.839844 141.59375 L 127.976562 171.488281 Z M 121.445312 163 " clip-rule="nonzero"/></clipPath><clipPath id="356834400a"><path d="M 0.398438 0 L 46 0 L 46 38.601562 L 0.398438 38.601562 Z M 0.398438 0 " clip-rule="nonzero"/></clipPath><clipPath id="c4514d9e23"><path d="M 0.445312 30 L 39.3125 0.105469 L 45.839844 8.59375 L 6.976562 38.488281 Z M 0.445312 30 " clip-rule="nonzero"/></clipPath><clipPath id="53b4b81502"><rect x="0" width="46" y="0" height="39"/></clipPath><clipPath id="1078f5ba84"><path d="M 40 37 L 76 37 L 76 64 L 40 64 Z M 40 37 " clip-rule="nonzero"/></clipPath><clipPath id="94eedd0380"><path d="M 70.929688 63.640625 L 40.695312 46.019531 L 45.472656 37.824219 L 75.707031 55.445312 Z M 70.929688 63.640625 " clip-rule="nonzero"/></clipPath><clipPath id="bba3ab0f85"><path d="M 0.519531 0.679688 L 35.800781 0.679688 L 35.800781 26.839844 L 0.519531 26.839844 Z M 0.519531 0.679688 " clip-rule="nonzero"/></clipPath><clipPath id="2dd26dff62"><path d="M 30.929688 26.640625 L 0.695312 9.019531 L 5.472656 0.824219 L 35.707031 18.445312 Z M 30.929688 26.640625 " clip-rule="nonzero"/></clipPath><clipPath id="a6a13591f5"><rect x="0" width="36" y="0" height="27"/></clipPath><clipPath id="f1c0415b23"><path d="M 15 32 L 47 32 L 47 65 L 15 65 Z M 15 32 " clip-rule="nonzero"/></clipPath><clipPath id="220ac1cdf5"><path d="M 15.113281 57.792969 L 39.113281 32.324219 L 46.015625 38.832031 L 22.015625 64.296875 Z M 15.113281 57.792969 " clip-rule="nonzero"/></clipPath><clipPath id="a827239cf7"><path d="M 0.078125 0.160156 L 31.039062 0.160156 L 31.039062 32.320312 L 0.078125 32.320312 Z M 0.078125 0.160156 " clip-rule="nonzero"/></clipPath><clipPath id="81d66d7ac5"><path d="M 0.113281 25.792969 L 24.113281 0.324219 L 31.015625 6.832031 L 7.015625 32.296875 Z M 0.113281 25.792969 " clip-rule="nonzero"/></clipPath><clipPath id="1e9e1f7fa1"><rect x="0" width="32" y="0" height="33"/></clipPath><clipPath id="6fae17de0b"><path d="M 17 33 L 49 33 L 49 66 L 17 66 Z M 17 33 " clip-rule="nonzero"/></clipPath><clipPath id="16327a924a"><path d="M 17.273438 59.246094 L 41.273438 33.78125 L 48.179688 40.285156 L 24.175781 65.753906 Z M 17.273438 59.246094 " clip-rule="nonzero"/></clipPath><clipPath id="e32ffc3087"><path d="M 0.238281 0.601562 L 31.199219 0.601562 L 31.199219 32.761719 L 0.238281 32.761719 Z M 0.238281 0.601562 " clip-rule="nonzero"/></clipPath><clipPath id="db04a0343a"><path d="M 0.273438 26.246094 L 24.273438 0.78125 L 31.179688 7.285156 L 7.175781 32.753906 Z M 0.273438 26.246094 " clip-rule="nonzero"/></clipPath><clipPath id="22aad750e1"><rect x="0" width="32" y="0" height="33"/></clipPath><clipPath id="2b10e54eb4"><path d="M 126 91 L 158 91 L 158 114 L 126 114 Z M 126 91 " clip-rule="nonzero"/></clipPath><clipPath id="43ae1ed846"><path d="M 126.539062 96.085938 L 129.519531 91.335938 L 157.058594 108.609375 L 154.082031 113.359375 Z M 126.539062 96.085938 " clip-rule="nonzero"/></clipPath><clipPath id="0495bfdc7d"><path d="M 0.441406 0.199219 L 31.160156 0.199219 L 31.160156 22.519531 L 0.441406 22.519531 Z M 0.441406 0.199219 " clip-rule="nonzero"/></clipPath><clipPath id="00bd74e0d6"><path d="M 0.539062 5.085938 L 3.519531 0.335938 L 31.058594 17.609375 L 28.082031 22.359375 Z M 0.539062 5.085938 " clip-rule="nonzero"/></clipPath><clipPath id="b09189b999"><rect x="0" width="32" y="0" height="23"/></clipPath><clipPath id="ad9f8fa023"><path d="M 106 78 L 170.601562 78 L 170.601562 133 L 106 133 Z M 106 78 " clip-rule="nonzero"/></clipPath><clipPath id="053c28f0ac"><path d="M 112 72 L 170.601562 72 L 170.601562 126 L 112 126 Z M 112 72 " clip-rule="nonzero"/></clipPath><clipPath id="0957dfaa58"><path d="M 47 24 L 135 24 L 135 132 L 47 132 Z M 47 24 " clip-rule="nonzero"/></clipPath><clipPath id="0d6d1e176b"><path d="M 33.191406 40.273438 L 113.660156 13.113281 L 148.667969 116.839844 L 68.203125 144 Z M 33.191406 40.273438 " clip-rule="nonzero"/></clipPath><clipPath id="63bae94313"><path d="M 73.425781 26.695312 C 51.203125 34.195312 41.011719 63.441406 50.65625 92.019531 C 60.300781 120.59375 86.136719 137.683594 108.355469 130.183594 C 130.574219 122.683594 140.769531 93.433594 131.125 64.859375 C 121.476562 36.28125 95.644531 19.195312 73.425781 26.695312 Z M 73.425781 26.695312 " clip-rule="nonzero"/></clipPath><clipPath id="7c3d3cc506"><path d="M 0 0 L 88 0 L 88 108 L 0 108 Z M 0 0 " clip-rule="nonzero"/></clipPath><clipPath id="51da302a20"><path d="M -13.808594 16.273438 L 66.660156 -10.886719 L 101.667969 92.839844 L 21.203125 120 Z M -13.808594 16.273438 " clip-rule="nonzero"/></clipPath><clipPath id="d107045104"><path d="M 26.425781 2.695312 C 4.203125 10.195312 -5.988281 39.441406 3.65625 68.019531 C 13.300781 96.59375 39.136719 113.683594 61.355469 106.183594 C 83.574219 98.683594 93.769531 69.433594 84.125 40.859375 C 74.476562 12.28125 48.644531 -4.804688 26.425781 2.695312 Z M 26.425781 2.695312 " clip-rule="nonzero"/></clipPath><clipPath id="4fb22a7faa"><rect x="0" width="88" y="0" height="108"/></clipPath><clipPath id="8c5b12a981"><path d="M 47 24 L 135 24 L 135 132 L 47 132 Z M 47 24 " clip-rule="nonzero"/></clipPath><clipPath id="4130e22ef9"><path d="M 33.191406 40.273438 L 113.464844 13.179688 L 148.332031 116.480469 L 68.058594 143.574219 Z M 33.191406 40.273438 " clip-rule="nonzero"/></clipPath><clipPath id="1ee164307c"><path d="M 33.191406 40.277344 L 114.398438 12.871094 L 149.707031 117.476562 L 68.5 144.882812 Z M 33.191406 40.277344 " clip-rule="nonzero"/></clipPath><clipPath id="57a863671a"><path d="M 73.421875 26.699219 C 51.203125 34.199219 41.011719 63.441406 50.65625 92.015625 C 60.300781 120.589844 86.128906 137.675781 108.347656 130.175781 C 130.566406 122.675781 140.757812 93.433594 131.113281 64.859375 C 121.46875 36.285156 95.640625 19.203125 73.421875 26.699219 Z M 73.421875 26.699219 " clip-rule="nonzero"/></clipPath><clipPath id="ffc42087eb"><path d="M 44 31 L 126 31 L 126 131 L 44 131 Z M 44 31 " clip-rule="nonzero"/></clipPath><clipPath id="1d5b5adb07"><path d="M 31.503906 45.703125 L 105.984375 20.5625 L 138.488281 116.863281 L 64.007812 142 Z M 31.503906 45.703125 " clip-rule="nonzero"/></clipPath><clipPath id="9465c7ca93"><path d="M 68.746094 33.132812 C 48.179688 40.074219 38.761719 67.203125 47.714844 93.726562 C 56.667969 120.246094 80.597656 136.121094 101.164062 129.175781 C 121.730469 122.234375 131.144531 95.109375 122.191406 68.585938 C 113.242188 42.0625 89.3125 26.191406 68.746094 33.132812 Z M 68.746094 33.132812 " clip-rule="nonzero"/></clipPath><clipPath id="baf36c3cca"><path d="M 0 0 L 82 0 L 82 100 L 0 100 Z M 0 0 " clip-rule="nonzero"/></clipPath><clipPath id="d2aa35b744"><path d="M -12.496094 14.703125 L 61.984375 -10.4375 L 94.488281 85.863281 L 20.007812 111 Z M -12.496094 14.703125 " clip-rule="nonzero"/></clipPath><clipPath id="45f63e6096"><path d="M 24.746094 2.132812 C 4.179688 9.074219 -5.238281 36.203125 3.714844 62.726562 C 12.667969 89.246094 36.597656 105.121094 57.164062 98.175781 C 77.730469 91.234375 87.144531 64.109375 78.191406 37.585938 C 69.242188 11.0625 45.3125 -4.808594 24.746094 2.132812 Z M 24.746094 2.132812 " clip-rule="nonzero"/></clipPath><clipPath id="dfcd2ace29"><rect x="0" width="82" y="0" height="100"/></clipPath><clipPath id="3dc51bb58e"><path d="M 44 31 L 126 31 L 126 131 L 44 131 Z M 44 31 " clip-rule="nonzero"/></clipPath><clipPath id="59210ea581"><path d="M 31.503906 45.703125 L 105.855469 20.605469 L 138.28125 116.671875 L 63.929688 141.765625 Z M 31.503906 45.703125 " clip-rule="nonzero"/></clipPath><clipPath id="d6ed5a06d8"><path d="M 31.507812 45.707031 L 107.253906 20.136719 L 140 117.148438 L 64.25 142.71875 Z M 31.507812 45.707031 " clip-rule="nonzero"/></clipPath><clipPath id="d7f17e6e92"><path d="M 68.742188 33.136719 C 48.179688 40.078125 38.761719 67.203125 47.714844 93.726562 C 56.664062 120.246094 80.59375 136.117188 101.160156 129.175781 C 121.726562 122.234375 131.140625 95.109375 122.1875 68.585938 C 113.238281 42.066406 89.308594 26.195312 68.742188 33.136719 Z M 68.742188 33.136719 " clip-rule="nonzero"/></clipPath><clipPath id="fa847d032c"><path d="M 51 40 L 119 40 L 119 122 L 51 122 Z M 51 40 " clip-rule="nonzero"/></clipPath><clipPath id="2f9006f2ff"><path d="M 41.3125 52.175781 L 102.191406 31.628906 L 128.757812 110.34375 L 67.882812 130.890625 Z M 41.3125 52.175781 " clip-rule="nonzero"/></clipPath><clipPath id="97b656cbde"><path d="M 71.753906 41.902344 C 54.941406 47.578125 47.246094 69.75 54.5625 91.429688 C 61.878906 113.109375 81.4375 126.082031 98.25 120.40625 C 115.0625 114.734375 122.757812 92.558594 115.441406 70.882812 C 108.121094 49.203125 88.5625 36.230469 71.753906 41.902344 Z M 71.753906 41.902344 " clip-rule="nonzero"/></clipPath><clipPath id="0eadcaa1f8"><path d="M 0 0 L 68 0 L 68 82 L 0 82 Z M 0 0 " clip-rule="nonzero"/></clipPath><clipPath id="aa88f86b0e"><path d="M -9.6875 12.175781 L 51.191406 -8.371094 L 77.757812 70.34375 L 16.882812 90.890625 Z M -9.6875 12.175781 " clip-rule="nonzero"/></clipPath><clipPath id="1e6aeb9b61"><path d="M 20.753906 1.902344 C 3.941406 7.578125 -3.753906 29.75 3.5625 51.429688 C 10.878906 73.109375 30.4375 86.082031 47.25 80.40625 C 64.0625 74.734375 71.757812 52.558594 64.441406 30.882812 C 57.121094 9.203125 37.5625 -3.769531 20.753906 1.902344 Z M 20.753906 1.902344 " clip-rule="nonzero"/></clipPath><clipPath id="d4ce86488b"><rect x="0" width="68" y="0" height="82"/></clipPath><clipPath id="5a20931b33"><path d="M 51 40 L 119 40 L 119 122 L 51 122 Z M 51 40 " clip-rule="nonzero"/></clipPath><clipPath id="616ce82bb7"><path d="M 41.3125 52.175781 L 102.503906 31.523438 L 128.933594 109.820312 L 67.742188 130.476562 Z M 41.3125 52.175781 " clip-rule="nonzero"/></clipPath><clipPath id="00a2a25faa"><path d="M 41.3125 52.179688 L 103.230469 31.28125 L 129.992188 110.578125 L 68.078125 131.476562 Z M 41.3125 52.179688 " clip-rule="nonzero"/></clipPath><clipPath id="e38dbcfbda"><path d="M 71.75 41.90625 C 54.941406 47.582031 47.246094 69.753906 54.5625 91.429688 C 61.878906 113.105469 81.4375 126.078125 98.246094 120.40625 C 115.054688 114.730469 122.75 92.558594 115.433594 70.882812 C 108.117188 49.207031 88.558594 36.234375 71.75 41.90625 Z M 71.75 41.90625 " clip-rule="nonzero"/></clipPath><clipPath id="837b8e2c01"><path d="M 52 47 L 119 47 L 119 123 L 52 123 Z M 52 47 " clip-rule="nonzero"/></clipPath><clipPath id="cb6ad45ed3"><path d="M 42.753906 59.933594 L 103.507812 38.882812 L 128.34375 110.554688 L 67.589844 131.605469 Z M 42.753906 59.933594 " clip-rule="nonzero"/></clipPath><clipPath id="92356f98cc"><path d="M 73.132812 49.410156 C 56.355469 55.222656 48.308594 75.957031 55.15625 95.722656 C 62.003906 115.484375 81.15625 126.792969 97.933594 120.980469 C 114.710938 115.167969 122.757812 94.433594 115.910156 74.667969 C 109.0625 54.90625 89.910156 43.59375 73.132812 49.410156 Z M 73.132812 49.410156 " clip-rule="nonzero"/></clipPath><clipPath id="2e6b829028"><path d="M 0 0 L 67 0 L 67 76 L 0 76 Z M 0 0 " clip-rule="nonzero"/></clipPath><clipPath id="32c2c7f598"><path d="M -9.246094 12.933594 L 51.507812 -8.117188 L 76.34375 63.554688 L 15.589844 84.605469 Z M -9.246094 12.933594 " clip-rule="nonzero"/></clipPath><clipPath id="51a8b905a4"><path d="M 21.132812 2.410156 C 4.355469 8.222656 -3.691406 28.957031 3.15625 48.722656 C 10.003906 68.484375 29.15625 79.792969 45.933594 73.980469 C 62.710938 68.167969 70.757812 47.433594 63.910156 27.667969 C 57.0625 7.90625 37.910156 -3.40625 21.132812 2.410156 Z M 21.132812 2.410156 " clip-rule="nonzero"/></clipPath><clipPath id="02061c4f81"><rect x="0" width="67" y="0" height="76"/></clipPath><clipPath id="67b22220f5"><path d="M 68 55.578125 L 102.347656 55.578125 L 102.347656 106.96875 L 68 106.96875 Z M 68 55.578125 " clip-rule="nonzero"/></clipPath><clipPath id="a3a4cb6cdc"><path d="M 5 116 L 104 116 L 104 196 L 5 196 Z M 5 116 " clip-rule="nonzero"/></clipPath><clipPath id="a331aa0870"><path d="M 5.507812 148.292969 L 24.6875 116.152344 L 103.90625 163.425781 L 84.726562 195.566406 Z M 5.507812 148.292969 " clip-rule="nonzero"/></clipPath><clipPath id="f9f2ba2760"><path d="M 0.480469 0 L 99 0 L 99 79.601562 L 0.480469 79.601562 Z M 0.480469 0 " clip-rule="nonzero"/></clipPath><clipPath id="1c5993bcc1"><path d="M 0.507812 32.292969 L 19.6875 0.152344 L 98.90625 47.425781 L 79.726562 79.566406 Z M 0.507812 32.292969 " clip-rule="nonzero"/></clipPath><clipPath id="e1072b99da"><rect x="0" width="99" y="0" height="80"/></clipPath><clipPath id="1ae476ea88"><path d="M 130.457031 173.578125 L 148.574219 173.578125 L 148.574219 201.851562 L 130.457031 201.851562 Z M 130.457031 173.578125 " clip-rule="nonzero"/></clipPath><clipPath id="065de25bc0"><path d="M 0.457031 0.578125 L 18.574219 0.578125 L 18.574219 28.851562 L 0.457031 28.851562 Z M 0.457031 0.578125 " clip-rule="nonzero"/></clipPath><clipPath id="9be80c12ce"><rect x="0" width="19" y="0" height="29"/></clipPath><clipPath id="ec27f932ae"><path d="M 123 179 L 137 179 L 137 212 L 123 212 Z M 123 179 " clip-rule="nonzero"/></clipPath><clipPath id="28ccb71789"><path d="M 124.097656 211.648438 L 123.28125 179.792969 L 135.347656 179.480469 L 136.164062 211.339844 Z M 124.097656 211.648438 " clip-rule="nonzero"/></clipPath><clipPath id="edf5d73b2d"><path d="M 0.078125 0.28125 L 13.28125 0.28125 L 13.28125 32.679688 L 0.078125 32.679688 Z M 0.078125 0.28125 " clip-rule="nonzero"/></clipPath><clipPath id="d203d46453"><path d="M 1.097656 32.648438 L 0.28125 0.792969 L 12.347656 0.480469 L 13.164062 32.339844 Z M 1.097656 32.648438 " clip-rule="nonzero"/></clipPath><clipPath id="c95e89222d"><rect x="0" width="14" y="0" height="33"/></clipPath><clipPath id="b5f790350b"><path d="M 117 185 L 131 185 L 131 218 L 117 218 Z M 117 185 " clip-rule="nonzero"/></clipPath><clipPath id="2718952667"><path d="M 118.394531 217.398438 L 117.578125 185.539062 L 129.644531 185.230469 L 130.460938 217.089844 Z M 118.394531 217.398438 " clip-rule="nonzero"/></clipPath><clipPath id="1ec7853a49"><path d="M 0.558594 0.0390625 L 13.519531 0.0390625 L 13.519531 32.441406 L 0.558594 32.441406 Z M 0.558594 0.0390625 " clip-rule="nonzero"/></clipPath><clipPath id="44b6c8a8c1"><path d="M 1.394531 32.398438 L 0.578125 0.539062 L 12.644531 0.230469 L 13.460938 32.089844 Z M 1.394531 32.398438 " clip-rule="nonzero"/></clipPath><clipPath id="6e0607d58f"><rect x="0" width="14" y="0" height="33"/></clipPath><clipPath id="d39d2bb6dd"><path d="M 37 135 L 137 135 L 137 216 L 37 216 Z M 37 135 " clip-rule="nonzero"/></clipPath><clipPath id="b64e361ec2"><path d="M 37.769531 167.867188 L 56.949219 135.726562 L 136.164062 183 L 116.984375 215.140625 Z M 37.769531 167.867188 " clip-rule="nonzero"/></clipPath><clipPath id="c33f5a4a01"><path d="M 0.640625 0.601562 L 99.28125 0.601562 L 99.28125 80.28125 L 0.640625 80.28125 Z M 0.640625 0.601562 " clip-rule="nonzero"/></clipPath><clipPath id="e5bf6430f4"><path d="M 0.769531 32.867188 L 19.949219 0.726562 L 99.164062 48 L 79.984375 80.140625 Z M 0.769531 32.867188 " clip-rule="nonzero"/></clipPath><clipPath id="aee6f50690"><rect x="0" width="100" y="0" height="81"/></clipPath><clipPath id="3a5ce4ede1"><path d="M 118 162 L 147 162 L 147 186 L 118 186 Z M 118 162 " clip-rule="nonzero"/></clipPath><clipPath id="442c3eb5cd"><path d="M 118.648438 175.648438 L 140.042969 162.398438 L 146.347656 172.578125 L 124.957031 185.832031 Z M 118.648438 175.648438 " clip-rule="nonzero"/></clipPath><clipPath id="6ccf495d07"><path d="M 0.519531 0.238281 L 28.359375 0.238281 L 28.359375 24 L 0.519531 24 Z M 0.519531 0.238281 " clip-rule="nonzero"/></clipPath><clipPath id="b1fa25dfd6"><path d="M 0.648438 13.648438 L 22.042969 0.398438 L 28.347656 10.578125 L 6.957031 23.832031 Z M 0.648438 13.648438 " clip-rule="nonzero"/></clipPath><clipPath id="4728feef20"><rect x="0" width="29" y="0" height="24"/></clipPath><clipPath id="8f5e1fcf35"><path d="M 111 126 L 125 126 L 125 159 L 111 159 Z M 111 126 " clip-rule="nonzero"/></clipPath><clipPath id="811de406fc"><path d="M 111.953125 158.691406 L 111.136719 126.832031 L 123.203125 126.523438 L 124.019531 158.378906 Z M 111.953125 158.691406 " clip-rule="nonzero"/></clipPath><clipPath id="1155b8dfd9"><path d="M 0.078125 0.480469 L 13.039062 0.480469 L 13.039062 32.878906 L 0.078125 32.878906 Z M 0.078125 0.480469 " clip-rule="nonzero"/></clipPath><clipPath id="9014499c56"><path d="M 0.953125 32.691406 L 0.136719 0.832031 L 12.203125 0.523438 L 13.019531 32.378906 Z M 0.953125 32.691406 " clip-rule="nonzero"/></clipPath><clipPath id="31d6337d47"><rect x="0" width="14" y="0" height="33"/></clipPath><clipPath id="8571635f5c"><path d="M 45 109 L 123 109 L 123 175 L 45 175 Z M 45 109 " clip-rule="nonzero"/></clipPath><clipPath id="c7d4099dd2"><path d="M 45.527344 141.761719 L 63.640625 109.007812 L 123 141.835938 L 104.886719 174.589844 Z M 45.527344 141.761719 " clip-rule="nonzero"/></clipPath><clipPath id="8739672fda"><path d="M 0.320312 0 L 78 0 L 78 65.71875 L 0.320312 65.71875 Z M 0.320312 0 " clip-rule="nonzero"/></clipPath><clipPath id="745093f8fa"><path d="M 0.527344 32.761719 L 18.640625 0.0078125 L 78 32.835938 L 59.886719 65.589844 Z M 0.527344 32.761719 " clip-rule="nonzero"/></clipPath><clipPath id="e2feb4173b"><rect x="0" width="78" y="0" height="66"/></clipPath><clipPath id="7fe54818ee"><path d="M 21 91 L 62 91 L 62 162 L 21 162 Z M 21 91 " clip-rule="nonzero"/></clipPath><clipPath id="c408db6f78"><path d="M 23.96875 91.964844 L 61.371094 93.292969 L 58.960938 161.085938 L 21.558594 159.753906 Z M 23.96875 91.964844 " clip-rule="nonzero"/></clipPath><clipPath id="bd6d87a310"><path d="M 0.320312 0.921875 L 40.398438 0.921875 L 40.398438 70.28125 L 0.320312 70.28125 Z M 0.320312 0.921875 " clip-rule="nonzero"/></clipPath><clipPath id="8bd7f16abd"><path d="M 2.96875 0.964844 L 40.371094 2.292969 L 37.960938 70.085938 L 0.558594 68.753906 Z M 2.96875 0.964844 " clip-rule="nonzero"/></clipPath><clipPath id="1573a3998d"><rect x="0" width="41" y="0" height="71"/></clipPath><clipPath id="8f89d054aa"><path d="M 9 85 L 50 85 L 50 155 L 9 155 Z M 9 85 " clip-rule="nonzero"/></clipPath><clipPath id="be2bf451a3"><path d="M 12.222656 85.566406 L 49.625 86.894531 L 47.214844 154.683594 L 9.8125 153.355469 Z M 12.222656 85.566406 " clip-rule="nonzero"/></clipPath><clipPath id="d172129689"><path d="M 0.800781 0.441406 L 40.640625 0.441406 L 40.640625 69.800781 L 0.800781 69.800781 Z M 0.800781 0.441406 " clip-rule="nonzero"/></clipPath><clipPath id="b74aca46b0"><path d="M 3.222656 0.566406 L 40.625 1.894531 L 38.214844 69.683594 L 0.8125 68.355469 Z M 3.222656 0.566406 " clip-rule="nonzero"/></clipPath><clipPath id="1bdc6813f6"><rect x="0" width="41" y="0" height="70"/></clipPath><clipPath id="16762fed5e"><path d="M 4.679688 59.363281 L 11.277344 59.363281 L 11.277344 151.097656 L 4.679688 151.097656 Z M 4.679688 59.363281 " clip-rule="nonzero"/></clipPath><clipPath id="1f22691db6"><path d="M 0.679688 0.363281 L 7.277344 0.363281 L 7.277344 92.097656 L 0.679688 92.097656 Z M 0.679688 0.363281 " clip-rule="nonzero"/></clipPath><clipPath id="2c307781a5"><rect x="0" width="8" y="0" height="93"/></clipPath><clipPath id="1acb823890"><path d="M 9.34375 62.949219 L 17.933594 62.949219 L 17.933594 149.328125 L 9.34375 149.328125 Z M 9.34375 62.949219 " clip-rule="nonzero"/></clipPath><clipPath id="093f0a2807"><path d="M 0.34375 0.949219 L 8.933594 0.949219 L 8.933594 87.328125 L 0.34375 87.328125 Z M 0.34375 0.949219 " clip-rule="nonzero"/></clipPath><clipPath id="f0c2e6579f"><rect x="0" width="9" y="0" height="88"/></clipPath><clipPath id="155f4cc8e1"><path d="M 17.273438 65.753906 L 23.867188 65.753906 L 23.867188 157.492188 L 17.273438 157.492188 Z M 17.273438 65.753906 " clip-rule="nonzero"/></clipPath><clipPath id="ee2179498a"><path d="M 0.273438 0.753906 L 6.867188 0.753906 L 6.867188 92.492188 L 0.273438 92.492188 Z M 0.273438 0.753906 " clip-rule="nonzero"/></clipPath><clipPath id="b037a98ca1"><rect x="0" width="7" y="0" height="93"/></clipPath><clipPath id="4bde2b9a1b"><path d="M 15 68 L 123 68 L 123 139 L 15 139 Z M 15 68 " clip-rule="nonzero"/></clipPath><clipPath id="1d7a7ebf24"><path d="M 23.035156 68.375 L 122.996094 124.726562 L 115.066406 138.789062 L 15.109375 82.4375 Z M 23.035156 68.375 " clip-rule="nonzero"/></clipPath><clipPath id="529388db33"><path d="M 0.078125 0.160156 L 108 0.160156 L 108 70.960938 L 0.078125 70.960938 Z M 0.078125 0.160156 " clip-rule="nonzero"/></clipPath><clipPath id="b733930e29"><path d="M 8.035156 0.375 L 107.996094 56.726562 L 100.066406 70.789062 L 0.109375 14.4375 Z M 8.035156 0.375 " clip-rule="nonzero"/></clipPath><clipPath id="82eb169474"><rect x="0" width="108" y="0" height="71"/></clipPath><clipPath id="13974243c3"><path d="M 17 94 L 95 94 L 95 160 L 17 160 Z M 17 94 " clip-rule="nonzero"/></clipPath><clipPath id="64326954c3"><path d="M 17.082031 126.902344 L 35.195312 94.152344 L 94.554688 126.980469 L 76.441406 159.730469 Z M 17.082031 126.902344 " clip-rule="nonzero"/></clipPath><clipPath id="91e31f48b6"><path d="M 0 0.078125 L 77.761719 0.078125 L 77.761719 65.839844 L 0 65.839844 Z M 0 0.078125 " clip-rule="nonzero"/></clipPath><clipPath id="fa6009ffd4"><path d="M 0.0820312 32.902344 L 18.195312 0.152344 L 77.554688 32.980469 L 59.441406 65.730469 Z M 0.0820312 32.902344 " clip-rule="nonzero"/></clipPath><clipPath id="7f27c11cb2"><rect x="0" width="78" y="0" height="66"/></clipPath><clipPath id="381341e372"><path d="M 20 57 L 134 57 L 134 130 L 20 130 Z M 20 57 " clip-rule="nonzero"/></clipPath><clipPath id="f439045bb5"><path d="M 26.640625 57.144531 L 133.953125 119.167969 L 127.882812 129.667969 L 20.574219 67.644531 Z M 26.640625 57.144531 " clip-rule="nonzero"/></clipPath><clipPath id="de29a0cd4e"><path d="M 0.359375 0.121094 L 114 0.121094 L 114 72.839844 L 0.359375 72.839844 Z M 0.359375 0.121094 " clip-rule="nonzero"/></clipPath><clipPath id="8743a0284b"><path d="M 6.640625 0.144531 L 113.953125 62.167969 L 107.882812 72.667969 L 0.574219 10.644531 Z M 6.640625 0.144531 " clip-rule="nonzero"/></clipPath><clipPath id="3ea6802ff9"><rect x="0" width="114" y="0" height="73"/></clipPath><clipPath id="4354f2524e"><path d="M 9 32 L 44 32 L 44 62 L 9 62 Z M 9 32 " clip-rule="nonzero"/></clipPath><clipPath id="0e73c8e32e"><path d="M 9.8125 54.0625 L 37.371094 32.492188 L 43.21875 39.960938 L 15.660156 61.53125 Z M 9.8125 54.0625 " clip-rule="nonzero"/></clipPath><clipPath id="7d9057194b"><path d="M 0.800781 0.398438 L 34.398438 0.398438 L 34.398438 29.679688 L 0.800781 29.679688 Z M 0.800781 0.398438 " clip-rule="nonzero"/></clipPath><clipPath id="9f40c568f8"><path d="M 0.8125 22.0625 L 28.371094 0.492188 L 34.21875 7.960938 L 6.660156 29.53125 Z M 0.8125 22.0625 " clip-rule="nonzero"/></clipPath><clipPath id="32f8ecc2fe"><rect x="0" width="35" y="0" height="30"/></clipPath><clipPath id="510b7297fb"><path d="M 7 50 L 43 50 L 43 77 L 7 77 Z M 7 50 " clip-rule="nonzero"/></clipPath><clipPath id="bbefb65aad"><path d="M 37.347656 76.546875 L 7.109375 58.925781 L 11.886719 50.730469 L 42.121094 68.351562 Z M 37.347656 76.546875 " clip-rule="nonzero"/></clipPath><clipPath id="f69e692fbc"><path d="M 0 0.640625 L 35.199219 0.640625 L 35.199219 26.558594 L 0 26.558594 Z M 0 0.640625 " clip-rule="nonzero"/></clipPath><clipPath id="84800462f8"><path d="M 30.347656 26.546875 L 0.109375 8.925781 L 4.886719 0.730469 L 35.121094 18.351562 Z M 30.347656 26.546875 " clip-rule="nonzero"/></clipPath><clipPath id="a0ff9ce761"><rect x="0" width="36" y="0" height="27"/></clipPath><clipPath id="7bea2651e9"><path d="M 0.679688 36 L 146 36 L 146 147 L 0.679688 147 Z M 0.679688 36 " clip-rule="nonzero"/></clipPath><clipPath id="04f7a310d1"><path d="M 0.679688 12 L 59 12 L 59 78 L 0.679688 78 Z M 0.679688 12 " clip-rule="nonzero"/></clipPath><clipPath id="73828c7096"><path d="M 0.679688 129 L 145 129 L 145 222 L 0.679688 222 Z M 0.679688 129 " clip-rule="nonzero"/></clipPath><clipPath id="b40fd603f3"><path d="M 104 188 L 157 188 L 157 222 L 104 222 Z M 104 188 " clip-rule="nonzero"/></clipPath><clipPath id="cb8781ed92"><path d="M 91 155 L 126 155 L 126 183 L 91 183 Z M 91 155 " clip-rule="nonzero"/></clipPath><clipPath id="c2e21b8734"><path d="M 91.214844 168.285156 L 97.957031 155.035156 L 125.113281 168.855469 L 118.371094 182.101562 Z M 91.214844 168.285156 " clip-rule="nonzero"/></clipPath><clipPath id="13be895f94"><path d="M 0.160156 0 L 34.238281 0 L 34.238281 27.160156 L 0.160156 27.160156 Z M 0.160156 0 " clip-rule="nonzero"/></clipPath><clipPath id="322e06986f"><path d="M 0.214844 13.285156 L 6.957031 0.0351562 L 34.113281 13.855469 L 27.371094 27.101562 Z M 0.214844 13.285156 " clip-rule="nonzero"/></clipPath><clipPath id="6f5dc79292"><rect x="0" width="35" y="0" height="28"/></clipPath><clipPath id="8fbd28f278"><path d="M 122 155 L 157 155 L 157 184 L 122 184 Z M 122 155 " clip-rule="nonzero"/></clipPath><clipPath id="71c3405020"><path d="M 129.992188 183.351562 L 122.996094 170.234375 L 149.882812 155.894531 L 156.878906 169.011719 Z M 129.992188 183.351562 " clip-rule="nonzero"/></clipPath><clipPath id="6af1679e05"><path d="M 0.839844 0.761719 L 34.921875 0.761719 L 34.921875 28.359375 L 0.839844 28.359375 Z M 0.839844 0.761719 " clip-rule="nonzero"/></clipPath><clipPath id="2fbc0274dd"><path d="M 7.992188 28.351562 L 0.996094 15.234375 L 27.882812 0.894531 L 34.878906 14.011719 Z M 7.992188 28.351562 " clip-rule="nonzero"/></clipPath><clipPath id="f1dbfdb32e"><rect x="0" width="35" y="0" height="29"/></clipPath><clipPath id="79d5b598af"><path d="M 125 159 L 135 159 L 135 181 L 125 181 Z M 125 159 " clip-rule="nonzero"/></clipPath><clipPath id="523997ee49"><path d="M 125.953125 180.570312 L 125.574219 159.664062 L 134.1875 159.507812 L 134.566406 180.414062 Z M 125.953125 180.570312 " clip-rule="nonzero"/></clipPath><clipPath id="beb2c73067"><path d="M 0.480469 0.359375 L 9.601562 0.359375 L 9.601562 21.71875 L 0.480469 21.71875 Z M 0.480469 0.359375 " clip-rule="nonzero"/></clipPath><clipPath id="a886e99360"><path d="M 0.953125 21.570312 L 0.574219 0.664062 L 9.1875 0.507812 L 9.566406 21.414062 Z M 0.953125 21.570312 " clip-rule="nonzero"/></clipPath><clipPath id="ad84c1ada0"><rect x="0" width="10" y="0" height="22"/></clipPath><clipPath id="72a28da60d"><path d="M 98 159 L 133 159 L 133 187 L 98 187 Z M 98 159 " clip-rule="nonzero"/></clipPath><clipPath id="b7e59a1e2b"><path d="M 98.324219 172.292969 L 105.0625 159.046875 L 132.21875 172.863281 L 125.476562 186.113281 Z M 98.324219 172.292969 " clip-rule="nonzero"/></clipPath><clipPath id="f0b4ea9492"><path d="M 0.121094 0 L 34.441406 0 L 34.441406 27.238281 L 0.121094 27.238281 Z M 0.121094 0 " clip-rule="nonzero"/></clipPath><clipPath id="48348b4b41"><path d="M 0.324219 13.292969 L 7.0625 0.046875 L 34.21875 13.863281 L 27.476562 27.113281 Z M 0.324219 13.292969 " clip-rule="nonzero"/></clipPath><clipPath id="76d98ec34f"><rect x="0" width="35" y="0" height="28"/></clipPath><clipPath id="97cb8c3939"><path d="M 153 141 L 163 141 L 163 163 L 153 163 Z M 153 141 " clip-rule="nonzero"/></clipPath><clipPath id="63668e1ae0"><path d="M 154.140625 162.722656 L 153.761719 141.820312 L 162.375 141.664062 L 162.75 162.566406 Z M 154.140625 162.722656 " clip-rule="nonzero"/></clipPath><clipPath id="c3f13841a4"><path d="M 0.558594 0.601562 L 9.921875 0.601562 L 9.921875 21.960938 L 0.558594 21.960938 Z M 0.558594 0.601562 " clip-rule="nonzero"/></clipPath><clipPath id="a4b656c198"><path d="M 1.140625 21.722656 L 0.761719 0.820312 L 9.375 0.664062 L 9.75 21.566406 Z M 1.140625 21.722656 " clip-rule="nonzero"/></clipPath><clipPath id="b536590dbc"><rect x="0" width="10" y="0" height="22"/></clipPath><clipPath id="4c450aa7ff"><path d="M 158 137 L 168 137 L 168 160 L 158 160 Z M 158 137 " clip-rule="nonzero"/></clipPath><clipPath id="e44dd17574"><path d="M 159.164062 159.035156 L 158.785156 138.132812 L 167.398438 137.976562 L 167.777344 158.878906 Z M 159.164062 159.035156 " clip-rule="nonzero"/></clipPath><clipPath id="07d5b95881"><path d="M 0.601562 0.761719 L 9.960938 0.761719 L 9.960938 22.121094 L 0.601562 22.121094 Z M 0.601562 0.761719 " clip-rule="nonzero"/></clipPath><clipPath id="64e0b3d044"><path d="M 1.164062 22.035156 L 0.785156 1.132812 L 9.398438 0.976562 L 9.777344 21.878906 Z M 1.164062 22.035156 " clip-rule="nonzero"/></clipPath><clipPath id="f14e88689e"><rect x="0" width="10" y="0" height="23"/></clipPath><clipPath id="fab650bc1a"><path d="M 131 144 L 168 144 L 168 177 L 131 177 Z M 131 144 " clip-rule="nonzero"/></clipPath><clipPath id="e167ae080f"><path d="M 141.722656 176.925781 L 131.460938 160.039062 L 157.503906 144.21875 L 167.761719 161.105469 Z M 141.722656 176.925781 " clip-rule="nonzero"/></clipPath><clipPath id="4dd0402cca"><path d="M 0.238281 0 L 36.960938 0 L 36.960938 33 L 0.238281 33 Z M 0.238281 0 " clip-rule="nonzero"/></clipPath><clipPath id="e07fc487ae"><path d="M 10.722656 32.925781 L 0.460938 16.039062 L 26.503906 0.21875 L 36.761719 17.105469 Z M 10.722656 32.925781 " clip-rule="nonzero"/></clipPath><clipPath id="496a086cac"><rect x="0" width="37" y="0" height="33"/></clipPath><clipPath id="88b4a84969"><path d="M 90 145 L 98 145 L 98 170 L 90 170 Z M 90 145 " clip-rule="nonzero"/></clipPath><clipPath id="4b3de99404"><path d="M 91.328125 169.617188 L 90.414062 145.339844 L 96.582031 145.109375 L 97.496094 169.382812 Z M 91.328125 169.617188 " clip-rule="nonzero"/></clipPath><clipPath id="ee1587ceed"><path d="M 0.199219 0 L 7.640625 0 L 7.640625 24.679688 L 0.199219 24.679688 Z M 0.199219 0 " clip-rule="nonzero"/></clipPath><clipPath id="8598685d48"><path d="M 1.328125 24.617188 L 0.414062 0.339844 L 6.582031 0.109375 L 7.496094 24.382812 Z M 1.328125 24.617188 " clip-rule="nonzero"/></clipPath><clipPath id="36d847e1c7"><rect x="0" width="8" y="0" height="25"/></clipPath><clipPath id="a56c841c88"><path d="M 89 145 L 123 145 L 123 173 L 89 173 Z M 89 145 " clip-rule="nonzero"/></clipPath><clipPath id="91d3e9273f"><path d="M 89.101562 158.40625 L 95.84375 145.160156 L 122.996094 158.976562 L 116.257812 172.226562 Z M 89.101562 158.40625 " clip-rule="nonzero"/></clipPath><clipPath id="346e61fdec"><path d="M 0 0 L 34 0 L 34 27.320312 L 0 27.320312 Z M 0 0 " clip-rule="nonzero"/></clipPath><clipPath id="fe211a62fa"><path d="M 0.101562 13.40625 L 6.84375 0.160156 L 33.996094 13.976562 L 27.257812 27.226562 Z M 0.101562 13.40625 " clip-rule="nonzero"/></clipPath><clipPath id="c0fca29d00"><rect x="0" width="34" y="0" height="28"/></clipPath><clipPath id="2a01c21a83"><path d="M 136 147 L 170.601562 147 L 170.601562 216 L 136 216 Z M 136 147 " clip-rule="nonzero"/></clipPath><clipPath id="b086164931"><path d="M 130 174 L 170.601562 174 L 170.601562 221 L 130 221 Z M 130 174 " clip-rule="nonzero"/></clipPath><clipPath id="4ba012554f"><path d="M 104 141 L 170.601562 141 L 170.601562 208 L 104 208 Z M 104 141 " clip-rule="nonzero"/></clipPath><clipPath id="7cf8f0465e"><path d="M 124 120 L 137 120 L 137 173 L 124 173 Z M 124 120 " clip-rule="nonzero"/></clipPath><clipPath id="d8793e41e0"><path d="M 124.019531 121.148438 L 134.671875 120.84375 L 136.164062 172.578125 L 125.507812 172.886719 Z M 124.019531 121.148438 " clip-rule="nonzero"/></clipPath><clipPath id="8b18f740e5"><path d="M 0 0.71875 L 12.28125 0.71875 L 12.28125 53 L 0 53 Z M 0 0.71875 " clip-rule="nonzero"/></clipPath><clipPath id="86dfffbfa3"><path d="M 0.0195312 1.148438 L 10.671875 0.84375 L 12.164062 52.578125 L 1.507812 52.886719 Z M 0.0195312 1.148438 " clip-rule="nonzero"/></clipPath><clipPath id="50a14932cd"><rect x="0" width="13" y="0" height="53"/></clipPath><clipPath id="a1acb3b3e9"><path d="M 127 137 L 166 137 L 166 165 L 127 165 Z M 127 137 " clip-rule="nonzero"/></clipPath><clipPath id="49a4fd8581"><path d="M 127.351562 155.488281 L 160.5 137.6875 L 165.34375 146.707031 L 132.195312 164.507812 Z M 127.351562 155.488281 " clip-rule="nonzero"/></clipPath><clipPath id="8ba38254e8"><path d="M 0.160156 0.519531 L 38.558594 0.519531 L 38.558594 27.640625 L 0.160156 27.640625 Z M 0.160156 0.519531 " clip-rule="nonzero"/></clipPath><clipPath id="34b5d640af"><path d="M 0.351562 18.488281 L 33.5 0.6875 L 38.34375 9.707031 L 5.195312 27.507812 Z M 0.351562 18.488281 " clip-rule="nonzero"/></clipPath><clipPath id="66675e6ab3"><rect x="0" width="39" y="0" height="28"/></clipPath><clipPath id="830866af59"><path d="M 115.25 159.734375 L 134.738281 159.734375 L 134.738281 170.761719 L 115.25 170.761719 Z M 115.25 159.734375 " clip-rule="nonzero"/></clipPath><clipPath id="5b0e70b530"><path d="M 0.25 0.734375 L 19.738281 0.734375 L 19.738281 11.761719 L 0.25 11.761719 Z M 0.25 0.734375 " clip-rule="nonzero"/></clipPath><clipPath id="c199953cc8"><rect x="0" width="20" y="0" height="12"/></clipPath><clipPath id="f03935fb76"><path d="M 93 136 L 130 136 L 130 158 L 93 158 Z M 93 136 " clip-rule="nonzero"/></clipPath><clipPath id="e936684d5f"><path d="M 96.847656 136.632812 L 129.066406 150.566406 L 125.910156 157.863281 L 93.691406 143.925781 Z M 96.847656 136.632812 " clip-rule="nonzero"/></clipPath><clipPath id="3a345394af"><path d="M 0.558594 0.558594 L 36.078125 0.558594 L 36.078125 21.921875 L 0.558594 21.921875 Z M 0.558594 0.558594 " clip-rule="nonzero"/></clipPath><clipPath id="f925472ed9"><path d="M 3.847656 0.632812 L 36.066406 14.566406 L 32.910156 21.863281 L 0.691406 7.925781 Z M 3.847656 0.632812 " clip-rule="nonzero"/></clipPath><clipPath id="273fa8eaae"><rect x="0" width="37" y="0" height="22"/></clipPath><clipPath id="4b8f067cda"><path d="M 104 136 L 124 136 L 124 150 L 104 150 Z M 104 136 " clip-rule="nonzero"/></clipPath><clipPath id="320f90fcd7"><path d="M 107.089844 136.042969 L 123.839844 145.996094 L 121.699219 149.597656 L 104.949219 139.644531 Z M 107.089844 136.042969 " clip-rule="nonzero"/></clipPath><clipPath id="2afb610021"><path d="M 0.839844 0 L 20 0 L 20 13.761719 L 0.839844 13.761719 Z M 0.839844 0 " clip-rule="nonzero"/></clipPath><clipPath id="19191f5d82"><path d="M 3.089844 0.0429688 L 19.839844 9.996094 L 17.699219 13.597656 L 0.949219 3.644531 Z M 3.089844 0.0429688 " clip-rule="nonzero"/></clipPath><clipPath id="08ec4d7e89"><rect x="0" width="20" y="0" height="14"/></clipPath><clipPath id="5dd2e69759"><path d="M 150.546875 109.292969 L 156.152344 109.292969 L 156.152344 141.800781 L 150.546875 141.800781 Z M 150.546875 109.292969 " clip-rule="nonzero"/></clipPath><clipPath id="97539c6373"><path d="M 0.546875 0.292969 L 6.152344 0.292969 L 6.152344 32.800781 L 0.546875 32.800781 Z M 0.546875 0.292969 " clip-rule="nonzero"/></clipPath><clipPath id="f042ed4445"><rect x="0" width="7" y="0" height="33"/></clipPath><clipPath id="eef18ffc5e"><path d="M 136 85 L 170.601562 85 L 170.601562 157 L 136 157 Z M 136 85 " clip-rule="nonzero"/></clipPath><clipPath id="2c33fb7a63"><path d="M 107 115 L 170.601562 115 L 170.601562 175 L 107 175 Z M 107 115 " clip-rule="nonzero"/></clipPath><clipPath id="2f77f38a4c"><path d="M 137 112 L 170.601562 112 L 170.601562 155 L 137 155 Z M 137 112 " clip-rule="nonzero"/></clipPath><clipPath id="a1b2689e8b"><path d="M 106 115 L 170.601562 115 L 170.601562 182 L 106 182 Z M 106 115 " clip-rule="nonzero"/></clipPath><clipPath id="803126c507"><path d="M 146 114 L 170.601562 114 L 170.601562 183 L 146 183 Z M 146 114 " clip-rule="nonzero"/></clipPath><clipPath id="593fca7bcd"><path d="M 98.378906 157.355469 L 107.0625 157.355469 L 107.0625 166.847656 L 98.378906 166.847656 Z M 98.378906 157.355469 " clip-rule="nonzero"/></clipPath><clipPath id="9cc74c1186"><path d="M 102.71875 157.355469 C 100.324219 157.355469 98.378906 159.457031 98.378906 162.046875 C 98.378906 164.636719 100.324219 166.738281 102.71875 166.738281 C 105.117188 166.738281 107.0625 164.636719 107.0625 162.046875 C 107.0625 159.457031 105.117188 157.355469 102.71875 157.355469 Z M 102.71875 157.355469 " clip-rule="nonzero"/></clipPath><clipPath id="24bf5de855"><path d="M 129 90 L 170.601562 90 L 170.601562 161 L 129 161 Z M 129 90 " clip-rule="nonzero"/></clipPath><clipPath id="f0bfbacb7e"><rect x="0" width="171" y="0" height="222"/></clipPath><clipPath id="739be97daa"><path d="M 427.535156 290.5 L 468.035156 290.5 L 468.035156 331.75 L 427.535156 331.75 Z M 427.535156 290.5 " clip-rule="nonzero"/></clipPath></defs><g clip-path="url(#eb4e2bbbe2)"><g clip-path="url(#71d48626bd)"><g transform="matrix(1, 0, 0, 1, 369, 354)"><g clip-path="url(#94a06ec25a)"><g clip-path="url(#b3a764f141)"><g clip-path="url(#22bdd77f9f)"><path fill="#000000" d="M 9.574219 0.5625 L 78.792969 9.96875 L 69.246094 80.269531 L 0.0234375 70.867188 Z M 9.574219 0.5625 " fill-opacity="1" fill-rule="nonzero"/></g></g></g></g></g></g><g clip-path="url(#489ef260f0)"><g clip-path="url(#756d4e1b81)"><g transform="matrix(1, 0, 0, 1, 309, 297)"><g clip-path="url(#b314bf181a)"><g clip-path="url(#72284ddd59)"><g clip-path="url(#02a7087f01)"><path fill="#000000" d="M 14.398438 0.449219 L 60.683594 15.074219 L 46.609375 59.617188 L 0.324219 44.996094 Z M 14.398438 0.449219 " fill-opacity="1" fill-rule="nonzero"/></g></g></g></g></g></g><g transform="matrix(1, 0, 0, 1, 289, 258)"><g clip-path="url(#f0bfbacb7e)"><g clip-path="url(#f30b775074)"><g clip-path="url(#e3143c0417)"><g transform="matrix(1, 0, 0, 1, 121, 133)"><g clip-path="url(#53b4b81502)"><g clip-path="url(#356834400a)"><g clip-path="url(#c4514d9e23)"><path fill="#ffffff" d="M 0.445312 30 L 39.300781 0.113281 L 45.828125 8.601562 L 6.976562 38.488281 Z M 0.445312 30 " fill-opacity="1" fill-rule="nonzero"/></g></g></g></g></g></g><g clip-path="url(#1078f5ba84)"><g clip-path="url(#94eedd0380)"><g transform="matrix(1, 0, 0, 1, 40, 37)"><g clip-path="url(#a6a13591f5)"><g clip-path="url(#bba3ab0f85)"><g clip-path="url(#2dd26dff62)"><path fill="#ffffff" d="M 30.929688 26.640625 L 0.707031 9.027344 L 5.484375 0.832031 L 35.707031 18.445312 Z M 30.929688 26.640625 " fill-opacity="1" fill-rule="nonzero"/></g></g></g></g></g></g><path stroke-linecap="butt" transform="matrix(-0.601407, -0.347222, 0.347222, -0.601407, 64.212632, 62.595561)" fill="none" stroke-linejoin="miter" d="M -0.00290366 2.498841 L 40.553138 2.498963 " stroke="#000000" stroke-width="5" stroke-opacity="1" stroke-miterlimit="4"/><g clip-path="url(#f1c0415b23)"><g clip-path="url(#220ac1cdf5)"><g transform="matrix(1, 0, 0, 1, 15, 32)"><g clip-path="url(#1e9e1f7fa1)"><g clip-path="url(#a827239cf7)"><g clip-path="url(#81d66d7ac5)"><path fill="#ffffff" d="M 0.113281 25.792969 L 24.101562 0.335938 L 31.007812 6.84375 L 7.015625 32.296875 Z M 0.113281 25.792969 " fill-opacity="1" fill-rule="nonzero"/></g></g></g></g></g></g><g clip-path="url(#6fae17de0b)"><g clip-path="url(#16327a924a)"><g transform="matrix(1, 0, 0, 1, 17, 33)"><g clip-path="url(#22aad750e1)"><g clip-path="url(#e32ffc3087)"><g clip-path="url(#db04a0343a)"><path fill="#ffffff" d="M 0.273438 26.246094 L 24.265625 0.789062 L 31.167969 7.296875 L 7.175781 32.753906 Z M 0.273438 26.246094 " fill-opacity="1" fill-rule="nonzero"/></g></g></g></g></g></g><path stroke-linecap="butt" transform="matrix(-0.601407, -0.347222, 0.347222, -0.601407, 61.259888, 47.909448)" fill="none" stroke-linejoin="miter" d="M -0.00142962 2.500297 L 40.554612 2.500419 " stroke="#000000" stroke-width="5" stroke-opacity="1" stroke-miterlimit="4"/><g clip-path="url(#2b10e54eb4)"><g clip-path="url(#43ae1ed846)"><g transform="matrix(1, 0, 0, 1, 126, 91)"><g clip-path="url(#b09189b999)"><g clip-path="url(#0495bfdc7d)"><g clip-path="url(#00bd74e0d6)"><path fill="#ffffff" d="M 0.539062 5.085938 L 3.519531 0.335938 L 31.058594 17.609375 L 28.082031 22.359375 Z M 0.539062 5.085938 " fill-opacity="1" fill-rule="nonzero"/></g></g></g></g></g></g><g clip-path="url(#ad9f8fa023)"><path stroke-linecap="butt" transform="matrix(-0.601407, -0.347222, 0.347222, -0.601407, 149.734336, 113.951368)" fill="none" stroke-linejoin="miter" d="M 0.0000493314 2.497699 L 40.551219 2.500634 " stroke="#000000" stroke-width="5" stroke-opacity="1" stroke-miterlimit="4"/></g><g clip-path="url(#053c28f0ac)"><path stroke-linecap="butt" transform="matrix(-0.601407, -0.347222, 0.347222, -0.601407, 155.73633, 107.737327)" fill="none" stroke-linejoin="miter" d="M -0.00175749 2.500076 L 40.554284 2.500199 " stroke="#000000" stroke-width="5" stroke-opacity="1" stroke-miterlimit="4"/></g><g clip-path="url(#0957dfaa58)"><g clip-path="url(#0d6d1e176b)"><g clip-path="url(#63bae94313)"><g transform="matrix(1, 0, 0, 1, 47, 24)"><g clip-path="url(#4fb22a7faa)"><g clip-path="url(#7c3d3cc506)"><g clip-path="url(#51da302a20)"><g clip-path="url(#d107045104)"><path fill="#ffffff" d="M -13.808594 16.273438 L 66.660156 -10.886719 L 101.5625 92.527344 L 21.097656 119.6875 Z M -13.808594 16.273438 " fill-opacity="1" fill-rule="nonzero"/></g></g></g></g></g></g></g></g><g clip-path="url(#8c5b12a981)"><g clip-path="url(#4130e22ef9)"><g clip-path="url(#1ee164307c)"><g clip-path="url(#57a863671a)"><path stroke-linecap="butt" transform="matrix(0.657974, -0.222088, 0.222088, 0.657974, 33.192692, 40.279136)" fill="none" stroke-linejoin="miter" d="M 61.141547 -0.00171391 C 27.372923 -0.00110378 0.00137159 35.202859 0.00109932 78.630331 C 0.000827052 122.057803 27.371649 157.263835 61.140274 157.263225 C 94.908899 157.262614 122.28045 122.058652 122.280722 78.63118 C 122.280994 35.203708 94.908373 0.00300555 61.141547 -0.00171391 Z M 61.141547 -0.00171391 " stroke="#000000" stroke-width="6.48" stroke-opacity="1" stroke-miterlimit="4"/></g></g></g></g><g clip-path="url(#ffc42087eb)"><g clip-path="url(#1d5b5adb07)"><g clip-path="url(#9465c7ca93)"><g transform="matrix(1, 0, 0, 1, 44, 31)"><g clip-path="url(#dfcd2ace29)"><g clip-path="url(#baf36c3cca)"><g clip-path="url(#d2aa35b744)"><g clip-path="url(#45f63e6096)"><path fill="#ffffff" d="M -12.496094 14.703125 L 61.984375 -10.4375 L 94.390625 85.570312 L 19.910156 110.710938 Z M -12.496094 14.703125 " fill-opacity="1" fill-rule="nonzero"/></g></g></g></g></g></g></g></g><g clip-path="url(#3dc51bb58e)"><g clip-path="url(#59210ea581)"><g clip-path="url(#d6ed5a06d8)"><g clip-path="url(#d7f17e6e92)"><path stroke-linecap="butt" transform="matrix(0.657974, -0.222088, 0.222088, 0.657974, 31.506218, 45.705766)" fill="none" stroke-linejoin="miter" d="M 56.592154 -0.000946473 C 25.34052 0.000270937 -0.000761473 32.67178 0.0000576097 72.98281 C -0.00265399 113.286711 25.337449 145.960969 56.594412 145.96155 C 87.851376 145.962132 113.187328 113.288824 113.186509 72.977794 C 113.18922 32.673893 87.849118 -0.000364971 56.592154 -0.000946473 Z M 56.592154 -0.000946473 " stroke="#000000" stroke-width="6.48" stroke-opacity="1" stroke-miterlimit="4"/></g></g></g></g><g clip-path="url(#fa847d032c)"><g clip-path="url(#2f9006f2ff)"><g clip-path="url(#97b656cbde)"><g transform="matrix(1, 0, 0, 1, 51, 40)"><g clip-path="url(#d4ce86488b)"><g clip-path="url(#0eadcaa1f8)"><g clip-path="url(#aa88f86b0e)"><g clip-path="url(#1e6aeb9b61)"><path fill="#000000" d="M -9.6875 12.175781 L 51.191406 -8.371094 L 77.679688 70.105469 L 16.800781 90.652344 Z M -9.6875 12.175781 " fill-opacity="1" fill-rule="nonzero"/></g></g></g></g></g></g></g></g><g clip-path="url(#5a20931b33)"><g clip-path="url(#616ce82bb7)"><g clip-path="url(#00a2a25faa)"><g clip-path="url(#e38dbcfbda)"><path stroke-linecap="butt" transform="matrix(0.657974, -0.222088, 0.222088, 0.657974, 41.314283, 52.180258)" fill="none" stroke-linejoin="miter" d="M 46.257141 -0.00131065 C 20.710092 0.00187193 0.000178493 26.708778 0.000346448 59.652041 C 0.000514403 92.595304 20.711595 119.302024 46.256846 119.304171 C 71.803895 119.300988 92.513808 92.594082 92.513641 59.650819 C 92.513473 26.707556 71.802392 0.000836357 46.257141 -0.00131065 Z M 46.257141 -0.00131065 " stroke="#000000" stroke-width="6.48" stroke-opacity="1" stroke-miterlimit="4"/></g></g></g></g><g clip-path="url(#837b8e2c01)"><g clip-path="url(#cb6ad45ed3)"><g clip-path="url(#92356f98cc)"><g transform="matrix(1, 0, 0, 1, 52, 47)"><g clip-path="url(#02061c4f81)"><g clip-path="url(#2e6b829028)"><g clip-path="url(#32c2c7f598)"><g clip-path="url(#51a8b905a4)"><path fill="#a9c5e7" d="M -9.246094 12.933594 L 51.507812 -8.117188 L 76.34375 63.554688 L 15.589844 84.605469 Z M -9.246094 12.933594 " fill-opacity="1" fill-rule="nonzero"/></g></g></g></g></g></g></g></g><path stroke-linecap="butt" transform="matrix(0.462557, -0.517971, 0.517971, 0.462557, 92.64393, 34.688267)" fill="none" stroke-linejoin="miter" d="M -0.000325089 2.497668 L 11.75179 2.500518 " stroke="#000000" stroke-width="5" stroke-opacity="1" stroke-miterlimit="4"/><path stroke-linecap="butt" transform="matrix(0.462557, -0.517971, 0.517971, 0.462557, 110.000101, 47.911997)" fill="none" stroke-linejoin="miter" d="M -0.000294049 2.503827 L 11.75227 2.498735 " stroke="#000000" stroke-width="5" stroke-opacity="1" stroke-miterlimit="4"/><path stroke-linecap="butt" transform="matrix(0.660791, -0.21356, 0.21356, 0.660791, 120.119856, 66.59104)" fill="none" stroke-linejoin="miter" d="M -0.00156663 2.498236 L 15.846283 2.500734 " stroke="#000000" stroke-width="5" stroke-opacity="1" stroke-miterlimit="4"/><path stroke-linecap="butt" transform="matrix(0.689614, 0.0817686, -0.0817686, 0.689614, 125.371934, 93.59684)" fill="none" stroke-linejoin="miter" d="M 0.000556788 2.49912 L 11.748585 2.49958 " stroke="#000000" stroke-width="5" stroke-opacity="1" stroke-miterlimit="4"/><path stroke-linecap="butt" transform="matrix(0.647751, 0.250342, -0.250342, 0.647751, 119.273439, 111.826497)" fill="none" stroke-linejoin="miter" d="M 0.000854587 2.4988 L 11.748507 2.499533 " stroke="#000000" stroke-width="5" stroke-opacity="1" stroke-miterlimit="4"/><g clip-path="url(#67b22220f5)"><path fill="#ffffff" d="M 98.308594 80.5 C 96.179688 78.695312 93.0625 77.21875 88.800781 76.238281 L 88.800781 67.710938 C 91.097656 68.203125 93.226562 69.1875 95.195312 70.664062 C 95.523438 70.828125 95.851562 70.992188 96.179688 70.828125 C 96.507812 70.828125 96.835938 70.664062 97 70.335938 L 100.769531 64.925781 C 100.933594 64.597656 101.097656 64.269531 100.933594 63.941406 C 100.933594 63.613281 100.605469 63.285156 100.441406 63.121094 C 96.835938 60.664062 92.898438 59.1875 88.800781 58.695312 L 88.800781 56.890625 C 88.800781 56.234375 88.308594 55.578125 87.488281 55.578125 L 83.71875 55.578125 C 83.0625 55.578125 82.40625 56.070312 82.40625 56.890625 L 82.40625 58.695312 C 78.964844 59.023438 76.015625 60.335938 73.71875 62.464844 C 71.09375 64.761719 69.785156 67.875 69.785156 71.644531 C 69.785156 75.417969 70.933594 78.203125 73.226562 80.171875 C 75.359375 81.976562 78.308594 83.285156 82.40625 84.269531 L 82.40625 93.121094 C 79.621094 92.46875 76.996094 90.992188 74.375 88.695312 C 74.046875 88.53125 73.71875 88.367188 73.390625 88.367188 C 73.0625 88.367188 72.734375 88.53125 72.570312 88.859375 L 68.308594 93.941406 C 67.816406 94.433594 67.980469 95.253906 68.472656 95.746094 C 72.570312 99.351562 77.324219 101.484375 82.40625 102.304688 L 82.40625 105.417969 C 82.40625 106.074219 82.898438 106.730469 83.71875 106.730469 L 87.488281 106.730469 C 88.144531 106.730469 88.800781 106.238281 88.800781 105.417969 L 88.800781 102.304688 C 92.570312 101.976562 95.523438 100.664062 97.980469 98.53125 C 100.605469 96.238281 102.082031 93.121094 102.082031 89.351562 C 101.917969 85.417969 100.769531 82.464844 98.308594 80.5 Z M 92.246094 89.679688 C 92.246094 90.664062 91.917969 91.484375 91.097656 92.140625 C 90.441406 92.632812 89.621094 92.957031 88.636719 93.285156 L 88.636719 85.910156 C 90.113281 86.566406 90.933594 87.058594 91.261719 87.386719 C 92.082031 87.875 92.246094 88.695312 92.246094 89.679688 Z M 79.457031 70.828125 C 79.457031 69.84375 79.785156 69.1875 80.605469 68.53125 C 81.097656 68.039062 81.75 67.710938 82.570312 67.546875 L 82.570312 74.433594 C 81.261719 73.941406 80.605469 73.449219 80.277344 73.121094 C 79.621094 72.464844 79.457031 71.808594 79.457031 70.828125 Z M 79.457031 70.828125 " fill-opacity="1" fill-rule="nonzero"/></g><g clip-path="url(#a3a4cb6cdc)"><g clip-path="url(#a331aa0870)"><g transform="matrix(1, 0, 0, 1, 5, 116)"><g clip-path="url(#e1072b99da)"><g clip-path="url(#f9f2ba2760)"><g clip-path="url(#1c5993bcc1)"><path fill="#a9c5e7" d="M 0.507812 32.292969 L 19.6875 0.152344 L 98.90625 47.425781 L 79.726562 79.566406 Z M 0.507812 32.292969 " fill-opacity="1" fill-rule="nonzero"/></g></g></g></g></g></g><g clip-path="url(#1ae476ea88)"><g transform="matrix(1, 0, 0, 1, 130, 173)"><g clip-path="url(#9be80c12ce)"><g clip-path="url(#065de25bc0)"><path fill="#000000" d="M 0.457031 28.851562 L 0.457031 0.546875 L 18.574219 0.546875 L 18.574219 28.851562 Z M 0.457031 28.851562 " fill-opacity="1" fill-rule="nonzero"/></g></g></g></g><g clip-path="url(#ec27f932ae)"><g clip-path="url(#28ccb71789)"><g transform="matrix(1, 0, 0, 1, 123, 179)"><g clip-path="url(#c95e89222d)"><g clip-path="url(#edf5d73b2d)"><g clip-path="url(#d203d46453)"><path fill="#a9c5e7" d="M 1.097656 32.648438 L 0.28125 0.789062 L 12.347656 0.476562 L 13.164062 32.339844 Z M 1.097656 32.648438 " fill-opacity="1" fill-rule="nonzero"/></g></g></g></g></g></g><g clip-path="url(#b5f790350b)"><g clip-path="url(#2718952667)"><g transform="matrix(1, 0, 0, 1, 117, 185)"><g clip-path="url(#6e0607d58f)"><g clip-path="url(#1ec7853a49)"><g clip-path="url(#44b6c8a8c1)"><path fill="#a9c5e7" d="M 1.394531 32.398438 L 0.578125 0.535156 L 12.644531 0.226562 L 13.460938 32.089844 Z M 1.394531 32.398438 " fill-opacity="1" fill-rule="nonzero"/></g></g></g></g></g></g><g clip-path="url(#d39d2bb6dd)"><g clip-path="url(#b64e361ec2)"><g transform="matrix(1, 0, 0, 1, 37, 135)"><g clip-path="url(#aee6f50690)"><g clip-path="url(#c33f5a4a01)"><g clip-path="url(#e5bf6430f4)"><path fill="#a9c5e7" d="M 0.769531 32.867188 L 19.949219 0.726562 L 99.167969 48.003906 L 79.988281 80.140625 Z M 0.769531 32.867188 " fill-opacity="1" fill-rule="nonzero"/></g></g></g></g></g></g><g clip-path="url(#3a5ce4ede1)"><g clip-path="url(#442c3eb5cd)"><g transform="matrix(1, 0, 0, 1, 118, 162)"><g clip-path="url(#4728feef20)"><g clip-path="url(#6ccf495d07)"><g clip-path="url(#b1fa25dfd6)"><path fill="#ffffff" d="M 0.648438 13.648438 L 22.046875 0.394531 L 28.355469 10.574219 L 6.957031 23.832031 Z M 0.648438 13.648438 " fill-opacity="1" fill-rule="nonzero"/></g></g></g></g></g></g><g clip-path="url(#8f5e1fcf35)"><g clip-path="url(#811de406fc)"><g transform="matrix(1, 0, 0, 1, 111, 126)"><g clip-path="url(#31d6337d47)"><g clip-path="url(#1155b8dfd9)"><g clip-path="url(#9014499c56)"><path fill="#a9c5e7" d="M 0.953125 32.691406 L 0.136719 0.828125 L 12.203125 0.519531 L 13.019531 32.378906 Z M 0.953125 32.691406 " fill-opacity="1" fill-rule="nonzero"/></g></g></g></g></g></g><g clip-path="url(#8571635f5c)"><g clip-path="url(#c7d4099dd2)"><g transform="matrix(1, 0, 0, 1, 45, 109)"><g clip-path="url(#e2feb4173b)"><g clip-path="url(#8739672fda)"><g clip-path="url(#745093f8fa)"><path fill="#a9c5e7" d="M 0.527344 32.761719 L 18.640625 0.0078125 L 78.003906 32.839844 L 59.890625 65.589844 Z M 0.527344 32.761719 " fill-opacity="1" fill-rule="nonzero"/></g></g></g></g></g></g><g clip-path="url(#7fe54818ee)"><g clip-path="url(#c408db6f78)"><g transform="matrix(1, 0, 0, 1, 21, 91)"><g clip-path="url(#1573a3998d)"><g clip-path="url(#bd6d87a310)"><g clip-path="url(#8bd7f16abd)"><path fill="#a9c5e7" d="M 2.96875 0.964844 L 40.371094 2.292969 L 37.960938 70.089844 L 0.558594 68.757812 Z M 2.96875 0.964844 " fill-opacity="1" fill-rule="nonzero"/></g></g></g></g></g></g><g clip-path="url(#8f89d054aa)"><g clip-path="url(#be2bf451a3)"><g transform="matrix(1, 0, 0, 1, 9, 85)"><g clip-path="url(#1bdc6813f6)"><g clip-path="url(#d172129689)"><g clip-path="url(#b74aca46b0)"><path fill="#a9c5e7" d="M 3.222656 0.566406 L 40.625 1.894531 L 38.214844 69.6875 L 0.8125 68.359375 Z M 3.222656 0.566406 " fill-opacity="1" fill-rule="nonzero"/></g></g></g></g></g></g><g clip-path="url(#16762fed5e)"><g transform="matrix(1, 0, 0, 1, 4, 59)"><g clip-path="url(#2c307781a5)"><g clip-path="url(#1f22691db6)"><path fill="#a9c5e7" d="M 0.679688 0.363281 L 7.277344 0.363281 L 7.277344 92.09375 L 0.679688 92.09375 Z M 0.679688 0.363281 " fill-opacity="1" fill-rule="nonzero"/></g></g></g></g><g clip-path="url(#1acb823890)"><g transform="matrix(1, 0, 0, 1, 9, 62)"><g clip-path="url(#f0c2e6579f)"><g clip-path="url(#093f0a2807)"><path fill="#a9c5e7" d="M 0.34375 0.949219 L 8.933594 0.949219 L 8.933594 87.316406 L 0.34375 87.316406 Z M 0.34375 0.949219 " fill-opacity="1" fill-rule="nonzero"/></g></g></g></g><g clip-path="url(#155f4cc8e1)"><g transform="matrix(1, 0, 0, 1, 17, 65)"><g clip-path="url(#b037a98ca1)"><g clip-path="url(#ee2179498a)"><path fill="#a9c5e7" d="M 0.273438 0.753906 L 6.867188 0.753906 L 6.867188 92.488281 L 0.273438 92.488281 Z M 0.273438 0.753906 " fill-opacity="1" fill-rule="nonzero"/></g></g></g></g><g clip-path="url(#4bde2b9a1b)"><g clip-path="url(#1d7a7ebf24)"><g transform="matrix(1, 0, 0, 1, 15, 68)"><g clip-path="url(#82eb169474)"><g clip-path="url(#529388db33)"><g clip-path="url(#b733930e29)"><path fill="#a9c5e7" d="M 8.035156 0.375 L 108.015625 56.738281 L 100.089844 70.800781 L 0.109375 14.4375 Z M 8.035156 0.375 " fill-opacity="1" fill-rule="nonzero"/></g></g></g></g></g></g><g clip-path="url(#13974243c3)"><g clip-path="url(#64326954c3)"><g transform="matrix(1, 0, 0, 1, 17, 94)"><g clip-path="url(#7f27c11cb2)"><g clip-path="url(#91e31f48b6)"><g clip-path="url(#fa6009ffd4)"><path fill="#a9c5e7" d="M 0.0820312 32.902344 L 18.195312 0.152344 L 77.558594 32.980469 L 59.445312 65.734375 Z M 0.0820312 32.902344 " fill-opacity="1" fill-rule="nonzero"/></g></g></g></g></g></g><g clip-path="url(#381341e372)"><g clip-path="url(#f439045bb5)"><g transform="matrix(1, 0, 0, 1, 20, 57)"><g clip-path="url(#3ea6802ff9)"><g clip-path="url(#de29a0cd4e)"><g clip-path="url(#8743a0284b)"><path fill="#ffffff" d="M 6.640625 0.144531 L 113.933594 62.160156 L 107.863281 72.65625 L 0.574219 10.644531 Z M 6.640625 0.144531 " fill-opacity="1" fill-rule="nonzero"/></g></g></g></g></g></g><g clip-path="url(#4354f2524e)"><g clip-path="url(#0e73c8e32e)"><g transform="matrix(1, 0, 0, 1, 9, 32)"><g clip-path="url(#32f8ecc2fe)"><g clip-path="url(#7d9057194b)"><g clip-path="url(#9f40c568f8)"><path fill="#ffffff" d="M 0.8125 22.0625 L 28.359375 0.5 L 34.207031 7.96875 L 6.660156 29.53125 Z M 0.8125 22.0625 " fill-opacity="1" fill-rule="nonzero"/></g></g></g></g></g></g><g clip-path="url(#510b7297fb)"><g clip-path="url(#bbefb65aad)"><g transform="matrix(1, 0, 0, 1, 7, 50)"><g clip-path="url(#a0ff9ce761)"><g clip-path="url(#f69e692fbc)"><g clip-path="url(#84800462f8)"><path fill="#ffffff" d="M 30.347656 26.546875 L 0.125 8.933594 L 4.898438 0.738281 L 35.121094 18.351562 Z M 30.347656 26.546875 " fill-opacity="1" fill-rule="nonzero"/></g></g></g></g></g></g><g clip-path="url(#7bea2651e9)"><path stroke-linecap="butt" transform="matrix(0.601407, 0.347222, -0.347222, 0.601407, 4.786443, 54.890981)" fill="none" stroke-linejoin="miter" d="M -0.000497959 2.500344 L 201.98084 2.501024 " stroke="#000000" stroke-width="5" stroke-opacity="1" stroke-miterlimit="4"/></g><g clip-path="url(#04f7a310d1)"><path stroke-linecap="butt" transform="matrix(0.562413, -0.407363, 0.407363, 0.562413, 3.110633, 56.178314)" fill="none" stroke-linejoin="miter" d="M -0.00150182 2.501742 L 62.07784 2.501367 " stroke="#000000" stroke-width="5" stroke-opacity="1" stroke-miterlimit="4"/></g><path stroke-linecap="butt" transform="matrix(0.602226, 0.345799, -0.345799, 0.602226, 29.78696, 58.431919)" fill="none" stroke-linejoin="miter" d="M -0.000723785 2.500441 L 176.419622 2.497139 " stroke="#000000" stroke-width="5" stroke-opacity="1" stroke-miterlimit="4"/><path stroke-linecap="butt" transform="matrix(-0.491046, 0.491046, -0.491046, -0.491046, 44.723385, 48.668326)" fill="none" stroke-linejoin="miter" d="M 0.000378204 2.49896 L 29.083682 2.49896 " stroke="#000000" stroke-width="5" stroke-opacity="1" stroke-miterlimit="4"/><path stroke-linecap="butt" transform="matrix(0.00000000121203, 0.694444, -0.694444, 0.00000000121203, 6.416551, 56.393004)" fill="none" stroke-linejoin="miter" d="M 0.00219941 2.501083 L 136.374712 2.501084 " stroke="#000000" stroke-width="5" stroke-opacity="1" stroke-miterlimit="4"/><g clip-path="url(#73828c7096)"><path stroke-linecap="butt" transform="matrix(0.602348, 0.345587, -0.345587, 0.602348, 4.290858, 148.095411)" fill="none" stroke-linejoin="miter" d="M -0.00118203 2.501148 L 201.980547 2.498681 " stroke="#000000" stroke-width="5" stroke-opacity="1" stroke-miterlimit="4"/></g><path stroke-linecap="butt" transform="matrix(0, -0.694444, 0.694444, 0, 122.824601, 219.456033)" fill="none" stroke-linejoin="miter" d="M -0.00143787 2.502575 L 49.166692 2.502575 " stroke="#000000" stroke-width="5" stroke-opacity="1" stroke-miterlimit="4"/><path stroke-linecap="butt" transform="matrix(0.00000000121203, -0.694444, 0.694444, 0.00000000121203, 134.423205, 209.601326)" fill="none" stroke-linejoin="miter" d="M -0.000340538 2.50121 L 49.240914 2.50121 " stroke="#000000" stroke-width="5" stroke-opacity="1" stroke-miterlimit="4"/><g clip-path="url(#b40fd603f3)"><path stroke-linecap="butt" transform="matrix(0.54431, -0.431253, 0.431253, 0.54431, 122.597962, 217.816374)" fill="none" stroke-linejoin="miter" d="M 0.000870624 2.498174 L 24.922687 2.500963 " stroke="#000000" stroke-width="5" stroke-opacity="1" stroke-miterlimit="4"/></g><path stroke-linecap="butt" transform="matrix(-0.00872024, -0.69439, 0.69439, -0.00872024, 148.363917, 201.879079)" fill="none" stroke-linejoin="miter" d="M 0.00257575 2.50244 L 47.908857 2.502131 " stroke="#000000" stroke-width="5" stroke-opacity="1" stroke-miterlimit="4"/><g clip-path="url(#cb8781ed92)"><g clip-path="url(#c2e21b8734)"><g transform="matrix(1, 0, 0, 1, 91, 155)"><g clip-path="url(#6f5dc79292)"><g clip-path="url(#13be895f94)"><g clip-path="url(#322e06986f)"><path fill="#ffffff" d="M 0.214844 13.285156 L 6.957031 0.0351562 L 34.128906 13.863281 L 27.386719 27.109375 Z M 0.214844 13.285156 " fill-opacity="1" fill-rule="nonzero"/></g></g></g></g></g></g><g clip-path="url(#8fbd28f278)"><g clip-path="url(#71c3405020)"><g transform="matrix(1, 0, 0, 1, 122, 155)"><g clip-path="url(#f1dbfdb32e)"><g clip-path="url(#6af1679e05)"><g clip-path="url(#2fbc0274dd)"><path fill="#ffffff" d="M 7.992188 28.351562 L 0.996094 15.234375 L 27.894531 0.886719 L 34.890625 14.003906 Z M 7.992188 28.351562 " fill-opacity="1" fill-rule="nonzero"/></g></g></g></g></g></g><g clip-path="url(#79d5b598af)"><g clip-path="url(#523997ee49)"><g transform="matrix(1, 0, 0, 1, 125, 159)"><g clip-path="url(#ad84c1ada0)"><g clip-path="url(#beb2c73067)"><g clip-path="url(#a886e99360)"><path fill="#ffffff" d="M 0.953125 21.570312 L 0.574219 0.675781 L 9.1875 0.519531 L 9.566406 21.414062 Z M 0.953125 21.570312 " fill-opacity="1" fill-rule="nonzero"/></g></g></g></g></g></g><g clip-path="url(#72a28da60d)"><g clip-path="url(#b7e59a1e2b)"><g transform="matrix(1, 0, 0, 1, 98, 159)"><g clip-path="url(#76d98ec34f)"><g clip-path="url(#f0b4ea9492)"><g clip-path="url(#48348b4b41)"><path fill="#ffffff" d="M 0.324219 13.292969 L 7.0625 0.046875 L 34.234375 13.871094 L 27.492188 27.121094 Z M 0.324219 13.292969 " fill-opacity="1" fill-rule="nonzero"/></g></g></g></g></g></g><g clip-path="url(#97cb8c3939)"><g clip-path="url(#63668e1ae0)"><g transform="matrix(1, 0, 0, 1, 153, 141)"><g clip-path="url(#b536590dbc)"><g clip-path="url(#c3f13841a4)"><g clip-path="url(#a4b656c198)"><path fill="#ffffff" d="M 1.140625 21.722656 L 0.761719 0.832031 L 9.375 0.675781 L 9.75 21.566406 Z M 1.140625 21.722656 " fill-opacity="1" fill-rule="nonzero"/></g></g></g></g></g></g><g clip-path="url(#4c450aa7ff)"><g clip-path="url(#e44dd17574)"><g transform="matrix(1, 0, 0, 1, 158, 137)"><g clip-path="url(#f14e88689e)"><g clip-path="url(#07d5b95881)"><g clip-path="url(#64e0b3d044)"><path fill="#ffffff" d="M 1.164062 22.035156 L 0.785156 1.144531 L 9.398438 0.988281 L 9.777344 21.878906 Z M 1.164062 22.035156 " fill-opacity="1" fill-rule="nonzero"/></g></g></g></g></g></g><g clip-path="url(#fab650bc1a)"><g clip-path="url(#e167ae080f)"><g transform="matrix(1, 0, 0, 1, 131, 144)"><g clip-path="url(#496a086cac)"><g clip-path="url(#4dd0402cca)"><g clip-path="url(#e07fc487ae)"><path fill="#ffffff" d="M 10.722656 32.925781 L 0.460938 16.039062 L 26.519531 0.207031 L 36.78125 17.09375 Z M 10.722656 32.925781 " fill-opacity="1" fill-rule="nonzero"/></g></g></g></g></g></g><g clip-path="url(#88b4a84969)"><g clip-path="url(#4b3de99404)"><g transform="matrix(1, 0, 0, 1, 90, 145)"><g clip-path="url(#36d847e1c7)"><g clip-path="url(#ee1587ceed)"><g clip-path="url(#8598685d48)"><path fill="#ffffff" d="M 1.328125 24.617188 L 0.414062 0.328125 L 6.582031 0.0976562 L 7.496094 24.382812 Z M 1.328125 24.617188 " fill-opacity="1" fill-rule="nonzero"/></g></g></g></g></g></g><g clip-path="url(#a56c841c88)"><g clip-path="url(#91d3e9273f)"><g transform="matrix(1, 0, 0, 1, 89, 145)"><g clip-path="url(#c0fca29d00)"><g clip-path="url(#346e61fdec)"><g clip-path="url(#fe211a62fa)"><path fill="#ffffff" d="M 0.101562 13.40625 L 6.84375 0.160156 L 34.011719 13.984375 L 27.269531 27.234375 Z M 0.101562 13.40625 " fill-opacity="1" fill-rule="nonzero"/></g></g></g></g></g></g><g clip-path="url(#2a01c21a83)"><path stroke-linecap="butt" transform="matrix(-0.01944, -0.694172, 0.694172, -0.01944, 155.269249, 195.610339)" fill="none" stroke-linejoin="miter" d="M -0.00106348 2.498856 L 40.897383 2.501876 " stroke="#000000" stroke-width="5" stroke-opacity="1" stroke-miterlimit="4"/></g><g clip-path="url(#b086164931)"><path stroke-linecap="butt" transform="matrix(0.511699, -0.469486, 0.469486, 0.511699, 148.804103, 199.539725)" fill="none" stroke-linejoin="miter" d="M -0.0026348 2.5002 L 14.584381 2.501642 " stroke="#000000" stroke-width="5" stroke-opacity="1" stroke-miterlimit="4"/></g><g clip-path="url(#4ba012554f)"><path stroke-linecap="butt" transform="matrix(0.59205, -0.362945, 0.362945, 0.59205, 123.120792, 186.435291)" fill="none" stroke-linejoin="miter" d="M 0.0000234352 2.497726 L 73.8727 2.503033 " stroke="#000000" stroke-width="5" stroke-opacity="1" stroke-miterlimit="4"/></g><g clip-path="url(#7cf8f0465e)"><g clip-path="url(#d8793e41e0)"><g transform="matrix(1, 0, 0, 1, 124, 120)"><g clip-path="url(#50a14932cd)"><g clip-path="url(#8b18f740e5)"><g clip-path="url(#86dfffbfa3)"><path fill="#ffffff" d="M 0.0195312 1.148438 L 10.671875 0.84375 L 12.164062 52.574219 L 1.507812 52.882812 Z M 0.0195312 1.148438 " fill-opacity="1" fill-rule="nonzero"/></g></g></g></g></g></g><g clip-path="url(#a1acb3b3e9)"><g clip-path="url(#49a4fd8581)"><g transform="matrix(1, 0, 0, 1, 127, 137)"><g clip-path="url(#66675e6ab3)"><g clip-path="url(#8ba38254e8)"><g clip-path="url(#34b5d640af)"><path fill="#ffffff" d="M 0.351562 18.488281 L 33.5 0.6875 L 38.34375 9.707031 L 5.195312 27.507812 Z M 0.351562 18.488281 " fill-opacity="1" fill-rule="nonzero"/></g></g></g></g></g></g><g clip-path="url(#830866af59)"><g transform="matrix(1, 0, 0, 1, 115, 159)"><g clip-path="url(#c199953cc8)"><g clip-path="url(#5b0e70b530)"><path fill="#ffffff" d="M 0.25 0.734375 L 19.71875 0.734375 L 19.71875 11.761719 L 0.25 11.761719 Z M 0.25 0.734375 " fill-opacity="1" fill-rule="nonzero"/></g></g></g></g><g clip-path="url(#f03935fb76)"><g clip-path="url(#e936684d5f)"><g transform="matrix(1, 0, 0, 1, 93, 136)"><g clip-path="url(#273fa8eaae)"><g clip-path="url(#3a345394af)"><g clip-path="url(#f925472ed9)"><path fill="#ffffff" d="M 3.847656 0.632812 L 36.078125 14.570312 L 32.921875 21.867188 L 0.691406 7.925781 Z M 3.847656 0.632812 " fill-opacity="1" fill-rule="nonzero"/></g></g></g></g></g></g><path stroke-linecap="butt" transform="matrix(-0.393264, -0.57236, 0.57236, -0.393264, 95.832573, 146.131172)" fill="none" stroke-linejoin="miter" d="M 0.000925356 2.49757 L 9.398288 2.49815 " stroke="#ffffff" stroke-width="5" stroke-opacity="1" stroke-miterlimit="4"/><path stroke-linecap="butt" transform="matrix(0.648031, 0.249618, -0.249618, 0.648031, 117.979808, 152.611085)" fill="none" stroke-linejoin="miter" d="M -0.000752241 2.499221 L 14.689752 2.500686 " stroke="#ffffff" stroke-width="5" stroke-opacity="1" stroke-miterlimit="4"/><path stroke-linecap="butt" transform="matrix(0.614969, 0.322593, -0.322593, 0.614969, 90.219175, 140.264737)" fill="none" stroke-linejoin="miter" d="M 0.000827716 2.497326 L 61.775017 2.500156 " stroke="#000000" stroke-width="5" stroke-opacity="1" stroke-miterlimit="4"/><path stroke-linecap="butt" transform="matrix(0, -0.694444, 0.694444, 0, 88.67807, 169.39119)" fill="none" stroke-linejoin="miter" d="M 0.000814135 2.49983 L 41.344568 2.49983 " stroke="#000000" stroke-width="5" stroke-opacity="1" stroke-miterlimit="4"/><path stroke-linecap="butt" transform="matrix(0.604068, 0.34257, -0.34257, 0.604068, 90.302347, 166.400215)" fill="none" stroke-linejoin="miter" d="M -0.000924701 2.500145 L 59.530951 2.501267 " stroke="#000000" stroke-width="5" stroke-opacity="1" stroke-miterlimit="4"/><g clip-path="url(#4b8f067cda)"><g clip-path="url(#320f90fcd7)"><g transform="matrix(1, 0, 0, 1, 104, 136)"><g clip-path="url(#08ec4d7e89)"><g clip-path="url(#2afb610021)"><g clip-path="url(#19191f5d82)"><path fill="#a9c5e7" d="M 3.089844 0.0429688 L 19.84375 10 L 17.703125 13.601562 L 0.949219 3.644531 Z M 3.089844 0.0429688 " fill-opacity="1" fill-rule="nonzero"/></g></g></g></g></g></g><path stroke-linecap="butt" transform="matrix(-0.0303283, -0.693782, 0.693782, -0.0303283, 122.105568, 151.816142)" fill="none" stroke-linejoin="miter" d="M -0.00267299 2.499625 L 39.162177 2.500063 " stroke="#000000" stroke-width="5" stroke-opacity="1" stroke-miterlimit="4"/><path stroke-linecap="butt" transform="matrix(0.606584, 0.338096, -0.338096, 0.606584, 96.216333, 134.877042)" fill="none" stroke-linejoin="miter" d="M 0.000724102 2.501294 L 54.107289 2.500872 " stroke="#000000" stroke-width="5" stroke-opacity="1" stroke-miterlimit="4"/><path stroke-linecap="butt" transform="matrix(-0.0175091, -0.694224, 0.694224, -0.0175091, 133.0234, 151.032422)" fill="none" stroke-linejoin="miter" d="M 0.000571908 2.498362 L 46.055779 2.500811 " stroke="#000000" stroke-width="5" stroke-opacity="1" stroke-miterlimit="4"/><g clip-path="url(#5dd2e69759)"><g transform="matrix(1, 0, 0, 1, 150, 109)"><g clip-path="url(#f042ed4445)"><g clip-path="url(#97539c6373)"><path fill="#ffffff" d="M 0.546875 0.292969 L 6.152344 0.292969 L 6.152344 32.804688 L 0.546875 32.804688 Z M 0.546875 0.292969 " fill-opacity="1" fill-rule="nonzero"/></g></g></g></g><g clip-path="url(#eef18ffc5e)"><path stroke-linecap="butt" transform="matrix(-0.0132856, -0.694317, 0.694317, -0.0132856, 155.03168, 136.979619)" fill="none" stroke-linejoin="miter" d="M 0.00162402 2.497369 L 46.056237 2.500953 " stroke="#000000" stroke-width="5" stroke-opacity="1" stroke-miterlimit="4"/></g><g clip-path="url(#2c33fb7a63)"><path stroke-linecap="butt" transform="matrix(0.58673, -0.371484, 0.371484, 0.58673, 125.830373, 153.698057)" fill="none" stroke-linejoin="miter" d="M -0.000914329 2.498023 L 54.104207 2.500649 " stroke="#000000" stroke-width="5" stroke-opacity="1" stroke-miterlimit="4"/></g><path stroke-linecap="butt" transform="matrix(0.540237, -0.436345, 0.436345, 0.540237, 88.991488, 140.74213)" fill="none" stroke-linejoin="miter" d="M -0.00128924 2.500862 L 12.522424 2.50053 " stroke="#000000" stroke-width="5" stroke-opacity="1" stroke-miterlimit="4"/><g clip-path="url(#2f77f38a4c)"><path stroke-linecap="butt" transform="matrix(0.65961, 0.217182, -0.217182, 0.65961, 158.003322, 130.672676)" fill="none" stroke-linejoin="miter" d="M 0.000156513 2.497844 L 13.622142 2.501611 " stroke="#000000" stroke-width="5" stroke-opacity="1" stroke-miterlimit="4"/></g><g clip-path="url(#a1b2689e8b)"><path stroke-linecap="butt" transform="matrix(0.584077, -0.375642, 0.375642, 0.584077, 124.949592, 160.159747)" fill="none" stroke-linejoin="miter" d="M 0.00143652 2.502899 L 70.358733 2.501978 " stroke="#000000" stroke-width="5" stroke-opacity="1" stroke-miterlimit="4"/></g><g clip-path="url(#803126c507)"><path stroke-linecap="butt" transform="matrix(-0.0168227, -0.694241, 0.694241, -0.0168227, 165.054229, 162.437577)" fill="none" stroke-linejoin="miter" d="M 0.00145052 2.49893 L 41.194111 2.501187 " stroke="#000000" stroke-width="5" stroke-opacity="1" stroke-miterlimit="4"/></g><g clip-path="url(#593fca7bcd)"><g clip-path="url(#9cc74c1186)"><path stroke-linecap="butt" transform="matrix(0.694444, 0, 0, 0.694444, 98.38011, 157.354716)" fill="none" stroke-linejoin="miter" d="M 6.247642 0.00108431 C 2.799517 0.00108431 -0.00173365 3.027335 -0.00173365 6.75671 C -0.00173365 10.486086 2.799517 13.512336 6.247642 13.512336 C 9.701393 13.512336 12.502643 10.486086 12.502643 6.75671 C 12.502643 3.027335 9.701393 0.00108431 6.247642 0.00108431 Z M 6.247642 0.00108431 " stroke="#000000" stroke-width="4.32" stroke-opacity="1" stroke-miterlimit="4"/></g></g><path stroke-linecap="butt" transform="matrix(0.598532, 0.352154, -0.352154, 0.598532, 142.939924, 106.14006)" fill="none" stroke-linejoin="miter" d="M -0.000933243 2.501098 L 13.619879 2.50152 " stroke="#000000" stroke-width="5" stroke-opacity="1" stroke-miterlimit="4"/><g clip-path="url(#24bf5de855)"><path stroke-linecap="butt" transform="matrix(-0.0223995, -0.694083, 0.694083, -0.0223995, 148.812657, 140.735041)" fill="none" stroke-linejoin="miter" d="M -0.000883322 2.498546 L 43.441076 2.499154 " stroke="#000000" stroke-width="5" stroke-opacity="1" stroke-miterlimit="4"/></g></g></g><path stroke-linecap="butt" transform="matrix(0, 0.75, -0.75, 0, 342.912202, 249.329012)" fill="none" stroke-linejoin="miter" d="M 4.498818 4.497519 L 43.28007 4.497519 " stroke="#000000" stroke-width="9" stroke-opacity="1" stroke-miterlimit="4"/><path stroke-linecap="round" transform="matrix(0, 0.75, -0.75, 0, 342.912202, 249.329012)" fill="none" stroke-linejoin="round" d="M 22.498819 -9.002481 L 4.498818 4.497519 L 22.498819 17.99752 " stroke="#000000" stroke-width="9" stroke-opacity="1" stroke-miterlimit="4"/><g clip-path="url(#739be97daa)"><path fill="#000000" d="M 462.792969 303.433594 C 462.957031 303.140625 463.328125 303.027344 463.625 303.195312 C 463.917969 303.355469 464.027344 303.730469 463.867188 304.027344 L 461.808594 307.789062 C 461.644531 308.085938 461.273438 308.195312 460.976562 308.03125 C 460.679688 307.867188 460.570312 307.496094 460.734375 307.195312 Z M 461.289062 302.847656 C 462.320312 303.644531 462 305.453125 460.765625 305.75 C 460.375 305.84375 459.960938 305.753906 459.628906 305.496094 C 458.59375 304.699219 458.914062 302.890625 460.152344 302.59375 C 460.535156 302.503906 460.960938 302.59375 461.289062 302.847656 Z M 460.679688 304.070312 C 460.636719 303.839844 460.4375 303.652344 460.289062 303.925781 C 460.1875 304.113281 460.214844 304.398438 460.371094 304.519531 L 460.367188 304.523438 C 460.597656 304.652344 460.714844 304.285156 460.679688 304.070312 Z M 464.984375 305.703125 C 466.023438 306.503906 465.703125 308.308594 464.464844 308.609375 C 464.074219 308.699219 463.660156 308.609375 463.328125 308.351562 L 463.328125 308.355469 C 462.300781 307.5625 462.601562 305.753906 463.847656 305.457031 C 464.246094 305.359375 464.652344 305.449219 464.984375 305.703125 Z M 464.375 306.929688 C 464.335938 306.703125 464.140625 306.503906 463.988281 306.78125 C 463.886719 306.96875 463.914062 307.257812 464.070312 307.375 L 464.070312 307.378906 C 464.300781 307.511719 464.417969 307.144531 464.375 306.929688 Z M 462.308594 299.859375 C 465.457031 299.859375 468.015625 302.429688 468.015625 305.601562 C 468.015625 308.773438 465.460938 311.34375 462.308594 311.34375 C 459.15625 311.34375 456.597656 308.773438 456.597656 305.601562 C 456.597656 302.429688 459.15625 299.859375 462.308594 299.859375 Z M 465.476562 302.414062 C 463.726562 300.652344 460.886719 300.652344 459.136719 302.414062 C 457.386719 304.171875 457.386719 307.027344 459.136719 308.789062 C 460.886719 310.550781 463.726562 310.550781 465.476562 308.789062 C 467.226562 307.027344 467.226562 304.171875 465.476562 302.414062 Z M 454.890625 299.808594 C 454.589844 299.652344 454.476562 299.28125 454.632812 298.980469 C 454.789062 298.679688 455.15625 298.5625 455.457031 298.71875 C 456.21875 299.121094 456.9375 299.570312 457.632812 300.074219 C 457.910156 300.273438 457.972656 300.65625 457.773438 300.929688 C 457.578125 301.207031 457.195312 301.269531 456.921875 301.070312 C 456.273438 300.601562 455.597656 300.179688 454.890625 299.808594 Z M 429.964844 310.09375 C 430.242188 309.757812 430.785156 309.808594 430.984375 310.210938 L 432.378906 313.023438 C 432.53125 313.328125 432.40625 313.699219 432.105469 313.851562 C 431.800781 314.003906 431.433594 313.878906 431.285156 313.574219 L 430.699219 312.390625 C 430.210938 315.992188 430.917969 319.582031 432.585938 322.660156 C 434.5 326.199219 437.683594 329.058594 441.773438 330.472656 C 442.09375 330.582031 442.265625 330.933594 442.152344 331.253906 C 442.042969 331.574219 441.695312 331.746094 441.375 331.636719 C 433.339844 328.859375 428.433594 320.769531 429.460938 312.433594 L 428.683594 313.265625 C 428.453125 313.511719 428.066406 313.523438 427.820312 313.292969 C 427.574219 313.058594 427.5625 312.667969 427.792969 312.421875 Z M 463.65625 312.226562 C 463.605469 311.894531 463.839844 311.582031 464.171875 311.535156 C 464.507812 311.484375 464.816406 311.71875 464.863281 312.054688 C 464.988281 312.917969 465.050781 313.78125 465.050781 314.644531 C 465.050781 314.984375 464.777344 315.261719 464.4375 315.261719 C 464.097656 315.261719 463.824219 314.984375 463.824219 314.644531 C 463.824219 313.824219 463.769531 313.027344 463.65625 312.226562 Z M 450.160156 298.078125 C 450.144531 298.140625 450.121094 298.199219 450.089844 298.25 L 451.617188 298.4375 C 451.65625 298.4375 451.699219 298.441406 451.734375 298.449219 C 452.058594 297.203125 452.421875 294.902344 451.992188 293.773438 C 451.824219 293.335938 451.742188 293.425781 451.328125 293.550781 C 450.238281 293.882812 448.707031 294.347656 445.300781 292.464844 C 444.535156 292.042969 443.714844 291.785156 443.242188 292.472656 C 443.011719 292.8125 442.871094 293.308594 442.804688 293.90625 C 442.65625 295.203125 442.871094 296.859375 443.289062 298.304688 L 445.316406 298.082031 C 445.277344 298.019531 445.25 297.953125 445.230469 297.878906 L 444.65625 295.417969 C 444.578125 295.085938 444.785156 294.757812 445.113281 294.679688 C 445.441406 294.601562 445.769531 294.808594 445.847656 295.136719 L 446.421875 297.597656 C 446.453125 297.722656 446.4375 297.847656 446.398438 297.957031 C 446.8125 297.917969 447.140625 297.894531 447.304688 297.914062 L 448.980469 298.117188 C 448.949219 298.019531 448.945312 297.910156 448.96875 297.796875 L 449.542969 295.335938 C 449.621094 295.007812 449.949219 294.800781 450.277344 294.878906 C 450.605469 294.957031 450.808594 295.285156 450.734375 295.617188 Z M 446.605469 310.320312 C 446.605469 309.976562 446.882812 309.703125 447.21875 309.703125 C 447.558594 309.703125 447.832031 309.976562 447.832031 310.320312 L 447.832031 310.699219 C 448.984375 310.878906 450.148438 311.648438 450.148438 312.847656 C 450.148438 313.1875 449.875 313.464844 449.535156 313.464844 C 449.199219 313.464844 448.925781 313.1875 448.925781 312.847656 C 448.925781 312.035156 447.023438 311.488281 445.921875 312.238281 C 445.671875 312.410156 445.515625 312.625 445.515625 312.847656 C 445.515625 313.527344 446.414062 313.671875 447.316406 313.820312 C 448.734375 314.050781 450.148438 314.28125 450.148438 316.007812 C 450.148438 317.207031 448.984375 317.976562 447.832031 318.15625 L 447.832031 318.535156 C 447.832031 318.875 447.558594 319.152344 447.21875 319.152344 C 446.882812 319.152344 446.605469 318.875 446.605469 318.535156 L 446.605469 318.15625 C 445.453125 317.976562 444.289062 317.207031 444.289062 316.007812 C 444.289062 315.667969 444.5625 315.390625 444.902344 315.390625 C 445.238281 315.390625 445.515625 315.667969 445.515625 316.007812 C 445.515625 316.820312 447.414062 317.367188 448.515625 316.617188 C 448.765625 316.445312 448.921875 316.230469 448.921875 316.007812 C 448.921875 315.328125 448.023438 315.183594 447.125 315.035156 C 445.707031 314.804688 444.289062 314.574219 444.289062 312.847656 C 444.289062 311.648438 445.453125 310.878906 446.605469 310.699219 Z M 466.722656 319.453125 L 461.671875 319.46875 L 461.671875 319.722656 L 461.71875 327.203125 L 466.769531 327.183594 C 466.769531 327.164062 466.773438 327.148438 466.773438 327.128906 C 466.757812 324.570312 466.753906 322.007812 466.722656 319.453125 Z M 461.300781 318.242188 L 467.085938 318.21875 C 467.699219 318.21875 467.941406 318.859375 467.945312 319.449219 C 467.960938 322.007812 467.992188 324.570312 467.992188 327.125 C 467.996094 327.695312 467.777344 328.410156 467.144531 328.410156 L 461.257812 328.421875 C 460.027344 329.636719 457.972656 330.871094 456.199219 330.867188 L 449.328125 330.847656 C 448.394531 330.847656 447.554688 330.714844 446.78125 330.148438 L 437.082031 323.078125 C 434.46875 321.171875 435.839844 318.585938 437.914062 318.671875 C 436.175781 315.375 437.347656 311.015625 439.105469 307.796875 L 439.027344 307.746094 L 437.25 307.691406 C 437.210938 307.992188 436.953125 308.222656 436.644531 308.222656 L 430.683594 308.222656 C 430.347656 308.222656 430.074219 307.945312 430.074219 307.605469 L 430.074219 298.710938 C 430.074219 298.375 430.347656 298.097656 430.683594 298.097656 L 436.644531 298.097656 C 436.984375 298.097656 437.257812 298.375 437.257812 298.710938 L 437.257812 298.898438 L 438.589844 298.894531 L 441.664062 296.519531 C 441.453125 295.007812 441.410156 292.976562 442.238281 291.773438 C 443.109375 290.5 444.535156 290.636719 445.886719 291.386719 C 448.84375 293.015625 450.085938 292.640625 450.972656 292.371094 C 451.296875 292.269531 451.5625 292.179688 451.914062 292.226562 C 453.164062 292.398438 453.394531 293.976562 453.40625 295.132812 C 453.417969 296.398438 453.167969 297.949219 452.777344 299.261719 C 452.777344 299.265625 453.175781 300.023438 452.851562 300.9375 C 452.78125 301.132812 452.683594 301.316406 452.558594 301.476562 C 453.050781 302.183594 453.019531 303.261719 452.492188 303.9375 C 454.335938 305.894531 455.941406 308.585938 456.753906 311.3125 C 457.398438 313.488281 457.542969 315.695312 456.914062 317.605469 C 458.367188 317.53125 459.34375 318.289062 460.554688 318.839844 C 460.6875 318.476562 460.949219 318.242188 461.300781 318.242188 Z M 460.511719 327.433594 C 460.503906 327.359375 460.5 327.28125 460.5 327.203125 L 460.457031 320.132812 C 459.984375 319.949219 459.585938 319.738281 459.199219 319.539062 C 458.039062 318.933594 457.054688 318.417969 454.921875 319.46875 C 454.378906 319.734375 452.214844 320.722656 451.304688 320.703125 C 450.203125 320.679688 447.949219 319.859375 447.394531 321.140625 C 447.105469 321.804688 447.507812 322.671875 448.066406 322.984375 C 449.097656 323.496094 450.113281 323.65625 451.148438 323.632812 C 452.214844 323.613281 453.328125 323.394531 454.488281 323.152344 C 454.820312 323.085938 455.144531 323.300781 455.210938 323.632812 C 455.28125 323.964844 455.066406 324.289062 454.734375 324.359375 C 453.515625 324.605469 452.347656 324.835938 451.171875 324.863281 C 450.089844 324.886719 449.019531 324.734375 447.929688 324.269531 L 447.800781 324.230469 L 438.34375 320.019531 C 437.207031 319.515625 435.980469 320.753906 437.800781 322.082031 L 447.496094 329.15625 C 448.039062 329.546875 448.667969 329.621094 449.328125 329.621094 L 456.199219 329.640625 C 457.667969 329.640625 459.539062 328.449219 460.511719 327.433594 Z M 439.941406 319.386719 L 446.121094 322.136719 C 445.980469 321.425781 446.132812 320.695312 446.589844 320.125 C 447.574219 318.882812 449.261719 319.160156 450.519531 319.367188 C 451.390625 319.511719 451.417969 319.546875 452.375 319.210938 C 453.207031 318.917969 454.125 318.496094 454.386719 318.367188 C 454.78125 318.171875 455.140625 318.019531 455.476562 317.90625 C 456.328125 316.128906 456.242188 313.890625 455.578125 311.664062 C 454.964844 309.605469 453.867188 307.570312 452.558594 305.902344 C 452.328125 306.441406 451.894531 306.878906 451.269531 306.980469 C 451.367188 307.496094 451.234375 308.0625 450.921875 308.5 C 450.554688 309.027344 449.921875 309.425781 449.019531 309.398438 C 446.007812 309.320312 445.113281 309.222656 442.320312 309.152344 C 441.503906 309.132812 440.808594 308.917969 440.128906 308.480469 C 438.375 311.730469 437.121094 316.546875 439.941406 319.386719 Z M 437.257812 300.125 L 437.257812 306.464844 L 439.207031 306.519531 C 439.328125 306.515625 439.449219 306.550781 439.558594 306.621094 L 440.75 307.414062 C 441.25 307.746094 441.753906 307.90625 442.347656 307.921875 C 445.171875 307.992188 446.078125 308.089844 449.050781 308.167969 C 450.164062 308.199219 450.207031 307.082031 449.945312 307.011719 C 449.90625 307 449.871094 306.988281 449.835938 306.96875 L 447.054688 306.726562 C 446.71875 306.699219 446.46875 306.398438 446.496094 306.058594 C 446.527344 305.71875 446.824219 305.472656 447.160156 305.5 L 450.417969 305.78125 L 450.996094 305.769531 C 451.59375 305.746094 451.695312 304.546875 451.253906 304.523438 L 450.925781 304.5 L 447.734375 304.269531 C 447.398438 304.246094 447.144531 303.953125 447.167969 303.613281 C 447.191406 303.273438 447.484375 303.019531 447.820312 303.042969 C 448.242188 303.070312 451.183594 303.308594 451.386719 303.273438 C 451.789062 303.164062 451.796875 302.058594 451.332031 302.054688 L 448.125 301.660156 C 447.789062 301.617188 447.550781 301.308594 447.59375 300.972656 C 447.632812 300.632812 447.941406 300.394531 448.273438 300.4375 L 451.367188 300.824219 C 451.628906 300.832031 451.75 300.464844 451.757812 300.21875 C 451.761719 300.042969 451.695312 299.675781 451.546875 299.660156 C 451.523438 299.660156 451.5 299.660156 451.472656 299.65625 L 447.164062 299.136719 C 446.882812 299.101562 443.542969 299.558594 442.835938 299.566406 C 442.734375 299.570312 442.640625 299.570312 442.554688 299.570312 C 442.257812 299.585938 441.988281 299.378906 441.925781 299.074219 L 441.722656 298.023438 L 439.171875 299.992188 C 439.070312 300.074219 438.941406 300.121094 438.800781 300.121094 Z M 436.035156 299.328125 L 431.300781 299.328125 L 431.300781 306.988281 L 436.035156 306.988281 Z M 436.035156 299.328125 " fill-opacity="1" fill-rule="nonzero"/></g></svg>