<svg xmlns="http://www.w3.org/2000/svg" xmlns:xlink="http://www.w3.org/1999/xlink" width="1000" zoomAndPan="magnify" viewBox="0 0 750 749.999995" height="1000" preserveAspectRatio="xMidYMid meet" version="1.0"><defs><filter x="0%" y="0%" width="100%" height="100%" id="271c94d306"><feColorMatrix values="0 0 0 0 1 0 0 0 0 1 0 0 0 0 1 0 0 0 1 0" color-interpolation-filters="sRGB"/></filter><mask id="4cae4e26a7"><g filter="url(#271c94d306)"><rect x="-534" width="1080" fill="#000000" y="-520.999999" height="1079.999992" fill-opacity="0.13"/></g></mask><clipPath id="c20abd3c8e"><path d="M 3 5 L 115 5 L 115 84 L 3 84 Z M 3 5 " clip-rule="nonzero"/></clipPath><clipPath id="7dcd0f6a98"><path d="M 7.304688 0.902344 L 117.507812 10.484375 L 110.753906 88.203125 L 0.546875 78.625 Z M 7.304688 0.902344 " clip-rule="nonzero"/></clipPath><clipPath id="c9722575a5"><path d="M 62.292969 5.683594 C 31.921875 3.042969 5.792969 18.300781 3.925781 39.761719 C 2.0625 61.226562 25.167969 80.761719 55.535156 83.402344 C 85.90625 86.042969 112.035156 70.785156 113.902344 49.324219 C 115.765625 27.863281 92.660156 8.324219 62.292969 5.683594 Z M 62.292969 5.683594 " clip-rule="nonzero"/></clipPath><clipPath id="1302261c22"><path d="M 0 0 L 112 0 L 112 79 L 0 79 Z M 0 0 " clip-rule="nonzero"/></clipPath><clipPath id="6092ce07f3"><path d="M 4.304688 -4.097656 L 114.507812 5.484375 L 107.753906 83.203125 L -2.453125 73.625 Z M 4.304688 -4.097656 " clip-rule="nonzero"/></clipPath><clipPath id="7cded9e17f"><path d="M 59.292969 0.683594 C 28.921875 -1.957031 2.792969 13.300781 0.925781 34.761719 C -0.9375 56.226562 22.167969 75.761719 52.535156 78.402344 C 82.90625 81.042969 109.035156 65.785156 110.902344 44.324219 C 112.765625 22.863281 89.660156 3.324219 59.292969 0.683594 Z M 59.292969 0.683594 " clip-rule="nonzero"/></clipPath><clipPath id="4f0028e476"><rect x="0" width="112" y="0" height="79"/></clipPath><clipPath id="431eec6fe8"><rect x="0" width="118" y="0" height="89"/></clipPath><clipPath id="471b17bcc3"><path d="M 15 29 L 126 29 L 126 108 L 15 108 Z M 15 29 " clip-rule="nonzero"/></clipPath><clipPath id="4df3c20104"><path d="M 10.691406 99.914062 L 20.46875 22.695312 L 130.269531 36.601562 L 120.488281 113.820312 Z M 10.691406 99.914062 " clip-rule="nonzero"/></clipPath><clipPath id="50531807bc"><path d="M 15.578125 61.304688 C 12.878906 82.628906 35.203125 103.019531 65.441406 106.851562 C 95.679688 110.679688 122.382812 96.5 125.082031 75.175781 C 127.78125 53.851562 105.460938 33.460938 75.222656 29.628906 C 44.984375 25.800781 18.28125 39.980469 15.578125 61.304688 Z M 15.578125 61.304688 " clip-rule="nonzero"/></clipPath><clipPath id="c0a92df099"><path d="M 0 0 L 111 0 L 111 79 L 0 79 Z M 0 0 " clip-rule="nonzero"/></clipPath><clipPath id="e60b25cb2c"><path d="M -4.308594 70.914062 L 5.46875 -6.304688 L 115.269531 7.601562 L 105.488281 84.820312 Z M -4.308594 70.914062 " clip-rule="nonzero"/></clipPath><clipPath id="a65d71b79d"><path d="M 0.578125 32.304688 C -2.121094 53.628906 20.203125 74.019531 50.441406 77.851562 C 80.679688 81.679688 107.382812 67.5 110.082031 46.175781 C 112.78125 24.851562 90.460938 4.460938 60.222656 0.628906 C 29.984375 -3.199219 3.28125 10.980469 0.578125 32.304688 Z M 0.578125 32.304688 " clip-rule="nonzero"/></clipPath><clipPath id="9fac71ebb7"><rect x="0" width="111" y="0" height="79"/></clipPath><clipPath id="02039afd83"><path d="M 15 29 L 126 29 L 126 108 L 15 108 Z M 15 29 " clip-rule="nonzero"/></clipPath><clipPath id="f7c68620ec"><path d="M 10.691406 99.914062 L 20.519531 22.292969 L 129.863281 36.140625 L 120.03125 113.765625 Z M 10.691406 99.914062 " clip-rule="nonzero"/></clipPath><clipPath id="9dddd68e60"><path d="M 10.691406 99.914062 L 20.480469 22.617188 L 130.753906 36.585938 L 120.964844 113.882812 Z M 10.691406 99.914062 " clip-rule="nonzero"/></clipPath><clipPath id="b3bc21b740"><path d="M 15.578125 61.304688 C 12.878906 82.628906 35.203125 103.019531 65.4375 106.847656 C 95.675781 110.679688 122.375 96.496094 125.078125 75.175781 C 127.777344 53.851562 105.457031 33.460938 75.21875 29.632812 C 44.980469 25.800781 18.28125 39.984375 15.578125 61.304688 Z M 15.578125 61.304688 " clip-rule="nonzero"/></clipPath><clipPath id="cfe5dbc412"><path d="M 17 17 L 127 17 L 127 96 L 17 96 Z M 17 17 " clip-rule="nonzero"/></clipPath><clipPath id="ad0e27d42c"><path d="M 12.371094 88.230469 L 22.152344 11.011719 L 131.949219 24.917969 L 122.167969 102.136719 Z M 12.371094 88.230469 " clip-rule="nonzero"/></clipPath><clipPath id="2c8f5393d1"><path d="M 17.261719 49.621094 C 14.5625 70.945312 36.886719 91.335938 67.125 95.164062 C 97.363281 98.996094 124.0625 84.8125 126.765625 63.492188 C 129.464844 42.167969 107.140625 21.773438 76.902344 17.945312 C 46.664062 14.117188 19.964844 28.296875 17.261719 49.621094 Z M 17.261719 49.621094 " clip-rule="nonzero"/></clipPath><clipPath id="4ed80dbbb4"><path d="M 0 0 L 110 0 L 110 79 L 0 79 Z M 0 0 " clip-rule="nonzero"/></clipPath><clipPath id="a2b25bd0b6"><path d="M -4.628906 71.230469 L 5.152344 -5.988281 L 114.949219 7.917969 L 105.167969 85.136719 Z M -4.628906 71.230469 " clip-rule="nonzero"/></clipPath><clipPath id="4560be774e"><path d="M 0.261719 32.621094 C -2.4375 53.945312 19.886719 74.335938 50.125 78.164062 C 80.363281 81.996094 107.0625 67.8125 109.765625 46.492188 C 112.464844 25.167969 90.140625 4.773438 59.902344 0.945312 C 29.664062 -2.882812 2.964844 11.296875 0.261719 32.621094 Z M 0.261719 32.621094 " clip-rule="nonzero"/></clipPath><clipPath id="93e75c6ae9"><rect x="0" width="110" y="0" height="79"/></clipPath><clipPath id="9a1b20dc35"><path d="M 17 17 L 127 17 L 127 96 L 17 96 Z M 17 17 " clip-rule="nonzero"/></clipPath><clipPath id="2ce67998a7"><path d="M 12.371094 88.230469 L 22.203125 10.605469 L 131.546875 24.457031 L 121.714844 102.078125 Z M 12.371094 88.230469 " clip-rule="nonzero"/></clipPath><clipPath id="e6582548be"><path d="M 12.371094 88.230469 L 22.164062 10.933594 L 132.4375 24.902344 L 122.648438 102.195312 Z M 12.371094 88.230469 " clip-rule="nonzero"/></clipPath><clipPath id="7320305223"><path d="M 17.261719 49.621094 C 14.5625 70.945312 36.882812 91.335938 67.121094 95.164062 C 97.359375 98.992188 124.058594 84.8125 126.761719 63.488281 C 129.460938 42.167969 107.136719 21.777344 76.902344 17.945312 C 46.664062 14.117188 19.964844 28.296875 17.261719 49.621094 Z M 17.261719 49.621094 " clip-rule="nonzero"/></clipPath><clipPath id="c14459472a"><path d="M 30 29 L 112 29 L 112 87 L 30 87 Z M 30 29 " clip-rule="nonzero"/></clipPath><clipPath id="388a07c9b1"><path d="M 27.390625 81.152344 L 34.570312 24.46875 L 115.167969 34.675781 L 107.988281 91.363281 Z M 27.390625 81.152344 " clip-rule="nonzero"/></clipPath><clipPath id="aef3428276"><path d="M 30.980469 52.8125 C 28.996094 68.464844 45.382812 83.433594 67.582031 86.242188 C 89.777344 89.054688 109.378906 78.644531 111.363281 62.992188 C 113.34375 47.339844 96.957031 32.371094 74.761719 29.558594 C 52.5625 26.746094 32.960938 37.15625 30.980469 52.8125 Z M 30.980469 52.8125 " clip-rule="nonzero"/></clipPath><clipPath id="1b36eb9770"><path d="M 0 0 L 82 0 L 82 58 L 0 58 Z M 0 0 " clip-rule="nonzero"/></clipPath><clipPath id="1383ae3390"><path d="M -2.609375 52.152344 L 4.570312 -4.53125 L 85.167969 5.675781 L 77.988281 62.363281 Z M -2.609375 52.152344 " clip-rule="nonzero"/></clipPath><clipPath id="139a0453ea"><path d="M 0.980469 23.8125 C -1.003906 39.464844 15.382812 54.433594 37.582031 57.242188 C 59.777344 60.054688 79.378906 49.644531 81.363281 33.992188 C 83.34375 18.339844 66.957031 3.371094 44.761719 0.558594 C 22.5625 -2.253906 2.960938 8.15625 0.980469 23.8125 Z M 0.980469 23.8125 " clip-rule="nonzero"/></clipPath><clipPath id="fb2124e7ca"><rect x="0" width="82" y="0" height="58"/></clipPath><clipPath id="b8666a606e"><path d="M 30 29 L 112 29 L 112 87 L 30 87 Z M 30 29 " clip-rule="nonzero"/></clipPath><clipPath id="b6ad3a6e58"><path d="M 27.390625 81.152344 L 34.578125 24.394531 L 114.707031 34.546875 L 107.519531 91.300781 Z M 27.390625 81.152344 " clip-rule="nonzero"/></clipPath><clipPath id="562e0076ee"><path d="M 27.390625 81.152344 L 34.578125 24.417969 L 115.519531 34.667969 L 108.335938 91.40625 Z M 27.390625 81.152344 " clip-rule="nonzero"/></clipPath><clipPath id="9c71a18e87"><path d="M 30.980469 52.8125 C 28.996094 68.464844 45.382812 83.433594 67.578125 86.242188 C 89.773438 89.054688 109.371094 78.644531 111.355469 62.992188 C 113.335938 47.34375 96.949219 32.375 74.757812 29.566406 C 52.5625 26.753906 32.960938 37.164062 30.980469 52.8125 Z M 30.980469 52.8125 " clip-rule="nonzero"/></clipPath><clipPath id="59df32dfc1"><path d="M 37 32 L 111 32 L 111 86 L 37 86 Z M 37 32 " clip-rule="nonzero"/></clipPath><clipPath id="1ac6f0a4de"><path d="M 34.140625 80.199219 L 40.738281 28.117188 L 113.371094 37.316406 L 106.773438 89.398438 Z M 34.140625 80.199219 " clip-rule="nonzero"/></clipPath><clipPath id="517c2a0875"><path d="M 37.441406 54.15625 C 35.617188 68.539062 50.355469 82.253906 70.359375 84.785156 C 90.359375 87.320312 108.054688 77.714844 109.875 63.332031 C 111.695312 48.949219 96.957031 35.234375 76.957031 32.703125 C 56.953125 30.167969 39.261719 39.773438 37.441406 54.15625 Z M 37.441406 54.15625 " clip-rule="nonzero"/></clipPath><clipPath id="602eba6524"><path d="M 0 0 L 74 0 L 74 54 L 0 54 Z M 0 0 " clip-rule="nonzero"/></clipPath><clipPath id="f6c6560618"><path d="M -2.859375 48.199219 L 3.738281 -3.882812 L 76.371094 5.316406 L 69.773438 57.398438 Z M -2.859375 48.199219 " clip-rule="nonzero"/></clipPath><clipPath id="fab0872d3d"><path d="M 0.441406 22.15625 C -1.382812 36.539062 13.355469 50.253906 33.359375 52.785156 C 53.359375 55.320312 71.054688 45.714844 72.875 31.332031 C 74.695312 16.949219 59.957031 3.234375 39.957031 0.703125 C 19.953125 -1.832031 2.261719 7.773438 0.441406 22.15625 Z M 0.441406 22.15625 " clip-rule="nonzero"/></clipPath><clipPath id="b890f32dda"><rect x="0" width="74" y="0" height="54"/></clipPath><clipPath id="f839bbf673"><path d="M 59 45 L 91 45 L 91 73 L 59 73 Z M 59 45 " clip-rule="nonzero"/></clipPath><clipPath id="7e9a1396e2"><path d="M 54.890625 62.328125 L 64.34375 41.671875 L 94.179688 55.328125 L 84.722656 75.984375 Z M 54.890625 62.328125 " clip-rule="nonzero"/></clipPath><clipPath id="0fca95965f"><path d="M 54.890625 62.328125 L 64.34375 41.671875 L 94.179688 55.328125 L 84.722656 75.984375 Z M 54.890625 62.328125 " clip-rule="nonzero"/></clipPath><clipPath id="b1b1e42cdc"><rect x="0" width="142" y="0" height="125"/></clipPath><mask id="df508ed907"><g filter="url(#271c94d306)"><rect x="-532" width="1080" fill="#000000" y="-505.999999" height="1079.999992" fill-opacity="0.13"/></g></mask><clipPath id="d741d207d2"><path d="M 3 4 L 114 4 L 114 83 L 3 83 Z M 3 4 " clip-rule="nonzero"/></clipPath><clipPath id="b12384725e"><path d="M 7.089844 0.183594 L 117.292969 9.765625 L 110.535156 87.484375 L 0.332031 77.90625 Z M 7.089844 0.183594 " clip-rule="nonzero"/></clipPath><clipPath id="c10c51d609"><path d="M 62.078125 4.964844 C 31.707031 2.324219 5.578125 17.582031 3.710938 39.046875 C 1.84375 60.507812 24.953125 80.046875 55.320312 82.683594 C 85.6875 85.324219 111.820312 70.066406 113.6875 48.605469 C 115.550781 27.144531 92.445312 7.605469 62.078125 4.964844 Z M 62.078125 4.964844 " clip-rule="nonzero"/></clipPath><clipPath id="587ce6ebc3"><path d="M 0 0 L 111 0 L 111 79 L 0 79 Z M 0 0 " clip-rule="nonzero"/></clipPath><clipPath id="a7f91a0ef4"><path d="M 4.089844 -3.816406 L 114.292969 5.765625 L 107.535156 83.484375 L -2.667969 73.90625 Z M 4.089844 -3.816406 " clip-rule="nonzero"/></clipPath><clipPath id="564c01c2e1"><path d="M 59.078125 0.964844 C 28.707031 -1.675781 2.578125 13.582031 0.710938 35.046875 C -1.15625 56.507812 21.953125 76.046875 52.320312 78.683594 C 82.6875 81.324219 108.820312 66.066406 110.6875 44.605469 C 112.550781 23.144531 89.445312 3.605469 59.078125 0.964844 Z M 59.078125 0.964844 " clip-rule="nonzero"/></clipPath><clipPath id="85dc059aec"><rect x="0" width="111" y="0" height="79"/></clipPath><clipPath id="0f4d37937c"><rect x="0" width="118" y="0" height="88"/></clipPath><clipPath id="4dfc744437"><path d="M 16 29 L 127 29 L 127 108 L 16 108 Z M 16 29 " clip-rule="nonzero"/></clipPath><clipPath id="91431955d8"><path d="M 11.472656 100.195312 L 21.253906 22.976562 L 131.050781 36.882812 L 121.273438 114.105469 Z M 11.472656 100.195312 " clip-rule="nonzero"/></clipPath><clipPath id="ce4ee2ce55"><path d="M 16.363281 61.585938 C 13.664062 82.910156 35.988281 103.300781 66.226562 107.132812 C 96.464844 110.960938 123.164062 96.78125 125.867188 75.457031 C 128.566406 54.132812 106.242188 33.742188 76.003906 29.910156 C 45.765625 26.082031 19.066406 40.261719 16.363281 61.585938 Z M 16.363281 61.585938 " clip-rule="nonzero"/></clipPath><clipPath id="b0347af5ab"><path d="M 0 0 L 111 0 L 111 79 L 0 79 Z M 0 0 " clip-rule="nonzero"/></clipPath><clipPath id="730a373609"><path d="M -4.527344 71.195312 L 5.253906 -6.023438 L 115.050781 7.882812 L 105.273438 85.105469 Z M -4.527344 71.195312 " clip-rule="nonzero"/></clipPath><clipPath id="aa34b20f5d"><path d="M 0.363281 32.585938 C -2.335938 53.910156 19.988281 74.300781 50.226562 78.132812 C 80.464844 81.960938 107.164062 67.78125 109.867188 46.457031 C 112.566406 25.132812 90.242188 4.742188 60.003906 0.910156 C 29.765625 -2.917969 3.066406 11.261719 0.363281 32.585938 Z M 0.363281 32.585938 " clip-rule="nonzero"/></clipPath><clipPath id="6066d9dbc0"><rect x="0" width="111" y="0" height="79"/></clipPath><clipPath id="666865080d"><path d="M 16 29 L 127 29 L 127 108 L 16 108 Z M 16 29 " clip-rule="nonzero"/></clipPath><clipPath id="0fbf4a9ec1"><path d="M 11.472656 100.195312 L 21.304688 22.574219 L 130.648438 36.421875 L 120.816406 114.046875 Z M 11.472656 100.195312 " clip-rule="nonzero"/></clipPath><clipPath id="9405e932ee"><path d="M 11.472656 100.195312 L 21.265625 22.898438 L 131.539062 36.867188 L 121.75 114.164062 Z M 11.472656 100.195312 " clip-rule="nonzero"/></clipPath><clipPath id="d062a3aa51"><path d="M 16.363281 61.585938 C 13.664062 82.910156 35.984375 103.300781 66.222656 107.128906 C 96.460938 110.960938 123.160156 96.777344 125.863281 75.457031 C 128.5625 54.132812 106.238281 33.742188 76.003906 29.914062 C 45.765625 26.082031 19.066406 40.265625 16.363281 61.585938 Z M 16.363281 61.585938 " clip-rule="nonzero"/></clipPath><clipPath id="fce7e7acad"><path d="M 17 17 L 128 17 L 128 97 L 17 97 Z M 17 17 " clip-rule="nonzero"/></clipPath><clipPath id="a6330aac3c"><path d="M 13.15625 88.511719 L 22.9375 11.292969 L 132.734375 25.199219 L 122.953125 102.417969 Z M 13.15625 88.511719 " clip-rule="nonzero"/></clipPath><clipPath id="93d777cc85"><path d="M 18.046875 49.902344 C 15.347656 71.226562 37.667969 91.617188 67.90625 95.445312 C 98.144531 99.277344 124.847656 85.09375 127.550781 63.773438 C 130.25 42.449219 107.925781 22.058594 77.6875 18.226562 C 47.449219 14.398438 20.746094 28.578125 18.046875 49.902344 Z M 18.046875 49.902344 " clip-rule="nonzero"/></clipPath><clipPath id="226ecd550c"><path d="M 0 0 L 111 0 L 111 80 L 0 80 Z M 0 0 " clip-rule="nonzero"/></clipPath><clipPath id="d9f306a142"><path d="M -3.84375 71.511719 L 5.9375 -5.707031 L 115.734375 8.199219 L 105.953125 85.417969 Z M -3.84375 71.511719 " clip-rule="nonzero"/></clipPath><clipPath id="f365463cba"><path d="M 1.046875 32.902344 C -1.652344 54.226562 20.667969 74.617188 50.90625 78.445312 C 81.144531 82.277344 107.847656 68.09375 110.550781 46.773438 C 113.25 25.449219 90.925781 5.058594 60.6875 1.226562 C 30.449219 -2.601562 3.746094 11.578125 1.046875 32.902344 Z M 1.046875 32.902344 " clip-rule="nonzero"/></clipPath><clipPath id="9405b9a89c"><rect x="0" width="111" y="0" height="80"/></clipPath><clipPath id="340b332450"><path d="M 17 17 L 128 17 L 128 97 L 17 97 Z M 17 17 " clip-rule="nonzero"/></clipPath><clipPath id="0aed7236c2"><path d="M 13.15625 88.511719 L 22.988281 10.886719 L 132.328125 24.738281 L 122.496094 102.363281 Z M 13.15625 88.511719 " clip-rule="nonzero"/></clipPath><clipPath id="709a05cb3e"><path d="M 13.15625 88.511719 L 22.945312 11.214844 L 133.222656 25.183594 L 123.433594 102.480469 Z M 13.15625 88.511719 " clip-rule="nonzero"/></clipPath><clipPath id="733d5988e8"><path d="M 18.046875 49.902344 C 15.347656 71.226562 37.667969 91.617188 67.90625 95.445312 C 98.144531 99.277344 124.84375 85.09375 127.542969 63.773438 C 130.246094 42.449219 107.921875 22.058594 77.6875 18.230469 C 47.449219 14.398438 20.746094 28.578125 18.046875 49.902344 Z M 18.046875 49.902344 " clip-rule="nonzero"/></clipPath><clipPath id="80c514780b"><path d="M 31 29 L 113 29 L 113 87 L 31 87 Z M 31 29 " clip-rule="nonzero"/></clipPath><clipPath id="bb8cacc05f"><path d="M 28.175781 81.433594 L 35.355469 24.75 L 115.953125 34.957031 L 108.773438 91.644531 Z M 28.175781 81.433594 " clip-rule="nonzero"/></clipPath><clipPath id="9fce2c0050"><path d="M 31.765625 53.09375 C 29.78125 68.746094 46.167969 83.714844 68.367188 86.527344 C 90.5625 89.335938 110.164062 78.925781 112.148438 63.273438 C 114.128906 47.621094 97.742188 32.652344 75.546875 29.839844 C 53.347656 27.027344 33.746094 37.4375 31.765625 53.09375 Z M 31.765625 53.09375 " clip-rule="nonzero"/></clipPath><clipPath id="a0a6d82e82"><path d="M 0 0 L 82 0 L 82 58 L 0 58 Z M 0 0 " clip-rule="nonzero"/></clipPath><clipPath id="3e29051230"><path d="M -2.824219 52.433594 L 4.355469 -4.25 L 84.953125 5.957031 L 77.773438 62.644531 Z M -2.824219 52.433594 " clip-rule="nonzero"/></clipPath><clipPath id="809b427005"><path d="M 0.765625 24.09375 C -1.21875 39.746094 15.167969 54.714844 37.367188 57.527344 C 59.5625 60.335938 79.164062 49.925781 81.148438 34.273438 C 83.128906 18.621094 66.742188 3.652344 44.546875 0.839844 C 22.347656 -1.972656 2.746094 8.4375 0.765625 24.09375 Z M 0.765625 24.09375 " clip-rule="nonzero"/></clipPath><clipPath id="f4201d28b3"><rect x="0" width="82" y="0" height="58"/></clipPath><clipPath id="6c6765d7ad"><path d="M 31 29 L 113 29 L 113 87 L 31 87 Z M 31 29 " clip-rule="nonzero"/></clipPath><clipPath id="be02bf1b66"><path d="M 28.175781 81.433594 L 35.363281 24.679688 L 115.492188 34.828125 L 108.300781 91.582031 Z M 28.175781 81.433594 " clip-rule="nonzero"/></clipPath><clipPath id="3d83e7f267"><path d="M 28.175781 81.433594 L 35.363281 24.699219 L 116.304688 34.949219 L 109.121094 91.6875 Z M 28.175781 81.433594 " clip-rule="nonzero"/></clipPath><clipPath id="74489a753e"><path d="M 31.765625 53.097656 C 29.78125 68.746094 46.167969 83.714844 68.363281 86.523438 C 90.558594 89.335938 110.15625 78.925781 112.136719 63.277344 C 114.121094 47.625 97.734375 32.65625 75.542969 29.847656 C 53.347656 27.035156 33.746094 37.445312 31.765625 53.097656 Z M 31.765625 53.097656 " clip-rule="nonzero"/></clipPath><clipPath id="89b880e12e"><path d="M 38 32 L 111 32 L 111 86 L 38 86 Z M 38 32 " clip-rule="nonzero"/></clipPath><clipPath id="7f1b04c627"><path d="M 34.925781 80.480469 L 41.523438 28.398438 L 114.15625 37.597656 L 107.558594 89.679688 Z M 34.925781 80.480469 " clip-rule="nonzero"/></clipPath><clipPath id="6fc2974987"><path d="M 38.226562 54.4375 C 36.402344 68.820312 51.140625 82.535156 71.144531 85.066406 C 91.144531 87.601562 108.835938 77.996094 110.660156 63.613281 C 112.480469 49.230469 97.742188 35.515625 77.742188 32.984375 C 57.738281 30.449219 40.046875 40.054688 38.226562 54.4375 Z M 38.226562 54.4375 " clip-rule="nonzero"/></clipPath><clipPath id="eb72306d30"><path d="M 0 0 L 73 0 L 73 54 L 0 54 Z M 0 0 " clip-rule="nonzero"/></clipPath><clipPath id="5a5a1be755"><path d="M -3.074219 48.480469 L 3.523438 -3.601562 L 76.15625 5.597656 L 69.558594 57.679688 Z M -3.074219 48.480469 " clip-rule="nonzero"/></clipPath><clipPath id="5050411790"><path d="M 0.226562 22.4375 C -1.597656 36.820312 13.140625 50.535156 33.144531 53.066406 C 53.144531 55.601562 70.835938 45.996094 72.660156 31.613281 C 74.480469 17.230469 59.742188 3.515625 39.742188 0.984375 C 19.738281 -1.550781 2.046875 8.054688 0.226562 22.4375 Z M 0.226562 22.4375 " clip-rule="nonzero"/></clipPath><clipPath id="c6885ae5a2"><rect x="0" width="73" y="0" height="54"/></clipPath><clipPath id="77077a756f"><path d="M 59 45 L 92 45 L 92 73 L 59 73 Z M 59 45 " clip-rule="nonzero"/></clipPath><clipPath id="396987e1e7"><path d="M 55.671875 62.609375 L 65.128906 41.957031 L 94.964844 55.613281 L 85.507812 76.265625 Z M 55.671875 62.609375 " clip-rule="nonzero"/></clipPath><clipPath id="77abd2ef01"><path d="M 55.671875 62.609375 L 65.128906 41.957031 L 94.964844 55.613281 L 85.507812 76.265625 Z M 55.671875 62.609375 " clip-rule="nonzero"/></clipPath><clipPath id="d36a6e0aa8"><rect x="0" width="143" y="0" height="125"/></clipPath><clipPath id="e1bc4c31f3"><path d="M 19.929688 19.902344 L 181.769531 19.902344 L 181.769531 201.335938 L 19.929688 201.335938 Z M 19.929688 19.902344 " clip-rule="nonzero"/></clipPath><clipPath id="c04d20cbfb"><path d="M 181.769531 19.902344 L 181.769531 172.054688 L 100.851562 201.183594 L 19.929688 172.054688 L 19.929688 19.902344 Z M 181.769531 19.902344 " clip-rule="nonzero"/></clipPath><clipPath id="98095522a8"><path d="M 0.929688 0.902344 L 162.769531 0.902344 L 162.769531 182.28125 L 0.929688 182.28125 Z M 0.929688 0.902344 " clip-rule="nonzero"/></clipPath><clipPath id="b55fdc353a"><path d="M 162.769531 0.902344 L 162.769531 153.054688 L 81.851562 182.183594 L 0.929688 153.054688 L 0.929688 0.902344 Z M 162.769531 0.902344 " clip-rule="nonzero"/></clipPath><clipPath id="76ac6c7412"><rect x="0" width="163" y="0" height="183"/></clipPath><clipPath id="9b3cb4f14d"><path d="M 19.929688 19.902344 L 181.761719 19.902344 L 181.761719 201.335938 L 19.929688 201.335938 Z M 19.929688 19.902344 " clip-rule="nonzero"/></clipPath><clipPath id="c0f4f608b9"><path d="M 181.761719 19.902344 L 181.761719 172.046875 L 100.847656 201.179688 L 19.929688 172.046875 L 19.929688 19.902344 Z M 181.761719 19.902344 " clip-rule="nonzero"/></clipPath><clipPath id="74086bafa2"><path d="M 30.207031 31.410156 L 171.496094 31.410156 L 171.496094 189.808594 L 30.207031 189.808594 Z M 30.207031 31.410156 " clip-rule="nonzero"/></clipPath><clipPath id="5d9423e208"><path d="M 171.496094 31.410156 L 171.496094 164.242188 L 100.851562 189.675781 L 30.207031 164.242188 L 30.207031 31.410156 Z M 171.496094 31.410156 " clip-rule="nonzero"/></clipPath><clipPath id="5b6423748b"><path d="M 0.207031 0.410156 L 141.496094 0.410156 L 141.496094 158.761719 L 0.207031 158.761719 Z M 0.207031 0.410156 " clip-rule="nonzero"/></clipPath><clipPath id="fee10335aa"><path d="M 141.496094 0.410156 L 141.496094 133.242188 L 70.851562 158.675781 L 0.207031 133.242188 L 0.207031 0.410156 Z M 141.496094 0.410156 " clip-rule="nonzero"/></clipPath><clipPath id="7713366d0e"><rect x="0" width="142" y="0" height="159"/></clipPath><clipPath id="fe9f17d106"><path d="M 34.714844 33.972656 L 170.59375 33.972656 L 170.59375 186.308594 L 34.714844 186.308594 Z M 34.714844 33.972656 " clip-rule="nonzero"/></clipPath><clipPath id="2287e72ee7"><path d="M 170.59375 33.972656 L 170.59375 161.71875 L 102.65625 186.179688 L 34.714844 161.71875 L 34.714844 33.972656 Z M 170.59375 33.972656 " clip-rule="nonzero"/></clipPath><clipPath id="16746944cb"><path d="M 0.714844 0.972656 L 136.59375 0.972656 L 136.59375 153.308594 L 0.714844 153.308594 Z M 0.714844 0.972656 " clip-rule="nonzero"/></clipPath><clipPath id="79dff7446a"><path d="M 136.59375 0.972656 L 136.59375 128.71875 L 68.65625 153.179688 L 0.714844 128.71875 L 0.714844 0.972656 Z M 136.59375 0.972656 " clip-rule="nonzero"/></clipPath><clipPath id="28a016f77e"><rect x="0" width="137" y="0" height="154"/></clipPath><clipPath id="bcebcc2b6b"><rect x="0" width="202" y="0" height="221"/></clipPath><mask id="9abc440d32"><g filter="url(#271c94d306)"><rect x="-373" width="1080" fill="#000000" y="-556.999999" height="1079.999992" fill-opacity="0.13"/></g></mask><clipPath id="587357efad"><path d="M 3 4 L 114 4 L 114 83 L 3 83 Z M 3 4 " clip-rule="nonzero"/></clipPath><clipPath id="540906cd18"><path d="M 7.03125 0.1875 L 117.234375 9.765625 L 110.476562 87.488281 L 0.273438 77.90625 Z M 7.03125 0.1875 " clip-rule="nonzero"/></clipPath><clipPath id="c497aae2aa"><path d="M 62.015625 4.96875 C 31.648438 2.328125 5.515625 17.585938 3.652344 39.046875 C 1.785156 60.507812 24.890625 80.046875 55.261719 82.6875 C 85.628906 85.328125 111.761719 70.070312 113.625 48.605469 C 115.492188 27.144531 92.386719 7.605469 62.015625 4.96875 Z M 62.015625 4.96875 " clip-rule="nonzero"/></clipPath><clipPath id="0b3a8e8497"><path d="M 0 0 L 111 0 L 111 79 L 0 79 Z M 0 0 " clip-rule="nonzero"/></clipPath><clipPath id="d8c948d351"><path d="M 4.03125 -3.8125 L 114.234375 5.765625 L 107.476562 83.488281 L -2.726562 73.90625 Z M 4.03125 -3.8125 " clip-rule="nonzero"/></clipPath><clipPath id="690c064b1b"><path d="M 59.015625 0.96875 C 28.648438 -1.671875 2.515625 13.585938 0.652344 35.046875 C -1.214844 56.507812 21.890625 76.046875 52.261719 78.6875 C 82.628906 81.328125 108.761719 66.070312 110.625 44.605469 C 112.492188 23.144531 89.386719 3.605469 59.015625 0.96875 Z M 59.015625 0.96875 " clip-rule="nonzero"/></clipPath><clipPath id="b6b5259873"><rect x="0" width="111" y="0" height="79"/></clipPath><clipPath id="5b2b57e376"><rect x="0" width="118" y="0" height="88"/></clipPath><clipPath id="2e2bdded76"><path d="M 16 29 L 127 29 L 127 108 L 16 108 Z M 16 29 " clip-rule="nonzero"/></clipPath><clipPath id="cc96425ccd"><path d="M 11.414062 100.199219 L 21.195312 22.980469 L 130.992188 36.886719 L 121.210938 114.105469 Z M 11.414062 100.199219 " clip-rule="nonzero"/></clipPath><clipPath id="ce3cdc089f"><path d="M 16.304688 61.589844 C 13.605469 82.914062 35.925781 103.304688 66.164062 107.132812 C 96.402344 110.964844 123.105469 96.78125 125.808594 75.457031 C 128.507812 54.132812 106.183594 33.742188 75.945312 29.914062 C 45.707031 26.082031 19.003906 40.265625 16.304688 61.589844 Z M 16.304688 61.589844 " clip-rule="nonzero"/></clipPath><clipPath id="08f59573e2"><path d="M 0 0 L 111 0 L 111 79 L 0 79 Z M 0 0 " clip-rule="nonzero"/></clipPath><clipPath id="1e1f5db1dc"><path d="M -4.585938 71.199219 L 5.195312 -6.019531 L 114.992188 7.886719 L 105.210938 85.105469 Z M -4.585938 71.199219 " clip-rule="nonzero"/></clipPath><clipPath id="fee911651b"><path d="M 0.304688 32.589844 C -2.394531 53.914062 19.925781 74.304688 50.164062 78.132812 C 80.402344 81.964844 107.105469 67.78125 109.808594 46.457031 C 112.507812 25.132812 90.183594 4.742188 59.945312 0.914062 C 29.707031 -2.917969 3.003906 11.265625 0.304688 32.589844 Z M 0.304688 32.589844 " clip-rule="nonzero"/></clipPath><clipPath id="8b9f2efa70"><rect x="0" width="111" y="0" height="79"/></clipPath><clipPath id="5794ea038a"><path d="M 16 29 L 127 29 L 127 108 L 16 108 Z M 16 29 " clip-rule="nonzero"/></clipPath><clipPath id="0d1966af7d"><path d="M 11.414062 100.199219 L 21.246094 22.574219 L 130.585938 36.425781 L 120.757812 114.046875 Z M 11.414062 100.199219 " clip-rule="nonzero"/></clipPath><clipPath id="7109863336"><path d="M 11.414062 100.199219 L 21.203125 22.902344 L 131.480469 36.871094 L 121.691406 114.164062 Z M 11.414062 100.199219 " clip-rule="nonzero"/></clipPath><clipPath id="55ff6c692c"><path d="M 16.304688 61.589844 C 13.605469 82.910156 35.925781 103.300781 66.164062 107.132812 C 96.402344 110.960938 123.101562 96.78125 125.800781 75.457031 C 128.503906 54.136719 106.179688 33.746094 75.945312 29.914062 C 45.707031 26.085938 19.003906 40.265625 16.304688 61.589844 Z M 16.304688 61.589844 " clip-rule="nonzero"/></clipPath><clipPath id="621b6824a4"><path d="M 17 17 L 128 17 L 128 97 L 17 97 Z M 17 17 " clip-rule="nonzero"/></clipPath><clipPath id="6bc0491956"><path d="M 13.097656 88.515625 L 22.878906 11.292969 L 132.675781 25.199219 L 122.894531 102.421875 Z M 13.097656 88.515625 " clip-rule="nonzero"/></clipPath><clipPath id="65b3374e6e"><path d="M 17.988281 49.90625 C 15.285156 71.226562 37.609375 91.621094 67.847656 95.449219 C 98.085938 99.277344 124.789062 85.097656 127.488281 63.773438 C 130.191406 42.449219 107.867188 22.058594 77.628906 18.230469 C 47.390625 14.398438 20.6875 28.582031 17.988281 49.90625 Z M 17.988281 49.90625 " clip-rule="nonzero"/></clipPath><clipPath id="fb36063bcb"><path d="M 0 0 L 111 0 L 111 80 L 0 80 Z M 0 0 " clip-rule="nonzero"/></clipPath><clipPath id="989d901ad5"><path d="M -3.902344 71.515625 L 5.878906 -5.707031 L 115.675781 8.199219 L 105.894531 85.421875 Z M -3.902344 71.515625 " clip-rule="nonzero"/></clipPath><clipPath id="365eed2414"><path d="M 0.988281 32.90625 C -1.714844 54.226562 20.609375 74.621094 50.847656 78.449219 C 81.085938 82.277344 107.789062 68.097656 110.488281 46.773438 C 113.191406 25.449219 90.867188 5.058594 60.628906 1.230469 C 30.390625 -2.601562 3.6875 11.582031 0.988281 32.90625 Z M 0.988281 32.90625 " clip-rule="nonzero"/></clipPath><clipPath id="9ecd1e7d52"><rect x="0" width="111" y="0" height="80"/></clipPath><clipPath id="94acdb31cf"><path d="M 17 17 L 128 17 L 128 97 L 17 97 Z M 17 17 " clip-rule="nonzero"/></clipPath><clipPath id="7289830f06"><path d="M 13.097656 88.515625 L 22.929688 10.890625 L 132.269531 24.738281 L 122.4375 102.363281 Z M 13.097656 88.515625 " clip-rule="nonzero"/></clipPath><clipPath id="931a0e3ba1"><path d="M 13.097656 88.511719 L 22.886719 11.21875 L 133.164062 25.183594 L 123.371094 102.480469 Z M 13.097656 88.511719 " clip-rule="nonzero"/></clipPath><clipPath id="0a99384f16"><path d="M 17.988281 49.90625 C 15.285156 71.226562 37.609375 91.617188 67.847656 95.449219 C 98.082031 99.277344 124.785156 85.097656 127.484375 63.773438 C 130.1875 42.449219 107.863281 22.058594 77.625 18.230469 C 47.390625 14.402344 20.6875 28.582031 17.988281 49.90625 Z M 17.988281 49.90625 " clip-rule="nonzero"/></clipPath><clipPath id="c8f7d6f4e9"><path d="M 31 29 L 113 29 L 113 87 L 31 87 Z M 31 29 " clip-rule="nonzero"/></clipPath><clipPath id="38af6cee30"><path d="M 28.113281 81.4375 L 35.292969 24.75 L 115.894531 34.960938 L 108.714844 91.644531 Z M 28.113281 81.4375 " clip-rule="nonzero"/></clipPath><clipPath id="6287815f35"><path d="M 31.703125 53.09375 C 29.722656 68.746094 46.109375 83.714844 68.304688 86.527344 C 90.503906 89.339844 110.105469 78.929688 112.085938 63.277344 C 114.070312 47.621094 97.683594 32.652344 75.484375 29.84375 C 53.289062 27.03125 33.6875 37.441406 31.703125 53.09375 Z M 31.703125 53.09375 " clip-rule="nonzero"/></clipPath><clipPath id="81db7785b1"><path d="M 0 0 L 82 0 L 82 58 L 0 58 Z M 0 0 " clip-rule="nonzero"/></clipPath><clipPath id="109251be1e"><path d="M -2.886719 52.4375 L 4.292969 -4.25 L 84.894531 5.960938 L 77.714844 62.644531 Z M -2.886719 52.4375 " clip-rule="nonzero"/></clipPath><clipPath id="6b001502c3"><path d="M 0.703125 24.09375 C -1.277344 39.746094 15.109375 54.714844 37.304688 57.527344 C 59.503906 60.339844 79.105469 49.929688 81.085938 34.277344 C 83.070312 18.621094 66.683594 3.652344 44.484375 0.84375 C 22.289062 -1.96875 2.6875 8.441406 0.703125 24.09375 Z M 0.703125 24.09375 " clip-rule="nonzero"/></clipPath><clipPath id="5b49b9b04e"><rect x="0" width="82" y="0" height="58"/></clipPath><clipPath id="9e86762c36"><path d="M 31 29 L 113 29 L 113 87 L 31 87 Z M 31 29 " clip-rule="nonzero"/></clipPath><clipPath id="8c5a5ff370"><path d="M 28.113281 81.4375 L 35.304688 24.679688 L 115.433594 34.828125 L 108.242188 91.585938 Z M 28.113281 81.4375 " clip-rule="nonzero"/></clipPath><clipPath id="04ae664d9c"><path d="M 28.117188 81.4375 L 35.300781 24.699219 L 116.246094 34.953125 L 109.058594 91.6875 Z M 28.117188 81.4375 " clip-rule="nonzero"/></clipPath><clipPath id="e8c76b584b"><path d="M 31.707031 53.097656 C 29.722656 68.75 46.109375 83.714844 68.304688 86.527344 C 90.496094 89.339844 110.097656 78.929688 112.078125 63.277344 C 114.0625 47.625 97.675781 32.660156 75.480469 29.847656 C 53.289062 27.035156 33.6875 37.445312 31.707031 53.097656 Z M 31.707031 53.097656 " clip-rule="nonzero"/></clipPath><clipPath id="a4ac5e879a"><path d="M 38 32 L 111 32 L 111 86 L 38 86 Z M 38 32 " clip-rule="nonzero"/></clipPath><clipPath id="949ea342ef"><path d="M 34.867188 80.480469 L 41.464844 28.398438 L 114.097656 37.597656 L 107.5 89.683594 Z M 34.867188 80.480469 " clip-rule="nonzero"/></clipPath><clipPath id="953b4409db"><path d="M 38.164062 54.441406 C 36.34375 68.824219 51.082031 82.535156 71.085938 85.070312 C 91.085938 87.601562 108.777344 77.996094 110.601562 63.613281 C 112.421875 49.234375 97.683594 35.519531 77.679688 32.984375 C 57.679688 30.453125 39.988281 40.058594 38.164062 54.441406 Z M 38.164062 54.441406 " clip-rule="nonzero"/></clipPath><clipPath id="17b8fbc0f6"><path d="M 0 0 L 73 0 L 73 54 L 0 54 Z M 0 0 " clip-rule="nonzero"/></clipPath><clipPath id="e2f52b0e4a"><path d="M -3.132812 48.480469 L 3.464844 -3.601562 L 76.097656 5.597656 L 69.5 57.683594 Z M -3.132812 48.480469 " clip-rule="nonzero"/></clipPath><clipPath id="d54b11fa2a"><path d="M 0.164062 22.441406 C -1.65625 36.824219 13.082031 50.535156 33.085938 53.070312 C 53.085938 55.601562 70.777344 45.996094 72.601562 31.613281 C 74.421875 17.234375 59.683594 3.519531 39.679688 0.984375 C 19.679688 -1.546875 1.988281 8.058594 0.164062 22.441406 Z M 0.164062 22.441406 " clip-rule="nonzero"/></clipPath><clipPath id="0ba8c8518c"><rect x="0" width="73" y="0" height="54"/></clipPath><clipPath id="3ea79cd9ad"><path d="M 59 45 L 92 45 L 92 73 L 59 73 Z M 59 45 " clip-rule="nonzero"/></clipPath><clipPath id="d4b6144c0e"><path d="M 55.613281 62.613281 L 65.070312 41.957031 L 94.902344 55.613281 L 85.449219 76.269531 Z M 55.613281 62.613281 " clip-rule="nonzero"/></clipPath><clipPath id="fc791c343a"><path d="M 55.613281 62.613281 L 65.070312 41.957031 L 94.902344 55.613281 L 85.449219 76.269531 Z M 55.613281 62.613281 " clip-rule="nonzero"/></clipPath><clipPath id="b51055a9d3"><rect x="0" width="143" y="0" height="125"/></clipPath><mask id="c826465c45"><g filter="url(#271c94d306)"><rect x="-371" width="1080" fill="#000000" y="-541.999999" height="1079.999992" fill-opacity="0.13"/></g></mask><clipPath id="fd433c5161"><path d="M 3 4 L 114 4 L 114 84 L 3 84 Z M 3 4 " clip-rule="nonzero"/></clipPath><clipPath id="9d6b901709"><path d="M 7.253906 0.265625 L 117.457031 9.847656 L 110.699219 87.566406 L 0.496094 77.984375 Z M 7.253906 0.265625 " clip-rule="nonzero"/></clipPath><clipPath id="790c880e63"><path d="M 62.238281 5.046875 C 31.871094 2.40625 5.738281 17.664062 3.875 39.125 C 2.007812 60.585938 25.113281 80.125 55.484375 82.765625 C 85.851562 85.40625 111.984375 70.148438 113.847656 48.6875 C 115.714844 27.226562 92.609375 7.6875 62.238281 5.046875 Z M 62.238281 5.046875 " clip-rule="nonzero"/></clipPath><clipPath id="dc00d6f9b4"><path d="M 0 0 L 111 0 L 111 80 L 0 80 Z M 0 0 " clip-rule="nonzero"/></clipPath><clipPath id="2cfd382e21"><path d="M 4.253906 -3.734375 L 114.457031 5.847656 L 107.699219 83.566406 L -2.503906 73.984375 Z M 4.253906 -3.734375 " clip-rule="nonzero"/></clipPath><clipPath id="c9bf76ebfc"><path d="M 59.238281 1.046875 C 28.871094 -1.59375 2.738281 13.664062 0.875 35.125 C -0.992188 56.585938 22.113281 76.125 52.484375 78.765625 C 82.851562 81.40625 108.984375 66.148438 110.847656 44.6875 C 112.714844 23.226562 89.609375 3.6875 59.238281 1.046875 Z M 59.238281 1.046875 " clip-rule="nonzero"/></clipPath><clipPath id="a3744793d0"><rect x="0" width="111" y="0" height="80"/></clipPath><clipPath id="cc7c94130f"><rect x="0" width="118" y="0" height="88"/></clipPath><clipPath id="480c20aa0a"><path d="M 15 29 L 126 29 L 126 108 L 15 108 Z M 15 29 " clip-rule="nonzero"/></clipPath><clipPath id="b6634916ea"><path d="M 10.636719 100.277344 L 20.417969 23.058594 L 130.214844 36.964844 L 120.433594 114.183594 Z M 10.636719 100.277344 " clip-rule="nonzero"/></clipPath><clipPath id="64e225771c"><path d="M 15.527344 61.667969 C 12.828125 82.992188 35.148438 103.382812 65.386719 107.210938 C 95.625 111.042969 122.328125 96.859375 125.027344 75.539062 C 127.730469 54.214844 105.40625 33.824219 75.167969 29.992188 C 44.929688 26.164062 18.226562 40.34375 15.527344 61.667969 Z M 15.527344 61.667969 " clip-rule="nonzero"/></clipPath><clipPath id="30bf47e6af"><path d="M 0 0 L 111 0 L 111 79 L 0 79 Z M 0 0 " clip-rule="nonzero"/></clipPath><clipPath id="160cc4cb93"><path d="M -4.363281 71.277344 L 5.417969 -5.941406 L 115.214844 7.964844 L 105.433594 85.183594 Z M -4.363281 71.277344 " clip-rule="nonzero"/></clipPath><clipPath id="82bf8fb404"><path d="M 0.527344 32.667969 C -2.171875 53.992188 20.148438 74.382812 50.386719 78.210938 C 80.625 82.042969 107.328125 67.859375 110.027344 46.539062 C 112.730469 25.214844 90.40625 4.824219 60.167969 0.992188 C 29.929688 -2.835938 3.226562 11.34375 0.527344 32.667969 Z M 0.527344 32.667969 " clip-rule="nonzero"/></clipPath><clipPath id="fad650d4bc"><rect x="0" width="111" y="0" height="79"/></clipPath><clipPath id="d80fa5c18e"><path d="M 15 29 L 126 29 L 126 108 L 15 108 Z M 15 29 " clip-rule="nonzero"/></clipPath><clipPath id="953c854263"><path d="M 10.636719 100.277344 L 20.46875 22.652344 L 129.808594 36.503906 L 119.976562 114.128906 Z M 10.636719 100.277344 " clip-rule="nonzero"/></clipPath><clipPath id="594f1636a7"><path d="M 10.636719 100.277344 L 20.425781 22.980469 L 130.703125 36.949219 L 120.910156 114.242188 Z M 10.636719 100.277344 " clip-rule="nonzero"/></clipPath><clipPath id="9d643a1fe9"><path d="M 15.527344 61.667969 C 12.828125 82.992188 35.148438 103.382812 65.386719 107.210938 C 95.621094 111.042969 122.324219 96.859375 125.023438 75.535156 C 127.726562 54.214844 105.402344 33.824219 75.167969 29.992188 C 44.929688 26.164062 18.226562 40.34375 15.527344 61.667969 Z M 15.527344 61.667969 " clip-rule="nonzero"/></clipPath><clipPath id="133d0595c8"><path d="M 16 17 L 127 17 L 127 97 L 16 97 Z M 16 17 " clip-rule="nonzero"/></clipPath><clipPath id="cb7453626d"><path d="M 12.320312 88.59375 L 22.101562 11.375 L 131.898438 25.28125 L 122.117188 102.5 Z M 12.320312 88.59375 " clip-rule="nonzero"/></clipPath><clipPath id="b3a8f200a3"><path d="M 17.210938 49.984375 C 14.507812 71.308594 36.832031 91.699219 67.070312 95.527344 C 97.308594 99.359375 124.011719 85.175781 126.710938 63.851562 C 129.414062 42.527344 107.089844 22.136719 76.851562 18.308594 C 46.613281 14.476562 19.910156 28.660156 17.210938 49.984375 Z M 17.210938 49.984375 " clip-rule="nonzero"/></clipPath><clipPath id="4a708e3ab9"><path d="M 0 0 L 111 0 L 111 80 L 0 80 Z M 0 0 " clip-rule="nonzero"/></clipPath><clipPath id="2375d5e278"><path d="M -3.679688 71.59375 L 6.101562 -5.625 L 115.898438 8.28125 L 106.117188 85.5 Z M -3.679688 71.59375 " clip-rule="nonzero"/></clipPath><clipPath id="5cbdf8be34"><path d="M 1.210938 32.984375 C -1.492188 54.308594 20.832031 74.699219 51.070312 78.527344 C 81.308594 82.359375 108.011719 68.175781 110.710938 46.851562 C 113.414062 25.527344 91.089844 5.136719 60.851562 1.308594 C 30.613281 -2.523438 3.910156 11.660156 1.210938 32.984375 Z M 1.210938 32.984375 " clip-rule="nonzero"/></clipPath><clipPath id="05be183068"><rect x="0" width="111" y="0" height="80"/></clipPath><clipPath id="f590884468"><path d="M 16 17 L 127 17 L 127 97 L 16 97 Z M 16 17 " clip-rule="nonzero"/></clipPath><clipPath id="d65ab19cb2"><path d="M 12.320312 88.59375 L 22.152344 10.96875 L 131.492188 24.820312 L 121.660156 102.441406 Z M 12.320312 88.59375 " clip-rule="nonzero"/></clipPath><clipPath id="5f102a1130"><path d="M 12.320312 88.59375 L 22.109375 11.296875 L 132.382812 25.265625 L 122.59375 102.558594 Z M 12.320312 88.59375 " clip-rule="nonzero"/></clipPath><clipPath id="9147fe29bd"><path d="M 17.210938 49.984375 C 14.507812 71.308594 36.832031 91.695312 67.070312 95.527344 C 97.304688 99.355469 124.007812 85.175781 126.707031 63.851562 C 129.410156 42.53125 107.085938 22.140625 76.847656 18.308594 C 46.613281 14.480469 19.910156 28.660156 17.210938 49.984375 Z M 17.210938 49.984375 " clip-rule="nonzero"/></clipPath><clipPath id="0a53cfeb37"><path d="M 30 29 L 112 29 L 112 88 L 30 88 Z M 30 29 " clip-rule="nonzero"/></clipPath><clipPath id="c8e7306aee"><path d="M 27.335938 81.515625 L 34.515625 24.832031 L 115.117188 35.039062 L 107.9375 91.726562 Z M 27.335938 81.515625 " clip-rule="nonzero"/></clipPath><clipPath id="97fadcd2e0"><path d="M 30.925781 53.171875 C 28.945312 68.828125 45.332031 83.796875 67.527344 86.605469 C 89.726562 89.417969 109.328125 79.007812 111.308594 63.355469 C 113.292969 47.703125 96.90625 32.734375 74.707031 29.921875 C 52.511719 27.109375 32.910156 37.519531 30.925781 53.171875 Z M 30.925781 53.171875 " clip-rule="nonzero"/></clipPath><clipPath id="135124782b"><path d="M 0 0 L 82 0 L 82 59 L 0 59 Z M 0 0 " clip-rule="nonzero"/></clipPath><clipPath id="3b48185baf"><path d="M -2.664062 52.515625 L 4.515625 -4.167969 L 85.117188 6.039062 L 77.9375 62.726562 Z M -2.664062 52.515625 " clip-rule="nonzero"/></clipPath><clipPath id="22d76eae4b"><path d="M 0.925781 24.171875 C -1.054688 39.828125 15.332031 54.796875 37.527344 57.605469 C 59.726562 60.417969 79.328125 50.007812 81.308594 34.355469 C 83.292969 18.703125 66.90625 3.734375 44.707031 0.921875 C 22.511719 -1.890625 2.910156 8.519531 0.925781 24.171875 Z M 0.925781 24.171875 " clip-rule="nonzero"/></clipPath><clipPath id="fc034200b9"><rect x="0" width="82" y="0" height="59"/></clipPath><clipPath id="042b9cfeb5"><path d="M 30 29 L 112 29 L 112 88 L 30 88 Z M 30 29 " clip-rule="nonzero"/></clipPath><clipPath id="0a33a5522d"><path d="M 27.335938 81.515625 L 34.527344 24.757812 L 114.652344 34.90625 L 107.464844 91.664062 Z M 27.335938 81.515625 " clip-rule="nonzero"/></clipPath><clipPath id="50b51f683f"><path d="M 27.339844 81.515625 L 34.523438 24.78125 L 115.46875 35.03125 L 108.28125 91.769531 Z M 27.339844 81.515625 " clip-rule="nonzero"/></clipPath><clipPath id="9d6cdf4082"><path d="M 30.929688 53.175781 C 28.945312 68.828125 45.332031 83.796875 67.523438 86.605469 C 89.71875 89.417969 109.320312 79.007812 111.300781 63.355469 C 113.285156 47.707031 96.898438 32.738281 74.703125 29.925781 C 52.507812 27.117188 32.910156 37.523438 30.929688 53.175781 Z M 30.929688 53.175781 " clip-rule="nonzero"/></clipPath><clipPath id="1b1ff0785e"><path d="M 37 32 L 110 32 L 110 86 L 37 86 Z M 37 32 " clip-rule="nonzero"/></clipPath><clipPath id="31b7177751"><path d="M 34.089844 80.5625 L 40.6875 28.476562 L 113.316406 37.675781 L 106.722656 89.761719 Z M 34.089844 80.5625 " clip-rule="nonzero"/></clipPath><clipPath id="61c79a6106"><path d="M 37.386719 54.519531 C 35.566406 68.902344 50.304688 82.617188 70.304688 85.148438 C 90.308594 87.683594 108 78.078125 109.820312 63.695312 C 111.644531 49.3125 96.90625 35.597656 76.902344 33.066406 C 56.902344 30.53125 39.210938 40.136719 37.386719 54.519531 Z M 37.386719 54.519531 " clip-rule="nonzero"/></clipPath><clipPath id="8a05641c88"><path d="M 0 0 L 73 0 L 73 54 L 0 54 Z M 0 0 " clip-rule="nonzero"/></clipPath><clipPath id="ff862bd603"><path d="M -2.910156 48.5625 L 3.6875 -3.523438 L 76.316406 5.675781 L 69.722656 57.761719 Z M -2.910156 48.5625 " clip-rule="nonzero"/></clipPath><clipPath id="81ba0ae02c"><path d="M 0.386719 22.519531 C -1.433594 36.902344 13.304688 50.617188 33.304688 53.148438 C 53.308594 55.683594 71 46.078125 72.820312 31.695312 C 74.644531 17.3125 59.90625 3.597656 39.902344 1.066406 C 19.902344 -1.46875 2.210938 8.136719 0.386719 22.519531 Z M 0.386719 22.519531 " clip-rule="nonzero"/></clipPath><clipPath id="cec1f12e7f"><rect x="0" width="73" y="0" height="54"/></clipPath><clipPath id="6101b2e705"><path d="M 59 45 L 91 45 L 91 74 L 59 74 Z M 59 45 " clip-rule="nonzero"/></clipPath><clipPath id="d441d1f9c3"><path d="M 54.835938 62.691406 L 64.289062 42.035156 L 94.125 55.691406 L 84.671875 76.347656 Z M 54.835938 62.691406 " clip-rule="nonzero"/></clipPath><clipPath id="978311c93e"><path d="M 54.835938 62.691406 L 64.289062 42.035156 L 94.125 55.691406 L 84.671875 76.347656 Z M 54.835938 62.691406 " clip-rule="nonzero"/></clipPath><clipPath id="ef49d81bef"><rect x="0" width="142" y="0" height="125"/></clipPath><clipPath id="87e750412b"><path d="M 343 345.28125 L 394.023438 345.28125 L 394.023438 394 L 343 394 Z M 343 345.28125 " clip-rule="nonzero"/></clipPath><clipPath id="549a6a1bc1"><path d="M 331.023438 349 L 387 349 L 387 404.53125 L 331.023438 404.53125 Z M 331.023438 349 " clip-rule="nonzero"/></clipPath></defs><g transform="matrix(1, 0, 0, 1, 369, 356)"><g clip-path="url(#b1b1e42cdc)"><g mask="url(#4cae4e26a7)"><g transform="matrix(1, 0, 0, 1, 16, 29)"><g clip-path="url(#431eec6fe8)"><g clip-path="url(#c20abd3c8e)"><g clip-path="url(#7dcd0f6a98)"><g clip-path="url(#c9722575a5)"><g transform="matrix(1, 0, 0, 1, 3, 5)"><g clip-path="url(#4f0028e476)"><g clip-path="url(#1302261c22)"><g clip-path="url(#6092ce07f3)"><g clip-path="url(#7cded9e17f)"><path fill="#000000" d="M 4.304688 -4.097656 L 114.207031 5.457031 L 107.449219 83.175781 L -2.453125 73.625 Z M 4.304688 -4.097656 " fill-opacity="1" fill-rule="nonzero"/></g></g></g></g></g></g></g></g></g></g></g><g clip-path="url(#471b17bcc3)"><g clip-path="url(#4df3c20104)"><g clip-path="url(#50531807bc)"><g transform="matrix(1, 0, 0, 1, 15, 29)"><g clip-path="url(#9fac71ebb7)"><g clip-path="url(#c0a92df099)"><g clip-path="url(#e60b25cb2c)"><g clip-path="url(#a65d71b79d)"><path fill="#ffffff" d="M -4.308594 70.914062 L 5.46875 -6.304688 L 114.964844 7.5625 L 105.183594 84.785156 Z M -4.308594 70.914062 " fill-opacity="1" fill-rule="nonzero"/></g></g></g></g></g></g></g></g><g clip-path="url(#02039afd83)"><g clip-path="url(#f7c68620ec)"><g clip-path="url(#9dddd68e60)"><g clip-path="url(#b3bc21b740)"><path stroke-linecap="butt" transform="matrix(0.105717, -0.834666, 0.834666, 0.105717, 10.689711, 99.914303)" fill="none" stroke-linejoin="miter" d="M 46.257312 -0.00211983 C 20.709345 -0.000160527 -0.000484363 29.369202 0.00104484 65.592343 C -0.00144869 101.820674 20.710944 131.185206 46.254888 131.188436 C 71.802855 131.186476 92.513268 101.82172 92.511156 65.593973 C 92.513649 29.365642 71.801257 0.0011104 46.257312 -0.00211983 Z M 46.257312 -0.00211983 " stroke="#000000" stroke-width="5.348649" stroke-opacity="1" stroke-miterlimit="4"/></g></g></g></g><g clip-path="url(#cfe5dbc412)"><g clip-path="url(#ad0e27d42c)"><g clip-path="url(#2c8f5393d1)"><g transform="matrix(1, 0, 0, 1, 17, 17)"><g clip-path="url(#93e75c6ae9)"><g clip-path="url(#4ed80dbbb4)"><g clip-path="url(#a2b25bd0b6)"><g clip-path="url(#4560be774e)"><path fill="#ffffff" d="M -4.628906 71.230469 L 5.152344 -5.988281 L 114.648438 7.878906 L 104.867188 85.097656 Z M -4.628906 71.230469 " fill-opacity="1" fill-rule="nonzero"/></g></g></g></g></g></g></g></g><g clip-path="url(#9a1b20dc35)"><g clip-path="url(#2ce67998a7)"><g clip-path="url(#e6582548be)"><g clip-path="url(#7320305223)"><path stroke-linecap="butt" transform="matrix(0.105717, -0.834666, 0.834666, 0.105717, 12.372377, 88.229861)" fill="none" stroke-linejoin="miter" d="M 46.25645 -0.000899163 C 20.708483 0.00106014 -0.00193019 29.365817 0.000182413 65.593564 C 0.00229501 101.821311 20.710081 131.186426 46.258632 131.189073 C 71.801993 131.187697 92.511822 101.818334 92.514899 65.59461 C 92.512787 29.366862 71.805 0.00174766 46.25645 -0.000899163 Z M 46.25645 -0.000899163 " stroke="#000000" stroke-width="5.348649" stroke-opacity="1" stroke-miterlimit="4"/></g></g></g></g><g clip-path="url(#c14459472a)"><g clip-path="url(#388a07c9b1)"><g clip-path="url(#aef3428276)"><g transform="matrix(1, 0, 0, 1, 30, 29)"><g clip-path="url(#fb2124e7ca)"><g clip-path="url(#1b36eb9770)"><g clip-path="url(#1383ae3390)"><g clip-path="url(#139a0453ea)"><path fill="#000000" d="M -2.609375 52.152344 L 4.570312 -4.53125 L 84.949219 5.648438 L 77.769531 62.335938 Z M -2.609375 52.152344 " fill-opacity="1" fill-rule="nonzero"/></g></g></g></g></g></g></g></g><g clip-path="url(#b8666a606e)"><g clip-path="url(#b6ad3a6e58)"><g clip-path="url(#562e0076ee)"><g clip-path="url(#9c71a18e87)"><path stroke-linecap="butt" transform="matrix(0.105717, -0.834666, 0.834666, 0.105717, 27.39095, 81.153699)" fill="none" stroke-linejoin="miter" d="M 33.95513 -0.000137964 C 15.20202 -0.00235783 -0.00127843 21.555932 0.0018076 48.147398 C 0.000287511 74.739448 15.202537 96.29361 33.955647 96.29583 C 52.703568 96.294027 67.906866 74.735737 67.904364 48.148877 C 67.905884 21.556827 52.703051 -0.00194082 33.95513 -0.000137964 Z M 33.95513 -0.000137964 " stroke="#000000" stroke-width="5.348649" stroke-opacity="1" stroke-miterlimit="4"/></g></g></g></g><path stroke-linecap="butt" transform="matrix(0.176338, -0.822647, 0.822647, 0.176338, 21.891195, 83.12664)" fill="none" stroke-linejoin="miter" d="M 0.000565363 1.499678 L 12.859726 1.50208 " stroke="#000000" stroke-width="3" stroke-opacity="1" stroke-miterlimit="4"/><path stroke-linecap="butt" transform="matrix(0.391024, -0.744945, 0.744945, 0.391024, 34.088743, 94.925018)" fill="none" stroke-linejoin="miter" d="M 0.000306831 1.501008 L 12.861775 1.498601 " stroke="#000000" stroke-width="3" stroke-opacity="1" stroke-miterlimit="4"/><path stroke-linecap="butt" transform="matrix(0.274096, -0.795434, 0.795434, 0.274096, 51.834328, 101.428689)" fill="none" stroke-linejoin="miter" d="M -0.0000647087 1.499853 L 12.862234 1.502171 " stroke="#000000" stroke-width="3" stroke-opacity="1" stroke-miterlimit="4"/><path stroke-linecap="butt" transform="matrix(0.0381154, -0.84047, 0.84047, 0.0381154, 71.908839, 106.409773)" fill="none" stroke-linejoin="miter" d="M -0.00222609 1.498227 L 12.862696 1.50041 " stroke="#000000" stroke-width="3" stroke-opacity="1" stroke-miterlimit="4"/><path stroke-linecap="butt" transform="matrix(-0.0809226, -0.837433, 0.837433, -0.0809226, 89.993066, 103.95616)" fill="none" stroke-linejoin="miter" d="M -0.00146375 1.500795 L 12.863587 1.498532 " stroke="#000000" stroke-width="3" stroke-opacity="1" stroke-miterlimit="4"/><path stroke-linecap="butt" transform="matrix(-0.0809226, -0.837433, 0.837433, -0.0809226, 107.848837, 96.846511)" fill="none" stroke-linejoin="miter" d="M -0.00175365 1.500406 L 12.863297 1.498143 " stroke="#000000" stroke-width="3" stroke-opacity="1" stroke-miterlimit="4"/><g clip-path="url(#59df32dfc1)"><g clip-path="url(#1ac6f0a4de)"><g clip-path="url(#517c2a0875)"><g transform="matrix(1, 0, 0, 1, 37, 32)"><g clip-path="url(#b890f32dda)"><g clip-path="url(#602eba6524)"><g clip-path="url(#f6c6560618)"><g clip-path="url(#fab0872d3d)"><path fill="#a9c5e7" d="M -2.859375 48.199219 L 3.738281 -3.882812 L 76.167969 5.289062 L 69.570312 57.371094 Z M -2.859375 48.199219 " fill-opacity="1" fill-rule="nonzero"/></g></g></g></g></g></g></g></g><g clip-path="url(#f839bbf673)"><g clip-path="url(#7e9a1396e2)"><g clip-path="url(#0fca95965f)"><path fill="#ffffff" d="M 77.738281 51.023438 C 76.105469 51.789062 74.40625 53.21875 72.683594 55.453125 L 67.6875 53.164062 C 68.589844 51.953125 69.738281 50.964844 71.132812 50.207031 C 71.316406 50.058594 71.5 49.914062 71.492188 49.675781 C 71.582031 49.484375 71.574219 49.246094 71.425781 49.0625 L 69.265625 45.402344 C 69.117188 45.214844 68.96875 45.03125 68.730469 45.039062 C 68.539062 44.953125 68.257812 45.058594 68.121094 45.109375 C 65.710938 46.5625 63.789062 48.476562 62.398438 50.746094 L 61.34375 50.261719 C 60.957031 50.085938 60.441406 50.199219 60.222656 50.679688 L 59.210938 52.890625 C 59.035156 53.273438 59.144531 53.789062 59.625 54.011719 L 60.683594 54.496094 C 59.953125 56.601562 59.929688 58.683594 60.5625 60.601562 C 61.203125 62.753906 62.679688 64.359375 64.890625 65.371094 C 67.101562 66.382812 69.042969 66.457031 70.8125 65.640625 C 72.441406 64.875 74.003906 63.496094 75.679688 61.359375 L 80.871094 63.734375 C 79.738281 65.191406 78.167969 66.335938 76.117188 67.257812 C 75.933594 67.40625 75.75 67.554688 75.664062 67.746094 C 75.574219 67.9375 75.582031 68.171875 75.730469 68.359375 L 77.566406 72.222656 C 77.722656 72.640625 78.246094 72.765625 78.667969 72.609375 C 81.882812 71.171875 84.410156 68.957031 86.253906 66.199219 L 88.078125 67.035156 C 88.464844 67.210938 88.980469 67.097656 89.199219 66.617188 L 90.210938 64.40625 C 90.386719 64.023438 90.277344 63.503906 89.796875 63.285156 L 87.96875 62.449219 C 88.789062 60.148438 88.8125 58.066406 88.222656 56.054688 C 87.582031 53.898438 86.148438 52.199219 83.9375 51.1875 C 81.589844 50.226562 79.550781 50.109375 77.738281 51.023438 Z M 81.492188 57.042969 C 82.066406 57.308594 82.460938 57.71875 82.625 58.375 C 82.738281 58.890625 82.710938 59.460938 82.636719 60.125 L 78.3125 58.144531 C 79.09375 57.457031 79.601562 57.109375 79.882812 57.003906 C 80.390625 56.65625 80.914062 56.777344 81.492188 57.042969 Z M 67.003906 59.480469 C 66.429688 59.214844 66.132812 58.847656 65.96875 58.191406 C 65.8125 57.769531 65.796875 57.300781 65.917969 56.773438 L 69.957031 58.621094 C 69.316406 59.257812 68.851562 59.511719 68.570312 59.617188 C 68.011719 59.824219 67.582031 59.746094 67.003906 59.480469 Z M 67.003906 59.480469 " fill-opacity="1" fill-rule="nonzero"/></g></g></g></g></g><g transform="matrix(1, 0, 0, 1, 367, 341)"><g clip-path="url(#d36a6e0aa8)"><g mask="url(#df508ed907)"><g transform="matrix(1, 0, 0, 1, 17, 30)"><g clip-path="url(#0f4d37937c)"><g clip-path="url(#d741d207d2)"><g clip-path="url(#b12384725e)"><g clip-path="url(#c10c51d609)"><g transform="matrix(1, 0, 0, 1, 3, 4)"><g clip-path="url(#85dc059aec)"><g clip-path="url(#587ce6ebc3)"><g clip-path="url(#a7f91a0ef4)"><g clip-path="url(#564c01c2e1)"><path fill="#000000" d="M 4.089844 -3.816406 L 113.988281 5.738281 L 107.234375 83.457031 L -2.667969 73.90625 Z M 4.089844 -3.816406 " fill-opacity="1" fill-rule="nonzero"/></g></g></g></g></g></g></g></g></g></g></g><g clip-path="url(#4dfc744437)"><g clip-path="url(#91431955d8)"><g clip-path="url(#ce4ee2ce55)"><g transform="matrix(1, 0, 0, 1, 16, 29)"><g clip-path="url(#6066d9dbc0)"><g clip-path="url(#b0347af5ab)"><g clip-path="url(#730a373609)"><g clip-path="url(#aa34b20f5d)"><path fill="#ffffff" d="M -4.527344 71.195312 L 5.253906 -6.023438 L 114.75 7.84375 L 104.96875 85.066406 Z M -4.527344 71.195312 " fill-opacity="1" fill-rule="nonzero"/></g></g></g></g></g></g></g></g><g clip-path="url(#666865080d)"><g clip-path="url(#0fbf4a9ec1)"><g clip-path="url(#9405e932ee)"><g clip-path="url(#d062a3aa51)"><path stroke-linecap="butt" transform="matrix(0.105717, -0.834666, 0.834666, 0.105717, 11.474242, 100.195819)" fill="none" stroke-linejoin="miter" d="M 46.257719 -0.00142267 C 20.709752 0.000536633 -0.000660873 29.365293 0.00145173 65.593041 C -0.00104179 101.821371 20.711351 131.185903 46.255295 131.189133 C 71.803262 131.187174 92.513092 101.817811 92.511563 65.59467 C 92.514056 29.366339 71.801663 0.00180756 46.257719 -0.00142267 Z M 46.257719 -0.00142267 " stroke="#000000" stroke-width="5.348649" stroke-opacity="1" stroke-miterlimit="4"/></g></g></g></g><g clip-path="url(#fce7e7acad)"><g clip-path="url(#a6330aac3c)"><g clip-path="url(#93d777cc85)"><g transform="matrix(1, 0, 0, 1, 17, 17)"><g clip-path="url(#9405b9a89c)"><g clip-path="url(#226ecd550c)"><g clip-path="url(#d9f306a142)"><g clip-path="url(#f365463cba)"><path fill="#ffffff" d="M -3.84375 71.511719 L 5.9375 -5.707031 L 115.433594 8.160156 L 105.652344 85.382812 Z M -3.84375 71.511719 " fill-opacity="1" fill-rule="nonzero"/></g></g></g></g></g></g></g></g><g clip-path="url(#340b332450)"><g clip-path="url(#0aed7236c2)"><g clip-path="url(#709a05cb3e)"><g clip-path="url(#733d5988e8)"><path stroke-linecap="butt" transform="matrix(0.105717, -0.834666, 0.834666, 0.105717, 13.156908, 88.511377)" fill="none" stroke-linejoin="miter" d="M 46.256857 -0.000202003 C 20.70889 0.0017573 -0.0015233 29.366514 0.000589305 65.594261 C -0.00190422 101.822592 20.710488 131.187123 46.253849 131.185747 C 71.8024 131.188394 92.512229 101.819032 92.5107 65.59589 C 92.513194 29.36756 71.804824 -0.0021613 46.256857 -0.000202003 Z M 46.256857 -0.000202003 " stroke="#000000" stroke-width="5.348649" stroke-opacity="1" stroke-miterlimit="4"/></g></g></g></g><g clip-path="url(#80c514780b)"><g clip-path="url(#bb8cacc05f)"><g clip-path="url(#9fce2c0050)"><g transform="matrix(1, 0, 0, 1, 31, 29)"><g clip-path="url(#f4201d28b3)"><g clip-path="url(#a0a6d82e82)"><g clip-path="url(#3e29051230)"><g clip-path="url(#809b427005)"><path fill="#000000" d="M -2.824219 52.433594 L 4.355469 -4.25 L 84.730469 5.929688 L 77.550781 62.617188 Z M -2.824219 52.433594 " fill-opacity="1" fill-rule="nonzero"/></g></g></g></g></g></g></g></g><g clip-path="url(#6c6765d7ad)"><g clip-path="url(#be02bf1b66)"><g clip-path="url(#3d83e7f267)"><g clip-path="url(#74489a753e)"><path stroke-linecap="butt" transform="matrix(0.105717, -0.834666, 0.834666, 0.105717, 28.175481, 81.435215)" fill="none" stroke-linejoin="miter" d="M 33.950931 0.0011426 C 15.202427 -0.00166067 -0.00087154 21.556629 0.00221449 48.148095 C 0.000694403 74.740145 15.202944 96.294307 33.950865 96.292504 C 52.703975 96.294724 67.907273 74.736435 67.904771 48.149574 C 67.906291 21.557524 52.703458 -0.00124366 33.950931 0.0011426 Z M 33.950931 0.0011426 " stroke="#000000" stroke-width="5.348649" stroke-opacity="1" stroke-miterlimit="4"/></g></g></g></g><path stroke-linecap="butt" transform="matrix(0.176338, -0.822647, 0.822647, 0.176338, 22.675726, 83.408125)" fill="none" stroke-linejoin="miter" d="M 0.000993826 1.500346 L 12.859182 1.498208 " stroke="#000000" stroke-width="3" stroke-opacity="1" stroke-miterlimit="4"/><path stroke-linecap="butt" transform="matrix(0.391024, -0.744945, 0.744945, 0.391024, 34.873274, 95.206503)" fill="none" stroke-linejoin="miter" d="M 0.000899062 1.501536 L 12.862367 1.499129 " stroke="#000000" stroke-width="3" stroke-opacity="1" stroke-miterlimit="4"/><path stroke-linecap="butt" transform="matrix(0.274096, -0.795434, 0.795434, 0.274096, 52.61886, 101.710202)" fill="none" stroke-linejoin="miter" d="M 0.00047312 1.500453 L 12.86126 1.49838 " stroke="#000000" stroke-width="3" stroke-opacity="1" stroke-miterlimit="4"/><path stroke-linecap="butt" transform="matrix(0.0381154, -0.84047, 0.84047, 0.0381154, 72.693371, 106.691287)" fill="none" stroke-linejoin="miter" d="M -0.00187958 1.498954 L 12.863043 1.501137 " stroke="#000000" stroke-width="3" stroke-opacity="1" stroke-miterlimit="4"/><path stroke-linecap="butt" transform="matrix(-0.0809226, -0.837433, 0.837433, -0.0809226, 90.777598, 104.237674)" fill="none" stroke-linejoin="miter" d="M -0.00122335 1.501564 L 12.863827 1.499301 " stroke="#000000" stroke-width="3" stroke-opacity="1" stroke-miterlimit="4"/><path stroke-linecap="butt" transform="matrix(-0.0809226, -0.837433, 0.837433, -0.0809226, 108.633369, 97.128027)" fill="none" stroke-linejoin="miter" d="M -0.00151041 1.501175 L 12.86354 1.498912 " stroke="#000000" stroke-width="3" stroke-opacity="1" stroke-miterlimit="4"/><g clip-path="url(#89b880e12e)"><g clip-path="url(#7f1b04c627)"><g clip-path="url(#6fc2974987)"><g transform="matrix(1, 0, 0, 1, 38, 32)"><g clip-path="url(#c6885ae5a2)"><g clip-path="url(#eb72306d30)"><g clip-path="url(#5a5a1be755)"><g clip-path="url(#5050411790)"><path fill="#a9c5e7" d="M -3.074219 48.480469 L 3.523438 -3.601562 L 75.953125 5.570312 L 69.355469 57.652344 Z M -3.074219 48.480469 " fill-opacity="1" fill-rule="nonzero"/></g></g></g></g></g></g></g></g><g clip-path="url(#77077a756f)"><g clip-path="url(#396987e1e7)"><g clip-path="url(#77abd2ef01)"><path fill="#ffffff" d="M 78.519531 51.304688 C 76.890625 52.070312 75.191406 53.5 73.46875 55.734375 L 68.472656 53.445312 C 69.375 52.234375 70.523438 51.246094 71.917969 50.492188 C 72.101562 50.34375 72.285156 50.195312 72.277344 49.957031 C 72.367188 49.765625 72.359375 49.527344 72.210938 49.34375 L 70.050781 45.683594 C 69.902344 45.5 69.753906 45.3125 69.515625 45.320312 C 69.324219 45.234375 69.042969 45.339844 68.902344 45.390625 C 66.492188 46.84375 64.574219 48.757812 63.183594 51.027344 L 62.128906 50.542969 C 61.742188 50.367188 61.226562 50.480469 61.007812 50.960938 L 59.996094 53.171875 C 59.820312 53.554688 59.929688 54.070312 60.410156 54.292969 L 61.46875 54.777344 C 60.738281 56.882812 60.714844 58.964844 61.347656 60.882812 C 61.988281 63.035156 63.464844 64.640625 65.675781 65.652344 C 67.886719 66.664062 69.828125 66.742188 71.597656 65.921875 C 73.226562 65.15625 74.789062 63.777344 76.464844 61.640625 L 81.65625 64.015625 C 80.523438 65.472656 78.953125 66.617188 76.902344 67.539062 C 76.71875 67.6875 76.535156 67.835938 76.445312 68.027344 C 76.359375 68.21875 76.367188 68.453125 76.515625 68.640625 L 78.351562 72.503906 C 78.507812 72.921875 79.03125 73.046875 79.453125 72.890625 C 82.667969 71.453125 85.191406 69.238281 87.039062 66.480469 L 88.863281 67.316406 C 89.25 67.492188 89.765625 67.378906 89.984375 66.898438 L 90.996094 64.6875 C 91.171875 64.304688 91.058594 63.785156 90.578125 63.566406 L 88.753906 62.730469 C 89.574219 60.433594 89.597656 58.351562 89.007812 56.335938 C 88.363281 54.183594 86.933594 52.480469 84.722656 51.46875 C 82.371094 50.507812 80.335938 50.390625 78.519531 51.304688 Z M 82.277344 57.324219 C 82.851562 57.589844 83.246094 58 83.410156 58.65625 C 83.523438 59.171875 83.496094 59.742188 83.421875 60.40625 L 79.097656 58.425781 C 79.878906 57.738281 80.386719 57.390625 80.667969 57.285156 C 81.175781 56.9375 81.699219 57.058594 82.277344 57.324219 Z M 67.789062 59.761719 C 67.214844 59.5 66.917969 59.128906 66.753906 58.472656 C 66.597656 58.054688 66.578125 57.582031 66.703125 57.054688 L 70.742188 58.902344 C 70.101562 59.539062 69.636719 59.792969 69.355469 59.898438 C 68.796875 60.105469 68.367188 60.027344 67.789062 59.761719 Z M 67.789062 59.761719 " fill-opacity="1" fill-rule="nonzero"/></g></g></g></g></g><g transform="matrix(1, 0, 0, 1, 258, 272)"><g clip-path="url(#bcebcc2b6b)"><g clip-path="url(#e1bc4c31f3)"><g clip-path="url(#c04d20cbfb)"><g transform="matrix(1, 0, 0, 1, 19, 19)"><g clip-path="url(#76ac6c7412)"><g clip-path="url(#98095522a8)"><g clip-path="url(#b55fdc353a)"><path fill="#ffffff" d="M 0.929688 0.902344 L 162.769531 0.902344 L 162.769531 182.335938 L 0.929688 182.335938 Z M 0.929688 0.902344 " fill-opacity="1" fill-rule="nonzero"/></g></g></g></g></g></g><g clip-path="url(#9b3cb4f14d)"><g clip-path="url(#c0f4f608b9)"><path stroke-linecap="butt" transform="matrix(0.501198, 0, 0, 0.501198, 19.931298, 19.902203)" fill="none" stroke-linejoin="miter" d="M 322.887514 0.000280878 L 322.887514 303.5623 L 161.446048 361.68871 L -0.00321264 303.5623 L -0.00321264 0.000280878 Z M 322.887514 0.000280878 " stroke="#000000" stroke-width="17.956991" stroke-opacity="1" stroke-miterlimit="4"/></g></g><g clip-path="url(#74086bafa2)"><g clip-path="url(#5d9423e208)"><g transform="matrix(1, 0, 0, 1, 30, 31)"><g clip-path="url(#7713366d0e)"><g clip-path="url(#5b6423748b)"><g clip-path="url(#fee10335aa)"><path fill="#000000" d="M 0.207031 0.410156 L 141.496094 0.410156 L 141.496094 158.808594 L 0.207031 158.808594 Z M 0.207031 0.410156 " fill-opacity="1" fill-rule="nonzero"/></g></g></g></g></g></g><g clip-path="url(#fe9f17d106)"><g clip-path="url(#2287e72ee7)"><g transform="matrix(1, 0, 0, 1, 34, 33)"><g clip-path="url(#28a016f77e)"><g clip-path="url(#16746944cb)"><g clip-path="url(#79dff7446a)"><path fill="#a9c5e7" d="M 0.714844 0.972656 L 136.59375 0.972656 L 136.59375 153.308594 L 0.714844 153.308594 Z M 0.714844 0.972656 " fill-opacity="1" fill-rule="nonzero"/></g></g></g></g></g></g></g></g><g transform="matrix(1, 0, 0, 1, 208, 392)"><g clip-path="url(#b51055a9d3)"><g mask="url(#9abc440d32)"><g transform="matrix(1, 0, 0, 1, 17, 30)"><g clip-path="url(#5b2b57e376)"><g clip-path="url(#587357efad)"><g clip-path="url(#540906cd18)"><g clip-path="url(#c497aae2aa)"><g transform="matrix(1, 0, 0, 1, 3, 4)"><g clip-path="url(#b6b5259873)"><g clip-path="url(#0b3a8e8497)"><g clip-path="url(#d8c948d351)"><g clip-path="url(#690c064b1b)"><path fill="#000000" d="M 4.03125 -3.8125 L 113.929688 5.742188 L 107.175781 83.460938 L -2.726562 73.90625 Z M 4.03125 -3.8125 " fill-opacity="1" fill-rule="nonzero"/></g></g></g></g></g></g></g></g></g></g></g><g clip-path="url(#2e2bdded76)"><g clip-path="url(#cc96425ccd)"><g clip-path="url(#ce3cdc089f)"><g transform="matrix(1, 0, 0, 1, 16, 29)"><g clip-path="url(#8b9f2efa70)"><g clip-path="url(#08f59573e2)"><g clip-path="url(#1e1f5db1dc)"><g clip-path="url(#fee911651b)"><path fill="#ffffff" d="M -4.585938 71.199219 L 5.195312 -6.019531 L 114.691406 7.847656 L 104.910156 85.066406 Z M -4.585938 71.199219 " fill-opacity="1" fill-rule="nonzero"/></g></g></g></g></g></g></g></g><g clip-path="url(#5794ea038a)"><g clip-path="url(#0d1966af7d)"><g clip-path="url(#7109863336)"><g clip-path="url(#55ff6c692c)"><path stroke-linecap="butt" transform="matrix(0.105717, -0.834666, 0.834666, 0.105717, 11.41488, 100.197691)" fill="none" stroke-linejoin="miter" d="M 46.255435 -0.000212647 C 20.712074 0.00116325 0.0016612 29.36592 -0.000832318 65.594251 C 0.00128028 101.821998 20.709067 131.187113 46.257034 131.185153 C 71.800978 131.188384 92.510808 101.819021 92.513885 65.595296 C 92.511772 29.367549 71.803402 -0.00217194 46.255435 -0.000212647 Z M 46.255435 -0.000212647 " stroke="#000000" stroke-width="5.348649" stroke-opacity="1" stroke-miterlimit="4"/></g></g></g></g><g clip-path="url(#621b6824a4)"><g clip-path="url(#6bc0491956)"><g clip-path="url(#65b3374e6e)"><g transform="matrix(1, 0, 0, 1, 17, 17)"><g clip-path="url(#9ecd1e7d52)"><g clip-path="url(#fb36063bcb)"><g clip-path="url(#989d901ad5)"><g clip-path="url(#365eed2414)"><path fill="#ffffff" d="M -3.902344 71.515625 L 5.878906 -5.707031 L 115.375 8.164062 L 105.59375 85.382812 Z M -3.902344 71.515625 " fill-opacity="1" fill-rule="nonzero"/></g></g></g></g></g></g></g></g><g clip-path="url(#94acdb31cf)"><g clip-path="url(#7289830f06)"><g clip-path="url(#931a0e3ba1)"><g clip-path="url(#0a99384f16)"><path stroke-linecap="butt" transform="matrix(0.105717, -0.834666, 0.834666, 0.105717, 13.097546, 88.513277)" fill="none" stroke-linejoin="miter" d="M 46.254607 0.001004 C 20.710663 -0.00222623 0.000832776 29.367136 -0.00166075 65.595467 C -0.000131547 101.818608 20.708238 131.188329 46.256205 131.18637 C 71.804756 131.189017 92.514585 101.819654 92.512473 65.591907 C 92.510944 29.368766 71.802574 -0.000955301 46.254607 0.001004 Z M 46.254607 0.001004 " stroke="#000000" stroke-width="5.348649" stroke-opacity="1" stroke-miterlimit="4"/></g></g></g></g><g clip-path="url(#c8f7d6f4e9)"><g clip-path="url(#38af6cee30)"><g clip-path="url(#6287815f35)"><g transform="matrix(1, 0, 0, 1, 31, 29)"><g clip-path="url(#5b49b9b04e)"><g clip-path="url(#81db7785b1)"><g clip-path="url(#109251be1e)"><g clip-path="url(#6b001502c3)"><path fill="#000000" d="M -2.886719 52.4375 L 4.292969 -4.25 L 84.671875 5.933594 L 77.492188 62.617188 Z M -2.886719 52.4375 " fill-opacity="1" fill-rule="nonzero"/></g></g></g></g></g></g></g></g><g clip-path="url(#9e86762c36)"><g clip-path="url(#8c5a5ff370)"><g clip-path="url(#04ae664d9c)"><g clip-path="url(#e8c76b584b)"><path stroke-linecap="butt" transform="matrix(0.105717, -0.834666, 0.834666, 0.105717, 28.116105, 81.437115)" fill="none" stroke-linejoin="miter" d="M 33.953289 0.00178218 C 15.200179 -0.000437689 0.00148668 21.557268 -0.0000334068 48.149318 C -0.0021369 74.736762 15.200696 96.29553 33.953223 96.293144 C 52.706333 96.295363 67.905025 74.737658 67.906546 48.145608 C 67.908649 21.558164 52.705816 -0.000604083 33.953289 0.00178218 Z M 33.953289 0.00178218 " stroke="#000000" stroke-width="5.348649" stroke-opacity="1" stroke-miterlimit="4"/></g></g></g></g><path stroke-linecap="butt" transform="matrix(0.176338, -0.822647, 0.822647, 0.176338, 22.616349, 83.410054)" fill="none" stroke-linejoin="miter" d="M -0.00110836 1.501749 L 12.861619 1.498638 " stroke="#000000" stroke-width="3" stroke-opacity="1" stroke-miterlimit="4"/><path stroke-linecap="butt" transform="matrix(0.391024, -0.744945, 0.744945, 0.391024, 34.813882, 95.208435)" fill="none" stroke-linejoin="miter" d="M -0.0028958 1.499355 L 12.86073 1.501059 " stroke="#000000" stroke-width="3" stroke-opacity="1" stroke-miterlimit="4"/><path stroke-linecap="butt" transform="matrix(0.274096, -0.795434, 0.795434, 0.274096, 52.559482, 101.712106)" fill="none" stroke-linejoin="miter" d="M -0.00147427 1.50211 L 12.859312 1.500037 " stroke="#000000" stroke-width="3" stroke-opacity="1" stroke-miterlimit="4"/><path stroke-linecap="butt" transform="matrix(0.0381154, -0.84047, 0.84047, 0.0381154, 72.633993, 106.693219)" fill="none" stroke-linejoin="miter" d="M 0.000456533 1.499781 L 12.860741 1.502175 " stroke="#000000" stroke-width="3" stroke-opacity="1" stroke-miterlimit="4"/><path stroke-linecap="butt" transform="matrix(-0.0809226, -0.837433, 0.837433, -0.0809226, 90.71822, 104.239545)" fill="none" stroke-linejoin="miter" d="M 0.0013482 1.498084 L 12.861331 1.499996 " stroke="#000000" stroke-width="3" stroke-opacity="1" stroke-miterlimit="4"/><path stroke-linecap="butt" transform="matrix(-0.0809226, -0.837433, 0.837433, -0.0809226, 108.573991, 97.129899)" fill="none" stroke-linejoin="miter" d="M 0.000614574 1.502316 L 12.861043 1.499607 " stroke="#000000" stroke-width="3" stroke-opacity="1" stroke-miterlimit="4"/><g clip-path="url(#a4ac5e879a)"><g clip-path="url(#949ea342ef)"><g clip-path="url(#953b4409db)"><g transform="matrix(1, 0, 0, 1, 38, 32)"><g clip-path="url(#0ba8c8518c)"><g clip-path="url(#17b8fbc0f6)"><g clip-path="url(#e2f52b0e4a)"><g clip-path="url(#d54b11fa2a)"><path fill="#a9c5e7" d="M -3.132812 48.480469 L 3.464844 -3.601562 L 75.890625 5.574219 L 69.296875 57.65625 Z M -3.132812 48.480469 " fill-opacity="1" fill-rule="nonzero"/></g></g></g></g></g></g></g></g><g clip-path="url(#3ea79cd9ad)"><g clip-path="url(#d4b6144c0e)"><g clip-path="url(#fc791c343a)"><path fill="#ffffff" d="M 78.460938 51.304688 C 76.832031 52.070312 75.132812 53.5 73.410156 55.738281 L 68.410156 53.449219 C 69.316406 52.234375 70.464844 51.25 71.859375 50.492188 C 72.042969 50.34375 72.226562 50.195312 72.21875 49.960938 C 72.304688 49.765625 72.296875 49.53125 72.148438 49.347656 L 69.988281 45.683594 C 69.839844 45.5 69.691406 45.316406 69.457031 45.324219 C 69.265625 45.234375 68.984375 45.339844 68.84375 45.390625 C 66.433594 46.847656 64.511719 48.757812 63.125 51.027344 L 62.066406 50.546875 C 61.683594 50.371094 61.167969 50.480469 60.945312 50.960938 L 59.933594 53.171875 C 59.757812 53.558594 59.871094 54.074219 60.351562 54.292969 L 61.410156 54.777344 C 60.675781 56.882812 60.65625 58.96875 61.289062 60.882812 C 61.929688 63.039062 63.40625 64.644531 65.617188 65.65625 C 67.824219 66.667969 69.769531 66.742188 71.539062 65.925781 C 73.167969 65.160156 74.726562 63.78125 76.40625 61.640625 L 81.59375 64.015625 C 80.460938 65.476562 78.894531 66.617188 76.84375 67.539062 C 76.660156 67.6875 76.476562 67.835938 76.386719 68.027344 C 76.300781 68.21875 76.308594 68.457031 76.457031 68.640625 L 78.292969 72.503906 C 78.449219 72.925781 78.972656 73.046875 79.394531 72.890625 C 82.609375 71.457031 85.132812 69.242188 86.976562 66.480469 L 88.804688 67.316406 C 89.1875 67.492188 89.707031 67.382812 89.925781 66.898438 L 90.9375 64.691406 C 91.113281 64.304688 91 63.789062 90.519531 63.570312 L 88.695312 62.734375 C 89.515625 60.433594 89.535156 58.351562 88.945312 56.335938 C 88.304688 54.183594 86.875 52.484375 84.664062 51.472656 C 82.3125 50.511719 80.273438 50.390625 78.460938 51.304688 Z M 82.214844 57.328125 C 82.792969 57.589844 83.1875 58.003906 83.351562 58.660156 C 83.460938 59.175781 83.433594 59.742188 83.363281 60.410156 L 79.039062 58.429688 C 79.816406 57.738281 80.328125 57.390625 80.605469 57.285156 C 81.113281 56.9375 81.640625 57.0625 82.214844 57.328125 Z M 67.730469 59.765625 C 67.152344 59.5 66.855469 59.132812 66.691406 58.476562 C 66.535156 58.054688 66.519531 57.582031 66.644531 57.058594 L 70.679688 58.90625 C 70.039062 59.542969 69.578125 59.796875 69.296875 59.898438 C 68.734375 60.109375 68.308594 60.027344 67.730469 59.765625 Z M 67.730469 59.765625 " fill-opacity="1" fill-rule="nonzero"/></g></g></g></g></g><g transform="matrix(1, 0, 0, 1, 206, 377)"><g clip-path="url(#ef49d81bef)"><g mask="url(#c826465c45)"><g transform="matrix(1, 0, 0, 1, 16, 30)"><g clip-path="url(#cc7c94130f)"><g clip-path="url(#fd433c5161)"><g clip-path="url(#9d6b901709)"><g clip-path="url(#790c880e63)"><g transform="matrix(1, 0, 0, 1, 3, 4)"><g clip-path="url(#a3744793d0)"><g clip-path="url(#dc00d6f9b4)"><g clip-path="url(#2cfd382e21)"><g clip-path="url(#c9bf76ebfc)"><path fill="#000000" d="M 4.253906 -3.734375 L 114.152344 5.820312 L 107.394531 83.539062 L -2.503906 73.984375 Z M 4.253906 -3.734375 " fill-opacity="1" fill-rule="nonzero"/></g></g></g></g></g></g></g></g></g></g></g><g clip-path="url(#480c20aa0a)"><g clip-path="url(#b6634916ea)"><g clip-path="url(#64e225771c)"><g transform="matrix(1, 0, 0, 1, 15, 29)"><g clip-path="url(#fad650d4bc)"><g clip-path="url(#30bf47e6af)"><g clip-path="url(#160cc4cb93)"><g clip-path="url(#82bf8fb404)"><path fill="#ffffff" d="M -4.363281 71.277344 L 5.417969 -5.941406 L 114.914062 7.925781 L 105.132812 85.148438 Z M -4.363281 71.277344 " fill-opacity="1" fill-rule="nonzero"/></g></g></g></g></g></g></g></g><g clip-path="url(#d80fa5c18e)"><g clip-path="url(#953c854263)"><g clip-path="url(#594f1636a7)"><g clip-path="url(#9d643a1fe9)"><path stroke-linecap="butt" transform="matrix(0.105717, -0.834666, 0.834666, 0.105717, 10.637097, 100.27694)" fill="none" stroke-linejoin="miter" d="M 46.256826 0.000137644 C 20.708859 0.00209694 -0.00155423 29.366854 0.000558369 65.594601 C -0.00251856 101.818325 20.710457 131.187463 46.258424 131.185504 C 71.802369 131.188734 92.512198 101.819371 92.515275 65.595647 C 92.513163 29.367899 71.804793 -0.00182165 46.256826 0.000137644 Z M 46.256826 0.000137644 " stroke="#000000" stroke-width="5.348649" stroke-opacity="1" stroke-miterlimit="4"/></g></g></g></g><g clip-path="url(#133d0595c8)"><g clip-path="url(#cb7453626d)"><g clip-path="url(#b3a8f200a3)"><g transform="matrix(1, 0, 0, 1, 16, 17)"><g clip-path="url(#05be183068)"><g clip-path="url(#4a708e3ab9)"><g clip-path="url(#2375d5e278)"><g clip-path="url(#5cbdf8be34)"><path fill="#ffffff" d="M -3.679688 71.59375 L 6.101562 -5.625 L 115.597656 8.242188 L 105.816406 85.460938 Z M -3.679688 71.59375 " fill-opacity="1" fill-rule="nonzero"/></g></g></g></g></g></g></g></g><g clip-path="url(#f590884468)"><g clip-path="url(#d65ab19cb2)"><g clip-path="url(#5f102a1130)"><g clip-path="url(#9147fe29bd)"><path stroke-linecap="butt" transform="matrix(0.105717, -0.834666, 0.834666, 0.105717, 12.319762, 88.592497)" fill="none" stroke-linejoin="miter" d="M 46.255963 0.00135859 C 20.707413 -0.00128824 0.0021895 29.367491 -0.00030402 65.595822 C 0.00122518 101.818963 20.709595 131.188684 46.257562 131.186725 C 71.801506 131.189955 92.511336 101.820592 92.51383 65.592261 C 92.5123 29.36912 71.80393 -0.000600709 46.255963 0.00135859 Z M 46.255963 0.00135859 " stroke="#000000" stroke-width="5.348649" stroke-opacity="1" stroke-miterlimit="4"/></g></g></g></g><g clip-path="url(#0a53cfeb37)"><g clip-path="url(#c8e7306aee)"><g clip-path="url(#97fadcd2e0)"><g transform="matrix(1, 0, 0, 1, 30, 29)"><g clip-path="url(#fc034200b9)"><g clip-path="url(#135124782b)"><g clip-path="url(#3b48185baf)"><g clip-path="url(#22d76eae4b)"><path fill="#000000" d="M -2.664062 52.515625 L 4.515625 -4.167969 L 84.894531 6.011719 L 77.714844 62.695312 Z M -2.664062 52.515625 " fill-opacity="1" fill-rule="nonzero"/></g></g></g></g></g></g></g></g><g clip-path="url(#042b9cfeb5)"><g clip-path="url(#0a33a5522d)"><g clip-path="url(#50b51f683f)"><g clip-path="url(#9d6cdf4082)"><path stroke-linecap="butt" transform="matrix(0.105717, -0.834666, 0.834666, 0.105717, 27.338321, 81.516335)" fill="none" stroke-linejoin="miter" d="M 33.954646 0.00213677 C 15.201536 -0.0000830974 -0.00176271 21.558206 0.000739918 48.145067 C -0.000780172 74.737117 15.202053 96.295884 33.95458 96.293498 C 52.703083 96.296301 67.906382 74.738012 67.907902 48.145962 C 67.904816 21.554496 52.707173 -0.000249491 33.954646 0.00213677 Z M 33.954646 0.00213677 " stroke="#000000" stroke-width="5.348649" stroke-opacity="1" stroke-miterlimit="4"/></g></g></g></g><path stroke-linecap="butt" transform="matrix(0.176338, -0.822647, 0.822647, 0.176338, 21.838566, 83.489274)" fill="none" stroke-linejoin="miter" d="M 0.000273556 1.501987 L 12.863001 1.498876 " stroke="#000000" stroke-width="3" stroke-opacity="1" stroke-miterlimit="4"/><path stroke-linecap="butt" transform="matrix(0.391024, -0.744945, 0.744945, 0.391024, 34.036099, 95.287652)" fill="none" stroke-linejoin="miter" d="M -0.00150341 1.499214 L 12.862123 1.500918 " stroke="#000000" stroke-width="3" stroke-opacity="1" stroke-miterlimit="4"/><path stroke-linecap="butt" transform="matrix(0.274096, -0.795434, 0.795434, 0.274096, 51.781698, 101.791325)" fill="none" stroke-linejoin="miter" d="M -0.0000734244 1.50218 L 12.860713 1.500108 " stroke="#000000" stroke-width="3" stroke-opacity="1" stroke-miterlimit="4"/><path stroke-linecap="butt" transform="matrix(0.0381154, -0.84047, 0.84047, 0.0381154, 71.85618, 106.772439)" fill="none" stroke-linejoin="miter" d="M 0.00178186 1.500278 L 12.861856 1.498034 " stroke="#000000" stroke-width="3" stroke-opacity="1" stroke-miterlimit="4"/><path stroke-linecap="butt" transform="matrix(-0.0809226, -0.837433, 0.837433, -0.0809226, 89.940439, 104.318797)" fill="none" stroke-linejoin="miter" d="M -0.00199094 1.498284 L 12.862613 1.500642 " stroke="#000000" stroke-width="3" stroke-opacity="1" stroke-miterlimit="4"/><path stroke-linecap="butt" transform="matrix(-0.0809226, -0.837433, 0.837433, -0.0809226, 107.796207, 97.209147)" fill="none" stroke-linejoin="miter" d="M 0.00234029 1.498344 L 12.862323 1.500256 " stroke="#000000" stroke-width="3" stroke-opacity="1" stroke-miterlimit="4"/><g clip-path="url(#1b1ff0785e)"><g clip-path="url(#31b7177751)"><g clip-path="url(#61c79a6106)"><g transform="matrix(1, 0, 0, 1, 37, 32)"><g clip-path="url(#cec1f12e7f)"><g clip-path="url(#8a05641c88)"><g clip-path="url(#ff862bd603)"><g clip-path="url(#81ba0ae02c)"><path fill="#a9c5e7" d="M -2.910156 48.5625 L 3.6875 -3.523438 L 76.113281 5.652344 L 69.519531 57.734375 Z M -2.910156 48.5625 " fill-opacity="1" fill-rule="nonzero"/></g></g></g></g></g></g></g></g><g clip-path="url(#6101b2e705)"><g clip-path="url(#d441d1f9c3)"><g clip-path="url(#978311c93e)"><path fill="#ffffff" d="M 77.683594 51.386719 C 76.054688 52.152344 74.351562 53.582031 72.632812 55.816406 L 67.632812 53.527344 C 68.539062 52.316406 69.6875 51.328125 71.082031 50.570312 C 71.265625 50.421875 71.449219 50.273438 71.441406 50.039062 C 71.527344 49.847656 71.519531 49.609375 71.371094 49.425781 L 69.210938 45.761719 C 69.0625 45.578125 68.914062 45.394531 68.679688 45.402344 C 68.488281 45.316406 68.207031 45.417969 68.066406 45.472656 C 65.65625 46.925781 63.734375 48.835938 62.347656 51.109375 L 61.289062 50.625 C 60.90625 50.449219 60.390625 50.5625 60.167969 51.042969 L 59.15625 53.253906 C 58.980469 53.636719 59.09375 54.152344 59.574219 54.375 L 60.632812 54.855469 C 59.898438 56.964844 59.875 59.046875 60.511719 60.964844 C 61.152344 63.117188 62.625 64.722656 64.835938 65.734375 C 67.046875 66.746094 68.992188 66.820312 70.761719 66.003906 C 72.390625 65.238281 73.949219 63.859375 75.625 61.722656 L 80.816406 64.097656 C 79.683594 65.554688 78.117188 66.695312 76.066406 67.617188 C 75.882812 67.765625 75.699219 67.914062 75.609375 68.109375 C 75.523438 68.300781 75.53125 68.535156 75.679688 68.71875 L 77.515625 72.582031 C 77.671875 73.003906 78.195312 73.128906 78.617188 72.972656 C 81.832031 71.535156 84.355469 69.320312 86.199219 66.5625 L 88.027344 67.398438 C 88.410156 67.574219 88.929688 67.460938 89.148438 66.980469 L 90.160156 64.769531 C 90.335938 64.382812 90.222656 63.867188 89.742188 63.648438 L 87.917969 62.8125 C 88.734375 60.511719 88.757812 58.429688 88.167969 56.417969 C 87.527344 54.261719 86.097656 52.5625 83.886719 51.550781 C 81.535156 50.589844 79.496094 50.472656 77.683594 51.386719 Z M 81.4375 57.40625 C 82.015625 57.667969 82.40625 58.082031 82.574219 58.738281 C 82.683594 59.253906 82.65625 59.824219 82.585938 60.488281 L 78.261719 58.507812 C 79.039062 57.820312 79.550781 57.46875 79.828125 57.367188 C 80.335938 57.015625 80.863281 57.140625 81.4375 57.40625 Z M 66.953125 59.84375 C 66.375 59.578125 66.078125 59.210938 65.914062 58.554688 C 65.757812 58.132812 65.742188 57.660156 65.867188 57.136719 L 69.902344 58.984375 C 69.261719 59.621094 68.796875 59.875 68.519531 59.980469 C 67.957031 60.1875 67.53125 60.105469 66.953125 59.84375 Z M 66.953125 59.84375 " fill-opacity="1" fill-rule="nonzero"/></g></g></g></g></g><g clip-path="url(#87e750412b)"><path fill="#ffffff" d="M 343.214844 373.265625 C 343.28125 372.480469 343.609375 371.785156 344.09375 371.152344 C 345.789062 368.921875 349.597656 367.898438 352.257812 369.542969 C 353.828125 370.515625 355.085938 371.761719 356.132812 373.238281 C 357 374.464844 357.785156 375.75 358.632812 377.046875 C 359.222656 376.207031 359.820312 375.347656 360.429688 374.496094 C 365.675781 367.195312 371.433594 360.339844 378.113281 354.292969 C 382.210938 350.585938 386.914062 347.832031 391.972656 345.65625 C 392.847656 345.277344 393.578125 345.425781 394.328125 346.183594 C 393.984375 346.503906 393.640625 346.820312 393.300781 347.140625 C 388.882812 351.3125 384.5625 355.582031 380.636719 360.222656 C 378.390625 362.878906 376.308594 365.671875 374.167969 368.414062 C 369.851562 373.933594 366.625 380.144531 362.957031 386.078125 C 361.542969 388.371094 360.140625 390.667969 358.722656 392.960938 C 358.160156 393.871094 357.417969 393.855469 356.851562 392.925781 C 355.019531 389.910156 353.574219 386.703125 352.207031 383.453125 C 351.066406 380.738281 349.785156 378.09375 348.15625 375.628906 C 347.351562 374.40625 346.402344 373.40625 344.84375 373.273438 C 344.316406 373.226562 343.78125 373.265625 343.214844 373.265625 Z M 343.214844 373.265625 " fill-opacity="1" fill-rule="nonzero"/></g><g clip-path="url(#549a6a1bc1)"><path fill="#ffffff" d="M 382.886719 363.820312 L 378.589844 368.117188 C 379.832031 370.855469 380.519531 373.898438 380.519531 377.105469 C 380.519531 389.171875 370.738281 398.949219 358.671875 398.949219 C 346.605469 398.949219 336.824219 389.171875 336.824219 377.105469 C 336.824219 365.035156 346.605469 355.257812 358.671875 355.257812 C 361.691406 355.257812 364.5625 355.867188 367.171875 356.972656 L 371.503906 352.644531 C 367.671875 350.628906 363.304688 349.488281 358.671875 349.488281 C 343.421875 349.488281 331.058594 361.851562 331.058594 377.105469 C 331.058594 392.355469 343.421875 404.71875 358.671875 404.71875 C 373.925781 404.71875 386.289062 392.355469 386.289062 377.101562 C 386.289062 372.289062 385.054688 367.757812 382.886719 363.820312 Z M 382.886719 363.820312 " fill-opacity="1" fill-rule="nonzero"/></g></svg>