<svg width="290" height="58" viewBox="0 0 290 58" fill="none" xmlns="http://www.w3.org/2000/svg">
<mask id="mask0_281_3160" style="mask-type:luminance" maskUnits="userSpaceOnUse" x="0" y="0" width="290" height="58">
<path d="M290 0H0V58H290V0Z" fill="white"/>
</mask>
<g mask="url(#mask0_281_3160)">
<path d="M66.2428 19.6894H75.4007V43.3473H81.048V19.6894H90.2059V14.8052H66.2428V19.6894Z" fill="#231F20"/>
<path d="M112.183 26.2525H99.8203V14.8052H94.0203V43.1947H99.8203V31.1368H112.183V43.1947H117.983V14.9578H112.183V26.2525Z" fill="#231F20"/>
<path d="M128.363 31.137H140.726V26.558H128.363V19.8422H142.252V14.958H122.563V43.3475H142.71V38.4633H128.363V31.137Z" fill="#231F20"/>
<path d="M173.847 28.3897C175.374 27.7791 178.121 25.9476 178.121 21.8265C178.121 17.7055 175.068 14.6528 170.184 14.6528H157.668V43.0423H170.795C175.679 43.0423 179.342 39.9897 179.342 35.2581C179.037 31.4423 176.289 29.1528 173.847 28.3897ZM163.01 19.3844H168.353C170.795 19.3844 172.474 20.6055 172.474 23.0476C172.474 25.337 171.1 26.7107 168.658 26.7107H163.316V19.3844H163.01ZM169.116 38.9213H162.858V30.9844H168.81C171.558 30.9844 173.237 32.3581 173.237 35.1055C173.237 37.5476 171.71 38.9213 169.116 38.9213Z" fill="#231F20"/>
<path d="M188.653 14.958H183.158V43.3475H202.695V38.3106H188.805V14.958H188.653Z" fill="#231F20"/>
<path d="M218.111 14.6528C210.022 14.6528 204.069 20.3002 204.069 29.1528C204.069 38.0055 210.022 43.5002 218.111 43.5002C226.201 43.5002 232.153 37.8528 232.153 29.0002C232.153 20.1476 226.048 14.6528 218.111 14.6528ZM218.111 38.4634C213.532 38.4634 209.869 34.9528 209.869 29.0002C209.869 23.0476 213.532 19.537 218.111 19.537C222.69 19.537 226.353 23.0476 226.353 29.0002C226.353 34.9528 222.69 38.4634 218.111 38.4634Z" fill="#231F20"/>
<path d="M248.789 19.5368C253.368 19.5368 255.352 22.2842 255.962 25.3368H261.61C260.999 19.0789 257.031 14.5 248.789 14.5C241.005 14.5 235.51 20.3 235.51 29C235.51 37.8526 241.157 43.5 248.789 43.5C257.031 43.5 260.999 38.9211 261.61 32.6632H255.962C255.505 35.7158 253.673 38.4632 248.941 38.4632C244.515 38.4632 241.157 34.9526 241.157 29C241.157 23.2 244.515 19.5368 248.789 19.5368Z" fill="#231F20"/>
<path d="M278.857 27.0157L289.236 14.8052H282.521L270.921 28.8473V14.8052H265.273V43.1947H270.921V35.7157L275.042 31.1368L283.589 43.3473H290.152L278.857 27.0157Z" fill="#231F20"/>
<path d="M23.9627 54.9476L0.915317 45.4844C0.152159 45.0266 -0.000473022 45.0266 -0.000473022 44.1108V13.5844C-0.000473022 12.8213 0.152159 12.6687 0.915317 12.2108L23.9627 3.35813C24.7258 3.20549 24.8785 3.20549 25.6416 3.35813L48.689 12.2108C49.4522 12.6687 49.6048 12.8213 49.6048 13.5844V44.2634C49.6048 45.0265 49.4522 45.1792 48.689 45.6371L25.6416 54.9476C24.8785 55.1002 24.7258 55.2529 23.9627 54.9476ZM24.7258 52.3529L44.8732 44.416L24.7258 37.0897L4.57847 44.2634L24.7258 52.3529ZM2.74689 42.2792L20.9101 35.5634L17.5522 34.1897C17.3995 34.0371 17.0943 33.7318 17.0943 33.5792V24.116C17.0943 23.6581 17.2469 23.5055 17.5522 23.5055L20.9101 22.1318L2.74689 15.2634V42.2792ZM46.8574 42.2792V15.416L28.6943 22.1318L32.0522 23.5055C32.2048 23.6581 32.5101 23.9634 32.5101 24.116V33.5792C32.5101 33.7318 32.3574 34.1897 32.0522 34.1897L28.6943 35.5634L46.8574 42.2792ZM24.7258 34.0371L29.6101 32.0529V25.3371L24.7258 23.3529L19.8416 25.3371V32.0529L24.7258 34.0371ZM24.7258 20.7581L44.8732 13.4318L24.7258 5.6476L4.57847 13.2792L24.7258 20.7581Z" fill="#231F20"/>
<path d="M48.5363 12.3633L25.489 3.20536C25.3363 3.20536 24.8784 3.05273 24.7258 3.05273C24.5732 3.05273 24.1153 3.05273 23.9626 3.20536L0.91528 12.3633C0.457386 12.3633 0.152122 12.9738 0.152122 13.5843V44.2633C0.152122 44.8738 0.610017 45.1791 0.91528 45.4843L23.6574 54.7948C23.81 54.7948 24.2679 54.9475 24.4205 54.9475C24.5732 54.9475 25.0311 54.9475 25.1837 54.7948L47.9258 45.4843C48.3837 45.3317 48.689 44.8738 48.689 44.2633V13.5843C49.2995 12.9738 48.8416 12.3633 48.5363 12.3633ZM24.7258 5.34221L45.4837 13.2791L24.7258 20.758L3.96791 13.2791L24.7258 5.34221ZM24.7258 23.2001L29.7626 25.3369V32.358L24.7258 34.4948L19.689 32.358V25.3369L24.7258 23.2001ZM2.4416 15.1106L21.3679 22.2843L17.5521 23.8106C17.3995 23.8106 17.0942 23.9633 17.0942 24.2685V33.579C17.0942 33.7317 17.2469 34.0369 17.2469 34.0369L21.0626 35.5633L2.28896 42.5843V15.1106H2.4416ZM24.7258 52.658L4.12054 44.2633L24.8784 36.7843L45.4837 44.2633L24.7258 52.658ZM47.01 42.5843L28.0837 35.5633L31.8995 34.0369C32.0521 34.0369 32.0521 33.8843 32.0521 33.579V23.9633C32.0521 23.8106 31.8995 23.5054 31.8995 23.5054L28.0837 21.9791L47.01 14.8054V42.5843Z" fill="#231F20"/>
</g>
</svg>
