<svg width="143" height="26" viewBox="0 0 143 26" fill="none" xmlns="http://www.w3.org/2000/svg">
<mask id="mask0_42_12507" style="mask-type:luminance" maskUnits="userSpaceOnUse" x="0" y="0" width="143" height="27">
<path d="M0 0H142.048V26.0061H0V0Z" fill="white"/>
</mask>
<g mask="url(#mask0_42_12507)">
<path d="M28.6882 7.18509C23.5263 7.18509 19.4916 11.1042 19.4916 16.3528C19.4916 21.5956 23.4223 25.4859 28.6882 25.4859C33.9542 25.4859 37.9542 21.5321 37.9542 16.3181C37.9542 11.1389 34.0235 7.18509 28.6882 7.18509ZM28.7229 21.7055C25.7865 21.7055 23.6304 19.4164 23.6304 16.3528C23.6304 13.2487 25.7518 10.9655 28.6882 10.9655C31.6651 10.9655 33.8212 13.2834 33.8212 16.3528C33.8212 19.4164 31.6651 21.7055 28.7229 21.7055ZM39.0872 11.1736H41.6479V25.1448H45.752V7.52613H39.0872V11.1736ZM9.16779 10.9655C11.3181 10.9655 13.0291 12.295 13.6765 14.2719H18.0234C17.2372 10.0464 13.7459 7.18509 9.20247 7.18509C4.03478 7.18509 6.10352e-05 11.1042 6.10352e-05 16.3528C6.10352e-05 21.6014 3.93652 25.4859 9.20247 25.4859C13.6476 25.4859 17.2026 22.6246 17.9887 18.3644H13.6765C13.0638 20.3413 11.3528 21.7055 9.20247 21.7055C6.22556 21.7055 4.13883 19.4164 4.13883 16.3528C4.13883 13.2487 6.19088 10.9655 9.16779 10.9655ZM117.042 14.6476L114.036 14.2025C112.597 14.0002 111.573 13.5262 111.573 12.399C111.573 11.1736 112.909 10.5608 114.718 10.5608C116.701 10.5608 117.967 11.4106 118.238 12.8094H122.209C121.764 9.26603 119.024 7.18509 114.822 7.18509C110.481 7.18509 107.608 9.39898 107.608 12.5377C107.608 15.532 109.487 17.2719 113.284 17.8153L116.29 18.2603C117.764 18.4627 118.585 19.0465 118.585 20.1332C118.585 21.5321 117.146 22.1101 115.163 22.1101C112.735 22.1101 111.365 21.1216 111.163 19.6245H107.128C107.504 23.0696 110.204 25.4859 115.128 25.4859C119.608 25.4859 122.585 23.4396 122.585 19.9309C122.585 16.7921 120.429 15.1563 117.042 14.6476ZM43.6999 0.265942C42.197 0.265942 41.0699 1.35844 41.0699 2.85556C41.0699 4.35269 42.197 5.44519 43.6999 5.44519C45.2028 5.44519 46.3358 4.35269 46.3358 2.85556C46.3358 1.35844 45.2028 0.265942 43.6999 0.265942ZM103.914 13.5551C103.914 9.74003 101.591 7.18509 96.6658 7.18509C92.0184 7.18509 89.4172 9.53771 88.9027 13.1505H92.9721C93.1802 11.7516 94.2727 10.5955 96.5964 10.5955C98.6832 10.5955 99.7121 11.5146 99.7121 12.6418C99.7121 14.1042 97.8277 14.48 95.5039 14.717C92.3594 15.058 88.4576 16.1505 88.4576 20.2372C88.4576 23.4107 90.8218 25.4512 94.5791 25.4512C97.5213 25.4512 99.3652 24.2257 100.29 22.2835C100.429 24.0176 101.729 25.1448 103.539 25.1448H105.932V21.4974H103.914V13.5551ZM99.8797 17.9887C99.8797 20.3413 97.8277 22.0812 95.3305 22.0812C93.7929 22.0812 92.4923 21.428 92.4923 20.0696C92.4923 18.3297 94.5791 17.8557 96.4924 17.6476C98.3421 17.48 99.3653 17.0696 99.8797 16.2834V17.9887ZM78.0991 7.18509C75.8101 7.18509 73.891 8.13885 72.5268 9.74003V0.0925293H68.4227V25.1448H72.4575V22.8269C73.8216 24.4974 75.7754 25.4859 78.0991 25.4859C83.024 25.4859 86.7524 21.6014 86.7524 16.3528C86.7524 11.1042 82.9547 7.18509 78.0991 7.18509ZM77.4806 21.7055C74.5442 21.7055 72.3881 19.4164 72.3881 16.3528C72.3881 13.2834 74.5789 10.9655 77.5153 10.9655C80.4922 10.9655 82.5789 13.2545 82.5789 16.3528C82.5789 19.4164 80.4229 21.7055 77.4806 21.7055ZM58.6076 7.18509C55.9428 7.18509 54.1972 8.2718 53.174 9.80939V7.52613H49.1046V25.1448H53.2029V15.5667C53.2029 12.873 54.9139 10.9655 57.4457 10.9655C59.8041 10.9655 61.2724 12.636 61.2724 15.058V25.1448H65.3765V14.7516C65.3765 10.3181 63.0874 7.18509 58.6076 7.18509ZM142.14 15.7748C142.14 10.7285 138.447 7.18509 133.493 7.18509C128.227 7.18509 124.36 11.1389 124.36 16.3528C124.36 21.8384 128.499 25.4859 133.556 25.4859C137.834 25.4859 141.186 22.9656 142.036 19.3875H137.764C137.146 20.954 135.643 21.8384 133.626 21.8384C130.99 21.8384 129.007 20.2026 128.568 17.3413H142.14V15.7748ZM128.805 14.4106C129.458 11.9539 131.302 10.7632 133.423 10.7632C135.747 10.7632 137.527 12.0927 137.938 14.4106H128.805Z" fill="#0A2540"/>
</g>
</svg>
