<svg width="36" height="39" viewBox="0 0 36 39" fill="none" xmlns="http://www.w3.org/2000/svg">
<rect width="35.843" height="38.8935" rx="4.5757" fill="#004040"/>
<path d="M18.2632 11.6304L25.4475 14.5041C25.7269 14.6159 25.9504 14.9511 25.9504 15.2465V17.8967C25.9504 18.3357 25.5912 18.6949 25.1522 18.6949H10.7836C10.3445 18.6949 9.98533 18.3357 9.98533 17.8967V15.2465C9.98533 14.9511 10.2088 14.6159 10.4882 14.5041L17.6725 11.6304C17.8322 11.5666 18.1036 11.5666 18.2632 11.6304Z" stroke="white" stroke-width="1.19738" stroke-miterlimit="10" stroke-linecap="round" stroke-linejoin="round"/>
<path d="M25.9504 27.4755H9.98533V25.0807C9.98533 24.6417 10.3445 24.2825 10.7836 24.2825H25.1522C25.5912 24.2825 25.9504 24.6417 25.9504 25.0807V27.4755Z" stroke="white" stroke-width="1.19738" stroke-miterlimit="10" stroke-linecap="round" stroke-linejoin="round"/>
<path d="M11.5818 24.2826V18.6948" stroke="white" stroke-width="1.19738" stroke-miterlimit="10" stroke-linecap="round" stroke-linejoin="round"/>
<path d="M14.7748 24.2826V18.6948" stroke="white" stroke-width="1.19738" stroke-miterlimit="10" stroke-linecap="round" stroke-linejoin="round"/>
<path d="M17.9679 24.2826V18.6948" stroke="white" stroke-width="1.19738" stroke-miterlimit="10" stroke-linecap="round" stroke-linejoin="round"/>
<path d="M21.1609 24.2826V18.6948" stroke="white" stroke-width="1.19738" stroke-miterlimit="10" stroke-linecap="round" stroke-linejoin="round"/>
<path d="M24.3539 24.2826V18.6948" stroke="white" stroke-width="1.19738" stroke-miterlimit="10" stroke-linecap="round" stroke-linejoin="round"/>
<path d="M9.18706 27.4756H26.7486" stroke="white" stroke-width="1.19738" stroke-miterlimit="10" stroke-linecap="round" stroke-linejoin="round"/>
<path d="M17.9678 16.6992C18.6291 16.6992 19.1652 16.1631 19.1652 15.5018C19.1652 14.8405 18.6291 14.3044 17.9678 14.3044C17.3065 14.3044 16.7704 14.8405 16.7704 15.5018C16.7704 16.1631 17.3065 16.6992 17.9678 16.6992Z" stroke="white" stroke-width="1.19738" stroke-miterlimit="10" stroke-linecap="round" stroke-linejoin="round"/>
</svg>
