<svg width="36" height="39" viewBox="0 0 36 39" fill="none" xmlns="http://www.w3.org/2000/svg">
<rect width="35.843" height="38.8935" rx="4.5757" fill="#004040"/>
<path d="M15.061 13.6104L16.1956 14.7853C17.3302 15.9602 18.485 15.9804 19.6599 14.8458L20.8348 13.7112C22.0097 12.5766 22.0299 11.4218 20.8953 10.2469L19.7607 9.07195C18.6261 7.89703 17.4713 7.87687 16.2964 9.01148L15.1214 10.1461C13.9465 11.2807 13.9264 12.4355 15.061 13.6104Z" stroke="white" stroke-width="1.225" stroke-miterlimit="10" stroke-linecap="round" stroke-linejoin="round"/>
<path d="M21.8686 20.6599L23.0032 21.8349C24.1378 23.0098 25.2926 23.0299 26.4675 21.8953L27.6424 20.7607C28.8174 19.6261 28.8375 18.4714 27.7029 17.2964L26.5683 16.1215C25.4337 14.9466 24.2789 14.9264 23.104 16.061L21.9291 17.1957C20.7542 18.3303 20.734 19.485 21.8686 20.6599Z" stroke="white" stroke-width="1.225" stroke-miterlimit="10" stroke-linecap="round" stroke-linejoin="round"/>
<path d="M14.8191 27.4676L15.9537 28.6425C17.0883 29.8174 18.2431 29.8376 19.418 28.703L20.5929 27.5683C21.7679 26.4337 21.788 25.279 20.6534 24.1041L19.5188 22.9291C18.3842 21.7542 17.2294 21.7341 16.0545 22.8687L14.8796 24.0033C13.7047 25.1379 13.6845 26.2926 14.8191 27.4676Z" stroke="white" stroke-width="1.225" stroke-miterlimit="10" stroke-linecap="round" stroke-linejoin="round"/>
<path d="M8.01144 20.418L9.14605 21.5929C10.2807 22.7678 11.4354 22.788 12.6103 21.6534L13.7853 20.5188C14.9602 19.3842 14.9803 18.2294 13.8457 17.0545L12.7111 15.8796C11.5765 14.7046 10.4218 14.6845 9.24683 15.8191L8.07191 16.9537C6.89699 18.0883 6.87683 19.2431 8.01144 20.418Z" stroke="white" stroke-width="1.225" stroke-miterlimit="10" stroke-linecap="round" stroke-linejoin="round"/>
</svg>
