<svg preserveAspectRatio="none" width="100%" height="100%" overflow="visible" style="display: block;" viewBox="0 0 23 24" fill="none" xmlns="http://www.w3.org/2000/svg">
<g id="key">
<path id="Vector" d="M18.9654 14.93C16.9913 16.98 14.1642 17.61 11.6821 16.8L7.16833 21.5C6.8425 21.85 6.20042 22.06 5.74042 21.99L3.65125 21.69C2.96125 21.59 2.31917 20.91 2.21375 20.19L1.92625 18.01C1.85917 17.53 2.07958 16.86 2.39583 16.52L6.9 11.82C6.13333 9.22 6.7275 6.27 8.70167 4.22C11.5287 1.27 16.1192 1.27 18.9558 4.22C21.7925 7.17 21.7925 11.98 18.9654 14.93Z" stroke="var(--stroke-0, #292D32)" stroke-width="1.5" stroke-miterlimit="10" stroke-linecap="round" stroke-linejoin="round"/>
<path id="Vector_2" d="M6.60292 17.49L8.80708 19.79" stroke="var(--stroke-0, #292D32)" stroke-width="1.5" stroke-miterlimit="10" stroke-linecap="round" stroke-linejoin="round"/>
<path id="Vector_3" d="M13.8958 11C14.6897 11 15.3333 10.3284 15.3333 9.5C15.3333 8.67157 14.6897 8 13.8958 8C13.1019 8 12.4583 8.67157 12.4583 9.5C12.4583 10.3284 13.1019 11 13.8958 11Z" stroke="var(--stroke-0, #292D32)" stroke-width="1.5" stroke-linecap="round" stroke-linejoin="round"/>
<g id="Vector_4" opacity="0">
</g>
</g>
</svg>
