<svg width="260" height="61" viewBox="0 0 260 61" fill="none" xmlns="http://www.w3.org/2000/svg">
<g clip-path="url(#clip0_281_3204)">
<path d="M17.5464 30.3834L35.5607 48.3989L46.9463 37.0124C48.9481 35.0106 52.2232 35.0106 54.2251 37.0124C56.2266 39.0143 56.2266 42.2897 54.2251 44.2915L39.2001 59.3174C37.1986 61.3193 33.9232 61.3193 31.9216 59.3174L10.3459 37.6884V50.5826C10.3459 53.3903 8.05839 55.7559 5.17297 55.7559C2.28757 55.7559 0 53.4682 0 50.5826V10.3401C0 7.45449 2.28757 5.16679 5.17297 5.16679C8.05839 5.16679 10.3459 7.45449 10.3459 10.3401V23.1304L31.9733 1.50129C33.9752 -0.500432 37.2502 -0.500432 39.2521 1.50129L54.2771 16.5272C56.2786 18.529 56.2786 21.8045 54.2771 23.8063C52.2752 25.808 49.0001 25.808 46.9983 23.8063L35.6127 12.4198L17.5464 30.4352V30.3834ZM35.6127 25.2101C32.7272 25.2101 30.4398 27.4978 30.4398 30.3834C30.4398 33.2691 32.7272 35.5568 35.6127 35.5568C38.4982 35.5568 40.7856 33.2691 40.7856 30.3834C40.7336 27.4978 38.4462 25.2101 35.6127 25.2101Z" fill="#00B47D"/>
<path d="M205.384 30.4093C205.384 28.9015 205.384 27.4977 205.332 26.2239C205.28 24.9501 205.151 23.7022 204.995 22.6364C204.812 21.5185 204.475 20.5047 203.955 19.5168C203.487 18.5029 202.759 17.6191 201.901 16.7092C200.653 15.4873 199.276 14.5775 197.742 13.9015C196.208 13.2776 194.441 12.8877 192.439 12.8877C190.437 12.8877 188.67 13.2256 187.136 13.9015C185.603 14.5255 184.173 15.4613 182.899 16.7092C181.989 17.5931 181.365 18.5029 180.897 19.5168C180.43 20.5307 180.039 21.5185 179.858 22.6364C179.676 23.7542 179.572 24.9241 179.52 26.2239C179.468 27.4977 179.468 28.9015 179.468 30.4093C179.468 31.9171 179.468 33.2688 179.52 34.5947C179.572 35.8685 179.702 37.1165 179.858 38.1824C180.039 39.3002 180.378 40.3141 180.897 41.3018C181.365 42.3156 182.093 43.1996 182.899 44.1095C184.147 45.3313 185.524 46.2412 187.136 46.9172C188.67 47.5409 190.437 47.931 192.439 47.931C194.441 47.931 196.156 47.5929 197.742 46.9172C199.276 46.2932 200.705 45.3572 201.901 44.1095C202.811 43.2255 203.435 42.3156 203.955 41.3018C204.423 40.2879 204.812 39.3002 204.995 38.1824C205.176 37.0645 205.332 35.8947 205.332 34.5947C205.384 33.191 205.384 31.9171 205.384 30.4093ZM198.6 30.4093C198.6 32.0211 198.6 33.4248 198.548 34.5427C198.496 35.6605 198.444 36.4925 198.262 37.2202C198.158 37.8962 197.976 38.4941 197.742 38.9101C197.508 39.3522 197.274 39.7941 196.884 40.1319C196.416 40.7039 195.74 41.1458 195.064 41.4839C194.311 41.8218 193.453 41.9258 192.491 41.9778C191.529 41.9778 190.723 41.8218 189.918 41.4839C189.164 41.1458 188.54 40.7559 188.02 40.1319C187.682 39.7941 187.448 39.4039 187.162 38.9101C186.928 38.4682 186.772 37.8962 186.642 37.2202C186.538 36.5445 186.408 35.6605 186.408 34.5427C186.356 33.4248 186.356 32.0731 186.356 30.4093C186.356 28.7455 186.356 27.3937 186.408 26.2759C186.46 25.158 186.512 24.3261 186.642 23.5982C186.746 22.8704 186.928 22.3244 187.162 21.9085C187.396 21.4665 187.63 21.0246 188.02 20.6866C188.488 20.1147 189.164 19.6728 189.918 19.3348C190.671 18.9969 191.529 18.8929 192.491 18.8409C193.453 18.8409 194.259 18.9969 195.064 19.3348C195.74 19.6728 196.442 20.0627 196.884 20.6866C197.222 21.0246 197.456 21.4145 197.742 21.9085C197.976 22.3504 198.132 22.9223 198.262 23.5982C198.366 24.2741 198.496 25.158 198.548 26.2759C198.548 27.3937 198.6 28.7975 198.6 30.4093Z" fill="#00B47D"/>
<path d="M259.973 13.5114C259.973 13.1734 259.687 12.9395 259.401 12.9395H253.812C253.474 12.9395 253.24 13.2254 253.24 13.5114V33.4246C253.24 33.7105 252.85 33.8406 252.694 33.5806L239.463 13.1214C239.359 13.0174 239.281 12.9395 239.125 12.9395H233.874C233.562 12.9395 233.302 13.1994 233.302 13.5114V47.3326C233.302 47.6708 233.588 47.9047 233.874 47.9047H239.463C239.801 47.9047 240.035 47.6188 240.035 47.3326V27.3675C240.035 27.0815 240.424 26.9515 240.58 27.2115L253.812 47.7228C253.916 47.8268 253.994 47.9047 254.15 47.9047H259.401C259.739 47.9047 259.973 47.6188 259.973 47.3326V13.5114Z" fill="#00B47D"/>
<path d="M222.073 13.5114C222.073 13.1734 221.787 12.9395 221.501 12.9395H215.912C215.574 12.9395 215.34 13.2254 215.34 13.5114V47.3326C215.34 47.6708 215.626 47.9047 215.912 47.9047H221.501C221.839 47.9047 222.073 47.6188 222.073 47.3326V13.5114Z" fill="#00B47D"/>
<path d="M154.304 30.2537C154.304 28.5899 154.304 27.6281 154.356 26.4842C154.408 25.3404 154.46 24.4825 154.59 23.7286C155.11 20.687 157.449 18.9192 160.413 18.9192C163.376 18.9192 164.078 19.5951 165.222 21.2589C165.69 21.9348 166.08 22.7927 166.314 23.7806C166.314 23.8846 166.366 23.9625 166.495 23.9625H173.124C173.228 23.9625 173.228 23.9106 173.228 23.7806C172.552 19.7251 170.317 15.9556 166.418 14.1359C164.65 13.278 162.596 12.8101 160.309 12.8101C156.591 12.8101 153.394 14.1359 150.821 16.6315C149.339 18.1133 148.429 19.8811 147.961 21.8828C147.571 23.8325 147.39 26.2762 147.39 30.0977C147.39 33.9192 147.571 36.8309 147.961 38.7804C148.351 40.7823 149.391 42.55 150.821 44.0318C153.394 46.6053 156.539 47.8533 160.309 47.8533C164.078 47.8533 164.598 47.4635 166.418 46.5275C170.239 44.7078 172.526 41.0423 173.228 36.8829C173.228 36.7789 173.228 36.7007 173.124 36.7007H166.495C166.391 36.7007 166.314 36.7527 166.314 36.8829C166.08 37.8447 165.742 38.6506 165.222 39.4044C164.078 41.0161 162.363 41.6921 160.413 41.7441C157.449 41.7441 155.162 39.9764 154.59 36.9349C154.486 36.2589 154.356 35.3229 154.356 34.1792C154.304 33.2693 154.304 31.8395 154.304 30.1757V30.2537Z" fill="#00B47D"/>
<path d="M84.1447 13.4596C84.1447 13.1217 83.8589 12.8877 83.573 12.8877H77.9841C77.6463 12.8877 77.4121 13.1737 77.4121 13.4596V47.2812C77.4121 47.619 77.6983 47.8529 77.9841 47.8529H83.573C83.9109 47.8529 84.1447 47.567 84.1447 47.2812V37.4544C84.1447 37.3762 84.1447 37.3242 84.2229 37.2722L88.4598 32.255C88.59 32.099 88.85 32.1251 88.954 32.307L98.0519 47.775C98.1039 47.879 98.234 47.9569 98.39 47.9569H105.252C105.539 47.9569 105.59 47.775 105.486 47.4889L93.4251 27.0298C93.3731 26.9258 93.3731 26.7958 93.4509 26.6918L104.525 13.4336C104.759 13.1477 104.628 12.9137 104.291 12.9137H96.7522C96.6482 12.9137 96.4405 13.0437 96.3885 13.1737L84.7167 27.0817C84.5349 27.2897 84.1967 27.1597 84.1967 26.8998V13.4856L84.1447 13.4596Z" fill="#00B47D"/>
<path d="M125.295 41.7437C122.097 41.7437 119.238 38.7801 119.238 35.2967V13.5895C119.238 13.2515 118.952 13.0176 118.666 13.0176H113.077C112.739 13.0176 112.505 13.3035 112.505 13.5895V35.2447C112.505 43.0176 118.328 47.9308 125.425 47.9308C132.521 47.9308 138.344 43.0176 138.344 35.2447V13.5895C138.344 13.2515 138.058 13.0176 137.772 13.0176H132.183C131.845 13.0176 131.611 13.3035 131.611 13.5895V35.2967C131.325 38.7801 128.466 41.7437 125.321 41.7437H125.295Z" fill="#00B47D"/>
</g>
<defs>
<clipPath id="clip0_281_3204">
<rect width="260" height="60.8187" fill="white"/>
</clipPath>
</defs>
</svg>
