<svg width="259" height="39" viewBox="0 0 259 39" fill="none" xmlns="http://www.w3.org/2000/svg">
<path fill-rule="evenodd" clip-rule="evenodd" d="M9.05523 37.0719H42.8661C44.8756 37.0719 46.4048 34.6831 45.2476 32.948L28.3636 3.572C27.1302 1.44638 24.7911 0.000976562 22.1119 0.000976562C19.3049 0.000976562 16.8381 1.61643 15.6473 3.99713L2.80343 26.2736C0.187936 30.9422 3.75387 37.0719 9.05523 37.0719Z" fill="#0043FF"/>
<path fill-rule="evenodd" clip-rule="evenodd" d="M35.6792 10.8432C33.6803 7.39969 34.8711 2.97839 38.316 0.98031C41.7609 -1.01777 46.1839 0.172579 48.1828 3.61609L61.2393 26.2328C63.2383 29.6762 62.0472 34.0975 58.6023 36.0955C55.1575 38.0937 50.7345 36.9032 48.7356 33.4598L35.6792 10.8432Z" fill="#0043FF"/>
<path d="M236.183 9.41476C238.155 7.57579 241.614 6.70009 246.652 6.70009H258.435V0.000976562H244.506C241.176 0.000976562 238.373 0.351268 236.183 1.05183C234.037 1.75239 232.153 2.847 230.533 4.37949C228.825 6.04332 227.467 8.1012 226.504 10.5532C225.54 13.0489 225.057 15.7636 225.057 18.6096C225.057 21.3243 225.54 23.9515 226.504 26.3596C227.467 28.7678 228.825 30.8694 230.533 32.5332C232.109 34.0658 233.992 35.1604 236.096 35.861C238.242 36.5614 241.089 36.9118 244.506 36.9118H258.435V30.3003H246.652C243.98 30.3003 242.14 30.2126 241.089 29.9938C239.994 29.7749 238.987 29.4245 238.155 28.8991C236.49 27.8483 235.219 26.491 234.388 24.7832C233.598 23.1195 233.204 21.0177 233.204 18.5659C233.204 14.3625 234.212 11.2537 236.183 9.41476Z" fill="white"/>
<path d="M133.641 36.9996H166.493V30.5194H141.657V21.2807H163.339V15.1508H141.657V6.5689H166.493V0.0449219H133.641V36.9996Z" fill="white"/>
<path d="M174.684 0.0449219L190.059 18.5221L174.684 36.9996H184.628L196.762 22.3753V14.7129L184.628 0.0449219H174.684Z" fill="white"/>
<path d="M212.004 0.0449219L199.872 14.7129V22.3753L212.004 36.9996H221.948L206.528 18.5221L221.948 0.0449219H212.004Z" fill="white"/>
<path d="M101.447 18.2595L86.6852 0.0449219H79.0636V36.9996H87.0795V12.3485L99.8698 27.6734H102.98L115.77 12.2172V36.9996H123.786V0.0449219H116.252L101.447 18.2595Z" fill="white"/>
</svg>
